solid OpenSCAD_Model
  facet normal 0 0 1
    outer loop
      vertex 76.9 25.8 77.7
      vertex 76.7 25 77.7
      vertex 76.9 -25.8 77.7
    endloop
  endfacet
  facet normal 0 0 1
    outer loop
      vertex 76.9 25.8 77.7
      vertex 75.7 25 77.7
      vertex 76.7 25 77.7
    endloop
  endfacet
  facet normal 0 0 1
    outer loop
      vertex 75.7 25 77.7
      vertex 73.9 25 77.7
      vertex 75.7 -25 77.7
    endloop
  endfacet
  facet normal 0 0 1
    outer loop
      vertex 76.9 25.8 77.7
      vertex 73.9 25 77.7
      vertex 75.7 25 77.7
    endloop
  endfacet
  facet normal -0 0 1
    outer loop
      vertex 49.9 25.8 77.7
      vertex 73.9 25 77.7
      vertex 76.9 25.8 77.7
    endloop
  endfacet
  facet normal 0 0 1
    outer loop
      vertex 73.9 25 77.7
      vertex 49.9 25.8 77.7
      vertex 49.9 25 77.7
    endloop
  endfacet
  facet normal -0 0 1
    outer loop
      vertex 76.7 -25 77.7
      vertex 76.9 -25.8 77.7
      vertex 76.7 25 77.7
    endloop
  endfacet
  facet normal -0 0 1
    outer loop
      vertex 75.7 -25 77.7
      vertex 76.9 -25.8 77.7
      vertex 76.7 -25 77.7
    endloop
  endfacet
  facet normal 0 0 1
    outer loop
      vertex 73.9 -25 77.7
      vertex 75.7 -25 77.7
      vertex 73.9 25 77.7
    endloop
  endfacet
  facet normal -0 0 1
    outer loop
      vertex 73.9 -25 77.7
      vertex 76.9 -25.8 77.7
      vertex 75.7 -25 77.7
    endloop
  endfacet
  facet normal 0 0 1
    outer loop
      vertex 49.9 -25.8 77.7
      vertex 73.9 -25 77.7
      vertex 49.9 -25 77.7
    endloop
  endfacet
  facet normal 0 0 1
    outer loop
      vertex 73.9 -25 77.7
      vertex 49.9 -25.8 77.7
      vertex 76.9 -25.8 77.7
    endloop
  endfacet
  facet normal 0.680703 0.680703 0.270716
    outer loop
      vertex 77.6071 26.5071 76.7
      vertex 77.3619 26.6001 77.0827
      vertex 77.7001 26.2619 77.0827
    endloop
  endfacet
  facet normal 0 1 0
    outer loop
      vertex 76.9 26.8 76.7
      vertex 49.9 26.8 25.5
      vertex 49.9 26.8 76.7
    endloop
  endfacet
  facet normal 0 1 0
    outer loop
      vertex -76.9 26.8 1
      vertex -52.1 26.8 25.5
      vertex 49.9 26.8 25.5
    endloop
  endfacet
  facet normal 0 1 -0
    outer loop
      vertex 76.9 26.8 1
      vertex 49.9 26.8 25.5
      vertex 76.9 26.8 76.7
    endloop
  endfacet
  facet normal 0 1 0
    outer loop
      vertex -76.9 26.8 1
      vertex 49.9 26.8 25.5
      vertex 76.9 26.8 1
    endloop
  endfacet
  facet normal 0 1 0
    outer loop
      vertex -52.1 26.8 25.5
      vertex -76.9 26.8 1
      vertex -76.9 26.8 25.5
    endloop
  endfacet
  facet normal 0 1 -0
    outer loop
      vertex -52.1 26.8 25.5
      vertex -76.9 26.8 174.9
      vertex -52.1 26.8 174.9
    endloop
  endfacet
  facet normal 0 1 0
    outer loop
      vertex -76.9 26.8 174.9
      vertex -52.1 26.8 25.5
      vertex -76.9 26.8 25.5
    endloop
  endfacet
  facet normal -0 0.555646 0.831419
    outer loop
      vertex 49.9 26.5071 77.4071
      vertex 76.9 26.1827 77.6239
      vertex 76.9 26.5071 77.4071
    endloop
  endfacet
  facet normal 0 0.555646 0.831419
    outer loop
      vertex 76.9 26.1827 77.6239
      vertex 49.9 26.5071 77.4071
      vertex 49.9 26.1827 77.6239
    endloop
  endfacet
  facet normal -0.962659 0.191425 0.191425
    outer loop
      vertex 48.9761 26.1827 76.7
      vertex 48.9 25.8 76.7
      vertex 48.9761 25.8 77.0827
    endloop
  endfacet
  facet normal 0.2974 0.71801 0.629297
    outer loop
      vertex 77.3619 26.6001 77.0827
      vertex 76.9 26.5071 77.4071
      vertex 77.4 26.3 77.4071
    endloop
  endfacet
  facet normal 0.549175 0.821736 0.152172
    outer loop
      vertex 77.6071 26.5071 76.7
      vertex 77.2827 26.7239 76.7
      vertex 77.3619 26.6001 77.0827
    endloop
  endfacet
  facet normal 0.191425 0.191425 0.962659
    outer loop
      vertex 76.9 26.1827 77.6239
      vertex 76.9 25.8 77.7
      vertex 77.2827 25.8 77.6239
    endloop
  endfacet
  facet normal -0.962659 -0.191425 0.191425
    outer loop
      vertex 48.9761 -25.8 77.0827
      vertex 48.9 -25.8 76.7
      vertex 48.9761 -26.1827 76.7
    endloop
  endfacet
  facet normal -0.549175 -0.821736 0.152172
    outer loop
      vertex 49.4381 -26.6001 77.0827
      vertex 49.1929 -26.5071 76.7
      vertex 49.5173 -26.7239 76.7
    endloop
  endfacet
  facet normal -0.191425 0.962659 0.191425
    outer loop
      vertex 49.9 26.8 76.7
      vertex 49.5173 26.7239 76.7
      vertex 49.9 26.7239 77.0827
    endloop
  endfacet
  facet normal 0.195032 -0.980797 0
    outer loop
      vertex 76.9 -26.8 1
      vertex 77.2827 -26.7239 76.7
      vertex 76.9 -26.8 76.7
    endloop
  endfacet
  facet normal 0.195032 -0.980797 0
    outer loop
      vertex 77.2827 -26.7239 76.7
      vertex 76.9 -26.8 1
      vertex 77.2827 -26.7239 1
    endloop
  endfacet
  facet normal 0.195032 0.980797 -0
    outer loop
      vertex 77.2827 26.7239 1
      vertex 76.9 26.8 76.7
      vertex 77.2827 26.7239 76.7
    endloop
  endfacet
  facet normal 0.195032 0.980797 0
    outer loop
      vertex 76.9 26.8 76.7
      vertex 77.2827 26.7239 1
      vertex 76.9 26.8 1
    endloop
  endfacet
  facet normal -0.195032 0.980797 0
    outer loop
      vertex 49.9 26.8 76.7
      vertex 49.5173 26.7239 25.8827
      vertex 49.5173 26.7239 76.7
    endloop
  endfacet
  facet normal -0.195032 0.980797 0
    outer loop
      vertex 49.5173 26.7239 25.8827
      vertex 49.9 26.8 76.7
      vertex 49.9 26.8 25.5
    endloop
  endfacet
  facet normal -0 0.195032 0.980797
    outer loop
      vertex 49.9 26.1827 77.6239
      vertex 76.9 25.8 77.7
      vertex 76.9 26.1827 77.6239
    endloop
  endfacet
  facet normal 0 0.195032 0.980797
    outer loop
      vertex 76.9 25.8 77.7
      vertex 49.9 26.1827 77.6239
      vertex 49.9 25.8 77.7
    endloop
  endfacet
  facet normal 0 0.831419 0.555646
    outer loop
      vertex 76.9 26.7239 77.0827
      vertex 49.9 26.5071 77.4071
      vertex 76.9 26.5071 77.4071
    endloop
  endfacet
  facet normal 0 0.831419 0.555646
    outer loop
      vertex 49.9 26.5071 77.4071
      vertex 76.9 26.7239 77.0827
      vertex 49.9 26.7239 77.0827
    endloop
  endfacet
  facet normal -0.54149 0.224285 0.810237
    outer loop
      vertex 49.4 26.3 77.4071
      vertex 49.1929 25.8 77.4071
      vertex 49.5173 25.8 77.6239
    endloop
  endfacet
  facet normal -1 0 0
    outer loop
      vertex 48.9 -25.8 26.5
      vertex 48.9 -25 76.7
      vertex 48.9 -25 26.5
    endloop
  endfacet
  facet normal -1 -0 0
    outer loop
      vertex 48.9 -25 76.7
      vertex 48.9 -25.8 26.5
      vertex 48.9 -25.8 76.7
    endloop
  endfacet
  facet normal -1 0 0
    outer loop
      vertex 48.9 25 26.5
      vertex 48.9 25.8 76.7
      vertex 48.9 25.8 26.5
    endloop
  endfacet
  facet normal -1 -0 0
    outer loop
      vertex 48.9 25.8 76.7
      vertex 48.9 25 26.5
      vertex 48.9 25 76.7
    endloop
  endfacet
  facet normal 0.217505 0.811514 0.542344
    outer loop
      vertex 76.9 26.7239 77.0827
      vertex 76.9 26.5071 77.4071
      vertex 77.3619 26.6001 77.0827
    endloop
  endfacet
  facet normal 0.2974 -0.71801 0.629297
    outer loop
      vertex 77.4 -26.3 77.4071
      vertex 76.9 -26.5071 77.4071
      vertex 77.3619 -26.6001 77.0827
    endloop
  endfacet
  facet normal -0.191425 -0.962659 0.191425
    outer loop
      vertex 49.9 -26.7239 77.0827
      vertex 49.5173 -26.7239 76.7
      vertex 49.9 -26.8 76.7
    endloop
  endfacet
  facet normal -0.821736 0.549175 0.152172
    outer loop
      vertex 49.1929 26.5071 76.7
      vertex 48.9761 26.1827 76.7
      vertex 49.0999 26.2619 77.0827
    endloop
  endfacet
  facet normal -0.250623 -0.935081 0.250623
    outer loop
      vertex 49.9 -26.7239 77.0827
      vertex 49.4381 -26.6001 77.0827
      vertex 49.5173 -26.7239 76.7
    endloop
  endfacet
  facet normal -0.935081 -0.250623 0.250623
    outer loop
      vertex 48.9761 -25.8 77.0827
      vertex 48.9761 -26.1827 76.7
      vertex 49.0999 -26.2619 77.0827
    endloop
  endfacet
  facet normal -0.935081 0.250623 0.250623
    outer loop
      vertex 48.9761 26.1827 76.7
      vertex 48.9761 25.8 77.0827
      vertex 49.0999 26.2619 77.0827
    endloop
  endfacet
  facet normal 0.250623 0.935081 0.250623
    outer loop
      vertex 77.2827 26.7239 76.7
      vertex 76.9 26.7239 77.0827
      vertex 77.3619 26.6001 77.0827
    endloop
  endfacet
  facet normal 0.71801 0.2974 0.629297
    outer loop
      vertex 77.7001 26.2619 77.0827
      vertex 77.4 26.3 77.4071
      vertex 77.6071 25.8 77.4071
    endloop
  endfacet
  facet normal 0.224285 -0.54149 0.810237
    outer loop
      vertex 76.9 -26.1827 77.6239
      vertex 76.9 -26.5071 77.4071
      vertex 77.4 -26.3 77.4071
    endloop
  endfacet
  facet normal 0.962659 0.191425 0.191425
    outer loop
      vertex 77.8239 26.1827 76.7
      vertex 77.8239 25.8 77.0827
      vertex 77.9 25.8 76.7
    endloop
  endfacet
  facet normal -0.980797 0 0.195032
    outer loop
      vertex 48.9 -25.8 76.7
      vertex 48.9761 -25 77.0827
      vertex 48.9 -25 76.7
    endloop
  endfacet
  facet normal -0.980797 0 0.195032
    outer loop
      vertex 48.9761 -25 77.0827
      vertex 48.9 -25.8 76.7
      vertex 48.9761 -25.8 77.0827
    endloop
  endfacet
  facet normal -0.980797 0 0.195032
    outer loop
      vertex 48.9 25 76.7
      vertex 48.9761 25.8 77.0827
      vertex 48.9 25.8 76.7
    endloop
  endfacet
  facet normal -0.980797 0 0.195032
    outer loop
      vertex 48.9761 25.8 77.0827
      vertex 48.9 25 76.7
      vertex 48.9761 25 77.0827
    endloop
  endfacet
  facet normal -0.831419 0 0.555646
    outer loop
      vertex 48.9761 25 77.0827
      vertex 49.1929 25.8 77.4071
      vertex 48.9761 25.8 77.0827
    endloop
  endfacet
  facet normal -0.831419 0 0.555646
    outer loop
      vertex 49.1929 25.8 77.4071
      vertex 48.9761 25 77.0827
      vertex 49.1929 25 77.4071
    endloop
  endfacet
  facet normal -0.831419 0 0.555646
    outer loop
      vertex 48.9761 -25.8 77.0827
      vertex 49.1929 -25 77.4071
      vertex 48.9761 -25 77.0827
    endloop
  endfacet
  facet normal -0.831419 0 0.555646
    outer loop
      vertex 49.1929 -25 77.4071
      vertex 48.9761 -25.8 77.0827
      vertex 49.1929 -25.8 77.4071
    endloop
  endfacet
  facet normal -0.821736 -0.549175 0.152172
    outer loop
      vertex 49.0999 -26.2619 77.0827
      vertex 48.9761 -26.1827 76.7
      vertex 49.1929 -26.5071 76.7
    endloop
  endfacet
  facet normal -0.71801 -0.2974 0.629297
    outer loop
      vertex 49.1929 -25.8 77.4071
      vertex 49.0999 -26.2619 77.0827
      vertex 49.4 -26.3 77.4071
    endloop
  endfacet
  facet normal -0.555646 0.831419 0
    outer loop
      vertex 49.5173 26.7239 76.7
      vertex 49.1929 26.5071 26.2071
      vertex 49.1929 26.5071 76.7
    endloop
  endfacet
  facet normal -0.555646 0.831419 0
    outer loop
      vertex 49.1929 26.5071 26.2071
      vertex 49.5173 26.7239 76.7
      vertex 49.5173 26.7239 25.8827
    endloop
  endfacet
  facet normal 0 0.980797 0.195032
    outer loop
      vertex 76.9 26.8 76.7
      vertex 49.9 26.7239 77.0827
      vertex 76.9 26.7239 77.0827
    endloop
  endfacet
  facet normal 0 0.980797 0.195032
    outer loop
      vertex 49.9 26.7239 77.0827
      vertex 76.9 26.8 76.7
      vertex 49.9 26.8 76.7
    endloop
  endfacet
  facet normal 0.191425 0.962659 0.191425
    outer loop
      vertex 76.9 26.8 76.7
      vertex 76.9 26.7239 77.0827
      vertex 77.2827 26.7239 76.7
    endloop
  endfacet
  facet normal 0.555646 0 0.831419
    outer loop
      vertex 77.2827 25.8 77.6239
      vertex 77.6071 -25.8 77.4071
      vertex 77.6071 25.8 77.4071
    endloop
  endfacet
  facet normal 0.555646 0 0.831419
    outer loop
      vertex 77.6071 -25.8 77.4071
      vertex 77.2827 25.8 77.6239
      vertex 77.2827 -25.8 77.6239
    endloop
  endfacet
  facet normal -0.980797 0.195032 0
    outer loop
      vertex 48.9 25.8 26.5
      vertex 48.9761 26.1827 76.7
      vertex 48.9761 26.1827 26.4239
    endloop
  endfacet
  facet normal -0.980797 0.195032 0
    outer loop
      vertex 48.9761 26.1827 76.7
      vertex 48.9 25.8 26.5
      vertex 48.9 25.8 76.7
    endloop
  endfacet
  facet normal -0.811514 0.217505 0.542344
    outer loop
      vertex 49.0999 26.2619 77.0827
      vertex 48.9761 25.8 77.0827
      vertex 49.1929 25.8 77.4071
    endloop
  endfacet
  facet normal -0.54149 -0.224285 0.810237
    outer loop
      vertex 49.5173 -25.8 77.6239
      vertex 49.1929 -25.8 77.4071
      vertex 49.4 -26.3 77.4071
    endloop
  endfacet
  facet normal -0.191425 -0.191425 0.962659
    outer loop
      vertex 49.9 -25.8 77.7
      vertex 49.5173 -25.8 77.6239
      vertex 49.9 -26.1827 77.6239
    endloop
  endfacet
  facet normal -0.71801 0.2974 0.629297
    outer loop
      vertex 49.4 26.3 77.4071
      vertex 49.0999 26.2619 77.0827
      vertex 49.1929 25.8 77.4071
    endloop
  endfacet
  facet normal -0.191425 0.191425 0.962659
    outer loop
      vertex 49.9 26.1827 77.6239
      vertex 49.5173 25.8 77.6239
      vertex 49.9 25.8 77.7
    endloop
  endfacet
  facet normal -0.680703 0.680703 0.270716
    outer loop
      vertex 49.1929 26.5071 76.7
      vertex 49.0999 26.2619 77.0827
      vertex 49.4381 26.6001 77.0827
    endloop
  endfacet
  facet normal -0.217505 -0.811514 0.542344
    outer loop
      vertex 49.9 -26.5071 77.4071
      vertex 49.4381 -26.6001 77.0827
      vertex 49.9 -26.7239 77.0827
    endloop
  endfacet
  facet normal 0.195032 0 0.980797
    outer loop
      vertex 76.9 25.8 77.7
      vertex 77.2827 -25.8 77.6239
      vertex 77.2827 25.8 77.6239
    endloop
  endfacet
  facet normal 0.195032 0 0.980797
    outer loop
      vertex 77.2827 -25.8 77.6239
      vertex 76.9 25.8 77.7
      vertex 76.9 -25.8 77.7
    endloop
  endfacet
  facet normal 0 -0.195032 0.980797
    outer loop
      vertex 49.9 -25.8 77.7
      vertex 76.9 -26.1827 77.6239
      vertex 76.9 -25.8 77.7
    endloop
  endfacet
  facet normal 0 -0.195032 0.980797
    outer loop
      vertex 76.9 -26.1827 77.6239
      vertex 49.9 -25.8 77.7
      vertex 49.9 -26.1827 77.6239
    endloop
  endfacet
  facet normal 0.980797 0.195032 0
    outer loop
      vertex 77.9 25.8 76.7
      vertex 77.8239 26.1827 1
      vertex 77.8239 26.1827 76.7
    endloop
  endfacet
  facet normal 0.980797 0.195032 0
    outer loop
      vertex 77.8239 26.1827 1
      vertex 77.9 25.8 76.7
      vertex 77.9 25.8 1
    endloop
  endfacet
  facet normal 1 0 0
    outer loop
      vertex 77.9 15 11.5
      vertex 77.9 25.8 76.7
      vertex 77.9 15 67.7
    endloop
  endfacet
  facet normal 1 0 0
    outer loop
      vertex 77.9 25.8 76.7
      vertex 77.9 -15 67.7
      vertex 77.9 15 67.7
    endloop
  endfacet
  facet normal 1 0 0
    outer loop
      vertex 77.9 -15 67.7
      vertex 77.9 -25.8 76.7
      vertex 77.9 -15 11.5
    endloop
  endfacet
  facet normal 1 -0 0
    outer loop
      vertex 77.9 -25.8 76.7
      vertex 77.9 -15 67.7
      vertex 77.9 25.8 76.7
    endloop
  endfacet
  facet normal 1 0 0
    outer loop
      vertex 77.9 25.8 76.7
      vertex 77.9 15 11.5
      vertex 77.9 25.8 1
    endloop
  endfacet
  facet normal 1 -0 0
    outer loop
      vertex 77.9 -15 11.5
      vertex 77.9 25.8 1
      vertex 77.9 15 11.5
    endloop
  endfacet
  facet normal 1 0 0
    outer loop
      vertex 77.9 -15 11.5
      vertex 77.9 -25.8 1
      vertex 77.9 25.8 1
    endloop
  endfacet
  facet normal 1 0 0
    outer loop
      vertex 77.9 -25.8 1
      vertex 77.9 -15 11.5
      vertex 77.9 -25.8 76.7
    endloop
  endfacet
  facet normal 0.935081 -0.250623 0.250623
    outer loop
      vertex 77.8239 -25.8 77.0827
      vertex 77.7001 -26.2619 77.0827
      vertex 77.8239 -26.1827 76.7
    endloop
  endfacet
  facet normal 0.980797 -0 0.195032
    outer loop
      vertex 77.8239 -25.8 77.0827
      vertex 77.9 25.8 76.7
      vertex 77.8239 25.8 77.0827
    endloop
  endfacet
  facet normal 0.980797 0 0.195032
    outer loop
      vertex 77.9 25.8 76.7
      vertex 77.8239 -25.8 77.0827
      vertex 77.9 -25.8 76.7
    endloop
  endfacet
  facet normal -0.980797 -0.195032 -0
    outer loop
      vertex 48.9761 -26.1827 76.7
      vertex 48.9 -25.8 26.5
      vertex 48.9761 -26.1827 26.4239
    endloop
  endfacet
  facet normal -0.980797 -0.195032 0
    outer loop
      vertex 48.9 -25.8 26.5
      vertex 48.9761 -26.1827 76.7
      vertex 48.9 -25.8 76.7
    endloop
  endfacet
  facet normal -0.831419 -0.555646 -0
    outer loop
      vertex 49.1929 -26.5071 76.7
      vertex 48.9761 -26.1827 26.4239
      vertex 49.1929 -26.5071 26.2071
    endloop
  endfacet
  facet normal -0.831419 -0.555646 0
    outer loop
      vertex 48.9761 -26.1827 26.4239
      vertex 49.1929 -26.5071 76.7
      vertex 48.9761 -26.1827 76.7
    endloop
  endfacet
  facet normal -0.250623 0.935081 0.250623
    outer loop
      vertex 49.5173 26.7239 76.7
      vertex 49.4381 26.6001 77.0827
      vertex 49.9 26.7239 77.0827
    endloop
  endfacet
  facet normal -0.549175 0.821736 0.152172
    outer loop
      vertex 49.5173 26.7239 76.7
      vertex 49.1929 26.5071 76.7
      vertex 49.4381 26.6001 77.0827
    endloop
  endfacet
  facet normal 0.555646 0.831419 -0
    outer loop
      vertex 77.6071 26.5071 1
      vertex 77.2827 26.7239 76.7
      vertex 77.6071 26.5071 76.7
    endloop
  endfacet
  facet normal 0.555646 0.831419 0
    outer loop
      vertex 77.2827 26.7239 76.7
      vertex 77.6071 26.5071 1
      vertex 77.2827 26.7239 1
    endloop
  endfacet
  facet normal 0.831419 0.555646 0
    outer loop
      vertex 77.8239 26.1827 76.7
      vertex 77.6071 26.5071 1
      vertex 77.6071 26.5071 76.7
    endloop
  endfacet
  facet normal 0.831419 0.555646 0
    outer loop
      vertex 77.6071 26.5071 1
      vertex 77.8239 26.1827 76.7
      vertex 77.8239 26.1827 1
    endloop
  endfacet
  facet normal -0.811514 -0.217505 0.542344
    outer loop
      vertex 49.1929 -25.8 77.4071
      vertex 48.9761 -25.8 77.0827
      vertex 49.0999 -26.2619 77.0827
    endloop
  endfacet
  facet normal -0.2974 -0.71801 0.629297
    outer loop
      vertex 49.9 -26.5071 77.4071
      vertex 49.4 -26.3 77.4071
      vertex 49.4381 -26.6001 77.0827
    endloop
  endfacet
  facet normal -0.195032 0 0.980797
    outer loop
      vertex 49.5173 -25 77.6239
      vertex 49.9 -25.8 77.7
      vertex 49.9 -25 77.7
    endloop
  endfacet
  facet normal -0.195032 0 0.980797
    outer loop
      vertex 49.9 -25.8 77.7
      vertex 49.5173 -25 77.6239
      vertex 49.5173 -25.8 77.6239
    endloop
  endfacet
  facet normal -0.195032 0 0.980797
    outer loop
      vertex 49.5173 25.8 77.6239
      vertex 49.9 25 77.7
      vertex 49.9 25.8 77.7
    endloop
  endfacet
  facet normal -0.195032 0 0.980797
    outer loop
      vertex 49.9 25 77.7
      vertex 49.5173 25.8 77.6239
      vertex 49.5173 25 77.6239
    endloop
  endfacet
  facet normal -0.831419 0.555646 0
    outer loop
      vertex 48.9761 26.1827 26.4239
      vertex 49.1929 26.5071 76.7
      vertex 49.1929 26.5071 26.2071
    endloop
  endfacet
  facet normal -0.831419 0.555646 0
    outer loop
      vertex 49.1929 26.5071 76.7
      vertex 48.9761 26.1827 26.4239
      vertex 48.9761 26.1827 76.7
    endloop
  endfacet
  facet normal -0.61403 -0.61403 0.495918
    outer loop
      vertex 49.4 -26.3 77.4071
      vertex 49.0999 -26.2619 77.0827
      vertex 49.4381 -26.6001 77.0827
    endloop
  endfacet
  facet normal -0.680703 -0.680703 0.270716
    outer loop
      vertex 49.4381 -26.6001 77.0827
      vertex 49.0999 -26.2619 77.0827
      vertex 49.1929 -26.5071 76.7
    endloop
  endfacet
  facet normal 0.962659 -0.191425 0.191425
    outer loop
      vertex 77.8239 -25.8 77.0827
      vertex 77.8239 -26.1827 76.7
      vertex 77.9 -25.8 76.7
    endloop
  endfacet
  facet normal 0.811514 -0.217505 0.542344
    outer loop
      vertex 77.8239 -25.8 77.0827
      vertex 77.6071 -25.8 77.4071
      vertex 77.7001 -26.2619 77.0827
    endloop
  endfacet
  facet normal 0.61403 0.61403 0.495918
    outer loop
      vertex 77.7001 26.2619 77.0827
      vertex 77.3619 26.6001 77.0827
      vertex 77.4 26.3 77.4071
    endloop
  endfacet
  facet normal 0.61403 -0.61403 0.495918
    outer loop
      vertex 77.4 -26.3 77.4071
      vertex 77.3619 -26.6001 77.0827
      vertex 77.7001 -26.2619 77.0827
    endloop
  endfacet
  facet normal 0.191425 -0.191425 0.962659
    outer loop
      vertex 76.9 -25.8 77.7
      vertex 76.9 -26.1827 77.6239
      vertex 77.2827 -25.8 77.6239
    endloop
  endfacet
  facet normal 0.250623 -0.935081 0.250623
    outer loop
      vertex 77.3619 -26.6001 77.0827
      vertex 76.9 -26.7239 77.0827
      vertex 77.2827 -26.7239 76.7
    endloop
  endfacet
  facet normal 0.980797 -0.195032 0
    outer loop
      vertex 77.8239 -26.1827 76.7
      vertex 77.9 -25.8 1
      vertex 77.9 -25.8 76.7
    endloop
  endfacet
  facet normal 0.980797 -0.195032 0
    outer loop
      vertex 77.9 -25.8 1
      vertex 77.8239 -26.1827 76.7
      vertex 77.8239 -26.1827 1
    endloop
  endfacet
  facet normal -0.555646 -0.831419 0
    outer loop
      vertex 49.1929 -26.5071 26.2071
      vertex 49.5173 -26.7239 76.7
      vertex 49.1929 -26.5071 76.7
    endloop
  endfacet
  facet normal -0.555646 -0.831419 -0
    outer loop
      vertex 49.5173 -26.7239 76.7
      vertex 49.1929 -26.5071 26.2071
      vertex 49.5173 -26.7239 25.8827
    endloop
  endfacet
  facet normal -0.195032 -0.980797 0
    outer loop
      vertex 49.5173 -26.7239 25.8827
      vertex 49.9 -26.8 76.7
      vertex 49.5173 -26.7239 76.7
    endloop
  endfacet
  facet normal -0.195032 -0.980797 -0
    outer loop
      vertex 49.9 -26.8 76.7
      vertex 49.5173 -26.7239 25.8827
      vertex 49.9 -26.8 25.5
    endloop
  endfacet
  facet normal -0.314545 0.314545 0.895613
    outer loop
      vertex 49.9 26.1827 77.6239
      vertex 49.4 26.3 77.4071
      vertex 49.5173 25.8 77.6239
    endloop
  endfacet
  facet normal -0.217505 0.811514 0.542344
    outer loop
      vertex 49.9 26.7239 77.0827
      vertex 49.4381 26.6001 77.0827
      vertex 49.9 26.5071 77.4071
    endloop
  endfacet
  facet normal 0.224285 0.54149 0.810237
    outer loop
      vertex 76.9 26.5071 77.4071
      vertex 76.9 26.1827 77.6239
      vertex 77.4 26.3 77.4071
    endloop
  endfacet
  facet normal 0.811514 0.217505 0.542344
    outer loop
      vertex 77.7001 26.2619 77.0827
      vertex 77.6071 25.8 77.4071
      vertex 77.8239 25.8 77.0827
    endloop
  endfacet
  facet normal 0.54149 -0.224285 0.810237
    outer loop
      vertex 77.6071 -25.8 77.4071
      vertex 77.2827 -25.8 77.6239
      vertex 77.4 -26.3 77.4071
    endloop
  endfacet
  facet normal 0.314545 -0.314545 0.895613
    outer loop
      vertex 77.2827 -25.8 77.6239
      vertex 76.9 -26.1827 77.6239
      vertex 77.4 -26.3 77.4071
    endloop
  endfacet
  facet normal -0.224285 0.54149 0.810237
    outer loop
      vertex 49.9 26.5071 77.4071
      vertex 49.4 26.3 77.4071
      vertex 49.9 26.1827 77.6239
    endloop
  endfacet
  facet normal -0.555646 0 0.831419
    outer loop
      vertex 49.1929 25.8 77.4071
      vertex 49.5173 25 77.6239
      vertex 49.5173 25.8 77.6239
    endloop
  endfacet
  facet normal -0.555646 0 0.831419
    outer loop
      vertex 49.5173 25 77.6239
      vertex 49.1929 25.8 77.4071
      vertex 49.1929 25 77.4071
    endloop
  endfacet
  facet normal -0.555646 0 0.831419
    outer loop
      vertex 49.1929 -25 77.4071
      vertex 49.5173 -25.8 77.6239
      vertex 49.5173 -25 77.6239
    endloop
  endfacet
  facet normal -0.555646 0 0.831419
    outer loop
      vertex 49.5173 -25.8 77.6239
      vertex 49.1929 -25 77.4071
      vertex 49.1929 -25.8 77.4071
    endloop
  endfacet
  facet normal -0.224285 -0.54149 0.810237
    outer loop
      vertex 49.9 -26.1827 77.6239
      vertex 49.4 -26.3 77.4071
      vertex 49.9 -26.5071 77.4071
    endloop
  endfacet
  facet normal -0.314545 -0.314545 0.895613
    outer loop
      vertex 49.5173 -25.8 77.6239
      vertex 49.4 -26.3 77.4071
      vertex 49.9 -26.1827 77.6239
    endloop
  endfacet
  facet normal 0.191425 -0.962659 0.191425
    outer loop
      vertex 76.9 -26.7239 77.0827
      vertex 76.9 -26.8 76.7
      vertex 77.2827 -26.7239 76.7
    endloop
  endfacet
  facet normal 0.831419 -0.555646 0
    outer loop
      vertex 77.6071 -26.5071 76.7
      vertex 77.8239 -26.1827 1
      vertex 77.8239 -26.1827 76.7
    endloop
  endfacet
  facet normal 0.831419 -0.555646 0
    outer loop
      vertex 77.8239 -26.1827 1
      vertex 77.6071 -26.5071 76.7
      vertex 77.6071 -26.5071 1
    endloop
  endfacet
  facet normal 0.831419 -0 0.555646
    outer loop
      vertex 77.6071 -25.8 77.4071
      vertex 77.8239 25.8 77.0827
      vertex 77.6071 25.8 77.4071
    endloop
  endfacet
  facet normal 0.831419 0 0.555646
    outer loop
      vertex 77.8239 25.8 77.0827
      vertex 77.6071 -25.8 77.4071
      vertex 77.8239 -25.8 77.0827
    endloop
  endfacet
  facet normal 0 -0.555646 0.831419
    outer loop
      vertex 49.9 -26.1827 77.6239
      vertex 76.9 -26.5071 77.4071
      vertex 76.9 -26.1827 77.6239
    endloop
  endfacet
  facet normal 0 -0.555646 0.831419
    outer loop
      vertex 76.9 -26.5071 77.4071
      vertex 49.9 -26.1827 77.6239
      vertex 49.9 -26.5071 77.4071
    endloop
  endfacet
  facet normal 0 -0.831419 0.555646
    outer loop
      vertex 49.9 -26.7239 77.0827
      vertex 76.9 -26.5071 77.4071
      vertex 49.9 -26.5071 77.4071
    endloop
  endfacet
  facet normal 0 -0.831419 0.555646
    outer loop
      vertex 76.9 -26.5071 77.4071
      vertex 49.9 -26.7239 77.0827
      vertex 76.9 -26.7239 77.0827
    endloop
  endfacet
  facet normal 0.314545 0.314545 0.895613
    outer loop
      vertex 77.4 26.3 77.4071
      vertex 76.9 26.1827 77.6239
      vertex 77.2827 25.8 77.6239
    endloop
  endfacet
  facet normal 0.54149 0.224285 0.810237
    outer loop
      vertex 77.4 26.3 77.4071
      vertex 77.2827 25.8 77.6239
      vertex 77.6071 25.8 77.4071
    endloop
  endfacet
  facet normal 0.217505 -0.811514 0.542344
    outer loop
      vertex 76.9 -26.5071 77.4071
      vertex 76.9 -26.7239 77.0827
      vertex 77.3619 -26.6001 77.0827
    endloop
  endfacet
  facet normal 0.71801 -0.2974 0.629297
    outer loop
      vertex 77.6071 -25.8 77.4071
      vertex 77.4 -26.3 77.4071
      vertex 77.7001 -26.2619 77.0827
    endloop
  endfacet
  facet normal -0.2974 0.71801 0.629297
    outer loop
      vertex 49.4381 26.6001 77.0827
      vertex 49.4 26.3 77.4071
      vertex 49.9 26.5071 77.4071
    endloop
  endfacet
  facet normal -0.61403 0.61403 0.495918
    outer loop
      vertex 49.4381 26.6001 77.0827
      vertex 49.0999 26.2619 77.0827
      vertex 49.4 26.3 77.4071
    endloop
  endfacet
  facet normal 0.555646 -0.831419 0
    outer loop
      vertex 77.2827 -26.7239 1
      vertex 77.6071 -26.5071 76.7
      vertex 77.2827 -26.7239 76.7
    endloop
  endfacet
  facet normal 0.555646 -0.831419 0
    outer loop
      vertex 77.6071 -26.5071 76.7
      vertex 77.2827 -26.7239 1
      vertex 77.6071 -26.5071 1
    endloop
  endfacet
  facet normal 0 -0.980797 0.195032
    outer loop
      vertex 49.9 -26.8 76.7
      vertex 76.9 -26.7239 77.0827
      vertex 49.9 -26.7239 77.0827
    endloop
  endfacet
  facet normal 0 -0.980797 0.195032
    outer loop
      vertex 76.9 -26.7239 77.0827
      vertex 49.9 -26.8 76.7
      vertex 76.9 -26.8 76.7
    endloop
  endfacet
  facet normal 0 -1 0
    outer loop
      vertex -76.9 -26.8 25.5
      vertex -52.1 -26.8 174.9
      vertex -76.9 -26.8 174.9
    endloop
  endfacet
  facet normal 0 -1 0
    outer loop
      vertex -76.9 -26.8 25.5
      vertex -52.1 -26.8 25.5
      vertex -52.1 -26.8 174.9
    endloop
  endfacet
  facet normal 0 -1 0
    outer loop
      vertex -76.9 -26.8 1
      vertex -52.1 -26.8 25.5
      vertex -76.9 -26.8 25.5
    endloop
  endfacet
  facet normal 0 -1 -0
    outer loop
      vertex -52.1 -26.8 25.5
      vertex -76.9 -26.8 1
      vertex 49.9 -26.8 25.5
    endloop
  endfacet
  facet normal 0 -1 0
    outer loop
      vertex 49.9 -26.8 25.5
      vertex 76.9 -26.8 76.7
      vertex 49.9 -26.8 76.7
    endloop
  endfacet
  facet normal 0 -1 0
    outer loop
      vertex 49.9 -26.8 25.5
      vertex 76.9 -26.8 1
      vertex 76.9 -26.8 76.7
    endloop
  endfacet
  facet normal 0 -1 0
    outer loop
      vertex 76.9 -26.8 1
      vertex 49.9 -26.8 25.5
      vertex -76.9 -26.8 1
    endloop
  endfacet
  facet normal 0.935081 0.250623 0.250623
    outer loop
      vertex 77.8239 26.1827 76.7
      vertex 77.7001 26.2619 77.0827
      vertex 77.8239 25.8 77.0827
    endloop
  endfacet
  facet normal 0.821736 0.549175 0.152172
    outer loop
      vertex 77.8239 26.1827 76.7
      vertex 77.6071 26.5071 76.7
      vertex 77.7001 26.2619 77.0827
    endloop
  endfacet
  facet normal 0.549175 -0.821736 0.152172
    outer loop
      vertex 77.3619 -26.6001 77.0827
      vertex 77.2827 -26.7239 76.7
      vertex 77.6071 -26.5071 76.7
    endloop
  endfacet
  facet normal 0.680703 -0.680703 0.270716
    outer loop
      vertex 77.7001 -26.2619 77.0827
      vertex 77.3619 -26.6001 77.0827
      vertex 77.6071 -26.5071 76.7
    endloop
  endfacet
  facet normal 0.821736 -0.549175 0.152172
    outer loop
      vertex 77.7001 -26.2619 77.0827
      vertex 77.6071 -26.5071 76.7
      vertex 77.8239 -26.1827 76.7
    endloop
  endfacet
  facet normal 0 -0.980826 0.194885
    outer loop
      vertex -76.9 -26.8 174.9
      vertex -52.1 -26.7239 175.283
      vertex -76.9 -26.7239 175.283
    endloop
  endfacet
  facet normal 0 -0.980826 0.194885
    outer loop
      vertex -52.1 -26.7239 175.283
      vertex -76.9 -26.8 174.9
      vertex -52.1 -26.8 174.9
    endloop
  endfacet
  facet normal -0 0.194785 0.980846
    outer loop
      vertex -76.9 26.1827 175.824
      vertex -52.1 25.8 175.9
      vertex -52.1 26.1827 175.824
    endloop
  endfacet
  facet normal 0 0.194785 0.980846
    outer loop
      vertex -52.1 25.8 175.9
      vertex -76.9 26.1827 175.824
      vertex -76.9 25.8 175.9
    endloop
  endfacet
  facet normal 0.191431 -0.962687 0.191281
    outer loop
      vertex -52.1 -26.7239 175.283
      vertex -52.1 -26.8 174.9
      vertex -51.7173 -26.7239 174.9
    endloop
  endfacet
  facet normal -0.556 0 0.831182
    outer loop
      vertex -77.6071 25.8 175.607
      vertex -77.2827 -25.8 175.824
      vertex -77.2827 25.8 175.824
    endloop
  endfacet
  facet normal -0.556 0 0.831182
    outer loop
      vertex -77.2827 -25.8 175.824
      vertex -77.6071 25.8 175.607
      vertex -77.6071 -25.8 175.607
    endloop
  endfacet
  facet normal 0.962687 -0.191431 0.191281
    outer loop
      vertex -51.1761 -25.8 175.283
      vertex -51.1761 -26.1827 174.9
      vertex -51.1 -25.8 174.9
    endloop
  endfacet
  facet normal -0.314778 0.314778 0.895449
    outer loop
      vertex -76.9 26.1827 175.824
      vertex -77.4 26.3 175.607
      vertex -77.2827 25.8 175.824
    endloop
  endfacet
  facet normal 0.297254 0.717659 0.629766
    outer loop
      vertex -51.6381 26.6001 175.283
      vertex -52.1 26.5071 175.607
      vertex -51.6 26.3 175.607
    endloop
  endfacet
  facet normal 0.555646 -0.831419 0
    outer loop
      vertex -51.7173 -26.7239 174.9
      vertex -51.3929 -26.5071 26.2071
      vertex -51.3929 -26.5071 174.9
    endloop
  endfacet
  facet normal 0.555646 -0.831419 0
    outer loop
      vertex -51.3929 -26.5071 26.2071
      vertex -51.7173 -26.7239 174.9
      vertex -51.7173 -26.7239 25.8827
    endloop
  endfacet
  facet normal -0.250636 0.935127 0.250439
    outer loop
      vertex -77.2827 26.7239 174.9
      vertex -77.3619 26.6001 175.283
      vertex -76.9 26.7239 175.283
    endloop
  endfacet
  facet normal -0.980797 0.195032 0
    outer loop
      vertex -77.9 25.8 25.5
      vertex -77.8239 26.1827 174.9
      vertex -77.8239 26.1827 25.5
    endloop
  endfacet
  facet normal -0.980797 0.195032 0
    outer loop
      vertex -77.8239 26.1827 174.9
      vertex -77.9 25.8 25.5
      vertex -77.9 25.8 174.9
    endloop
  endfacet
  facet normal 0 -0.556 0.831182
    outer loop
      vertex -76.9 -26.1827 175.824
      vertex -52.1 -26.5071 175.607
      vertex -52.1 -26.1827 175.824
    endloop
  endfacet
  facet normal 0 -0.556 0.831182
    outer loop
      vertex -52.1 -26.5071 175.607
      vertex -76.9 -26.1827 175.824
      vertex -76.9 -26.5071 175.607
    endloop
  endfacet
  facet normal 0.549185 0.821751 0.152056
    outer loop
      vertex -51.3929 26.5071 174.9
      vertex -51.7173 26.7239 174.9
      vertex -51.6381 26.6001 175.283
    endloop
  endfacet
  facet normal 0.191431 0.962687 0.191281
    outer loop
      vertex -52.1 26.8 174.9
      vertex -52.1 26.7239 175.283
      vertex -51.7173 26.7239 174.9
    endloop
  endfacet
  facet normal 0.717659 -0.297254 0.629766
    outer loop
      vertex -51.3929 -25.8 175.607
      vertex -51.6 -26.3 175.607
      vertex -51.2999 -26.2619 175.283
    endloop
  endfacet
  facet normal 0.980797 -0.195032 0
    outer loop
      vertex -51.1761 -26.1827 174.9
      vertex -51.1 -25.8 26.5
      vertex -51.1 -25.8 174.9
    endloop
  endfacet
  facet normal 0.980797 -0.195032 0
    outer loop
      vertex -51.1 -25.8 26.5
      vertex -51.1761 -26.1827 174.9
      vertex -51.1761 -26.1827 26.4239
    endloop
  endfacet
  facet normal -0.195032 -0.980797 0
    outer loop
      vertex -77.2827 -26.7239 25.5
      vertex -76.9 -26.8 174.9
      vertex -77.2827 -26.7239 174.9
    endloop
  endfacet
  facet normal -0.195032 -0.980797 -0
    outer loop
      vertex -76.9 -26.8 174.9
      vertex -77.2827 -26.7239 25.5
      vertex -76.9 -26.8 25.5
    endloop
  endfacet
  facet normal -0.191431 0.962687 0.191281
    outer loop
      vertex -76.9 26.8 174.9
      vertex -77.2827 26.7239 174.9
      vertex -76.9 26.7239 175.283
    endloop
  endfacet
  facet normal 0.195032 0.980797 -0
    outer loop
      vertex -51.7173 26.7239 25.8827
      vertex -52.1 26.8 174.9
      vertex -51.7173 26.7239 174.9
    endloop
  endfacet
  facet normal 0.195032 0.980797 0
    outer loop
      vertex -52.1 26.8 174.9
      vertex -51.7173 26.7239 25.8827
      vertex -52.1 26.8 25.5
    endloop
  endfacet
  facet normal 0.811219 -0.217426 0.542816
    outer loop
      vertex -51.1761 -25.8 175.283
      vertex -51.3929 -25.8 175.607
      vertex -51.2999 -26.2619 175.283
    endloop
  endfacet
  facet normal 0.195032 -0.980797 0
    outer loop
      vertex -52.1 -26.8 174.9
      vertex -51.7173 -26.7239 25.8827
      vertex -51.7173 -26.7239 174.9
    endloop
  endfacet
  facet normal 0.195032 -0.980797 0
    outer loop
      vertex -51.7173 -26.7239 25.8827
      vertex -52.1 -26.8 174.9
      vertex -52.1 -26.8 25.5
    endloop
  endfacet
  facet normal 0.613843 -0.613843 0.49638
    outer loop
      vertex -51.6 -26.3 175.607
      vertex -51.6381 -26.6001 175.283
      vertex -51.2999 -26.2619 175.283
    endloop
  endfacet
  facet normal 0 0 1
    outer loop
      vertex -52.1 25.8 175.9
      vertex -76.1 25 175.9
      vertex -52.1 25 175.9
    endloop
  endfacet
  facet normal 0 0 1
    outer loop
      vertex -76.1 25 175.9
      vertex -76.9 25.8 175.9
      vertex -76.1 -25 175.9
    endloop
  endfacet
  facet normal -0 0 1
    outer loop
      vertex -76.9 25.8 175.9
      vertex -76.1 25 175.9
      vertex -52.1 25.8 175.9
    endloop
  endfacet
  facet normal -0 0 1
    outer loop
      vertex -76.1 -25 175.9
      vertex -52.1 -25.8 175.9
      vertex -52.1 -25 175.9
    endloop
  endfacet
  facet normal 0 0 1
    outer loop
      vertex -76.1 -25 175.9
      vertex -76.9 -25.8 175.9
      vertex -52.1 -25.8 175.9
    endloop
  endfacet
  facet normal 0 0 1
    outer loop
      vertex -76.9 -25.8 175.9
      vertex -76.1 -25 175.9
      vertex -76.9 25.8 175.9
    endloop
  endfacet
  facet normal 0.191192 0.191192 0.962752
    outer loop
      vertex -52.1 26.1827 175.824
      vertex -52.1 25.8 175.9
      vertex -51.7173 25.8 175.824
    endloop
  endfacet
  facet normal 0.194785 0 0.980846
    outer loop
      vertex -52.1 -25 175.9
      vertex -51.7173 -25.8 175.824
      vertex -51.7173 -25 175.824
    endloop
  endfacet
  facet normal 0.194785 0 0.980846
    outer loop
      vertex -51.7173 -25.8 175.824
      vertex -52.1 -25 175.9
      vertex -52.1 -25.8 175.9
    endloop
  endfacet
  facet normal 0.194785 0 0.980846
    outer loop
      vertex -52.1 25.8 175.9
      vertex -51.7173 25 175.824
      vertex -51.7173 25.8 175.824
    endloop
  endfacet
  facet normal 0.194785 0 0.980846
    outer loop
      vertex -51.7173 25 175.824
      vertex -52.1 25.8 175.9
      vertex -52.1 25 175.9
    endloop
  endfacet
  facet normal -0.613843 0.613843 0.49638
    outer loop
      vertex -77.3619 26.6001 175.283
      vertex -77.7001 26.2619 175.283
      vertex -77.4 26.3 175.607
    endloop
  endfacet
  facet normal -0.217426 0.811219 0.542816
    outer loop
      vertex -76.9 26.7239 175.283
      vertex -77.3619 26.6001 175.283
      vertex -76.9 26.5071 175.607
    endloop
  endfacet
  facet normal -0.250636 -0.935127 0.250439
    outer loop
      vertex -76.9 -26.7239 175.283
      vertex -77.3619 -26.6001 175.283
      vertex -77.2827 -26.7239 174.9
    endloop
  endfacet
  facet normal 0 -0.831102 0.55612
    outer loop
      vertex -76.9 -26.7239 175.283
      vertex -52.1 -26.5071 175.607
      vertex -76.9 -26.5071 175.607
    endloop
  endfacet
  facet normal 0 -0.831102 0.55612
    outer loop
      vertex -52.1 -26.5071 175.607
      vertex -76.9 -26.7239 175.283
      vertex -52.1 -26.7239 175.283
    endloop
  endfacet
  facet normal -0.549185 -0.821751 0.152056
    outer loop
      vertex -77.3619 -26.6001 175.283
      vertex -77.6071 -26.5071 174.9
      vertex -77.2827 -26.7239 174.9
    endloop
  endfacet
  facet normal 0 -0.194785 0.980846
    outer loop
      vertex -76.9 -25.8 175.9
      vertex -52.1 -26.1827 175.824
      vertex -52.1 -25.8 175.9
    endloop
  endfacet
  facet normal 0 -0.194785 0.980846
    outer loop
      vertex -52.1 -26.1827 175.824
      vertex -76.9 -25.8 175.9
      vertex -76.9 -26.1827 175.824
    endloop
  endfacet
  facet normal -0.191431 -0.962687 0.191281
    outer loop
      vertex -76.9 -26.7239 175.283
      vertex -77.2827 -26.7239 174.9
      vertex -76.9 -26.8 174.9
    endloop
  endfacet
  facet normal -0.831419 0.555646 0
    outer loop
      vertex -77.8239 26.1827 25.5
      vertex -77.6071 26.5071 174.9
      vertex -77.6071 26.5071 25.5
    endloop
  endfacet
  facet normal -0.831419 0.555646 0
    outer loop
      vertex -77.8239 26.1827 25.5
      vertex -77.8239 26.1827 174.9
      vertex -77.6071 26.5071 174.9
    endloop
  endfacet
  facet normal 0.680742 -0.680742 0.270519
    outer loop
      vertex -51.2999 -26.2619 175.283
      vertex -51.6381 -26.6001 175.283
      vertex -51.3929 -26.5071 174.9
    endloop
  endfacet
  facet normal 0.191192 -0.191192 0.962752
    outer loop
      vertex -52.1 -25.8 175.9
      vertex -52.1 -26.1827 175.824
      vertex -51.7173 -25.8 175.824
    endloop
  endfacet
  facet normal 0.831419 -0.555646 0
    outer loop
      vertex -51.3929 -26.5071 174.9
      vertex -51.1761 -26.1827 26.4239
      vertex -51.1761 -26.1827 174.9
    endloop
  endfacet
  facet normal 0.831419 -0.555646 0
    outer loop
      vertex -51.1761 -26.1827 26.4239
      vertex -51.3929 -26.5071 174.9
      vertex -51.3929 -26.5071 26.2071
    endloop
  endfacet
  facet normal 0.314778 -0.314778 0.895449
    outer loop
      vertex -51.7173 -25.8 175.824
      vertex -52.1 -26.1827 175.824
      vertex -51.6 -26.3 175.607
    endloop
  endfacet
  facet normal 0.224421 -0.541818 0.809981
    outer loop
      vertex -52.1 -26.1827 175.824
      vertex -52.1 -26.5071 175.607
      vertex -51.6 -26.3 175.607
    endloop
  endfacet
  facet normal -0.224421 0.541818 0.809981
    outer loop
      vertex -76.9 26.5071 175.607
      vertex -77.4 26.3 175.607
      vertex -76.9 26.1827 175.824
    endloop
  endfacet
  facet normal -0.191192 0.191192 0.962752
    outer loop
      vertex -76.9 26.1827 175.824
      vertex -77.2827 25.8 175.824
      vertex -76.9 25.8 175.9
    endloop
  endfacet
  facet normal 0.556 0 0.831182
    outer loop
      vertex -51.7173 -25 175.824
      vertex -51.3929 -25.8 175.607
      vertex -51.3929 -25 175.607
    endloop
  endfacet
  facet normal 0.556 0 0.831182
    outer loop
      vertex -51.3929 -25.8 175.607
      vertex -51.7173 -25 175.824
      vertex -51.7173 -25.8 175.824
    endloop
  endfacet
  facet normal 0.556 0 0.831182
    outer loop
      vertex -51.7173 25.8 175.824
      vertex -51.3929 25 175.607
      vertex -51.3929 25.8 175.607
    endloop
  endfacet
  facet normal 0.556 0 0.831182
    outer loop
      vertex -51.3929 25 175.607
      vertex -51.7173 25.8 175.824
      vertex -51.7173 25 175.824
    endloop
  endfacet
  facet normal 0.555646 0.831419 -0
    outer loop
      vertex -51.3929 26.5071 26.2071
      vertex -51.7173 26.7239 174.9
      vertex -51.3929 26.5071 174.9
    endloop
  endfacet
  facet normal 0.555646 0.831419 0
    outer loop
      vertex -51.7173 26.7239 174.9
      vertex -51.3929 26.5071 26.2071
      vertex -51.7173 26.7239 25.8827
    endloop
  endfacet
  facet normal -0.831102 0 0.55612
    outer loop
      vertex -77.8239 -25.8 175.283
      vertex -77.6071 25.8 175.607
      vertex -77.8239 25.8 175.283
    endloop
  endfacet
  facet normal -0.831102 0 0.55612
    outer loop
      vertex -77.6071 25.8 175.607
      vertex -77.8239 -25.8 175.283
      vertex -77.6071 -25.8 175.607
    endloop
  endfacet
  facet normal -0.191192 -0.191192 0.962752
    outer loop
      vertex -76.9 -25.8 175.9
      vertex -77.2827 -25.8 175.824
      vertex -76.9 -26.1827 175.824
    endloop
  endfacet
  facet normal -0.297254 0.717659 0.629766
    outer loop
      vertex -77.3619 26.6001 175.283
      vertex -77.4 26.3 175.607
      vertex -76.9 26.5071 175.607
    endloop
  endfacet
  facet normal 0 0.980826 0.194885
    outer loop
      vertex -52.1 26.8 174.9
      vertex -76.9 26.7239 175.283
      vertex -52.1 26.7239 175.283
    endloop
  endfacet
  facet normal 0 0.980826 0.194885
    outer loop
      vertex -76.9 26.7239 175.283
      vertex -52.1 26.8 174.9
      vertex -76.9 26.8 174.9
    endloop
  endfacet
  facet normal -1 0 0
    outer loop
      vertex -77.9 -25.8 25.5
      vertex -77.9 25.8 174.9
      vertex -77.9 25.8 25.5
    endloop
  endfacet
  facet normal -1 -0 0
    outer loop
      vertex -77.9 25.8 174.9
      vertex -77.9 -25.8 25.5
      vertex -77.9 -25.8 174.9
    endloop
  endfacet
  facet normal 0.250636 -0.935127 0.250439
    outer loop
      vertex -51.6381 -26.6001 175.283
      vertex -52.1 -26.7239 175.283
      vertex -51.7173 -26.7239 174.9
    endloop
  endfacet
  facet normal 0.549185 -0.821751 0.152056
    outer loop
      vertex -51.6381 -26.6001 175.283
      vertex -51.7173 -26.7239 174.9
      vertex -51.3929 -26.5071 174.9
    endloop
  endfacet
  facet normal 0.935127 0.250636 0.250439
    outer loop
      vertex -51.1761 26.1827 174.9
      vertex -51.2999 26.2619 175.283
      vertex -51.1761 25.8 175.283
    endloop
  endfacet
  facet normal 0.821751 -0.549185 0.152056
    outer loop
      vertex -51.2999 -26.2619 175.283
      vertex -51.3929 -26.5071 174.9
      vertex -51.1761 -26.1827 174.9
    endloop
  endfacet
  facet normal 0.935127 -0.250636 0.250439
    outer loop
      vertex -51.1761 -25.8 175.283
      vertex -51.2999 -26.2619 175.283
      vertex -51.1761 -26.1827 174.9
    endloop
  endfacet
  facet normal 0.217426 0.811219 0.542816
    outer loop
      vertex -52.1 26.7239 175.283
      vertex -52.1 26.5071 175.607
      vertex -51.6381 26.6001 175.283
    endloop
  endfacet
  facet normal 0.250636 0.935127 0.250439
    outer loop
      vertex -51.7173 26.7239 174.9
      vertex -52.1 26.7239 175.283
      vertex -51.6381 26.6001 175.283
    endloop
  endfacet
  facet normal 0.314778 0.314778 0.895449
    outer loop
      vertex -51.6 26.3 175.607
      vertex -52.1 26.1827 175.824
      vertex -51.7173 25.8 175.824
    endloop
  endfacet
  facet normal 0.224421 0.541818 0.809981
    outer loop
      vertex -52.1 26.5071 175.607
      vertex -52.1 26.1827 175.824
      vertex -51.6 26.3 175.607
    endloop
  endfacet
  facet normal 0.541818 -0.224421 0.809981
    outer loop
      vertex -51.3929 -25.8 175.607
      vertex -51.7173 -25.8 175.824
      vertex -51.6 -26.3 175.607
    endloop
  endfacet
  facet normal 0.831102 -0 0.55612
    outer loop
      vertex -51.3929 -25.8 175.607
      vertex -51.1761 -25 175.283
      vertex -51.3929 -25 175.607
    endloop
  endfacet
  facet normal 0.831102 0 0.55612
    outer loop
      vertex -51.1761 -25 175.283
      vertex -51.3929 -25.8 175.607
      vertex -51.1761 -25.8 175.283
    endloop
  endfacet
  facet normal 0.831102 -0 0.55612
    outer loop
      vertex -51.3929 25 175.607
      vertex -51.1761 25.8 175.283
      vertex -51.3929 25.8 175.607
    endloop
  endfacet
  facet normal 0.831102 0 0.55612
    outer loop
      vertex -51.1761 25.8 175.283
      vertex -51.3929 25 175.607
      vertex -51.1761 25 175.283
    endloop
  endfacet
  facet normal 0.717659 0.297254 0.629766
    outer loop
      vertex -51.2999 26.2619 175.283
      vertex -51.6 26.3 175.607
      vertex -51.3929 25.8 175.607
    endloop
  endfacet
  facet normal 0.541818 0.224421 0.809981
    outer loop
      vertex -51.6 26.3 175.607
      vertex -51.7173 25.8 175.824
      vertex -51.3929 25.8 175.607
    endloop
  endfacet
  facet normal -0.217426 -0.811219 0.542816
    outer loop
      vertex -76.9 -26.5071 175.607
      vertex -77.3619 -26.6001 175.283
      vertex -76.9 -26.7239 175.283
    endloop
  endfacet
  facet normal -0.811219 0.217426 0.542816
    outer loop
      vertex -77.7001 26.2619 175.283
      vertex -77.8239 25.8 175.283
      vertex -77.6071 25.8 175.607
    endloop
  endfacet
  facet normal -0.980826 0 0.194885
    outer loop
      vertex -77.9 -25.8 174.9
      vertex -77.8239 25.8 175.283
      vertex -77.9 25.8 174.9
    endloop
  endfacet
  facet normal -0.980826 0 0.194885
    outer loop
      vertex -77.8239 25.8 175.283
      vertex -77.9 -25.8 174.9
      vertex -77.8239 -25.8 175.283
    endloop
  endfacet
  facet normal -0 0.556 0.831182
    outer loop
      vertex -76.9 26.5071 175.607
      vertex -52.1 26.1827 175.824
      vertex -52.1 26.5071 175.607
    endloop
  endfacet
  facet normal 0 0.556 0.831182
    outer loop
      vertex -52.1 26.1827 175.824
      vertex -76.9 26.5071 175.607
      vertex -76.9 26.1827 175.824
    endloop
  endfacet
  facet normal -0.821751 0.549185 0.152056
    outer loop
      vertex -77.6071 26.5071 174.9
      vertex -77.8239 26.1827 174.9
      vertex -77.7001 26.2619 175.283
    endloop
  endfacet
  facet normal -0.962687 -0.191431 0.191281
    outer loop
      vertex -77.8239 -25.8 175.283
      vertex -77.9 -25.8 174.9
      vertex -77.8239 -26.1827 174.9
    endloop
  endfacet
  facet normal 0.297254 -0.717659 0.629766
    outer loop
      vertex -51.6 -26.3 175.607
      vertex -52.1 -26.5071 175.607
      vertex -51.6381 -26.6001 175.283
    endloop
  endfacet
  facet normal 0.217426 -0.811219 0.542816
    outer loop
      vertex -52.1 -26.5071 175.607
      vertex -52.1 -26.7239 175.283
      vertex -51.6381 -26.6001 175.283
    endloop
  endfacet
  facet normal -0.555646 0.831419 0
    outer loop
      vertex -77.2827 26.7239 25.5
      vertex -77.6071 26.5071 174.9
      vertex -77.2827 26.7239 174.9
    endloop
  endfacet
  facet normal -0.555646 0.831419 0
    outer loop
      vertex -77.6071 26.5071 174.9
      vertex -77.2827 26.7239 25.5
      vertex -77.6071 26.5071 25.5
    endloop
  endfacet
  facet normal 0.680742 0.680742 0.270519
    outer loop
      vertex -51.3929 26.5071 174.9
      vertex -51.6381 26.6001 175.283
      vertex -51.2999 26.2619 175.283
    endloop
  endfacet
  facet normal 0.613843 0.613843 0.49638
    outer loop
      vertex -51.2999 26.2619 175.283
      vertex -51.6381 26.6001 175.283
      vertex -51.6 26.3 175.607
    endloop
  endfacet
  facet normal 0 0.831102 0.55612
    outer loop
      vertex -52.1 26.7239 175.283
      vertex -76.9 26.5071 175.607
      vertex -52.1 26.5071 175.607
    endloop
  endfacet
  facet normal 0 0.831102 0.55612
    outer loop
      vertex -76.9 26.5071 175.607
      vertex -52.1 26.7239 175.283
      vertex -76.9 26.7239 175.283
    endloop
  endfacet
  facet normal -0.194785 0 0.980846
    outer loop
      vertex -77.2827 25.8 175.824
      vertex -76.9 -25.8 175.9
      vertex -76.9 25.8 175.9
    endloop
  endfacet
  facet normal -0.194785 0 0.980846
    outer loop
      vertex -76.9 -25.8 175.9
      vertex -77.2827 25.8 175.824
      vertex -77.2827 -25.8 175.824
    endloop
  endfacet
  facet normal -0.717659 0.297254 0.629766
    outer loop
      vertex -77.4 26.3 175.607
      vertex -77.7001 26.2619 175.283
      vertex -77.6071 25.8 175.607
    endloop
  endfacet
  facet normal -0.541818 0.224421 0.809981
    outer loop
      vertex -77.4 26.3 175.607
      vertex -77.6071 25.8 175.607
      vertex -77.2827 25.8 175.824
    endloop
  endfacet
  facet normal -0.962687 0.191431 0.191281
    outer loop
      vertex -77.8239 26.1827 174.9
      vertex -77.9 25.8 174.9
      vertex -77.8239 25.8 175.283
    endloop
  endfacet
  facet normal -0.935127 0.250636 0.250439
    outer loop
      vertex -77.8239 26.1827 174.9
      vertex -77.8239 25.8 175.283
      vertex -77.7001 26.2619 175.283
    endloop
  endfacet
  facet normal 0.811219 0.217426 0.542816
    outer loop
      vertex -51.2999 26.2619 175.283
      vertex -51.3929 25.8 175.607
      vertex -51.1761 25.8 175.283
    endloop
  endfacet
  facet normal 0.980797 0.195032 -0
    outer loop
      vertex -51.1 25.8 26.5
      vertex -51.1761 26.1827 174.9
      vertex -51.1 25.8 174.9
    endloop
  endfacet
  facet normal 0.980797 0.195032 0
    outer loop
      vertex -51.1761 26.1827 174.9
      vertex -51.1 25.8 26.5
      vertex -51.1761 26.1827 26.4239
    endloop
  endfacet
  facet normal -0.717659 -0.297254 0.629766
    outer loop
      vertex -77.6071 -25.8 175.607
      vertex -77.7001 -26.2619 175.283
      vertex -77.4 -26.3 175.607
    endloop
  endfacet
  facet normal -0.980797 -0.195032 0
    outer loop
      vertex -77.8239 -26.1827 25.5
      vertex -77.9 -25.8 174.9
      vertex -77.9 -25.8 25.5
    endloop
  endfacet
  facet normal -0.980797 -0.195032 0
    outer loop
      vertex -77.8239 -26.1827 25.5
      vertex -77.8239 -26.1827 174.9
      vertex -77.9 -25.8 174.9
    endloop
  endfacet
  facet normal -0.549185 0.821751 0.152056
    outer loop
      vertex -77.2827 26.7239 174.9
      vertex -77.6071 26.5071 174.9
      vertex -77.3619 26.6001 175.283
    endloop
  endfacet
  facet normal -0.680742 0.680742 0.270519
    outer loop
      vertex -77.6071 26.5071 174.9
      vertex -77.7001 26.2619 175.283
      vertex -77.3619 26.6001 175.283
    endloop
  endfacet
  facet normal -0.195032 0.980797 0
    outer loop
      vertex -76.9 26.8 25.5
      vertex -77.2827 26.7239 174.9
      vertex -76.9 26.8 174.9
    endloop
  endfacet
  facet normal -0.195032 0.980797 0
    outer loop
      vertex -77.2827 26.7239 174.9
      vertex -76.9 26.8 25.5
      vertex -77.2827 26.7239 25.5
    endloop
  endfacet
  facet normal 0.831419 0.555646 -0
    outer loop
      vertex -51.1761 26.1827 26.4239
      vertex -51.3929 26.5071 174.9
      vertex -51.1761 26.1827 174.9
    endloop
  endfacet
  facet normal 0.831419 0.555646 0
    outer loop
      vertex -51.3929 26.5071 174.9
      vertex -51.1761 26.1827 26.4239
      vertex -51.3929 26.5071 26.2071
    endloop
  endfacet
  facet normal 0.821751 0.549185 0.152056
    outer loop
      vertex -51.1761 26.1827 174.9
      vertex -51.3929 26.5071 174.9
      vertex -51.2999 26.2619 175.283
    endloop
  endfacet
  facet normal -0.935127 -0.250636 0.250439
    outer loop
      vertex -77.8239 -25.8 175.283
      vertex -77.8239 -26.1827 174.9
      vertex -77.7001 -26.2619 175.283
    endloop
  endfacet
  facet normal -0.821751 -0.549185 0.152056
    outer loop
      vertex -77.7001 -26.2619 175.283
      vertex -77.8239 -26.1827 174.9
      vertex -77.6071 -26.5071 174.9
    endloop
  endfacet
  facet normal -0.680742 -0.680742 0.270519
    outer loop
      vertex -77.3619 -26.6001 175.283
      vertex -77.7001 -26.2619 175.283
      vertex -77.6071 -26.5071 174.9
    endloop
  endfacet
  facet normal -0.555646 -0.831419 0
    outer loop
      vertex -77.6071 -26.5071 25.5
      vertex -77.2827 -26.7239 174.9
      vertex -77.6071 -26.5071 174.9
    endloop
  endfacet
  facet normal -0.555646 -0.831419 -0
    outer loop
      vertex -77.2827 -26.7239 174.9
      vertex -77.6071 -26.5071 25.5
      vertex -77.2827 -26.7239 25.5
    endloop
  endfacet
  facet normal 0.980826 -0 0.194885
    outer loop
      vertex -51.1761 -25.8 175.283
      vertex -51.1 -25 174.9
      vertex -51.1761 -25 175.283
    endloop
  endfacet
  facet normal 0.980826 0 0.194885
    outer loop
      vertex -51.1 -25 174.9
      vertex -51.1761 -25.8 175.283
      vertex -51.1 -25.8 174.9
    endloop
  endfacet
  facet normal 0.980826 -0 0.194885
    outer loop
      vertex -51.1761 25 175.283
      vertex -51.1 25.8 174.9
      vertex -51.1761 25.8 175.283
    endloop
  endfacet
  facet normal 0.980826 0 0.194885
    outer loop
      vertex -51.1 25.8 174.9
      vertex -51.1761 25 175.283
      vertex -51.1 25 174.9
    endloop
  endfacet
  facet normal 1 -0 0
    outer loop
      vertex -51.1 -25.8 174.9
      vertex -51.1 -25 26.5
      vertex -51.1 -25 174.9
    endloop
  endfacet
  facet normal 1 0 0
    outer loop
      vertex -51.1 -25 26.5
      vertex -51.1 -25.8 174.9
      vertex -51.1 -25.8 26.5
    endloop
  endfacet
  facet normal 1 -0 0
    outer loop
      vertex -51.1 25 174.9
      vertex -51.1 25.8 26.5
      vertex -51.1 25.8 174.9
    endloop
  endfacet
  facet normal 1 0 0
    outer loop
      vertex -51.1 25.8 26.5
      vertex -51.1 25 174.9
      vertex -51.1 25 26.5
    endloop
  endfacet
  facet normal -0.831419 -0.555646 0
    outer loop
      vertex -77.6071 -26.5071 25.5
      vertex -77.8239 -26.1827 174.9
      vertex -77.8239 -26.1827 25.5
    endloop
  endfacet
  facet normal -0.831419 -0.555646 0
    outer loop
      vertex -77.6071 -26.5071 25.5
      vertex -77.6071 -26.5071 174.9
      vertex -77.8239 -26.1827 174.9
    endloop
  endfacet
  facet normal -0.297254 -0.717659 0.629766
    outer loop
      vertex -76.9 -26.5071 175.607
      vertex -77.4 -26.3 175.607
      vertex -77.3619 -26.6001 175.283
    endloop
  endfacet
  facet normal -0.811219 -0.217426 0.542816
    outer loop
      vertex -77.6071 -25.8 175.607
      vertex -77.8239 -25.8 175.283
      vertex -77.7001 -26.2619 175.283
    endloop
  endfacet
  facet normal 0.962687 0.191431 0.191281
    outer loop
      vertex -51.1761 26.1827 174.9
      vertex -51.1761 25.8 175.283
      vertex -51.1 25.8 174.9
    endloop
  endfacet
  facet normal -0.224421 -0.541818 0.809981
    outer loop
      vertex -76.9 -26.1827 175.824
      vertex -77.4 -26.3 175.607
      vertex -76.9 -26.5071 175.607
    endloop
  endfacet
  facet normal -0.613843 -0.613843 0.49638
    outer loop
      vertex -77.4 -26.3 175.607
      vertex -77.7001 -26.2619 175.283
      vertex -77.3619 -26.6001 175.283
    endloop
  endfacet
  facet normal -0.314778 -0.314778 0.895449
    outer loop
      vertex -77.2827 -25.8 175.824
      vertex -77.4 -26.3 175.607
      vertex -76.9 -26.1827 175.824
    endloop
  endfacet
  facet normal -0.541818 -0.224421 0.809981
    outer loop
      vertex -77.2827 -25.8 175.824
      vertex -77.6071 -25.8 175.607
      vertex -77.4 -26.3 175.607
    endloop
  endfacet
  facet normal 0 0.980797 0.195032
    outer loop
      vertex 49.9 26.8 25.5
      vertex -51.7173 26.7239 25.8827
      vertex 49.5173 26.7239 25.8827
    endloop
  endfacet
  facet normal 0 0.980797 0.195032
    outer loop
      vertex -51.7173 26.7239 25.8827
      vertex 49.9 26.8 25.5
      vertex -52.1 26.8 25.5
    endloop
  endfacet
  facet normal 0.680701 -0.680701 -0.270727
    outer loop
      vertex 77.6071 -26.5071 1
      vertex 77.3619 -26.6001 0.617317
      vertex 77.7001 -26.2619 0.617317
    endloop
  endfacet
  facet normal 0 0.555596 -0.831452
    outer loop
      vertex -76.9 26.1827 0.0761213
      vertex 76.9 26.5071 0.292893
      vertex 76.9 26.1827 0.0761213
    endloop
  endfacet
  facet normal 0 0.555596 -0.831452
    outer loop
      vertex 76.9 26.5071 0.292893
      vertex -76.9 26.1827 0.0761213
      vertex -76.9 26.5071 0.292893
    endloop
  endfacet
  facet normal 0.297409 0.718031 -0.629269
    outer loop
      vertex 77.4 26.3 0.292893
      vertex 76.9 26.5071 0.292893
      vertex 77.3619 26.6001 0.617317
    endloop
  endfacet
  facet normal 0.831438 0 -0.555618
    outer loop
      vertex 77.8239 -25.8 0.617317
      vertex 77.6071 25.8 0.292893
      vertex 77.8239 25.8 0.617317
    endloop
  endfacet
  facet normal 0.831438 0 -0.555618
    outer loop
      vertex 77.6071 25.8 0.292893
      vertex 77.8239 -25.8 0.617317
      vertex 77.6071 -25.8 0.292893
    endloop
  endfacet
  facet normal 0 0.980795 -0.19504
    outer loop
      vertex 76.9 26.7239 0.617317
      vertex -76.9 26.8 1
      vertex 76.9 26.8 1
    endloop
  endfacet
  facet normal 0 0.980795 -0.19504
    outer loop
      vertex -76.9 26.8 1
      vertex 76.9 26.7239 0.617317
      vertex -76.9 26.7239 0.617317
    endloop
  endfacet
  facet normal 0 0 -1
    outer loop
      vertex -76.9 -25.8 0
      vertex 76.9 25.8 0
      vertex 76.9 -25.8 0
    endloop
  endfacet
  facet normal -0 0 -1
    outer loop
      vertex 76.9 25.8 0
      vertex -76.9 -25.8 0
      vertex -76.9 25.8 0
    endloop
  endfacet
  facet normal -0.250623 -0.935078 -0.250634
    outer loop
      vertex -77.2827 -26.7239 1
      vertex -77.3619 -26.6001 0.617317
      vertex -76.9 -26.7239 0.617317
    endloop
  endfacet
  facet normal -0.831438 0 -0.555618
    outer loop
      vertex -77.6071 -25.8 0.292893
      vertex -77.8239 25.8 0.617317
      vertex -77.6071 25.8 0.292893
    endloop
  endfacet
  facet normal -0.831438 -0 -0.555618
    outer loop
      vertex -77.8239 25.8 0.617317
      vertex -77.6071 -25.8 0.292893
      vertex -77.8239 -25.8 0.617317
    endloop
  endfacet
  facet normal 0 -0.195084 -0.980786
    outer loop
      vertex -76.9 -26.1827 0.0761213
      vertex 76.9 -25.8 0
      vertex 76.9 -26.1827 0.0761213
    endloop
  endfacet
  facet normal -0 -0.195084 -0.980786
    outer loop
      vertex 76.9 -25.8 0
      vertex -76.9 -26.1827 0.0761213
      vertex -76.9 -25.8 0
    endloop
  endfacet
  facet normal -0 0 1
    outer loop
      vertex -51.1 -25 26.5
      vertex 48.9 -25.8 26.5
      vertex 48.9 -25 26.5
    endloop
  endfacet
  facet normal 0 0 1
    outer loop
      vertex 48.9 -25.8 26.5
      vertex -51.1 -25 26.5
      vertex -51.1 -25.8 26.5
    endloop
  endfacet
  facet normal -0 0 1
    outer loop
      vertex -51.1 25.8 26.5
      vertex 48.9 25 26.5
      vertex 48.9 25.8 26.5
    endloop
  endfacet
  facet normal 0 0 1
    outer loop
      vertex 48.9 25 26.5
      vertex -51.1 25.8 26.5
      vertex -51.1 25 26.5
    endloop
  endfacet
  facet normal 0 -0.555646 0.831419
    outer loop
      vertex -51.1761 -26.1827 26.4239
      vertex 49.1929 -26.5071 26.2071
      vertex 48.9761 -26.1827 26.4239
    endloop
  endfacet
  facet normal 0 -0.555646 0.831419
    outer loop
      vertex 49.1929 -26.5071 26.2071
      vertex -51.1761 -26.1827 26.4239
      vertex -51.3929 -26.5071 26.2071
    endloop
  endfacet
  facet normal 0 0.831419 0.555646
    outer loop
      vertex 49.5173 26.7239 25.8827
      vertex -51.3929 26.5071 26.2071
      vertex 49.1929 26.5071 26.2071
    endloop
  endfacet
  facet normal 0 0.831419 0.555646
    outer loop
      vertex -51.3929 26.5071 26.2071
      vertex 49.5173 26.7239 25.8827
      vertex -51.7173 26.7239 25.8827
    endloop
  endfacet
  facet normal 0.250623 -0.935078 -0.250634
    outer loop
      vertex 77.2827 -26.7239 1
      vertex 76.9 -26.7239 0.617317
      vertex 77.3619 -26.6001 0.617317
    endloop
  endfacet
  facet normal 0 0.555646 0.831419
    outer loop
      vertex 49.1929 26.5071 26.2071
      vertex -51.1761 26.1827 26.4239
      vertex 48.9761 26.1827 26.4239
    endloop
  endfacet
  facet normal 0 0.555646 0.831419
    outer loop
      vertex -51.1761 26.1827 26.4239
      vertex 49.1929 26.5071 26.2071
      vertex -51.3929 26.5071 26.2071
    endloop
  endfacet
  facet normal 0 -0.195032 0.980797
    outer loop
      vertex -51.1 -25.8 26.5
      vertex 48.9761 -26.1827 26.4239
      vertex 48.9 -25.8 26.5
    endloop
  endfacet
  facet normal 0 -0.195032 0.980797
    outer loop
      vertex 48.9761 -26.1827 26.4239
      vertex -51.1 -25.8 26.5
      vertex -51.1761 -26.1827 26.4239
    endloop
  endfacet
  facet normal 0.217509 -0.811532 -0.542315
    outer loop
      vertex 77.3619 -26.6001 0.617317
      vertex 76.9 -26.7239 0.617317
      vertex 76.9 -26.5071 0.292893
    endloop
  endfacet
  facet normal -0.962658 0.191425 -0.191433
    outer loop
      vertex -77.8239 25.8 0.617317
      vertex -77.9 25.8 1
      vertex -77.8239 26.1827 1
    endloop
  endfacet
  facet normal 0 -0.980795 -0.19504
    outer loop
      vertex -76.9 -26.7239 0.617317
      vertex 76.9 -26.8 1
      vertex -76.9 -26.8 1
    endloop
  endfacet
  facet normal 0 -0.980795 -0.19504
    outer loop
      vertex 76.9 -26.8 1
      vertex -76.9 -26.7239 0.617317
      vertex 76.9 -26.7239 0.617317
    endloop
  endfacet
  facet normal 0 -0.831419 0.555646
    outer loop
      vertex -51.7173 -26.7239 25.8827
      vertex 49.1929 -26.5071 26.2071
      vertex -51.3929 -26.5071 26.2071
    endloop
  endfacet
  facet normal 0 -0.831419 0.555646
    outer loop
      vertex 49.1929 -26.5071 26.2071
      vertex -51.7173 -26.7239 25.8827
      vertex 49.5173 -26.7239 25.8827
    endloop
  endfacet
  facet normal 0.217509 0.811532 -0.542315
    outer loop
      vertex 77.3619 26.6001 0.617317
      vertex 76.9 26.5071 0.292893
      vertex 76.9 26.7239 0.617317
    endloop
  endfacet
  facet normal -0.314512 -0.314512 -0.895636
    outer loop
      vertex -76.9 -26.1827 0.0761213
      vertex -77.4 -26.3 0.292893
      vertex -77.2827 -25.8 0.0761213
    endloop
  endfacet
  facet normal 0 0.831438 -0.555618
    outer loop
      vertex 76.9 26.5071 0.292893
      vertex -76.9 26.7239 0.617317
      vertex 76.9 26.7239 0.617317
    endloop
  endfacet
  facet normal 0 0.831438 -0.555618
    outer loop
      vertex -76.9 26.7239 0.617317
      vertex 76.9 26.5071 0.292893
      vertex -76.9 26.5071 0.292893
    endloop
  endfacet
  facet normal -0.191425 0.962658 -0.191433
    outer loop
      vertex -76.9 26.7239 0.617317
      vertex -77.2827 26.7239 1
      vertex -76.9 26.8 1
    endloop
  endfacet
  facet normal -0.555646 -0.831419 0
    outer loop
      vertex -77.6071 -26.5071 1
      vertex -77.2827 -26.7239 25.5
      vertex -77.6071 -26.5071 25.5
    endloop
  endfacet
  facet normal -0.555646 -0.831419 -0
    outer loop
      vertex -77.2827 -26.7239 25.5
      vertex -77.6071 -26.5071 1
      vertex -77.2827 -26.7239 1
    endloop
  endfacet
  facet normal 0.191425 0.962658 -0.191433
    outer loop
      vertex 77.2827 26.7239 1
      vertex 76.9 26.7239 0.617317
      vertex 76.9 26.8 1
    endloop
  endfacet
  facet normal 0 0.195032 0.980797
    outer loop
      vertex 48.9761 26.1827 26.4239
      vertex -51.1 25.8 26.5
      vertex 48.9 25.8 26.5
    endloop
  endfacet
  facet normal 0 0.195032 0.980797
    outer loop
      vertex -51.1 25.8 26.5
      vertex 48.9761 26.1827 26.4239
      vertex -51.1761 26.1827 26.4239
    endloop
  endfacet
  facet normal 0 -0.831438 -0.555618
    outer loop
      vertex -76.9 -26.5071 0.292893
      vertex 76.9 -26.7239 0.617317
      vertex -76.9 -26.7239 0.617317
    endloop
  endfacet
  facet normal 0 -0.831438 -0.555618
    outer loop
      vertex 76.9 -26.7239 0.617317
      vertex -76.9 -26.5071 0.292893
      vertex 76.9 -26.5071 0.292893
    endloop
  endfacet
  facet normal 0.191425 -0.962658 -0.191433
    outer loop
      vertex 77.2827 -26.7239 1
      vertex 76.9 -26.8 1
      vertex 76.9 -26.7239 0.617317
    endloop
  endfacet
  facet normal 0.549175 -0.821735 -0.152179
    outer loop
      vertex 77.6071 -26.5071 1
      vertex 77.2827 -26.7239 1
      vertex 77.3619 -26.6001 0.617317
    endloop
  endfacet
  facet normal -0.549175 0.821735 -0.152179
    outer loop
      vertex -77.3619 26.6001 0.617317
      vertex -77.6071 26.5071 1
      vertex -77.2827 26.7239 1
    endloop
  endfacet
  facet normal 0.935078 -0.250623 -0.250634
    outer loop
      vertex 77.8239 -26.1827 1
      vertex 77.7001 -26.2619 0.617317
      vertex 77.8239 -25.8 0.617317
    endloop
  endfacet
  facet normal 0.718031 0.297409 -0.629269
    outer loop
      vertex 77.6071 25.8 0.292893
      vertex 77.4 26.3 0.292893
      vertex 77.7001 26.2619 0.617317
    endloop
  endfacet
  facet normal 0.195084 0 -0.980786
    outer loop
      vertex 76.9 -25.8 0
      vertex 77.2827 25.8 0.0761213
      vertex 77.2827 -25.8 0.0761213
    endloop
  endfacet
  facet normal 0.195084 0 -0.980786
    outer loop
      vertex 77.2827 25.8 0.0761213
      vertex 76.9 -25.8 0
      vertex 76.9 25.8 0
    endloop
  endfacet
  facet normal -0.224266 0.541444 -0.810274
    outer loop
      vertex -76.9 26.1827 0.0761213
      vertex -77.4 26.3 0.292893
      vertex -76.9 26.5071 0.292893
    endloop
  endfacet
  facet normal 0 -0.980797 0.195032
    outer loop
      vertex -52.1 -26.8 25.5
      vertex 49.5173 -26.7239 25.8827
      vertex -51.7173 -26.7239 25.8827
    endloop
  endfacet
  facet normal 0 -0.980797 0.195032
    outer loop
      vertex 49.5173 -26.7239 25.8827
      vertex -52.1 -26.8 25.5
      vertex 49.9 -26.8 25.5
    endloop
  endfacet
  facet normal 0.224266 0.541444 -0.810274
    outer loop
      vertex 77.4 26.3 0.292893
      vertex 76.9 26.1827 0.0761213
      vertex 76.9 26.5071 0.292893
    endloop
  endfacet
  facet normal -0.224266 -0.541444 -0.810274
    outer loop
      vertex -76.9 -26.5071 0.292893
      vertex -77.4 -26.3 0.292893
      vertex -76.9 -26.1827 0.0761213
    endloop
  endfacet
  facet normal 0.314512 0.314512 -0.895636
    outer loop
      vertex 77.2827 25.8 0.0761213
      vertex 76.9 26.1827 0.0761213
      vertex 77.4 26.3 0.292893
    endloop
  endfacet
  facet normal 0 -0.555596 -0.831452
    outer loop
      vertex -76.9 -26.5071 0.292893
      vertex 76.9 -26.1827 0.0761213
      vertex 76.9 -26.5071 0.292893
    endloop
  endfacet
  facet normal -0 -0.555596 -0.831452
    outer loop
      vertex 76.9 -26.1827 0.0761213
      vertex -76.9 -26.5071 0.292893
      vertex -76.9 -26.1827 0.0761213
    endloop
  endfacet
  facet normal 0.614041 -0.614041 -0.49589
    outer loop
      vertex 77.7001 -26.2619 0.617317
      vertex 77.3619 -26.6001 0.617317
      vertex 77.4 -26.3 0.292893
    endloop
  endfacet
  facet normal 0.541444 -0.224266 -0.810274
    outer loop
      vertex 77.4 -26.3 0.292893
      vertex 77.2827 -25.8 0.0761213
      vertex 77.6071 -25.8 0.292893
    endloop
  endfacet
  facet normal 0.980795 0 -0.19504
    outer loop
      vertex 77.9 -25.8 1
      vertex 77.8239 25.8 0.617317
      vertex 77.9 25.8 1
    endloop
  endfacet
  facet normal 0.980795 0 -0.19504
    outer loop
      vertex 77.8239 25.8 0.617317
      vertex 77.9 -25.8 1
      vertex 77.8239 -25.8 0.617317
    endloop
  endfacet
  facet normal 0.541444 0.224266 -0.810274
    outer loop
      vertex 77.6071 25.8 0.292893
      vertex 77.2827 25.8 0.0761213
      vertex 77.4 26.3 0.292893
    endloop
  endfacet
  facet normal 0.811532 0.217509 -0.542315
    outer loop
      vertex 77.8239 25.8 0.617317
      vertex 77.6071 25.8 0.292893
      vertex 77.7001 26.2619 0.617317
    endloop
  endfacet
  facet normal 0.935078 0.250623 -0.250634
    outer loop
      vertex 77.8239 25.8 0.617317
      vertex 77.7001 26.2619 0.617317
      vertex 77.8239 26.1827 1
    endloop
  endfacet
  facet normal 0.297409 -0.718031 -0.629269
    outer loop
      vertex 77.3619 -26.6001 0.617317
      vertex 76.9 -26.5071 0.292893
      vertex 77.4 -26.3 0.292893
    endloop
  endfacet
  facet normal 0.191475 0.191475 -0.96264
    outer loop
      vertex 77.2827 25.8 0.0761213
      vertex 76.9 25.8 0
      vertex 76.9 26.1827 0.0761213
    endloop
  endfacet
  facet normal 0.821735 -0.549175 -0.152179
    outer loop
      vertex 77.8239 -26.1827 1
      vertex 77.6071 -26.5071 1
      vertex 77.7001 -26.2619 0.617317
    endloop
  endfacet
  facet normal 0.962658 -0.191425 -0.191433
    outer loop
      vertex 77.9 -25.8 1
      vertex 77.8239 -26.1827 1
      vertex 77.8239 -25.8 0.617317
    endloop
  endfacet
  facet normal 0.224266 -0.541444 -0.810274
    outer loop
      vertex 77.4 -26.3 0.292893
      vertex 76.9 -26.5071 0.292893
      vertex 76.9 -26.1827 0.0761213
    endloop
  endfacet
  facet normal 0.811532 -0.217509 -0.542315
    outer loop
      vertex 77.7001 -26.2619 0.617317
      vertex 77.6071 -25.8 0.292893
      vertex 77.8239 -25.8 0.617317
    endloop
  endfacet
  facet normal 0.680701 0.680701 -0.270727
    outer loop
      vertex 77.7001 26.2619 0.617317
      vertex 77.3619 26.6001 0.617317
      vertex 77.6071 26.5071 1
    endloop
  endfacet
  facet normal 0.614041 0.614041 -0.49589
    outer loop
      vertex 77.4 26.3 0.292893
      vertex 77.3619 26.6001 0.617317
      vertex 77.7001 26.2619 0.617317
    endloop
  endfacet
  facet normal -0.541444 0.224266 -0.810274
    outer loop
      vertex -77.2827 25.8 0.0761213
      vertex -77.6071 25.8 0.292893
      vertex -77.4 26.3 0.292893
    endloop
  endfacet
  facet normal -0.680701 -0.680701 -0.270727
    outer loop
      vertex -77.6071 -26.5071 1
      vertex -77.7001 -26.2619 0.617317
      vertex -77.3619 -26.6001 0.617317
    endloop
  endfacet
  facet normal -0.555596 0 -0.831452
    outer loop
      vertex -77.6071 -25.8 0.292893
      vertex -77.2827 25.8 0.0761213
      vertex -77.2827 -25.8 0.0761213
    endloop
  endfacet
  facet normal -0.555596 0 -0.831452
    outer loop
      vertex -77.2827 25.8 0.0761213
      vertex -77.6071 -25.8 0.292893
      vertex -77.6071 25.8 0.292893
    endloop
  endfacet
  facet normal 0 0.195084 -0.980786
    outer loop
      vertex -76.9 25.8 0
      vertex 76.9 26.1827 0.0761213
      vertex 76.9 25.8 0
    endloop
  endfacet
  facet normal 0 0.195084 -0.980786
    outer loop
      vertex 76.9 26.1827 0.0761213
      vertex -76.9 25.8 0
      vertex -76.9 26.1827 0.0761213
    endloop
  endfacet
  facet normal 0.314512 -0.314512 -0.895636
    outer loop
      vertex 77.4 -26.3 0.292893
      vertex 76.9 -26.1827 0.0761213
      vertex 77.2827 -25.8 0.0761213
    endloop
  endfacet
  facet normal 0.191475 -0.191475 -0.96264
    outer loop
      vertex 77.2827 -25.8 0.0761213
      vertex 76.9 -26.1827 0.0761213
      vertex 76.9 -25.8 0
    endloop
  endfacet
  facet normal 0.718031 -0.297409 -0.629269
    outer loop
      vertex 77.7001 -26.2619 0.617317
      vertex 77.4 -26.3 0.292893
      vertex 77.6071 -25.8 0.292893
    endloop
  endfacet
  facet normal 0.821735 0.549175 -0.152179
    outer loop
      vertex 77.7001 26.2619 0.617317
      vertex 77.6071 26.5071 1
      vertex 77.8239 26.1827 1
    endloop
  endfacet
  facet normal 0.962658 0.191425 -0.191433
    outer loop
      vertex 77.9 25.8 1
      vertex 77.8239 25.8 0.617317
      vertex 77.8239 26.1827 1
    endloop
  endfacet
  facet normal 0.250623 0.935078 -0.250634
    outer loop
      vertex 77.3619 26.6001 0.617317
      vertex 76.9 26.7239 0.617317
      vertex 77.2827 26.7239 1
    endloop
  endfacet
  facet normal 0.549175 0.821735 -0.152179
    outer loop
      vertex 77.3619 26.6001 0.617317
      vertex 77.2827 26.7239 1
      vertex 77.6071 26.5071 1
    endloop
  endfacet
  facet normal -1 0 0
    outer loop
      vertex -77.9 -25.8 1
      vertex -77.9 25.8 25.5
      vertex -77.9 25.8 1
    endloop
  endfacet
  facet normal -1 -0 0
    outer loop
      vertex -77.9 25.8 25.5
      vertex -77.9 -25.8 1
      vertex -77.9 -25.8 25.5
    endloop
  endfacet
  facet normal -0.195032 -0.980797 0
    outer loop
      vertex -77.2827 -26.7239 1
      vertex -76.9 -26.8 25.5
      vertex -77.2827 -26.7239 25.5
    endloop
  endfacet
  facet normal -0.195032 -0.980797 -0
    outer loop
      vertex -76.9 -26.8 25.5
      vertex -77.2827 -26.7239 1
      vertex -76.9 -26.8 1
    endloop
  endfacet
  facet normal -0.614041 0.614041 -0.49589
    outer loop
      vertex -77.4 26.3 0.292893
      vertex -77.7001 26.2619 0.617317
      vertex -77.3619 26.6001 0.617317
    endloop
  endfacet
  facet normal -0.614041 -0.614041 -0.49589
    outer loop
      vertex -77.3619 -26.6001 0.617317
      vertex -77.7001 -26.2619 0.617317
      vertex -77.4 -26.3 0.292893
    endloop
  endfacet
  facet normal -0.541444 -0.224266 -0.810274
    outer loop
      vertex -77.4 -26.3 0.292893
      vertex -77.6071 -25.8 0.292893
      vertex -77.2827 -25.8 0.0761213
    endloop
  endfacet
  facet normal -0.980795 0 -0.19504
    outer loop
      vertex -77.8239 -25.8 0.617317
      vertex -77.9 25.8 1
      vertex -77.8239 25.8 0.617317
    endloop
  endfacet
  facet normal -0.980795 -0 -0.19504
    outer loop
      vertex -77.9 25.8 1
      vertex -77.8239 -25.8 0.617317
      vertex -77.9 -25.8 1
    endloop
  endfacet
  facet normal 0.555596 0 -0.831452
    outer loop
      vertex 77.2827 -25.8 0.0761213
      vertex 77.6071 25.8 0.292893
      vertex 77.6071 -25.8 0.292893
    endloop
  endfacet
  facet normal 0.555596 0 -0.831452
    outer loop
      vertex 77.6071 25.8 0.292893
      vertex 77.2827 -25.8 0.0761213
      vertex 77.2827 25.8 0.0761213
    endloop
  endfacet
  facet normal -0.980797 -0.195032 0
    outer loop
      vertex -77.8239 -26.1827 1
      vertex -77.9 -25.8 25.5
      vertex -77.9 -25.8 1
    endloop
  endfacet
  facet normal -0.980797 -0.195032 0
    outer loop
      vertex -77.9 -25.8 25.5
      vertex -77.8239 -26.1827 1
      vertex -77.8239 -26.1827 25.5
    endloop
  endfacet
  facet normal -0.250623 0.935078 -0.250634
    outer loop
      vertex -76.9 26.7239 0.617317
      vertex -77.3619 26.6001 0.617317
      vertex -77.2827 26.7239 1
    endloop
  endfacet
  facet normal -0.217509 0.811532 -0.542315
    outer loop
      vertex -76.9 26.5071 0.292893
      vertex -77.3619 26.6001 0.617317
      vertex -76.9 26.7239 0.617317
    endloop
  endfacet
  facet normal -0.314512 0.314512 -0.895636
    outer loop
      vertex -77.2827 25.8 0.0761213
      vertex -77.4 26.3 0.292893
      vertex -76.9 26.1827 0.0761213
    endloop
  endfacet
  facet normal -0.191475 0.191475 -0.96264
    outer loop
      vertex -76.9 25.8 0
      vertex -77.2827 25.8 0.0761213
      vertex -76.9 26.1827 0.0761213
    endloop
  endfacet
  facet normal -0.811532 0.217509 -0.542315
    outer loop
      vertex -77.6071 25.8 0.292893
      vertex -77.8239 25.8 0.617317
      vertex -77.7001 26.2619 0.617317
    endloop
  endfacet
  facet normal -0.718031 0.297409 -0.629269
    outer loop
      vertex -77.6071 25.8 0.292893
      vertex -77.7001 26.2619 0.617317
      vertex -77.4 26.3 0.292893
    endloop
  endfacet
  facet normal -0.549175 -0.821735 -0.152179
    outer loop
      vertex -77.2827 -26.7239 1
      vertex -77.6071 -26.5071 1
      vertex -77.3619 -26.6001 0.617317
    endloop
  endfacet
  facet normal -0.191425 -0.962658 -0.191433
    outer loop
      vertex -76.9 -26.8 1
      vertex -77.2827 -26.7239 1
      vertex -76.9 -26.7239 0.617317
    endloop
  endfacet
  facet normal -0.821735 -0.549175 -0.152179
    outer loop
      vertex -77.6071 -26.5071 1
      vertex -77.8239 -26.1827 1
      vertex -77.7001 -26.2619 0.617317
    endloop
  endfacet
  facet normal -0.962658 -0.191425 -0.191433
    outer loop
      vertex -77.8239 -26.1827 1
      vertex -77.9 -25.8 1
      vertex -77.8239 -25.8 0.617317
    endloop
  endfacet
  facet normal -0.297409 -0.718031 -0.629269
    outer loop
      vertex -77.3619 -26.6001 0.617317
      vertex -77.4 -26.3 0.292893
      vertex -76.9 -26.5071 0.292893
    endloop
  endfacet
  facet normal -0.217509 -0.811532 -0.542315
    outer loop
      vertex -76.9 -26.7239 0.617317
      vertex -77.3619 -26.6001 0.617317
      vertex -76.9 -26.5071 0.292893
    endloop
  endfacet
  facet normal -0.831419 0.555646 0
    outer loop
      vertex -77.8239 26.1827 1
      vertex -77.6071 26.5071 25.5
      vertex -77.6071 26.5071 1
    endloop
  endfacet
  facet normal -0.831419 0.555646 0
    outer loop
      vertex -77.6071 26.5071 25.5
      vertex -77.8239 26.1827 1
      vertex -77.8239 26.1827 25.5
    endloop
  endfacet
  facet normal -0.297409 0.718031 -0.629269
    outer loop
      vertex -76.9 26.5071 0.292893
      vertex -77.4 26.3 0.292893
      vertex -77.3619 26.6001 0.617317
    endloop
  endfacet
  facet normal -0.195084 0 -0.980786
    outer loop
      vertex -77.2827 -25.8 0.0761213
      vertex -76.9 25.8 0
      vertex -76.9 -25.8 0
    endloop
  endfacet
  facet normal -0.195084 0 -0.980786
    outer loop
      vertex -76.9 25.8 0
      vertex -77.2827 -25.8 0.0761213
      vertex -77.2827 25.8 0.0761213
    endloop
  endfacet
  facet normal -0.191475 -0.191475 -0.96264
    outer loop
      vertex -76.9 -26.1827 0.0761213
      vertex -77.2827 -25.8 0.0761213
      vertex -76.9 -25.8 0
    endloop
  endfacet
  facet normal -0.195032 0.980797 0
    outer loop
      vertex -76.9 26.8 1
      vertex -77.2827 26.7239 25.5
      vertex -76.9 26.8 25.5
    endloop
  endfacet
  facet normal -0.195032 0.980797 0
    outer loop
      vertex -77.2827 26.7239 25.5
      vertex -76.9 26.8 1
      vertex -77.2827 26.7239 1
    endloop
  endfacet
  facet normal -0.935078 0.250623 -0.250634
    outer loop
      vertex -77.7001 26.2619 0.617317
      vertex -77.8239 25.8 0.617317
      vertex -77.8239 26.1827 1
    endloop
  endfacet
  facet normal -0.831419 -0.555646 0
    outer loop
      vertex -77.6071 -26.5071 1
      vertex -77.8239 -26.1827 25.5
      vertex -77.8239 -26.1827 1
    endloop
  endfacet
  facet normal -0.831419 -0.555646 0
    outer loop
      vertex -77.8239 -26.1827 25.5
      vertex -77.6071 -26.5071 1
      vertex -77.6071 -26.5071 25.5
    endloop
  endfacet
  facet normal -0.555646 0.831419 0
    outer loop
      vertex -77.2827 26.7239 1
      vertex -77.6071 26.5071 25.5
      vertex -77.2827 26.7239 25.5
    endloop
  endfacet
  facet normal -0.555646 0.831419 0
    outer loop
      vertex -77.6071 26.5071 25.5
      vertex -77.2827 26.7239 1
      vertex -77.6071 26.5071 1
    endloop
  endfacet
  facet normal -0.935078 -0.250623 -0.250634
    outer loop
      vertex -77.7001 -26.2619 0.617317
      vertex -77.8239 -26.1827 1
      vertex -77.8239 -25.8 0.617317
    endloop
  endfacet
  facet normal -0.811532 -0.217509 -0.542315
    outer loop
      vertex -77.7001 -26.2619 0.617317
      vertex -77.8239 -25.8 0.617317
      vertex -77.6071 -25.8 0.292893
    endloop
  endfacet
  facet normal -0.718031 -0.297409 -0.629269
    outer loop
      vertex -77.4 -26.3 0.292893
      vertex -77.7001 -26.2619 0.617317
      vertex -77.6071 -25.8 0.292893
    endloop
  endfacet
  facet normal -0.821735 0.549175 -0.152179
    outer loop
      vertex -77.7001 26.2619 0.617317
      vertex -77.8239 26.1827 1
      vertex -77.6071 26.5071 1
    endloop
  endfacet
  facet normal -0.680701 0.680701 -0.270727
    outer loop
      vertex -77.3619 26.6001 0.617317
      vertex -77.7001 26.2619 0.617317
      vertex -77.6071 26.5071 1
    endloop
  endfacet
  facet normal -0.980797 0.195032 0
    outer loop
      vertex -77.9 25.8 1
      vertex -77.8239 26.1827 25.5
      vertex -77.8239 26.1827 1
    endloop
  endfacet
  facet normal -0.980797 0.195032 0
    outer loop
      vertex -77.8239 26.1827 25.5
      vertex -77.9 25.8 1
      vertex -77.9 25.8 25.5
    endloop
  endfacet
  facet normal 0 0 -1
    outer loop
      vertex 76.7 -15 67.7
      vertex 77.9 15 67.7
      vertex 77.9 -15 67.7
    endloop
  endfacet
  facet normal -0 0 -1
    outer loop
      vertex 77.9 15 67.7
      vertex 76.7 -15 67.7
      vertex 76.7 15 67.7
    endloop
  endfacet
  facet normal -0 0 1
    outer loop
      vertex 76.7 15 11.5
      vertex 77.9 -15 11.5
      vertex 77.9 15 11.5
    endloop
  endfacet
  facet normal 0 0 1
    outer loop
      vertex 77.9 -15 11.5
      vertex 76.7 15 11.5
      vertex 76.7 -15 11.5
    endloop
  endfacet
  facet normal 0 -1 0
    outer loop
      vertex 76.7 15 11.5
      vertex 77.9 15 67.7
      vertex 76.7 15 67.7
    endloop
  endfacet
  facet normal 0 -1 -0
    outer loop
      vertex 77.9 15 67.7
      vertex 76.7 15 11.5
      vertex 77.9 15 11.5
    endloop
  endfacet
  facet normal 0 1 -0
    outer loop
      vertex 77.9 -15 11.5
      vertex 76.7 -15 67.7
      vertex 77.9 -15 67.7
    endloop
  endfacet
  facet normal 0 1 0
    outer loop
      vertex 76.7 -15 67.7
      vertex 77.9 -15 11.5
      vertex 76.7 -15 11.5
    endloop
  endfacet
  facet normal -1 0 0
    outer loop
      vertex 76.7 25 1.90735e-07
      vertex 76.7 15 11.5
      vertex 76.7 25 77.7
    endloop
  endfacet
  facet normal -1 0 0
    outer loop
      vertex 76.7 25 1.90735e-07
      vertex 76.7 -15 11.5
      vertex 76.7 15 11.5
    endloop
  endfacet
  facet normal -1 0 0
    outer loop
      vertex 76.7 -25 77.7
      vertex 76.7 -15 11.5
      vertex 76.7 -25 1.90735e-07
    endloop
  endfacet
  facet normal -1 0 0
    outer loop
      vertex 76.7 -25 1.90735e-07
      vertex 76.7 -15 11.5
      vertex 76.7 25 1.90735e-07
    endloop
  endfacet
  facet normal -1 0 0
    outer loop
      vertex 76.7 15 67.7
      vertex 76.7 25 77.7
      vertex 76.7 15 11.5
    endloop
  endfacet
  facet normal -1 0 0
    outer loop
      vertex 76.7 -15 67.7
      vertex 76.7 25 77.7
      vertex 76.7 15 67.7
    endloop
  endfacet
  facet normal -1 0 0
    outer loop
      vertex 76.7 -15 67.7
      vertex 76.7 -25 77.7
      vertex 76.7 25 77.7
    endloop
  endfacet
  facet normal -1 0 0
    outer loop
      vertex 76.7 -15 11.5
      vertex 76.7 -25 77.7
      vertex 76.7 -15 67.7
    endloop
  endfacet
  facet normal -0 0 1
    outer loop
      vertex 75.7 25 1.90735e-07
      vertex 76.7 -25 1.90735e-07
      vertex 76.7 25 1.90735e-07
    endloop
  endfacet
  facet normal 0 0 1
    outer loop
      vertex 76.7 -25 1.90735e-07
      vertex 75.7 25 1.90735e-07
      vertex 75.7 -25 1.90735e-07
    endloop
  endfacet
  facet normal 1 -0 0
    outer loop
      vertex 75.7 -25 77.7
      vertex 75.7 25 1.90735e-07
      vertex 75.7 25 77.7
    endloop
  endfacet
  facet normal 1 0 0
    outer loop
      vertex 75.7 25 1.90735e-07
      vertex 75.7 -25 77.7
      vertex 75.7 -25 1.90735e-07
    endloop
  endfacet
  facet normal 0 -1 0
    outer loop
      vertex 75.7 25 1.90735e-07
      vertex 76.7 25 77.7
      vertex 75.7 25 77.7
    endloop
  endfacet
  facet normal 0 -1 -0
    outer loop
      vertex 76.7 25 77.7
      vertex 75.7 25 1.90735e-07
      vertex 76.7 25 1.90735e-07
    endloop
  endfacet
  facet normal 0 1 -0
    outer loop
      vertex 76.7 -25 1.90735e-07
      vertex 75.7 -25 77.7
      vertex 76.7 -25 77.7
    endloop
  endfacet
  facet normal 0 1 0
    outer loop
      vertex 75.7 -25 77.7
      vertex 76.7 -25 1.90735e-07
      vertex 75.7 -25 1.90735e-07
    endloop
  endfacet
  facet normal -1 0 0
    outer loop
      vertex 73.9 -25 1.5
      vertex 73.9 25 77.7
      vertex 73.9 25 1.5
    endloop
  endfacet
  facet normal -1 -0 0
    outer loop
      vertex 73.9 25 77.7
      vertex 73.9 -25 1.5
      vertex 73.9 -25 77.7
    endloop
  endfacet
  facet normal -0 0 1
    outer loop
      vertex -76.1 25 1.5
      vertex 73.9 -25 1.5
      vertex 73.9 25 1.5
    endloop
  endfacet
  facet normal 0 0 1
    outer loop
      vertex 73.9 -25 1.5
      vertex -76.1 25 1.5
      vertex -76.1 -25 1.5
    endloop
  endfacet
  facet normal 1 -0 0
    outer loop
      vertex -76.1 -25 175.9
      vertex -76.1 25 1.5
      vertex -76.1 25 175.9
    endloop
  endfacet
  facet normal 1 0 0
    outer loop
      vertex -76.1 25 1.5
      vertex -76.1 -25 175.9
      vertex -76.1 -25 1.5
    endloop
  endfacet
  facet normal 0 -1 0
    outer loop
      vertex -51.1 25 174.9
      vertex -52.1 25 175.9
      vertex -76.1 25 175.9
    endloop
  endfacet
  facet normal 0 -1 0
    outer loop
      vertex -52.1 25 175.9
      vertex -51.1 25 174.9
      vertex -51.7173 25 175.824
    endloop
  endfacet
  facet normal 0 -1 0
    outer loop
      vertex -51.7173 25 175.824
      vertex -51.1 25 174.9
      vertex -51.3929 25 175.607
    endloop
  endfacet
  facet normal 0 -1 0
    outer loop
      vertex -51.3929 25 175.607
      vertex -51.1 25 174.9
      vertex -51.1761 25 175.283
    endloop
  endfacet
  facet normal 0 -1 0
    outer loop
      vertex -76.1 25 175.9
      vertex -51.1 25 26.5
      vertex -51.1 25 174.9
    endloop
  endfacet
  facet normal 0 -1 -0
    outer loop
      vertex -51.1 25 26.5
      vertex -76.1 25 1.5
      vertex 48.9 25 26.5
    endloop
  endfacet
  facet normal 0 -1 0
    outer loop
      vertex -76.1 25 1.5
      vertex -51.1 25 26.5
      vertex -76.1 25 175.9
    endloop
  endfacet
  facet normal 0 -1 0
    outer loop
      vertex 48.9 25 76.7
      vertex 49.9 25 77.7
      vertex 49.5173 25 77.6239
    endloop
  endfacet
  facet normal 0 -1 0
    outer loop
      vertex 48.9 25 76.7
      vertex 49.5173 25 77.6239
      vertex 49.1929 25 77.4071
    endloop
  endfacet
  facet normal 0 -1 0
    outer loop
      vertex 48.9 25 76.7
      vertex 49.1929 25 77.4071
      vertex 48.9761 25 77.0827
    endloop
  endfacet
  facet normal 0 -1 -0
    outer loop
      vertex 49.9 25 77.7
      vertex 48.9 25 76.7
      vertex 73.9 25 77.7
    endloop
  endfacet
  facet normal 0 -1 0
    outer loop
      vertex 48.9 25 26.5
      vertex 73.9 25 77.7
      vertex 48.9 25 76.7
    endloop
  endfacet
  facet normal 0 -1 0
    outer loop
      vertex 48.9 25 26.5
      vertex 73.9 25 1.5
      vertex 73.9 25 77.7
    endloop
  endfacet
  facet normal 0 -1 0
    outer loop
      vertex 73.9 25 1.5
      vertex 48.9 25 26.5
      vertex -76.1 25 1.5
    endloop
  endfacet
  facet normal 0 1 0
    outer loop
      vertex 48.9 -25 76.7
      vertex 49.9 -25 77.7
      vertex 73.9 -25 77.7
    endloop
  endfacet
  facet normal 0 1 0
    outer loop
      vertex 49.9 -25 77.7
      vertex 48.9 -25 76.7
      vertex 49.5173 -25 77.6239
    endloop
  endfacet
  facet normal 0 1 0
    outer loop
      vertex 49.5173 -25 77.6239
      vertex 48.9 -25 76.7
      vertex 49.1929 -25 77.4071
    endloop
  endfacet
  facet normal 0 1 0
    outer loop
      vertex 49.1929 -25 77.4071
      vertex 48.9 -25 76.7
      vertex 48.9761 -25 77.0827
    endloop
  endfacet
  facet normal 0 1 0
    outer loop
      vertex 73.9 -25 77.7
      vertex 48.9 -25 26.5
      vertex 48.9 -25 76.7
    endloop
  endfacet
  facet normal 0 1 0
    outer loop
      vertex 48.9 -25 26.5
      vertex 73.9 -25 1.5
      vertex -51.1 -25 26.5
    endloop
  endfacet
  facet normal 0 1 -0
    outer loop
      vertex 73.9 -25 1.5
      vertex 48.9 -25 26.5
      vertex 73.9 -25 77.7
    endloop
  endfacet
  facet normal 0 1 0
    outer loop
      vertex -51.1 -25 174.9
      vertex -52.1 -25 175.9
      vertex -51.7173 -25 175.824
    endloop
  endfacet
  facet normal 0 1 0
    outer loop
      vertex -51.1 -25 174.9
      vertex -51.7173 -25 175.824
      vertex -51.3929 -25 175.607
    endloop
  endfacet
  facet normal 0 1 0
    outer loop
      vertex -51.1 -25 174.9
      vertex -51.3929 -25 175.607
      vertex -51.1761 -25 175.283
    endloop
  endfacet
  facet normal 0 1 0
    outer loop
      vertex -52.1 -25 175.9
      vertex -51.1 -25 174.9
      vertex -76.1 -25 175.9
    endloop
  endfacet
  facet normal 0 1 -0
    outer loop
      vertex -51.1 -25 26.5
      vertex -76.1 -25 175.9
      vertex -51.1 -25 174.9
    endloop
  endfacet
  facet normal 0 1 0
    outer loop
      vertex -51.1 -25 26.5
      vertex -76.1 -25 1.5
      vertex -76.1 -25 175.9
    endloop
  endfacet
  facet normal 0 1 0
    outer loop
      vertex -76.1 -25 1.5
      vertex -51.1 -25 26.5
      vertex 73.9 -25 1.5
    endloop
  endfacet
endsolid OpenSCAD_Model
