solid OpenSCAD_Model
  facet normal -0.57735 -0.57735 -0.57735
    outer loop
      vertex -54.5 -72.5 0
      vertex -56.5 -70.5 0
      vertex -54.5 -70.5 -2
    endloop
  endfacet
  facet normal 0.707107 0 -0.707107
    outer loop
      vertex 56.5 -70.5 0
      vertex 54.5 70.5 -2
      vertex 56.5 70.5 0
    endloop
  endfacet
  facet normal 0.707107 0 -0.707107
    outer loop
      vertex 54.5 70.5 -2
      vertex 56.5 -70.5 0
      vertex 54.5 -70.5 -2
    endloop
  endfacet
  facet normal 0 0 -1
    outer loop
      vertex 54.5 -70.5 -2
      vertex 51.5 -67.5 -2
      vertex 54.5 70.5 -2
    endloop
  endfacet
  facet normal 0 0 -1
    outer loop
      vertex 54.5 -70.5 -2
      vertex -51.5 -67.5 -2
      vertex 51.5 -67.5 -2
    endloop
  endfacet
  facet normal -0 0 -1
    outer loop
      vertex -51.5 -67.5 -2
      vertex -54.5 -70.5 -2
      vertex -51.5 67.5 -2
    endloop
  endfacet
  facet normal 0 0 -1
    outer loop
      vertex -54.5 -70.5 -2
      vertex -51.5 -67.5 -2
      vertex 54.5 -70.5 -2
    endloop
  endfacet
  facet normal 0 0 -1
    outer loop
      vertex 51.5 67.5 -2
      vertex 54.5 70.5 -2
      vertex 51.5 -67.5 -2
    endloop
  endfacet
  facet normal 0 0 -1
    outer loop
      vertex -51.5 67.5 -2
      vertex 54.5 70.5 -2
      vertex 51.5 67.5 -2
    endloop
  endfacet
  facet normal 0 0 -1
    outer loop
      vertex -51.5 67.5 -2
      vertex -54.5 70.5 -2
      vertex 54.5 70.5 -2
    endloop
  endfacet
  facet normal 0 0 -1
    outer loop
      vertex -54.5 70.5 -2
      vertex -51.5 67.5 -2
      vertex -54.5 -70.5 -2
    endloop
  endfacet
  facet normal 0 0.707107 -0.707107
    outer loop
      vertex 54.5 70.5 -2
      vertex -54.5 72.5 0
      vertex 54.5 72.5 0
    endloop
  endfacet
  facet normal 0 0.707107 -0.707107
    outer loop
      vertex -54.5 72.5 0
      vertex 54.5 70.5 -2
      vertex -54.5 70.5 -2
    endloop
  endfacet
  facet normal -0.999999 0 0.00125
    outer loop
      vertex -56.5 -70.5 0
      vertex -56.49 70.51 8
      vertex -56.5 70.5 0
    endloop
  endfacet
  facet normal -0.999999 0 0.00125
    outer loop
      vertex -56.49 70.51 8
      vertex -56.5 -70.5 0
      vertex -56.49 -70.51 8
    endloop
  endfacet
  facet normal 0.999999 0 0.00125
    outer loop
      vertex 56.49 70.51 8
      vertex 56.5 -70.5 0
      vertex 56.5 70.5 0
    endloop
  endfacet
  facet normal 0.999999 0 0.00125
    outer loop
      vertex 56.5 -70.5 0
      vertex 56.49 70.51 8
      vertex 56.49 -70.51 8
    endloop
  endfacet
  facet normal 0.707107 -0.707107 -6.34381e-16
    outer loop
      vertex 54.51 -72.49 8
      vertex 56.5 -70.5 0
      vertex 56.49 -70.51 8
    endloop
  endfacet
  facet normal 0.707107 -0.707107 6.28037e-16
    outer loop
      vertex 56.5 -70.5 0
      vertex 54.51 -72.49 8
      vertex 54.5 -72.5 0
    endloop
  endfacet
  facet normal -0.707107 -0.707107 -6.34381e-16
    outer loop
      vertex -56.5 -70.5 0
      vertex -54.51 -72.49 8
      vertex -56.49 -70.51 8
    endloop
  endfacet
  facet normal -0.707107 -0.707107 6.28037e-16
    outer loop
      vertex -54.51 -72.49 8
      vertex -56.5 -70.5 0
      vertex -54.5 -72.5 0
    endloop
  endfacet
  facet normal -0.707107 0 -0.707107
    outer loop
      vertex -54.5 -70.5 -2
      vertex -56.5 70.5 0
      vertex -54.5 70.5 -2
    endloop
  endfacet
  facet normal -0.707107 -0 -0.707107
    outer loop
      vertex -56.5 70.5 0
      vertex -54.5 -70.5 -2
      vertex -56.5 -70.5 0
    endloop
  endfacet
  facet normal 0.57735 -0.57735 -0.57735
    outer loop
      vertex 56.5 -70.5 0
      vertex 54.5 -72.5 0
      vertex 54.5 -70.5 -2
    endloop
  endfacet
  facet normal 0 -0.707107 -0.707107
    outer loop
      vertex -54.5 -70.5 -2
      vertex 54.5 -72.5 0
      vertex -54.5 -72.5 0
    endloop
  endfacet
  facet normal 0 -0.707107 -0.707107
    outer loop
      vertex 54.5 -72.5 0
      vertex -54.5 -70.5 -2
      vertex 54.5 -70.5 -2
    endloop
  endfacet
  facet normal -0.57735 0.57735 -0.57735
    outer loop
      vertex -54.5 70.5 -2
      vertex -56.5 70.5 0
      vertex -54.5 72.5 0
    endloop
  endfacet
  facet normal 0.57735 0.57735 -0.57735
    outer loop
      vertex 56.5 70.5 0
      vertex 54.5 70.5 -2
      vertex 54.5 72.5 0
    endloop
  endfacet
  facet normal 0 0.999999 0.00125
    outer loop
      vertex 54.5 72.5 0
      vertex -54.51 72.49 8
      vertex 54.51 72.49 8
    endloop
  endfacet
  facet normal 0 0.999999 0.00125
    outer loop
      vertex -54.51 72.49 8
      vertex 54.5 72.5 0
      vertex -54.5 72.5 0
    endloop
  endfacet
  facet normal 0 0 1
    outer loop
      vertex 54.5 70.5 8
      vertex 56.49 70.51 8
      vertex 54.51 72.49 8
    endloop
  endfacet
  facet normal 0 0 1
    outer loop
      vertex 56.49 70.51 8
      vertex 54.5 70.5 8
      vertex 56.49 -70.51 8
    endloop
  endfacet
  facet normal -0 0 1
    outer loop
      vertex 54.5 -70.5 8
      vertex 56.49 -70.51 8
      vertex 54.5 70.5 8
    endloop
  endfacet
  facet normal 0 0 1
    outer loop
      vertex 54.51 72.49 8
      vertex 20 70.51 8
      vertex 54.5 70.5 8
    endloop
  endfacet
  facet normal 0 0 1
    outer loop
      vertex 54.51 72.49 8
      vertex -20 70.51 8
      vertex 20 70.51 8
    endloop
  endfacet
  facet normal 0 0 1
    outer loop
      vertex -20 70.51 8
      vertex -54.5 70.5 8
      vertex -20 70.5 8
    endloop
  endfacet
  facet normal -0 0 1
    outer loop
      vertex -54.51 72.49 8
      vertex -20 70.51 8
      vertex 54.51 72.49 8
    endloop
  endfacet
  facet normal -0 0 1
    outer loop
      vertex -56.49 70.51 8
      vertex -54.5 70.5 8
      vertex -54.51 72.49 8
    endloop
  endfacet
  facet normal 0 0 1
    outer loop
      vertex -20 70.51 8
      vertex -54.51 72.49 8
      vertex -54.5 70.5 8
    endloop
  endfacet
  facet normal 0 0 1
    outer loop
      vertex 56.49 -70.51 8
      vertex 54.5 -70.5 8
      vertex 54.51 -72.49 8
    endloop
  endfacet
  facet normal -0 0 1
    outer loop
      vertex -54.5 -70.5 8
      vertex 54.51 -72.49 8
      vertex 54.5 -70.5 8
    endloop
  endfacet
  facet normal 0 0 1
    outer loop
      vertex -54.5 -70.5 8
      vertex -54.51 -72.49 8
      vertex 54.51 -72.49 8
    endloop
  endfacet
  facet normal 0 0 1
    outer loop
      vertex -54.5 70.5 8
      vertex -56.49 70.51 8
      vertex -54.5 -70.5 8
    endloop
  endfacet
  facet normal 0 0 1
    outer loop
      vertex -56.49 -70.51 8
      vertex -54.5 -70.5 8
      vertex -56.49 70.51 8
    endloop
  endfacet
  facet normal 0 0 1
    outer loop
      vertex -54.5 -70.5 8
      vertex -56.49 -70.51 8
      vertex -54.51 -72.49 8
    endloop
  endfacet
  facet normal 0 0 1
    outer loop
      vertex 54.5 70.5 8
      vertex 20 70.51 8
      vertex 20 70.5 8
    endloop
  endfacet
  facet normal 0 -0.999999 0.00125
    outer loop
      vertex -54.5 -72.5 0
      vertex 54.51 -72.49 8
      vertex -54.51 -72.49 8
    endloop
  endfacet
  facet normal 0 -0.999999 0.00125
    outer loop
      vertex 54.51 -72.49 8
      vertex -54.5 -72.5 0
      vertex 54.5 -72.5 0
    endloop
  endfacet
  facet normal -0.707107 0.707107 6.34381e-16
    outer loop
      vertex -54.5 72.5 0
      vertex -56.49 70.51 8
      vertex -54.51 72.49 8
    endloop
  endfacet
  facet normal -0.707107 0.707107 -6.28037e-16
    outer loop
      vertex -56.49 70.51 8
      vertex -54.5 72.5 0
      vertex -56.5 70.5 0
    endloop
  endfacet
  facet normal 0.707107 0.707107 6.34381e-16
    outer loop
      vertex 56.49 70.51 8
      vertex 54.5 72.5 0
      vertex 54.51 72.49 8
    endloop
  endfacet
  facet normal 0.707107 0.707107 -6.28037e-16
    outer loop
      vertex 54.5 72.5 0
      vertex 56.49 70.51 8
      vertex 56.5 70.5 0
    endloop
  endfacet
  facet normal -1 0 0
    outer loop
      vertex 54.5 70.5 0
      vertex 54.5 55.51 2
      vertex 54.5 70.5 2
    endloop
  endfacet
  facet normal -1 0 0
    outer loop
      vertex 54.5 55.51 2
      vertex 54.5 -55.51 2
      vertex 54.5 55.51 3
    endloop
  endfacet
  facet normal -1 0 0
    outer loop
      vertex 54.5 70.5 0
      vertex 54.5 -55.51 2
      vertex 54.5 55.51 2
    endloop
  endfacet
  facet normal -1 0 0
    outer loop
      vertex 54.5 -70.5 0
      vertex 54.5 -55.51 2
      vertex 54.5 70.5 0
    endloop
  endfacet
  facet normal -1 -0 0
    outer loop
      vertex 54.5 -55.51 2
      vertex 54.5 -70.5 0
      vertex 54.5 -70.5 2
    endloop
  endfacet
  facet normal -1 0 0
    outer loop
      vertex 54.5 55.51 3
      vertex 54.5 70.5 8
      vertex 54.5 70.5 3
    endloop
  endfacet
  facet normal -1 0 0
    outer loop
      vertex 54.5 -55.51 3
      vertex 54.5 55.51 3
      vertex 54.5 -55.51 2
    endloop
  endfacet
  facet normal -1 0 0
    outer loop
      vertex 54.5 55.51 3
      vertex 54.5 -55.51 3
      vertex 54.5 70.5 8
    endloop
  endfacet
  facet normal -1 0 0
    outer loop
      vertex 54.5 -70.5 8
      vertex 54.5 -55.51 3
      vertex 54.5 -70.5 3
    endloop
  endfacet
  facet normal -1 0 0
    outer loop
      vertex 54.5 -55.51 3
      vertex 54.5 -70.5 8
      vertex 54.5 70.5 8
    endloop
  endfacet
  facet normal 0 0 1
    outer loop
      vertex 54.5 70.5 0
      vertex 51.5 67.5 0
      vertex 54.5 -70.5 0
    endloop
  endfacet
  facet normal 0 0 1
    outer loop
      vertex 54.5 70.5 0
      vertex -51.5 67.5 0
      vertex 51.5 67.5 0
    endloop
  endfacet
  facet normal 0 0 1
    outer loop
      vertex -51.5 67.5 0
      vertex -54.5 70.5 0
      vertex -51.5 -67.5 0
    endloop
  endfacet
  facet normal -0 0 1
    outer loop
      vertex -54.5 70.5 0
      vertex -51.5 67.5 0
      vertex 54.5 70.5 0
    endloop
  endfacet
  facet normal -0 0 1
    outer loop
      vertex 51.5 -67.5 0
      vertex 54.5 -70.5 0
      vertex 51.5 67.5 0
    endloop
  endfacet
  facet normal -0 0 1
    outer loop
      vertex -51.5 -67.5 0
      vertex 54.5 -70.5 0
      vertex 51.5 -67.5 0
    endloop
  endfacet
  facet normal 0 0 1
    outer loop
      vertex -51.5 -67.5 0
      vertex -54.5 -70.5 0
      vertex 54.5 -70.5 0
    endloop
  endfacet
  facet normal 0 0 1
    outer loop
      vertex -54.5 -70.5 0
      vertex -51.5 -67.5 0
      vertex -54.5 70.5 0
    endloop
  endfacet
  facet normal 1 0 0
    outer loop
      vertex -54.5 70.5 8
      vertex -54.5 55.51 3
      vertex -54.5 70.5 3
    endloop
  endfacet
  facet normal 1 0 0
    outer loop
      vertex -54.5 55.51 3
      vertex -54.5 -55.51 3
      vertex -54.5 55.51 2
    endloop
  endfacet
  facet normal 1 0 0
    outer loop
      vertex -54.5 70.5 8
      vertex -54.5 -55.51 3
      vertex -54.5 55.51 3
    endloop
  endfacet
  facet normal 1 -0 0
    outer loop
      vertex -54.5 -70.5 8
      vertex -54.5 -55.51 3
      vertex -54.5 70.5 8
    endloop
  endfacet
  facet normal 1 0 0
    outer loop
      vertex -54.5 -55.51 3
      vertex -54.5 -70.5 8
      vertex -54.5 -70.5 3
    endloop
  endfacet
  facet normal 1 -0 0
    outer loop
      vertex -54.5 55.51 2
      vertex -54.5 70.5 0
      vertex -54.5 70.5 2
    endloop
  endfacet
  facet normal 1 0 0
    outer loop
      vertex -54.5 -55.51 2
      vertex -54.5 55.51 2
      vertex -54.5 -55.51 3
    endloop
  endfacet
  facet normal 1 0 0
    outer loop
      vertex -54.5 55.51 2
      vertex -54.5 -55.51 2
      vertex -54.5 70.5 0
    endloop
  endfacet
  facet normal 1 0 0
    outer loop
      vertex -54.5 -70.5 0
      vertex -54.5 -55.51 2
      vertex -54.5 -70.5 2
    endloop
  endfacet
  facet normal 1 0 0
    outer loop
      vertex -54.5 -55.51 2
      vertex -54.5 -70.5 0
      vertex -54.5 70.5 0
    endloop
  endfacet
  facet normal 0 -1 0
    outer loop
      vertex -39.51 70.5 3
      vertex -20 70.5 8
      vertex -54.5 70.5 8
    endloop
  endfacet
  facet normal 0 -1 -0
    outer loop
      vertex -20 70.5 8
      vertex -39.51 70.5 3
      vertex -20 70.5 5
    endloop
  endfacet
  facet normal 0 -1 0
    outer loop
      vertex -39.51 70.5 3
      vertex -54.5 70.5 8
      vertex -54.5 70.5 3
    endloop
  endfacet
  facet normal 0 -1 0
    outer loop
      vertex 39.51 70.5 3
      vertex 20 70.5 8
      vertex 20 70.5 5
    endloop
  endfacet
  facet normal 0 -1 0
    outer loop
      vertex -39.51 70.5 2
      vertex -20 70.5 5
      vertex -39.51 70.5 3
    endloop
  endfacet
  facet normal 0 -1 -0
    outer loop
      vertex -20 70.5 5
      vertex -39.51 70.5 2
      vertex 20 70.5 5
    endloop
  endfacet
  facet normal 0 -1 0
    outer loop
      vertex 20 70.5 8
      vertex 39.51 70.5 3
      vertex 54.5 70.5 8
    endloop
  endfacet
  facet normal 0 -1 -0
    outer loop
      vertex 54.5 70.5 8
      vertex 39.51 70.5 3
      vertex 54.5 70.5 3
    endloop
  endfacet
  facet normal 0 -1 0
    outer loop
      vertex -54.5 70.5 0
      vertex -39.51 70.5 2
      vertex -54.5 70.5 2
    endloop
  endfacet
  facet normal 0 -1 -0
    outer loop
      vertex -39.51 70.5 2
      vertex -54.5 70.5 0
      vertex 39.51 70.5 2
    endloop
  endfacet
  facet normal 0 -1 0
    outer loop
      vertex 54.5 70.5 0
      vertex 39.51 70.5 2
      vertex -54.5 70.5 0
    endloop
  endfacet
  facet normal 0 -1 0
    outer loop
      vertex 39.51 70.5 2
      vertex 54.5 70.5 0
      vertex 54.5 70.5 2
    endloop
  endfacet
  facet normal 0 -1 0
    outer loop
      vertex 39.51 70.5 2
      vertex 20 70.5 5
      vertex -39.51 70.5 2
    endloop
  endfacet
  facet normal 0 -1 0
    outer loop
      vertex 20 70.5 5
      vertex 39.51 70.5 2
      vertex 39.51 70.5 3
    endloop
  endfacet
  facet normal 0 1 -0
    outer loop
      vertex 54.5 -70.5 0
      vertex 39.51 -70.5 2
      vertex 54.5 -70.5 2
    endloop
  endfacet
  facet normal 0 1 0
    outer loop
      vertex 39.51 -70.5 2
      vertex 54.5 -70.5 0
      vertex -39.51 -70.5 2
    endloop
  endfacet
  facet normal 0 1 0
    outer loop
      vertex -54.5 -70.5 0
      vertex -39.51 -70.5 2
      vertex 54.5 -70.5 0
    endloop
  endfacet
  facet normal 0 1 0
    outer loop
      vertex -39.51 -70.5 2
      vertex -54.5 -70.5 0
      vertex -54.5 -70.5 2
    endloop
  endfacet
  facet normal 0 1 -0
    outer loop
      vertex 39.51 -70.5 2
      vertex -39.51 -70.5 3
      vertex 39.51 -70.5 3
    endloop
  endfacet
  facet normal 0 1 0
    outer loop
      vertex -39.51 -70.5 3
      vertex 39.51 -70.5 2
      vertex -39.51 -70.5 2
    endloop
  endfacet
  facet normal 0 1 0
    outer loop
      vertex 39.51 -70.5 3
      vertex 54.5 -70.5 8
      vertex 54.5 -70.5 3
    endloop
  endfacet
  facet normal 0 1 0
    outer loop
      vertex 54.5 -70.5 8
      vertex 39.51 -70.5 3
      vertex -54.5 -70.5 8
    endloop
  endfacet
  facet normal 0 1 -0
    outer loop
      vertex -39.51 -70.5 3
      vertex -54.5 -70.5 8
      vertex 39.51 -70.5 3
    endloop
  endfacet
  facet normal 0 1 0
    outer loop
      vertex -54.5 -70.5 8
      vertex -39.51 -70.5 3
      vertex -54.5 -70.5 3
    endloop
  endfacet
  facet normal -1 0 0
    outer loop
      vertex 51.5 -67.5 -2
      vertex 51.5 67.5 0
      vertex 51.5 67.5 -2
    endloop
  endfacet
  facet normal -1 -0 0
    outer loop
      vertex 51.5 67.5 0
      vertex 51.5 -67.5 -2
      vertex 51.5 -67.5 0
    endloop
  endfacet
  facet normal 1 -0 0
    outer loop
      vertex -51.5 -67.5 0
      vertex -51.5 67.5 -2
      vertex -51.5 67.5 0
    endloop
  endfacet
  facet normal 1 0 0
    outer loop
      vertex -51.5 67.5 -2
      vertex -51.5 -67.5 0
      vertex -51.5 -67.5 -2
    endloop
  endfacet
  facet normal 0 -1 0
    outer loop
      vertex -51.5 67.5 -2
      vertex 51.5 67.5 0
      vertex -51.5 67.5 0
    endloop
  endfacet
  facet normal 0 -1 -0
    outer loop
      vertex 51.5 67.5 0
      vertex -51.5 67.5 -2
      vertex 51.5 67.5 -2
    endloop
  endfacet
  facet normal 0 1 -0
    outer loop
      vertex 51.5 -67.5 -2
      vertex -51.5 -67.5 0
      vertex 51.5 -67.5 0
    endloop
  endfacet
  facet normal 0 1 0
    outer loop
      vertex -51.5 -67.5 0
      vertex 51.5 -67.5 -2
      vertex -51.5 -67.5 -2
    endloop
  endfacet
  facet normal 0 0 -1
    outer loop
      vertex -39.51 -70.5 2
      vertex -54.5 -70.5 2
      vertex -54.5 -55.51 2
    endloop
  endfacet
  facet normal 0 0 1
    outer loop
      vertex -54.5 -55.51 3
      vertex -54.5 -70.5 3
      vertex -39.51 -70.5 3
    endloop
  endfacet
  facet normal 0.707107 0.707107 0
    outer loop
      vertex -39.51 -70.5 3
      vertex -54.5 -55.51 2
      vertex -54.5 -55.51 3
    endloop
  endfacet
  facet normal 0.707107 0.707107 0
    outer loop
      vertex -54.5 -55.51 2
      vertex -39.51 -70.5 3
      vertex -39.51 -70.5 2
    endloop
  endfacet
  facet normal -0 0 -1
    outer loop
      vertex -39.51 70.5 2
      vertex -54.5 55.51 2
      vertex -54.5 70.5 2
    endloop
  endfacet
  facet normal 0.707107 -0.707107 0
    outer loop
      vertex -54.5 55.51 3
      vertex -39.51 70.5 2
      vertex -39.51 70.5 3
    endloop
  endfacet
  facet normal 0.707107 -0.707107 0
    outer loop
      vertex -39.51 70.5 2
      vertex -54.5 55.51 3
      vertex -54.5 55.51 2
    endloop
  endfacet
  facet normal -0 0 1
    outer loop
      vertex -54.5 70.5 3
      vertex -54.5 55.51 3
      vertex -39.51 70.5 3
    endloop
  endfacet
  facet normal 0 0 -1
    outer loop
      vertex 54.5 55.51 2
      vertex 39.51 70.5 2
      vertex 54.5 70.5 2
    endloop
  endfacet
  facet normal -0.707107 -0.707107 0
    outer loop
      vertex 54.5 55.51 2
      vertex 39.51 70.5 3
      vertex 39.51 70.5 2
    endloop
  endfacet
  facet normal -0.707107 -0.707107 0
    outer loop
      vertex 39.51 70.5 3
      vertex 54.5 55.51 2
      vertex 54.5 55.51 3
    endloop
  endfacet
  facet normal 0 0 1
    outer loop
      vertex 54.5 70.5 3
      vertex 39.51 70.5 3
      vertex 54.5 55.51 3
    endloop
  endfacet
  facet normal 0 0 -1
    outer loop
      vertex 54.5 -70.5 2
      vertex 39.51 -70.5 2
      vertex 54.5 -55.51 2
    endloop
  endfacet
  facet normal 0 0 1
    outer loop
      vertex 54.5 -55.51 3
      vertex 39.51 -70.5 3
      vertex 54.5 -70.5 3
    endloop
  endfacet
  facet normal -0.707107 0.707107 0
    outer loop
      vertex 39.51 -70.5 2
      vertex 54.5 -55.51 3
      vertex 54.5 -55.51 2
    endloop
  endfacet
  facet normal -0.707107 0.707107 0
    outer loop
      vertex 54.5 -55.51 3
      vertex 39.51 -70.5 2
      vertex 39.51 -70.5 3
    endloop
  endfacet
  facet normal -1 0 0
    outer loop
      vertex -20 70.5 5
      vertex -20 67.5 8
      vertex -20 70.5 8
    endloop
  endfacet
  facet normal 0 0 0
    outer loop
      vertex -20 70.51 8
      vertex -20 70.5 8
      vertex -20 67.5 8
    endloop
  endfacet
  facet normal -0 0 1
    outer loop
      vertex -20 70.51 8
      vertex 20 67.5 8
      vertex 20 70.51 8
    endloop
  endfacet
  facet normal 0 0 1
    outer loop
      vertex 20 67.5 8
      vertex -20 70.51 8
      vertex -20 67.5 8
    endloop
  endfacet
  facet normal 0 -0.707107 -0.707107
    outer loop
      vertex -20 70.5 5
      vertex 20 67.5 8
      vertex -20 67.5 8
    endloop
  endfacet
  facet normal 0 -0.707107 -0.707107
    outer loop
      vertex 20 67.5 8
      vertex -20 70.5 5
      vertex 20 70.5 5
    endloop
  endfacet
  facet normal 1 0 0
    outer loop
      vertex 20 70.5 8
      vertex 20 67.5 8
      vertex 20 70.5 5
    endloop
  endfacet
  facet normal 0 0 0
    outer loop
      vertex 20 67.5 8
      vertex 20 70.5 8
      vertex 20 70.51 8
    endloop
  endfacet
endsolid OpenSCAD_Model
