solid OpenSCAD_Model
  facet normal 1 -0 0
    outer loop
      vertex 0.00999928 9.9986 5
      vertex 0.00999928 10 0
      vertex 0.00999928 10 5
    endloop
  endfacet
  facet normal 1 0 0
    outer loop
      vertex 0.00999928 10 0
      vertex 0.00999928 9.9986 5
      vertex 0.00999928 9.9986 0
    endloop
  endfacet
  facet normal 0 1 0
    outer loop
      vertex 0.00999928 10 5
      vertex -0.283306 10 4.86344
      vertex -0.319412 10 5
    endloop
  endfacet
  facet normal 0 1 0
    outer loop
      vertex 0.00999928 10 5
      vertex -0.197026 10 4.47527
      vertex -0.283306 10 4.86344
    endloop
  endfacet
  facet normal 0 1 0
    outer loop
      vertex 0.00999928 10 5
      vertex -0.126246 10 4.08398
      vertex -0.197026 10 4.47527
    endloop
  endfacet
  facet normal 0 1 0
    outer loop
      vertex 0.00999928 10 5
      vertex -0.0710793 10 3.69018
      vertex -0.126246 10 4.08398
    endloop
  endfacet
  facet normal 0 1 0
    outer loop
      vertex 0.00999928 10 5
      vertex -0.0316114 10 3.2945
      vertex -0.0710793 10 3.69018
    endloop
  endfacet
  facet normal 0 1 0
    outer loop
      vertex 0.00999928 10 5
      vertex -0.0289538 10 3.25
      vertex -0.0316114 10 3.2945
    endloop
  endfacet
  facet normal 0 1 0
    outer loop
      vertex -0.0289538 10 3.25
      vertex -0.0289537 10 1.75
      vertex -4.25 10 3.25
    endloop
  endfacet
  facet normal 0 1 0
    outer loop
      vertex 0.00999928 10 5
      vertex -0.0289537 10 1.75
      vertex -0.0289538 10 3.25
    endloop
  endfacet
  facet normal 0 1 -0
    outer loop
      vertex 0.00999928 10 0
      vertex -0.0289537 10 1.75
      vertex 0.00999928 10 5
    endloop
  endfacet
  facet normal 0 1 0
    outer loop
      vertex 0.00999928 10 0
      vertex -0.0316114 10 1.7055
      vertex -0.0289537 10 1.75
    endloop
  endfacet
  facet normal 0 1 0
    outer loop
      vertex 0.00999928 10 0
      vertex -0.0710793 10 1.30982
      vertex -0.0316114 10 1.7055
    endloop
  endfacet
  facet normal 0 1 0
    outer loop
      vertex 0.00999928 10 0
      vertex -0.126246 10 0.916019
      vertex -0.0710793 10 1.30982
    endloop
  endfacet
  facet normal 0 1 0
    outer loop
      vertex 0.00999928 10 0
      vertex -0.197026 10 0.524726
      vertex -0.126246 10 0.916019
    endloop
  endfacet
  facet normal 0 1 0
    outer loop
      vertex 0.00999928 10 0
      vertex -0.283306 10 0.136555
      vertex -0.197026 10 0.524726
    endloop
  endfacet
  facet normal 0 1 0
    outer loop
      vertex -0.283306 10 0.136555
      vertex 0.00999928 10 0
      vertex -0.319411 10 0
    endloop
  endfacet
  facet normal 0 1 0
    outer loop
      vertex -4.25 10 4.625
      vertex -5.375 10 5
      vertex -4.625 10 5
    endloop
  endfacet
  facet normal 0 1 0
    outer loop
      vertex -4.25 10 4.625
      vertex -5.75 10 4.625
      vertex -5.375 10 5
    endloop
  endfacet
  facet normal 0 1 -0
    outer loop
      vertex -4.25 10 3.25
      vertex -5.75 10 4.625
      vertex -4.25 10 4.625
    endloop
  endfacet
  facet normal 0 1 0
    outer loop
      vertex -4.25 10 1.75
      vertex -4.25 10 3.25
      vertex -0.0289537 10 1.75
    endloop
  endfacet
  facet normal 0 1 -0
    outer loop
      vertex -4.25 10 1.75
      vertex -5.75 10 4.625
      vertex -4.25 10 3.25
    endloop
  endfacet
  facet normal 0 1 0
    outer loop
      vertex -5.75 10 0.375
      vertex -4.25 10 1.75
      vertex -4.25 10 0.375
    endloop
  endfacet
  facet normal 0 1 0
    outer loop
      vertex -4.25 10 1.75
      vertex -5.75 10 0.375
      vertex -5.75 10 4.625
    endloop
  endfacet
  facet normal 0 1 -0
    outer loop
      vertex -4.625 10 0
      vertex -5.75 10 0.375
      vertex -4.25 10 0.375
    endloop
  endfacet
  facet normal 0 1 0
    outer loop
      vertex -5.75 10 0.375
      vertex -4.625 10 0
      vertex -5.375 10 0
    endloop
  endfacet
  facet normal 0 -1 0
    outer loop
      vertex -5.75 2 4.625
      vertex -4.625 2 5
      vertex -5.375 2 5
    endloop
  endfacet
  facet normal 0 -1 0
    outer loop
      vertex -5.75 2 4.625
      vertex -4.25 2 4.625
      vertex -4.625 2 5
    endloop
  endfacet
  facet normal 0 -1 0
    outer loop
      vertex -5.75 2 4.625
      vertex -4.25 2 3.25
      vertex -4.25 2 4.625
    endloop
  endfacet
  facet normal 0 -1 0
    outer loop
      vertex -4.25 2 3.25
      vertex -0.00790596 2 2.89756
      vertex -0.0289538 2 3.25
    endloop
  endfacet
  facet normal 0 -1 0
    outer loop
      vertex -4.25 2 3.25
      vertex 0 2 2.5
      vertex -0.00790596 2 2.89756
    endloop
  endfacet
  facet normal 0 -1 0
    outer loop
      vertex -4.25 2 1.75
      vertex 0 2 2.5
      vertex -4.25 2 3.25
    endloop
  endfacet
  facet normal 0 -1 0
    outer loop
      vertex 0 2 2.5
      vertex -4.25 2 1.75
      vertex -0.00790596 2 2.10243
    endloop
  endfacet
  facet normal 0 -1 0
    outer loop
      vertex -5.75 2 4.625
      vertex -4.25 2 1.75
      vertex -4.25 2 3.25
    endloop
  endfacet
  facet normal 0 -1 0
    outer loop
      vertex -5.75 2 0.375
      vertex -4.25 2 1.75
      vertex -5.75 2 4.625
    endloop
  endfacet
  facet normal 0 -1 0
    outer loop
      vertex -5.75 2 0.375
      vertex -4.25 2 0.375
      vertex -4.25 2 1.75
    endloop
  endfacet
  facet normal 0 -1 0
    outer loop
      vertex -5.375 2 0
      vertex -4.25 2 0.375
      vertex -5.75 2 0.375
    endloop
  endfacet
  facet normal 0 -1 0
    outer loop
      vertex -4.25 2 0.375
      vertex -5.375 2 0
      vertex -4.625 2 0
    endloop
  endfacet
  facet normal 0 -1 0
    outer loop
      vertex -0.00790596 2 2.10243
      vertex -4.25 2 1.75
      vertex -0.0289537 2 1.75
    endloop
  endfacet
  facet normal 0 0 -1
    outer loop
      vertex -4.25 2 1.75
      vertex -0.0289537 10 1.75
      vertex -0.0289537 2 1.75
    endloop
  endfacet
  facet normal -0 0 -1
    outer loop
      vertex -0.0289537 10 1.75
      vertex -4.25 2 1.75
      vertex -4.25 10 1.75
    endloop
  endfacet
  facet normal -0 0 1
    outer loop
      vertex -4.25 10 3.25
      vertex -0.0289538 2 3.25
      vertex -0.0289538 10 3.25
    endloop
  endfacet
  facet normal 0 0 1
    outer loop
      vertex -0.0289538 2 3.25
      vertex -4.25 10 3.25
      vertex -4.25 2 3.25
    endloop
  endfacet
  facet normal -1 0 0
    outer loop
      vertex -5.75 2 0.375
      vertex -5.75 10 4.625
      vertex -5.75 10 0.375
    endloop
  endfacet
  facet normal -1 -0 0
    outer loop
      vertex -5.75 10 4.625
      vertex -5.75 2 0.375
      vertex -5.75 2 4.625
    endloop
  endfacet
  facet normal 0.707107 -0 0.707107
    outer loop
      vertex -4.625 2 5
      vertex -4.25 10 4.625
      vertex -4.625 10 5
    endloop
  endfacet
  facet normal 0.707107 0 0.707107
    outer loop
      vertex -4.25 10 4.625
      vertex -4.625 2 5
      vertex -4.25 2 4.625
    endloop
  endfacet
  facet normal 1 -0 0
    outer loop
      vertex -4.25 2 1.75
      vertex -4.25 10 0.375
      vertex -4.25 10 1.75
    endloop
  endfacet
  facet normal 1 0 0
    outer loop
      vertex -4.25 10 0.375
      vertex -4.25 2 1.75
      vertex -4.25 2 0.375
    endloop
  endfacet
  facet normal 1 -0 0
    outer loop
      vertex -4.25 2 4.625
      vertex -4.25 10 3.25
      vertex -4.25 10 4.625
    endloop
  endfacet
  facet normal 1 0 0
    outer loop
      vertex -4.25 10 3.25
      vertex -4.25 2 4.625
      vertex -4.25 2 3.25
    endloop
  endfacet
  facet normal -0.707107 0 0.707107
    outer loop
      vertex -5.75 2 4.625
      vertex -5.375 10 5
      vertex -5.75 10 4.625
    endloop
  endfacet
  facet normal -0.707107 0 0.707107
    outer loop
      vertex -5.375 10 5
      vertex -5.75 2 4.625
      vertex -5.375 2 5
    endloop
  endfacet
  facet normal -0.707107 0 -0.707107
    outer loop
      vertex -5.375 2 0
      vertex -5.75 10 0.375
      vertex -5.375 10 0
    endloop
  endfacet
  facet normal -0.707107 -0 -0.707107
    outer loop
      vertex -5.75 10 0.375
      vertex -5.375 2 0
      vertex -5.75 2 0.375
    endloop
  endfacet
  facet normal -0 0 1
    outer loop
      vertex -5.375 10 5
      vertex -4.625 2 5
      vertex -4.625 10 5
    endloop
  endfacet
  facet normal 0 0 1
    outer loop
      vertex -4.625 2 5
      vertex -5.375 10 5
      vertex -5.375 2 5
    endloop
  endfacet
  facet normal 0.707107 0 -0.707107
    outer loop
      vertex -4.25 2 0.375
      vertex -4.625 10 0
      vertex -4.25 10 0.375
    endloop
  endfacet
  facet normal 0.707107 0 -0.707107
    outer loop
      vertex -4.625 10 0
      vertex -4.25 2 0.375
      vertex -4.625 2 0
    endloop
  endfacet
  facet normal 0 0 -1
    outer loop
      vertex -5.375 2 0
      vertex -4.625 10 0
      vertex -4.625 2 0
    endloop
  endfacet
  facet normal -0 0 -1
    outer loop
      vertex -4.625 10 0
      vertex -5.375 2 0
      vertex -5.375 10 0
    endloop
  endfacet
  facet normal -0 0 1
    outer loop
      vertex -0.319412 10 5
      vertex 0.00999928 9.9986 5
      vertex 0.00999928 10 5
    endloop
  endfacet
  facet normal 0 0 1
    outer loop
      vertex 0.00999928 9.9986 5
      vertex -0.319412 10 5
      vertex 0 0 5
    endloop
  endfacet
  facet normal 0 0 1
    outer loop
      vertex 0 0 5
      vertex -0.319412 10 5
      vertex -0.319412 0 5
    endloop
  endfacet
  facet normal 0 0 1
    outer loop
      vertex 100 -4 5
      vertex 92.7875 -4 5
      vertex 100 -5 5
    endloop
  endfacet
  facet normal 0 0 1
    outer loop
      vertex 0.00999928 9.9986 5
      vertex 92.7875 -4 5
      vertex 100 -4 5
    endloop
  endfacet
  facet normal 0 0 1
    outer loop
      vertex 0 0 5
      vertex 1 8.85025 5
      vertex 0.00999928 9.9986 5
    endloop
  endfacet
  facet normal 0 0 1
    outer loop
      vertex 92.7875 -4 5
      vertex 0.00999928 9.9986 5
      vertex 1 8.85025 5
    endloop
  endfacet
  facet normal 0 0 1
    outer loop
      vertex 90 -5 5
      vertex 92.7875 -4 5
      vertex 90.0277 -4 5
    endloop
  endfacet
  facet normal 0 0 1
    outer loop
      vertex 92.7875 -4 5
      vertex 90 -5 5
      vertex 100 -5 5
    endloop
  endfacet
  facet normal 0 0 1
    outer loop
      vertex 1 0.945984 5
      vertex 90 -5 5
      vertex 90.0277 -4 5
    endloop
  endfacet
  facet normal 0 0 1
    outer loop
      vertex 1 0.945984 5
      vertex 0 0 5
      vertex 90 -5 5
    endloop
  endfacet
  facet normal 0 0 1
    outer loop
      vertex 1 8.85025 5
      vertex 0 0 5
      vertex 1 0.945984 5
    endloop
  endfacet
  facet normal 0 0 -1
    outer loop
      vertex 100 -5 0
      vertex 92.7875 -4 0
      vertex 100 -4 0
    endloop
  endfacet
  facet normal 0 0 -1
    outer loop
      vertex 90 -5 0
      vertex 92.7875 -4 0
      vertex 100 -5 0
    endloop
  endfacet
  facet normal -0 0 -1
    outer loop
      vertex 92.7875 -4 0
      vertex 90 -5 0
      vertex 90.0277 -4 0
    endloop
  endfacet
  facet normal 0 0 -1
    outer loop
      vertex 90 -5 0
      vertex 1 0.945984 0
      vertex 90.0277 -4 0
    endloop
  endfacet
  facet normal 0 0 -1
    outer loop
      vertex -0.319411 0 0
      vertex 1 8.85025 0
      vertex 1 0.945984 0
    endloop
  endfacet
  facet normal 0 0 -1
    outer loop
      vertex 0 0 0
      vertex 1 0.945984 0
      vertex 90 -5 0
    endloop
  endfacet
  facet normal 0 0 -1
    outer loop
      vertex -0.319411 0 0
      vertex 1 0.945984 0
      vertex 0 0 0
    endloop
  endfacet
  facet normal -0 0 -1
    outer loop
      vertex 1 8.85025 0
      vertex -0.319411 0 0
      vertex -0.319411 10 0
    endloop
  endfacet
  facet normal 0 0 -1
    outer loop
      vertex 1 8.85025 0
      vertex -0.319411 10 0
      vertex 0.00999928 9.9986 0
    endloop
  endfacet
  facet normal 0 0 -1
    outer loop
      vertex 0.00999928 9.9986 0
      vertex -0.319411 10 0
      vertex 0.00999928 10 0
    endloop
  endfacet
  facet normal 0 0 -1
    outer loop
      vertex 0.00999928 9.9986 0
      vertex 92.7875 -4 0
      vertex 1 8.85025 0
    endloop
  endfacet
  facet normal 0 0 -1
    outer loop
      vertex 92.7875 -4 0
      vertex 0.00999928 9.9986 0
      vertex 100 -4 0
    endloop
  endfacet
  facet normal 0 -1 0
    outer loop
      vertex -0.00790596 0 2.10243
      vertex 0 0 0
      vertex 0 0 2.5
    endloop
  endfacet
  facet normal 0 -1 0
    outer loop
      vertex -0.0316114 0 1.7055
      vertex 0 0 0
      vertex -0.00790596 0 2.10243
    endloop
  endfacet
  facet normal 0 -1 0
    outer loop
      vertex -0.0710793 0 1.30982
      vertex 0 0 0
      vertex -0.0316114 0 1.7055
    endloop
  endfacet
  facet normal 0 -1 0
    outer loop
      vertex -0.126246 0 0.916019
      vertex 0 0 0
      vertex -0.0710793 0 1.30982
    endloop
  endfacet
  facet normal 0 -1 0
    outer loop
      vertex -0.197026 0 0.524726
      vertex 0 0 0
      vertex -0.126246 0 0.916019
    endloop
  endfacet
  facet normal 0 -1 0
    outer loop
      vertex -0.283306 0 0.136555
      vertex 0 0 0
      vertex -0.197026 0 0.524726
    endloop
  endfacet
  facet normal 0 -1 0
    outer loop
      vertex 0 0 0
      vertex -0.283306 0 0.136555
      vertex -0.319411 0 0
    endloop
  endfacet
  facet normal 0 -1 0
    outer loop
      vertex -0.283306 0 4.86344
      vertex 0 0 5
      vertex -0.319412 0 5
    endloop
  endfacet
  facet normal 0 -1 0
    outer loop
      vertex -0.197026 0 4.47527
      vertex 0 0 5
      vertex -0.283306 0 4.86344
    endloop
  endfacet
  facet normal 0 -1 0
    outer loop
      vertex -0.126246 0 4.08398
      vertex 0 0 5
      vertex -0.197026 0 4.47527
    endloop
  endfacet
  facet normal 0 -1 0
    outer loop
      vertex -0.0710793 0 3.69018
      vertex 0 0 5
      vertex -0.126246 0 4.08398
    endloop
  endfacet
  facet normal 0 -1 0
    outer loop
      vertex -0.0316114 0 3.2945
      vertex 0 0 5
      vertex -0.0710793 0 3.69018
    endloop
  endfacet
  facet normal 0 -1 0
    outer loop
      vertex -0.00790596 0 2.89756
      vertex 0 0 5
      vertex -0.0316114 0 3.2945
    endloop
  endfacet
  facet normal 0 -1 -0
    outer loop
      vertex 0 0 5
      vertex -0.00790596 0 2.89756
      vertex 0 0 2.5
    endloop
  endfacet
  facet normal -0.99033 0 -0.138733
    outer loop
      vertex -0.0710793 0 3.69018
      vertex -0.126246 10 4.08398
      vertex -0.0710793 10 3.69018
    endloop
  endfacet
  facet normal -0.99033 -0 -0.138733
    outer loop
      vertex -0.126246 10 4.08398
      vertex -0.0710793 0 3.69018
      vertex -0.126246 0 4.08398
    endloop
  endfacet
  facet normal -0.998221 0 0.0596174
    outer loop
      vertex -0.0316114 10 1.7055
      vertex -0.0289537 2 1.75
      vertex -0.0289537 10 1.75
    endloop
  endfacet
  facet normal -0.998221 0 0.0596174
    outer loop
      vertex -0.0316114 0 1.7055
      vertex -0.0289537 2 1.75
      vertex -0.0316114 10 1.7055
    endloop
  endfacet
  facet normal -0.998221 3.619e-08 0.0596157
    outer loop
      vertex -0.00790596 0 2.10243
      vertex -0.0289537 2 1.75
      vertex -0.0316114 0 1.7055
    endloop
  endfacet
  facet normal -0.998221 0 0.0596155
    outer loop
      vertex -0.0289537 2 1.75
      vertex -0.00790596 0 2.10243
      vertex -0.00790596 2 2.10243
    endloop
  endfacet
  facet normal -0.999802 0 0.0198818
    outer loop
      vertex -0.00790596 0 2.10243
      vertex 0 2 2.5
      vertex -0.00790596 2 2.10243
    endloop
  endfacet
  facet normal -0.999802 0 0.0198818
    outer loop
      vertex 0 2 2.5
      vertex -0.00790596 0 2.10243
      vertex 0 0 2.5
    endloop
  endfacet
  facet normal -0.995062 0 0.0992545
    outer loop
      vertex -0.0710793 0 1.30982
      vertex -0.0316114 10 1.7055
      vertex -0.0710793 10 1.30982
    endloop
  endfacet
  facet normal -0.995062 0 0.0992545
    outer loop
      vertex -0.0316114 10 1.7055
      vertex -0.0710793 0 1.30982
      vertex -0.0316114 0 1.7055
    endloop
  endfacet
  facet normal -0.976177 0 0.216978
    outer loop
      vertex -0.283306 0 0.136555
      vertex -0.197026 10 0.524726
      vertex -0.283306 10 0.136555
    endloop
  endfacet
  facet normal -0.976177 0 0.216978
    outer loop
      vertex -0.197026 10 0.524726
      vertex -0.283306 0 0.136555
      vertex -0.197026 0 0.524726
    endloop
  endfacet
  facet normal -0.998221 -0 -0.0596141
    outer loop
      vertex -0.00790596 2 2.89756
      vertex -0.00790596 0 2.89756
      vertex -0.0289538 2 3.25
    endloop
  endfacet
  facet normal -0.998221 0 -0.0596151
    outer loop
      vertex -0.0289538 2 3.25
      vertex -0.0316114 10 3.2945
      vertex -0.0289538 10 3.25
    endloop
  endfacet
  facet normal -0.998221 0 -0.0596151
    outer loop
      vertex -0.0289538 2 3.25
      vertex -0.0316114 0 3.2945
      vertex -0.0316114 10 3.2945
    endloop
  endfacet
  facet normal -0.998221 1.96959e-08 -0.0596142
    outer loop
      vertex -0.0316114 0 3.2945
      vertex -0.0289538 2 3.25
      vertex -0.00790596 0 2.89756
    endloop
  endfacet
  facet normal -0.999802 0 -0.0198823
    outer loop
      vertex 0 0 2.5
      vertex -0.00790596 2 2.89756
      vertex 0 2 2.5
    endloop
  endfacet
  facet normal -0.999802 -0 -0.0198823
    outer loop
      vertex -0.00790596 2 2.89756
      vertex 0 0 2.5
      vertex -0.00790596 0 2.89756
    endloop
  endfacet
  facet normal -0.995062 0 -0.0992545
    outer loop
      vertex -0.0316114 0 3.2945
      vertex -0.0710793 10 3.69018
      vertex -0.0316114 10 3.2945
    endloop
  endfacet
  facet normal -0.995062 -0 -0.0992545
    outer loop
      vertex -0.0710793 10 3.69018
      vertex -0.0316114 0 3.2945
      vertex -0.0710793 0 3.69018
    endloop
  endfacet
  facet normal -0.984031 0 0.177999
    outer loop
      vertex -0.197026 0 0.524726
      vertex -0.126246 10 0.916019
      vertex -0.197026 10 0.524726
    endloop
  endfacet
  facet normal -0.984031 0 0.177999
    outer loop
      vertex -0.126246 10 0.916019
      vertex -0.197026 0 0.524726
      vertex -0.126246 0 0.916019
    endloop
  endfacet
  facet normal -0.98403 0 -0.178
    outer loop
      vertex -0.126246 0 4.08398
      vertex -0.197026 10 4.47527
      vertex -0.126246 10 4.08398
    endloop
  endfacet
  facet normal -0.98403 -0 -0.178
    outer loop
      vertex -0.197026 10 4.47527
      vertex -0.126246 0 4.08398
      vertex -0.197026 0 4.47527
    endloop
  endfacet
  facet normal -0.99033 0 0.138733
    outer loop
      vertex -0.126246 0 0.916019
      vertex -0.0710793 10 1.30982
      vertex -0.126246 10 0.916019
    endloop
  endfacet
  facet normal -0.99033 0 0.138733
    outer loop
      vertex -0.0710793 10 1.30982
      vertex -0.126246 0 0.916019
      vertex -0.0710793 0 1.30982
    endloop
  endfacet
  facet normal -0.976176 0 -0.216978
    outer loop
      vertex -0.197026 0 4.47527
      vertex -0.283306 10 4.86344
      vertex -0.197026 10 4.47527
    endloop
  endfacet
  facet normal -0.976176 -0 -0.216978
    outer loop
      vertex -0.283306 10 4.86344
      vertex -0.197026 0 4.47527
      vertex -0.283306 0 4.86344
    endloop
  endfacet
  facet normal -0.966779 0 0.255615
    outer loop
      vertex -0.319411 0 0
      vertex -0.283306 10 0.136555
      vertex -0.319411 10 0
    endloop
  endfacet
  facet normal -0.966779 0 0.255615
    outer loop
      vertex -0.283306 10 0.136555
      vertex -0.319411 0 0
      vertex -0.283306 0 0.136555
    endloop
  endfacet
  facet normal -0.966779 0 -0.255613
    outer loop
      vertex -0.283306 0 4.86344
      vertex -0.319412 10 5
      vertex -0.283306 10 4.86344
    endloop
  endfacet
  facet normal -0.966779 -0 -0.255613
    outer loop
      vertex -0.319412 10 5
      vertex -0.283306 0 4.86344
      vertex -0.319412 0 5
    endloop
  endfacet
  facet normal 0.138648 0.990342 -0
    outer loop
      vertex 100 -4 0
      vertex 0.00999928 9.9986 5
      vertex 100 -4 5
    endloop
  endfacet
  facet normal 0.138648 0.990342 0
    outer loop
      vertex 0.00999928 9.9986 5
      vertex 100 -4 0
      vertex 0.00999928 9.9986 0
    endloop
  endfacet
  facet normal -0.05547 -0.99846 0
    outer loop
      vertex 0 0 2.5
      vertex 90 -5 5
      vertex 0 0 5
    endloop
  endfacet
  facet normal -0.05547 -0.99846 0
    outer loop
      vertex 90 -5 0
      vertex 0 0 2.5
      vertex 0 0 0
    endloop
  endfacet
  facet normal -0.05547 -0.99846 0
    outer loop
      vertex 0 0 2.5
      vertex 90 -5 0
      vertex 90 -5 5
    endloop
  endfacet
  facet normal 0 -1 0
    outer loop
      vertex 90 -5 0
      vertex 100 -5 5
      vertex 90 -5 5
    endloop
  endfacet
  facet normal 0 -1 -0
    outer loop
      vertex 100 -5 5
      vertex 90 -5 0
      vertex 100 -5 0
    endloop
  endfacet
  facet normal 1 -0 0
    outer loop
      vertex 100 -5 5
      vertex 100 -4 0
      vertex 100 -4 5
    endloop
  endfacet
  facet normal 1 0 0
    outer loop
      vertex 100 -4 0
      vertex 100 -5 5
      vertex 100 -5 0
    endloop
  endfacet
  facet normal 0.05547 0.99846 -0
    outer loop
      vertex 90.0277 -4 0
      vertex 1 0.945984 5
      vertex 90.0277 -4 5
    endloop
  endfacet
  facet normal 0.05547 0.99846 0
    outer loop
      vertex 1 0.945984 5
      vertex 90.0277 -4 0
      vertex 1 0.945984 0
    endloop
  endfacet
  facet normal 1 -0 0
    outer loop
      vertex 1 0.945984 5
      vertex 1 8.85025 0
      vertex 1 8.85025 5
    endloop
  endfacet
  facet normal 1 0 0
    outer loop
      vertex 1 8.85025 0
      vertex 1 0.945984 5
      vertex 1 0.945984 0
    endloop
  endfacet
  facet normal -0.138648 -0.990342 0
    outer loop
      vertex 1 8.85025 0
      vertex 92.7875 -4 5
      vertex 1 8.85025 5
    endloop
  endfacet
  facet normal -0.138648 -0.990342 -0
    outer loop
      vertex 92.7875 -4 5
      vertex 1 8.85025 0
      vertex 92.7875 -4 0
    endloop
  endfacet
  facet normal 0 1 -0
    outer loop
      vertex 92.7875 -4 0
      vertex 90.0277 -4 5
      vertex 92.7875 -4 5
    endloop
  endfacet
  facet normal 0 1 0
    outer loop
      vertex 90.0277 -4 5
      vertex 92.7875 -4 0
      vertex 90.0277 -4 0
    endloop
  endfacet
  facet normal 1 -0 0
    outer loop
      vertex 0.00999928 39.9986 5
      vertex 0.00999928 40 0
      vertex 0.00999928 40 5
    endloop
  endfacet
  facet normal 1 0 0
    outer loop
      vertex 0.00999928 40 0
      vertex 0.00999928 39.9986 5
      vertex 0.00999928 39.9986 0
    endloop
  endfacet
  facet normal 0 1 0
    outer loop
      vertex 0.00999928 40 5
      vertex -0.283306 40 4.86344
      vertex -0.319412 40 5
    endloop
  endfacet
  facet normal 0 1 0
    outer loop
      vertex 0.00999928 40 5
      vertex -0.197026 40 4.47527
      vertex -0.283306 40 4.86344
    endloop
  endfacet
  facet normal 0 1 0
    outer loop
      vertex 0.00999928 40 5
      vertex -0.126246 40 4.08398
      vertex -0.197026 40 4.47527
    endloop
  endfacet
  facet normal 0 1 0
    outer loop
      vertex 0.00999928 40 5
      vertex -0.0710793 40 3.69018
      vertex -0.126246 40 4.08398
    endloop
  endfacet
  facet normal 0 1 0
    outer loop
      vertex 0.00999928 40 5
      vertex -0.0316114 40 3.2945
      vertex -0.0710793 40 3.69018
    endloop
  endfacet
  facet normal 0 1 0
    outer loop
      vertex 0.00999928 40 5
      vertex -0.0289538 40 3.25
      vertex -0.0316114 40 3.2945
    endloop
  endfacet
  facet normal 0 1 0
    outer loop
      vertex -0.0289538 40 3.25
      vertex -0.0289537 40 1.75
      vertex -4.25 40 3.25
    endloop
  endfacet
  facet normal 0 1 0
    outer loop
      vertex 0.00999928 40 5
      vertex -0.0289537 40 1.75
      vertex -0.0289538 40 3.25
    endloop
  endfacet
  facet normal 0 1 -0
    outer loop
      vertex 0.00999928 40 0
      vertex -0.0289537 40 1.75
      vertex 0.00999928 40 5
    endloop
  endfacet
  facet normal 0 1 0
    outer loop
      vertex 0.00999928 40 0
      vertex -0.0316114 40 1.7055
      vertex -0.0289537 40 1.75
    endloop
  endfacet
  facet normal 0 1 0
    outer loop
      vertex 0.00999928 40 0
      vertex -0.0710793 40 1.30982
      vertex -0.0316114 40 1.7055
    endloop
  endfacet
  facet normal 0 1 0
    outer loop
      vertex 0.00999928 40 0
      vertex -0.126246 40 0.916019
      vertex -0.0710793 40 1.30982
    endloop
  endfacet
  facet normal 0 1 0
    outer loop
      vertex 0.00999928 40 0
      vertex -0.197026 40 0.524726
      vertex -0.126246 40 0.916019
    endloop
  endfacet
  facet normal 0 1 0
    outer loop
      vertex 0.00999928 40 0
      vertex -0.283306 40 0.136555
      vertex -0.197026 40 0.524726
    endloop
  endfacet
  facet normal 0 1 0
    outer loop
      vertex -0.283306 40 0.136555
      vertex 0.00999928 40 0
      vertex -0.319411 40 0
    endloop
  endfacet
  facet normal 0 1 0
    outer loop
      vertex -4.25 40 4.625
      vertex -5.375 40 5
      vertex -4.625 40 5
    endloop
  endfacet
  facet normal 0 1 0
    outer loop
      vertex -4.25 40 4.625
      vertex -5.75 40 4.625
      vertex -5.375 40 5
    endloop
  endfacet
  facet normal 0 1 -0
    outer loop
      vertex -4.25 40 3.25
      vertex -5.75 40 4.625
      vertex -4.25 40 4.625
    endloop
  endfacet
  facet normal 0 1 0
    outer loop
      vertex -4.25 40 1.75
      vertex -4.25 40 3.25
      vertex -0.0289537 40 1.75
    endloop
  endfacet
  facet normal 0 1 -0
    outer loop
      vertex -4.25 40 1.75
      vertex -5.75 40 4.625
      vertex -4.25 40 3.25
    endloop
  endfacet
  facet normal 0 1 0
    outer loop
      vertex -5.75 40 0.375
      vertex -4.25 40 1.75
      vertex -4.25 40 0.375
    endloop
  endfacet
  facet normal 0 1 0
    outer loop
      vertex -4.25 40 1.75
      vertex -5.75 40 0.375
      vertex -5.75 40 4.625
    endloop
  endfacet
  facet normal 0 1 -0
    outer loop
      vertex -4.625 40 0
      vertex -5.75 40 0.375
      vertex -4.25 40 0.375
    endloop
  endfacet
  facet normal 0 1 0
    outer loop
      vertex -5.75 40 0.375
      vertex -4.625 40 0
      vertex -5.375 40 0
    endloop
  endfacet
  facet normal 0 -1 0
    outer loop
      vertex -5.75 32 4.625
      vertex -4.625 32 5
      vertex -5.375 32 5
    endloop
  endfacet
  facet normal 0 -1 0
    outer loop
      vertex -5.75 32 4.625
      vertex -4.25 32 4.625
      vertex -4.625 32 5
    endloop
  endfacet
  facet normal 0 -1 0
    outer loop
      vertex -5.75 32 4.625
      vertex -4.25 32 3.25
      vertex -4.25 32 4.625
    endloop
  endfacet
  facet normal 0 -1 0
    outer loop
      vertex -4.25 32 3.25
      vertex -0.00790596 32 2.89756
      vertex -0.0289538 32 3.25
    endloop
  endfacet
  facet normal 0 -1 0
    outer loop
      vertex -4.25 32 3.25
      vertex 0 32 2.5
      vertex -0.00790596 32 2.89756
    endloop
  endfacet
  facet normal 0 -1 0
    outer loop
      vertex -4.25 32 1.75
      vertex 0 32 2.5
      vertex -4.25 32 3.25
    endloop
  endfacet
  facet normal 0 -1 0
    outer loop
      vertex 0 32 2.5
      vertex -4.25 32 1.75
      vertex -0.00790596 32 2.10243
    endloop
  endfacet
  facet normal 0 -1 0
    outer loop
      vertex -5.75 32 4.625
      vertex -4.25 32 1.75
      vertex -4.25 32 3.25
    endloop
  endfacet
  facet normal 0 -1 0
    outer loop
      vertex -5.75 32 0.375
      vertex -4.25 32 1.75
      vertex -5.75 32 4.625
    endloop
  endfacet
  facet normal 0 -1 0
    outer loop
      vertex -5.75 32 0.375
      vertex -4.25 32 0.375
      vertex -4.25 32 1.75
    endloop
  endfacet
  facet normal 0 -1 0
    outer loop
      vertex -5.375 32 0
      vertex -4.25 32 0.375
      vertex -5.75 32 0.375
    endloop
  endfacet
  facet normal 0 -1 0
    outer loop
      vertex -4.25 32 0.375
      vertex -5.375 32 0
      vertex -4.625 32 0
    endloop
  endfacet
  facet normal 0 -1 0
    outer loop
      vertex -0.00790596 32 2.10243
      vertex -4.25 32 1.75
      vertex -0.0289537 32 1.75
    endloop
  endfacet
  facet normal 0 0 -1
    outer loop
      vertex -4.25 32 1.75
      vertex -0.0289537 40 1.75
      vertex -0.0289537 32 1.75
    endloop
  endfacet
  facet normal -0 0 -1
    outer loop
      vertex -0.0289537 40 1.75
      vertex -4.25 32 1.75
      vertex -4.25 40 1.75
    endloop
  endfacet
  facet normal -0 0 1
    outer loop
      vertex -4.25 40 3.25
      vertex -0.0289538 32 3.25
      vertex -0.0289538 40 3.25
    endloop
  endfacet
  facet normal 0 0 1
    outer loop
      vertex -0.0289538 32 3.25
      vertex -4.25 40 3.25
      vertex -4.25 32 3.25
    endloop
  endfacet
  facet normal -1 0 0
    outer loop
      vertex -5.75 32 0.375
      vertex -5.75 40 4.625
      vertex -5.75 40 0.375
    endloop
  endfacet
  facet normal -1 -0 0
    outer loop
      vertex -5.75 40 4.625
      vertex -5.75 32 0.375
      vertex -5.75 32 4.625
    endloop
  endfacet
  facet normal 0.707107 -0 0.707107
    outer loop
      vertex -4.625 32 5
      vertex -4.25 40 4.625
      vertex -4.625 40 5
    endloop
  endfacet
  facet normal 0.707107 0 0.707107
    outer loop
      vertex -4.25 40 4.625
      vertex -4.625 32 5
      vertex -4.25 32 4.625
    endloop
  endfacet
  facet normal 1 -0 0
    outer loop
      vertex -4.25 32 1.75
      vertex -4.25 40 0.375
      vertex -4.25 40 1.75
    endloop
  endfacet
  facet normal 1 0 0
    outer loop
      vertex -4.25 40 0.375
      vertex -4.25 32 1.75
      vertex -4.25 32 0.375
    endloop
  endfacet
  facet normal 1 -0 0
    outer loop
      vertex -4.25 32 4.625
      vertex -4.25 40 3.25
      vertex -4.25 40 4.625
    endloop
  endfacet
  facet normal 1 0 0
    outer loop
      vertex -4.25 40 3.25
      vertex -4.25 32 4.625
      vertex -4.25 32 3.25
    endloop
  endfacet
  facet normal -0.707107 0 0.707107
    outer loop
      vertex -5.75 32 4.625
      vertex -5.375 40 5
      vertex -5.75 40 4.625
    endloop
  endfacet
  facet normal -0.707107 0 0.707107
    outer loop
      vertex -5.375 40 5
      vertex -5.75 32 4.625
      vertex -5.375 32 5
    endloop
  endfacet
  facet normal -0.707107 0 -0.707107
    outer loop
      vertex -5.375 32 0
      vertex -5.75 40 0.375
      vertex -5.375 40 0
    endloop
  endfacet
  facet normal -0.707107 -0 -0.707107
    outer loop
      vertex -5.75 40 0.375
      vertex -5.375 32 0
      vertex -5.75 32 0.375
    endloop
  endfacet
  facet normal -0 0 1
    outer loop
      vertex -5.375 40 5
      vertex -4.625 32 5
      vertex -4.625 40 5
    endloop
  endfacet
  facet normal 0 0 1
    outer loop
      vertex -4.625 32 5
      vertex -5.375 40 5
      vertex -5.375 32 5
    endloop
  endfacet
  facet normal 0.707107 0 -0.707107
    outer loop
      vertex -4.25 32 0.375
      vertex -4.625 40 0
      vertex -4.25 40 0.375
    endloop
  endfacet
  facet normal 0.707107 0 -0.707107
    outer loop
      vertex -4.625 40 0
      vertex -4.25 32 0.375
      vertex -4.625 32 0
    endloop
  endfacet
  facet normal 0 0 -1
    outer loop
      vertex -5.375 32 0
      vertex -4.625 40 0
      vertex -4.625 32 0
    endloop
  endfacet
  facet normal -0 0 -1
    outer loop
      vertex -4.625 40 0
      vertex -5.375 32 0
      vertex -5.375 40 0
    endloop
  endfacet
  facet normal -0 0 1
    outer loop
      vertex -0.319412 40 5
      vertex 0.00999928 39.9986 5
      vertex 0.00999928 40 5
    endloop
  endfacet
  facet normal 0 0 1
    outer loop
      vertex 0.00999928 39.9986 5
      vertex -0.319412 40 5
      vertex 0 30 5
    endloop
  endfacet
  facet normal 0 0 1
    outer loop
      vertex 0 30 5
      vertex -0.319412 40 5
      vertex -0.319412 30 5
    endloop
  endfacet
  facet normal 0 0 1
    outer loop
      vertex 100 26 5
      vertex 92.7875 26 5
      vertex 100 25 5
    endloop
  endfacet
  facet normal 0 0 1
    outer loop
      vertex 0.00999928 39.9986 5
      vertex 92.7875 26 5
      vertex 100 26 5
    endloop
  endfacet
  facet normal 0 0 1
    outer loop
      vertex 0 30 5
      vertex 1 38.8503 5
      vertex 0.00999928 39.9986 5
    endloop
  endfacet
  facet normal 0 0 1
    outer loop
      vertex 92.7875 26 5
      vertex 0.00999928 39.9986 5
      vertex 1 38.8503 5
    endloop
  endfacet
  facet normal 0 0 1
    outer loop
      vertex 90 25 5
      vertex 92.7875 26 5
      vertex 90.0277 26 5
    endloop
  endfacet
  facet normal 0 0 1
    outer loop
      vertex 92.7875 26 5
      vertex 90 25 5
      vertex 100 25 5
    endloop
  endfacet
  facet normal 0 0 1
    outer loop
      vertex 1 30.946 5
      vertex 90 25 5
      vertex 90.0277 26 5
    endloop
  endfacet
  facet normal 0 0 1
    outer loop
      vertex 1 30.946 5
      vertex 0 30 5
      vertex 90 25 5
    endloop
  endfacet
  facet normal 0 0 1
    outer loop
      vertex 1 38.8503 5
      vertex 0 30 5
      vertex 1 30.946 5
    endloop
  endfacet
  facet normal 0 0 -1
    outer loop
      vertex 100 25 0
      vertex 92.7875 26 0
      vertex 100 26 0
    endloop
  endfacet
  facet normal 0 0 -1
    outer loop
      vertex 90 25 0
      vertex 92.7875 26 0
      vertex 100 25 0
    endloop
  endfacet
  facet normal -0 0 -1
    outer loop
      vertex 92.7875 26 0
      vertex 90 25 0
      vertex 90.0277 26 0
    endloop
  endfacet
  facet normal 0 0 -1
    outer loop
      vertex 90 25 0
      vertex 1 30.946 0
      vertex 90.0277 26 0
    endloop
  endfacet
  facet normal 0 0 -1
    outer loop
      vertex -0.319411 30 0
      vertex 1 38.8503 0
      vertex 1 30.946 0
    endloop
  endfacet
  facet normal 0 0 -1
    outer loop
      vertex 0 30 0
      vertex 1 30.946 0
      vertex 90 25 0
    endloop
  endfacet
  facet normal 0 0 -1
    outer loop
      vertex -0.319411 30 0
      vertex 1 30.946 0
      vertex 0 30 0
    endloop
  endfacet
  facet normal -0 0 -1
    outer loop
      vertex 1 38.8503 0
      vertex -0.319411 30 0
      vertex -0.319411 40 0
    endloop
  endfacet
  facet normal 0 0 -1
    outer loop
      vertex 1 38.8503 0
      vertex -0.319411 40 0
      vertex 0.00999928 39.9986 0
    endloop
  endfacet
  facet normal 0 0 -1
    outer loop
      vertex 0.00999928 39.9986 0
      vertex -0.319411 40 0
      vertex 0.00999928 40 0
    endloop
  endfacet
  facet normal 0 0 -1
    outer loop
      vertex 0.00999928 39.9986 0
      vertex 92.7875 26 0
      vertex 1 38.8503 0
    endloop
  endfacet
  facet normal 0 0 -1
    outer loop
      vertex 92.7875 26 0
      vertex 0.00999928 39.9986 0
      vertex 100 26 0
    endloop
  endfacet
  facet normal 0 -1 0
    outer loop
      vertex -0.00790596 30 2.10243
      vertex 0 30 0
      vertex 0 30 2.5
    endloop
  endfacet
  facet normal 0 -1 0
    outer loop
      vertex -0.0316114 30 1.7055
      vertex 0 30 0
      vertex -0.00790596 30 2.10243
    endloop
  endfacet
  facet normal 0 -1 0
    outer loop
      vertex -0.0710793 30 1.30982
      vertex 0 30 0
      vertex -0.0316114 30 1.7055
    endloop
  endfacet
  facet normal 0 -1 0
    outer loop
      vertex -0.126246 30 0.916019
      vertex 0 30 0
      vertex -0.0710793 30 1.30982
    endloop
  endfacet
  facet normal 0 -1 0
    outer loop
      vertex -0.197026 30 0.524726
      vertex 0 30 0
      vertex -0.126246 30 0.916019
    endloop
  endfacet
  facet normal 0 -1 0
    outer loop
      vertex -0.283306 30 0.136555
      vertex 0 30 0
      vertex -0.197026 30 0.524726
    endloop
  endfacet
  facet normal 0 -1 0
    outer loop
      vertex 0 30 0
      vertex -0.283306 30 0.136555
      vertex -0.319411 30 0
    endloop
  endfacet
  facet normal 0 -1 0
    outer loop
      vertex -0.283306 30 4.86344
      vertex 0 30 5
      vertex -0.319412 30 5
    endloop
  endfacet
  facet normal 0 -1 0
    outer loop
      vertex -0.197026 30 4.47527
      vertex 0 30 5
      vertex -0.283306 30 4.86344
    endloop
  endfacet
  facet normal 0 -1 0
    outer loop
      vertex -0.126246 30 4.08398
      vertex 0 30 5
      vertex -0.197026 30 4.47527
    endloop
  endfacet
  facet normal 0 -1 0
    outer loop
      vertex -0.0710793 30 3.69018
      vertex 0 30 5
      vertex -0.126246 30 4.08398
    endloop
  endfacet
  facet normal 0 -1 0
    outer loop
      vertex -0.0316114 30 3.2945
      vertex 0 30 5
      vertex -0.0710793 30 3.69018
    endloop
  endfacet
  facet normal 0 -1 0
    outer loop
      vertex -0.00790596 30 2.89756
      vertex 0 30 5
      vertex -0.0316114 30 3.2945
    endloop
  endfacet
  facet normal 0 -1 -0
    outer loop
      vertex 0 30 5
      vertex -0.00790596 30 2.89756
      vertex 0 30 2.5
    endloop
  endfacet
  facet normal -0.99033 0 -0.138733
    outer loop
      vertex -0.0710793 30 3.69018
      vertex -0.126246 40 4.08398
      vertex -0.0710793 40 3.69018
    endloop
  endfacet
  facet normal -0.99033 -0 -0.138733
    outer loop
      vertex -0.126246 40 4.08398
      vertex -0.0710793 30 3.69018
      vertex -0.126246 30 4.08398
    endloop
  endfacet
  facet normal -0.998221 0 0.0596174
    outer loop
      vertex -0.0316114 40 1.7055
      vertex -0.0289537 32 1.75
      vertex -0.0289537 40 1.75
    endloop
  endfacet
  facet normal -0.998221 0 0.0596174
    outer loop
      vertex -0.0316114 30 1.7055
      vertex -0.0289537 32 1.75
      vertex -0.0316114 40 1.7055
    endloop
  endfacet
  facet normal -0.998221 3.619e-08 0.0596157
    outer loop
      vertex -0.00790596 30 2.10243
      vertex -0.0289537 32 1.75
      vertex -0.0316114 30 1.7055
    endloop
  endfacet
  facet normal -0.998221 0 0.0596155
    outer loop
      vertex -0.0289537 32 1.75
      vertex -0.00790596 30 2.10243
      vertex -0.00790596 32 2.10243
    endloop
  endfacet
  facet normal -0.999802 0 0.0198818
    outer loop
      vertex -0.00790596 30 2.10243
      vertex 0 32 2.5
      vertex -0.00790596 32 2.10243
    endloop
  endfacet
  facet normal -0.999802 0 0.0198818
    outer loop
      vertex 0 32 2.5
      vertex -0.00790596 30 2.10243
      vertex 0 30 2.5
    endloop
  endfacet
  facet normal -0.995062 0 0.0992545
    outer loop
      vertex -0.0710793 30 1.30982
      vertex -0.0316114 40 1.7055
      vertex -0.0710793 40 1.30982
    endloop
  endfacet
  facet normal -0.995062 0 0.0992545
    outer loop
      vertex -0.0316114 40 1.7055
      vertex -0.0710793 30 1.30982
      vertex -0.0316114 30 1.7055
    endloop
  endfacet
  facet normal -0.976177 0 0.216978
    outer loop
      vertex -0.283306 30 0.136555
      vertex -0.197026 40 0.524726
      vertex -0.283306 40 0.136555
    endloop
  endfacet
  facet normal -0.976177 0 0.216978
    outer loop
      vertex -0.197026 40 0.524726
      vertex -0.283306 30 0.136555
      vertex -0.197026 30 0.524726
    endloop
  endfacet
  facet normal -0.998221 -0 -0.0596141
    outer loop
      vertex -0.00790596 32 2.89756
      vertex -0.00790596 30 2.89756
      vertex -0.0289538 32 3.25
    endloop
  endfacet
  facet normal -0.998221 0 -0.0596151
    outer loop
      vertex -0.0289538 32 3.25
      vertex -0.0316114 40 3.2945
      vertex -0.0289538 40 3.25
    endloop
  endfacet
  facet normal -0.998221 0 -0.0596151
    outer loop
      vertex -0.0289538 32 3.25
      vertex -0.0316114 30 3.2945
      vertex -0.0316114 40 3.2945
    endloop
  endfacet
  facet normal -0.998221 1.96959e-08 -0.0596142
    outer loop
      vertex -0.0316114 30 3.2945
      vertex -0.0289538 32 3.25
      vertex -0.00790596 30 2.89756
    endloop
  endfacet
  facet normal -0.999802 0 -0.0198823
    outer loop
      vertex 0 30 2.5
      vertex -0.00790596 32 2.89756
      vertex 0 32 2.5
    endloop
  endfacet
  facet normal -0.999802 -0 -0.0198823
    outer loop
      vertex -0.00790596 32 2.89756
      vertex 0 30 2.5
      vertex -0.00790596 30 2.89756
    endloop
  endfacet
  facet normal -0.995062 0 -0.0992545
    outer loop
      vertex -0.0316114 30 3.2945
      vertex -0.0710793 40 3.69018
      vertex -0.0316114 40 3.2945
    endloop
  endfacet
  facet normal -0.995062 -0 -0.0992545
    outer loop
      vertex -0.0710793 40 3.69018
      vertex -0.0316114 30 3.2945
      vertex -0.0710793 30 3.69018
    endloop
  endfacet
  facet normal -0.984031 0 0.177999
    outer loop
      vertex -0.197026 30 0.524726
      vertex -0.126246 40 0.916019
      vertex -0.197026 40 0.524726
    endloop
  endfacet
  facet normal -0.984031 0 0.177999
    outer loop
      vertex -0.126246 40 0.916019
      vertex -0.197026 30 0.524726
      vertex -0.126246 30 0.916019
    endloop
  endfacet
  facet normal -0.98403 0 -0.178
    outer loop
      vertex -0.126246 30 4.08398
      vertex -0.197026 40 4.47527
      vertex -0.126246 40 4.08398
    endloop
  endfacet
  facet normal -0.98403 -0 -0.178
    outer loop
      vertex -0.197026 40 4.47527
      vertex -0.126246 30 4.08398
      vertex -0.197026 30 4.47527
    endloop
  endfacet
  facet normal -0.99033 0 0.138733
    outer loop
      vertex -0.126246 30 0.916019
      vertex -0.0710793 40 1.30982
      vertex -0.126246 40 0.916019
    endloop
  endfacet
  facet normal -0.99033 0 0.138733
    outer loop
      vertex -0.0710793 40 1.30982
      vertex -0.126246 30 0.916019
      vertex -0.0710793 30 1.30982
    endloop
  endfacet
  facet normal -0.976176 0 -0.216978
    outer loop
      vertex -0.197026 30 4.47527
      vertex -0.283306 40 4.86344
      vertex -0.197026 40 4.47527
    endloop
  endfacet
  facet normal -0.976176 -0 -0.216978
    outer loop
      vertex -0.283306 40 4.86344
      vertex -0.197026 30 4.47527
      vertex -0.283306 30 4.86344
    endloop
  endfacet
  facet normal -0.966779 0 0.255615
    outer loop
      vertex -0.319411 30 0
      vertex -0.283306 40 0.136555
      vertex -0.319411 40 0
    endloop
  endfacet
  facet normal -0.966779 0 0.255615
    outer loop
      vertex -0.283306 40 0.136555
      vertex -0.319411 30 0
      vertex -0.283306 30 0.136555
    endloop
  endfacet
  facet normal -0.966779 0 -0.255613
    outer loop
      vertex -0.283306 30 4.86344
      vertex -0.319412 40 5
      vertex -0.283306 40 4.86344
    endloop
  endfacet
  facet normal -0.966779 -0 -0.255613
    outer loop
      vertex -0.319412 40 5
      vertex -0.283306 30 4.86344
      vertex -0.319412 30 5
    endloop
  endfacet
  facet normal 0.138648 0.990342 -0
    outer loop
      vertex 100 26 0
      vertex 0.00999928 39.9986 5
      vertex 100 26 5
    endloop
  endfacet
  facet normal 0.138648 0.990342 0
    outer loop
      vertex 0.00999928 39.9986 5
      vertex 100 26 0
      vertex 0.00999928 39.9986 0
    endloop
  endfacet
  facet normal -0.05547 -0.99846 0
    outer loop
      vertex 0 30 2.5
      vertex 90 25 5
      vertex 0 30 5
    endloop
  endfacet
  facet normal -0.05547 -0.99846 0
    outer loop
      vertex 90 25 0
      vertex 0 30 2.5
      vertex 0 30 0
    endloop
  endfacet
  facet normal -0.05547 -0.99846 0
    outer loop
      vertex 0 30 2.5
      vertex 90 25 0
      vertex 90 25 5
    endloop
  endfacet
  facet normal 0 -1 0
    outer loop
      vertex 90 25 0
      vertex 100 25 5
      vertex 90 25 5
    endloop
  endfacet
  facet normal 0 -1 -0
    outer loop
      vertex 100 25 5
      vertex 90 25 0
      vertex 100 25 0
    endloop
  endfacet
  facet normal 1 -0 0
    outer loop
      vertex 100 25 5
      vertex 100 26 0
      vertex 100 26 5
    endloop
  endfacet
  facet normal 1 0 0
    outer loop
      vertex 100 26 0
      vertex 100 25 5
      vertex 100 25 0
    endloop
  endfacet
  facet normal 0.0554702 0.99846 -0
    outer loop
      vertex 90.0277 26 0
      vertex 1 30.946 5
      vertex 90.0277 26 5
    endloop
  endfacet
  facet normal 0.0554702 0.99846 0
    outer loop
      vertex 1 30.946 5
      vertex 90.0277 26 0
      vertex 1 30.946 0
    endloop
  endfacet
  facet normal 1 -0 0
    outer loop
      vertex 1 30.946 5
      vertex 1 38.8503 0
      vertex 1 38.8503 5
    endloop
  endfacet
  facet normal 1 0 0
    outer loop
      vertex 1 38.8503 0
      vertex 1 30.946 5
      vertex 1 30.946 0
    endloop
  endfacet
  facet normal -0.138648 -0.990342 0
    outer loop
      vertex 1 38.8503 0
      vertex 92.7875 26 5
      vertex 1 38.8503 5
    endloop
  endfacet
  facet normal -0.138648 -0.990342 -0
    outer loop
      vertex 92.7875 26 5
      vertex 1 38.8503 0
      vertex 92.7875 26 0
    endloop
  endfacet
  facet normal 0 1 -0
    outer loop
      vertex 92.7875 26 0
      vertex 90.0277 26 5
      vertex 92.7875 26 5
    endloop
  endfacet
  facet normal 0 1 0
    outer loop
      vertex 90.0277 26 5
      vertex 92.7875 26 0
      vertex 90.0277 26 0
    endloop
  endfacet
  facet normal 1 -0 0
    outer loop
      vertex 0.00999928 69.9986 5
      vertex 0.00999928 70 0
      vertex 0.00999928 70 5
    endloop
  endfacet
  facet normal 1 0 0
    outer loop
      vertex 0.00999928 70 0
      vertex 0.00999928 69.9986 5
      vertex 0.00999928 69.9986 0
    endloop
  endfacet
  facet normal 0 1 0
    outer loop
      vertex 0.00999928 70 5
      vertex -0.283306 70 4.86344
      vertex -0.319412 70 5
    endloop
  endfacet
  facet normal 0 1 0
    outer loop
      vertex 0.00999928 70 5
      vertex -0.197026 70 4.47527
      vertex -0.283306 70 4.86344
    endloop
  endfacet
  facet normal 0 1 0
    outer loop
      vertex 0.00999928 70 5
      vertex -0.126246 70 4.08398
      vertex -0.197026 70 4.47527
    endloop
  endfacet
  facet normal 0 1 0
    outer loop
      vertex 0.00999928 70 5
      vertex -0.0710793 70 3.69018
      vertex -0.126246 70 4.08398
    endloop
  endfacet
  facet normal 0 1 0
    outer loop
      vertex 0.00999928 70 5
      vertex -0.0316114 70 3.2945
      vertex -0.0710793 70 3.69018
    endloop
  endfacet
  facet normal 0 1 0
    outer loop
      vertex 0.00999928 70 5
      vertex -0.0289538 70 3.25
      vertex -0.0316114 70 3.2945
    endloop
  endfacet
  facet normal 0 1 0
    outer loop
      vertex -0.0289538 70 3.25
      vertex -0.0289537 70 1.75
      vertex -4.25 70 3.25
    endloop
  endfacet
  facet normal 0 1 0
    outer loop
      vertex 0.00999928 70 5
      vertex -0.0289537 70 1.75
      vertex -0.0289538 70 3.25
    endloop
  endfacet
  facet normal 0 1 -0
    outer loop
      vertex 0.00999928 70 0
      vertex -0.0289537 70 1.75
      vertex 0.00999928 70 5
    endloop
  endfacet
  facet normal 0 1 0
    outer loop
      vertex 0.00999928 70 0
      vertex -0.0316114 70 1.7055
      vertex -0.0289537 70 1.75
    endloop
  endfacet
  facet normal 0 1 0
    outer loop
      vertex 0.00999928 70 0
      vertex -0.0710793 70 1.30982
      vertex -0.0316114 70 1.7055
    endloop
  endfacet
  facet normal 0 1 0
    outer loop
      vertex 0.00999928 70 0
      vertex -0.126246 70 0.916019
      vertex -0.0710793 70 1.30982
    endloop
  endfacet
  facet normal 0 1 0
    outer loop
      vertex 0.00999928 70 0
      vertex -0.197026 70 0.524726
      vertex -0.126246 70 0.916019
    endloop
  endfacet
  facet normal 0 1 0
    outer loop
      vertex 0.00999928 70 0
      vertex -0.283306 70 0.136555
      vertex -0.197026 70 0.524726
    endloop
  endfacet
  facet normal 0 1 0
    outer loop
      vertex -0.283306 70 0.136555
      vertex 0.00999928 70 0
      vertex -0.319411 70 0
    endloop
  endfacet
  facet normal 0 1 0
    outer loop
      vertex -4.25 70 4.625
      vertex -5.375 70 5
      vertex -4.625 70 5
    endloop
  endfacet
  facet normal 0 1 0
    outer loop
      vertex -4.25 70 4.625
      vertex -5.75 70 4.625
      vertex -5.375 70 5
    endloop
  endfacet
  facet normal 0 1 -0
    outer loop
      vertex -4.25 70 3.25
      vertex -5.75 70 4.625
      vertex -4.25 70 4.625
    endloop
  endfacet
  facet normal 0 1 0
    outer loop
      vertex -4.25 70 1.75
      vertex -4.25 70 3.25
      vertex -0.0289537 70 1.75
    endloop
  endfacet
  facet normal 0 1 -0
    outer loop
      vertex -4.25 70 1.75
      vertex -5.75 70 4.625
      vertex -4.25 70 3.25
    endloop
  endfacet
  facet normal 0 1 0
    outer loop
      vertex -5.75 70 0.375
      vertex -4.25 70 1.75
      vertex -4.25 70 0.375
    endloop
  endfacet
  facet normal 0 1 0
    outer loop
      vertex -4.25 70 1.75
      vertex -5.75 70 0.375
      vertex -5.75 70 4.625
    endloop
  endfacet
  facet normal 0 1 -0
    outer loop
      vertex -4.625 70 0
      vertex -5.75 70 0.375
      vertex -4.25 70 0.375
    endloop
  endfacet
  facet normal 0 1 0
    outer loop
      vertex -5.75 70 0.375
      vertex -4.625 70 0
      vertex -5.375 70 0
    endloop
  endfacet
  facet normal 0 -1 0
    outer loop
      vertex -5.75 62 4.625
      vertex -4.625 62 5
      vertex -5.375 62 5
    endloop
  endfacet
  facet normal 0 -1 0
    outer loop
      vertex -5.75 62 4.625
      vertex -4.25 62 4.625
      vertex -4.625 62 5
    endloop
  endfacet
  facet normal 0 -1 0
    outer loop
      vertex -5.75 62 4.625
      vertex -4.25 62 3.25
      vertex -4.25 62 4.625
    endloop
  endfacet
  facet normal 0 -1 0
    outer loop
      vertex -4.25 62 3.25
      vertex -0.00790596 62 2.89756
      vertex -0.0289538 62 3.25
    endloop
  endfacet
  facet normal 0 -1 0
    outer loop
      vertex -4.25 62 3.25
      vertex 0 62 2.5
      vertex -0.00790596 62 2.89756
    endloop
  endfacet
  facet normal 0 -1 0
    outer loop
      vertex -4.25 62 1.75
      vertex 0 62 2.5
      vertex -4.25 62 3.25
    endloop
  endfacet
  facet normal 0 -1 0
    outer loop
      vertex 0 62 2.5
      vertex -4.25 62 1.75
      vertex -0.00790596 62 2.10243
    endloop
  endfacet
  facet normal 0 -1 0
    outer loop
      vertex -5.75 62 4.625
      vertex -4.25 62 1.75
      vertex -4.25 62 3.25
    endloop
  endfacet
  facet normal 0 -1 0
    outer loop
      vertex -5.75 62 0.375
      vertex -4.25 62 1.75
      vertex -5.75 62 4.625
    endloop
  endfacet
  facet normal 0 -1 0
    outer loop
      vertex -5.75 62 0.375
      vertex -4.25 62 0.375
      vertex -4.25 62 1.75
    endloop
  endfacet
  facet normal 0 -1 0
    outer loop
      vertex -5.375 62 0
      vertex -4.25 62 0.375
      vertex -5.75 62 0.375
    endloop
  endfacet
  facet normal 0 -1 0
    outer loop
      vertex -4.25 62 0.375
      vertex -5.375 62 0
      vertex -4.625 62 0
    endloop
  endfacet
  facet normal 0 -1 0
    outer loop
      vertex -0.00790596 62 2.10243
      vertex -4.25 62 1.75
      vertex -0.0289537 62 1.75
    endloop
  endfacet
  facet normal 0 0 -1
    outer loop
      vertex -4.25 62 1.75
      vertex -0.0289537 70 1.75
      vertex -0.0289537 62 1.75
    endloop
  endfacet
  facet normal -0 0 -1
    outer loop
      vertex -0.0289537 70 1.75
      vertex -4.25 62 1.75
      vertex -4.25 70 1.75
    endloop
  endfacet
  facet normal -0 0 1
    outer loop
      vertex -4.25 70 3.25
      vertex -0.0289538 62 3.25
      vertex -0.0289538 70 3.25
    endloop
  endfacet
  facet normal 0 0 1
    outer loop
      vertex -0.0289538 62 3.25
      vertex -4.25 70 3.25
      vertex -4.25 62 3.25
    endloop
  endfacet
  facet normal -1 0 0
    outer loop
      vertex -5.75 62 0.375
      vertex -5.75 70 4.625
      vertex -5.75 70 0.375
    endloop
  endfacet
  facet normal -1 -0 0
    outer loop
      vertex -5.75 70 4.625
      vertex -5.75 62 0.375
      vertex -5.75 62 4.625
    endloop
  endfacet
  facet normal 0.707107 -0 0.707107
    outer loop
      vertex -4.625 62 5
      vertex -4.25 70 4.625
      vertex -4.625 70 5
    endloop
  endfacet
  facet normal 0.707107 0 0.707107
    outer loop
      vertex -4.25 70 4.625
      vertex -4.625 62 5
      vertex -4.25 62 4.625
    endloop
  endfacet
  facet normal 1 -0 0
    outer loop
      vertex -4.25 62 1.75
      vertex -4.25 70 0.375
      vertex -4.25 70 1.75
    endloop
  endfacet
  facet normal 1 0 0
    outer loop
      vertex -4.25 70 0.375
      vertex -4.25 62 1.75
      vertex -4.25 62 0.375
    endloop
  endfacet
  facet normal 1 -0 0
    outer loop
      vertex -4.25 62 4.625
      vertex -4.25 70 3.25
      vertex -4.25 70 4.625
    endloop
  endfacet
  facet normal 1 0 0
    outer loop
      vertex -4.25 70 3.25
      vertex -4.25 62 4.625
      vertex -4.25 62 3.25
    endloop
  endfacet
  facet normal -0.707107 0 0.707107
    outer loop
      vertex -5.75 62 4.625
      vertex -5.375 70 5
      vertex -5.75 70 4.625
    endloop
  endfacet
  facet normal -0.707107 0 0.707107
    outer loop
      vertex -5.375 70 5
      vertex -5.75 62 4.625
      vertex -5.375 62 5
    endloop
  endfacet
  facet normal -0.707107 0 -0.707107
    outer loop
      vertex -5.375 62 0
      vertex -5.75 70 0.375
      vertex -5.375 70 0
    endloop
  endfacet
  facet normal -0.707107 -0 -0.707107
    outer loop
      vertex -5.75 70 0.375
      vertex -5.375 62 0
      vertex -5.75 62 0.375
    endloop
  endfacet
  facet normal -0 0 1
    outer loop
      vertex -5.375 70 5
      vertex -4.625 62 5
      vertex -4.625 70 5
    endloop
  endfacet
  facet normal 0 0 1
    outer loop
      vertex -4.625 62 5
      vertex -5.375 70 5
      vertex -5.375 62 5
    endloop
  endfacet
  facet normal 0.707107 0 -0.707107
    outer loop
      vertex -4.25 62 0.375
      vertex -4.625 70 0
      vertex -4.25 70 0.375
    endloop
  endfacet
  facet normal 0.707107 0 -0.707107
    outer loop
      vertex -4.625 70 0
      vertex -4.25 62 0.375
      vertex -4.625 62 0
    endloop
  endfacet
  facet normal 0 0 -1
    outer loop
      vertex -5.375 62 0
      vertex -4.625 70 0
      vertex -4.625 62 0
    endloop
  endfacet
  facet normal -0 0 -1
    outer loop
      vertex -4.625 70 0
      vertex -5.375 62 0
      vertex -5.375 70 0
    endloop
  endfacet
  facet normal -0 0 1
    outer loop
      vertex -0.319412 70 5
      vertex 0.00999928 69.9986 5
      vertex 0.00999928 70 5
    endloop
  endfacet
  facet normal 0 0 1
    outer loop
      vertex 0.00999928 69.9986 5
      vertex -0.319412 70 5
      vertex 0 60 5
    endloop
  endfacet
  facet normal 0 0 1
    outer loop
      vertex 0 60 5
      vertex -0.319412 70 5
      vertex -0.319412 60 5
    endloop
  endfacet
  facet normal 0 0 1
    outer loop
      vertex 100 56 5
      vertex 92.7875 56 5
      vertex 100 55 5
    endloop
  endfacet
  facet normal 0 0 1
    outer loop
      vertex 0.00999928 69.9986 5
      vertex 92.7875 56 5
      vertex 100 56 5
    endloop
  endfacet
  facet normal 0 0 1
    outer loop
      vertex 0 60 5
      vertex 1 68.8503 5
      vertex 0.00999928 69.9986 5
    endloop
  endfacet
  facet normal 0 0 1
    outer loop
      vertex 92.7875 56 5
      vertex 0.00999928 69.9986 5
      vertex 1 68.8503 5
    endloop
  endfacet
  facet normal 0 0 1
    outer loop
      vertex 90 55 5
      vertex 92.7875 56 5
      vertex 90.0277 56 5
    endloop
  endfacet
  facet normal 0 0 1
    outer loop
      vertex 92.7875 56 5
      vertex 90 55 5
      vertex 100 55 5
    endloop
  endfacet
  facet normal 0 0 1
    outer loop
      vertex 1 60.946 5
      vertex 90 55 5
      vertex 90.0277 56 5
    endloop
  endfacet
  facet normal 0 0 1
    outer loop
      vertex 1 60.946 5
      vertex 0 60 5
      vertex 90 55 5
    endloop
  endfacet
  facet normal 0 0 1
    outer loop
      vertex 1 68.8503 5
      vertex 0 60 5
      vertex 1 60.946 5
    endloop
  endfacet
  facet normal 0 0 -1
    outer loop
      vertex 100 55 0
      vertex 92.7875 56 0
      vertex 100 56 0
    endloop
  endfacet
  facet normal 0 0 -1
    outer loop
      vertex 90 55 0
      vertex 92.7875 56 0
      vertex 100 55 0
    endloop
  endfacet
  facet normal -0 0 -1
    outer loop
      vertex 92.7875 56 0
      vertex 90 55 0
      vertex 90.0277 56 0
    endloop
  endfacet
  facet normal 0 0 -1
    outer loop
      vertex 90 55 0
      vertex 1 60.946 0
      vertex 90.0277 56 0
    endloop
  endfacet
  facet normal 0 0 -1
    outer loop
      vertex -0.319411 60 0
      vertex 1 68.8503 0
      vertex 1 60.946 0
    endloop
  endfacet
  facet normal 0 0 -1
    outer loop
      vertex 0 60 0
      vertex 1 60.946 0
      vertex 90 55 0
    endloop
  endfacet
  facet normal 0 0 -1
    outer loop
      vertex -0.319411 60 0
      vertex 1 60.946 0
      vertex 0 60 0
    endloop
  endfacet
  facet normal -0 0 -1
    outer loop
      vertex 1 68.8503 0
      vertex -0.319411 60 0
      vertex -0.319411 70 0
    endloop
  endfacet
  facet normal 0 0 -1
    outer loop
      vertex 1 68.8503 0
      vertex -0.319411 70 0
      vertex 0.00999928 69.9986 0
    endloop
  endfacet
  facet normal 0 0 -1
    outer loop
      vertex 0.00999928 69.9986 0
      vertex -0.319411 70 0
      vertex 0.00999928 70 0
    endloop
  endfacet
  facet normal 0 0 -1
    outer loop
      vertex 0.00999928 69.9986 0
      vertex 92.7875 56 0
      vertex 1 68.8503 0
    endloop
  endfacet
  facet normal 0 0 -1
    outer loop
      vertex 92.7875 56 0
      vertex 0.00999928 69.9986 0
      vertex 100 56 0
    endloop
  endfacet
  facet normal 0 -1 0
    outer loop
      vertex -0.00790596 60 2.10243
      vertex 0 60 0
      vertex 0 60 2.5
    endloop
  endfacet
  facet normal 0 -1 0
    outer loop
      vertex -0.0316114 60 1.7055
      vertex 0 60 0
      vertex -0.00790596 60 2.10243
    endloop
  endfacet
  facet normal 0 -1 0
    outer loop
      vertex -0.0710793 60 1.30982
      vertex 0 60 0
      vertex -0.0316114 60 1.7055
    endloop
  endfacet
  facet normal 0 -1 0
    outer loop
      vertex -0.126246 60 0.916019
      vertex 0 60 0
      vertex -0.0710793 60 1.30982
    endloop
  endfacet
  facet normal 0 -1 0
    outer loop
      vertex -0.197026 60 0.524726
      vertex 0 60 0
      vertex -0.126246 60 0.916019
    endloop
  endfacet
  facet normal 0 -1 0
    outer loop
      vertex -0.283306 60 0.136555
      vertex 0 60 0
      vertex -0.197026 60 0.524726
    endloop
  endfacet
  facet normal 0 -1 0
    outer loop
      vertex 0 60 0
      vertex -0.283306 60 0.136555
      vertex -0.319411 60 0
    endloop
  endfacet
  facet normal 0 -1 0
    outer loop
      vertex -0.283306 60 4.86344
      vertex 0 60 5
      vertex -0.319412 60 5
    endloop
  endfacet
  facet normal 0 -1 0
    outer loop
      vertex -0.197026 60 4.47527
      vertex 0 60 5
      vertex -0.283306 60 4.86344
    endloop
  endfacet
  facet normal 0 -1 0
    outer loop
      vertex -0.126246 60 4.08398
      vertex 0 60 5
      vertex -0.197026 60 4.47527
    endloop
  endfacet
  facet normal 0 -1 0
    outer loop
      vertex -0.0710793 60 3.69018
      vertex 0 60 5
      vertex -0.126246 60 4.08398
    endloop
  endfacet
  facet normal 0 -1 0
    outer loop
      vertex -0.0316114 60 3.2945
      vertex 0 60 5
      vertex -0.0710793 60 3.69018
    endloop
  endfacet
  facet normal 0 -1 0
    outer loop
      vertex -0.00790596 60 2.89756
      vertex 0 60 5
      vertex -0.0316114 60 3.2945
    endloop
  endfacet
  facet normal 0 -1 -0
    outer loop
      vertex 0 60 5
      vertex -0.00790596 60 2.89756
      vertex 0 60 2.5
    endloop
  endfacet
  facet normal -0.99033 0 -0.138733
    outer loop
      vertex -0.0710793 60 3.69018
      vertex -0.126246 70 4.08398
      vertex -0.0710793 70 3.69018
    endloop
  endfacet
  facet normal -0.99033 -0 -0.138733
    outer loop
      vertex -0.126246 70 4.08398
      vertex -0.0710793 60 3.69018
      vertex -0.126246 60 4.08398
    endloop
  endfacet
  facet normal -0.998221 0 0.0596174
    outer loop
      vertex -0.0316114 70 1.7055
      vertex -0.0289537 62 1.75
      vertex -0.0289537 70 1.75
    endloop
  endfacet
  facet normal -0.998221 0 0.0596174
    outer loop
      vertex -0.0316114 60 1.7055
      vertex -0.0289537 62 1.75
      vertex -0.0316114 70 1.7055
    endloop
  endfacet
  facet normal -0.998221 3.619e-08 0.0596157
    outer loop
      vertex -0.00790596 60 2.10243
      vertex -0.0289537 62 1.75
      vertex -0.0316114 60 1.7055
    endloop
  endfacet
  facet normal -0.998221 0 0.0596155
    outer loop
      vertex -0.0289537 62 1.75
      vertex -0.00790596 60 2.10243
      vertex -0.00790596 62 2.10243
    endloop
  endfacet
  facet normal -0.999802 0 0.0198818
    outer loop
      vertex -0.00790596 60 2.10243
      vertex 0 62 2.5
      vertex -0.00790596 62 2.10243
    endloop
  endfacet
  facet normal -0.999802 0 0.0198818
    outer loop
      vertex 0 62 2.5
      vertex -0.00790596 60 2.10243
      vertex 0 60 2.5
    endloop
  endfacet
  facet normal -0.995062 0 0.0992545
    outer loop
      vertex -0.0710793 60 1.30982
      vertex -0.0316114 70 1.7055
      vertex -0.0710793 70 1.30982
    endloop
  endfacet
  facet normal -0.995062 0 0.0992545
    outer loop
      vertex -0.0316114 70 1.7055
      vertex -0.0710793 60 1.30982
      vertex -0.0316114 60 1.7055
    endloop
  endfacet
  facet normal -0.976177 0 0.216978
    outer loop
      vertex -0.283306 60 0.136555
      vertex -0.197026 70 0.524726
      vertex -0.283306 70 0.136555
    endloop
  endfacet
  facet normal -0.976177 0 0.216978
    outer loop
      vertex -0.197026 70 0.524726
      vertex -0.283306 60 0.136555
      vertex -0.197026 60 0.524726
    endloop
  endfacet
  facet normal -0.998221 -0 -0.0596141
    outer loop
      vertex -0.00790596 62 2.89756
      vertex -0.00790596 60 2.89756
      vertex -0.0289538 62 3.25
    endloop
  endfacet
  facet normal -0.998221 0 -0.0596151
    outer loop
      vertex -0.0289538 62 3.25
      vertex -0.0316114 70 3.2945
      vertex -0.0289538 70 3.25
    endloop
  endfacet
  facet normal -0.998221 0 -0.0596151
    outer loop
      vertex -0.0289538 62 3.25
      vertex -0.0316114 60 3.2945
      vertex -0.0316114 70 3.2945
    endloop
  endfacet
  facet normal -0.998221 1.96959e-08 -0.0596142
    outer loop
      vertex -0.0316114 60 3.2945
      vertex -0.0289538 62 3.25
      vertex -0.00790596 60 2.89756
    endloop
  endfacet
  facet normal -0.999802 0 -0.0198823
    outer loop
      vertex 0 60 2.5
      vertex -0.00790596 62 2.89756
      vertex 0 62 2.5
    endloop
  endfacet
  facet normal -0.999802 -0 -0.0198823
    outer loop
      vertex -0.00790596 62 2.89756
      vertex 0 60 2.5
      vertex -0.00790596 60 2.89756
    endloop
  endfacet
  facet normal -0.995062 0 -0.0992545
    outer loop
      vertex -0.0316114 60 3.2945
      vertex -0.0710793 70 3.69018
      vertex -0.0316114 70 3.2945
    endloop
  endfacet
  facet normal -0.995062 -0 -0.0992545
    outer loop
      vertex -0.0710793 70 3.69018
      vertex -0.0316114 60 3.2945
      vertex -0.0710793 60 3.69018
    endloop
  endfacet
  facet normal -0.984031 0 0.177999
    outer loop
      vertex -0.197026 60 0.524726
      vertex -0.126246 70 0.916019
      vertex -0.197026 70 0.524726
    endloop
  endfacet
  facet normal -0.984031 0 0.177999
    outer loop
      vertex -0.126246 70 0.916019
      vertex -0.197026 60 0.524726
      vertex -0.126246 60 0.916019
    endloop
  endfacet
  facet normal -0.98403 0 -0.178
    outer loop
      vertex -0.126246 60 4.08398
      vertex -0.197026 70 4.47527
      vertex -0.126246 70 4.08398
    endloop
  endfacet
  facet normal -0.98403 -0 -0.178
    outer loop
      vertex -0.197026 70 4.47527
      vertex -0.126246 60 4.08398
      vertex -0.197026 60 4.47527
    endloop
  endfacet
  facet normal -0.99033 0 0.138733
    outer loop
      vertex -0.126246 60 0.916019
      vertex -0.0710793 70 1.30982
      vertex -0.126246 70 0.916019
    endloop
  endfacet
  facet normal -0.99033 0 0.138733
    outer loop
      vertex -0.0710793 70 1.30982
      vertex -0.126246 60 0.916019
      vertex -0.0710793 60 1.30982
    endloop
  endfacet
  facet normal -0.976176 0 -0.216978
    outer loop
      vertex -0.197026 60 4.47527
      vertex -0.283306 70 4.86344
      vertex -0.197026 70 4.47527
    endloop
  endfacet
  facet normal -0.976176 -0 -0.216978
    outer loop
      vertex -0.283306 70 4.86344
      vertex -0.197026 60 4.47527
      vertex -0.283306 60 4.86344
    endloop
  endfacet
  facet normal -0.966779 0 0.255615
    outer loop
      vertex -0.319411 60 0
      vertex -0.283306 70 0.136555
      vertex -0.319411 70 0
    endloop
  endfacet
  facet normal -0.966779 0 0.255615
    outer loop
      vertex -0.283306 70 0.136555
      vertex -0.319411 60 0
      vertex -0.283306 60 0.136555
    endloop
  endfacet
  facet normal -0.966779 0 -0.255613
    outer loop
      vertex -0.283306 60 4.86344
      vertex -0.319412 70 5
      vertex -0.283306 70 4.86344
    endloop
  endfacet
  facet normal -0.966779 -0 -0.255613
    outer loop
      vertex -0.319412 70 5
      vertex -0.283306 60 4.86344
      vertex -0.319412 60 5
    endloop
  endfacet
  facet normal 0.138648 0.990342 -0
    outer loop
      vertex 100 56 0
      vertex 0.00999928 69.9986 5
      vertex 100 56 5
    endloop
  endfacet
  facet normal 0.138648 0.990342 0
    outer loop
      vertex 0.00999928 69.9986 5
      vertex 100 56 0
      vertex 0.00999928 69.9986 0
    endloop
  endfacet
  facet normal -0.05547 -0.99846 0
    outer loop
      vertex 0 60 2.5
      vertex 90 55 5
      vertex 0 60 5
    endloop
  endfacet
  facet normal -0.05547 -0.99846 0
    outer loop
      vertex 90 55 0
      vertex 0 60 2.5
      vertex 0 60 0
    endloop
  endfacet
  facet normal -0.05547 -0.99846 0
    outer loop
      vertex 0 60 2.5
      vertex 90 55 0
      vertex 90 55 5
    endloop
  endfacet
  facet normal 0 -1 0
    outer loop
      vertex 90 55 0
      vertex 100 55 5
      vertex 90 55 5
    endloop
  endfacet
  facet normal 0 -1 -0
    outer loop
      vertex 100 55 5
      vertex 90 55 0
      vertex 100 55 0
    endloop
  endfacet
  facet normal 1 -0 0
    outer loop
      vertex 100 55 5
      vertex 100 56 0
      vertex 100 56 5
    endloop
  endfacet
  facet normal 1 0 0
    outer loop
      vertex 100 56 0
      vertex 100 55 5
      vertex 100 55 0
    endloop
  endfacet
  facet normal 0.0554702 0.99846 -0
    outer loop
      vertex 90.0277 56 0
      vertex 1 60.946 5
      vertex 90.0277 56 5
    endloop
  endfacet
  facet normal 0.0554702 0.99846 0
    outer loop
      vertex 1 60.946 5
      vertex 90.0277 56 0
      vertex 1 60.946 0
    endloop
  endfacet
  facet normal 1 -0 0
    outer loop
      vertex 1 60.946 5
      vertex 1 68.8503 0
      vertex 1 68.8503 5
    endloop
  endfacet
  facet normal 1 0 0
    outer loop
      vertex 1 68.8503 0
      vertex 1 60.946 5
      vertex 1 60.946 0
    endloop
  endfacet
  facet normal -0.138648 -0.990342 0
    outer loop
      vertex 1 68.8503 0
      vertex 92.7875 56 5
      vertex 1 68.8503 5
    endloop
  endfacet
  facet normal -0.138648 -0.990342 -0
    outer loop
      vertex 92.7875 56 5
      vertex 1 68.8503 0
      vertex 92.7875 56 0
    endloop
  endfacet
  facet normal 0 1 -0
    outer loop
      vertex 92.7875 56 0
      vertex 90.0277 56 5
      vertex 92.7875 56 5
    endloop
  endfacet
  facet normal 0 1 0
    outer loop
      vertex 90.0277 56 5
      vertex 92.7875 56 0
      vertex 90.0277 56 0
    endloop
  endfacet
endsolid OpenSCAD_Model
