solid OpenSCAD_Model
  facet normal 0 -0 -1
    outer loop
      vertex 5.325 9.22316 0
      vertex 5.64999 0 0
      vertex 2.825 4.89304 0
    endloop
  endfacet
  facet normal -0 0 -1
    outer loop
      vertex 2.825 -4.89304 0
      vertex -5.325 -9.22316 0
      vertex -2.825 -4.89304 0
    endloop
  endfacet
  facet normal -0 0 -1
    outer loop
      vertex 10.65 0 0
      vertex 5.325 -9.22316 0
      vertex 5.64999 0 0
    endloop
  endfacet
  facet normal 0 -0 -1
    outer loop
      vertex 2.825 -4.89304 0
      vertex 5.325 -9.22316 0
      vertex -5.325 -9.22316 0
    endloop
  endfacet
  facet normal -0 0 -1
    outer loop
      vertex -2.825 -4.89304 0
      vertex -5.325 -9.22316 0
      vertex -5.64999 0 0
    endloop
  endfacet
  facet normal 0 0 -1
    outer loop
      vertex -5.325 9.22316 0
      vertex -5.64999 0 0
      vertex -10.65 0 0
    endloop
  endfacet
  facet normal -0 -0 -1
    outer loop
      vertex -5.64999 0 0
      vertex -5.325 -9.22316 0
      vertex -10.65 0 0
    endloop
  endfacet
  facet normal 0 0 -1
    outer loop
      vertex 2.825 4.89304 0
      vertex -2.825 4.89304 0
      vertex -5.325 9.22316 0
    endloop
  endfacet
  facet normal -0 0 -1
    outer loop
      vertex -2.825 4.89304 0
      vertex -5.64999 0 0
      vertex -5.325 9.22316 0
    endloop
  endfacet
  facet normal 0 0 -1
    outer loop
      vertex 2.825 4.89304 0
      vertex -5.325 9.22316 0
      vertex 5.325 9.22316 0
    endloop
  endfacet
  facet normal 0 0 -1
    outer loop
      vertex 2.825 -4.89304 0
      vertex 5.64999 0 0
      vertex 5.325 -9.22316 0
    endloop
  endfacet
  facet normal 0 0 -1
    outer loop
      vertex 5.64999 0 0
      vertex 5.325 9.22316 0
      vertex 10.65 0 0
    endloop
  endfacet
  facet normal -0 0 1
    outer loop
      vertex 2.825 4.89304 20
      vertex 5.64999 0 20
      vertex 5.325 9.22316 20
    endloop
  endfacet
  facet normal -0 0 1
    outer loop
      vertex -2.825 -4.89304 20
      vertex -5.325 -9.22316 20
      vertex 2.825 -4.89304 20
    endloop
  endfacet
  facet normal -0 0 1
    outer loop
      vertex 5.64999 0 20
      vertex 5.325 -9.22316 20
      vertex 10.65 0 20
    endloop
  endfacet
  facet normal 0 0 1
    outer loop
      vertex -5.325 -9.22316 20
      vertex 5.325 -9.22316 20
      vertex 2.825 -4.89304 20
    endloop
  endfacet
  facet normal 0 0 1
    outer loop
      vertex -5.64999 0 20
      vertex -5.325 -9.22316 20
      vertex -2.825 -4.89304 20
    endloop
  endfacet
  facet normal 0 0 1
    outer loop
      vertex -10.65 0 20
      vertex -5.64999 0 20
      vertex -5.325 9.22316 20
    endloop
  endfacet
  facet normal -0 0 1
    outer loop
      vertex -10.65 0 20
      vertex -5.325 -9.22316 20
      vertex -5.64999 0 20
    endloop
  endfacet
  facet normal 0 0 1
    outer loop
      vertex -5.325 9.22316 20
      vertex -2.825 4.89304 20
      vertex 2.825 4.89304 20
    endloop
  endfacet
  facet normal 0 0 1
    outer loop
      vertex -5.325 9.22316 20
      vertex -5.64999 0 20
      vertex -2.825 4.89304 20
    endloop
  endfacet
  facet normal 0 0 1
    outer loop
      vertex 5.325 9.22316 20
      vertex -5.325 9.22316 20
      vertex 2.825 4.89304 20
    endloop
  endfacet
  facet normal 0 -0 1
    outer loop
      vertex 5.325 -9.22316 20
      vertex 5.64999 0 20
      vertex 2.825 -4.89304 20
    endloop
  endfacet
  facet normal 0 0 1
    outer loop
      vertex 10.65 0 20
      vertex 5.325 9.22316 20
      vertex 5.64999 0 20
    endloop
  endfacet
  facet normal 0.866025 0.5 0
    outer loop
      vertex 5.325 9.22316 0
      vertex 10.65 0 20
      vertex 10.65 0 0
    endloop
  endfacet
  facet normal 0.866025 0.5 -0
    outer loop
      vertex 5.325 9.22316 0
      vertex 5.325 9.22316 20
      vertex 10.65 0 20
    endloop
  endfacet
  facet normal 0 1 0
    outer loop
      vertex -5.325 9.22316 0
      vertex 5.325 9.22316 20
      vertex 5.325 9.22316 0
    endloop
  endfacet
  facet normal 0 1 0
    outer loop
      vertex -5.325 9.22316 0
      vertex -5.325 9.22316 20
      vertex 5.325 9.22316 20
    endloop
  endfacet
  facet normal -0.866025 0.5 0
    outer loop
      vertex -10.65 0 0
      vertex -5.325 9.22316 20
      vertex -5.325 9.22316 0
    endloop
  endfacet
  facet normal -0.866025 0.5 0
    outer loop
      vertex -10.65 0 0
      vertex -10.65 0 20
      vertex -5.325 9.22316 20
    endloop
  endfacet
  facet normal -0.866025 -0.5 0
    outer loop
      vertex -5.325 -9.22316 0
      vertex -10.65 0 20
      vertex -10.65 0 0
    endloop
  endfacet
  facet normal -0.866025 -0.5 0
    outer loop
      vertex -5.325 -9.22316 0
      vertex -5.325 -9.22316 20
      vertex -10.65 0 20
    endloop
  endfacet
  facet normal 0 -1 0
    outer loop
      vertex 5.325 -9.22316 0
      vertex -5.325 -9.22316 20
      vertex -5.325 -9.22316 0
    endloop
  endfacet
  facet normal 0 -1 0
    outer loop
      vertex 5.325 -9.22316 0
      vertex 5.325 -9.22316 20
      vertex -5.325 -9.22316 20
    endloop
  endfacet
  facet normal 0.866025 -0.5 0
    outer loop
      vertex 10.65 0 0
      vertex 5.325 -9.22316 20
      vertex 5.325 -9.22316 0
    endloop
  endfacet
  facet normal 0.866025 -0.5 0
    outer loop
      vertex 10.65 0 0
      vertex 10.65 0 20
      vertex 5.325 -9.22316 20
    endloop
  endfacet
  facet normal 0.866026 0.499999 -0
    outer loop
      vertex -5.64999 0 0
      vertex -5.64999 0 20
      vertex -2.825 -4.89304 0
    endloop
  endfacet
  facet normal 0.866026 0.499999 0
    outer loop
      vertex -2.825 -4.89304 20
      vertex -2.825 -4.89304 0
      vertex -5.64999 0 20
    endloop
  endfacet
  facet normal 0.866026 -0.499999 0
    outer loop
      vertex -2.825 4.89304 0
      vertex -2.825 4.89304 20
      vertex -5.64999 0 0
    endloop
  endfacet
  facet normal 0.866026 -0.499999 0
    outer loop
      vertex -5.64999 0 20
      vertex -5.64999 0 0
      vertex -2.825 4.89304 20
    endloop
  endfacet
  facet normal 0 -1 0
    outer loop
      vertex 2.825 4.89304 0
      vertex 2.825 4.89304 20
      vertex -2.825 4.89304 0
    endloop
  endfacet
  facet normal 0 -1 0
    outer loop
      vertex -2.825 4.89304 20
      vertex -2.825 4.89304 0
      vertex 2.825 4.89304 20
    endloop
  endfacet
  facet normal -0.866026 -0.499999 0
    outer loop
      vertex 5.64999 0 0
      vertex 5.64999 0 20
      vertex 2.825 4.89304 0
    endloop
  endfacet
  facet normal -0.866026 -0.499999 -0
    outer loop
      vertex 2.825 4.89304 20
      vertex 2.825 4.89304 0
      vertex 5.64999 0 20
    endloop
  endfacet
  facet normal -0.866026 0.499999 0
    outer loop
      vertex 2.825 -4.89304 0
      vertex 2.825 -4.89304 20
      vertex 5.64999 0 0
    endloop
  endfacet
  facet normal -0.866026 0.499999 0
    outer loop
      vertex 5.64999 0 20
      vertex 5.64999 0 0
      vertex 2.825 -4.89304 20
    endloop
  endfacet
  facet normal 0 1 0
    outer loop
      vertex -2.825 -4.89304 0
      vertex -2.825 -4.89304 20
      vertex 2.825 -4.89304 0
    endloop
  endfacet
  facet normal 0 1 0
    outer loop
      vertex 2.825 -4.89304 20
      vertex 2.825 -4.89304 0
      vertex -2.825 -4.89304 20
    endloop
  endfacet
endsolid OpenSCAD_Model
