<?xml version="1.0" standalone="no"?>
<!DOCTYPE svg PUBLIC "-//W3C//DTD SVG 1.1//EN" "http://www.w3.org/Graphics/SVG/1.1/DTD/svg11.dtd">
<svg width="76mm" height="34mm" viewBox="-38 -17 76 34" xmlns="http://www.w3.org/2000/svg" version="1.1">
<title>OpenSCAD Model</title>
<path d="
M -37.4789,-7.72419 L -37.4777,-7.69858 L -37.4761,-7.68556 L -37.4737,-7.67247 L -37.4707,-7.65938 L -37.4668,-7.64633
 L -37.4623,-7.63339 L -37.4569,-7.62062 L -37.4509,-7.60809 L -37.4441,-7.59587 L -37.4366,-7.584 L -37.4285,-7.57255
 L -37.4197,-7.56158 L -37.4103,-7.55114 L -37.4004,-7.54127 L -37.39,-7.532 L -37.3792,-7.52339 L -37.368,-7.51544
 L -37.3565,-7.50819 L -37.3448,-7.50164 L -37.3328,-7.49579 L -37.3207,-7.49066 L -37.2964,-7.48248 L -37.2723,-7.47697
 L -37.2486,-7.47396 L -35.1519,-7.30843 L -34.6651,-6.27113 L -33.3987,-7.68414 L -32.4812,-6.28526 L -31.3679,-7.53322
 L -30.5499,-6.35812 L -29.5476,-7.53363 L -28.5766,-6.52358 L -27.5819,-7.90359 L -26.3696,-7.13018 L -25.7646,-8.5865
 L -24.2342,-7.8251 L -24.0719,-9.26394 L -22.7483,-9.79332 L -22.206,-9.94704 L -21.7504,-10.0439 L -21.3868,-10.0969
 L -21.1205,-10.1188 L -20.9569,-10.1225 L -20.9152,-10.1215 L -20.9047,-10.1211 L -20.902,-10.1209 L -20.9014,-10.1209
 L -20.9011,-10.1209 L -18.4423,-7.36841 L -16.2104,-4.90218 L -14.0583,-2.57537 L -12.8527,-1.3247 L -12.6678,-1.13927
 L -12.6615,-1.13336 L -12.6546,-1.12764 L -12.6472,-1.12216 L -12.6392,-1.11699 L -12.6306,-1.1122 L -12.6215,-1.10787
 L -12.6118,-1.10407 L -12.6017,-1.10088 L -12.5911,-1.09837 L -12.5801,-1.09661 L -12.5688,-1.09566 L -12.5573,-1.09557
 L -12.5457,-1.09637 L -12.5341,-1.09809 L -12.5226,-1.10073 L -12.5113,-1.10427 L -12.5003,-1.1087 L -12.4898,-1.11397
 L -12.4797,-1.12001 L -12.4702,-1.12675 L -12.4614,-1.13411 L -12.4533,-1.142 L -12.4459,-1.15032 L -12.4393,-1.15899
 L -12.4335,-1.1679 L -12.4284,-1.17697 L -12.4241,-1.18612 L -12.4205,-1.19526 L -12.4176,-1.20434 L -12.4154,-1.21328
 L -12.4137,-1.22205 L -12.4126,-1.2306 L -12.3942,-1.7414 L -12.4112,-1.99392 L -12.447,-2.2428 L -12.5073,-2.63855
 L -12.5384,-3.04367 L -12.5331,-3.43073 L -12.515,-3.62575 L -12.4851,-3.82098 L -12.4435,-4.01059 L -12.3894,-4.1983
 L -12.3222,-4.38255 L -12.2419,-4.5618 L -12.1456,-4.73918 L -12.0364,-4.90874 L -11.9155,-5.06956 L -11.7842,-5.22072
 L -11.6364,-5.36851 L -11.4807,-5.50518 L -11.2392,-5.68726 L -11.0431,-5.81141 L -10.8363,-5.92109 L -10.5895,-6.02497
 L -10.3343,-6.10499 L -10.0731,-6.16115 L -9.80806,-6.19344 L -9.62453,-6.20181 L -9.44096,-6.19893 L -9.25799,-6.18486
 L -9.07625,-6.15969 L -8.89639,-6.12348 L -8.71905,-6.07629 L -8.54486,-6.01821 L -8.37447,-5.94931 L -8.15067,-5.83881
 L -7.9369,-5.70936 L -7.73502,-5.56181 L -7.54691,-5.39699 L -7.41846,-5.26544 L -7.29872,-5.12595 L -7.18797,-4.97946
 L -7.08647,-4.82689 L -6.99894,-4.67726 L -6.92018,-4.52332 L -6.85039,-4.3654 L -6.78974,-4.20382 L -6.73845,-4.03889
 L -6.6967,-3.87095 L -6.66468,-3.7003 L -6.64259,-3.52728 L -6.62897,-3.28809 L -6.63576,-3.04819 L -6.66287,-2.81767
 L -6.70967,-2.59062 L -6.77457,-2.36997 L -6.85614,-2.15627 L -6.95221,-1.95185 L -7.06085,-1.75637 L -7.1834,-1.56461
 L -7.31558,-1.38155 L -7.6033,-1.03977 L -7.92865,-0.713338 L -8.27083,-0.413388 L -8.38213,-0.314189 L -8.489,-0.205614
 L -8.6901,0.0342178 L -8.88483,0.310176 L -9.06531,0.603504 L -9.39241,1.21295 L -9.39532,1.21905 L -9.398,1.22539
 L -9.40042,1.23195 L -9.40257,1.23873 L -9.40441,1.24571 L -9.40594,1.25287 L -9.40713,1.26019 L -9.40796,1.26765
 L -9.40842,1.27522 L -9.4085,1.28288 L -9.40818,1.29059 L -9.40746,1.29832 L -9.40634,1.30605 L -9.4048,1.31375
 L -9.40286,1.32137 L -9.40052,1.32889 L -9.39779,1.33628 L -9.39468,1.3435 L -9.3912,1.35053 L -9.38738,1.35734
 L -9.38323,1.36391 L -9.37878,1.37022 L -9.37405,1.37624 L -9.36907,1.38195 L -9.36386,1.38735 L -9.35845,1.39243
 L -9.35287,1.39717 L -9.34715,1.40158 L -9.34132,1.40564 L -9.33539,1.40937 L -9.32941,1.41276 L -9.32338,1.41582
 L -8.62404,1.72167 L -8.12655,1.901 L -7.58755,2.05932 L -7.00126,2.19148 L -6.36193,2.29228 L -5.66381,2.35655
 L -4.91537,2.37912 L -4.84112,2.36623 L -4.82927,2.36367 L -4.81736,2.36006 L -4.80552,2.35536 L -4.79391,2.34955
 L -4.78824,2.34623 L -4.78268,2.34264 L -4.77725,2.33879 L -4.77198,2.33467 L -4.76687,2.33031 L -4.76194,2.32571
 L -4.75722,2.32088 L -4.75272,2.31585 L -4.74845,2.31061 L -4.74442,2.30519 L -4.74065,2.29961 L -4.73714,2.29388
 L -4.7339,2.28802 L -4.73095,2.28206 L -4.72827,2.276 L -4.72589,2.26988 L -4.72197,2.25751 L -4.71917,2.24508
 L -4.71747,2.23275 L -4.7168,2.22064 L -4.65028,-2.35507 L -4.59222,-6.56773 L -4.59341,-6.68527 L -4.58764,-6.94384
 L -4.56995,-7.20643 L -4.53976,-7.47231 L -4.49658,-7.74066 L -4.43996,-8.0106 L -4.36952,-8.28119 L -4.28499,-8.55141
 L -4.18618,-8.82022 L -4.07299,-9.08652 L -3.94546,-9.34918 L -3.8037,-9.60708 L -3.64798,-9.85909 L -3.47867,-10.1041
 L -3.29626,-10.341 L -3.10134,-10.5688 L -2.89463,-10.7865 L -2.67693,-10.9932 L -2.44914,-11.1881 L -2.21222,-11.3705
 L -1.96722,-11.5398 L -1.71522,-11.6956 L -1.45732,-11.8373 L -1.19465,-11.9649 L -0.928357,-12.078 L -0.659551,-12.1769
 L -0.389325,-12.2614 L -0.118738,-12.3318 L 0.151205,-12.3884 L 0.419558,-12.4316 L 0.685435,-12.4618 L 0.948026,-12.4795
 L 1.20659,-12.4853 L 1.46516,-12.4795 L 1.72775,-12.4618 L 1.99362,-12.4316 L 2.26198,-12.3884 L 2.53192,-12.3318
 L 2.80251,-12.2614 L 3.07273,-12.1769 L 3.34154,-12.078 L 3.60783,-11.9649 L 3.8705,-11.8373 L 4.1284,-11.6956
 L 4.38041,-11.5398 L 4.62541,-11.3705 L 4.86232,-11.1881 L 5.09011,-10.9932 L 5.30781,-10.7865 L 5.51452,-10.5688
 L 5.70944,-10.341 L 5.89185,-10.1041 L 6.06116,-9.85909 L 6.21688,-9.60708 L 6.35864,-9.34918 L 6.48618,-9.08652
 L 6.59936,-8.82022 L 6.69818,-8.55142 L 6.7827,-8.28119 L 6.85314,-8.0106 L 6.90976,-7.74066 L 6.95294,-7.47231
 L 6.98313,-7.20643 L 7.00082,-6.94384 L 7.00659,-6.68527 L 6.99824,-6.37407 L 6.97249,-6.05727 L 6.92841,-5.73618
 L 6.86517,-5.41229 L 6.81108,-4.93239 L 6.67091,-3.92013 L 6.66942,-3.90614 L 6.66676,-3.89233 L 6.4518,-2.13034
 L 6.16059,0.259441 L 6.15986,0.267027 L 6.15951,0.274826 L 6.15958,0.282816 L 6.16009,0.290968 L 6.16106,0.29925
 L 6.16253,0.307624 L 6.1645,0.316051 L 6.16701,0.324488 L 6.17005,0.332884 L 6.17364,0.341192 L 6.17778,0.34936
 L 6.18245,0.357336 L 6.18764,0.365068 L 6.19334,0.372505 L 6.19952,0.379599 L 6.20614,0.386303 L 6.21318,0.392579
 L 6.22057,0.39839 L 6.22829,0.403706 L 6.23627,0.408503 L 6.24448,0.412763 L 6.25284,0.416477 L 6.26132,0.41964
 L 6.26986,0.422255 L 6.27842,0.424329 L 6.28693,0.425878 L 6.29537,0.426917 L 6.30369,0.42747 L 6.31186,0.427564
 L 6.31984,0.427225 L 6.32761,0.426483 L 6.33515,0.42537 L 7.7532,0.179114 L 8.31083,0.0822773 L 8.47384,0.0539694
 L 11.1614,-0.495872 L 12.288,-0.667381 L 13.6233,-0.813255 L 20.1877,-1.33083 L 21.9186,-1.49136 L 23.5989,-1.68337
 L 24.4152,-1.79978 L 25.2248,-1.93789 L 26.0301,-2.09742 L 26.8332,-2.2781 L 28.4416,-2.70181 L 30.0676,-3.20681
 L 31.7288,-3.79092 L 33.4426,-4.45193 L 35.2268,-5.18764 L 37.0989,-5.99587 L 37.1662,-6.04562 L 37.2275,-6.10085
 L 37.2826,-6.16122 L 37.3313,-6.22634 L 37.3734,-6.29586 L 37.4087,-6.36941 L 37.437,-6.44662 L 37.4582,-6.52712
 L 37.4721,-6.61056 L 37.4785,-6.69656 L 37.4772,-6.78475 L 37.468,-6.87478 L 37.4508,-6.96627 L 37.4253,-7.05886
 L 37.3914,-7.15218 L 37.3489,-7.24587 L 37.324,-7.29094 L 37.2964,-7.33248 L 37.2664,-7.37064 L 37.2341,-7.40554
 L 37.1998,-7.43733 L 37.1638,-7.46615 L 37.1261,-7.49213 L 37.0872,-7.5154 L 37.0471,-7.53612 L 37.0062,-7.55441
 L 36.9226,-7.58425 L 36.8383,-7.60604 L 36.7551,-7.62087 L 36.6749,-7.62984 L 36.5994,-7.63406 L 36.47,-7.63259
 L 36.351,-7.62122 L 36.3489,-7.62087 L 35.177,-7.41775 L 33.9758,-7.25173 L 32.5989,-7.12087 L 31.7073,-7.08279
 L 30.4817,-7.074 L 28.9866,-7.11208 L 27.2864,-7.21462 L 25.4456,-7.39919 L 24.4925,-7.52773 L 23.5286,-7.68337
 L 22.5616,-7.86831 L 21.5998,-8.08474 L 20.6512,-8.33486 L 19.7239,-8.62087 L 18.0845,-9.17922 L 16.7336,-9.66579
 L 15.5381,-10.126 L 14.3645,-10.6052 L 7.22387,-13.6209 L 6.55005,-13.8862 L 5.88803,-14.1206 L 5.23785,-14.3252
 L 4.5996,-14.5012 L 3.97335,-14.65 L 3.35916,-14.7728 L 2.75709,-14.8707 L 2.16723,-14.9451 L 1.58964,-14.9971
 L 1.02438,-15.028 L -0.0688524,-15.0315 L -1.11191,-14.9654 L -2.10425,-14.8396 L -3.04532,-14.664 L -3.93458,-14.4485
 L -4.77146,-14.203 L -5.55543,-13.9373 L -6.28592,-13.6613 L -8.15113,-12.8709 L -8.41953,-12.7634 L -8.68558,-12.675
 L -8.94911,-12.6048 L -9.20997,-12.552 L -9.46798,-12.5159 L -9.723,-12.4957 L -9.97486,-12.4906 L -10.2234,-12.4998
 L -10.4685,-12.5225 L -10.7099,-12.5581 L -11.1812,-12.6643 L -11.636,-12.8123 L -12.073,-12.9959 L -12.491,-13.2087
 L -12.8887,-13.4446 L -13.2647,-13.6973 L -13.6179,-13.9607 L -14.2505,-14.4944 L -14.7761,-14.9959 L -15.228,-15.4083
 L -15.4422,-15.575 L -15.6492,-15.7176 L -15.8496,-15.8378 L -16.044,-15.9374 L -16.2328,-16.0182 L -16.4168,-16.0818
 L -16.5963,-16.1301 L -16.772,-16.1647 L -16.9444,-16.1874 L -17.114,-16.2 L -17.4473,-16.2016 L -17.7761,-16.1834
 L -17.9485,-16.1653 L -18.1359,-16.1354 L -18.5447,-16.0457 L -19.4246,-15.7849 L -20.2459,-15.489 L -20.8386,-15.2459
 L -20.865,-15.235 L -20.8916,-15.2257 L -20.9182,-15.2179 L -20.9449,-15.2117 L -20.9988,-15.2035 L -21.0534,-15.2008
 L -21.1085,-15.2032 L -21.1645,-15.2103 L -21.2213,-15.2217 L -21.2791,-15.2371 L -21.3976,-15.2781 L -22.2296,-15.6553
 L -22.3943,-15.7117 L -22.5682,-15.7582 L -22.7518,-15.7919 L -22.9459,-15.8096 L -23.1511,-15.8084 L -23.5611,-15.7678
 L -23.9465,-15.6951 L -24.3063,-15.593 L -24.6394,-15.4646 L -24.9446,-15.3128 L -25.221,-15.1404 L -25.4672,-14.9505
 L -25.5788,-14.8498 L -25.6824,-14.7459 L -25.8665,-14.5303 L -26.0247,-14.3103 L -26.4053,-13.6973 L -26.5217,-13.533
 L -26.5815,-13.4625 L -26.6433,-13.4009 L -26.6752,-13.3738 L -26.7079,-13.3492 L -26.7415,-13.3274 L -26.7761,-13.3084
 L -26.7958,-13.2994 L -26.8195,-13.2903 L -26.8789,-13.2711 L -27.0414,-13.23 L -27.5154,-13.1385 L -31.3386,-12.5584
 L -32.3074,-12.3797 L -33.6043,-12.1131 L -34.2805,-11.9413 L -34.9246,-11.741 L -35.4983,-11.5099 L -35.7469,-11.3821
 L -35.9636,-11.2459 L -36.0437,-11.1843 L -36.1215,-11.1146 L -36.1972,-11.0371 L -36.2707,-10.9524 L -36.4112,-10.7636
 L -36.5431,-10.5523 L -36.6665,-10.3227 L -36.7814,-10.0788 L -36.9859,-9.56509 L -37.157,-9.04437 L -37.2952,-8.54989
 L -37.474,-7.77252 L -37.4776,-7.74894 z
M -35.7022,-9.18142 L -35.6945,-9.26783 L -35.679,-9.35942 L -35.6562,-9.4547 L -35.6265,-9.55209 L -35.5906,-9.65
 L -35.504,-9.84152 L -35.404,-10.0193 L -35.3691,-10.0719 L -35.3296,-10.1236 L -35.2857,-10.1734 L -35.2377,-10.2205
 L -35.1861,-10.264 L -35.1316,-10.3029 L -35.0747,-10.3364 L -35.0165,-10.3638 L -34.9579,-10.3847 L -34.9287,-10.3927
 L -34.8997,-10.3988 L -34.8711,-10.4033 L -34.8429,-10.4061 L -34.8153,-10.4072 L -34.7883,-10.4066 L -34.762,-10.4044
 L -34.7366,-10.4007 L -34.712,-10.3956 L -34.6884,-10.389 L -34.6657,-10.3811 L -34.644,-10.372 L -34.6234,-10.3618
 L -34.6038,-10.3505 L -34.585,-10.3381 L -34.5667,-10.3242 L -34.5488,-10.3089 L -34.5317,-10.2921 L -34.5152,-10.2739
 L -34.4996,-10.2542 L -34.485,-10.2331 L -34.4713,-10.2105 L -34.4588,-10.1867 L -34.4474,-10.1615 L -34.4373,-10.135
 L -34.4285,-10.1074 L -34.4211,-10.0787 L -34.4151,-10.049 L -34.4077,-9.98719 L -34.4062,-9.92285 L -34.4108,-9.85705
 L -34.4213,-9.79085 L -34.4371,-9.7253 L -34.4578,-9.66135 L -34.4829,-9.59982 L -34.5115,-9.54141 L -34.5429,-9.48664
 L -34.6573,-9.31779 L -34.79,-9.15477 L -34.8616,-9.07897 L -34.9355,-9.0089 L -35.0105,-8.94592 L -35.0856,-8.8912
 L -35.1594,-8.84571 L -35.2309,-8.81008 L -35.2655,-8.79609 L -35.299,-8.78465 L -35.3315,-8.77577 L -35.3627,-8.76941
 L -35.3927,-8.76553 L -35.4214,-8.76405 L -35.4486,-8.76491 L -35.4744,-8.76801 L -35.4987,-8.77324 L -35.5215,-8.78049
 L -35.5428,-8.78964 L -35.5626,-8.80057 L -35.5812,-8.81339 L -35.5989,-8.82835 L -35.6155,-8.84552 L -35.6311,-8.86493
 L -35.6454,-8.88662 L -35.6583,-8.91061 L -35.6698,-8.9369 L -35.6797,-8.96547 L -35.688,-8.99628 L -35.6945,-9.02928
 L -35.6992,-9.0644 L -35.7021,-9.10154 z
M -25.7793,-12.6585 L -25.7792,-12.6889 L -25.776,-12.7196 L -25.7696,-12.7504 L -25.76,-12.7807 L -25.7473,-12.81
 L -25.7316,-12.8378 L -25.7133,-12.8637 L -25.6926,-12.8874 L -25.67,-12.9085 L -25.6459,-12.9269 L -25.6208,-12.9424
 L -25.5951,-12.9552 L -25.5692,-12.9652 L -24.0688,-13.4691 L -24.0303,-13.3799 L -24.0054,-13.337 L -23.9769,-13.2958
 L -23.9451,-13.2569 L -23.9101,-13.2205 L -23.8723,-13.1872 L -23.8322,-13.157 L -23.7901,-13.1304 L -23.7464,-13.1075
 L -23.7017,-13.0883 L -23.6564,-13.0728 L -23.611,-13.0611 L -23.5658,-13.0529 L -23.5212,-13.0482 L -23.4775,-13.0467
 L -23.4214,-13.0492 L -23.3638,-13.0571 L -23.3056,-13.0708 L -23.2475,-13.0906 L -23.1905,-13.1165 L -23.1355,-13.1485
 L -23.0836,-13.1864 L -23.0356,-13.2297 L -22.9923,-13.2777 L -22.9544,-13.3297 L -22.9224,-13.3846 L -22.8964,-13.4416
 L -22.8767,-13.4997 L -22.863,-13.5579 L -22.8551,-13.6155 L -22.8525,-13.6717 L -22.8544,-13.7193 L -22.86,-13.7681
 L -22.8698,-13.8175 L -22.8839,-13.8671 L -21.5166,-14.3264 L -21.4899,-14.334 L -21.4617,-14.3394 L -21.4323,-14.3421
 L -21.402,-14.342 L -21.3712,-14.3388 L -21.3405,-14.3325 L -21.3102,-14.3229 L -21.2809,-14.3102 L -21.2531,-14.2945
 L -21.2272,-14.2761 L -21.2035,-14.2554 L -21.1824,-14.2328 L -21.164,-14.2087 L -21.1484,-14.1836 L -21.1357,-14.1579
 L -21.1257,-14.132 L -21.118,-14.1053 L -21.1126,-14.0771 L -21.1099,-14.0477 L -21.11,-14.0174 L -21.1132,-13.9866
 L -21.1196,-13.9558 L -21.1291,-13.9255 L -21.1419,-13.8962 L -21.1575,-13.8684 L -21.1759,-13.8425 L -21.1966,-13.8189
 L -21.2192,-13.7977 L -21.2433,-13.7794 L -21.2684,-13.7638 L -21.2941,-13.751 L -21.32,-13.741 L -21.9124,-13.542
 L -21.9021,-13.4145 L -21.9024,-13.2837 L -21.9141,-13.1511 L -21.9376,-13.0181 L -21.9731,-12.8863 L -22.0205,-12.7572
 L -22.0793,-12.6326 L -22.1489,-12.5138 L -22.2285,-12.4022 L -22.3167,-12.299 L -22.4124,-12.2051 L -22.5142,-12.1212
 L -22.6205,-12.0477 L -22.73,-11.9847 L -22.8413,-11.9321 L -22.9531,-11.8897 L -23.0678,-11.8561 L -23.1882,-11.8308
 L -23.3135,-11.8149 L -23.4427,-11.8094 L -23.5745,-11.8148 L -23.7074,-11.8319 L -23.8401,-11.8609 L -23.9709,-11.9018
 L -24.0981,-11.9545 L -24.2203,-12.0184 L -24.3359,-12.0927 L -24.4438,-12.1763 L -24.5428,-12.2682 L -24.6322,-12.3668
 L -24.7114,-12.4709 L -24.7801,-12.5788 L -25.3725,-12.3798 L -25.3992,-12.3722 L -25.4274,-12.3668 L -25.4569,-12.3641
 L -25.4872,-12.3642 L -25.5179,-12.3674 L -25.5487,-12.3738 L -25.579,-12.3833 L -25.6083,-12.3961 L -25.6361,-12.4117
 L -25.662,-12.4301 L -25.6857,-12.4508 L -25.7068,-12.4734 L -25.7252,-12.4975 L -25.7408,-12.5226 L -25.7535,-12.5483
 L -25.7635,-12.5742 L -25.7712,-12.6009 L -25.7765,-12.6291 z
M -37.2503,-6.64534 L -37.249,-6.62707 L -37.2465,-6.60935 L -37.2428,-6.59229 L -37.2381,-6.57598 L -37.2325,-6.56048
 L -37.2261,-6.54585 L -37.219,-6.53209 L -37.2114,-6.51925 L -37.2033,-6.50729 L -36.125,-4.99383 L -35.6124,-4.36435
 L -35.3532,-4.09821 L -35.0886,-3.87087 L -35.0116,-3.81481 L -34.9327,-3.76372 L -34.8522,-3.71742 L -34.77,-3.67574
 L -34.6009,-3.60562 L -34.426,-3.55202 L -34.2458,-3.51363 L -34.0609,-3.4891 L -33.8716,-3.47711 L -33.6785,-3.47634
 L -33.2829,-3.50314 L -32.8782,-3.55886 L -32.0574,-3.71462 L -31.2376,-3.86941 L -30.3972,-3.99197 L -29.5042,-4.06179
 L -29.0278,-4.07052 L -28.5261,-4.05837 L -25.8193,-3.7642 L -25.0192,-3.75116 L -24.6135,-3.77402 L -24.2071,-3.82141
 L -23.8024,-3.89701 L -23.4017,-4.00451 L -23.0074,-4.14762 L -22.6217,-4.33002 L -22.0596,-4.64333 L -21.538,-4.95784
 L -20.6223,-5.56834 L -19.8863,-6.11734 L -19.3417,-6.56064 L -19.3247,-6.5756 L -19.3082,-6.5916 L -19.2922,-6.60865
 L -19.2767,-6.62672 L -19.2619,-6.64579 L -19.2478,-6.66585 L -19.2346,-6.68685 L -19.2223,-6.70874 L -19.211,-6.73146
 L -19.2008,-6.75495 L -19.1917,-6.77912 L -19.1838,-6.80391 L -19.1772,-6.82921 L -19.1719,-6.85493 L -19.168,-6.88096
 L -19.1654,-6.9072 L -19.1643,-6.93354 L -19.1645,-6.95987 L -19.1661,-6.98608 L -19.169,-7.01206 L -19.1733,-7.03771
 L -19.1789,-7.06293 L -19.1856,-7.08763 L -19.1936,-7.11172 L -19.2027,-7.13513 L -19.2128,-7.15779 L -19.2239,-7.17964
 L -19.2358,-7.20062 L -19.2486,-7.2207 L -19.262,-7.23985 L -19.2761,-7.25803 L -19.2908,-7.27524 L -21.3261,-9.54587
 L -21.7087,-9.48696 L -22.0813,-9.4062 L -22.788,-9.19802 L -23.2071,-9.0448 L -23.6128,-8.87412 L -23.8174,-7.05929
 L -25.5082,-7.90046 L -26.1363,-6.38831 L -27.3901,-7.18816 L -27.5044,-7.15606 L -28.5215,-5.74484 L -29.5159,-6.77922
 L -29.536,-6.77656 L -30.59,-5.5405 L -31.3534,-6.63728 L -31.4972,-6.63714 L -32.542,-5.46612 L -33.3442,-6.68936
 L -33.6097,-6.69954 L -34.7972,-5.3746 L -35.4594,-6.78196 L -36.9806,-6.90261 L -36.995,-6.90333 L -37.01,-6.90321
 L -37.0254,-6.90213 L -37.0413,-6.90003 L -37.0574,-6.8968 L -37.0738,-6.89237 L -37.0903,-6.88666 L -37.1068,-6.87963
 L -37.123,-6.87124 L -37.139,-6.86146 L -37.1544,-6.85031 L -37.1692,-6.83782 L -37.1831,-6.82405 L -37.196,-6.80908
 L -37.2077,-6.79305 L -37.2182,-6.77607 L -37.2273,-6.75831 L -37.2349,-6.73994 L -37.241,-6.72115 L -37.2456,-6.70211
 L -37.2486,-6.68302 L -37.2502,-6.66404 z
M -16.8169,3.20235 L -16.8168,3.21785 L -16.8157,3.23376 L -16.8136,3.25001 L -16.8102,3.26648 L -16.8057,3.28307
 L -16.7998,3.29965 L -16.7927,3.31608 L -16.7843,3.33222 L -16.7746,3.34792 L -16.7636,3.36302 L -16.7514,3.37738
 L -16.7381,3.39085 L -16.7238,3.40331 L -16.7085,3.41465 L -16.6925,3.42477 L -16.6759,3.43361 L -16.6588,3.44111
 L -16.6414,3.44725 L -16.6238,3.45203 L -16.6063,3.45547 L -16.5888,3.45762 L -16.5716,3.45853 L -16.5548,3.45827
 L -16.5385,3.45694 L -16.5227,3.45461 L -16.5075,3.4514 L -16.4931,3.44738 L -16.4793,3.44266 L -16.4662,3.43734
 L -16.3371,3.3801 L -16.2063,3.32171 L -16.0765,3.26379 L -15.9483,3.20715 L -15.8212,3.15196 L -15.6907,3.09693
 L -15.5591,3.04395 L -15.426,2.99409 L -15.291,2.94909 L -15.1533,2.91224 L -15.0127,2.89108 L -14.8795,2.90641
 L -14.8318,2.94798 L -14.8098,3.00756 L -14.8122,3.07257 L -14.8296,3.1381 L -14.8545,3.19891 L -14.8829,3.25532
 L -14.9148,3.311 L -14.9493,3.36587 L -14.9857,3.41994 L -15.0219,3.47089 L -15.0605,3.52299 L -15.1013,3.57608
 L -15.1419,3.62745 L -15.1881,3.68433 L -15.2291,3.73382 L -15.2712,3.78363 L -15.314,3.83365 L -15.3575,3.88377
 L -15.4015,3.93387 L -15.4457,3.98385 L -15.4901,4.03359 L -15.5344,4.08298 L -15.5784,4.13192 L -15.622,4.18028
 L -15.6651,4.22797 L -15.7073,4.27486 L -15.7167,4.28599 L -15.7258,4.29809 L -15.7345,4.31118 L -15.7425,4.32527
 L -15.7498,4.34034 L -15.7563,4.35635 L -15.7618,4.37326 L -15.7662,4.39098 L -15.7693,4.40942 L -15.7711,4.42846
 L -15.7714,4.44793 L -15.7702,4.46769 L -15.7673,4.48754 L -15.7628,4.50729 L -15.7567,4.52675 L -15.749,4.5457
 L -15.7398,4.56395 L -15.7291,4.58134 L -15.7172,4.59769 L -15.7041,4.61288 L -15.69,4.62679 L -15.6751,4.63935
 L -15.6596,4.65051 L -15.6436,4.66025 L -15.6274,4.66858 L -15.611,4.67553 L -15.5947,4.68115 L -15.5785,4.68552
 L -15.5626,4.6887 L -15.547,4.69079 L -15.5319,4.69188 L -15.5173,4.69207 L -15.291,4.67057 L -15.1813,4.64737
 L -15.074,4.61658 L -14.9689,4.57872 L -14.8661,4.53435 L -14.6671,4.42814 L -14.4768,4.30222 L -14.2949,4.16085
 L -13.9559,3.84879 L -13.3704,3.22672 L -13.1205,2.98489 L -13.0622,2.93741 L -13.0056,2.89619 L -12.9505,2.86175
 L -12.897,2.83464 L -12.6435,2.73688 L -11.2065,2.33969 L -10.9568,2.25014 L -10.845,2.2008 L -10.7435,2.14774
 L -10.7221,2.13454 L -10.7008,2.11956 L -10.6584,2.0844 L -10.6161,2.04262 L -10.5738,1.99452 L -10.489,1.8807
 L -10.4032,1.74556 L -10.3416,1.63872 L -10.0347,1.04373 L -9.62718,0.276686 L -9.42859,-0.0460968 L -9.20623,-0.360899
 L -8.96536,-0.647994 L -8.83101,-0.784233 L -8.68557,-0.913877 L -8.37183,-1.18885 L -8.08146,-1.48008 L -7.83236,-1.77588
 L -7.72066,-1.9305 L -7.6189,-2.08966 L -7.53042,-2.24893 L -7.45382,-2.41177 L -7.39023,-2.57797 L -7.34047,-2.74744
 L -7.30474,-2.92152 L -7.28388,-3.09766 L -7.27827,-3.28003 L -7.28855,-3.46267 L -7.3059,-3.59643 L -7.33131,-3.72971
 L -7.36451,-3.86189 L -7.40527,-3.99239 L -7.45332,-4.1206 L -7.50843,-4.24591 L -7.57035,-4.36774 L -7.63882,-4.48547
 L -7.71781,-4.6045 L -7.80368,-4.71797 L -7.89631,-4.82553 L -7.99559,-4.92685 L -8.141,-5.05408 L -8.29722,-5.16831
 L -8.46298,-5.26879 L -8.63702,-5.35474 L -8.7699,-5.4084 L -8.90602,-5.45367 L -9.04479,-5.49049 L -9.18564,-5.51879
 L -9.328,-5.53849 L -9.47127,-5.54954 L -9.61489,-5.55186 L -9.75829,-5.54539 L -9.96487,-5.52027 L -10.168,-5.47665
 L -10.3657,-5.41469 L -10.5564,-5.33454 L -10.7162,-5.24981 L -10.8708,-5.1517 L -11.0673,-5.00353 L -11.1924,-4.89383
 L -11.3087,-4.77746 L -11.4106,-4.66031 L -11.5033,-4.53701 L -11.5865,-4.40785 L -11.6595,-4.27314 L -11.7206,-4.13695
 L -11.7719,-3.99621 L -11.8136,-3.85138 L -11.8459,-3.70291 L -11.8696,-3.54716 L -11.8842,-3.38859 L -11.8888,-3.06521
 L -11.8618,-2.71457 L -11.8078,-2.36086 L -11.7622,-2.03722 L -11.7432,-1.71324 L -11.7487,-1.39048 L -11.7763,-1.07051
 L -11.8284,-0.731371 L -11.9016,-0.39781 L -11.9889,-0.0821743 L -12.0838,0.194393 L -12.2298,0.550398 L -12.2364,0.562319
 L -12.252,0.585875 L -12.2707,0.609058 L -12.2924,0.631878 L -12.317,0.654344 L -12.3444,0.676465 L -12.4073,0.719707
 L -12.4804,0.76168 L -12.5629,0.802455 L -12.7533,0.880703 L -13.2156,1.02604 L -14.8386,1.41489 L -15.3043,1.54437
 L -15.497,1.61171 L -15.6553,1.68157 L -15.7611,1.74057 L -15.8643,1.80752 L -15.9646,1.88166 L -16.0616,1.96225
 L -16.2439,2.13977 L -16.4078,2.33407 L -16.5499,2.53914 L -16.6669,2.74898 L -16.7149,2.85382 L -16.7554,2.95759
 L -16.7879,3.05955 L -16.812,3.15895 L -16.8145,3.17285 L -16.8161,3.18733 z
M -6.27471,15.959 L -6.27401,15.9735 L -6.27243,15.9882 L -6.26995,16.003 L -6.26653,16.0177 L -6.26217,16.0325
 L -6.25685,16.0471 L -6.25059,16.0614 L -6.24339,16.0754 L -6.2353,16.0889 L -6.22635,16.102 L -6.21659,16.1144
 L -6.20608,16.1262 L -6.1949,16.1373 L -6.18312,16.1476 L -6.17081,16.157 L -6.15807,16.1656 L -6.14498,16.1733
 L -6.13163,16.1801 L -6.11811,16.186 L -6.10449,16.1911 L -6.09086,16.1952 L -6.07728,16.1985 L -6.06382,16.2011
 L -6.05055,16.2028 L -6.03752,16.2038 L -6.02476,16.2041 L -4.90038,16.2041 L -4.89096,16.2038 L -4.88139,16.2027
 L -4.87175,16.2008 L -4.86213,16.1981 L -4.85263,16.1947 L -4.84336,16.1904 L -4.8344,16.1853 L -4.82587,16.1795
 L -4.81784,16.173 L -4.8104,16.1659 L -4.80361,16.1583 L -4.79753,16.1502 L -4.79219,16.1417 L -4.78761,16.1331
 L -4.78379,16.1242 L -4.78072,16.1153 L -4.62954,15.6726 L -4.55268,15.4931 L -4.4622,15.3131 L -4.39864,15.203
 L -4.32733,15.0951 L -4.24677,14.9921 L -4.20255,14.9432 L -4.15547,14.8964 L -4.08492,14.8352 L -4.01001,14.7787
 L -3.8535,14.6794 L -3.71714,14.6071 L -3.58212,14.5454 L -3.31634,14.4444 L -2.75873,14.2617 L -2.39851,14.1316
 L -2.05096,13.9836 L -1.71857,13.8135 L -1.40383,13.6174 L -1.05324,13.3467 L -0.723661,13.0421 L -0.331161,12.6277
 L 0.0480814,12.1915 L 0.0648565,12.1737 L 0.0832958,12.1575 L 0.103226,12.1433 L 0.124453,12.1311 L 0.146772,12.121
 L 0.169973,12.1132 L 0.19383,12.1076 L 0.218116,12.1044 L 0.242597,12.1036 L 0.267036,12.1052 L 0.291202,12.1092
 L 0.31486,12.1156 L 0.337786,12.1242 L 0.359757,12.135 L 0.380564,12.1479 L 0.400006,12.1628 L 0.417898,12.1796
 L 0.434067,12.198 L 0.448358,12.2179 L 0.460633,12.2391 L 0.470776,12.2613 L 0.478688,12.2845 L 0.484295,12.3084
 L 0.487541,12.3326 L 0.488397,12.3571 L 0.486852,12.3816 L 0.482924,12.4057 L 0.476647,12.4294 L 0.468085,12.4524
 L 0.457318,12.4744 L 0.444451,12.4952 L 0.429605,12.5147 L 0.0409403,12.9619 L -0.371845,13.3973 L -0.731932,13.7294
 L -1.1222,14.0306 L -1.47293,14.2489 L -1.83984,14.4366 L -2.21667,14.5973 L -2.59719,14.7348 L -3.15269,14.9169
 L -3.39103,15.0089 L -3.6047,15.1121 L -3.71214,15.1784 L -3.76132,15.2151 L -3.80753,15.2552 L -3.83883,15.2863
 L -3.86871,15.3195 L -3.92466,15.3913 L -3.9762,15.4696 L -4.02416,15.5533 L -4.13461,15.7862 L -4.23022,16.0383
 L -4.23217,16.0445 L -4.23383,16.0509 L -4.23518,16.0575 L -4.23619,16.0644 L -4.23683,16.0714 L -4.23706,16.0786
 L -4.23688,16.086 L -4.23624,16.0935 L -4.23514,16.101 L -4.23356,16.1085 L -4.23148,16.1161 L -4.22892,16.1235
 L -4.22586,16.1308 L -4.22232,16.138 L -4.21831,16.145 L -4.21386,16.1517 L -4.20898,16.1581 L -4.20371,16.1641
 L -4.19808,16.1698 L -4.19215,16.1751 L -4.18594,16.18 L -4.1795,16.1844 L -4.17288,16.1883 L -4.16613,16.1918
 L -4.15928,16.1949 L -4.15239,16.1974 L -4.14549,16.1996 L -4.13861,16.2013 L -4.13181,16.2026 L -4.1251,16.2034
 L -4.11851,16.204 L -4.11206,16.2041 L -3.0066,16.2041 L -2.99778,16.2038 L -2.98884,16.2029 L -2.97984,16.2012
 L -2.97087,16.1989 L -2.96199,16.1959 L -2.95328,16.1922 L -2.94484,16.1878 L -2.93673,16.1828 L -2.92902,16.1771
 L -2.92179,16.171 L -2.91509,16.1643 L -2.90897,16.1572 L -2.90345,16.1497 L -2.89856,16.142 L -2.89432,16.1341
 L -2.89073,16.126 L -2.77575,15.876 L -2.71313,15.7715 L -2.67745,15.7204 L -2.63839,15.6704 L -2.5811,15.6059
 L -2.51874,15.5443 L -2.4528,15.4865 L -2.38478,15.4333 L -2.25845,15.3488 L -2.13105,15.2789 L -1.87673,15.1699
 L -0.828443,14.8027 L -0.577772,14.6908 L -0.341176,14.5652 L -0.216572,14.4879 L -0.0979919,14.4029 L 0.0535202,14.2718
 L 0.197075,14.126 L 0.617372,13.6234 L 1.21999,12.7974 L 1.23502,12.7781 L 1.25188,12.7603 L 1.2704,12.7442
 L 1.29041,12.73 L 1.31171,12.7179 L 1.3341,12.7078 L 1.35737,12.7001 L 1.38128,12.6946 L 1.40561,12.6916
 L 1.43012,12.6909 L 1.45459,12.6926 L 1.47876,12.6967 L 1.50242,12.7032 L 1.52533,12.7119 L 1.54727,12.7229
 L 1.56804,12.7359 L 1.58742,12.751 L 1.60524,12.7678 L 1.62133,12.7863 L 1.63552,12.8063 L 1.64768,12.8276
 L 1.6577,12.85 L 1.66548,12.8733 L 1.67094,12.8972 L 1.67404,12.9215 L 1.67473,12.946 L 1.67302,12.9705
 L 1.66892,12.9946 L 1.66247,13.0183 L 1.65374,13.0412 L 1.6428,13.0632 L 1.62976,13.0839 L 1.01293,13.9293
 L 0.561946,14.4677 L 0.395135,14.6369 L 0.212854,14.7945 L 0.0680037,14.8984 L -0.0829916,14.9926 L -0.359838,15.1408
 L -0.640388,15.2666 L -1.20289,15.4701 L -1.69812,15.637 L -1.9111,15.7304 L -2.00674,15.782 L -2.09267,15.8369
 L -2.13496,15.8684 L -2.17418,15.9017 L -2.21069,15.9377 L -2.24487,15.9771 L -2.26682,16.0059 L -2.27079,16.0118
 L -2.27455,16.0181 L -2.27803,16.0248 L -2.2812,16.0319 L -2.28399,16.0394 L -2.28635,16.0473 L -2.28822,16.0555
 L -2.28956,16.064 L -2.29032,16.0728 L -2.29045,16.0818 L -2.28992,16.091 L -2.28869,16.1002 L -2.28677,16.1094
 L -2.28413,16.1185 L -2.28079,16.1274 L -2.27677,16.136 L -2.2721,16.1444 L -2.26682,16.1523 L -2.26099,16.1598
 L -2.25467,16.1667 L -2.24793,16.1731 L -2.24083,16.1789 L -2.23346,16.184 L -2.22589,16.1886 L -2.21818,16.1925
 L -2.21041,16.1958 L -2.20263,16.1985 L -2.19491,16.2006 L -2.1873,16.2022 L -2.17983,16.2033 L -2.17255,16.2039
 L -2.16548,16.2041 L 0.734075,16.2041 L 0.749457,16.2037 L 0.765,16.2022 L 0.780612,16.1998 L 0.796197,16.1963
 L 0.811656,16.1918 L 0.826889,16.1863 L 0.841794,16.1797 L 0.856272,16.1722 L 0.870231,16.1638 L 0.883582,16.1545
 L 0.896248,16.1444 L 0.908159,16.1336 L 0.919258,16.1221 L 0.9295,16.11 L 0.938848,16.0975 L 0.947285,16.0847
 L 1.41778,15.3462 L 1.78487,14.8175 L 2.22355,14.239 L 2.72161,13.6529 L 3.26681,13.1015 L 3.55327,12.852
 L 3.84693,12.627 L 4.14626,12.4318 L 4.44975,12.2718 L 4.76854,12.106 L 4.91205,12.0171 L 5.04528,11.9245
 L 5.16846,11.8284 L 5.28183,11.7293 L 5.38561,11.6272 L 5.48005,11.5226 L 5.56537,11.4158 L 5.64181,11.3069
 L 5.7096,11.1962 L 5.76898,11.0841 L 5.82018,10.9708 L 5.86343,10.8567 L 5.89896,10.7418 L 5.92702,10.6267
 L 5.94782,10.5114 L 5.96162,10.3964 L 5.96863,10.2818 L 5.9691,10.168 L 5.96325,10.0553 L 5.95132,9.94383
 L 5.93355,9.83398 L 5.91016,9.726 L 5.84748,9.51677 L 5.76514,9.31834 L 5.66502,9.13296 L 5.60887,9.04585
 L 5.54898,8.96283 L 4.8007,8.03901 L 4.30437,7.41975 L 3.78782,6.74021 L 3.29698,6.03388 L 2.87779,5.33424
 L 2.7094,4.99739 L 2.57616,4.67476 L 2.5245,4.52009 L 2.48378,4.37054 L 2.45472,4.22665 L 2.43802,4.08892
 L 2.43536,4.02317 L 2.43687,3.9514 L 2.45192,3.79055 L 2.48223,3.60797 L 2.52686,3.40521 L 2.65527,2.94552
 L 2.82961,2.4241 L 3.28577,1.24656 L 3.83486,-0.0264196 L 4.96979,-2.45481 L 5.75044,-4.05325 L 5.92159,-4.37397
 L 6.06857,-4.70192 L 6.19123,-5.03451 L 6.28977,-5.36922 L 6.36471,-5.70362 L 6.41684,-6.0355 L 6.4472,-6.36283
 L 6.45702,-6.68379 L 6.43578,-7.15553 L 6.36937,-7.6391 L 6.25436,-8.12837 L 6.0884,-8.61629 L 5.87051,-9.09509
 L 5.60124,-9.55664 L 5.28287,-9.99286 L 4.91933,-10.3961 L 4.51608,-10.7596 L 4.07987,-11.078 L 3.61831,-11.3473
 L 3.13951,-11.5652 L 2.6516,-11.7311 L 2.16232,-11.8461 L 1.67875,-11.9126 L 1.20702,-11.9338 L 0.73528,-11.9126
 L 0.25171,-11.8461 L -0.237564,-11.7311 L -0.725481,-11.5652 L -1.20428,-11.3473 L -1.66583,-11.078 L -2.10205,-10.7596
 L -2.50529,-10.3961 L -2.86884,-9.99286 L -3.18721,-9.55664 L -3.45647,-9.09509 L -3.67437,-8.61629 L -3.84033,-8.12837
 L -3.95534,-7.6391 L -4.02175,-7.15553 L -4.04298,-6.68379 L -4.04205,-6.5849 L -4.12342,0.108845 L -4.10229,1.62831
 L -4.0454,2.83464 L -4.00043,3.27084 L -3.97327,3.43853 L -3.94278,3.56931 L -3.92414,3.62677 L -3.90053,3.68758
 L -3.83908,3.81875 L -3.66387,4.11619 L -3.42777,4.4544 L -3.1414,4.8261 L -2.46028,5.64094 L -0.96178,7.35315
 L -0.314244,8.13435 L -0.0530577,8.48082 L 0.152254,8.78819 L 0.23064,8.92494 L 0.291078,9.04919 L 0.314151,9.10635
 L 0.332238,9.16004 L 0.345176,9.21015 L 0.352797,9.25657 L 0.356137,9.30199 L 0.356399,9.34911 L 0.353663,9.39789
 L 0.348011,9.44824 L 0.328282,9.55343 L 0.297861,9.66416 L 0.257398,9.77992 L 0.207539,9.90018 L 0.0822353,10.1521
 L -0.072855,10.4158 L -0.252542,10.6871 L -0.664936,11.2358 L -1.11341,11.7648 L -1.55642,12.2409 L -1.95243,12.6307
 L -2.2599,12.9009 L -2.40194,13.0028 L -2.57532,13.1087 L -2.9958,13.328 L -3.98952,13.767 L -5.25303,14.3
 L -5.37199,14.3606 L -5.4169,14.3869 L -5.45124,14.4103 L -5.48917,14.4485 L -5.53275,14.4998 L -5.63349,14.637
 L -5.86563,15.0125 L -6.09357,15.4542 L -6.18906,15.6739 L -6.26322,15.879 L -6.26674,15.8913 L -6.26969,15.904
 L -6.27202,15.9172 L -6.27367,15.9308 L -6.27459,15.9447 z
" stroke="black" fill="lightgray" stroke-width="0.5"/>
</svg>
