solid OpenSCAD_Model
  facet normal 0 0.980795 0.19504
    outer loop
      vertex -6.5 -14.05 -0.99
      vertex -123.576 -14.1261 -0.607317
      vertex -6.42388 -14.1261 -0.607317
    endloop
  endfacet
  facet normal 0 0.980795 0.19504
    outer loop
      vertex -123.576 -14.1261 -0.607317
      vertex -6.5 -14.05 -0.99
      vertex -123.5 -14.05 -0.99
    endloop
  endfacet
  facet normal -0 0.555596 0.831452
    outer loop
      vertex -123.793 -14.3429 -0.282893
      vertex -5.88268 -14.6673 -0.0661213
      vertex -6.20711 -14.3429 -0.282893
    endloop
  endfacet
  facet normal 0 0.555596 0.831452
    outer loop
      vertex -5.88268 -14.6673 -0.0661213
      vertex -123.793 -14.3429 -0.282893
      vertex -124.117 -14.6673 -0.0661213
    endloop
  endfacet
  facet normal -0 0.195098 0.980784
    outer loop
      vertex -124.117 -14.6673 -0.0661213
      vertex -5.55027 -14.9997 0
      vertex -5.88268 -14.6673 -0.0661213
    endloop
  endfacet
  facet normal 0 0.195098 0.980784
    outer loop
      vertex -5.55027 -14.9997 0
      vertex -124.117 -14.6673 -0.0661213
      vertex -124.45 -14.9997 0
    endloop
  endfacet
  facet normal 0 0.831438 0.555618
    outer loop
      vertex -6.42388 -14.1261 -0.607317
      vertex -123.793 -14.3429 -0.282893
      vertex -6.20711 -14.3429 -0.282893
    endloop
  endfacet
  facet normal 0 0.831438 0.555618
    outer loop
      vertex -123.793 -14.3429 -0.282893
      vertex -6.42388 -14.1261 -0.607317
      vertex -123.576 -14.1261 -0.607317
    endloop
  endfacet
  facet normal 0.831201 0 0.555972
    outer loop
      vertex -123.793 14.3429 -0.282893
      vertex -123.576 -14.1261 -0.607317
      vertex -123.576 14.1261 -0.607317
    endloop
  endfacet
  facet normal 0.831201 0 0.555972
    outer loop
      vertex -123.576 -14.1261 -0.607317
      vertex -123.793 14.3429 -0.282893
      vertex -123.793 -14.3429 -0.282893
    endloop
  endfacet
  facet normal 0.980844 0 0.194794
    outer loop
      vertex -123.576 14.1261 -0.607317
      vertex -123.5 -14.05 -0.99
      vertex -123.5 14.05 -0.99
    endloop
  endfacet
  facet normal 0.980844 0 0.194794
    outer loop
      vertex -123.5 -14.05 -0.99
      vertex -123.576 14.1261 -0.607317
      vertex -123.576 -14.1261 -0.607317
    endloop
  endfacet
  facet normal 0.19476 0 0.980851
    outer loop
      vertex -124.45 14.9997 0
      vertex -124.117 -14.6673 -0.0661213
      vertex -124.117 14.6673 -0.0661213
    endloop
  endfacet
  facet normal 0.19476 0 0.980851
    outer loop
      vertex -124.117 -14.6673 -0.0661213
      vertex -124.45 14.9997 0
      vertex -124.45 -14.9997 0
    endloop
  endfacet
  facet normal 0.55607 0 0.831136
    outer loop
      vertex -124.117 14.6673 -0.0661213
      vertex -123.793 -14.3429 -0.282893
      vertex -123.793 14.3429 -0.282893
    endloop
  endfacet
  facet normal 0.55607 0 0.831136
    outer loop
      vertex -123.793 -14.3429 -0.282893
      vertex -124.117 14.6673 -0.0661213
      vertex -124.117 -14.6673 -0.0661213
    endloop
  endfacet
  facet normal 0 -0.980795 0.19504
    outer loop
      vertex -123.5 14.05 -0.99
      vertex -6.42388 14.1261 -0.607317
      vertex -123.576 14.1261 -0.607317
    endloop
  endfacet
  facet normal 0 -0.980795 0.19504
    outer loop
      vertex -6.42388 14.1261 -0.607317
      vertex -123.5 14.05 -0.99
      vertex -6.5 14.05 -0.99
    endloop
  endfacet
  facet normal 0 -0.195098 0.980784
    outer loop
      vertex -5.55027 14.9997 0
      vertex -124.117 14.6673 -0.0661213
      vertex -5.88268 14.6673 -0.0661213
    endloop
  endfacet
  facet normal 0 -0.195098 0.980784
    outer loop
      vertex -124.117 14.6673 -0.0661213
      vertex -5.55027 14.9997 0
      vertex -124.45 14.9997 0
    endloop
  endfacet
  facet normal 0 -0.555596 0.831452
    outer loop
      vertex -5.88268 14.6673 -0.0661213
      vertex -123.793 14.3429 -0.282893
      vertex -6.20711 14.3429 -0.282893
    endloop
  endfacet
  facet normal 0 -0.555596 0.831452
    outer loop
      vertex -123.793 14.3429 -0.282893
      vertex -5.88268 14.6673 -0.0661213
      vertex -124.117 14.6673 -0.0661213
    endloop
  endfacet
  facet normal 0 -0.831438 0.555618
    outer loop
      vertex -123.576 14.1261 -0.607317
      vertex -6.20711 14.3429 -0.282893
      vertex -123.793 14.3429 -0.282893
    endloop
  endfacet
  facet normal 0 -0.831438 0.555618
    outer loop
      vertex -6.20711 14.3429 -0.282893
      vertex -123.576 14.1261 -0.607317
      vertex -6.42388 14.1261 -0.607317
    endloop
  endfacet
  facet normal -0.831473 0 0.555565
    outer loop
      vertex -6.42388 -14.1261 -0.607317
      vertex -6.20711 14.3429 -0.282893
      vertex -6.42388 14.1261 -0.607317
    endloop
  endfacet
  facet normal -0.831473 0 0.555565
    outer loop
      vertex -6.20711 14.3429 -0.282893
      vertex -6.42388 -14.1261 -0.607317
      vertex -6.20711 -14.3429 -0.282893
    endloop
  endfacet
  facet normal -0.195093 0 0.980785
    outer loop
      vertex -5.88268 14.6673 -0.0661213
      vertex -5.55027 -14.9997 0
      vertex -5.55027 14.9997 0
    endloop
  endfacet
  facet normal -0.195093 0 0.980785
    outer loop
      vertex -5.55027 -14.9997 0
      vertex -5.88268 14.6673 -0.0661213
      vertex -5.88268 -14.6673 -0.0661213
    endloop
  endfacet
  facet normal -0.980785 0 0.195089
    outer loop
      vertex -6.5 -14.05 -0.99
      vertex -6.42388 14.1261 -0.607317
      vertex -6.5 14.05 -0.99
    endloop
  endfacet
  facet normal -0.980785 0 0.195089
    outer loop
      vertex -6.42388 14.1261 -0.607317
      vertex -6.5 -14.05 -0.99
      vertex -6.42388 -14.1261 -0.607317
    endloop
  endfacet
  facet normal -0.55556 0 0.831476
    outer loop
      vertex -6.20711 14.3429 -0.282893
      vertex -5.88268 -14.6673 -0.0661213
      vertex -5.88268 14.6673 -0.0661213
    endloop
  endfacet
  facet normal -0.55556 0 0.831476
    outer loop
      vertex -5.88268 -14.6673 -0.0661213
      vertex -6.20711 14.3429 -0.282893
      vertex -6.20711 -14.3429 -0.282893
    endloop
  endfacet
  facet normal -1 0 0
    outer loop
      vertex -6.5 -14.05 -1.5
      vertex -6.5 14.05 -0.99
      vertex -6.5 14.05 -1.5
    endloop
  endfacet
  facet normal -1 -0 0
    outer loop
      vertex -6.5 14.05 -0.99
      vertex -6.5 -14.05 -1.5
      vertex -6.5 -14.05 -0.99
    endloop
  endfacet
  facet normal 1 -0 0
    outer loop
      vertex -123.5 -14.05 -0.99
      vertex -123.5 14.05 -1.5
      vertex -123.5 14.05 -0.99
    endloop
  endfacet
  facet normal 1 0 0
    outer loop
      vertex -123.5 14.05 -1.5
      vertex -123.5 -14.05 -0.99
      vertex -123.5 -14.05 -1.5
    endloop
  endfacet
  facet normal 0 -1 0
    outer loop
      vertex -123.5 14.05 -1.5
      vertex -6.5 14.05 -0.99
      vertex -123.5 14.05 -0.99
    endloop
  endfacet
  facet normal 0 -1 -0
    outer loop
      vertex -6.5 14.05 -0.99
      vertex -123.5 14.05 -1.5
      vertex -6.5 14.05 -1.5
    endloop
  endfacet
  facet normal 0 1 -0
    outer loop
      vertex -6.5 -14.05 -1.5
      vertex -123.5 -14.05 -0.99
      vertex -6.5 -14.05 -0.99
    endloop
  endfacet
  facet normal 0 1 0
    outer loop
      vertex -123.5 -14.05 -0.99
      vertex -6.5 -14.05 -1.5
      vertex -123.5 -14.05 -1.5
    endloop
  endfacet
  facet normal 0.6 0 -0.8
    outer loop
      vertex -0.666667 -19.65 -1.5
      vertex 0 19.65 -1
      vertex 0 -19.65 -1
    endloop
  endfacet
  facet normal 0.6 0 -0.8
    outer loop
      vertex 0 19.65 -1
      vertex -0.666667 -19.65 -1.5
      vertex -0.666667 19.65 -1.5
    endloop
  endfacet
  facet normal -0.6 0 0.8
    outer loop
      vertex -0.656667 19.65 -1.9925
      vertex 0 -19.65 -1.5
      vertex 0 19.65 -1.5
    endloop
  endfacet
  facet normal -0.6 0 0.8
    outer loop
      vertex 0 -19.65 -1.5
      vertex -0.656667 19.65 -1.9925
      vertex -0.656667 -19.65 -1.9925
    endloop
  endfacet
  facet normal 0 -1 0
    outer loop
      vertex -129.7 19.65 -2
      vertex -0.666667 19.65 -1.5
      vertex -129.7 19.65 -1.5
    endloop
  endfacet
  facet normal 0 -1 0
    outer loop
      vertex -0.666667 19.65 -1.5
      vertex -0.656667 19.65 -1.9925
      vertex 0 19.65 -1.5
    endloop
  endfacet
  facet normal 0 -1 0
    outer loop
      vertex -0.656667 19.65 -2
      vertex -0.666667 19.65 -1.5
      vertex -129.7 19.65 -2
    endloop
  endfacet
  facet normal 0 -1 0
    outer loop
      vertex -0.666667 19.65 -1.5
      vertex -0.656667 19.65 -2
      vertex -0.656667 19.65 -1.9925
    endloop
  endfacet
  facet normal 0 -1 -0
    outer loop
      vertex 0 19.65 -1
      vertex -0.666667 19.65 -1.5
      vertex 0 19.65 -1.5
    endloop
  endfacet
  facet normal 0 1 -0
    outer loop
      vertex 0 -19.65 -1.5
      vertex -0.666667 -19.65 -1.5
      vertex 0 -19.65 -1
    endloop
  endfacet
  facet normal 0 1 -0
    outer loop
      vertex -0.656667 -19.65 -1.9925
      vertex -0.666667 -19.65 -1.5
      vertex 0 -19.65 -1.5
    endloop
  endfacet
  facet normal 0 1 -0
    outer loop
      vertex -0.656667 -19.65 -2
      vertex -0.666667 -19.65 -1.5
      vertex -0.656667 -19.65 -1.9925
    endloop
  endfacet
  facet normal 0 1 0
    outer loop
      vertex -129.7 -19.65 -2
      vertex -0.666667 -19.65 -1.5
      vertex -0.656667 -19.65 -2
    endloop
  endfacet
  facet normal 0 1 0
    outer loop
      vertex -0.666667 -19.65 -1.5
      vertex -129.7 -19.65 -2
      vertex -129.7 -19.65 -1.5
    endloop
  endfacet
  facet normal -1 0 0
    outer loop
      vertex -0.656667 -19.65 -2
      vertex -0.656667 19.65 -1.9925
      vertex -0.656667 19.65 -2
    endloop
  endfacet
  facet normal -1 -0 0
    outer loop
      vertex -0.656667 19.65 -1.9925
      vertex -0.656667 -19.65 -2
      vertex -0.656667 -19.65 -1.9925
    endloop
  endfacet
  facet normal 0 0 -1
    outer loop
      vertex -0.666667 -19.65 -1.5
      vertex -6.5 -14.05 -1.5
      vertex -0.666667 19.65 -1.5
    endloop
  endfacet
  facet normal 0 0 -1
    outer loop
      vertex -0.666667 -19.65 -1.5
      vertex -123.5 -14.05 -1.5
      vertex -6.5 -14.05 -1.5
    endloop
  endfacet
  facet normal -0 0 -1
    outer loop
      vertex -123.5 -14.05 -1.5
      vertex -129.7 -19.65 -1.5
      vertex -123.5 14.05 -1.5
    endloop
  endfacet
  facet normal 0 0 -1
    outer loop
      vertex -129.7 -19.65 -1.5
      vertex -123.5 -14.05 -1.5
      vertex -0.666667 -19.65 -1.5
    endloop
  endfacet
  facet normal 0 0 -1
    outer loop
      vertex -6.5 14.05 -1.5
      vertex -0.666667 19.65 -1.5
      vertex -6.5 -14.05 -1.5
    endloop
  endfacet
  facet normal 0 0 -1
    outer loop
      vertex -123.5 14.05 -1.5
      vertex -0.666667 19.65 -1.5
      vertex -6.5 14.05 -1.5
    endloop
  endfacet
  facet normal 0 0 -1
    outer loop
      vertex -123.5 14.05 -1.5
      vertex -129.7 19.65 -1.5
      vertex -0.666667 19.65 -1.5
    endloop
  endfacet
  facet normal 0 0 -1
    outer loop
      vertex -129.7 19.65 -1.5
      vertex -123.5 14.05 -1.5
      vertex -129.7 -19.65 -1.5
    endloop
  endfacet
  facet normal -0 0 1
    outer loop
      vertex -129.7 19.65 -2
      vertex -0.656667 -19.65 -2
      vertex -0.656667 19.65 -2
    endloop
  endfacet
  facet normal 0 0 1
    outer loop
      vertex -0.656667 -19.65 -2
      vertex -129.7 19.65 -2
      vertex -129.7 -19.65 -2
    endloop
  endfacet
  facet normal 0.314514 0.3145 -0.89564
    outer loop
      vertex -0.617317 20.15 -3.42388
      vertex -1 20.5327 -3.42388
      vertex -0.5 20.65 -3.20711
    endloop
  endfacet
  facet normal -0.191327 0.191477 -0.962668
    outer loop
      vertex -130.2 20.15 -3.5
      vertex -130.583 20.15 -3.42388
      vertex -130.2 20.5327 -3.42388
    endloop
  endfacet
  facet normal -0.556067 0 -0.831138
    outer loop
      vertex -130.907 -20.15 -3.20711
      vertex -130.583 20.15 -3.42388
      vertex -130.583 -20.15 -3.42388
    endloop
  endfacet
  facet normal -0.556067 0 -0.831138
    outer loop
      vertex -130.583 20.15 -3.42388
      vertex -130.907 -20.15 -3.20711
      vertex -130.907 20.15 -3.20711
    endloop
  endfacet
  facet normal 0.314514 -0.3145 -0.89564
    outer loop
      vertex -0.5 -20.65 -3.20711
      vertex -1 -20.5327 -3.42388
      vertex -0.617317 -20.15 -3.42388
    endloop
  endfacet
  facet normal -0.831206 0 -0.555965
    outer loop
      vertex -130.907 -20.15 -3.20711
      vertex -131.124 20.15 -2.88268
      vertex -130.907 20.15 -3.20711
    endloop
  endfacet
  facet normal -0.831206 -0 -0.555965
    outer loop
      vertex -131.124 20.15 -2.88268
      vertex -130.907 -20.15 -3.20711
      vertex -131.124 -20.15 -2.88268
    endloop
  endfacet
  facet normal -0.224266 -0.541444 0.810274
    outer loop
      vertex -130.2 -20.5327 -0.0761213
      vertex -130.7 -20.65 -0.292893
      vertex -130.2 -20.8571 -0.292893
    endloop
  endfacet
  facet normal 0.224265 0.541441 -0.810276
    outer loop
      vertex -0.5 20.65 -3.20711
      vertex -1 20.5327 -3.42388
      vertex -1 20.8571 -3.20711
    endloop
  endfacet
  facet normal 0 0 -1
    outer loop
      vertex -130.2 -20.15 -3.5
      vertex -1 20.15 -3.5
      vertex -1 -20.15 -3.5
    endloop
  endfacet
  facet normal -0 0 -1
    outer loop
      vertex -1 20.15 -3.5
      vertex -130.2 -20.15 -3.5
      vertex -130.2 20.15 -3.5
    endloop
  endfacet
  facet normal -0.194934 0 -0.980816
    outer loop
      vertex -130.583 -20.15 -3.42388
      vertex -130.2 20.15 -3.5
      vertex -130.2 -20.15 -3.5
    endloop
  endfacet
  facet normal -0.194934 0 -0.980816
    outer loop
      vertex -130.2 20.15 -3.5
      vertex -130.583 -20.15 -3.42388
      vertex -130.583 20.15 -3.42388
    endloop
  endfacet
  facet normal 0.980785 -0 0.195093
    outer loop
      vertex -0.0761213 -20.15 -0.617317
      vertex 0 20.15 -1
      vertex -0.0761213 20.15 -0.617317
    endloop
  endfacet
  facet normal 0.980785 0 0.195093
    outer loop
      vertex 0 20.15 -1
      vertex -0.0761213 -20.15 -0.617317
      vertex 0 -20.15 -1
    endloop
  endfacet
  facet normal 0 0 1
    outer loop
      vertex -1 20.15 0
      vertex -5.55027 14.9997 0
      vertex -1 -20.15 0
    endloop
  endfacet
  facet normal 0 0 1
    outer loop
      vertex -1 20.15 0
      vertex -124.45 14.9997 0
      vertex -5.55027 14.9997 0
    endloop
  endfacet
  facet normal 0 0 1
    outer loop
      vertex -124.45 14.9997 0
      vertex -130.2 20.15 0
      vertex -124.45 -14.9997 0
    endloop
  endfacet
  facet normal -0 0 1
    outer loop
      vertex -130.2 20.15 0
      vertex -124.45 14.9997 0
      vertex -1 20.15 0
    endloop
  endfacet
  facet normal -0 0 1
    outer loop
      vertex -5.55027 -14.9997 0
      vertex -1 -20.15 0
      vertex -5.55027 14.9997 0
    endloop
  endfacet
  facet normal -0 0 1
    outer loop
      vertex -124.45 -14.9997 0
      vertex -1 -20.15 0
      vertex -5.55027 -14.9997 0
    endloop
  endfacet
  facet normal 0 0 1
    outer loop
      vertex -124.45 -14.9997 0
      vertex -130.2 -20.15 0
      vertex -1 -20.15 0
    endloop
  endfacet
  facet normal 0 0 1
    outer loop
      vertex -130.2 -20.15 0
      vertex -124.45 -14.9997 0
      vertex -130.2 20.15 0
    endloop
  endfacet
  facet normal 0.555618 0.831438 -0
    outer loop
      vertex -0.292893 20.8571 -2.5
      vertex -0.617317 21.0739 -1
      vertex -0.292893 20.8571 -1
    endloop
  endfacet
  facet normal 0.555618 0.831438 0
    outer loop
      vertex -0.617317 21.0739 -1
      vertex -0.292893 20.8571 -2.5
      vertex -0.617317 21.0739 -2.5
    endloop
  endfacet
  facet normal -0.55607 0 0.831136
    outer loop
      vertex -130.907 20.15 -0.292893
      vertex -130.583 -20.15 -0.0761213
      vertex -130.583 20.15 -0.0761213
    endloop
  endfacet
  facet normal -0.55607 0 0.831136
    outer loop
      vertex -130.583 -20.15 -0.0761213
      vertex -130.907 20.15 -0.292893
      vertex -130.907 -20.15 -0.292893
    endloop
  endfacet
  facet normal 0.718028 -0.297417 0.629269
    outer loop
      vertex -0.292893 -20.15 -0.292893
      vertex -0.5 -20.65 -0.292893
      vertex -0.199898 -20.6119 -0.617317
    endloop
  endfacet
  facet normal 0.195089 0 -0.980785
    outer loop
      vertex -1 -20.15 -3.5
      vertex -0.617317 20.15 -3.42388
      vertex -0.617317 -20.15 -3.42388
    endloop
  endfacet
  facet normal 0.195089 0 -0.980785
    outer loop
      vertex -0.617317 20.15 -3.42388
      vertex -1 -20.15 -3.5
      vertex -1 20.15 -3.5
    endloop
  endfacet
  facet normal 0.962638 0.191474 -0.191484
    outer loop
      vertex 0 20.15 -2.5
      vertex -0.0761213 20.15 -2.88268
      vertex -0.0761213 20.5327 -2.5
    endloop
  endfacet
  facet normal 0.831471 -0 0.555568
    outer loop
      vertex -0.292893 -20.15 -0.292893
      vertex -0.0761213 20.15 -0.617317
      vertex -0.292893 20.15 -0.292893
    endloop
  endfacet
  facet normal 0.831471 0 0.555568
    outer loop
      vertex -0.0761213 20.15 -0.617317
      vertex -0.292893 -20.15 -0.292893
      vertex -0.0761213 -20.15 -0.617317
    endloop
  endfacet
  facet normal -0.55612 0.831102 0
    outer loop
      vertex -130.583 21.0739 -2.5
      vertex -130.907 20.8571 -1
      vertex -130.583 21.0739 -1
    endloop
  endfacet
  facet normal -0.55612 0.831102 0
    outer loop
      vertex -130.907 20.8571 -1
      vertex -130.583 21.0739 -2.5
      vertex -130.907 20.8571 -2.5
    endloop
  endfacet
  facet normal 0.195093 0 0.980785
    outer loop
      vertex -1 20.15 0
      vertex -0.617317 -20.15 -0.0761213
      vertex -0.617317 20.15 -0.0761213
    endloop
  endfacet
  facet normal 0.195093 0 0.980785
    outer loop
      vertex -0.617317 -20.15 -0.0761213
      vertex -1 20.15 0
      vertex -1 -20.15 0
    endloop
  endfacet
  facet normal -0.614223 0.613859 0.49589
    outer loop
      vertex -130.662 20.9501 -0.617317
      vertex -131 20.6119 -0.617317
      vertex -130.7 20.65 -0.292893
    endloop
  endfacet
  facet normal 0.217493 0.811539 -0.54231
    outer loop
      vertex -0.538061 20.9501 -2.88268
      vertex -1 20.8571 -3.20711
      vertex -1 21.0739 -2.88268
    endloop
  endfacet
  facet normal -0 0.195084 0.980786
    outer loop
      vertex -130.2 20.5327 -0.0761213
      vertex -1 20.15 0
      vertex -1 20.5327 -0.0761213
    endloop
  endfacet
  facet normal 0 0.195084 0.980786
    outer loop
      vertex -1 20.15 0
      vertex -130.2 20.5327 -0.0761213
      vertex -130.2 20.15 0
    endloop
  endfacet
  facet normal -0.821466 0.549501 -0.152455
    outer loop
      vertex -131 20.6119 -2.88268
      vertex -131.124 20.5327 -2.5
      vertex -130.907 20.8571 -2.5
    endloop
  endfacet
  facet normal 0.9351 -0.250581 -0.250594
    outer loop
      vertex -0.0761213 -20.5327 -2.5
      vertex -0.199898 -20.6119 -2.88268
      vertex -0.0761213 -20.15 -2.88268
    endloop
  endfacet
  facet normal -0.718154 -0.297316 0.629172
    outer loop
      vertex -130.907 -20.15 -0.292893
      vertex -131 -20.6119 -0.617317
      vertex -130.7 -20.65 -0.292893
    endloop
  endfacet
  facet normal 0.191433 0.962656 0.191433
    outer loop
      vertex -1 21.15 -1
      vertex -1 21.0739 -0.617317
      vertex -0.617317 21.0739 -1
    endloop
  endfacet
  facet normal -0.541893 0.224344 -0.809952
    outer loop
      vertex -130.583 20.15 -3.42388
      vertex -130.907 20.15 -3.20711
      vertex -130.7 20.65 -3.20711
    endloop
  endfacet
  facet normal 0.980786 0.195084 0
    outer loop
      vertex 0 20.15 -1
      vertex -0.0761213 20.5327 -2.5
      vertex -0.0761213 20.5327 -1
    endloop
  endfacet
  facet normal 0.980786 0.195084 0
    outer loop
      vertex -0.0761213 20.5327 -2.5
      vertex 0 20.15 -1
      vertex 0 20.15 -2.5
    endloop
  endfacet
  facet normal -0.934888 0.250977 -0.25099
    outer loop
      vertex -131 20.6119 -2.88268
      vertex -131.124 20.15 -2.88268
      vertex -131.124 20.5327 -2.5
    endloop
  endfacet
  facet normal 0.9351 0.250582 0.250593
    outer loop
      vertex -0.0761213 20.5327 -1
      vertex -0.199898 20.6119 -0.617317
      vertex -0.0761213 20.15 -0.617317
    endloop
  endfacet
  facet normal 0.680742 -0.680668 0.270705
    outer loop
      vertex -0.199898 -20.6119 -0.617317
      vertex -0.538061 -20.9501 -0.617317
      vertex -0.292893 -20.8571 -1
    endloop
  endfacet
  facet normal -0.194937 0 0.980816
    outer loop
      vertex -130.583 20.15 -0.0761213
      vertex -130.2 -20.15 0
      vertex -130.2 20.15 0
    endloop
  endfacet
  facet normal -0.194937 0 0.980816
    outer loop
      vertex -130.2 -20.15 0
      vertex -130.583 20.15 -0.0761213
      vertex -130.583 -20.15 -0.0761213
    endloop
  endfacet
  facet normal 0.980785 0 -0.195094
    outer loop
      vertex 0 -20.15 -2.5
      vertex -0.0761213 20.15 -2.88268
      vertex 0 20.15 -2.5
    endloop
  endfacet
  facet normal 0.980785 0 -0.195094
    outer loop
      vertex -0.0761213 20.15 -2.88268
      vertex 0 -20.15 -2.5
      vertex -0.0761213 -20.15 -2.88268
    endloop
  endfacet
  facet normal -1 0 0
    outer loop
      vertex -131.2 -20.15 -2.5
      vertex -131.2 20.15 -1
      vertex -131.2 20.15 -2.5
    endloop
  endfacet
  facet normal -1 -0 0
    outer loop
      vertex -131.2 20.15 -1
      vertex -131.2 -20.15 -2.5
      vertex -131.2 -20.15 -1
    endloop
  endfacet
  facet normal 0.555568 0 0.831471
    outer loop
      vertex -0.617317 20.15 -0.0761213
      vertex -0.292893 -20.15 -0.292893
      vertex -0.292893 20.15 -0.292893
    endloop
  endfacet
  facet normal 0.555568 0 0.831471
    outer loop
      vertex -0.292893 -20.15 -0.292893
      vertex -0.617317 20.15 -0.0761213
      vertex -0.617317 -20.15 -0.0761213
    endloop
  endfacet
  facet normal -0.224266 0.541444 0.810274
    outer loop
      vertex -130.2 20.8571 -0.292893
      vertex -130.7 20.65 -0.292893
      vertex -130.2 20.5327 -0.0761213
    endloop
  endfacet
  facet normal -0.250563 0.935057 0.250771
    outer loop
      vertex -130.583 21.0739 -1
      vertex -130.662 20.9501 -0.617317
      vertex -130.2 21.0739 -0.617317
    endloop
  endfacet
  facet normal 0.680742 0.680667 -0.270707
    outer loop
      vertex -0.199898 20.6119 -2.88268
      vertex -0.538061 20.9501 -2.88268
      vertex -0.292893 20.8571 -2.5
    endloop
  endfacet
  facet normal 0 0.980795 -0.195042
    outer loop
      vertex -1 21.0739 -2.88268
      vertex -130.2 21.15 -2.5
      vertex -1 21.15 -2.5
    endloop
  endfacet
  facet normal 0 0.980795 -0.195042
    outer loop
      vertex -130.2 21.15 -2.5
      vertex -1 21.0739 -2.88268
      vertex -130.2 21.0739 -2.88268
    endloop
  endfacet
  facet normal -0.250563 -0.935057 -0.250772
    outer loop
      vertex -130.583 -21.0739 -2.5
      vertex -130.662 -20.9501 -2.88268
      vertex -130.2 -21.0739 -2.88268
    endloop
  endfacet
  facet normal -0.980844 0 -0.194795
    outer loop
      vertex -131.124 -20.15 -2.88268
      vertex -131.2 20.15 -2.5
      vertex -131.124 20.15 -2.88268
    endloop
  endfacet
  facet normal -0.980844 -0 -0.194795
    outer loop
      vertex -131.2 20.15 -2.5
      vertex -131.124 -20.15 -2.88268
      vertex -131.2 -20.15 -2.5
    endloop
  endfacet
  facet normal -0.19133 -0.19148 0.962667
    outer loop
      vertex -130.2 -20.15 0
      vertex -130.583 -20.15 -0.0761213
      vertex -130.2 -20.5327 -0.0761213
    endloop
  endfacet
  facet normal -0 0.555596 0.831452
    outer loop
      vertex -130.2 20.8571 -0.292893
      vertex -1 20.5327 -0.0761213
      vertex -1 20.8571 -0.292893
    endloop
  endfacet
  facet normal 0 0.555596 0.831452
    outer loop
      vertex -1 20.5327 -0.0761213
      vertex -130.2 20.8571 -0.292893
      vertex -130.2 20.5327 -0.0761213
    endloop
  endfacet
  facet normal 0.191483 0.191474 0.962638
    outer loop
      vertex -1 20.5327 -0.0761213
      vertex -1 20.15 0
      vertex -0.617317 20.15 -0.0761213
    endloop
  endfacet
  facet normal 0.541417 0.224262 0.810293
    outer loop
      vertex -0.5 20.65 -0.292893
      vertex -0.617317 20.15 -0.0761213
      vertex -0.292893 20.15 -0.292893
    endloop
  endfacet
  facet normal -0.191327 -0.191477 -0.962668
    outer loop
      vertex -130.2 -20.5327 -3.42388
      vertex -130.583 -20.15 -3.42388
      vertex -130.2 -20.15 -3.5
    endloop
  endfacet
  facet normal 0.541414 0.224261 -0.810295
    outer loop
      vertex -0.292893 20.15 -3.20711
      vertex -0.617317 20.15 -3.42388
      vertex -0.5 20.65 -3.20711
    endloop
  endfacet
  facet normal 0.680742 0.680668 0.270705
    outer loop
      vertex -0.292893 20.8571 -1
      vertex -0.538061 20.9501 -0.617317
      vertex -0.199898 20.6119 -0.617317
    endloop
  endfacet
  facet normal -0.831201 0 0.555972
    outer loop
      vertex -131.124 -20.15 -0.617317
      vertex -130.907 20.15 -0.292893
      vertex -131.124 20.15 -0.617317
    endloop
  endfacet
  facet normal -0.831201 0 0.555972
    outer loop
      vertex -130.907 20.15 -0.292893
      vertex -131.124 -20.15 -0.617317
      vertex -130.907 -20.15 -0.292893
    endloop
  endfacet
  facet normal -0.980844 0 0.194794
    outer loop
      vertex -131.2 -20.15 -1
      vertex -131.124 20.15 -0.617317
      vertex -131.2 20.15 -1
    endloop
  endfacet
  facet normal -0.980844 0 0.194794
    outer loop
      vertex -131.124 20.15 -0.617317
      vertex -131.2 -20.15 -1
      vertex -131.124 -20.15 -0.617317
    endloop
  endfacet
  facet normal 1 0 0
    outer loop
      vertex 0 -19.65 -1
      vertex 0 -20.15 -1
      vertex 0 -19.65 -1.5
    endloop
  endfacet
  facet normal 1 0 0
    outer loop
      vertex 0 19.65 -1.5
      vertex 0 20.15 -1
      vertex 0 19.65 -1
    endloop
  endfacet
  facet normal 1 0 0
    outer loop
      vertex 0 20.15 -1
      vertex 0 19.65 -1.5
      vertex 0 20.15 -2.5
    endloop
  endfacet
  facet normal 1 -0 0
    outer loop
      vertex 0 -19.65 -1.5
      vertex 0 20.15 -2.5
      vertex 0 19.65 -1.5
    endloop
  endfacet
  facet normal 1 0 0
    outer loop
      vertex 0 -19.65 -1.5
      vertex 0 -20.15 -2.5
      vertex 0 20.15 -2.5
    endloop
  endfacet
  facet normal 1 0 0
    outer loop
      vertex 0 -20.15 -2.5
      vertex 0 -19.65 -1.5
      vertex 0 -20.15 -1
    endloop
  endfacet
  facet normal 0 0 -0
    outer loop
      vertex 0 19.65 -1
      vertex 0 20.15 -1
      vertex 0 -20.15 -1
    endloop
  endfacet
  facet normal 0 0 0
    outer loop
      vertex 0 -20.15 -1
      vertex 0 -19.65 -1
      vertex 0 19.65 -1
    endloop
  endfacet
  facet normal 0.549152 0.821763 0.152112
    outer loop
      vertex -0.292893 20.8571 -1
      vertex -0.617317 21.0739 -1
      vertex -0.538061 20.9501 -0.617317
    endloop
  endfacet
  facet normal 0.680742 -0.680667 -0.270707
    outer loop
      vertex -0.292893 -20.8571 -2.5
      vertex -0.538061 -20.9501 -2.88268
      vertex -0.199898 -20.6119 -2.88268
    endloop
  endfacet
  facet normal -0.96275 0.191192 0.1912
    outer loop
      vertex -131.124 20.5327 -1
      vertex -131.2 20.15 -1
      vertex -131.124 20.15 -0.617317
    endloop
  endfacet
  facet normal 0 0.831443 -0.555611
    outer loop
      vertex -1 20.8571 -3.20711
      vertex -130.2 21.0739 -2.88268
      vertex -1 21.0739 -2.88268
    endloop
  endfacet
  facet normal 0 0.831443 -0.555611
    outer loop
      vertex -130.2 21.0739 -2.88268
      vertex -1 20.8571 -3.20711
      vertex -130.2 20.8571 -3.20711
    endloop
  endfacet
  facet normal -0.71816 -0.297318 -0.629165
    outer loop
      vertex -130.7 -20.65 -3.20711
      vertex -131 -20.6119 -2.88268
      vertex -130.907 -20.15 -3.20711
    endloop
  endfacet
  facet normal -0.96275 -0.191192 -0.191202
    outer loop
      vertex -131.124 -20.5327 -2.5
      vertex -131.2 -20.15 -2.5
      vertex -131.124 -20.15 -2.88268
    endloop
  endfacet
  facet normal 0.541417 -0.224262 0.810293
    outer loop
      vertex -0.292893 -20.15 -0.292893
      vertex -0.617317 -20.15 -0.0761213
      vertex -0.5 -20.65 -0.292893
    endloop
  endfacet
  facet normal 0.614063 -0.613996 0.49592
    outer loop
      vertex -0.5 -20.65 -0.292893
      vertex -0.538061 -20.9501 -0.617317
      vertex -0.199898 -20.6119 -0.617317
    endloop
  endfacet
  facet normal -0.81125 -0.217785 0.542627
    outer loop
      vertex -130.907 -20.15 -0.292893
      vertex -131.124 -20.15 -0.617317
      vertex -131 -20.6119 -0.617317
    endloop
  endfacet
  facet normal 0 0.555593 -0.831454
    outer loop
      vertex -130.2 20.5327 -3.42388
      vertex -1 20.8571 -3.20711
      vertex -1 20.5327 -3.42388
    endloop
  endfacet
  facet normal 0 0.555593 -0.831454
    outer loop
      vertex -1 20.8571 -3.20711
      vertex -130.2 20.5327 -3.42388
      vertex -130.2 20.8571 -3.20711
    endloop
  endfacet
  facet normal 0.831476 0 -0.55556
    outer loop
      vertex -0.0761213 -20.15 -2.88268
      vertex -0.292893 20.15 -3.20711
      vertex -0.0761213 20.15 -2.88268
    endloop
  endfacet
  facet normal 0.831476 0 -0.55556
    outer loop
      vertex -0.292893 20.15 -3.20711
      vertex -0.0761213 -20.15 -2.88268
      vertex -0.292893 -20.15 -3.20711
    endloop
  endfacet
  facet normal 0.19148 -0.191471 -0.962639
    outer loop
      vertex -0.617317 -20.15 -3.42388
      vertex -1 -20.5327 -3.42388
      vertex -1 -20.15 -3.5
    endloop
  endfacet
  facet normal 0 0.831438 0.555618
    outer loop
      vertex -1 21.0739 -0.617317
      vertex -130.2 20.8571 -0.292893
      vertex -1 20.8571 -0.292893
    endloop
  endfacet
  facet normal 0 0.831438 0.555618
    outer loop
      vertex -130.2 20.8571 -0.292893
      vertex -1 21.0739 -0.617317
      vertex -130.2 21.0739 -0.617317
    endloop
  endfacet
  facet normal 0.821772 0.549127 -0.152151
    outer loop
      vertex -0.199898 20.6119 -2.88268
      vertex -0.292893 20.8571 -2.5
      vertex -0.0761213 20.5327 -2.5
    endloop
  endfacet
  facet normal 0.297402 0.718015 0.62929
    outer loop
      vertex -0.538061 20.9501 -0.617317
      vertex -1 20.8571 -0.292893
      vertex -0.5 20.65 -0.292893
    endloop
  endfacet
  facet normal 0.614063 0.613996 0.49592
    outer loop
      vertex -0.199898 20.6119 -0.617317
      vertex -0.538061 20.9501 -0.617317
      vertex -0.5 20.65 -0.292893
    endloop
  endfacet
  facet normal -0.224265 0.541441 -0.810276
    outer loop
      vertex -130.2 20.5327 -3.42388
      vertex -130.7 20.65 -3.20711
      vertex -130.2 20.8571 -3.20711
    endloop
  endfacet
  facet normal -0.314449 0.314695 -0.895594
    outer loop
      vertex -130.583 20.15 -3.42388
      vertex -130.7 20.65 -3.20711
      vertex -130.2 20.5327 -3.42388
    endloop
  endfacet
  facet normal -0.96275 0.191192 -0.191202
    outer loop
      vertex -131.124 20.15 -2.88268
      vertex -131.2 20.15 -2.5
      vertex -131.124 20.5327 -2.5
    endloop
  endfacet
  facet normal -0.831182 0.556 0
    outer loop
      vertex -131.124 20.5327 -2.5
      vertex -130.907 20.8571 -1
      vertex -130.907 20.8571 -2.5
    endloop
  endfacet
  facet normal -0.831182 0.556 0
    outer loop
      vertex -130.907 20.8571 -1
      vertex -131.124 20.5327 -2.5
      vertex -131.124 20.5327 -1
    endloop
  endfacet
  facet normal -0.297394 0.717995 -0.629317
    outer loop
      vertex -130.2 20.8571 -3.20711
      vertex -130.7 20.65 -3.20711
      vertex -130.662 20.9501 -2.88268
    endloop
  endfacet
  facet normal -0.614225 0.613862 -0.495883
    outer loop
      vertex -130.7 20.65 -3.20711
      vertex -131 20.6119 -2.88268
      vertex -130.662 20.9501 -2.88268
    endloop
  endfacet
  facet normal 0.9351 0.250581 -0.250594
    outer loop
      vertex -0.0761213 20.15 -2.88268
      vertex -0.199898 20.6119 -2.88268
      vertex -0.0761213 20.5327 -2.5
    endloop
  endfacet
  facet normal 0.811575 0.21748 -0.542263
    outer loop
      vertex -0.0761213 20.15 -2.88268
      vertex -0.292893 20.15 -3.20711
      vertex -0.199898 20.6119 -2.88268
    endloop
  endfacet
  facet normal 0.19148 0.191471 -0.962639
    outer loop
      vertex -0.617317 20.15 -3.42388
      vertex -1 20.15 -3.5
      vertex -1 20.5327 -3.42388
    endloop
  endfacet
  facet normal 0 0.195081 -0.980787
    outer loop
      vertex -130.2 20.15 -3.5
      vertex -1 20.5327 -3.42388
      vertex -1 20.15 -3.5
    endloop
  endfacet
  facet normal 0 0.195081 -0.980787
    outer loop
      vertex -1 20.5327 -3.42388
      vertex -130.2 20.15 -3.5
      vertex -130.2 20.5327 -3.42388
    endloop
  endfacet
  facet normal -0.217466 -0.811544 -0.542314
    outer loop
      vertex -130.2 -21.0739 -2.88268
      vertex -130.662 -20.9501 -2.88268
      vertex -130.2 -20.8571 -3.20711
    endloop
  endfacet
  facet normal 0.614066 -0.613998 -0.495913
    outer loop
      vertex -0.199898 -20.6119 -2.88268
      vertex -0.538061 -20.9501 -2.88268
      vertex -0.5 -20.65 -3.20711
    endloop
  endfacet
  facet normal 0.555565 0 -0.831473
    outer loop
      vertex -0.617317 -20.15 -3.42388
      vertex -0.292893 20.15 -3.20711
      vertex -0.292893 -20.15 -3.20711
    endloop
  endfacet
  facet normal 0.555565 0 -0.831473
    outer loop
      vertex -0.292893 20.15 -3.20711
      vertex -0.617317 -20.15 -3.42388
      vertex -0.617317 20.15 -3.42388
    endloop
  endfacet
  facet normal -0.541896 0.224345 0.80995
    outer loop
      vertex -130.7 20.65 -0.292893
      vertex -130.907 20.15 -0.292893
      vertex -130.583 20.15 -0.0761213
    endloop
  endfacet
  facet normal 0.224266 0.541444 0.810274
    outer loop
      vertex -1 20.8571 -0.292893
      vertex -1 20.5327 -0.0761213
      vertex -0.5 20.65 -0.292893
    endloop
  endfacet
  facet normal 0.314516 0.314502 0.895638
    outer loop
      vertex -0.5 20.65 -0.292893
      vertex -1 20.5327 -0.0761213
      vertex -0.617317 20.15 -0.0761213
    endloop
  endfacet
  facet normal 0.297404 0.71802 -0.629283
    outer loop
      vertex -0.5 20.65 -3.20711
      vertex -1 20.8571 -3.20711
      vertex -0.538061 20.9501 -2.88268
    endloop
  endfacet
  facet normal 0.191433 0.962656 -0.191434
    outer loop
      vertex -0.617317 21.0739 -2.5
      vertex -1 21.0739 -2.88268
      vertex -1 21.15 -2.5
    endloop
  endfacet
  facet normal -0.71816 0.297318 -0.629165
    outer loop
      vertex -130.907 20.15 -3.20711
      vertex -131 20.6119 -2.88268
      vertex -130.7 20.65 -3.20711
    endloop
  endfacet
  facet normal -0.811254 0.217786 -0.54262
    outer loop
      vertex -130.907 20.15 -3.20711
      vertex -131.124 20.15 -2.88268
      vertex -131 20.6119 -2.88268
    endloop
  endfacet
  facet normal 0.614066 0.613998 -0.495913
    outer loop
      vertex -0.5 20.65 -3.20711
      vertex -0.538061 20.9501 -2.88268
      vertex -0.199898 20.6119 -2.88268
    endloop
  endfacet
  facet normal 0.718033 0.297419 -0.629262
    outer loop
      vertex -0.292893 20.15 -3.20711
      vertex -0.5 20.65 -3.20711
      vertex -0.199898 20.6119 -2.88268
    endloop
  endfacet
  facet normal -0.314449 -0.314695 -0.895594
    outer loop
      vertex -130.2 -20.5327 -3.42388
      vertex -130.7 -20.65 -3.20711
      vertex -130.583 -20.15 -3.42388
    endloop
  endfacet
  facet normal -0.821466 -0.549501 0.152453
    outer loop
      vertex -131 -20.6119 -0.617317
      vertex -131.124 -20.5327 -1
      vertex -130.907 -20.8571 -1
    endloop
  endfacet
  facet normal 0.81157 -0.217479 0.54227
    outer loop
      vertex -0.0761213 -20.15 -0.617317
      vertex -0.292893 -20.15 -0.292893
      vertex -0.199898 -20.6119 -0.617317
    endloop
  endfacet
  facet normal 0 -0.980795 0.19504
    outer loop
      vertex -130.2 -21.15 -1
      vertex -1 -21.0739 -0.617317
      vertex -130.2 -21.0739 -0.617317
    endloop
  endfacet
  facet normal 0 -0.980795 0.19504
    outer loop
      vertex -1 -21.0739 -0.617317
      vertex -130.2 -21.15 -1
      vertex -1 -21.15 -1
    endloop
  endfacet
  facet normal 0 -0.831438 0.555618
    outer loop
      vertex -130.2 -21.0739 -0.617317
      vertex -1 -20.8571 -0.292893
      vertex -130.2 -20.8571 -0.292893
    endloop
  endfacet
  facet normal 0 -0.831438 0.555618
    outer loop
      vertex -1 -20.8571 -0.292893
      vertex -130.2 -21.0739 -0.617317
      vertex -1 -21.0739 -0.617317
    endloop
  endfacet
  facet normal -0.549635 0.821411 0.152266
    outer loop
      vertex -130.583 21.0739 -1
      vertex -130.907 20.8571 -1
      vertex -130.662 20.9501 -0.617317
    endloop
  endfacet
  facet normal 0.821772 0.549127 0.15215
    outer loop
      vertex -0.0761213 20.5327 -1
      vertex -0.292893 20.8571 -1
      vertex -0.199898 20.6119 -0.617317
    endloop
  endfacet
  facet normal -0.19128 0.962685 0.191439
    outer loop
      vertex -130.2 21.15 -1
      vertex -130.583 21.0739 -1
      vertex -130.2 21.0739 -0.617317
    endloop
  endfacet
  facet normal 0 0.980795 0.19504
    outer loop
      vertex -1 21.15 -1
      vertex -130.2 21.0739 -0.617317
      vertex -1 21.0739 -0.617317
    endloop
  endfacet
  facet normal 0 0.980795 0.19504
    outer loop
      vertex -130.2 21.0739 -0.617317
      vertex -1 21.15 -1
      vertex -130.2 21.15 -1
    endloop
  endfacet
  facet normal -0.19128 0.962685 -0.19144
    outer loop
      vertex -130.2 21.0739 -2.88268
      vertex -130.583 21.0739 -2.5
      vertex -130.2 21.15 -2.5
    endloop
  endfacet
  facet normal -0.31445 0.314697 0.895593
    outer loop
      vertex -130.2 20.5327 -0.0761213
      vertex -130.7 20.65 -0.292893
      vertex -130.583 20.15 -0.0761213
    endloop
  endfacet
  facet normal 0.718028 0.297417 0.629269
    outer loop
      vertex -0.199898 20.6119 -0.617317
      vertex -0.5 20.65 -0.292893
      vertex -0.292893 20.15 -0.292893
    endloop
  endfacet
  facet normal 0.81157 0.217479 0.54227
    outer loop
      vertex -0.199898 20.6119 -0.617317
      vertex -0.292893 20.15 -0.292893
      vertex -0.0761213 20.15 -0.617317
    endloop
  endfacet
  facet normal 0.250605 0.93509 -0.250607
    outer loop
      vertex -0.538061 20.9501 -2.88268
      vertex -1 21.0739 -2.88268
      vertex -0.617317 21.0739 -2.5
    endloop
  endfacet
  facet normal 0.549152 0.821763 -0.152113
    outer loop
      vertex -0.538061 20.9501 -2.88268
      vertex -0.617317 21.0739 -2.5
      vertex -0.292893 20.8571 -2.5
    endloop
  endfacet
  facet normal -0.224265 -0.541441 -0.810276
    outer loop
      vertex -130.2 -20.8571 -3.20711
      vertex -130.7 -20.65 -3.20711
      vertex -130.2 -20.5327 -3.42388
    endloop
  endfacet
  facet normal 0 -0.831443 -0.555611
    outer loop
      vertex -130.2 -20.8571 -3.20711
      vertex -1 -21.0739 -2.88268
      vertex -130.2 -21.0739 -2.88268
    endloop
  endfacet
  facet normal 0 -0.831443 -0.555611
    outer loop
      vertex -1 -21.0739 -2.88268
      vertex -130.2 -20.8571 -3.20711
      vertex -1 -20.8571 -3.20711
    endloop
  endfacet
  facet normal 0.9351 -0.250582 0.250593
    outer loop
      vertex -0.0761213 -20.15 -0.617317
      vertex -0.199898 -20.6119 -0.617317
      vertex -0.0761213 -20.5327 -1
    endloop
  endfacet
  facet normal 0.314516 -0.314502 0.895638
    outer loop
      vertex -0.617317 -20.15 -0.0761213
      vertex -1 -20.5327 -0.0761213
      vertex -0.5 -20.65 -0.292893
    endloop
  endfacet
  facet normal -0.811254 -0.217786 -0.54262
    outer loop
      vertex -131 -20.6119 -2.88268
      vertex -131.124 -20.15 -2.88268
      vertex -130.907 -20.15 -3.20711
    endloop
  endfacet
  facet normal -0.934888 -0.250977 0.250988
    outer loop
      vertex -131.124 -20.15 -0.617317
      vertex -131.124 -20.5327 -1
      vertex -131 -20.6119 -0.617317
    endloop
  endfacet
  facet normal -0.96275 -0.191192 0.1912
    outer loop
      vertex -131.124 -20.15 -0.617317
      vertex -131.2 -20.15 -1
      vertex -131.124 -20.5327 -1
    endloop
  endfacet
  facet normal -0.821466 0.549501 0.152453
    outer loop
      vertex -130.907 20.8571 -1
      vertex -131.124 20.5327 -1
      vertex -131 20.6119 -0.617317
    endloop
  endfacet
  facet normal -0.19133 0.19148 0.962667
    outer loop
      vertex -130.2 20.5327 -0.0761213
      vertex -130.583 20.15 -0.0761213
      vertex -130.2 20.15 0
    endloop
  endfacet
  facet normal -0.680934 0.680532 -0.270564
    outer loop
      vertex -130.662 20.9501 -2.88268
      vertex -131 20.6119 -2.88268
      vertex -130.907 20.8571 -2.5
    endloop
  endfacet
  facet normal 0.19504 0.980795 -0
    outer loop
      vertex -0.617317 21.0739 -2.5
      vertex -1 21.15 -1
      vertex -0.617317 21.0739 -1
    endloop
  endfacet
  facet normal 0.19504 0.980795 0
    outer loop
      vertex -1 21.15 -1
      vertex -0.617317 21.0739 -2.5
      vertex -1 21.15 -2.5
    endloop
  endfacet
  facet normal -0.980846 0.194785 0
    outer loop
      vertex -131.2 20.15 -2.5
      vertex -131.124 20.5327 -1
      vertex -131.124 20.5327 -2.5
    endloop
  endfacet
  facet normal -0.980846 0.194785 0
    outer loop
      vertex -131.124 20.5327 -1
      vertex -131.2 20.15 -2.5
      vertex -131.2 20.15 -1
    endloop
  endfacet
  facet normal 0 1 -0
    outer loop
      vertex -1 21.15 -2.5
      vertex -130.2 21.15 -1
      vertex -1 21.15 -1
    endloop
  endfacet
  facet normal 0 1 0
    outer loop
      vertex -130.2 21.15 -1
      vertex -1 21.15 -2.5
      vertex -130.2 21.15 -2.5
    endloop
  endfacet
  facet normal 0.962638 0.191474 0.191483
    outer loop
      vertex -0.0761213 20.5327 -1
      vertex -0.0761213 20.15 -0.617317
      vertex 0 20.15 -1
    endloop
  endfacet
  facet normal 0.250605 0.935091 0.250605
    outer loop
      vertex -0.617317 21.0739 -1
      vertex -1 21.0739 -0.617317
      vertex -0.538061 20.9501 -0.617317
    endloop
  endfacet
  facet normal 0.217492 0.811535 0.542317
    outer loop
      vertex -1 21.0739 -0.617317
      vertex -1 20.8571 -0.292893
      vertex -0.538061 20.9501 -0.617317
    endloop
  endfacet
  facet normal 0.191433 -0.962656 -0.191434
    outer loop
      vertex -0.617317 -21.0739 -2.5
      vertex -1 -21.15 -2.5
      vertex -1 -21.0739 -2.88268
    endloop
  endfacet
  facet normal -0.980846 -0.194785 0
    outer loop
      vertex -131.124 -20.5327 -2.5
      vertex -131.2 -20.15 -1
      vertex -131.2 -20.15 -2.5
    endloop
  endfacet
  facet normal -0.980846 -0.194785 0
    outer loop
      vertex -131.2 -20.15 -1
      vertex -131.124 -20.5327 -2.5
      vertex -131.124 -20.5327 -1
    endloop
  endfacet
  facet normal -0.831182 -0.556 0
    outer loop
      vertex -130.907 -20.8571 -2.5
      vertex -131.124 -20.5327 -1
      vertex -131.124 -20.5327 -2.5
    endloop
  endfacet
  facet normal -0.831182 -0.556 0
    outer loop
      vertex -131.124 -20.5327 -1
      vertex -130.907 -20.8571 -2.5
      vertex -130.907 -20.8571 -1
    endloop
  endfacet
  facet normal -0.297394 -0.717995 -0.629317
    outer loop
      vertex -130.662 -20.9501 -2.88268
      vertex -130.7 -20.65 -3.20711
      vertex -130.2 -20.8571 -3.20711
    endloop
  endfacet
  facet normal 0 -0.555593 -0.831454
    outer loop
      vertex -130.2 -20.8571 -3.20711
      vertex -1 -20.5327 -3.42388
      vertex -1 -20.8571 -3.20711
    endloop
  endfacet
  facet normal -0 -0.555593 -0.831454
    outer loop
      vertex -1 -20.5327 -3.42388
      vertex -130.2 -20.8571 -3.20711
      vertex -130.2 -20.5327 -3.42388
    endloop
  endfacet
  facet normal 0.555618 -0.831438 0
    outer loop
      vertex -0.617317 -21.0739 -2.5
      vertex -0.292893 -20.8571 -1
      vertex -0.617317 -21.0739 -1
    endloop
  endfacet
  facet normal 0.555618 -0.831438 0
    outer loop
      vertex -0.292893 -20.8571 -1
      vertex -0.617317 -21.0739 -2.5
      vertex -0.292893 -20.8571 -2.5
    endloop
  endfacet
  facet normal 0 -1 0
    outer loop
      vertex -130.2 -21.15 -2.5
      vertex -1 -21.15 -1
      vertex -130.2 -21.15 -1
    endloop
  endfacet
  facet normal 0 -1 -0
    outer loop
      vertex -1 -21.15 -1
      vertex -130.2 -21.15 -2.5
      vertex -1 -21.15 -2.5
    endloop
  endfacet
  facet normal 0.217493 -0.811539 -0.54231
    outer loop
      vertex -0.538061 -20.9501 -2.88268
      vertex -1 -21.0739 -2.88268
      vertex -1 -20.8571 -3.20711
    endloop
  endfacet
  facet normal 0 -0.980795 -0.195042
    outer loop
      vertex -130.2 -21.0739 -2.88268
      vertex -1 -21.15 -2.5
      vertex -130.2 -21.15 -2.5
    endloop
  endfacet
  facet normal 0 -0.980795 -0.195042
    outer loop
      vertex -1 -21.15 -2.5
      vertex -130.2 -21.0739 -2.88268
      vertex -1 -21.0739 -2.88268
    endloop
  endfacet
  facet normal -0.217465 -0.81154 0.542321
    outer loop
      vertex -130.2 -20.8571 -0.292893
      vertex -130.662 -20.9501 -0.617317
      vertex -130.2 -21.0739 -0.617317
    endloop
  endfacet
  facet normal -0.680935 -0.680532 0.270562
    outer loop
      vertex -130.662 -20.9501 -0.617317
      vertex -131 -20.6119 -0.617317
      vertex -130.907 -20.8571 -1
    endloop
  endfacet
  facet normal -0.194885 0.980826 0
    outer loop
      vertex -130.2 21.15 -2.5
      vertex -130.583 21.0739 -1
      vertex -130.2 21.15 -1
    endloop
  endfacet
  facet normal -0.194885 0.980826 0
    outer loop
      vertex -130.583 21.0739 -1
      vertex -130.2 21.15 -2.5
      vertex -130.583 21.0739 -2.5
    endloop
  endfacet
  facet normal -0.217466 0.811544 -0.542314
    outer loop
      vertex -130.2 20.8571 -3.20711
      vertex -130.662 20.9501 -2.88268
      vertex -130.2 21.0739 -2.88268
    endloop
  endfacet
  facet normal -0.934888 0.250977 0.250988
    outer loop
      vertex -131.124 20.5327 -1
      vertex -131.124 20.15 -0.617317
      vertex -131 20.6119 -0.617317
    endloop
  endfacet
  facet normal -0.81125 0.217785 0.542627
    outer loop
      vertex -131 20.6119 -0.617317
      vertex -131.124 20.15 -0.617317
      vertex -130.907 20.15 -0.292893
    endloop
  endfacet
  facet normal 0.831452 0.555596 0
    outer loop
      vertex -0.0761213 20.5327 -1
      vertex -0.292893 20.8571 -2.5
      vertex -0.292893 20.8571 -1
    endloop
  endfacet
  facet normal 0.831452 0.555596 0
    outer loop
      vertex -0.292893 20.8571 -2.5
      vertex -0.0761213 20.5327 -1
      vertex -0.0761213 20.5327 -2.5
    endloop
  endfacet
  facet normal -0.614225 -0.613862 -0.495883
    outer loop
      vertex -130.662 -20.9501 -2.88268
      vertex -131 -20.6119 -2.88268
      vertex -130.7 -20.65 -3.20711
    endloop
  endfacet
  facet normal -0.541893 -0.224344 -0.809952
    outer loop
      vertex -130.7 -20.65 -3.20711
      vertex -130.907 -20.15 -3.20711
      vertex -130.583 -20.15 -3.42388
    endloop
  endfacet
  facet normal -0.194885 -0.980826 0
    outer loop
      vertex -130.583 -21.0739 -2.5
      vertex -130.2 -21.15 -1
      vertex -130.583 -21.0739 -1
    endloop
  endfacet
  facet normal -0.194885 -0.980826 -0
    outer loop
      vertex -130.2 -21.15 -1
      vertex -130.583 -21.0739 -2.5
      vertex -130.2 -21.15 -2.5
    endloop
  endfacet
  facet normal -0.250563 -0.935057 0.250771
    outer loop
      vertex -130.2 -21.0739 -0.617317
      vertex -130.662 -20.9501 -0.617317
      vertex -130.583 -21.0739 -1
    endloop
  endfacet
  facet normal -0.821466 -0.549501 -0.152455
    outer loop
      vertex -130.907 -20.8571 -2.5
      vertex -131.124 -20.5327 -2.5
      vertex -131 -20.6119 -2.88268
    endloop
  endfacet
  facet normal 0 -0.195081 -0.980787
    outer loop
      vertex -130.2 -20.5327 -3.42388
      vertex -1 -20.15 -3.5
      vertex -1 -20.5327 -3.42388
    endloop
  endfacet
  facet normal -0 -0.195081 -0.980787
    outer loop
      vertex -1 -20.15 -3.5
      vertex -130.2 -20.5327 -3.42388
      vertex -130.2 -20.15 -3.5
    endloop
  endfacet
  facet normal 0.224265 -0.541441 -0.810276
    outer loop
      vertex -0.5 -20.65 -3.20711
      vertex -1 -20.8571 -3.20711
      vertex -1 -20.5327 -3.42388
    endloop
  endfacet
  facet normal 0.962638 -0.191474 0.191483
    outer loop
      vertex -0.0761213 -20.15 -0.617317
      vertex -0.0761213 -20.5327 -1
      vertex 0 -20.15 -1
    endloop
  endfacet
  facet normal 0.831452 -0.555596 0
    outer loop
      vertex -0.292893 -20.8571 -1
      vertex -0.0761213 -20.5327 -2.5
      vertex -0.0761213 -20.5327 -1
    endloop
  endfacet
  facet normal 0.831452 -0.555596 0
    outer loop
      vertex -0.0761213 -20.5327 -2.5
      vertex -0.292893 -20.8571 -1
      vertex -0.292893 -20.8571 -2.5
    endloop
  endfacet
  facet normal 0.821772 -0.549127 0.15215
    outer loop
      vertex -0.199898 -20.6119 -0.617317
      vertex -0.292893 -20.8571 -1
      vertex -0.0761213 -20.5327 -1
    endloop
  endfacet
  facet normal 0 -0.195084 0.980786
    outer loop
      vertex -130.2 -20.15 0
      vertex -1 -20.5327 -0.0761213
      vertex -1 -20.15 0
    endloop
  endfacet
  facet normal 0 -0.195084 0.980786
    outer loop
      vertex -1 -20.5327 -0.0761213
      vertex -130.2 -20.15 0
      vertex -130.2 -20.5327 -0.0761213
    endloop
  endfacet
  facet normal 0.549152 -0.821763 0.152112
    outer loop
      vertex -0.538061 -20.9501 -0.617317
      vertex -0.617317 -21.0739 -1
      vertex -0.292893 -20.8571 -1
    endloop
  endfacet
  facet normal 0.217492 -0.811535 0.542317
    outer loop
      vertex -1 -20.8571 -0.292893
      vertex -1 -21.0739 -0.617317
      vertex -0.538061 -20.9501 -0.617317
    endloop
  endfacet
  facet normal 0.224266 -0.541444 0.810274
    outer loop
      vertex -1 -20.5327 -0.0761213
      vertex -1 -20.8571 -0.292893
      vertex -0.5 -20.65 -0.292893
    endloop
  endfacet
  facet normal 0 -0.555596 0.831452
    outer loop
      vertex -130.2 -20.5327 -0.0761213
      vertex -1 -20.8571 -0.292893
      vertex -1 -20.5327 -0.0761213
    endloop
  endfacet
  facet normal 0 -0.555596 0.831452
    outer loop
      vertex -1 -20.8571 -0.292893
      vertex -130.2 -20.5327 -0.0761213
      vertex -130.2 -20.8571 -0.292893
    endloop
  endfacet
  facet normal -0.250563 0.935057 -0.250772
    outer loop
      vertex -130.2 21.0739 -2.88268
      vertex -130.662 20.9501 -2.88268
      vertex -130.583 21.0739 -2.5
    endloop
  endfacet
  facet normal -0.549635 0.821411 -0.152267
    outer loop
      vertex -130.662 20.9501 -2.88268
      vertex -130.907 20.8571 -2.5
      vertex -130.583 21.0739 -2.5
    endloop
  endfacet
  facet normal -0.680935 0.680532 0.270562
    outer loop
      vertex -130.907 20.8571 -1
      vertex -131 20.6119 -0.617317
      vertex -130.662 20.9501 -0.617317
    endloop
  endfacet
  facet normal -0.718154 0.297316 0.629172
    outer loop
      vertex -130.7 20.65 -0.292893
      vertex -131 20.6119 -0.617317
      vertex -130.907 20.15 -0.292893
    endloop
  endfacet
  facet normal -0.55612 -0.831102 0
    outer loop
      vertex -130.907 -20.8571 -2.5
      vertex -130.583 -21.0739 -1
      vertex -130.907 -20.8571 -1
    endloop
  endfacet
  facet normal -0.55612 -0.831102 -0
    outer loop
      vertex -130.583 -21.0739 -1
      vertex -130.907 -20.8571 -2.5
      vertex -130.583 -21.0739 -2.5
    endloop
  endfacet
  facet normal -0.549635 -0.821411 -0.152267
    outer loop
      vertex -130.583 -21.0739 -2.5
      vertex -130.907 -20.8571 -2.5
      vertex -130.662 -20.9501 -2.88268
    endloop
  endfacet
  facet normal -0.680934 -0.680532 -0.270564
    outer loop
      vertex -130.907 -20.8571 -2.5
      vertex -131 -20.6119 -2.88268
      vertex -130.662 -20.9501 -2.88268
    endloop
  endfacet
  facet normal -0.934888 -0.250977 -0.25099
    outer loop
      vertex -131 -20.6119 -2.88268
      vertex -131.124 -20.5327 -2.5
      vertex -131.124 -20.15 -2.88268
    endloop
  endfacet
  facet normal 0.541414 -0.224261 -0.810295
    outer loop
      vertex -0.5 -20.65 -3.20711
      vertex -0.617317 -20.15 -3.42388
      vertex -0.292893 -20.15 -3.20711
    endloop
  endfacet
  facet normal 0.297404 -0.71802 -0.629283
    outer loop
      vertex -0.538061 -20.9501 -2.88268
      vertex -1 -20.8571 -3.20711
      vertex -0.5 -20.65 -3.20711
    endloop
  endfacet
  facet normal 0.821772 -0.549127 -0.152151
    outer loop
      vertex -0.0761213 -20.5327 -2.5
      vertex -0.292893 -20.8571 -2.5
      vertex -0.199898 -20.6119 -2.88268
    endloop
  endfacet
  facet normal 0.962638 -0.191474 -0.191484
    outer loop
      vertex 0 -20.15 -2.5
      vertex -0.0761213 -20.5327 -2.5
      vertex -0.0761213 -20.15 -2.88268
    endloop
  endfacet
  facet normal 0.19504 -0.980795 0
    outer loop
      vertex -1 -21.15 -2.5
      vertex -0.617317 -21.0739 -1
      vertex -1 -21.15 -1
    endloop
  endfacet
  facet normal 0.19504 -0.980795 0
    outer loop
      vertex -0.617317 -21.0739 -1
      vertex -1 -21.15 -2.5
      vertex -0.617317 -21.0739 -2.5
    endloop
  endfacet
  facet normal -0.31445 -0.314697 0.895593
    outer loop
      vertex -130.583 -20.15 -0.0761213
      vertex -130.7 -20.65 -0.292893
      vertex -130.2 -20.5327 -0.0761213
    endloop
  endfacet
  facet normal -0.541896 -0.224345 0.80995
    outer loop
      vertex -130.583 -20.15 -0.0761213
      vertex -130.907 -20.15 -0.292893
      vertex -130.7 -20.65 -0.292893
    endloop
  endfacet
  facet normal 0.297402 -0.718015 0.62929
    outer loop
      vertex -0.5 -20.65 -0.292893
      vertex -1 -20.8571 -0.292893
      vertex -0.538061 -20.9501 -0.617317
    endloop
  endfacet
  facet normal -0.297391 0.71799 0.629324
    outer loop
      vertex -130.662 20.9501 -0.617317
      vertex -130.7 20.65 -0.292893
      vertex -130.2 20.8571 -0.292893
    endloop
  endfacet
  facet normal -0.217465 0.81154 0.542321
    outer loop
      vertex -130.2 21.0739 -0.617317
      vertex -130.662 20.9501 -0.617317
      vertex -130.2 20.8571 -0.292893
    endloop
  endfacet
  facet normal -0.549635 -0.821411 0.152266
    outer loop
      vertex -130.662 -20.9501 -0.617317
      vertex -130.907 -20.8571 -1
      vertex -130.583 -21.0739 -1
    endloop
  endfacet
  facet normal -0.19128 -0.962685 0.191439
    outer loop
      vertex -130.2 -21.0739 -0.617317
      vertex -130.583 -21.0739 -1
      vertex -130.2 -21.15 -1
    endloop
  endfacet
  facet normal -0.19128 -0.962685 -0.19144
    outer loop
      vertex -130.2 -21.15 -2.5
      vertex -130.583 -21.0739 -2.5
      vertex -130.2 -21.0739 -2.88268
    endloop
  endfacet
  facet normal 0.980786 -0.195084 0
    outer loop
      vertex -0.0761213 -20.5327 -1
      vertex 0 -20.15 -2.5
      vertex 0 -20.15 -1
    endloop
  endfacet
  facet normal 0.980786 -0.195084 0
    outer loop
      vertex 0 -20.15 -2.5
      vertex -0.0761213 -20.5327 -1
      vertex -0.0761213 -20.5327 -2.5
    endloop
  endfacet
  facet normal 0.718033 -0.297419 -0.629262
    outer loop
      vertex -0.199898 -20.6119 -2.88268
      vertex -0.5 -20.65 -3.20711
      vertex -0.292893 -20.15 -3.20711
    endloop
  endfacet
  facet normal 0.811575 -0.21748 -0.542263
    outer loop
      vertex -0.199898 -20.6119 -2.88268
      vertex -0.292893 -20.15 -3.20711
      vertex -0.0761213 -20.15 -2.88268
    endloop
  endfacet
  facet normal 0.549152 -0.821763 -0.152113
    outer loop
      vertex -0.292893 -20.8571 -2.5
      vertex -0.617317 -21.0739 -2.5
      vertex -0.538061 -20.9501 -2.88268
    endloop
  endfacet
  facet normal 0.250605 -0.93509 -0.250607
    outer loop
      vertex -0.617317 -21.0739 -2.5
      vertex -1 -21.0739 -2.88268
      vertex -0.538061 -20.9501 -2.88268
    endloop
  endfacet
  facet normal 0.250605 -0.935091 0.250605
    outer loop
      vertex -0.538061 -20.9501 -0.617317
      vertex -1 -21.0739 -0.617317
      vertex -0.617317 -21.0739 -1
    endloop
  endfacet
  facet normal 0.191433 -0.962656 0.191433
    outer loop
      vertex -1 -21.0739 -0.617317
      vertex -1 -21.15 -1
      vertex -0.617317 -21.0739 -1
    endloop
  endfacet
  facet normal -0.297391 -0.71799 0.629324
    outer loop
      vertex -130.2 -20.8571 -0.292893
      vertex -130.7 -20.65 -0.292893
      vertex -130.662 -20.9501 -0.617317
    endloop
  endfacet
  facet normal -0.614223 -0.613859 0.49589
    outer loop
      vertex -130.7 -20.65 -0.292893
      vertex -131 -20.6119 -0.617317
      vertex -130.662 -20.9501 -0.617317
    endloop
  endfacet
  facet normal 0.191483 -0.191474 0.962638
    outer loop
      vertex -1 -20.15 0
      vertex -1 -20.5327 -0.0761213
      vertex -0.617317 -20.15 -0.0761213
    endloop
  endfacet
  facet normal 1 -0 0
    outer loop
      vertex -129.7 -19.65 -1.5
      vertex -129.7 19.65 -2
      vertex -129.7 19.65 -1.5
    endloop
  endfacet
  facet normal 1 0 0
    outer loop
      vertex -129.7 19.65 -2
      vertex -129.7 -19.65 -1.5
      vertex -129.7 -19.65 -2
    endloop
  endfacet
endsolid OpenSCAD_Model
