solid OpenSCAD_Model
  facet normal 0.784893 0.582844 -0.210321
    outer loop
      vertex -2.35692 -9.52499 0.628715
      vertex -3 -8.525 1
      vertex -2.25743 -9.52499 1
    endloop
  endfacet
  facet normal -0.784893 0.582844 -0.210321
    outer loop
      vertex -3.64308 -9.52499 0.628715
      vertex -3.74257 -9.52499 1
      vertex -3 -8.525 1
    endloop
  endfacet
  facet normal 0.574585 0.582842 0.574585
    outer loop
      vertex -2.35692 -9.52499 1.37128
      vertex -3 -8.525 1
      vertex -2.62872 -9.52499 1.64308
    endloop
  endfacet
  facet normal 0.210324 0.582844 0.784893
    outer loop
      vertex -3 -8.525 1
      vertex -3 -9.52499 1.74257
      vertex -2.62872 -9.52499 1.64308
    endloop
  endfacet
  facet normal -0.574583 0.582843 -0.574585
    outer loop
      vertex -3.37128 -9.52499 0.356916
      vertex -3.64308 -9.52499 0.628715
      vertex -3 -8.525 1
    endloop
  endfacet
  facet normal -0.210316 0.582845 -0.784894
    outer loop
      vertex -3 -9.52499 0.25743
      vertex -3.37128 -9.52499 0.356916
      vertex -3 -8.525 1
    endloop
  endfacet
  facet normal 0.210316 0.582845 -0.784894
    outer loop
      vertex -2.62872 -9.52499 0.356916
      vertex -3 -9.52499 0.25743
      vertex -3 -8.525 1
    endloop
  endfacet
  facet normal 0.574583 0.582843 -0.574585
    outer loop
      vertex -2.62872 -9.52499 0.356916
      vertex -3 -8.525 1
      vertex -2.35692 -9.52499 0.628715
    endloop
  endfacet
  facet normal -0.784893 0.582844 0.210324
    outer loop
      vertex -3 -8.525 1
      vertex -3.74257 -9.52499 1
      vertex -3.64308 -9.52499 1.37128
    endloop
  endfacet
  facet normal 0.784893 0.582844 0.210324
    outer loop
      vertex -2.25743 -9.52499 1
      vertex -3 -8.525 1
      vertex -2.35692 -9.52499 1.37128
    endloop
  endfacet
  facet normal -0.210324 0.582844 0.784893
    outer loop
      vertex -3 -8.525 1
      vertex -3.37128 -9.52499 1.64308
      vertex -3 -9.52499 1.74257
    endloop
  endfacet
  facet normal -0.574585 0.582842 0.574585
    outer loop
      vertex -3 -8.525 1
      vertex -3.64308 -9.52499 1.37128
      vertex -3.37128 -9.52499 1.64308
    endloop
  endfacet
  facet normal 0.784893 -0.582844 -0.210321
    outer loop
      vertex -2.25743 9.52499 1
      vertex -3 8.525 1
      vertex -2.35692 9.52499 0.628715
    endloop
  endfacet
  facet normal -0.784893 -0.582844 -0.210321
    outer loop
      vertex -3 8.525 1
      vertex -3.74257 9.52499 1
      vertex -3.64308 9.52499 0.628715
    endloop
  endfacet
  facet normal 0.784893 -0.582844 0.210324
    outer loop
      vertex -2.35692 9.52499 1.37128
      vertex -3 8.525 1
      vertex -2.25743 9.52499 1
    endloop
  endfacet
  facet normal 0.210316 -0.582845 -0.784894
    outer loop
      vertex -2.62872 9.52499 0.356916
      vertex -3 8.525 1
      vertex -3 9.52499 0.25743
    endloop
  endfacet
  facet normal -0.210324 -0.582844 0.784893
    outer loop
      vertex -3 9.52499 1.74257
      vertex -3.37128 9.52499 1.64308
      vertex -3 8.525 1
    endloop
  endfacet
  facet normal -0.210316 -0.582845 -0.784894
    outer loop
      vertex -3 8.525 1
      vertex -3.37128 9.52499 0.356916
      vertex -3 9.52499 0.25743
    endloop
  endfacet
  facet normal 0.574583 -0.582843 -0.574585
    outer loop
      vertex -2.35692 9.52499 0.628715
      vertex -3 8.525 1
      vertex -2.62872 9.52499 0.356916
    endloop
  endfacet
  facet normal 0.210324 -0.582844 0.784893
    outer loop
      vertex -3 9.52499 1.74257
      vertex -3 8.525 1
      vertex -2.62872 9.52499 1.64308
    endloop
  endfacet
  facet normal -0.784893 -0.582844 0.210324
    outer loop
      vertex -3.64308 9.52499 1.37128
      vertex -3.74257 9.52499 1
      vertex -3 8.525 1
    endloop
  endfacet
  facet normal -0.574583 -0.582843 -0.574585
    outer loop
      vertex -3 8.525 1
      vertex -3.64308 9.52499 0.628715
      vertex -3.37128 9.52499 0.356916
    endloop
  endfacet
  facet normal 0.574585 -0.582842 0.574585
    outer loop
      vertex -2.62872 9.52499 1.64308
      vertex -3 8.525 1
      vertex -2.35692 9.52499 1.37128
    endloop
  endfacet
  facet normal -0.574585 -0.582842 0.574585
    outer loop
      vertex -3.37128 9.52499 1.64308
      vertex -3.64308 9.52499 1.37128
      vertex -3 8.525 1
    endloop
  endfacet
  facet normal 0.784893 0.582844 -0.210324
    outer loop
      vertex -2.35692 -9.52499 3.62872
      vertex -3 -8.525 4
      vertex -2.25743 -9.52499 4
    endloop
  endfacet
  facet normal -0.784893 0.582844 -0.210324
    outer loop
      vertex -3.64308 -9.52499 3.62872
      vertex -3.74257 -9.52499 4
      vertex -3 -8.525 4
    endloop
  endfacet
  facet normal 0.574585 0.582842 0.574585
    outer loop
      vertex -2.35692 -9.52499 4.37128
      vertex -3 -8.525 4
      vertex -2.62872 -9.52499 4.64308
    endloop
  endfacet
  facet normal 0.210324 0.582844 0.784893
    outer loop
      vertex -3 -8.525 4
      vertex -3 -9.52499 4.74257
      vertex -2.62872 -9.52499 4.64308
    endloop
  endfacet
  facet normal -0.574585 0.582842 -0.574585
    outer loop
      vertex -3.37128 -9.52499 3.35692
      vertex -3.64308 -9.52499 3.62872
      vertex -3 -8.525 4
    endloop
  endfacet
  facet normal -0.210324 0.582844 -0.784893
    outer loop
      vertex -3 -9.52499 3.25743
      vertex -3.37128 -9.52499 3.35692
      vertex -3 -8.525 4
    endloop
  endfacet
  facet normal 0.210324 0.582844 -0.784893
    outer loop
      vertex -2.62872 -9.52499 3.35692
      vertex -3 -9.52499 3.25743
      vertex -3 -8.525 4
    endloop
  endfacet
  facet normal 0.574585 0.582842 -0.574585
    outer loop
      vertex -2.62872 -9.52499 3.35692
      vertex -3 -8.525 4
      vertex -2.35692 -9.52499 3.62872
    endloop
  endfacet
  facet normal -0.784893 0.582844 0.210324
    outer loop
      vertex -3 -8.525 4
      vertex -3.74257 -9.52499 4
      vertex -3.64308 -9.52499 4.37128
    endloop
  endfacet
  facet normal 0.784893 0.582844 0.210324
    outer loop
      vertex -2.25743 -9.52499 4
      vertex -3 -8.525 4
      vertex -2.35692 -9.52499 4.37128
    endloop
  endfacet
  facet normal -0.210324 0.582844 0.784893
    outer loop
      vertex -3 -8.525 4
      vertex -3.37128 -9.52499 4.64308
      vertex -3 -9.52499 4.74257
    endloop
  endfacet
  facet normal -0.574585 0.582842 0.574585
    outer loop
      vertex -3 -8.525 4
      vertex -3.64308 -9.52499 4.37128
      vertex -3.37128 -9.52499 4.64308
    endloop
  endfacet
  facet normal 0.784893 -0.582844 -0.210324
    outer loop
      vertex -2.25743 9.52499 4
      vertex -3 8.525 4
      vertex -2.35692 9.52499 3.62872
    endloop
  endfacet
  facet normal -0.784893 -0.582844 -0.210324
    outer loop
      vertex -3 8.525 4
      vertex -3.74257 9.52499 4
      vertex -3.64308 9.52499 3.62872
    endloop
  endfacet
  facet normal 0.784893 -0.582844 0.210324
    outer loop
      vertex -2.35692 9.52499 4.37128
      vertex -3 8.525 4
      vertex -2.25743 9.52499 4
    endloop
  endfacet
  facet normal 0.210324 -0.582844 -0.784893
    outer loop
      vertex -2.62872 9.52499 3.35692
      vertex -3 8.525 4
      vertex -3 9.52499 3.25743
    endloop
  endfacet
  facet normal -0.210324 -0.582844 0.784893
    outer loop
      vertex -3 9.52499 4.74257
      vertex -3.37128 9.52499 4.64308
      vertex -3 8.525 4
    endloop
  endfacet
  facet normal -0.210324 -0.582844 -0.784893
    outer loop
      vertex -3 8.525 4
      vertex -3.37128 9.52499 3.35692
      vertex -3 9.52499 3.25743
    endloop
  endfacet
  facet normal 0.574585 -0.582842 -0.574585
    outer loop
      vertex -2.35692 9.52499 3.62872
      vertex -3 8.525 4
      vertex -2.62872 9.52499 3.35692
    endloop
  endfacet
  facet normal 0.210324 -0.582844 0.784893
    outer loop
      vertex -3 9.52499 4.74257
      vertex -3 8.525 4
      vertex -2.62872 9.52499 4.64308
    endloop
  endfacet
  facet normal -0.784893 -0.582844 0.210324
    outer loop
      vertex -3.64308 9.52499 4.37128
      vertex -3.74257 9.52499 4
      vertex -3 8.525 4
    endloop
  endfacet
  facet normal -0.574585 -0.582842 -0.574585
    outer loop
      vertex -3 8.525 4
      vertex -3.64308 9.52499 3.62872
      vertex -3.37128 9.52499 3.35692
    endloop
  endfacet
  facet normal 0.574585 -0.582842 0.574585
    outer loop
      vertex -2.62872 9.52499 4.64308
      vertex -3 8.525 4
      vertex -2.35692 9.52499 4.37128
    endloop
  endfacet
  facet normal -0.574585 -0.582842 0.574585
    outer loop
      vertex -3.37128 9.52499 4.64308
      vertex -3.64308 9.52499 4.37128
      vertex -3 8.525 4
    endloop
  endfacet
  facet normal 0 0 -1
    outer loop
      vertex -0.5 -11.525 0
      vertex 0 -11.025 0
      vertex -0.146454 -11.3785 0
    endloop
  endfacet
  facet normal -0 0 -1
    outer loop
      vertex 0 -11.025 0
      vertex -0.5 -11.525 0
      vertex 0 -9.52499 0
    endloop
  endfacet
  facet normal 0 0 -1
    outer loop
      vertex -0.5 -11.525 0
      vertex -30 -9.52499 0
      vertex 0 -9.52499 0
    endloop
  endfacet
  facet normal 0 0 -1
    outer loop
      vertex -31.9956 12.025 0
      vertex -30 12.025 0
      vertex -30 -9.52499 0
    endloop
  endfacet
  facet normal 0 0 -1
    outer loop
      vertex -31.9956 12.224 0
      vertex -30 12.025 0
      vertex -31.9956 12.025 0
    endloop
  endfacet
  facet normal 0 0 -1
    outer loop
      vertex -30 12.025 0
      vertex -30.5012 15.378 0
      vertex -30.1931 15.6301 0
    endloop
  endfacet
  facet normal 0 0 -1
    outer loop
      vertex -30 12.025 0
      vertex -30.7858 15.0996 0
      vertex -30.5012 15.378 0
    endloop
  endfacet
  facet normal 0 0 -1
    outer loop
      vertex -30 12.025 0
      vertex -31.0447 14.7972 0
      vertex -30.7858 15.0996 0
    endloop
  endfacet
  facet normal 0 0 -1
    outer loop
      vertex -30 12.025 0
      vertex -31.2758 14.4731 0
      vertex -31.0447 14.7972 0
    endloop
  endfacet
  facet normal 0 0 -1
    outer loop
      vertex -31.5 -11.525 0
      vertex -30 -9.52499 0
      vertex -0.5 -11.525 0
    endloop
  endfacet
  facet normal 0 0 -1
    outer loop
      vertex -32 -11.025 0
      vertex -30 -9.52499 0
      vertex -31.5 -11.525 0
    endloop
  endfacet
  facet normal 0 0 -1
    outer loop
      vertex -30 12.025 0
      vertex -31.4774 14.1298 0
      vertex -31.2758 14.4731 0
    endloop
  endfacet
  facet normal 0 0 -1
    outer loop
      vertex -30 12.025 0
      vertex -31.6479 13.77 0
      vertex -31.4774 14.1298 0
    endloop
  endfacet
  facet normal 0 0 -1
    outer loop
      vertex -32 -11.025 0
      vertex -31.5 -11.525 0
      vertex -31.8535 -11.3785 0
    endloop
  endfacet
  facet normal 0 0 -1
    outer loop
      vertex -30 12.025 0
      vertex -31.7859 13.3966 0
      vertex -31.6479 13.77 0
    endloop
  endfacet
  facet normal 0 0 -1
    outer loop
      vertex -30 12.025 0
      vertex -31.8903 13.0125 0
      vertex -31.7859 13.3966 0
    endloop
  endfacet
  facet normal 0 0 -1
    outer loop
      vertex -30 12.025 0
      vertex -31.9604 12.6206 0
      vertex -31.8903 13.0125 0
    endloop
  endfacet
  facet normal 0 0 -1
    outer loop
      vertex -32 12.025 0
      vertex -30 -9.52499 0
      vertex -32 -11.025 0
    endloop
  endfacet
  facet normal 0 0 -1
    outer loop
      vertex -30 -9.52499 0
      vertex -32 12.025 0
      vertex -31.9956 12.025 0
    endloop
  endfacet
  facet normal 0 0 -1
    outer loop
      vertex -0.5 11.525 0
      vertex 0 11.025 0
      vertex 0 9.52499 0
    endloop
  endfacet
  facet normal 0 0 -1
    outer loop
      vertex 0 11.025 0
      vertex -0.5 11.525 0
      vertex -0.146454 11.3785 0
    endloop
  endfacet
  facet normal 0 0 -1
    outer loop
      vertex 0 9.52499 0
      vertex -23 11.525 0
      vertex -0.5 11.525 0
    endloop
  endfacet
  facet normal 0 0 -1
    outer loop
      vertex -25 12.025 0
      vertex -23 12.025 0
      vertex -23 11.525 0
    endloop
  endfacet
  facet normal 0 0 -1
    outer loop
      vertex -23 12.025 0
      vertex -25 12.025 0
      vertex -23.0176 12.4227 0
    endloop
  endfacet
  facet normal 0 0 -1
    outer loop
      vertex -25.0308 12.4161 0
      vertex -23.0176 12.4227 0
      vertex -25 12.025 0
    endloop
  endfacet
  facet normal -0 0 -1
    outer loop
      vertex -23.0176 12.4227 0
      vertex -25.0308 12.4161 0
      vertex -23.0703 12.8173 0
    endloop
  endfacet
  facet normal 0 0 -1
    outer loop
      vertex -25.1224 12.7975 0
      vertex -23.1577 13.2057 0
      vertex -25.0308 12.4161 0
    endloop
  endfacet
  facet normal -0 0 -1
    outer loop
      vertex -23.1577 13.2057 0
      vertex -25.1224 12.7975 0
      vertex -23.279 13.5849 0
    endloop
  endfacet
  facet normal 0 0 -1
    outer loop
      vertex -25.2725 13.16 0
      vertex -23.279 13.5849 0
      vertex -25.1224 12.7975 0
    endloop
  endfacet
  facet normal -0 0 -1
    outer loop
      vertex -23.4334 13.9518 0
      vertex -25.2725 13.16 0
      vertex -23.6196 14.3037 0
    endloop
  endfacet
  facet normal 0 0 -1
    outer loop
      vertex -25.4775 13.4944 0
      vertex -23.6196 14.3037 0
      vertex -25.2725 13.16 0
    endloop
  endfacet
  facet normal -0 0 -1
    outer loop
      vertex -23.6196 14.3037 0
      vertex -25.4775 13.4944 0
      vertex -23.8362 14.6377 0
    endloop
  endfacet
  facet normal -0 0 -1
    outer loop
      vertex -23.8362 14.6377 0
      vertex -25.4775 13.4944 0
      vertex -24.0814 14.9513 0
    endloop
  endfacet
  facet normal 0 0 -1
    outer loop
      vertex -25 9.52499 0
      vertex -23 11.525 0
      vertex 0 9.52499 0
    endloop
  endfacet
  facet normal 0 0 -1
    outer loop
      vertex -25 12.025 0
      vertex -23 11.525 0
      vertex -25 9.52499 0
    endloop
  endfacet
  facet normal -0 0 -1
    outer loop
      vertex -23.0703 12.8173 0
      vertex -25.0308 12.4161 0
      vertex -23.1577 13.2057 0
    endloop
  endfacet
  facet normal -0 0 -1
    outer loop
      vertex -23.279 13.5849 0
      vertex -25.2725 13.16 0
      vertex -23.4334 13.9518 0
    endloop
  endfacet
  facet normal 0 0 -1
    outer loop
      vertex -25.7322 13.7928 0
      vertex -24.0814 14.9513 0
      vertex -25.4775 13.4944 0
    endloop
  endfacet
  facet normal -0 0 -1
    outer loop
      vertex -24.0814 14.9513 0
      vertex -25.7322 13.7928 0
      vertex -24.3534 15.242 0
    endloop
  endfacet
  facet normal -0 0 -1
    outer loop
      vertex -24.3534 15.242 0
      vertex -25.7322 13.7928 0
      vertex -24.6501 15.5075 0
    endloop
  endfacet
  facet normal 0 0 -1
    outer loop
      vertex -26.0305 14.0475 0
      vertex -24.6501 15.5075 0
      vertex -25.7322 13.7928 0
    endloop
  endfacet
  facet normal -0 0 -1
    outer loop
      vertex -24.6501 15.5075 0
      vertex -26.0305 14.0475 0
      vertex -24.969 15.7457 0
    endloop
  endfacet
  facet normal -0 0 -1
    outer loop
      vertex -24.969 15.7457 0
      vertex -26.0305 14.0475 0
      vertex -25.3077 15.9549 0
    endloop
  endfacet
  facet normal 0 0 -1
    outer loop
      vertex -26.365 14.2525 0
      vertex -25.3077 15.9549 0
      vertex -26.0305 14.0475 0
    endloop
  endfacet
  facet normal -0 0 -1
    outer loop
      vertex -25.3077 15.9549 0
      vertex -26.365 14.2525 0
      vertex -25.6636 16.1332 0
    endloop
  endfacet
  facet normal 0 0 -1
    outer loop
      vertex -26.7275 14.4026 0
      vertex -25.6636 16.1332 0
      vertex -26.365 14.2525 0
    endloop
  endfacet
  facet normal -0 0 -1
    outer loop
      vertex -25.6636 16.1332 0
      vertex -26.7275 14.4026 0
      vertex -26.0339 16.2795 0
    endloop
  endfacet
  facet normal -0 0 -1
    outer loop
      vertex -26.0339 16.2795 0
      vertex -26.7275 14.4026 0
      vertex -26.4156 16.3924 0
    endloop
  endfacet
  facet normal 0 0 -1
    outer loop
      vertex -27.1089 14.4942 0
      vertex -26.4156 16.3924 0
      vertex -26.7275 14.4026 0
    endloop
  endfacet
  facet normal -0 0 -1
    outer loop
      vertex -26.4156 16.3924 0
      vertex -27.1089 14.4942 0
      vertex -26.8059 16.4711 0
    endloop
  endfacet
  facet normal 0 0 -1
    outer loop
      vertex -27.1089 14.4942 0
      vertex -27.2016 16.5151 0
      vertex -26.8059 16.4711 0
    endloop
  endfacet
  facet normal 0 0 -1
    outer loop
      vertex -27.5 14.525 0
      vertex -27.2016 16.5151 0
      vertex -27.1089 14.4942 0
    endloop
  endfacet
  facet normal 0 0 -1
    outer loop
      vertex -27.5 14.525 0
      vertex -27.5995 16.5239 0
      vertex -27.2016 16.5151 0
    endloop
  endfacet
  facet normal 0 0 -1
    outer loop
      vertex -27.9968 16.4975 0
      vertex -27.5 14.525 0
      vertex -27.8911 14.4942 0
    endloop
  endfacet
  facet normal 0 0 -1
    outer loop
      vertex -27.5 14.525 0
      vertex -27.9968 16.4975 0
      vertex -27.5995 16.5239 0
    endloop
  endfacet
  facet normal 0 0 -1
    outer loop
      vertex -28.3901 16.4361 0
      vertex -27.8911 14.4942 0
      vertex -28.2725 14.4026 0
    endloop
  endfacet
  facet normal 0 0 -1
    outer loop
      vertex -27.8911 14.4942 0
      vertex -28.3901 16.4361 0
      vertex -27.9968 16.4975 0
    endloop
  endfacet
  facet normal 0 0 -1
    outer loop
      vertex -29.1528 16.2104 0
      vertex -28.2725 14.4026 0
      vertex -28.635 14.2525 0
    endloop
  endfacet
  facet normal 0 0 -1
    outer loop
      vertex -28.2725 14.4026 0
      vertex -28.7765 16.3401 0
      vertex -28.3901 16.4361 0
    endloop
  endfacet
  facet normal 0 0 -1
    outer loop
      vertex -29.864 15.854 0
      vertex -28.635 14.2525 0
      vertex -28.9695 14.0475 0
    endloop
  endfacet
  facet normal 0 0 -1
    outer loop
      vertex -28.2725 14.4026 0
      vertex -29.1528 16.2104 0
      vertex -28.7765 16.3401 0
    endloop
  endfacet
  facet normal 0 0 -1
    outer loop
      vertex -30.1931 15.6301 0
      vertex -28.9695 14.0475 0
      vertex -29.2678 13.7928 0
    endloop
  endfacet
  facet normal 0 0 -1
    outer loop
      vertex -28.635 14.2525 0
      vertex -29.5163 16.048 0
      vertex -29.1528 16.2104 0
    endloop
  endfacet
  facet normal 0 0 -1
    outer loop
      vertex -30.1931 15.6301 0
      vertex -29.2678 13.7928 0
      vertex -29.5225 13.4944 0
    endloop
  endfacet
  facet normal 0 0 -1
    outer loop
      vertex -30.1931 15.6301 0
      vertex -29.5225 13.4944 0
      vertex -29.7275 13.16 0
    endloop
  endfacet
  facet normal 0 0 -1
    outer loop
      vertex -28.635 14.2525 0
      vertex -29.864 15.854 0
      vertex -29.5163 16.048 0
    endloop
  endfacet
  facet normal 0 0 -1
    outer loop
      vertex -30.1931 15.6301 0
      vertex -29.7275 13.16 0
      vertex -29.8776 12.7975 0
    endloop
  endfacet
  facet normal 0 0 -1
    outer loop
      vertex -30.1931 15.6301 0
      vertex -29.8776 12.7975 0
      vertex -29.9692 12.4161 0
    endloop
  endfacet
  facet normal 0 0 -1
    outer loop
      vertex -30.1931 15.6301 0
      vertex -29.9692 12.4161 0
      vertex -30 12.025 0
    endloop
  endfacet
  facet normal 0 0 -1
    outer loop
      vertex -28.9695 14.0475 0
      vertex -30.1931 15.6301 0
      vertex -29.864 15.854 0
    endloop
  endfacet
  facet normal 0 0 -1
    outer loop
      vertex -30 12.025 0
      vertex -31.9956 12.224 0
      vertex -31.9604 12.6206 0
    endloop
  endfacet
  facet normal 0 0 1
    outer loop
      vertex -23.0176 12.4227 5
      vertex -25.0308 12.4161 5
      vertex -25 12.025 5
    endloop
  endfacet
  facet normal 0 0 1
    outer loop
      vertex -24.6501 15.5075 5
      vertex -25.1224 12.7975 5
      vertex -25.0308 12.4161 5
    endloop
  endfacet
  facet normal 0 0 1
    outer loop
      vertex -24.6501 15.5075 5
      vertex -25.2725 13.16 5
      vertex -25.1224 12.7975 5
    endloop
  endfacet
  facet normal 0 0 1
    outer loop
      vertex -26.0305 14.0475 5
      vertex -24.969 15.7457 5
      vertex -25.3077 15.9549 5
    endloop
  endfacet
  facet normal 0 0 1
    outer loop
      vertex -24.6501 15.5075 5
      vertex -25.4775 13.4944 5
      vertex -25.2725 13.16 5
    endloop
  endfacet
  facet normal 0 0 1
    outer loop
      vertex -26.365 14.2525 5
      vertex -25.3077 15.9549 5
      vertex -25.6636 16.1332 5
    endloop
  endfacet
  facet normal 0 0 1
    outer loop
      vertex -24.6501 15.5075 5
      vertex -25.7322 13.7928 5
      vertex -25.4775 13.4944 5
    endloop
  endfacet
  facet normal 0 0 1
    outer loop
      vertex -24.6501 15.5075 5
      vertex -26.0305 14.0475 5
      vertex -25.7322 13.7928 5
    endloop
  endfacet
  facet normal 0 0 1
    outer loop
      vertex -26.7275 14.4026 5
      vertex -25.6636 16.1332 5
      vertex -26.0339 16.2795 5
    endloop
  endfacet
  facet normal 0 0 1
    outer loop
      vertex -25.3077 15.9549 5
      vertex -26.365 14.2525 5
      vertex -26.0305 14.0475 5
    endloop
  endfacet
  facet normal 0 0 1
    outer loop
      vertex -26.7275 14.4026 5
      vertex -26.0339 16.2795 5
      vertex -26.4156 16.3924 5
    endloop
  endfacet
  facet normal 0 0 1
    outer loop
      vertex -25.6636 16.1332 5
      vertex -26.7275 14.4026 5
      vertex -26.365 14.2525 5
    endloop
  endfacet
  facet normal 0 0 1
    outer loop
      vertex -27.1089 14.4942 5
      vertex -26.4156 16.3924 5
      vertex -26.8059 16.4711 5
    endloop
  endfacet
  facet normal 0 0 1
    outer loop
      vertex -26.4156 16.3924 5
      vertex -27.1089 14.4942 5
      vertex -26.7275 14.4026 5
    endloop
  endfacet
  facet normal 0 0 1
    outer loop
      vertex -27.2016 16.5151 5
      vertex -27.1089 14.4942 5
      vertex -26.8059 16.4711 5
    endloop
  endfacet
  facet normal 0 0 1
    outer loop
      vertex -27.2016 16.5151 5
      vertex -27.5 14.525 5
      vertex -27.1089 14.4942 5
    endloop
  endfacet
  facet normal 0 0 1
    outer loop
      vertex -27.5995 16.5239 5
      vertex -27.5 14.525 5
      vertex -27.2016 16.5151 5
    endloop
  endfacet
  facet normal -0 0 1
    outer loop
      vertex -27.9968 16.4975 5
      vertex -27.5 14.525 5
      vertex -27.5995 16.5239 5
    endloop
  endfacet
  facet normal 0 0 1
    outer loop
      vertex -27.5 14.525 5
      vertex -27.9968 16.4975 5
      vertex -27.8911 14.4942 5
    endloop
  endfacet
  facet normal -0 0 1
    outer loop
      vertex -28.3901 16.4361 5
      vertex -27.8911 14.4942 5
      vertex -27.9968 16.4975 5
    endloop
  endfacet
  facet normal 0 0 1
    outer loop
      vertex -27.8911 14.4942 5
      vertex -28.3901 16.4361 5
      vertex -28.2725 14.4026 5
    endloop
  endfacet
  facet normal -0 0 1
    outer loop
      vertex -28.7765 16.3401 5
      vertex -28.2725 14.4026 5
      vertex -28.3901 16.4361 5
    endloop
  endfacet
  facet normal -0 0 1
    outer loop
      vertex -29.1528 16.2104 5
      vertex -28.2725 14.4026 5
      vertex -28.7765 16.3401 5
    endloop
  endfacet
  facet normal 0 0 1
    outer loop
      vertex -28.2725 14.4026 5
      vertex -29.1528 16.2104 5
      vertex -28.635 14.2525 5
    endloop
  endfacet
  facet normal -0 0 1
    outer loop
      vertex -29.5163 16.048 5
      vertex -28.635 14.2525 5
      vertex -29.1528 16.2104 5
    endloop
  endfacet
  facet normal -0 0 1
    outer loop
      vertex -29.864 15.854 5
      vertex -28.635 14.2525 5
      vertex -29.5163 16.048 5
    endloop
  endfacet
  facet normal 0 0 1
    outer loop
      vertex -28.635 14.2525 5
      vertex -29.864 15.854 5
      vertex -28.9695 14.0475 5
    endloop
  endfacet
  facet normal -0 0 1
    outer loop
      vertex -30.1931 15.6301 5
      vertex -28.9695 14.0475 5
      vertex -29.864 15.854 5
    endloop
  endfacet
  facet normal -0 0 1
    outer loop
      vertex -30.5012 15.378 5
      vertex -28.9695 14.0475 5
      vertex -30.1931 15.6301 5
    endloop
  endfacet
  facet normal 0 0 1
    outer loop
      vertex -28.9695 14.0475 5
      vertex -30.5012 15.378 5
      vertex -29.2678 13.7928 5
    endloop
  endfacet
  facet normal -0 0 1
    outer loop
      vertex -30.7858 15.0996 5
      vertex -29.2678 13.7928 5
      vertex -30.5012 15.378 5
    endloop
  endfacet
  facet normal 0 0 1
    outer loop
      vertex -29.2678 13.7928 5
      vertex -30.7858 15.0996 5
      vertex -29.5225 13.4944 5
    endloop
  endfacet
  facet normal -0 0 1
    outer loop
      vertex -31.0447 14.7972 5
      vertex -29.5225 13.4944 5
      vertex -30.7858 15.0996 5
    endloop
  endfacet
  facet normal -0 0 1
    outer loop
      vertex -31.2758 14.4731 5
      vertex -29.5225 13.4944 5
      vertex -31.0447 14.7972 5
    endloop
  endfacet
  facet normal 0 0 1
    outer loop
      vertex -25 12.025 5
      vertex -23 12.025 5
      vertex -23.0176 12.4227 5
    endloop
  endfacet
  facet normal 0 0 1
    outer loop
      vertex -0.5 11.525 5
      vertex 0 11.025 5
      vertex -0.146454 11.3785 5
    endloop
  endfacet
  facet normal 0 0 1
    outer loop
      vertex 0 11.025 5
      vertex -0.5 11.525 5
      vertex 0 9.52499 5
    endloop
  endfacet
  facet normal -0 0 1
    outer loop
      vertex -23 11.525 5
      vertex 0 9.52499 5
      vertex -0.5 11.525 5
    endloop
  endfacet
  facet normal 0 0 1
    outer loop
      vertex -25.0308 12.4161 5
      vertex -23.0176 12.4227 5
      vertex -23.0703 12.8173 5
    endloop
  endfacet
  facet normal 0 0 1
    outer loop
      vertex -25.0308 12.4161 5
      vertex -23.0703 12.8173 5
      vertex -23.1577 13.2057 5
    endloop
  endfacet
  facet normal 0 0 1
    outer loop
      vertex -25.0308 12.4161 5
      vertex -23.1577 13.2057 5
      vertex -23.279 13.5849 5
    endloop
  endfacet
  facet normal 0 0 1
    outer loop
      vertex -25.0308 12.4161 5
      vertex -23.279 13.5849 5
      vertex -23.4334 13.9518 5
    endloop
  endfacet
  facet normal 0 0 1
    outer loop
      vertex -25.0308 12.4161 5
      vertex -23.4334 13.9518 5
      vertex -23.6196 14.3037 5
    endloop
  endfacet
  facet normal 0 0 1
    outer loop
      vertex -25.0308 12.4161 5
      vertex -23.6196 14.3037 5
      vertex -23.8362 14.6377 5
    endloop
  endfacet
  facet normal 0 0 1
    outer loop
      vertex -25.0308 12.4161 5
      vertex -23.8362 14.6377 5
      vertex -24.0814 14.9513 5
    endloop
  endfacet
  facet normal 0 0 1
    outer loop
      vertex -25.0308 12.4161 5
      vertex -24.0814 14.9513 5
      vertex -24.3534 15.242 5
    endloop
  endfacet
  facet normal 0 0 1
    outer loop
      vertex -25.0308 12.4161 5
      vertex -24.3534 15.242 5
      vertex -24.6501 15.5075 5
    endloop
  endfacet
  facet normal 0 0 1
    outer loop
      vertex -26.0305 14.0475 5
      vertex -24.6501 15.5075 5
      vertex -24.969 15.7457 5
    endloop
  endfacet
  facet normal 0 0 1
    outer loop
      vertex -23 12.025 5
      vertex -25 12.025 5
      vertex -23 11.525 5
    endloop
  endfacet
  facet normal 0 0 1
    outer loop
      vertex -23 11.525 5
      vertex -25 9.52499 5
      vertex 0 9.52499 5
    endloop
  endfacet
  facet normal 0 0 1
    outer loop
      vertex -25 9.52499 5
      vertex -23 11.525 5
      vertex -25 12.025 5
    endloop
  endfacet
  facet normal 0 0 1
    outer loop
      vertex -0.5 -11.525 5
      vertex 0 -11.025 5
      vertex 0 -9.52499 5
    endloop
  endfacet
  facet normal 0 0 1
    outer loop
      vertex 0 -11.025 5
      vertex -0.5 -11.525 5
      vertex -0.146454 -11.3785 5
    endloop
  endfacet
  facet normal -0 0 1
    outer loop
      vertex -30 -9.52499 5
      vertex -0.5 -11.525 5
      vertex 0 -9.52499 5
    endloop
  endfacet
  facet normal 0 0 1
    outer loop
      vertex -29.5225 13.4944 5
      vertex -31.2758 14.4731 5
      vertex -29.7275 13.16 5
    endloop
  endfacet
  facet normal -0 0 1
    outer loop
      vertex -31.4774 14.1298 5
      vertex -29.7275 13.16 5
      vertex -31.2758 14.4731 5
    endloop
  endfacet
  facet normal -0 0 1
    outer loop
      vertex -31.6479 13.77 5
      vertex -29.7275 13.16 5
      vertex -31.4774 14.1298 5
    endloop
  endfacet
  facet normal 0 0 1
    outer loop
      vertex -29.7275 13.16 5
      vertex -31.6479 13.77 5
      vertex -29.8776 12.7975 5
    endloop
  endfacet
  facet normal -0 0 1
    outer loop
      vertex -31.7859 13.3966 5
      vertex -29.8776 12.7975 5
      vertex -31.6479 13.77 5
    endloop
  endfacet
  facet normal -0 0 1
    outer loop
      vertex -31.8903 13.0125 5
      vertex -29.8776 12.7975 5
      vertex -31.7859 13.3966 5
    endloop
  endfacet
  facet normal 0 0 1
    outer loop
      vertex -30 -9.52499 5
      vertex -31.5 -11.525 5
      vertex -0.5 -11.525 5
    endloop
  endfacet
  facet normal 0 0 1
    outer loop
      vertex -30 12.025 5
      vertex -31.9956 12.025 5
      vertex -30 -9.52499 5
    endloop
  endfacet
  facet normal 0 0 1
    outer loop
      vertex -29.8776 12.7975 5
      vertex -31.8903 13.0125 5
      vertex -29.9692 12.4161 5
    endloop
  endfacet
  facet normal -0 0 1
    outer loop
      vertex -31.9604 12.6206 5
      vertex -29.9692 12.4161 5
      vertex -31.8903 13.0125 5
    endloop
  endfacet
  facet normal -0 0 1
    outer loop
      vertex -32 12.025 5
      vertex -30 -9.52499 5
      vertex -31.9956 12.025 5
    endloop
  endfacet
  facet normal 0 0 1
    outer loop
      vertex -31.9956 12.224 5
      vertex -29.9692 12.4161 5
      vertex -31.9604 12.6206 5
    endloop
  endfacet
  facet normal 0 0 1
    outer loop
      vertex -29.9692 12.4161 5
      vertex -31.9956 12.224 5
      vertex -30 12.025 5
    endloop
  endfacet
  facet normal 0 0 1
    outer loop
      vertex -30 12.025 5
      vertex -31.9956 12.224 5
      vertex -31.9956 12.025 5
    endloop
  endfacet
  facet normal 0 0 1
    outer loop
      vertex -30 -9.52499 5
      vertex -32 -11.025 5
      vertex -31.5 -11.525 5
    endloop
  endfacet
  facet normal 0 0 1
    outer loop
      vertex -30 -9.52499 5
      vertex -32 12.025 5
      vertex -32 -11.025 5
    endloop
  endfacet
  facet normal 0 0 1
    outer loop
      vertex -31.5 -11.525 5
      vertex -32 -11.025 5
      vertex -31.8535 -11.3785 5
    endloop
  endfacet
  facet normal 0.923852 -0.382749 0
    outer loop
      vertex -0.146454 -11.3785 5
      vertex 0 -11.025 0
      vertex 0 -11.025 5
    endloop
  endfacet
  facet normal 0.923852 -0.382749 0
    outer loop
      vertex 0 -11.025 0
      vertex -0.146454 -11.3785 5
      vertex -0.146454 -11.3785 0
    endloop
  endfacet
  facet normal 1 -0 0
    outer loop
      vertex 0 -11.025 5
      vertex 0 -9.52499 0
      vertex 0 -9.52499 5
    endloop
  endfacet
  facet normal 1 0 0
    outer loop
      vertex 0 -9.52499 0
      vertex 0 -11.025 5
      vertex 0 -11.025 0
    endloop
  endfacet
  facet normal 0 1 0
    outer loop
      vertex 0 -9.52499 5
      vertex -3 -9.52499 4.74257
      vertex -30 -9.52499 5
    endloop
  endfacet
  facet normal 0 1 0
    outer loop
      vertex 0 -9.52499 5
      vertex -2.62872 -9.52499 4.64308
      vertex -3 -9.52499 4.74257
    endloop
  endfacet
  facet normal 0 1 0
    outer loop
      vertex 0 -9.52499 5
      vertex -2.35692 -9.52499 4.37128
      vertex -2.62872 -9.52499 4.64308
    endloop
  endfacet
  facet normal 0 1 0
    outer loop
      vertex 0 -9.52499 5
      vertex -2.25743 -9.52499 4
      vertex -2.35692 -9.52499 4.37128
    endloop
  endfacet
  facet normal 0 1 0
    outer loop
      vertex 0 -9.52499 5
      vertex -2.35692 -9.52499 3.62872
      vertex -2.25743 -9.52499 4
    endloop
  endfacet
  facet normal 0 1 0
    outer loop
      vertex -2.35692 -9.52499 1.37128
      vertex -2.35692 -9.52499 3.62872
      vertex 0 -9.52499 5
    endloop
  endfacet
  facet normal 0 1 0
    outer loop
      vertex -2.62872 -9.52499 3.35692
      vertex -3 -9.52499 1.74257
      vertex -3 -9.52499 3.25743
    endloop
  endfacet
  facet normal 0 1 0
    outer loop
      vertex -2.35692 -9.52499 3.62872
      vertex -2.35692 -9.52499 1.37128
      vertex -2.62872 -9.52499 3.35692
    endloop
  endfacet
  facet normal 0 1 0
    outer loop
      vertex -2.62872 -9.52499 3.35692
      vertex -2.62872 -9.52499 1.64308
      vertex -3 -9.52499 1.74257
    endloop
  endfacet
  facet normal 0 1 0
    outer loop
      vertex -2.62872 -9.52499 3.35692
      vertex -2.35692 -9.52499 1.37128
      vertex -2.62872 -9.52499 1.64308
    endloop
  endfacet
  facet normal 0 1 -0
    outer loop
      vertex 0 -9.52499 0
      vertex -2.35692 -9.52499 1.37128
      vertex 0 -9.52499 5
    endloop
  endfacet
  facet normal 0 1 0
    outer loop
      vertex -2.35692 -9.52499 1.37128
      vertex 0 -9.52499 0
      vertex -2.25743 -9.52499 1
    endloop
  endfacet
  facet normal 0 1 0
    outer loop
      vertex -2.62872 -9.52499 0.356916
      vertex 0 -9.52499 0
      vertex -3 -9.52499 0.25743
    endloop
  endfacet
  facet normal 0 1 0
    outer loop
      vertex -2.35692 -9.52499 0.628715
      vertex 0 -9.52499 0
      vertex -2.62872 -9.52499 0.356916
    endloop
  endfacet
  facet normal 0 1 0
    outer loop
      vertex -2.25743 -9.52499 1
      vertex 0 -9.52499 0
      vertex -2.35692 -9.52499 0.628715
    endloop
  endfacet
  facet normal 0 1 -0
    outer loop
      vertex -3.37128 -9.52499 4.64308
      vertex -30 -9.52499 5
      vertex -3 -9.52499 4.74257
    endloop
  endfacet
  facet normal 0 1 -0
    outer loop
      vertex -3.64308 -9.52499 4.37128
      vertex -30 -9.52499 5
      vertex -3.37128 -9.52499 4.64308
    endloop
  endfacet
  facet normal 0 1 -0
    outer loop
      vertex -3.74257 -9.52499 4
      vertex -30 -9.52499 5
      vertex -3.64308 -9.52499 4.37128
    endloop
  endfacet
  facet normal 0 1 0
    outer loop
      vertex -3.74257 -9.52499 1
      vertex -3.74257 -9.52499 4
      vertex -3.64308 -9.52499 3.62872
    endloop
  endfacet
  facet normal 0 1 0
    outer loop
      vertex -3.64308 -9.52499 1.37128
      vertex -3.64308 -9.52499 3.62872
      vertex -3.37128 -9.52499 3.35692
    endloop
  endfacet
  facet normal 0 1 0
    outer loop
      vertex -3.37128 -9.52499 1.64308
      vertex -3.37128 -9.52499 3.35692
      vertex -3 -9.52499 3.25743
    endloop
  endfacet
  facet normal 0 1 0
    outer loop
      vertex -3.37128 -9.52499 1.64308
      vertex -3 -9.52499 3.25743
      vertex -3 -9.52499 1.74257
    endloop
  endfacet
  facet normal 0 1 0
    outer loop
      vertex -3.37128 -9.52499 3.35692
      vertex -3.37128 -9.52499 1.64308
      vertex -3.64308 -9.52499 1.37128
    endloop
  endfacet
  facet normal 0 1 0
    outer loop
      vertex -3.64308 -9.52499 3.62872
      vertex -3.64308 -9.52499 1.37128
      vertex -3.74257 -9.52499 1
    endloop
  endfacet
  facet normal 0 1 0
    outer loop
      vertex -3.74257 -9.52499 4
      vertex -3.74257 -9.52499 1
      vertex -30 -9.52499 5
    endloop
  endfacet
  facet normal 0 1 0
    outer loop
      vertex -30 -9.52499 0
      vertex -3.74257 -9.52499 1
      vertex -3.64308 -9.52499 0.628715
    endloop
  endfacet
  facet normal 0 1 0
    outer loop
      vertex -30 -9.52499 0
      vertex -3.64308 -9.52499 0.628715
      vertex -3.37128 -9.52499 0.356916
    endloop
  endfacet
  facet normal 0 1 0
    outer loop
      vertex -30 -9.52499 0
      vertex -3.37128 -9.52499 0.356916
      vertex -3 -9.52499 0.25743
    endloop
  endfacet
  facet normal 0 1 0
    outer loop
      vertex -3.74257 -9.52499 1
      vertex -30 -9.52499 0
      vertex -30 -9.52499 5
    endloop
  endfacet
  facet normal 0 1 0
    outer loop
      vertex -30 -9.52499 0
      vertex -3 -9.52499 0.25743
      vertex 0 -9.52499 0
    endloop
  endfacet
  facet normal 1 -0 0
    outer loop
      vertex -30 -9.52499 5
      vertex -30 12.025 0
      vertex -30 12.025 5
    endloop
  endfacet
  facet normal 1 0 0
    outer loop
      vertex -30 12.025 0
      vertex -30 -9.52499 5
      vertex -30 -9.52499 0
    endloop
  endfacet
  facet normal 0.996913 -0.0785092 0
    outer loop
      vertex -30 12.025 5
      vertex -29.9692 12.4161 0
      vertex -29.9692 12.4161 5
    endloop
  endfacet
  facet normal 0.996913 -0.0785092 0
    outer loop
      vertex -29.9692 12.4161 0
      vertex -30 12.025 5
      vertex -30 12.025 0
    endloop
  endfacet
  facet normal 0.97235 -0.233527 0
    outer loop
      vertex -29.9692 12.4161 5
      vertex -29.8776 12.7975 0
      vertex -29.8776 12.7975 5
    endloop
  endfacet
  facet normal 0.97235 -0.233527 0
    outer loop
      vertex -29.8776 12.7975 0
      vertex -29.9692 12.4161 5
      vertex -29.9692 12.4161 0
    endloop
  endfacet
  facet normal 0.923927 -0.382569 0
    outer loop
      vertex -29.8776 12.7975 5
      vertex -29.7275 13.16 0
      vertex -29.7275 13.16 5
    endloop
  endfacet
  facet normal 0.923927 -0.382569 0
    outer loop
      vertex -29.7275 13.16 0
      vertex -29.8776 12.7975 5
      vertex -29.8776 12.7975 0
    endloop
  endfacet
  facet normal 0.85255 -0.522646 0
    outer loop
      vertex -29.7275 13.16 5
      vertex -29.5225 13.4944 0
      vertex -29.5225 13.4944 5
    endloop
  endfacet
  facet normal 0.85255 -0.522646 0
    outer loop
      vertex -29.5225 13.4944 0
      vertex -29.7275 13.16 5
      vertex -29.7275 13.16 0
    endloop
  endfacet
  facet normal 0.760604 -0.649216 0
    outer loop
      vertex -29.5225 13.4944 5
      vertex -29.2678 13.7928 0
      vertex -29.2678 13.7928 5
    endloop
  endfacet
  facet normal 0.760604 -0.649216 0
    outer loop
      vertex -29.2678 13.7928 0
      vertex -29.5225 13.4944 5
      vertex -29.5225 13.4944 0
    endloop
  endfacet
  facet normal 0.649342 -0.760497 0
    outer loop
      vertex -29.2678 13.7928 0
      vertex -28.9695 14.0475 5
      vertex -29.2678 13.7928 5
    endloop
  endfacet
  facet normal 0.649342 -0.760497 0
    outer loop
      vertex -28.9695 14.0475 5
      vertex -29.2678 13.7928 0
      vertex -28.9695 14.0475 0
    endloop
  endfacet
  facet normal 0.522532 -0.85262 0
    outer loop
      vertex -28.9695 14.0475 0
      vertex -28.635 14.2525 5
      vertex -28.9695 14.0475 5
    endloop
  endfacet
  facet normal 0.522532 -0.85262 0
    outer loop
      vertex -28.635 14.2525 5
      vertex -28.9695 14.0475 0
      vertex -28.635 14.2525 0
    endloop
  endfacet
  facet normal 0.382569 -0.923927 0
    outer loop
      vertex -28.635 14.2525 0
      vertex -28.2725 14.4026 5
      vertex -28.635 14.2525 5
    endloop
  endfacet
  facet normal 0.382569 -0.923927 0
    outer loop
      vertex -28.2725 14.4026 5
      vertex -28.635 14.2525 0
      vertex -28.2725 14.4026 0
    endloop
  endfacet
  facet normal 0.233527 -0.97235 0
    outer loop
      vertex -28.2725 14.4026 0
      vertex -27.8911 14.4942 5
      vertex -28.2725 14.4026 5
    endloop
  endfacet
  facet normal 0.233527 -0.97235 0
    outer loop
      vertex -27.8911 14.4942 5
      vertex -28.2725 14.4026 0
      vertex -27.8911 14.4942 0
    endloop
  endfacet
  facet normal 0.0785092 -0.996913 0
    outer loop
      vertex -27.8911 14.4942 0
      vertex -27.5 14.525 5
      vertex -27.8911 14.4942 5
    endloop
  endfacet
  facet normal 0.0785092 -0.996913 0
    outer loop
      vertex -27.5 14.525 5
      vertex -27.8911 14.4942 0
      vertex -27.5 14.525 0
    endloop
  endfacet
  facet normal -0.0785092 -0.996913 0
    outer loop
      vertex -27.5 14.525 0
      vertex -27.1089 14.4942 5
      vertex -27.5 14.525 5
    endloop
  endfacet
  facet normal -0.0785092 -0.996913 -0
    outer loop
      vertex -27.1089 14.4942 5
      vertex -27.5 14.525 0
      vertex -27.1089 14.4942 0
    endloop
  endfacet
  facet normal -0.233527 -0.97235 0
    outer loop
      vertex -27.1089 14.4942 0
      vertex -26.7275 14.4026 5
      vertex -27.1089 14.4942 5
    endloop
  endfacet
  facet normal -0.233527 -0.97235 -0
    outer loop
      vertex -26.7275 14.4026 5
      vertex -27.1089 14.4942 0
      vertex -26.7275 14.4026 0
    endloop
  endfacet
  facet normal -0.382569 -0.923927 0
    outer loop
      vertex -26.7275 14.4026 0
      vertex -26.365 14.2525 5
      vertex -26.7275 14.4026 5
    endloop
  endfacet
  facet normal -0.382569 -0.923927 -0
    outer loop
      vertex -26.365 14.2525 5
      vertex -26.7275 14.4026 0
      vertex -26.365 14.2525 0
    endloop
  endfacet
  facet normal -0.522532 -0.85262 0
    outer loop
      vertex -26.365 14.2525 0
      vertex -26.0305 14.0475 5
      vertex -26.365 14.2525 5
    endloop
  endfacet
  facet normal -0.522532 -0.85262 -0
    outer loop
      vertex -26.0305 14.0475 5
      vertex -26.365 14.2525 0
      vertex -26.0305 14.0475 0
    endloop
  endfacet
  facet normal -0.649342 -0.760497 0
    outer loop
      vertex -26.0305 14.0475 0
      vertex -25.7322 13.7928 5
      vertex -26.0305 14.0475 5
    endloop
  endfacet
  facet normal -0.649342 -0.760497 -0
    outer loop
      vertex -25.7322 13.7928 5
      vertex -26.0305 14.0475 0
      vertex -25.7322 13.7928 0
    endloop
  endfacet
  facet normal -0.760604 -0.649216 0
    outer loop
      vertex -25.4775 13.4944 0
      vertex -25.7322 13.7928 5
      vertex -25.7322 13.7928 0
    endloop
  endfacet
  facet normal -0.760604 -0.649216 0
    outer loop
      vertex -25.7322 13.7928 5
      vertex -25.4775 13.4944 0
      vertex -25.4775 13.4944 5
    endloop
  endfacet
  facet normal -0.85255 -0.522646 0
    outer loop
      vertex -25.2725 13.16 0
      vertex -25.4775 13.4944 5
      vertex -25.4775 13.4944 0
    endloop
  endfacet
  facet normal -0.85255 -0.522646 0
    outer loop
      vertex -25.4775 13.4944 5
      vertex -25.2725 13.16 0
      vertex -25.2725 13.16 5
    endloop
  endfacet
  facet normal -0.923927 -0.382569 0
    outer loop
      vertex -25.1224 12.7975 0
      vertex -25.2725 13.16 5
      vertex -25.2725 13.16 0
    endloop
  endfacet
  facet normal -0.923927 -0.382569 0
    outer loop
      vertex -25.2725 13.16 5
      vertex -25.1224 12.7975 0
      vertex -25.1224 12.7975 5
    endloop
  endfacet
  facet normal -0.97235 -0.233527 0
    outer loop
      vertex -25.0308 12.4161 0
      vertex -25.1224 12.7975 5
      vertex -25.1224 12.7975 0
    endloop
  endfacet
  facet normal -0.97235 -0.233527 0
    outer loop
      vertex -25.1224 12.7975 5
      vertex -25.0308 12.4161 0
      vertex -25.0308 12.4161 5
    endloop
  endfacet
  facet normal -0.996913 -0.0785092 0
    outer loop
      vertex -25 12.025 0
      vertex -25.0308 12.4161 5
      vertex -25.0308 12.4161 0
    endloop
  endfacet
  facet normal -0.996913 -0.0785092 0
    outer loop
      vertex -25.0308 12.4161 5
      vertex -25 12.025 0
      vertex -25 12.025 5
    endloop
  endfacet
  facet normal -1 0 0
    outer loop
      vertex -25 9.52499 0
      vertex -25 12.025 5
      vertex -25 12.025 0
    endloop
  endfacet
  facet normal -1 -0 0
    outer loop
      vertex -25 12.025 5
      vertex -25 9.52499 0
      vertex -25 9.52499 5
    endloop
  endfacet
  facet normal 0 -1 0
    outer loop
      vertex -25 9.52499 5
      vertex -3 9.52499 4.74257
      vertex 0 9.52499 5
    endloop
  endfacet
  facet normal 0 -1 0
    outer loop
      vertex -25 9.52499 5
      vertex -3.37128 9.52499 4.64308
      vertex -3 9.52499 4.74257
    endloop
  endfacet
  facet normal 0 -1 0
    outer loop
      vertex -25 9.52499 5
      vertex -3.64308 9.52499 4.37128
      vertex -3.37128 9.52499 4.64308
    endloop
  endfacet
  facet normal 0 -1 0
    outer loop
      vertex -25 9.52499 5
      vertex -3.74257 9.52499 4
      vertex -3.64308 9.52499 4.37128
    endloop
  endfacet
  facet normal 0 -1 0
    outer loop
      vertex -3.74257 9.52499 1
      vertex -3.74257 9.52499 4
      vertex -25 9.52499 5
    endloop
  endfacet
  facet normal 0 -1 0
    outer loop
      vertex -3.74257 9.52499 4
      vertex -3.74257 9.52499 1
      vertex -3.64308 9.52499 3.62872
    endloop
  endfacet
  facet normal -0 -1 0
    outer loop
      vertex -3.64308 9.52499 1.37128
      vertex -3.64308 9.52499 3.62872
      vertex -3.74257 9.52499 1
    endloop
  endfacet
  facet normal -0 -1 0
    outer loop
      vertex -3.37128 9.52499 1.64308
      vertex -3.37128 9.52499 3.35692
      vertex -3.64308 9.52499 1.37128
    endloop
  endfacet
  facet normal 0 -1 -0
    outer loop
      vertex -3 9.52499 3.25743
      vertex -3.37128 9.52499 1.64308
      vertex -3 9.52499 1.74257
    endloop
  endfacet
  facet normal 0 -1 0
    outer loop
      vertex -3.37128 9.52499 3.35692
      vertex -3.37128 9.52499 1.64308
      vertex -3 9.52499 3.25743
    endloop
  endfacet
  facet normal 0 -1 0
    outer loop
      vertex -3.64308 9.52499 3.62872
      vertex -3.64308 9.52499 1.37128
      vertex -3.37128 9.52499 3.35692
    endloop
  endfacet
  facet normal 0 -1 0
    outer loop
      vertex -25 9.52499 0
      vertex -3.74257 9.52499 1
      vertex -25 9.52499 5
    endloop
  endfacet
  facet normal 0 -1 -0
    outer loop
      vertex -3.74257 9.52499 1
      vertex -25 9.52499 0
      vertex -3.64308 9.52499 0.628715
    endloop
  endfacet
  facet normal 0 -1 -0
    outer loop
      vertex -3.64308 9.52499 0.628715
      vertex -25 9.52499 0
      vertex -3.37128 9.52499 0.356916
    endloop
  endfacet
  facet normal 0 -1 -0
    outer loop
      vertex -3.37128 9.52499 0.356916
      vertex -25 9.52499 0
      vertex -3 9.52499 0.25743
    endloop
  endfacet
  facet normal 0 -1 0
    outer loop
      vertex -2.62872 9.52499 4.64308
      vertex 0 9.52499 5
      vertex -3 9.52499 4.74257
    endloop
  endfacet
  facet normal 0 -1 0
    outer loop
      vertex -2.35692 9.52499 4.37128
      vertex 0 9.52499 5
      vertex -2.62872 9.52499 4.64308
    endloop
  endfacet
  facet normal 0 -1 0
    outer loop
      vertex -2.25743 9.52499 4
      vertex 0 9.52499 5
      vertex -2.35692 9.52499 4.37128
    endloop
  endfacet
  facet normal 0 -1 0
    outer loop
      vertex -2.35692 9.52499 3.62872
      vertex 0 9.52499 5
      vertex -2.25743 9.52499 4
    endloop
  endfacet
  facet normal 0 -1 0
    outer loop
      vertex -2.35692 9.52499 1.37128
      vertex -2.35692 9.52499 3.62872
      vertex -2.62872 9.52499 3.35692
    endloop
  endfacet
  facet normal 0 -1 0
    outer loop
      vertex -3 9.52499 1.74257
      vertex -2.62872 9.52499 3.35692
      vertex -3 9.52499 3.25743
    endloop
  endfacet
  facet normal 0 -1 0
    outer loop
      vertex -2.62872 9.52499 1.64308
      vertex -2.62872 9.52499 3.35692
      vertex -3 9.52499 1.74257
    endloop
  endfacet
  facet normal 0 -1 0
    outer loop
      vertex -2.35692 9.52499 1.37128
      vertex -2.62872 9.52499 3.35692
      vertex -2.62872 9.52499 1.64308
    endloop
  endfacet
  facet normal 0 -1 0
    outer loop
      vertex -2.35692 9.52499 3.62872
      vertex -2.35692 9.52499 1.37128
      vertex 0 9.52499 5
    endloop
  endfacet
  facet normal 0 -1 0
    outer loop
      vertex 0 9.52499 0
      vertex -2.35692 9.52499 1.37128
      vertex -2.25743 9.52499 1
    endloop
  endfacet
  facet normal 0 -1 0
    outer loop
      vertex 0 9.52499 0
      vertex -2.25743 9.52499 1
      vertex -2.35692 9.52499 0.628715
    endloop
  endfacet
  facet normal 0 -1 0
    outer loop
      vertex -2.35692 9.52499 1.37128
      vertex 0 9.52499 0
      vertex 0 9.52499 5
    endloop
  endfacet
  facet normal 0 -1 0
    outer loop
      vertex -2.62872 9.52499 0.356916
      vertex 0 9.52499 0
      vertex -2.35692 9.52499 0.628715
    endloop
  endfacet
  facet normal 0 -1 0
    outer loop
      vertex -3 9.52499 0.25743
      vertex 0 9.52499 0
      vertex -2.62872 9.52499 0.356916
    endloop
  endfacet
  facet normal 0 -1 0
    outer loop
      vertex 0 9.52499 0
      vertex -3 9.52499 0.25743
      vertex -25 9.52499 0
    endloop
  endfacet
  facet normal 1 -0 0
    outer loop
      vertex 0 9.52499 5
      vertex 0 11.025 0
      vertex 0 11.025 5
    endloop
  endfacet
  facet normal 1 0 0
    outer loop
      vertex 0 11.025 0
      vertex 0 9.52499 5
      vertex 0 9.52499 0
    endloop
  endfacet
  facet normal 0.923852 0.382749 0
    outer loop
      vertex 0 11.025 5
      vertex -0.146454 11.3785 0
      vertex -0.146454 11.3785 5
    endloop
  endfacet
  facet normal 0.923852 0.382749 0
    outer loop
      vertex -0.146454 11.3785 0
      vertex 0 11.025 5
      vertex 0 11.025 0
    endloop
  endfacet
  facet normal 0.382809 0.923827 -0
    outer loop
      vertex -0.146454 11.3785 0
      vertex -0.5 11.525 5
      vertex -0.146454 11.3785 5
    endloop
  endfacet
  facet normal 0.382809 0.923827 0
    outer loop
      vertex -0.5 11.525 5
      vertex -0.146454 11.3785 0
      vertex -0.5 11.525 0
    endloop
  endfacet
  facet normal 0 1 -0
    outer loop
      vertex -0.5 11.525 0
      vertex -23 11.525 5
      vertex -0.5 11.525 5
    endloop
  endfacet
  facet normal 0 1 0
    outer loop
      vertex -23 11.525 5
      vertex -0.5 11.525 0
      vertex -23 11.525 0
    endloop
  endfacet
  facet normal 1 -0 0
    outer loop
      vertex -23 11.525 5
      vertex -23 12.025 0
      vertex -23 12.025 5
    endloop
  endfacet
  facet normal 1 0 0
    outer loop
      vertex -23 12.025 0
      vertex -23 11.525 5
      vertex -23 11.525 0
    endloop
  endfacet
  facet normal 0.999022 0.0442112 0
    outer loop
      vertex -23 12.025 5
      vertex -23.0176 12.4227 0
      vertex -23.0176 12.4227 5
    endloop
  endfacet
  facet normal 0.999022 0.0442112 0
    outer loop
      vertex -23.0176 12.4227 0
      vertex -23 12.025 5
      vertex -23 12.025 0
    endloop
  endfacet
  facet normal 0.991199 0.132378 0
    outer loop
      vertex -23.0176 12.4227 5
      vertex -23.0703 12.8173 0
      vertex -23.0703 12.8173 5
    endloop
  endfacet
  facet normal 0.991199 0.132378 0
    outer loop
      vertex -23.0703 12.8173 0
      vertex -23.0176 12.4227 5
      vertex -23.0176 12.4227 0
    endloop
  endfacet
  facet normal 0.975604 0.219536 0
    outer loop
      vertex -23.0703 12.8173 5
      vertex -23.1577 13.2057 0
      vertex -23.1577 13.2057 5
    endloop
  endfacet
  facet normal 0.975604 0.219536 0
    outer loop
      vertex -23.1577 13.2057 0
      vertex -23.0703 12.8173 5
      vertex -23.0703 12.8173 0
    endloop
  endfacet
  facet normal 0.952456 0.304675 0
    outer loop
      vertex -23.1577 13.2057 5
      vertex -23.279 13.5849 0
      vertex -23.279 13.5849 5
    endloop
  endfacet
  facet normal 0.952456 0.304675 0
    outer loop
      vertex -23.279 13.5849 0
      vertex -23.1577 13.2057 5
      vertex -23.1577 13.2057 0
    endloop
  endfacet
  facet normal 0.921711 0.387877 0
    outer loop
      vertex -23.279 13.5849 5
      vertex -23.4334 13.9518 0
      vertex -23.4334 13.9518 5
    endloop
  endfacet
  facet normal 0.921711 0.387877 0
    outer loop
      vertex -23.4334 13.9518 0
      vertex -23.279 13.5849 5
      vertex -23.279 13.5849 0
    endloop
  endfacet
  facet normal 0.883892 0.467692 0
    outer loop
      vertex -23.4334 13.9518 5
      vertex -23.6196 14.3037 0
      vertex -23.6196 14.3037 5
    endloop
  endfacet
  facet normal 0.883892 0.467692 0
    outer loop
      vertex -23.6196 14.3037 0
      vertex -23.4334 13.9518 5
      vertex -23.4334 13.9518 0
    endloop
  endfacet
  facet normal 0.839017 0.544105 0
    outer loop
      vertex -23.6196 14.3037 5
      vertex -23.8362 14.6377 0
      vertex -23.8362 14.6377 5
    endloop
  endfacet
  facet normal 0.839017 0.544105 0
    outer loop
      vertex -23.8362 14.6377 0
      vertex -23.6196 14.3037 5
      vertex -23.6196 14.3037 0
    endloop
  endfacet
  facet normal 0.787781 0.615956 0
    outer loop
      vertex -23.8362 14.6377 5
      vertex -24.0814 14.9513 0
      vertex -24.0814 14.9513 5
    endloop
  endfacet
  facet normal 0.787781 0.615956 0
    outer loop
      vertex -24.0814 14.9513 0
      vertex -23.8362 14.6377 5
      vertex -23.8362 14.6377 0
    endloop
  endfacet
  facet normal 0.730203 0.683231 0
    outer loop
      vertex -24.0814 14.9513 5
      vertex -24.3534 15.242 0
      vertex -24.3534 15.242 5
    endloop
  endfacet
  facet normal 0.730203 0.683231 0
    outer loop
      vertex -24.3534 15.242 0
      vertex -24.0814 14.9513 5
      vertex -24.0814 14.9513 0
    endloop
  endfacet
  facet normal 0.666839 0.745202 -0
    outer loop
      vertex -24.3534 15.242 0
      vertex -24.6501 15.5075 5
      vertex -24.3534 15.242 5
    endloop
  endfacet
  facet normal 0.666839 0.745202 0
    outer loop
      vertex -24.6501 15.5075 5
      vertex -24.3534 15.242 0
      vertex -24.6501 15.5075 0
    endloop
  endfacet
  facet normal 0.598431 0.801174 -0
    outer loop
      vertex -24.6501 15.5075 0
      vertex -24.969 15.7457 5
      vertex -24.6501 15.5075 5
    endloop
  endfacet
  facet normal 0.598431 0.801174 0
    outer loop
      vertex -24.969 15.7457 5
      vertex -24.6501 15.5075 0
      vertex -24.969 15.7457 0
    endloop
  endfacet
  facet normal 0.525498 0.850795 -0
    outer loop
      vertex -24.969 15.7457 0
      vertex -25.3077 15.9549 5
      vertex -24.969 15.7457 5
    endloop
  endfacet
  facet normal 0.525498 0.850795 0
    outer loop
      vertex -25.3077 15.9549 5
      vertex -24.969 15.7457 0
      vertex -25.3077 15.9549 0
    endloop
  endfacet
  facet normal 0.447917 0.894075 -0
    outer loop
      vertex -25.3077 15.9549 0
      vertex -25.6636 16.1332 5
      vertex -25.3077 15.9549 5
    endloop
  endfacet
  facet normal 0.447917 0.894075 0
    outer loop
      vertex -25.6636 16.1332 5
      vertex -25.3077 15.9549 0
      vertex -25.6636 16.1332 0
    endloop
  endfacet
  facet normal 0.367447 0.930045 -0
    outer loop
      vertex -25.6636 16.1332 0
      vertex -26.0339 16.2795 5
      vertex -25.6636 16.1332 5
    endloop
  endfacet
  facet normal 0.367447 0.930045 0
    outer loop
      vertex -26.0339 16.2795 5
      vertex -25.6636 16.1332 0
      vertex -26.0339 16.2795 0
    endloop
  endfacet
  facet normal 0.283635 0.958932 -0
    outer loop
      vertex -26.0339 16.2795 0
      vertex -26.4156 16.3924 5
      vertex -26.0339 16.2795 5
    endloop
  endfacet
  facet normal 0.283635 0.958932 0
    outer loop
      vertex -26.4156 16.3924 5
      vertex -26.0339 16.2795 0
      vertex -26.4156 16.3924 0
    endloop
  endfacet
  facet normal 0.197661 0.98027 -0
    outer loop
      vertex -26.4156 16.3924 0
      vertex -26.8059 16.4711 5
      vertex -26.4156 16.3924 5
    endloop
  endfacet
  facet normal 0.197661 0.98027 0
    outer loop
      vertex -26.8059 16.4711 5
      vertex -26.4156 16.3924 0
      vertex -26.8059 16.4711 0
    endloop
  endfacet
  facet normal 0.110514 0.993875 -0
    outer loop
      vertex -26.8059 16.4711 0
      vertex -27.2016 16.5151 5
      vertex -26.8059 16.4711 5
    endloop
  endfacet
  facet normal 0.110514 0.993875 0
    outer loop
      vertex -27.2016 16.5151 5
      vertex -26.8059 16.4711 0
      vertex -27.2016 16.5151 0
    endloop
  endfacet
  facet normal 0.0221107 0.999756 -0
    outer loop
      vertex -27.2016 16.5151 0
      vertex -27.5995 16.5239 5
      vertex -27.2016 16.5151 5
    endloop
  endfacet
  facet normal 0.0221107 0.999756 0
    outer loop
      vertex -27.5995 16.5239 5
      vertex -27.2016 16.5151 0
      vertex -27.5995 16.5239 0
    endloop
  endfacet
  facet normal -0.0663023 0.9978 0
    outer loop
      vertex -27.5995 16.5239 0
      vertex -27.9968 16.4975 5
      vertex -27.5995 16.5239 5
    endloop
  endfacet
  facet normal -0.0663023 0.9978 0
    outer loop
      vertex -27.9968 16.4975 5
      vertex -27.5995 16.5239 0
      vertex -27.9968 16.4975 0
    endloop
  endfacet
  facet normal -0.154247 0.988032 0
    outer loop
      vertex -27.9968 16.4975 0
      vertex -28.3901 16.4361 5
      vertex -27.9968 16.4975 5
    endloop
  endfacet
  facet normal -0.154247 0.988032 0
    outer loop
      vertex -28.3901 16.4361 5
      vertex -27.9968 16.4975 0
      vertex -28.3901 16.4361 0
    endloop
  endfacet
  facet normal -0.241117 0.970496 0
    outer loop
      vertex -28.3901 16.4361 0
      vertex -28.7765 16.3401 5
      vertex -28.3901 16.4361 5
    endloop
  endfacet
  facet normal -0.241117 0.970496 0
    outer loop
      vertex -28.7765 16.3401 5
      vertex -28.3901 16.4361 0
      vertex -28.7765 16.3401 0
    endloop
  endfacet
  facet normal -0.325859 0.945418 0
    outer loop
      vertex -28.7765 16.3401 0
      vertex -29.1528 16.2104 5
      vertex -28.7765 16.3401 5
    endloop
  endfacet
  facet normal -0.325859 0.945418 0
    outer loop
      vertex -29.1528 16.2104 5
      vertex -28.7765 16.3401 0
      vertex -29.1528 16.2104 0
    endloop
  endfacet
  facet normal -0.407909 0.913023 0
    outer loop
      vertex -29.1528 16.2104 0
      vertex -29.5163 16.048 5
      vertex -29.1528 16.2104 5
    endloop
  endfacet
  facet normal -0.407909 0.913023 0
    outer loop
      vertex -29.5163 16.048 5
      vertex -29.1528 16.2104 0
      vertex -29.5163 16.048 0
    endloop
  endfacet
  facet normal -0.487241 0.873267 0
    outer loop
      vertex -29.5163 16.048 0
      vertex -29.864 15.854 5
      vertex -29.5163 16.048 5
    endloop
  endfacet
  facet normal -0.487241 0.873267 0
    outer loop
      vertex -29.864 15.854 5
      vertex -29.5163 16.048 0
      vertex -29.864 15.854 0
    endloop
  endfacet
  facet normal -0.562502 0.826796 0
    outer loop
      vertex -29.864 15.854 0
      vertex -30.1931 15.6301 5
      vertex -29.864 15.854 5
    endloop
  endfacet
  facet normal -0.562502 0.826796 0
    outer loop
      vertex -30.1931 15.6301 5
      vertex -29.864 15.854 0
      vertex -30.1931 15.6301 0
    endloop
  endfacet
  facet normal -0.633265 0.773935 0
    outer loop
      vertex -30.1931 15.6301 0
      vertex -30.5012 15.378 5
      vertex -30.1931 15.6301 5
    endloop
  endfacet
  facet normal -0.633265 0.773935 0
    outer loop
      vertex -30.5012 15.378 5
      vertex -30.1931 15.6301 0
      vertex -30.5012 15.378 0
    endloop
  endfacet
  facet normal -0.699277 0.71485 0
    outer loop
      vertex -30.5012 15.378 0
      vertex -30.7858 15.0996 5
      vertex -30.5012 15.378 5
    endloop
  endfacet
  facet normal -0.699277 0.71485 0
    outer loop
      vertex -30.7858 15.0996 5
      vertex -30.5012 15.378 0
      vertex -30.7858 15.0996 0
    endloop
  endfacet
  facet normal -0.759629 0.650357 0
    outer loop
      vertex -31.0447 14.7972 0
      vertex -30.7858 15.0996 5
      vertex -30.7858 15.0996 0
    endloop
  endfacet
  facet normal -0.759629 0.650357 0
    outer loop
      vertex -30.7858 15.0996 5
      vertex -31.0447 14.7972 0
      vertex -31.0447 14.7972 5
    endloop
  endfacet
  facet normal -0.814208 0.580573 0
    outer loop
      vertex -31.2758 14.4731 0
      vertex -31.0447 14.7972 5
      vertex -31.0447 14.7972 0
    endloop
  endfacet
  facet normal -0.814208 0.580573 0
    outer loop
      vertex -31.0447 14.7972 5
      vertex -31.2758 14.4731 0
      vertex -31.2758 14.4731 5
    endloop
  endfacet
  facet normal -0.862308 0.506383 0
    outer loop
      vertex -31.4774 14.1298 0
      vertex -31.2758 14.4731 5
      vertex -31.2758 14.4731 0
    endloop
  endfacet
  facet normal -0.862308 0.506383 0
    outer loop
      vertex -31.2758 14.4731 5
      vertex -31.4774 14.1298 0
      vertex -31.4774 14.1298 5
    endloop
  endfacet
  facet normal -0.903671 0.428227 0
    outer loop
      vertex -31.6479 13.77 0
      vertex -31.4774 14.1298 5
      vertex -31.4774 14.1298 0
    endloop
  endfacet
  facet normal -0.903671 0.428227 0
    outer loop
      vertex -31.4774 14.1298 5
      vertex -31.6479 13.77 0
      vertex -31.6479 13.77 5
    endloop
  endfacet
  facet normal -0.937991 0.34666 0
    outer loop
      vertex -31.7859 13.3966 0
      vertex -31.6479 13.77 5
      vertex -31.6479 13.77 0
    endloop
  endfacet
  facet normal -0.937991 0.34666 0
    outer loop
      vertex -31.6479 13.77 5
      vertex -31.7859 13.3966 0
      vertex -31.7859 13.3966 5
    endloop
  endfacet
  facet normal -0.96499 0.262288 0
    outer loop
      vertex -31.8903 13.0125 0
      vertex -31.7859 13.3966 5
      vertex -31.7859 13.3966 0
    endloop
  endfacet
  facet normal -0.96499 0.262288 0
    outer loop
      vertex -31.7859 13.3966 5
      vertex -31.8903 13.0125 0
      vertex -31.8903 13.0125 5
    endloop
  endfacet
  facet normal -0.984376 0.176078 0
    outer loop
      vertex -31.9604 12.6206 0
      vertex -31.8903 13.0125 5
      vertex -31.8903 13.0125 0
    endloop
  endfacet
  facet normal -0.984376 0.176078 0
    outer loop
      vertex -31.8903 13.0125 5
      vertex -31.9604 12.6206 0
      vertex -31.9604 12.6206 5
    endloop
  endfacet
  facet normal -0.996084 0.0884069 0
    outer loop
      vertex -31.9956 12.224 0
      vertex -31.9604 12.6206 5
      vertex -31.9604 12.6206 0
    endloop
  endfacet
  facet normal -0.996084 0.0884069 0
    outer loop
      vertex -31.9604 12.6206 5
      vertex -31.9956 12.224 0
      vertex -31.9956 12.224 5
    endloop
  endfacet
  facet normal -1 0 0
    outer loop
      vertex -31.9956 12.025 0
      vertex -31.9956 12.224 5
      vertex -31.9956 12.224 0
    endloop
  endfacet
  facet normal -1 -0 0
    outer loop
      vertex -31.9956 12.224 5
      vertex -31.9956 12.025 0
      vertex -31.9956 12.025 5
    endloop
  endfacet
  facet normal 0 1 -0
    outer loop
      vertex -31.9956 12.025 0
      vertex -32 12.025 5
      vertex -31.9956 12.025 5
    endloop
  endfacet
  facet normal 0 1 0
    outer loop
      vertex -32 12.025 5
      vertex -31.9956 12.025 0
      vertex -32 12.025 0
    endloop
  endfacet
  facet normal -1 0 0
    outer loop
      vertex -32 -11.025 0
      vertex -32 12.025 5
      vertex -32 12.025 0
    endloop
  endfacet
  facet normal -1 -0 0
    outer loop
      vertex -32 12.025 5
      vertex -32 -11.025 0
      vertex -32 -11.025 5
    endloop
  endfacet
  facet normal -0.92381 -0.382852 0
    outer loop
      vertex -31.8535 -11.3785 0
      vertex -32 -11.025 5
      vertex -32 -11.025 0
    endloop
  endfacet
  facet normal -0.92381 -0.382852 0
    outer loop
      vertex -32 -11.025 5
      vertex -31.8535 -11.3785 0
      vertex -31.8535 -11.3785 5
    endloop
  endfacet
  facet normal -0.382852 -0.92381 0
    outer loop
      vertex -31.8535 -11.3785 0
      vertex -31.5 -11.525 5
      vertex -31.8535 -11.3785 5
    endloop
  endfacet
  facet normal -0.382852 -0.92381 -0
    outer loop
      vertex -31.5 -11.525 5
      vertex -31.8535 -11.3785 0
      vertex -31.5 -11.525 0
    endloop
  endfacet
  facet normal 0 -1 0
    outer loop
      vertex -31.5 -11.525 0
      vertex -0.5 -11.525 5
      vertex -31.5 -11.525 5
    endloop
  endfacet
  facet normal 0 -1 -0
    outer loop
      vertex -0.5 -11.525 5
      vertex -31.5 -11.525 0
      vertex -0.5 -11.525 0
    endloop
  endfacet
  facet normal 0.382809 -0.923827 0
    outer loop
      vertex -0.5 -11.525 0
      vertex -0.146454 -11.3785 5
      vertex -0.5 -11.525 5
    endloop
  endfacet
  facet normal 0.382809 -0.923827 0
    outer loop
      vertex -0.146454 -11.3785 5
      vertex -0.5 -11.525 0
      vertex -0.146454 -11.3785 0
    endloop
  endfacet
endsolid OpenSCAD_Model
