solid OpenSCAD_Model
  facet normal -0.156433 -0.698398 -0.698404
    outer loop
      vertex 0 0 -2.23223
      vertex 0.386271 -1.15938 -1.15938
      vertex 0 -1.11612 -1.11612
    endloop
  endfacet
  facet normal -0.156434 -0.698398 -0.698404
    outer loop
      vertex 0.386271 -1.15938 -1.15938
      vertex 0 0 -2.23223
      vertex 0.386271 0 -2.31875
    endloop
  endfacet
  facet normal -0.891007 0.32102 0.321019
    outer loop
      vertex 1.01127 -2.51953 -2.51953
      vertex 1.18882 0 -4.54627
      vertex 1.01127 0 -5.03907
    endloop
  endfacet
  facet normal -0.891007 0.32102 0.321019
    outer loop
      vertex 1.18882 0 -4.54627
      vertex 1.01127 -2.51953 -2.51953
      vertex 1.18882 -2.27313 -2.27313
    endloop
  endfacet
  facet normal -0.987688 0.110617 0.110617
    outer loop
      vertex 1.18882 -2.27313 -2.27313
      vertex 1.25 0 -4
      vertex 1.18882 0 -4.54627
    endloop
  endfacet
  facet normal -0.987688 0.110619 0.110619
    outer loop
      vertex 1.25 0 -4
      vertex 1.18882 -2.27313 -2.27313
      vertex 1.25 -2 -2
    endloop
  endfacet
  facet normal -0.156433 0.698402 0.6984
    outer loop
      vertex 0.386271 0 -5.68125
      vertex 0 -2.88388 -2.88388
      vertex 0.386271 -2.84062 -2.84062
    endloop
  endfacet
  facet normal -0.156433 0.698402 0.6984
    outer loop
      vertex 0 -2.88388 -2.88388
      vertex 0.386271 0 -5.68125
      vertex 0 0 -5.76777
    endloop
  endfacet
  facet normal 0.891007 0.32102 0.321019
    outer loop
      vertex -1.01127 -2.51953 -2.51953
      vertex -1.18882 0 -4.54627
      vertex -1.18882 -2.27313 -2.27313
    endloop
  endfacet
  facet normal 0.891007 0.32102 0.321019
    outer loop
      vertex -1.18882 0 -4.54627
      vertex -1.01127 -2.51953 -2.51953
      vertex -1.01127 0 -5.03907
    endloop
  endfacet
  facet normal 0.70712 0.499992 0.49999
    outer loop
      vertex -0.734731 -2.71508 -2.71508
      vertex -1.01127 0 -5.03907
      vertex -1.01127 -2.51953 -2.51953
    endloop
  endfacet
  facet normal 0.707103 0.500002 0.500004
    outer loop
      vertex -1.01127 0 -5.03907
      vertex -0.734731 -2.71508 -2.71508
      vertex -0.734731 0 -5.43015
    endloop
  endfacet
  facet normal -0.707103 -0.500001 -0.500004
    outer loop
      vertex 1.01127 -1.48047 -1.48047
      vertex 0.734731 0 -2.56985
      vertex 1.01127 0 -2.96093
    endloop
  endfacet
  facet normal -0.70712 -0.499992 -0.499989
    outer loop
      vertex 0.734731 0 -2.56985
      vertex 1.01127 -1.48047 -1.48047
      vertex 0.734731 -1.28492 -1.28492
    endloop
  endfacet
  facet normal 0.987688 0.110619 0.110619
    outer loop
      vertex -1.18882 -2.27313 -2.27313
      vertex -1.25 0 -4
      vertex -1.25 -2 -2
    endloop
  endfacet
  facet normal 0.987688 0.110617 0.110617
    outer loop
      vertex -1.25 0 -4
      vertex -1.18882 -2.27313 -2.27313
      vertex -1.18882 0 -4.54627
    endloop
  endfacet
  facet normal 0.70712 -0.499992 -0.499989
    outer loop
      vertex -1.01127 -1.48047 -1.48047
      vertex -0.734731 0 -2.56985
      vertex -0.734731 -1.28492 -1.28492
    endloop
  endfacet
  facet normal 0.707103 -0.500001 -0.500004
    outer loop
      vertex -0.734731 0 -2.56985
      vertex -1.01127 -1.48047 -1.48047
      vertex -1.01127 0 -2.96093
    endloop
  endfacet
  facet normal -0.891007 -0.321018 -0.321019
    outer loop
      vertex 1.18882 -1.72687 -1.72687
      vertex 1.01127 0 -2.96093
      vertex 1.18882 0 -3.45373
    endloop
  endfacet
  facet normal -0.891007 -0.321018 -0.32102
    outer loop
      vertex 1.01127 0 -2.96093
      vertex 1.18882 -1.72687 -1.72687
      vertex 1.01127 -1.48047 -1.48047
    endloop
  endfacet
  facet normal 0.156433 0.698402 0.6984
    outer loop
      vertex 0 -2.88388 -2.88388
      vertex -0.386271 0 -5.68125
      vertex -0.386271 -2.84062 -2.84062
    endloop
  endfacet
  facet normal 0.156433 0.698402 0.6984
    outer loop
      vertex -0.386271 0 -5.68125
      vertex 0 -2.88388 -2.88388
      vertex 0 0 -5.76777
    endloop
  endfacet
  facet normal -0.454002 0.630031 0.630034
    outer loop
      vertex 0.386271 0 -5.68125
      vertex 0.734731 -2.71508 -2.71508
      vertex 0.734731 0 -5.43015
    endloop
  endfacet
  facet normal -0.453972 0.630044 0.630042
    outer loop
      vertex 0.734731 -2.71508 -2.71508
      vertex 0.386271 0 -5.68125
      vertex 0.386271 -2.84062 -2.84062
    endloop
  endfacet
  facet normal -0.987688 -0.110617 -0.110617
    outer loop
      vertex 1.25 -2 -2
      vertex 1.18882 0 -3.45373
      vertex 1.25 0 -4
    endloop
  endfacet
  facet normal -0.987688 -0.110619 -0.110619
    outer loop
      vertex 1.18882 0 -3.45373
      vertex 1.25 -2 -2
      vertex 1.18882 -1.72687 -1.72687
    endloop
  endfacet
  facet normal 0.891007 -0.321018 -0.32102
    outer loop
      vertex -1.18882 -1.72687 -1.72687
      vertex -1.01127 0 -2.96093
      vertex -1.01127 -1.48047 -1.48047
    endloop
  endfacet
  facet normal 0.891007 -0.321018 -0.321019
    outer loop
      vertex -1.01127 0 -2.96093
      vertex -1.18882 -1.72687 -1.72687
      vertex -1.18882 0 -3.45373
    endloop
  endfacet
  facet normal -0.453972 -0.630041 -0.630046
    outer loop
      vertex 0.386271 0 -2.31875
      vertex 0.734731 -1.28492 -1.28492
      vertex 0.386271 -1.15938 -1.15938
    endloop
  endfacet
  facet normal -0.454 -0.630036 -0.630031
    outer loop
      vertex 0.734731 -1.28492 -1.28492
      vertex 0.386271 0 -2.31875
      vertex 0.734731 0 -2.56985
    endloop
  endfacet
  facet normal 0.454002 0.630031 0.630034
    outer loop
      vertex -0.734731 -2.71508 -2.71508
      vertex -0.386271 0 -5.68125
      vertex -0.734731 0 -5.43015
    endloop
  endfacet
  facet normal 0.453972 0.630044 0.630042
    outer loop
      vertex -0.386271 0 -5.68125
      vertex -0.734731 -2.71508 -2.71508
      vertex -0.386271 -2.84062 -2.84062
    endloop
  endfacet
  facet normal 0.453972 -0.630041 -0.630046
    outer loop
      vertex -0.734731 -1.28492 -1.28492
      vertex -0.386271 0 -2.31875
      vertex -0.386271 -1.15938 -1.15938
    endloop
  endfacet
  facet normal 0.454 -0.630036 -0.630031
    outer loop
      vertex -0.386271 0 -2.31875
      vertex -0.734731 -1.28492 -1.28492
      vertex -0.734731 0 -2.56985
    endloop
  endfacet
  facet normal -0.707103 0.500002 0.500004
    outer loop
      vertex 0.734731 -2.71508 -2.71508
      vertex 1.01127 0 -5.03907
      vertex 0.734731 0 -5.43015
    endloop
  endfacet
  facet normal -0.70712 0.499992 0.49999
    outer loop
      vertex 1.01127 0 -5.03907
      vertex 0.734731 -2.71508 -2.71508
      vertex 1.01127 -2.51953 -2.51953
    endloop
  endfacet
  facet normal 0.987688 -0.110619 -0.110619
    outer loop
      vertex -1.25 -2 -2
      vertex -1.18882 0 -3.45373
      vertex -1.18882 -1.72687 -1.72687
    endloop
  endfacet
  facet normal 0.987688 -0.110617 -0.110617
    outer loop
      vertex -1.18882 0 -3.45373
      vertex -1.25 -2 -2
      vertex -1.25 0 -4
    endloop
  endfacet
  facet normal 0.156433 -0.698398 -0.698404
    outer loop
      vertex -0.386271 -1.15938 -1.15938
      vertex 0 0 -2.23223
      vertex 0 -1.11612 -1.11612
    endloop
  endfacet
  facet normal 0.156434 -0.698398 -0.698404
    outer loop
      vertex 0 0 -2.23223
      vertex -0.386271 -1.15938 -1.15938
      vertex -0.386271 0 -2.31875
    endloop
  endfacet
  facet normal -0.995185 -0.0693097 -0.0693091
    outer loop
      vertex 1.99891 -4 0.0156684
      vertex 1.96157 -1.7241 -1.7241
      vertex 2 -2 -2
    endloop
  endfacet
  facet normal -0.995184 -0.0693119 -0.0693119
    outer loop
      vertex 1.96157 -1.7241 -1.7241
      vertex 1.99891 -4 0.0156684
      vertex 1.96157 -4 0.551798
    endloop
  endfacet
  facet normal -0.956942 -0.205257 -0.205258
    outer loop
      vertex 1.96157 -4 0.551798
      vertex 1.84776 -1.4588 -1.4588
      vertex 1.96157 -1.7241 -1.7241
    endloop
  endfacet
  facet normal -0.956941 -0.20526 -0.20526
    outer loop
      vertex 1.84776 -1.4588 -1.4588
      vertex 1.96157 -4 0.551798
      vertex 1.84776 -4 1.08239
    endloop
  endfacet
  facet normal 0.995184 -0.0693119 -0.0693119
    outer loop
      vertex -1.99891 -4 0.0156684
      vertex -1.96157 -1.7241 -1.7241
      vertex -1.96157 -4 0.551798
    endloop
  endfacet
  facet normal 0.995185 -0.0693097 -0.0693091
    outer loop
      vertex -1.96157 -1.7241 -1.7241
      vertex -1.99891 -4 0.0156684
      vertex -2 -2 -2
    endloop
  endfacet
  facet normal -0.995195 -0.0692325 -0.0692325
    outer loop
      vertex 2 -2 -2
      vertex 2 -4 0
      vertex 1.99891 -4 0.0156684
    endloop
  endfacet
  facet normal -0.772858 0.448715 0.448715
    outer loop
      vertex 1.41774 -4 -1.99392
      vertex 1.41421 -3 -3
      vertex 1.41421 -4 -2
    endloop
  endfacet
  facet normal -0.0980216 -0.703702 -0.703701
    outer loop
      vertex 0 -0.585787 -0.585787
      vertex 0.390181 -4 2.77408
      vertex 0 -4 2.82843
    endloop
  endfacet
  facet normal -0.0980181 -0.703702 -0.703702
    outer loop
      vertex 0.390181 -4 2.77408
      vertex 0 -0.585787 -0.585787
      vertex 0.390181 -0.612961 -0.612961
    endloop
  endfacet
  facet normal -0.773012 0.448582 0.448583
    outer loop
      vertex 1.41774 -4 -1.99392
      vertex 1.66294 -2.78569 -2.78569
      vertex 1.41421 -3 -3
    endloop
  endfacet
  facet normal -0.773008 0.448584 0.448587
    outer loop
      vertex 1.66294 -2.78569 -2.78569
      vertex 1.41774 -4 -1.99392
      vertex 1.66294 -4 -1.57139
    endloop
  endfacet
  facet normal -0.956942 0.205258 0.205257
    outer loop
      vertex 1.84776 -4 -1.08239
      vertex 1.96157 -2.2759 -2.2759
      vertex 1.84776 -2.5412 -2.5412
    endloop
  endfacet
  facet normal -0.956941 0.205261 0.20526
    outer loop
      vertex 1.96157 -2.2759 -2.2759
      vertex 1.84776 -4 -1.08239
      vertex 1.96157 -4 -0.551798
    endloop
  endfacet
  facet normal 0.956941 -0.20526 -0.20526
    outer loop
      vertex -1.96157 -4 0.551798
      vertex -1.84776 -1.4588 -1.4588
      vertex -1.84776 -4 1.08239
    endloop
  endfacet
  facet normal 0.956942 -0.205257 -0.205258
    outer loop
      vertex -1.84776 -1.4588 -1.4588
      vertex -1.96157 -4 0.551798
      vertex -1.96157 -1.7241 -1.7241
    endloop
  endfacet
  facet normal -0.634396 -0.546599 -0.546599
    outer loop
      vertex 1.40132 -4 2.01496
      vertex 1.11114 -0.824125 -0.824125
      vertex 1.41421 -1 -1
    endloop
  endfacet
  facet normal -0.634396 -0.546599 -0.546599
    outer loop
      vertex 1.11114 -0.824125 -0.824125
      vertex 1.40132 -4 2.01496
      vertex 1.11114 -4 2.35175
    endloop
  endfacet
  facet normal 0.881921 0.333329 0.333327
    outer loop
      vertex -1.66294 -4 -1.57139
      vertex -1.84776 -2.5412 -2.5412
      vertex -1.84776 -4 -1.08239
    endloop
  endfacet
  facet normal 0.881914 0.333336 0.333339
    outer loop
      vertex -1.84776 -2.5412 -2.5412
      vertex -1.66294 -4 -1.57139
      vertex -1.66294 -2.78569 -2.78569
    endloop
  endfacet
  facet normal -0.995185 0.0693095 0.0693094
    outer loop
      vertex 1.96157 -4 -0.551798
      vertex 2 -2 -2
      vertex 1.96157 -2.2759 -2.2759
    endloop
  endfacet
  facet normal -0.995184 0.0693133 0.0693147
    outer loop
      vertex 2 -2 -2
      vertex 1.96157 -4 -0.551798
      vertex 1.99892 -4 -0.0155466
    endloop
  endfacet
  facet normal 0.773039 -0.448559 -0.448559
    outer loop
      vertex -1.41421 -1 -1
      vertex -1.41421 -4 2
      vertex -1.42473 -4 1.98187
    endloop
  endfacet
  facet normal 0.995184 0.0693133 0.0693147
    outer loop
      vertex -1.96157 -4 -0.551798
      vertex -2 -2 -2
      vertex -1.99892 -4 -0.0155466
    endloop
  endfacet
  facet normal 0.995185 0.0693095 0.0693094
    outer loop
      vertex -2 -2 -2
      vertex -1.96157 -4 -0.551798
      vertex -1.96157 -2.2759 -2.2759
    endloop
  endfacet
  facet normal -0.995209 0.0691357 0.0691357
    outer loop
      vertex 2 -4 0
      vertex 2 -2 -2
      vertex 1.99892 -4 -0.0155466
    endloop
  endfacet
  facet normal -0.773039 -0.448559 -0.448559
    outer loop
      vertex 1.41421 -1 -1
      vertex 1.42473 -4 1.98187
      vertex 1.41421 -4 2
    endloop
  endfacet
  facet normal -0.881914 -0.333337 -0.333338
    outer loop
      vertex 1.84776 -4 1.08239
      vertex 1.66294 -1.21431 -1.21431
      vertex 1.84776 -1.4588 -1.4588
    endloop
  endfacet
  facet normal -0.881922 -0.333328 -0.333327
    outer loop
      vertex 1.66294 -1.21431 -1.21431
      vertex 1.84776 -4 1.08239
      vertex 1.66294 -4 1.57139
    endloop
  endfacet
  facet normal 0.772858 0.448715 0.448715
    outer loop
      vertex -1.41421 -4 -2
      vertex -1.41421 -3 -3
      vertex -1.41774 -4 -1.99392
    endloop
  endfacet
  facet normal 0.995209 0.0691357 0.0691357
    outer loop
      vertex -1.99892 -4 -0.0155466
      vertex -2 -2 -2
      vertex -2 -4 0
    endloop
  endfacet
  facet normal 0.471391 -0.623614 -0.623615
    outer loop
      vertex -1.11114 -4 2.35175
      vertex -0.765367 -0.693438 -0.693438
      vertex -0.765367 -4 2.61312
    endloop
  endfacet
  facet normal 0.471396 -0.623613 -0.623613
    outer loop
      vertex -0.765367 -0.693438 -0.693438
      vertex -1.11114 -4 2.35175
      vertex -1.11114 -0.824125 -0.824125
    endloop
  endfacet
  facet normal -0.773012 -0.448583 -0.448581
    outer loop
      vertex 1.66294 -4 1.57139
      vertex 1.41421 -1 -1
      vertex 1.66294 -1.21431 -1.21431
    endloop
  endfacet
  facet normal -0.773004 -0.44859 -0.44859
    outer loop
      vertex 1.41421 -1 -1
      vertex 1.66294 -4 1.57139
      vertex 1.42473 -4 1.98187
    endloop
  endfacet
  facet normal -0.471391 -0.623614 -0.623615
    outer loop
      vertex 0.765367 -0.693438 -0.693438
      vertex 1.11114 -4 2.35175
      vertex 0.765367 -4 2.61312
    endloop
  endfacet
  facet normal -0.471396 -0.623613 -0.623613
    outer loop
      vertex 1.11114 -4 2.35175
      vertex 0.765367 -0.693438 -0.693438
      vertex 1.11114 -0.824125 -0.824125
    endloop
  endfacet
  facet normal -0.634385 -0.546606 -0.546606
    outer loop
      vertex 1.41421 -1 -1
      vertex 1.41421 -4 2
      vertex 1.40132 -4 2.01496
    endloop
  endfacet
  facet normal -0.0980216 0.703702 0.703702
    outer loop
      vertex 0.390181 -3.38704 -3.38704
      vertex 0 -4 -2.82843
      vertex 0.390181 -4 -2.77408
    endloop
  endfacet
  facet normal -0.0980038 0.703697 0.703709
    outer loop
      vertex 0 -4 -2.82843
      vertex 0.390181 -3.38704 -3.38704
      vertex 0 -3.41421 -3.41421
    endloop
  endfacet
  facet normal 0.0980216 0.703702 0.703702
    outer loop
      vertex 0 -4 -2.82843
      vertex -0.390181 -3.38704 -3.38704
      vertex -0.390181 -4 -2.77408
    endloop
  endfacet
  facet normal 0.0980038 0.703697 0.703709
    outer loop
      vertex -0.390181 -3.38704 -3.38704
      vertex 0 -4 -2.82843
      vertex 0 -3.41421 -3.41421
    endloop
  endfacet
  facet normal 0.634396 -0.546599 -0.546599
    outer loop
      vertex -1.40132 -4 2.01496
      vertex -1.11114 -0.824125 -0.824125
      vertex -1.11114 -4 2.35175
    endloop
  endfacet
  facet normal 0.634396 -0.546599 -0.546599
    outer loop
      vertex -1.11114 -0.824125 -0.824125
      vertex -1.40132 -4 2.01496
      vertex -1.41421 -1 -1
    endloop
  endfacet
  facet normal -0.290295 0.676657 0.676657
    outer loop
      vertex 0.765367 -3.30656 -3.30656
      vertex 0.390181 -4 -2.77408
      vertex 0.765367 -4 -2.61312
    endloop
  endfacet
  facet normal -0.290295 0.676657 0.676657
    outer loop
      vertex 0.390181 -4 -2.77408
      vertex 0.765367 -3.30656 -3.30656
      vertex 0.390181 -3.38704 -3.38704
    endloop
  endfacet
  facet normal 0.634385 -0.546606 -0.546606
    outer loop
      vertex -1.41421 -1 -1
      vertex -1.40132 -4 2.01496
      vertex -1.41421 -4 2
    endloop
  endfacet
  facet normal 0.773004 -0.44859 -0.44859
    outer loop
      vertex -1.66294 -4 1.57139
      vertex -1.41421 -1 -1
      vertex -1.42473 -4 1.98187
    endloop
  endfacet
  facet normal 0.773012 -0.448583 -0.448581
    outer loop
      vertex -1.41421 -1 -1
      vertex -1.66294 -4 1.57139
      vertex -1.66294 -1.21431 -1.21431
    endloop
  endfacet
  facet normal 0.290295 -0.676657 -0.676657
    outer loop
      vertex -0.765367 -4 2.61312
      vertex -0.390181 -0.612961 -0.612961
      vertex -0.390181 -4 2.77408
    endloop
  endfacet
  facet normal 0.290285 -0.676658 -0.676659
    outer loop
      vertex -0.390181 -0.612961 -0.612961
      vertex -0.765367 -4 2.61312
      vertex -0.765367 -0.693438 -0.693438
    endloop
  endfacet
  facet normal -0.634712 0.546416 0.546416
    outer loop
      vertex 1.41421 -4 -2
      vertex 1.41421 -3 -3
      vertex 1.40994 -4 -2.00496
    endloop
  endfacet
  facet normal 0.956941 0.205261 0.20526
    outer loop
      vertex -1.84776 -4 -1.08239
      vertex -1.96157 -2.2759 -2.2759
      vertex -1.96157 -4 -0.551798
    endloop
  endfacet
  facet normal 0.956942 0.205258 0.205257
    outer loop
      vertex -1.96157 -2.2759 -2.2759
      vertex -1.84776 -4 -1.08239
      vertex -1.84776 -2.5412 -2.5412
    endloop
  endfacet
  facet normal 0.995195 -0.0692325 -0.0692325
    outer loop
      vertex -2 -2 -2
      vertex -1.99891 -4 0.0156684
      vertex -2 -4 0
    endloop
  endfacet
  facet normal 0 -0.707107 0.707107
    outer loop
      vertex 0 -1.11612 -1.11612
      vertex 0 -0.585787 -0.585787
      vertex -0.390181 -0.612961 -0.612961
    endloop
  endfacet
  facet normal 0 -0.707107 0.707107
    outer loop
      vertex -0.386271 -1.15938 -1.15938
      vertex -0.390181 -0.612961 -0.612961
      vertex -0.765367 -0.693438 -0.693438
    endloop
  endfacet
  facet normal 0 -0.707107 0.707107
    outer loop
      vertex 0 -0.585787 -0.585787
      vertex 0 -1.11612 -1.11612
      vertex 0.390181 -0.612961 -0.612961
    endloop
  endfacet
  facet normal 0 -0.707107 0.707107
    outer loop
      vertex -0.734731 -1.28492 -1.28492
      vertex -0.765367 -0.693438 -0.693438
      vertex -1.11114 -0.824125 -0.824125
    endloop
  endfacet
  facet normal 0 -0.707107 0.707107
    outer loop
      vertex 0.386271 -1.15938 -1.15938
      vertex 0.390181 -0.612961 -0.612961
      vertex 0 -1.11612 -1.11612
    endloop
  endfacet
  facet normal 0 -0.707107 0.707107
    outer loop
      vertex -1.01127 -1.48047 -1.48047
      vertex -1.11114 -0.824125 -0.824125
      vertex -1.41421 -1 -1
    endloop
  endfacet
  facet normal 0 -0.707107 0.707107
    outer loop
      vertex 0.390181 -0.612961 -0.612961
      vertex 0.386271 -1.15938 -1.15938
      vertex 0.765367 -0.693438 -0.693438
    endloop
  endfacet
  facet normal 0 -0.707107 0.707107
    outer loop
      vertex 0.734731 -1.28492 -1.28492
      vertex 0.765367 -0.693438 -0.693438
      vertex 0.386271 -1.15938 -1.15938
    endloop
  endfacet
  facet normal 0 -0.707107 0.707107
    outer loop
      vertex -0.390181 -0.612961 -0.612961
      vertex -0.386271 -1.15938 -1.15938
      vertex 0 -1.11612 -1.11612
    endloop
  endfacet
  facet normal 0 -0.707107 0.707107
    outer loop
      vertex -1.01127 -1.48047 -1.48047
      vertex -1.41421 -1 -1
      vertex -1.66294 -1.21431 -1.21431
    endloop
  endfacet
  facet normal 0 -0.707107 0.707107
    outer loop
      vertex -0.765367 -0.693438 -0.693438
      vertex -0.734731 -1.28492 -1.28492
      vertex -0.386271 -1.15938 -1.15938
    endloop
  endfacet
  facet normal 0 -0.707107 0.707107
    outer loop
      vertex -1.18882 -1.72687 -1.72687
      vertex -1.66294 -1.21431 -1.21431
      vertex -1.84776 -1.4588 -1.4588
    endloop
  endfacet
  facet normal 0 -0.707107 0.707107
    outer loop
      vertex -1.11114 -0.824125 -0.824125
      vertex -1.01127 -1.48047 -1.48047
      vertex -0.734731 -1.28492 -1.28492
    endloop
  endfacet
  facet normal 0 -0.707107 0.707107
    outer loop
      vertex -1.18882 -1.72687 -1.72687
      vertex -1.84776 -1.4588 -1.4588
      vertex -1.96157 -1.7241 -1.7241
    endloop
  endfacet
  facet normal 0 -0.707107 0.707107
    outer loop
      vertex -1.66294 -1.21431 -1.21431
      vertex -1.18882 -1.72687 -1.72687
      vertex -1.01127 -1.48047 -1.48047
    endloop
  endfacet
  facet normal 0 -0.707107 0.707107
    outer loop
      vertex -1.25 -2 -2
      vertex -1.96157 -1.7241 -1.7241
      vertex -2 -2 -2
    endloop
  endfacet
  facet normal 0 -0.707107 0.707107
    outer loop
      vertex -1.96157 -1.7241 -1.7241
      vertex -1.25 -2 -2
      vertex -1.18882 -1.72687 -1.72687
    endloop
  endfacet
  facet normal 0 -0.707107 0.707107
    outer loop
      vertex -1.96157 -2.2759 -2.2759
      vertex -1.25 -2 -2
      vertex -2 -2 -2
    endloop
  endfacet
  facet normal 0 -0.707107 0.707107
    outer loop
      vertex -1.25 -2 -2
      vertex -1.96157 -2.2759 -2.2759
      vertex -1.18882 -2.27313 -2.27313
    endloop
  endfacet
  facet normal 0 -0.707107 0.707107
    outer loop
      vertex -1.84776 -2.5412 -2.5412
      vertex -1.18882 -2.27313 -2.27313
      vertex -1.96157 -2.2759 -2.2759
    endloop
  endfacet
  facet normal 0 -0.707107 0.707107
    outer loop
      vertex -1.66294 -2.78569 -2.78569
      vertex -1.18882 -2.27313 -2.27313
      vertex -1.84776 -2.5412 -2.5412
    endloop
  endfacet
  facet normal 0 -0.707107 0.707107
    outer loop
      vertex -1.18882 -2.27313 -2.27313
      vertex -1.66294 -2.78569 -2.78569
      vertex -1.01127 -2.51953 -2.51953
    endloop
  endfacet
  facet normal 0 -0.707107 0.707107
    outer loop
      vertex -1.41421 -3 -3
      vertex -1.01127 -2.51953 -2.51953
      vertex -1.66294 -2.78569 -2.78569
    endloop
  endfacet
  facet normal 0 -0.707107 0.707107
    outer loop
      vertex -1.11114 -3.17587 -3.17587
      vertex -1.01127 -2.51953 -2.51953
      vertex -1.41421 -3 -3
    endloop
  endfacet
  facet normal 0 -0.707107 0.707107
    outer loop
      vertex -1.01127 -2.51953 -2.51953
      vertex -1.11114 -3.17587 -3.17587
      vertex -0.734731 -2.71508 -2.71508
    endloop
  endfacet
  facet normal 0 -0.707107 0.707107
    outer loop
      vertex -0.765367 -3.30656 -3.30656
      vertex -0.734731 -2.71508 -2.71508
      vertex -1.11114 -3.17587 -3.17587
    endloop
  endfacet
  facet normal 0 -0.707107 0.707107
    outer loop
      vertex 0.765367 -0.693438 -0.693438
      vertex 0.734731 -1.28492 -1.28492
      vertex 1.11114 -0.824125 -0.824125
    endloop
  endfacet
  facet normal 0 -0.707107 0.707107
    outer loop
      vertex 1.01127 -1.48047 -1.48047
      vertex 1.11114 -0.824125 -0.824125
      vertex 0.734731 -1.28492 -1.28492
    endloop
  endfacet
  facet normal 0 -0.707107 0.707107
    outer loop
      vertex 1.11114 -0.824125 -0.824125
      vertex 1.01127 -1.48047 -1.48047
      vertex 1.41421 -1 -1
    endloop
  endfacet
  facet normal 0 -0.707107 0.707107
    outer loop
      vertex 1.41421 -1 -1
      vertex 1.01127 -1.48047 -1.48047
      vertex 1.66294 -1.21431 -1.21431
    endloop
  endfacet
  facet normal 0 -0.707107 0.707107
    outer loop
      vertex 1.18882 -1.72687 -1.72687
      vertex 1.66294 -1.21431 -1.21431
      vertex 1.01127 -1.48047 -1.48047
    endloop
  endfacet
  facet normal 0 -0.707107 0.707107
    outer loop
      vertex 1.66294 -1.21431 -1.21431
      vertex 1.18882 -1.72687 -1.72687
      vertex 1.84776 -1.4588 -1.4588
    endloop
  endfacet
  facet normal 0 -0.707107 0.707107
    outer loop
      vertex 1.84776 -1.4588 -1.4588
      vertex 1.18882 -1.72687 -1.72687
      vertex 1.96157 -1.7241 -1.7241
    endloop
  endfacet
  facet normal 0 -0.707107 0.707107
    outer loop
      vertex 1.25 -2 -2
      vertex 1.96157 -1.7241 -1.7241
      vertex 1.18882 -1.72687 -1.72687
    endloop
  endfacet
  facet normal 0 -0.707107 0.707107
    outer loop
      vertex 1.25 -2 -2
      vertex 2 -2 -2
      vertex 1.96157 -1.7241 -1.7241
    endloop
  endfacet
  facet normal 0 -0.707107 0.707107
    outer loop
      vertex 1.96157 -2.2759 -2.2759
      vertex 1.25 -2 -2
      vertex 1.18882 -2.27313 -2.27313
    endloop
  endfacet
  facet normal 0 -0.707107 0.707107
    outer loop
      vertex 1.25 -2 -2
      vertex 1.96157 -2.2759 -2.2759
      vertex 2 -2 -2
    endloop
  endfacet
  facet normal 0 -0.707107 0.707107
    outer loop
      vertex 1.66294 -2.78569 -2.78569
      vertex 1.18882 -2.27313 -2.27313
      vertex 1.01127 -2.51953 -2.51953
    endloop
  endfacet
  facet normal 0 -0.707107 0.707107
    outer loop
      vertex 1.18882 -2.27313 -2.27313
      vertex 1.84776 -2.5412 -2.5412
      vertex 1.96157 -2.2759 -2.2759
    endloop
  endfacet
  facet normal 0 -0.707107 0.707107
    outer loop
      vertex 1.11114 -3.17587 -3.17587
      vertex 1.01127 -2.51953 -2.51953
      vertex 0.734731 -2.71508 -2.71508
    endloop
  endfacet
  facet normal 0 -0.707107 0.707107
    outer loop
      vertex 1.18882 -2.27313 -2.27313
      vertex 1.66294 -2.78569 -2.78569
      vertex 1.84776 -2.5412 -2.5412
    endloop
  endfacet
  facet normal 0 -0.707107 0.707107
    outer loop
      vertex 0.765367 -3.30656 -3.30656
      vertex 0.734731 -2.71508 -2.71508
      vertex 0.386271 -2.84062 -2.84062
    endloop
  endfacet
  facet normal 0 -0.707107 0.707107
    outer loop
      vertex 0.390181 -3.38704 -3.38704
      vertex 0.386271 -2.84062 -2.84062
      vertex 0 -2.88388 -2.88388
    endloop
  endfacet
  facet normal 0 -0.707107 0.707107
    outer loop
      vertex -0.734731 -2.71508 -2.71508
      vertex -0.765367 -3.30656 -3.30656
      vertex -0.386271 -2.84062 -2.84062
    endloop
  endfacet
  facet normal 0 -0.707107 0.707107
    outer loop
      vertex 0 -3.41421 -3.41421
      vertex 0 -2.88388 -2.88388
      vertex -0.390181 -3.38704 -3.38704
    endloop
  endfacet
  facet normal 0 -0.707107 0.707107
    outer loop
      vertex -0.390181 -3.38704 -3.38704
      vertex -0.386271 -2.84062 -2.84062
      vertex -0.765367 -3.30656 -3.30656
    endloop
  endfacet
  facet normal 0 -0.707107 0.707107
    outer loop
      vertex 0.390181 -3.38704 -3.38704
      vertex 0 -2.88388 -2.88388
      vertex 0 -3.41421 -3.41421
    endloop
  endfacet
  facet normal 0 -0.707107 0.707107
    outer loop
      vertex -0.386271 -2.84062 -2.84062
      vertex -0.390181 -3.38704 -3.38704
      vertex 0 -2.88388 -2.88388
    endloop
  endfacet
  facet normal 0 -0.707107 0.707107
    outer loop
      vertex 0.386271 -2.84062 -2.84062
      vertex 0.390181 -3.38704 -3.38704
      vertex 0.765367 -3.30656 -3.30656
    endloop
  endfacet
  facet normal 0 -0.707107 0.707107
    outer loop
      vertex 1.01127 -2.51953 -2.51953
      vertex 1.11114 -3.17587 -3.17587
      vertex 1.41421 -3 -3
    endloop
  endfacet
  facet normal 0 -0.707107 0.707107
    outer loop
      vertex 1.01127 -2.51953 -2.51953
      vertex 1.41421 -3 -3
      vertex 1.66294 -2.78569 -2.78569
    endloop
  endfacet
  facet normal 0 -0.707107 0.707107
    outer loop
      vertex 0.734731 -2.71508 -2.71508
      vertex 0.765367 -3.30656 -3.30656
      vertex 1.11114 -3.17587 -3.17587
    endloop
  endfacet
  facet normal -0.471393 0.62361 0.623618
    outer loop
      vertex 1.11114 -3.17587 -3.17587
      vertex 0.765367 -4 -2.61312
      vertex 1.11114 -4 -2.35175
    endloop
  endfacet
  facet normal -0.471405 0.623609 0.623609
    outer loop
      vertex 0.765367 -4 -2.61312
      vertex 1.11114 -3.17587 -3.17587
      vertex 0.765367 -3.30656 -3.30656
    endloop
  endfacet
  facet normal -0.634385 0.546602 0.546609
    outer loop
      vertex 1.11114 -4 -2.35175
      vertex 1.41421 -3 -3
      vertex 1.11114 -3.17587 -3.17587
    endloop
  endfacet
  facet normal -0.634392 0.5466 0.546603
    outer loop
      vertex 1.41421 -3 -3
      vertex 1.11114 -4 -2.35175
      vertex 1.40994 -4 -2.00496
    endloop
  endfacet
  facet normal -0.290295 -0.676657 -0.676657
    outer loop
      vertex 0.390181 -0.612961 -0.612961
      vertex 0.765367 -4 2.61312
      vertex 0.390181 -4 2.77408
    endloop
  endfacet
  facet normal -0.290285 -0.676658 -0.676659
    outer loop
      vertex 0.765367 -4 2.61312
      vertex 0.390181 -0.612961 -0.612961
      vertex 0.765367 -0.693438 -0.693438
    endloop
  endfacet
  facet normal 0.881922 -0.333328 -0.333327
    outer loop
      vertex -1.84776 -4 1.08239
      vertex -1.66294 -1.21431 -1.21431
      vertex -1.66294 -4 1.57139
    endloop
  endfacet
  facet normal 0.881914 -0.333337 -0.333338
    outer loop
      vertex -1.66294 -1.21431 -1.21431
      vertex -1.84776 -4 1.08239
      vertex -1.84776 -1.4588 -1.4588
    endloop
  endfacet
  facet normal 0.290295 0.676657 0.676657
    outer loop
      vertex -0.390181 -4 -2.77408
      vertex -0.765367 -3.30656 -3.30656
      vertex -0.765367 -4 -2.61312
    endloop
  endfacet
  facet normal 0.290295 0.676657 0.676657
    outer loop
      vertex -0.765367 -3.30656 -3.30656
      vertex -0.390181 -4 -2.77408
      vertex -0.390181 -3.38704 -3.38704
    endloop
  endfacet
  facet normal 0.773008 0.448584 0.448587
    outer loop
      vertex -1.41774 -4 -1.99392
      vertex -1.66294 -2.78569 -2.78569
      vertex -1.66294 -4 -1.57139
    endloop
  endfacet
  facet normal 0.773012 0.448582 0.448583
    outer loop
      vertex -1.66294 -2.78569 -2.78569
      vertex -1.41774 -4 -1.99392
      vertex -1.41421 -3 -3
    endloop
  endfacet
  facet normal -0.881914 0.333336 0.333339
    outer loop
      vertex 1.66294 -4 -1.57139
      vertex 1.84776 -2.5412 -2.5412
      vertex 1.66294 -2.78569 -2.78569
    endloop
  endfacet
  facet normal -0.881921 0.333329 0.333327
    outer loop
      vertex 1.84776 -2.5412 -2.5412
      vertex 1.66294 -4 -1.57139
      vertex 1.84776 -4 -1.08239
    endloop
  endfacet
  facet normal 0.634712 0.546416 0.546416
    outer loop
      vertex -1.40994 -4 -2.00496
      vertex -1.41421 -3 -3
      vertex -1.41421 -4 -2
    endloop
  endfacet
  facet normal 0.634392 0.5466 0.546603
    outer loop
      vertex -1.11114 -4 -2.35175
      vertex -1.41421 -3 -3
      vertex -1.40994 -4 -2.00496
    endloop
  endfacet
  facet normal 0.634385 0.546602 0.546609
    outer loop
      vertex -1.41421 -3 -3
      vertex -1.11114 -4 -2.35175
      vertex -1.11114 -3.17587 -3.17587
    endloop
  endfacet
  facet normal 0.0980216 -0.703702 -0.703701
    outer loop
      vertex -0.390181 -4 2.77408
      vertex 0 -0.585787 -0.585787
      vertex 0 -4 2.82843
    endloop
  endfacet
  facet normal 0.0980181 -0.703702 -0.703702
    outer loop
      vertex 0 -0.585787 -0.585787
      vertex -0.390181 -4 2.77408
      vertex -0.390181 -0.612961 -0.612961
    endloop
  endfacet
  facet normal 0.471393 0.62361 0.623618
    outer loop
      vertex -0.765367 -4 -2.61312
      vertex -1.11114 -3.17587 -3.17587
      vertex -1.11114 -4 -2.35175
    endloop
  endfacet
  facet normal 0.471405 0.623609 0.623609
    outer loop
      vertex -1.11114 -3.17587 -3.17587
      vertex -0.765367 -4 -2.61312
      vertex -0.765367 -3.30656 -3.30656
    endloop
  endfacet
  facet normal 0 -1 0
    outer loop
      vertex -15 -4 3
      vertex 0 -4 2.82843
      vertex 15 -4 3
    endloop
  endfacet
  facet normal 0 -1 0
    outer loop
      vertex -15 -4 3
      vertex -0.390181 -4 2.77408
      vertex 0 -4 2.82843
    endloop
  endfacet
  facet normal 0 -1 0
    outer loop
      vertex -15 -4 3
      vertex -0.765367 -4 2.61312
      vertex -0.390181 -4 2.77408
    endloop
  endfacet
  facet normal 0 -1 0
    outer loop
      vertex -15 -4 3
      vertex -1.11114 -4 2.35175
      vertex -0.765367 -4 2.61312
    endloop
  endfacet
  facet normal 0 -1 0
    outer loop
      vertex -15 -4 3
      vertex -1.40132 -4 2.01496
      vertex -1.11114 -4 2.35175
    endloop
  endfacet
  facet normal 0 -1 0
    outer loop
      vertex -15 -4 3
      vertex -1.41421 -4 2
      vertex -1.40132 -4 2.01496
    endloop
  endfacet
  facet normal 0 -1 0
    outer loop
      vertex -15 -4 3
      vertex -1.42473 -4 1.98187
      vertex -1.41421 -4 2
    endloop
  endfacet
  facet normal 0 -1 0
    outer loop
      vertex -15 -4 3
      vertex -1.66294 -4 1.57139
      vertex -1.42473 -4 1.98187
    endloop
  endfacet
  facet normal 0 -1 0
    outer loop
      vertex -15 -4 3
      vertex -1.84776 -4 1.08239
      vertex -1.66294 -4 1.57139
    endloop
  endfacet
  facet normal 0 -1 0
    outer loop
      vertex -15 -4 3
      vertex -1.96157 -4 0.551798
      vertex -1.84776 -4 1.08239
    endloop
  endfacet
  facet normal 0 -1 0
    outer loop
      vertex -15 -4 3
      vertex -1.99891 -4 0.0156684
      vertex -1.96157 -4 0.551798
    endloop
  endfacet
  facet normal 0 -1 0
    outer loop
      vertex -15 -4 3
      vertex -2 -4 0
      vertex -1.99891 -4 0.0156684
    endloop
  endfacet
  facet normal 0 -1 0
    outer loop
      vertex -15 -4 3
      vertex -1.99892 -4 -0.0155466
      vertex -2 -4 0
    endloop
  endfacet
  facet normal 0 -1 0
    outer loop
      vertex -15 -4 3
      vertex -1.96157 -4 -0.551798
      vertex -1.99892 -4 -0.0155466
    endloop
  endfacet
  facet normal 0 -1 0
    outer loop
      vertex -15 -4 3
      vertex -1.84776 -4 -1.08239
      vertex -1.96157 -4 -0.551798
    endloop
  endfacet
  facet normal 0 -1 0
    outer loop
      vertex -15 -4 3
      vertex -1.66294 -4 -1.57139
      vertex -1.84776 -4 -1.08239
    endloop
  endfacet
  facet normal 0 -1 0
    outer loop
      vertex -15 -4 -14
      vertex -1.66294 -4 -1.57139
      vertex -15 -4 3
    endloop
  endfacet
  facet normal 0 -1 -0
    outer loop
      vertex -1.66294 -4 -1.57139
      vertex -15 -4 -14
      vertex -1.41774 -4 -1.99392
    endloop
  endfacet
  facet normal 0 -1 -0
    outer loop
      vertex -1.41774 -4 -1.99392
      vertex -15 -4 -14
      vertex -1.41421 -4 -2
    endloop
  endfacet
  facet normal 0 -1 -0
    outer loop
      vertex -1.41421 -4 -2
      vertex -15 -4 -14
      vertex -1.40994 -4 -2.00496
    endloop
  endfacet
  facet normal 0 -1 -0
    outer loop
      vertex -1.40994 -4 -2.00496
      vertex -15 -4 -14
      vertex -1.11114 -4 -2.35175
    endloop
  endfacet
  facet normal 0 -1 -0
    outer loop
      vertex -1.11114 -4 -2.35175
      vertex -15 -4 -14
      vertex -0.765367 -4 -2.61312
    endloop
  endfacet
  facet normal 0 -1 -0
    outer loop
      vertex -0.390181 -4 -2.77408
      vertex -15 -4 -14
      vertex 0 -4 -2.82843
    endloop
  endfacet
  facet normal 0 -1 -0
    outer loop
      vertex -0.765367 -4 -2.61312
      vertex -15 -4 -14
      vertex -0.390181 -4 -2.77408
    endloop
  endfacet
  facet normal 0 -1 0
    outer loop
      vertex 0.390181 -4 2.77408
      vertex 15 -4 3
      vertex 0 -4 2.82843
    endloop
  endfacet
  facet normal 0 -1 0
    outer loop
      vertex 0.765367 -4 2.61312
      vertex 15 -4 3
      vertex 0.390181 -4 2.77408
    endloop
  endfacet
  facet normal 0 -1 0
    outer loop
      vertex 1.11114 -4 2.35175
      vertex 15 -4 3
      vertex 0.765367 -4 2.61312
    endloop
  endfacet
  facet normal 0 -1 0
    outer loop
      vertex 1.40132 -4 2.01496
      vertex 15 -4 3
      vertex 1.11114 -4 2.35175
    endloop
  endfacet
  facet normal 0 -1 0
    outer loop
      vertex 1.41421 -4 2
      vertex 15 -4 3
      vertex 1.40132 -4 2.01496
    endloop
  endfacet
  facet normal 0 -1 0
    outer loop
      vertex 1.42473 -4 1.98187
      vertex 15 -4 3
      vertex 1.41421 -4 2
    endloop
  endfacet
  facet normal 0 -1 0
    outer loop
      vertex 1.66294 -4 1.57139
      vertex 15 -4 3
      vertex 1.42473 -4 1.98187
    endloop
  endfacet
  facet normal 0 -1 0
    outer loop
      vertex 1.84776 -4 1.08239
      vertex 15 -4 3
      vertex 1.66294 -4 1.57139
    endloop
  endfacet
  facet normal 0 -1 0
    outer loop
      vertex 1.96157 -4 0.551798
      vertex 15 -4 3
      vertex 1.84776 -4 1.08239
    endloop
  endfacet
  facet normal 0 -1 0
    outer loop
      vertex 1.99891 -4 0.0156684
      vertex 15 -4 3
      vertex 1.96157 -4 0.551798
    endloop
  endfacet
  facet normal 0 -1 0
    outer loop
      vertex 2 -4 0
      vertex 15 -4 3
      vertex 1.99891 -4 0.0156684
    endloop
  endfacet
  facet normal 0 -1 0
    outer loop
      vertex 1.99892 -4 -0.0155466
      vertex 15 -4 3
      vertex 2 -4 0
    endloop
  endfacet
  facet normal 0 -1 0
    outer loop
      vertex 1.96157 -4 -0.551798
      vertex 15 -4 3
      vertex 1.99892 -4 -0.0155466
    endloop
  endfacet
  facet normal 0 -1 0
    outer loop
      vertex 1.84776 -4 -1.08239
      vertex 15 -4 3
      vertex 1.96157 -4 -0.551798
    endloop
  endfacet
  facet normal 0 -1 0
    outer loop
      vertex 1.66294 -4 -1.57139
      vertex 15 -4 3
      vertex 1.84776 -4 -1.08239
    endloop
  endfacet
  facet normal 0 -1 0
    outer loop
      vertex 15 -4 -14
      vertex 1.66294 -4 -1.57139
      vertex 1.41774 -4 -1.99392
    endloop
  endfacet
  facet normal 0 -1 0
    outer loop
      vertex 15 -4 -14
      vertex 1.41774 -4 -1.99392
      vertex 1.41421 -4 -2
    endloop
  endfacet
  facet normal 0 -1 0
    outer loop
      vertex 15 -4 -14
      vertex 1.41421 -4 -2
      vertex 1.40994 -4 -2.00496
    endloop
  endfacet
  facet normal 0 -1 0
    outer loop
      vertex 15 -4 -14
      vertex 1.40994 -4 -2.00496
      vertex 1.11114 -4 -2.35175
    endloop
  endfacet
  facet normal 0 -1 0
    outer loop
      vertex 15 -4 -14
      vertex 1.11114 -4 -2.35175
      vertex 0.765367 -4 -2.61312
    endloop
  endfacet
  facet normal 0 -1 0
    outer loop
      vertex 15 -4 -14
      vertex 0.765367 -4 -2.61312
      vertex 0.390181 -4 -2.77408
    endloop
  endfacet
  facet normal 0 -1 0
    outer loop
      vertex 15 -4 -14
      vertex 0 -4 -2.82843
      vertex -15 -4 -14
    endloop
  endfacet
  facet normal 0 -1 0
    outer loop
      vertex 0 -4 -2.82843
      vertex 15 -4 -14
      vertex 0.390181 -4 -2.77408
    endloop
  endfacet
  facet normal 0 -1 0
    outer loop
      vertex 1.66294 -4 -1.57139
      vertex 15 -4 -14
      vertex 15 -4 3
    endloop
  endfacet
  facet normal -1 0 0
    outer loop
      vertex -15 -4 -14
      vertex -15 0 0
      vertex -15 0 -14
    endloop
  endfacet
  facet normal -1 0 0
    outer loop
      vertex -15 -4 3
      vertex -15 0 0
      vertex -15 -4 -14
    endloop
  endfacet
  facet normal -1 0 0
    outer loop
      vertex -15 0 0
      vertex -15 -4 3
      vertex -15 -3 3
    endloop
  endfacet
  facet normal -0 0 1
    outer loop
      vertex -15 -3 3
      vertex 15 -4 3
      vertex 15 -3 3
    endloop
  endfacet
  facet normal 0 0 1
    outer loop
      vertex 15 -4 3
      vertex -15 -3 3
      vertex -15 -4 3
    endloop
  endfacet
  facet normal 0 0.707107 0.707107
    outer loop
      vertex 15 0 0
      vertex -15 -3 3
      vertex 15 -3 3
    endloop
  endfacet
  facet normal 0 0.707107 0.707107
    outer loop
      vertex -15 -3 3
      vertex 15 0 0
      vertex -15 0 0
    endloop
  endfacet
  facet normal 0 1 0
    outer loop
      vertex 15 0 0
      vertex 0 0 -2.23223
      vertex -15 0 0
    endloop
  endfacet
  facet normal 0 1 0
    outer loop
      vertex 15 0 0
      vertex 0.386271 0 -2.31875
      vertex 0 0 -2.23223
    endloop
  endfacet
  facet normal 0 1 0
    outer loop
      vertex 15 0 0
      vertex 0.734731 0 -2.56985
      vertex 0.386271 0 -2.31875
    endloop
  endfacet
  facet normal 0 1 0
    outer loop
      vertex 15 0 0
      vertex 1.01127 0 -2.96093
      vertex 0.734731 0 -2.56985
    endloop
  endfacet
  facet normal 0 1 0
    outer loop
      vertex 15 0 0
      vertex 1.18882 0 -3.45373
      vertex 1.01127 0 -2.96093
    endloop
  endfacet
  facet normal 0 1 0
    outer loop
      vertex 15 0 0
      vertex 1.25 0 -4
      vertex 1.18882 0 -3.45373
    endloop
  endfacet
  facet normal 0 1 0
    outer loop
      vertex 15 0 0
      vertex 1.18882 0 -4.54627
      vertex 1.25 0 -4
    endloop
  endfacet
  facet normal 0 1 -0
    outer loop
      vertex 15 0 -14
      vertex 1.18882 0 -4.54627
      vertex 15 0 0
    endloop
  endfacet
  facet normal 0 1 0
    outer loop
      vertex 1.18882 0 -4.54627
      vertex 15 0 -14
      vertex 1.01127 0 -5.03907
    endloop
  endfacet
  facet normal 0 1 0
    outer loop
      vertex 1.01127 0 -5.03907
      vertex 15 0 -14
      vertex 0.734731 0 -5.43015
    endloop
  endfacet
  facet normal 0 1 0
    outer loop
      vertex 0.386271 0 -5.68125
      vertex 15 0 -14
      vertex 0 0 -5.76777
    endloop
  endfacet
  facet normal 0 1 0
    outer loop
      vertex 0.734731 0 -5.43015
      vertex 15 0 -14
      vertex 0.386271 0 -5.68125
    endloop
  endfacet
  facet normal 0 1 -0
    outer loop
      vertex -0.386271 0 -2.31875
      vertex -15 0 0
      vertex 0 0 -2.23223
    endloop
  endfacet
  facet normal 0 1 -0
    outer loop
      vertex -0.734731 0 -2.56985
      vertex -15 0 0
      vertex -0.386271 0 -2.31875
    endloop
  endfacet
  facet normal 0 1 -0
    outer loop
      vertex -1.01127 0 -2.96093
      vertex -15 0 0
      vertex -0.734731 0 -2.56985
    endloop
  endfacet
  facet normal 0 1 -0
    outer loop
      vertex -1.18882 0 -3.45373
      vertex -15 0 0
      vertex -1.01127 0 -2.96093
    endloop
  endfacet
  facet normal 0 1 -0
    outer loop
      vertex -1.25 0 -4
      vertex -15 0 0
      vertex -1.18882 0 -3.45373
    endloop
  endfacet
  facet normal 0 1 0
    outer loop
      vertex -1.18882 0 -4.54627
      vertex -15 0 0
      vertex -1.25 0 -4
    endloop
  endfacet
  facet normal 0 1 0
    outer loop
      vertex -15 0 -14
      vertex -1.18882 0 -4.54627
      vertex -1.01127 0 -5.03907
    endloop
  endfacet
  facet normal 0 1 0
    outer loop
      vertex -15 0 -14
      vertex -1.01127 0 -5.03907
      vertex -0.734731 0 -5.43015
    endloop
  endfacet
  facet normal 0 1 0
    outer loop
      vertex -15 0 -14
      vertex -0.734731 0 -5.43015
      vertex -0.386271 0 -5.68125
    endloop
  endfacet
  facet normal 0 1 0
    outer loop
      vertex -15 0 -14
      vertex 0 0 -5.76777
      vertex 15 0 -14
    endloop
  endfacet
  facet normal 0 1 0
    outer loop
      vertex 0 0 -5.76777
      vertex -15 0 -14
      vertex -0.386271 0 -5.68125
    endloop
  endfacet
  facet normal 0 1 0
    outer loop
      vertex -1.18882 0 -4.54627
      vertex -15 0 -14
      vertex -15 0 0
    endloop
  endfacet
  facet normal 0 0 -1
    outer loop
      vertex -15 -4 -14
      vertex 15 0 -14
      vertex 15 -4 -14
    endloop
  endfacet
  facet normal -0 0 -1
    outer loop
      vertex 15 0 -14
      vertex -15 -4 -14
      vertex -15 0 -14
    endloop
  endfacet
  facet normal 1 -0 0
    outer loop
      vertex 15 -4 3
      vertex 15 0 0
      vertex 15 -3 3
    endloop
  endfacet
  facet normal 1 0 0
    outer loop
      vertex 15 0 0
      vertex 15 -4 3
      vertex 15 -4 -14
    endloop
  endfacet
  facet normal 1 0 0
    outer loop
      vertex 15 0 0
      vertex 15 -4 -14
      vertex 15 0 -14
    endloop
  endfacet
endsolid OpenSCAD_Model
