solid OpenSCAD_Model
  facet normal -0 0 1
    outer loop
      vertex 1.18882 26.2574 5
      vertex 38.2 1.8 5
      vertex 1.24766 26.7828 5
    endloop
  endfacet
  facet normal -0 0 1
    outer loop
      vertex 1.02177 25.7937 5
      vertex 38.2 1.8 5
      vertex 1.18882 26.2574 5
    endloop
  endfacet
  facet normal 0 0 1
    outer loop
      vertex 38.2 1.8 5
      vertex 1.18882 3.7785 5
      vertex 1.25 3.23223 5
    endloop
  endfacet
  facet normal -0 0 1
    outer loop
      vertex 1.01127 25.7646 5
      vertex 38.2 1.8 5
      vertex 1.02177 25.7937 5
    endloop
  endfacet
  facet normal -0 0 1
    outer loop
      vertex 1.01127 4.2713 5
      vertex 38.2 1.8 5
      vertex 1.01127 25.7646 5
    endloop
  endfacet
  facet normal 0 0 1
    outer loop
      vertex 38.2 1.8 5
      vertex 1.01127 4.2713 5
      vertex 1.18882 3.7785 5
    endloop
  endfacet
  facet normal -0 0 1
    outer loop
      vertex 0.99461 25.741 5
      vertex 1.01127 4.2713 5
      vertex 1.01127 25.7646 5
    endloop
  endfacet
  facet normal -0 0 1
    outer loop
      vertex 0.734731 25.3735 5
      vertex 1.01127 4.2713 5
      vertex 0.99461 25.741 5
    endloop
  endfacet
  facet normal 0 0 1
    outer loop
      vertex 0.734731 25.3735 5
      vertex 0.734731 4.66239 5
      vertex 1.01127 4.2713 5
    endloop
  endfacet
  facet normal -0 0 1
    outer loop
      vertex 0.386271 25.1224 5
      vertex 0.734731 4.66239 5
      vertex 0.734731 25.3735 5
    endloop
  endfacet
  facet normal 0 0 1
    outer loop
      vertex 0.386271 25.1224 5
      vertex 0.386271 4.91348 5
      vertex 0.734731 4.66239 5
    endloop
  endfacet
  facet normal -0 0 1
    outer loop
      vertex 0 25.0359 5
      vertex 0.386271 4.91348 5
      vertex 0.386271 25.1224 5
    endloop
  endfacet
  facet normal 0 0 1
    outer loop
      vertex 0 25.0359 5
      vertex 0 5 5
      vertex 0.386271 4.91348 5
    endloop
  endfacet
  facet normal 0 0 1
    outer loop
      vertex -0.386271 25.1224 5
      vertex 0 5 5
      vertex 0 25.0359 5
    endloop
  endfacet
  facet normal 0 0 1
    outer loop
      vertex -0.386271 25.1224 5
      vertex -0.386271 4.91348 5
      vertex 0 5 5
    endloop
  endfacet
  facet normal 0 0 1
    outer loop
      vertex -0.734731 25.3735 5
      vertex -0.386271 4.91348 5
      vertex -0.386271 25.1224 5
    endloop
  endfacet
  facet normal 0 0 1
    outer loop
      vertex -0.734731 25.3735 5
      vertex -0.734731 4.66239 5
      vertex -0.386271 4.91348 5
    endloop
  endfacet
  facet normal 0 0 1
    outer loop
      vertex -0.99461 25.741 5
      vertex -0.734731 4.66239 5
      vertex -0.734731 25.3735 5
    endloop
  endfacet
  facet normal 0 0 1
    outer loop
      vertex -1.01127 4.2713 5
      vertex -0.99461 25.741 5
      vertex -1.01127 25.7646 5
    endloop
  endfacet
  facet normal 0 0 1
    outer loop
      vertex -0.99461 25.741 5
      vertex -1.01127 4.2713 5
      vertex -0.734731 4.66239 5
    endloop
  endfacet
  facet normal 0 0 1
    outer loop
      vertex -38.2 1.8 5
      vertex -1.01127 25.7646 5
      vertex -1.02177 25.7937 5
    endloop
  endfacet
  facet normal 0 0 1
    outer loop
      vertex -38.2 1.8 5
      vertex -1.02177 25.7937 5
      vertex -1.18882 26.2574 5
    endloop
  endfacet
  facet normal 0 0 1
    outer loop
      vertex -1.01127 25.7646 5
      vertex -38.2 1.8 5
      vertex -1.01127 4.2713 5
    endloop
  endfacet
  facet normal 0 0 1
    outer loop
      vertex -38.2 1.8 5
      vertex -1.18882 26.2574 5
      vertex -1.24766 26.7828 5
    endloop
  endfacet
  facet normal 0 0 1
    outer loop
      vertex -38.2 1.8 5
      vertex -1.24766 26.7828 5
      vertex -1.25 26.8037 5
    endloop
  endfacet
  facet normal 0 0 1
    outer loop
      vertex -1.01127 4.2713 5
      vertex -38.2 1.8 5
      vertex -1.18882 3.7785 5
    endloop
  endfacet
  facet normal 0 0 1
    outer loop
      vertex 38.2 1.8 5
      vertex 1.18882 27.3499 5
      vertex 1.25 26.8037 5
    endloop
  endfacet
  facet normal 0 0 1
    outer loop
      vertex 0 40 5
      vertex 1.18882 27.3499 5
      vertex 38.2 1.8 5
    endloop
  endfacet
  facet normal 0 0 1
    outer loop
      vertex 1.18882 27.3499 5
      vertex 0 40 5
      vertex 1.18422 27.3627 5
    endloop
  endfacet
  facet normal 0 0 1
    outer loop
      vertex 1.18422 27.3627 5
      vertex 0 40 5
      vertex 1.01127 27.8427 5
    endloop
  endfacet
  facet normal 0 0 1
    outer loop
      vertex 1.01127 27.8427 5
      vertex 0 40 5
      vertex 0.736808 28.2309 5
    endloop
  endfacet
  facet normal 0 0 1
    outer loop
      vertex 0.736808 28.2309 5
      vertex 0 40 5
      vertex 0.734731 28.2338 5
    endloop
  endfacet
  facet normal 0 0 1
    outer loop
      vertex 0.734731 28.2338 5
      vertex 0 40 5
      vertex 0.387017 28.4844 5
    endloop
  endfacet
  facet normal 0 0 1
    outer loop
      vertex 0.387017 28.4844 5
      vertex 0 40 5
      vertex 0.386271 28.4849 5
    endloop
  endfacet
  facet normal 0 0 1
    outer loop
      vertex 0 40 5
      vertex 0.385448 28.4851 5
      vertex 0.386271 28.4849 5
    endloop
  endfacet
  facet normal 0 0 1
    outer loop
      vertex 0 40 5
      vertex 0 28.5714 5
      vertex 0.385448 28.4851 5
    endloop
  endfacet
  facet normal 0 0 1
    outer loop
      vertex 0 40 5
      vertex -0.385448 28.4851 5
      vertex 0 28.5714 5
    endloop
  endfacet
  facet normal 0 0 1
    outer loop
      vertex 0 40 5
      vertex -0.386271 28.4849 5
      vertex -0.385448 28.4851 5
    endloop
  endfacet
  facet normal 0 0 1
    outer loop
      vertex 0 40 5
      vertex -0.387017 28.4844 5
      vertex -0.386271 28.4849 5
    endloop
  endfacet
  facet normal 0 0 1
    outer loop
      vertex 0 40 5
      vertex -0.734731 28.2338 5
      vertex -0.387017 28.4844 5
    endloop
  endfacet
  facet normal 0 0 1
    outer loop
      vertex 0 40 5
      vertex -0.736808 28.2309 5
      vertex -0.734731 28.2338 5
    endloop
  endfacet
  facet normal 0 0 1
    outer loop
      vertex 0 40 5
      vertex -1.01127 27.8427 5
      vertex -0.736808 28.2309 5
    endloop
  endfacet
  facet normal 0 0 1
    outer loop
      vertex 0 40 5
      vertex -1.18422 27.3627 5
      vertex -1.01127 27.8427 5
    endloop
  endfacet
  facet normal 0 0 1
    outer loop
      vertex 0 40 5
      vertex -1.18882 27.3499 5
      vertex -1.18422 27.3627 5
    endloop
  endfacet
  facet normal 0 0 1
    outer loop
      vertex -38.2 1.8 5
      vertex -1.18882 27.3499 5
      vertex 0 40 5
    endloop
  endfacet
  facet normal 0 0 1
    outer loop
      vertex -1.18882 3.7785 5
      vertex -38.2 1.8 5
      vertex -1.25 3.23223 5
    endloop
  endfacet
  facet normal 0 0 1
    outer loop
      vertex -1.18882 27.3499 5
      vertex -38.2 1.8 5
      vertex -1.25 26.8037 5
    endloop
  endfacet
  facet normal -0 0 1
    outer loop
      vertex 1.24766 26.7828 5
      vertex 38.2 1.8 5
      vertex 1.25 26.8037 5
    endloop
  endfacet
  facet normal -0 0 1
    outer loop
      vertex 1.18882 2.68596 5
      vertex 38.2 1.8 5
      vertex 1.25 3.23223 5
    endloop
  endfacet
  facet normal -0 0 1
    outer loop
      vertex 1.01127 2.19317 5
      vertex 38.2 1.8 5
      vertex 1.18882 2.68596 5
    endloop
  endfacet
  facet normal -0 0 1
    outer loop
      vertex 0.734731 1.80208 5
      vertex 38.2 1.8 5
      vertex 1.01127 2.19317 5
    endloop
  endfacet
  facet normal 0 0 1
    outer loop
      vertex 38.2 1.8 5
      vertex 0.734731 1.80208 5
      vertex 0.731844 1.8 5
    endloop
  endfacet
  facet normal 0 0 1
    outer loop
      vertex -0.734731 1.80208 5
      vertex -38.2 1.8 5
      vertex -0.731844 1.8 5
    endloop
  endfacet
  facet normal 0 0 1
    outer loop
      vertex -1.01127 2.19317 5
      vertex -38.2 1.8 5
      vertex -0.734731 1.80208 5
    endloop
  endfacet
  facet normal 0 0 1
    outer loop
      vertex -1.18882 2.68596 5
      vertex -38.2 1.8 5
      vertex -1.01127 2.19317 5
    endloop
  endfacet
  facet normal 0 0 1
    outer loop
      vertex -38.2 1.8 5
      vertex -1.18882 2.68596 5
      vertex -1.25 3.23223 5
    endloop
  endfacet
  facet normal 0 1 -0
    outer loop
      vertex 33.2 6.8 21.8
      vertex -33.2 6.8 23.6
      vertex 33.2 6.8 23.6
    endloop
  endfacet
  facet normal 0 1 0
    outer loop
      vertex -33.2 6.8 23.6
      vertex 33.2 6.8 21.8
      vertex -33.2 6.8 21.8
    endloop
  endfacet
  facet normal 0 1 -0
    outer loop
      vertex 33.2 6.8 15
      vertex -33.2 6.8 16.8
      vertex 33.2 6.8 16.8
    endloop
  endfacet
  facet normal 0 1 0
    outer loop
      vertex -33.2 6.8 16.8
      vertex 33.2 6.8 15
      vertex -33.2 6.8 15
    endloop
  endfacet
  facet normal 0 0 -1
    outer loop
      vertex 38.2 1.8 15
      vertex -33.2 6.8 15
      vertex 33.2 6.8 15
    endloop
  endfacet
  facet normal 0 -0 -1
    outer loop
      vertex -33.2 6.8 15
      vertex 38.2 1.8 15
      vertex -38.2 1.8 15
    endloop
  endfacet
  facet normal 0 1 0
    outer loop
      vertex 38.2 1.8 15
      vertex 0 1.8 8.2
      vertex -38.2 1.8 15
    endloop
  endfacet
  facet normal 0 1 0
    outer loop
      vertex 38.2 1.8 15
      vertex 0.386271 1.8 8.11348
      vertex 0 1.8 8.2
    endloop
  endfacet
  facet normal 0 1 0
    outer loop
      vertex 38.2 1.8 15
      vertex 0.734731 1.8 7.86239
      vertex 0.386271 1.8 8.11348
    endloop
  endfacet
  facet normal 0 1 0
    outer loop
      vertex 38.2 1.8 15
      vertex 1.01127 1.8 7.4713
      vertex 0.734731 1.8 7.86239
    endloop
  endfacet
  facet normal 0 1 0
    outer loop
      vertex 38.2 1.8 15
      vertex 1.18882 1.8 6.9785
      vertex 1.01127 1.8 7.4713
    endloop
  endfacet
  facet normal 0 1 -0
    outer loop
      vertex 38.2 1.8 5
      vertex 1.18882 1.8 6.9785
      vertex 38.2 1.8 15
    endloop
  endfacet
  facet normal 0 1 0
    outer loop
      vertex 1.18882 1.8 6.9785
      vertex 38.2 1.8 5
      vertex 1.25 1.8 6.43223
    endloop
  endfacet
  facet normal 0 1 0
    outer loop
      vertex 1.25 1.8 6.43223
      vertex 38.2 1.8 5
      vertex 1.18882 1.8 5.88596
    endloop
  endfacet
  facet normal 0 1 0
    outer loop
      vertex 1.18882 1.8 5.88596
      vertex 38.2 1.8 5
      vertex 1.01127 1.8 5.39317
    endloop
  endfacet
  facet normal 0 1 0
    outer loop
      vertex 1.01127 1.8 5.39317
      vertex 38.2 1.8 5
      vertex 0.734731 1.8 5.00208
    endloop
  endfacet
  facet normal 0 1 0
    outer loop
      vertex 0.734731 1.8 5.00208
      vertex 38.2 1.8 5
      vertex 0.731844 1.8 5
    endloop
  endfacet
  facet normal 0 1 -0
    outer loop
      vertex -0.386271 1.8 8.11348
      vertex -38.2 1.8 15
      vertex 0 1.8 8.2
    endloop
  endfacet
  facet normal 0 1 -0
    outer loop
      vertex -0.734731 1.8 7.86239
      vertex -38.2 1.8 15
      vertex -0.386271 1.8 8.11348
    endloop
  endfacet
  facet normal 0 1 -0
    outer loop
      vertex -1.01127 1.8 7.4713
      vertex -38.2 1.8 15
      vertex -0.734731 1.8 7.86239
    endloop
  endfacet
  facet normal 0 1 -0
    outer loop
      vertex -1.18882 1.8 6.9785
      vertex -38.2 1.8 15
      vertex -1.01127 1.8 7.4713
    endloop
  endfacet
  facet normal 0 1 0
    outer loop
      vertex -38.2 1.8 5
      vertex -1.18882 1.8 6.9785
      vertex -1.25 1.8 6.43223
    endloop
  endfacet
  facet normal 0 1 0
    outer loop
      vertex -38.2 1.8 5
      vertex -1.25 1.8 6.43223
      vertex -1.18882 1.8 5.88596
    endloop
  endfacet
  facet normal 0 1 0
    outer loop
      vertex -38.2 1.8 5
      vertex -1.18882 1.8 5.88596
      vertex -1.01127 1.8 5.39317
    endloop
  endfacet
  facet normal 0 1 0
    outer loop
      vertex -38.2 1.8 5
      vertex -1.01127 1.8 5.39317
      vertex -0.734731 1.8 5.00208
    endloop
  endfacet
  facet normal 0 1 0
    outer loop
      vertex -38.2 1.8 5
      vertex -0.734731 1.8 5.00208
      vertex -0.731844 1.8 5
    endloop
  endfacet
  facet normal 0 1 0
    outer loop
      vertex -1.18882 1.8 6.9785
      vertex -38.2 1.8 5
      vertex -38.2 1.8 15
    endloop
  endfacet
  facet normal 0 0 -1
    outer loop
      vertex 38.2 1.8 21.8
      vertex -33.2 6.8 21.8
      vertex 33.2 6.8 21.8
    endloop
  endfacet
  facet normal 0 -0 -1
    outer loop
      vertex -33.2 6.8 21.8
      vertex 38.2 1.8 21.8
      vertex -38.2 1.8 21.8
    endloop
  endfacet
  facet normal -0 0 1
    outer loop
      vertex -33.2 6.8 16.8
      vertex 38.2 1.8 16.8
      vertex 33.2 6.8 16.8
    endloop
  endfacet
  facet normal 0 0 1
    outer loop
      vertex 38.2 1.8 16.8
      vertex -33.2 6.8 16.8
      vertex -38.2 1.8 16.8
    endloop
  endfacet
  facet normal 0 1 -0
    outer loop
      vertex 38.2 1.8 16.8
      vertex -38.2 1.8 21.8
      vertex 38.2 1.8 21.8
    endloop
  endfacet
  facet normal 0 1 0
    outer loop
      vertex -38.2 1.8 21.8
      vertex 38.2 1.8 16.8
      vertex -38.2 1.8 16.8
    endloop
  endfacet
  facet normal 0 0 -1
    outer loop
      vertex 40 0 0
      vertex 1.23455 21.6657 0
      vertex 1.25 21.8037 0
    endloop
  endfacet
  facet normal 0 0 -1
    outer loop
      vertex 1.18882 21.2574 0
      vertex 40 0 0
      vertex 1.18882 8.7785 0
    endloop
  endfacet
  facet normal 0 0 -1
    outer loop
      vertex 40 0 0
      vertex 1.18882 21.2574 0
      vertex 1.23455 21.6657 0
    endloop
  endfacet
  facet normal 0 0 -1
    outer loop
      vertex 1.18882 8.7785 0
      vertex 1.05899 20.897 0
      vertex 1.18882 21.2574 0
    endloop
  endfacet
  facet normal 0 0 -1
    outer loop
      vertex 1.01127 9.2713 0
      vertex 1.05899 20.897 0
      vertex 1.18882 8.7785 0
    endloop
  endfacet
  facet normal 0 0 -1
    outer loop
      vertex 1.01127 9.2713 0
      vertex 1.01127 20.7646 0
      vertex 1.05899 20.897 0
    endloop
  endfacet
  facet normal 0 0 -1
    outer loop
      vertex 1.01127 9.2713 0
      vertex 0.935549 20.6575 0
      vertex 1.01127 20.7646 0
    endloop
  endfacet
  facet normal 0 0 -1
    outer loop
      vertex 0.734731 9.66239 0
      vertex 0.935549 20.6575 0
      vertex 1.01127 9.2713 0
    endloop
  endfacet
  facet normal 0 0 -1
    outer loop
      vertex 0.734731 9.66239 0
      vertex 0.734731 20.3735 0
      vertex 0.935549 20.6575 0
    endloop
  endfacet
  facet normal 0 0 -1
    outer loop
      vertex 0.386271 9.91348 0
      vertex 0.734731 20.3735 0
      vertex 0.734731 9.66239 0
    endloop
  endfacet
  facet normal 0 0 -1
    outer loop
      vertex 0.386271 9.91348 0
      vertex 0.386271 20.1224 0
      vertex 0.734731 20.3735 0
    endloop
  endfacet
  facet normal 0 0 -1
    outer loop
      vertex 0 10 0
      vertex 0.386271 20.1224 0
      vertex 0.386271 9.91348 0
    endloop
  endfacet
  facet normal 0 0 -1
    outer loop
      vertex 0 10 0
      vertex 0 20.0359 0
      vertex 0.386271 20.1224 0
    endloop
  endfacet
  facet normal 0 0 -1
    outer loop
      vertex -0.386271 9.91348 0
      vertex 0 20.0359 0
      vertex 0 10 0
    endloop
  endfacet
  facet normal 0 0 -1
    outer loop
      vertex -0.386271 9.91348 0
      vertex -0.386271 20.1224 0
      vertex 0 20.0359 0
    endloop
  endfacet
  facet normal 0 0 -1
    outer loop
      vertex -0.734731 9.66239 0
      vertex -0.386271 20.1224 0
      vertex -0.386271 9.91348 0
    endloop
  endfacet
  facet normal 0 0 -1
    outer loop
      vertex -0.734731 9.66239 0
      vertex -0.734731 20.3735 0
      vertex -0.386271 20.1224 0
    endloop
  endfacet
  facet normal 0 0 -1
    outer loop
      vertex -0.734731 9.66239 0
      vertex -0.935549 20.6575 0
      vertex -0.734731 20.3735 0
    endloop
  endfacet
  facet normal 0 0 -1
    outer loop
      vertex -1.01127 9.2713 0
      vertex -0.935549 20.6575 0
      vertex -0.734731 9.66239 0
    endloop
  endfacet
  facet normal 0 0 -1
    outer loop
      vertex -1.01127 9.2713 0
      vertex -1.01127 20.7646 0
      vertex -0.935549 20.6575 0
    endloop
  endfacet
  facet normal 0 0 -1
    outer loop
      vertex -1.01127 9.2713 0
      vertex -1.05899 20.897 0
      vertex -1.01127 20.7646 0
    endloop
  endfacet
  facet normal 0 0 -1
    outer loop
      vertex -1.18882 8.7785 0
      vertex -1.05899 20.897 0
      vertex -1.01127 9.2713 0
    endloop
  endfacet
  facet normal 0 0 -1
    outer loop
      vertex -1.18882 8.7785 0
      vertex -1.18882 21.2574 0
      vertex -1.05899 20.897 0
    endloop
  endfacet
  facet normal 0 0 -1
    outer loop
      vertex -40 0 0
      vertex -1.18882 21.2574 0
      vertex -1.18882 8.7785 0
    endloop
  endfacet
  facet normal 0 0 -1
    outer loop
      vertex -40 0 0
      vertex -1.18882 8.7785 0
      vertex -1.25 8.23223 0
    endloop
  endfacet
  facet normal -0 0 -1
    outer loop
      vertex -1.18882 21.2574 0
      vertex -40 0 0
      vertex -1.23455 21.6657 0
    endloop
  endfacet
  facet normal 0 0 -1
    outer loop
      vertex 40 0 0
      vertex 1.18882 7.68596 0
      vertex 1.25 8.23223 0
    endloop
  endfacet
  facet normal 0 0 -1
    outer loop
      vertex 40 0 0
      vertex 1.01127 7.19317 0
      vertex 1.18882 7.68596 0
    endloop
  endfacet
  facet normal 0 0 -1
    outer loop
      vertex 40 0 0
      vertex 0.734731 6.80208 0
      vertex 1.01127 7.19317 0
    endloop
  endfacet
  facet normal 0 0 -1
    outer loop
      vertex 40 0 0
      vertex 0.386271 6.55099 0
      vertex 0.734731 6.80208 0
    endloop
  endfacet
  facet normal 0 0 -1
    outer loop
      vertex 40 0 0
      vertex 0 6.46447 0
      vertex 0.386271 6.55099 0
    endloop
  endfacet
  facet normal -0 0 -1
    outer loop
      vertex -1.23455 21.6657 0
      vertex -40 0 0
      vertex -1.25 21.8037 0
    endloop
  endfacet
  facet normal -0 0 -1
    outer loop
      vertex -1.18882 7.68596 0
      vertex -40 0 0
      vertex -1.25 8.23223 0
    endloop
  endfacet
  facet normal -0 0 -1
    outer loop
      vertex -1.01127 7.19317 0
      vertex -40 0 0
      vertex -1.18882 7.68596 0
    endloop
  endfacet
  facet normal -0 0 -1
    outer loop
      vertex -0.734731 6.80208 0
      vertex -40 0 0
      vertex -1.01127 7.19317 0
    endloop
  endfacet
  facet normal -0 0 -1
    outer loop
      vertex -0.386271 6.55099 0
      vertex -40 0 0
      vertex -0.734731 6.80208 0
    endloop
  endfacet
  facet normal -0 0 -1
    outer loop
      vertex 0 6.46447 0
      vertex -40 0 0
      vertex -0.386271 6.55099 0
    endloop
  endfacet
  facet normal 0 0 -1
    outer loop
      vertex -40 0 0
      vertex 0 6.46447 0
      vertex 40 0 0
    endloop
  endfacet
  facet normal 0 0 -1
    outer loop
      vertex 1.18882 8.7785 0
      vertex 40 0 0
      vertex 1.25 8.23223 0
    endloop
  endfacet
  facet normal 0 0 -1
    outer loop
      vertex 1.18882 22.3499 0
      vertex 40 0 0
      vertex 1.25 21.8037 0
    endloop
  endfacet
  facet normal 0 0 -1
    outer loop
      vertex 0 40 0
      vertex 1.18882 22.3499 0
      vertex 1.147 22.466 0
    endloop
  endfacet
  facet normal 0 0 -1
    outer loop
      vertex 0 40 0
      vertex 1.147 22.466 0
      vertex 1.01127 22.8427 0
    endloop
  endfacet
  facet normal 0 0 -1
    outer loop
      vertex 0 40 0
      vertex 1.01127 22.8427 0
      vertex 0.795869 23.1474 0
    endloop
  endfacet
  facet normal 0 0 -1
    outer loop
      vertex 0 40 0
      vertex 0.795869 23.1474 0
      vertex 0.734731 23.2338 0
    endloop
  endfacet
  facet normal 0 0 -1
    outer loop
      vertex 0 40 0
      vertex 0.734731 23.2338 0
      vertex 0.461216 23.4309 0
    endloop
  endfacet
  facet normal 0 0 -1
    outer loop
      vertex 0 40 0
      vertex 0.461216 23.4309 0
      vertex 0.386271 23.4849 0
    endloop
  endfacet
  facet normal 0 0 -1
    outer loop
      vertex 1.18882 22.3499 0
      vertex 0 40 0
      vertex 40 0 0
    endloop
  endfacet
  facet normal 0 0 -1
    outer loop
      vertex 0.303786 23.5034 0
      vertex 0 40 0
      vertex 0.386271 23.4849 0
    endloop
  endfacet
  facet normal 0 0 -1
    outer loop
      vertex 0 23.5714 0
      vertex 0 40 0
      vertex 0.303786 23.5034 0
    endloop
  endfacet
  facet normal 0 0 -1
    outer loop
      vertex -0.303786 23.5034 0
      vertex 0 40 0
      vertex 0 23.5714 0
    endloop
  endfacet
  facet normal 0 0 -1
    outer loop
      vertex -0.386271 23.4849 0
      vertex 0 40 0
      vertex -0.303786 23.5034 0
    endloop
  endfacet
  facet normal 0 0 -1
    outer loop
      vertex -0.461216 23.4309 0
      vertex 0 40 0
      vertex -0.386271 23.4849 0
    endloop
  endfacet
  facet normal 0 0 -1
    outer loop
      vertex -0.734731 23.2338 0
      vertex 0 40 0
      vertex -0.461216 23.4309 0
    endloop
  endfacet
  facet normal 0 0 -1
    outer loop
      vertex -0.795869 23.1474 0
      vertex 0 40 0
      vertex -0.734731 23.2338 0
    endloop
  endfacet
  facet normal 0 0 -1
    outer loop
      vertex -1.01127 22.8427 0
      vertex 0 40 0
      vertex -0.795869 23.1474 0
    endloop
  endfacet
  facet normal 0 0 -1
    outer loop
      vertex -1.147 22.466 0
      vertex 0 40 0
      vertex -1.01127 22.8427 0
    endloop
  endfacet
  facet normal 0 0 -1
    outer loop
      vertex -1.18882 22.3499 0
      vertex 0 40 0
      vertex -1.147 22.466 0
    endloop
  endfacet
  facet normal 0 0 -1
    outer loop
      vertex -40 0 0
      vertex -1.18882 22.3499 0
      vertex -1.25 21.8037 0
    endloop
  endfacet
  facet normal -0 0 -1
    outer loop
      vertex -1.18882 22.3499 0
      vertex -40 0 0
      vertex 0 40 0
    endloop
  endfacet
  facet normal 0 -1 0
    outer loop
      vertex -40 0 21.8
      vertex 0 0 10
      vertex 40 0 21.8
    endloop
  endfacet
  facet normal 0 -1 0
    outer loop
      vertex -40 0 21.8
      vertex -0.386271 0 9.91348
      vertex 0 0 10
    endloop
  endfacet
  facet normal 0 -1 0
    outer loop
      vertex -40 0 21.8
      vertex -0.734731 0 9.66239
      vertex -0.386271 0 9.91348
    endloop
  endfacet
  facet normal 0 -1 0
    outer loop
      vertex -40 0 21.8
      vertex -1.01127 0 9.2713
      vertex -0.734731 0 9.66239
    endloop
  endfacet
  facet normal 0 -1 0
    outer loop
      vertex -40 0 21.8
      vertex -1.18882 0 8.7785
      vertex -1.01127 0 9.2713
    endloop
  endfacet
  facet normal 0 -1 0
    outer loop
      vertex -40 0 21.8
      vertex -1.25 0 8.23223
      vertex -1.18882 0 8.7785
    endloop
  endfacet
  facet normal 0 -1 0
    outer loop
      vertex -40 0 0
      vertex -1.25 0 8.23223
      vertex -40 0 21.8
    endloop
  endfacet
  facet normal 0 -1 -0
    outer loop
      vertex -1.25 0 8.23223
      vertex -40 0 0
      vertex -1.18882 0 7.68596
    endloop
  endfacet
  facet normal 0 -1 -0
    outer loop
      vertex -1.18882 0 7.68596
      vertex -40 0 0
      vertex -1.01127 0 7.19317
    endloop
  endfacet
  facet normal 0 -1 -0
    outer loop
      vertex -1.01127 0 7.19317
      vertex -40 0 0
      vertex -0.734731 0 6.80208
    endloop
  endfacet
  facet normal 0 -1 -0
    outer loop
      vertex -0.386271 0 6.55099
      vertex -40 0 0
      vertex 0 0 6.46447
    endloop
  endfacet
  facet normal 0 -1 -0
    outer loop
      vertex -0.734731 0 6.80208
      vertex -40 0 0
      vertex -0.386271 0 6.55099
    endloop
  endfacet
  facet normal 0 -1 0
    outer loop
      vertex 0.386271 0 9.91348
      vertex 40 0 21.8
      vertex 0 0 10
    endloop
  endfacet
  facet normal 0 -1 0
    outer loop
      vertex 0.734731 0 9.66239
      vertex 40 0 21.8
      vertex 0.386271 0 9.91348
    endloop
  endfacet
  facet normal 0 -1 0
    outer loop
      vertex 1.01127 0 9.2713
      vertex 40 0 21.8
      vertex 0.734731 0 9.66239
    endloop
  endfacet
  facet normal 0 -1 0
    outer loop
      vertex 1.18882 0 8.7785
      vertex 40 0 21.8
      vertex 1.01127 0 9.2713
    endloop
  endfacet
  facet normal 0 -1 0
    outer loop
      vertex 1.25 0 8.23223
      vertex 40 0 21.8
      vertex 1.18882 0 8.7785
    endloop
  endfacet
  facet normal 0 -1 0
    outer loop
      vertex 40 0 0
      vertex 1.25 0 8.23223
      vertex 1.18882 0 7.68596
    endloop
  endfacet
  facet normal 0 -1 0
    outer loop
      vertex 40 0 0
      vertex 1.18882 0 7.68596
      vertex 1.01127 0 7.19317
    endloop
  endfacet
  facet normal 0 -1 0
    outer loop
      vertex 40 0 0
      vertex 1.01127 0 7.19317
      vertex 0.734731 0 6.80208
    endloop
  endfacet
  facet normal 0 -1 0
    outer loop
      vertex 40 0 0
      vertex 0.734731 0 6.80208
      vertex 0.386271 0 6.55099
    endloop
  endfacet
  facet normal 0 -1 0
    outer loop
      vertex 1.25 0 8.23223
      vertex 40 0 0
      vertex 40 0 21.8
    endloop
  endfacet
  facet normal 0 -1 0
    outer loop
      vertex 0 0 6.46447
      vertex 40 0 0
      vertex 0.386271 0 6.55099
    endloop
  endfacet
  facet normal 0 -1 0
    outer loop
      vertex 40 0 0
      vertex 0 0 6.46447
      vertex -40 0 0
    endloop
  endfacet
  facet normal -0 0 1
    outer loop
      vertex -33.2 6.8 23.6
      vertex 38.2 1.79999 23.6
      vertex 33.2 6.8 23.6
    endloop
  endfacet
  facet normal 0 0 1
    outer loop
      vertex 38.2 1.79999 23.6
      vertex -33.2 6.8 23.6
      vertex -38.2 1.79999 23.6
    endloop
  endfacet
  facet normal 0.707107 0.707107 0
    outer loop
      vertex 33.2 6.8 23.6
      vertex 38.2 1.8 21.8
      vertex 33.2 6.8 21.8
    endloop
  endfacet
  facet normal 0.707107 0.707107 0
    outer loop
      vertex 40 0 21.8
      vertex 38.2 1.8 16.8
      vertex 38.2 1.8 21.8
    endloop
  endfacet
  facet normal 0.707107 0.707107 0
    outer loop
      vertex 38.2 1.8 16.8
      vertex 40 0 21.8
      vertex 38.2 1.8 15
    endloop
  endfacet
  facet normal 0.707057 0.707157 3.92865e-06
    outer loop
      vertex 38.5512 1.44884 23.5654
      vertex 38.2 1.8 21.8
      vertex 38.2 1.79999 23.6
    endloop
  endfacet
  facet normal 0.707107 0.707106 3.92837e-06
    outer loop
      vertex 38.2 1.79999 23.6
      vertex 38.2 1.8 21.8
      vertex 33.2 6.8 23.6
    endloop
  endfacet
  facet normal 0.707107 0.707107 0
    outer loop
      vertex 38.2 1.8 16.8
      vertex 33.2 6.8 15
      vertex 33.2 6.8 16.8
    endloop
  endfacet
  facet normal 0.707107 0.707107 0
    outer loop
      vertex 33.2 6.8 15
      vertex 38.2 1.8 16.8
      vertex 38.2 1.8 15
    endloop
  endfacet
  facet normal 0.707107 0.707107 0
    outer loop
      vertex 38.2 1.8 5
      vertex 0 40 0
      vertex 0 40 5
    endloop
  endfacet
  facet normal 0.707183 0.70703 -4.65415e-05
    outer loop
      vertex 38.8888 1.11116 23.463
      vertex 38.2 1.8 21.8
      vertex 38.5512 1.44884 23.5654
    endloop
  endfacet
  facet normal 0.707098 0.707115 2.39434e-05
    outer loop
      vertex 39.2 0.799973 23.2967
      vertex 38.2 1.8 21.8
      vertex 38.8888 1.11116 23.463
    endloop
  endfacet
  facet normal 0.707083 0.707131 4.51499e-05
    outer loop
      vertex 39.4728 0.527206 23.0728
      vertex 38.2 1.8 21.8
      vertex 39.2 0.799973 23.2967
    endloop
  endfacet
  facet normal 0.707078 0.707135 5.40204e-05
    outer loop
      vertex 39.6967 0.303345 22.8
      vertex 38.2 1.8 21.8
      vertex 39.4728 0.527206 23.0728
    endloop
  endfacet
  facet normal 0.707119 0.707094 -6.86481e-05
    outer loop
      vertex 39.863 0.137009 22.4888
      vertex 38.2 1.8 21.8
      vertex 39.6967 0.303345 22.8
    endloop
  endfacet
  facet normal 0.707118 0.707096 -6.16905e-05
    outer loop
      vertex 39.9654 0.0345764 22.1512
      vertex 38.2 1.8 21.8
      vertex 39.863 0.137009 22.4888
    endloop
  endfacet
  facet normal 0.707107 0.707107 4.75163e-05
    outer loop
      vertex 38.2 1.8 21.8
      vertex 39.9654 0.0345764 22.1512
      vertex 40 0 21.8
    endloop
  endfacet
  facet normal 0.707107 0.707107 -0
    outer loop
      vertex 40 0 0
      vertex 38.2 1.8 15
      vertex 40 0 21.8
    endloop
  endfacet
  facet normal 0.707107 0.707107 -4.01944e-16
    outer loop
      vertex 38.2 1.8 5
      vertex 40 0 0
      vertex 0 40 0
    endloop
  endfacet
  facet normal 0.707107 0.707107 0
    outer loop
      vertex 38.2 1.8 15
      vertex 40 0 0
      vertex 38.2 1.8 5
    endloop
  endfacet
  facet normal -0.707107 0.707107 0
    outer loop
      vertex 0 40 0
      vertex -38.2 1.8 5
      vertex 0 40 5
    endloop
  endfacet
  facet normal -0.707107 0.707107 0
    outer loop
      vertex -40 0 0
      vertex -38.2 1.8 15
      vertex -38.2 1.8 5
    endloop
  endfacet
  facet normal -0.707107 0.707107 0
    outer loop
      vertex -38.2 1.8 15
      vertex -40 0 21.8
      vertex -38.2 1.8 16.8
    endloop
  endfacet
  facet normal -0.707107 0.707107 0
    outer loop
      vertex -38.2 1.8 16.8
      vertex -40 0 21.8
      vertex -38.2 1.8 21.8
    endloop
  endfacet
  facet normal -0.707107 0.707107 4.75163e-05
    outer loop
      vertex -39.9654 0.0345764 22.1512
      vertex -38.2 1.8 21.8
      vertex -40 0 21.8
    endloop
  endfacet
  facet normal -0.707057 0.707157 3.92865e-06
    outer loop
      vertex -38.2 1.8 21.8
      vertex -38.5512 1.44884 23.5654
      vertex -38.2 1.79999 23.6
    endloop
  endfacet
  facet normal -0.707183 0.70703 -4.65415e-05
    outer loop
      vertex -38.2 1.8 21.8
      vertex -38.8888 1.11116 23.463
      vertex -38.5512 1.44884 23.5654
    endloop
  endfacet
  facet normal -0.707098 0.707115 2.39434e-05
    outer loop
      vertex -38.2 1.8 21.8
      vertex -39.2 0.799973 23.2967
      vertex -38.8888 1.11116 23.463
    endloop
  endfacet
  facet normal -0.707083 0.707131 4.51499e-05
    outer loop
      vertex -38.2 1.8 21.8
      vertex -39.4728 0.527206 23.0728
      vertex -39.2 0.799973 23.2967
    endloop
  endfacet
  facet normal -0.707078 0.707135 5.40204e-05
    outer loop
      vertex -38.2 1.8 21.8
      vertex -39.6967 0.303345 22.8
      vertex -39.4728 0.527206 23.0728
    endloop
  endfacet
  facet normal -0.707119 0.707094 -6.86481e-05
    outer loop
      vertex -38.2 1.8 21.8
      vertex -39.863 0.137009 22.4888
      vertex -39.6967 0.303345 22.8
    endloop
  endfacet
  facet normal -0.707107 0.707107 -4.01944e-16
    outer loop
      vertex -40 0 0
      vertex -38.2 1.8 5
      vertex 0 40 0
    endloop
  endfacet
  facet normal -0.707107 0.707107 0
    outer loop
      vertex -38.2 1.8 15
      vertex -40 0 0
      vertex -40 0 21.8
    endloop
  endfacet
  facet normal -0.707118 0.707096 -6.16905e-05
    outer loop
      vertex -38.2 1.8 21.8
      vertex -39.9654 0.0345764 22.1512
      vertex -39.863 0.137009 22.4888
    endloop
  endfacet
  facet normal -0.707107 0.707107 0
    outer loop
      vertex -38.2 1.8 15
      vertex -33.2 6.8 16.8
      vertex -33.2 6.8 15
    endloop
  endfacet
  facet normal -0.707107 0.707107 0
    outer loop
      vertex -33.2 6.8 16.8
      vertex -38.2 1.8 15
      vertex -38.2 1.8 16.8
    endloop
  endfacet
  facet normal -0.707107 0.707107 0
    outer loop
      vertex -38.2 1.8 21.8
      vertex -33.2 6.8 23.6
      vertex -33.2 6.8 21.8
    endloop
  endfacet
  facet normal -0.707107 0.707106 3.92837e-06
    outer loop
      vertex -33.2 6.8 23.6
      vertex -38.2 1.8 21.8
      vertex -38.2 1.79999 23.6
    endloop
  endfacet
  facet normal 0 -0.995189 0.0979785
    outer loop
      vertex -40 0 21.8
      vertex 39.9654 0.0345764 22.1512
      vertex -39.9654 0.0345764 22.1512
    endloop
  endfacet
  facet normal 0 -0.995189 0.0979785
    outer loop
      vertex 39.9654 0.0345764 22.1512
      vertex -40 0 21.8
      vertex 40 0 21.8
    endloop
  endfacet
  facet normal 0 -0.956922 0.290344
    outer loop
      vertex -39.9654 0.0345764 22.1512
      vertex 39.863 0.137009 22.4888
      vertex -39.863 0.137009 22.4888
    endloop
  endfacet
  facet normal 0 -0.956922 0.290344
    outer loop
      vertex 39.863 0.137009 22.4888
      vertex -39.9654 0.0345764 22.1512
      vertex 39.9654 0.0345764 22.1512
    endloop
  endfacet
  facet normal 0 -0.881926 0.471388
    outer loop
      vertex -39.863 0.137009 22.4888
      vertex 39.6967 0.303345 22.8
      vertex -39.6967 0.303345 22.8
    endloop
  endfacet
  facet normal 0 -0.881926 0.471388
    outer loop
      vertex 39.6967 0.303345 22.8
      vertex -39.863 0.137009 22.4888
      vertex 39.863 0.137009 22.4888
    endloop
  endfacet
  facet normal 0 -0.773038 0.634359
    outer loop
      vertex -39.6967 0.303345 22.8
      vertex 39.4728 0.527206 23.0728
      vertex -39.4728 0.527206 23.0728
    endloop
  endfacet
  facet normal 0 -0.773038 0.634359
    outer loop
      vertex 39.4728 0.527206 23.0728
      vertex -39.6967 0.303345 22.8
      vertex 39.6967 0.303345 22.8
    endloop
  endfacet
  facet normal 0 -0.634471 0.772947
    outer loop
      vertex -39.2 0.799973 23.2967
      vertex 39.4728 0.527206 23.0728
      vertex 39.2 0.799973 23.2967
    endloop
  endfacet
  facet normal 0 -0.634471 0.772947
    outer loop
      vertex 39.4728 0.527206 23.0728
      vertex -39.2 0.799973 23.2967
      vertex -39.4728 0.527206 23.0728
    endloop
  endfacet
  facet normal 0 -0.471324 0.88196
    outer loop
      vertex -38.8888 1.11116 23.463
      vertex 39.2 0.799973 23.2967
      vertex 38.8888 1.11116 23.463
    endloop
  endfacet
  facet normal 0 -0.471324 0.88196
    outer loop
      vertex 39.2 0.799973 23.2967
      vertex -38.8888 1.11116 23.463
      vertex -39.2 0.799973 23.2967
    endloop
  endfacet
  facet normal 0 -0.290196 0.956967
    outer loop
      vertex -38.5512 1.44884 23.5654
      vertex 38.8888 1.11116 23.463
      vertex 38.5512 1.44884 23.5654
    endloop
  endfacet
  facet normal 0 -0.290196 0.956967
    outer loop
      vertex 38.8888 1.11116 23.463
      vertex -38.5512 1.44884 23.5654
      vertex -38.8888 1.11116 23.463
    endloop
  endfacet
  facet normal 0 -0.0980585 0.995181
    outer loop
      vertex -38.2 1.79999 23.6
      vertex 38.5512 1.44884 23.5654
      vertex 38.2 1.79999 23.6
    endloop
  endfacet
  facet normal 0 -0.0980585 0.995181
    outer loop
      vertex 38.5512 1.44884 23.5654
      vertex -38.2 1.79999 23.6
      vertex -38.5512 1.44884 23.5654
    endloop
  endfacet
  facet normal -0.987688 -0.110617 -0.110617
    outer loop
      vertex 1.25 8.23223 0
      vertex 1.18882 3.7785 5
      vertex 1.18882 8.7785 0
    endloop
  endfacet
  facet normal -0.987688 -0.110617 -0.110617
    outer loop
      vertex 1.18882 3.7785 5
      vertex 1.25 8.23223 0
      vertex 1.25 3.23223 5
    endloop
  endfacet
  facet normal -0.987688 -0.110617 -0.110617
    outer loop
      vertex 1.25 0 8.23223
      vertex 1.18882 1.8 6.9785
      vertex 1.25 1.8 6.43223
    endloop
  endfacet
  facet normal -0.987688 -0.110617 -0.110617
    outer loop
      vertex 1.18882 1.8 6.9785
      vertex 1.25 0 8.23223
      vertex 1.18882 0 8.7785
    endloop
  endfacet
  facet normal 0.987688 -0.110617 -0.110617
    outer loop
      vertex -1.18882 3.7785 5
      vertex -1.25 8.23223 0
      vertex -1.18882 8.7785 0
    endloop
  endfacet
  facet normal 0.987688 -0.110617 -0.110617
    outer loop
      vertex -1.25 8.23223 0
      vertex -1.18882 3.7785 5
      vertex -1.25 3.23223 5
    endloop
  endfacet
  facet normal 0.987688 -0.110617 -0.110617
    outer loop
      vertex -1.25 0 8.23223
      vertex -1.18882 1.8 6.9785
      vertex -1.18882 0 8.7785
    endloop
  endfacet
  facet normal 0.987688 -0.110617 -0.110617
    outer loop
      vertex -1.18882 1.8 6.9785
      vertex -1.25 0 8.23223
      vertex -1.25 1.8 6.43223
    endloop
  endfacet
  facet normal -0.707111 0.499997 0.499997
    outer loop
      vertex 0.734731 6.80208 0
      vertex 1.01127 2.19317 5
      vertex 1.01127 7.19317 0
    endloop
  endfacet
  facet normal -0.707111 0.499997 0.499997
    outer loop
      vertex 1.01127 2.19317 5
      vertex 0.734731 6.80208 0
      vertex 0.734731 1.80208 5
    endloop
  endfacet
  facet normal -0.707111 0.499997 0.499997
    outer loop
      vertex 0.734731 0 6.80208
      vertex 1.01127 1.8 5.39317
      vertex 0.734731 1.8 5.00208
    endloop
  endfacet
  facet normal -0.707111 0.499997 0.499997
    outer loop
      vertex 1.01127 1.8 5.39317
      vertex 0.734731 0 6.80208
      vertex 1.01127 0 7.19317
    endloop
  endfacet
  facet normal -0.707111 -0.499997 -0.499997
    outer loop
      vertex 1.01127 9.2713 0
      vertex 0.734731 4.66239 5
      vertex 0.734731 9.66239 0
    endloop
  endfacet
  facet normal -0.707111 -0.499997 -0.499997
    outer loop
      vertex 0.734731 4.66239 5
      vertex 1.01127 9.2713 0
      vertex 1.01127 4.2713 5
    endloop
  endfacet
  facet normal -0.707111 -0.499997 -0.499997
    outer loop
      vertex 1.01127 0 9.2713
      vertex 0.734731 1.8 7.86239
      vertex 1.01127 1.8 7.4713
    endloop
  endfacet
  facet normal -0.707111 -0.499997 -0.499997
    outer loop
      vertex 0.734731 1.8 7.86239
      vertex 1.01127 0 9.2713
      vertex 0.734731 0 9.66239
    endloop
  endfacet
  facet normal 0.156433 0.698401 0.698401
    outer loop
      vertex -0.386271 6.55099 0
      vertex 0 0 6.46447
      vertex 0 6.46447 0
    endloop
  endfacet
  facet normal 0.156433 0.698401 0.698401
    outer loop
      vertex 0 0 6.46447
      vertex -0.386271 6.55099 0
      vertex -0.386271 0 6.55099
    endloop
  endfacet
  facet normal -0.453987 -0.630038 -0.630038
    outer loop
      vertex 0.386271 9.91348 0
      vertex 0.734731 4.66239 5
      vertex 0.386271 4.91348 5
    endloop
  endfacet
  facet normal -0.453987 -0.630038 -0.630038
    outer loop
      vertex 0.734731 4.66239 5
      vertex 0.386271 9.91348 0
      vertex 0.734731 9.66239 0
    endloop
  endfacet
  facet normal -0.453987 -0.630038 -0.630038
    outer loop
      vertex 0.386271 1.8 8.11348
      vertex 0.734731 0 9.66239
      vertex 0.386271 0 9.91348
    endloop
  endfacet
  facet normal -0.453987 -0.630038 -0.630038
    outer loop
      vertex 0.734731 0 9.66239
      vertex 0.386271 1.8 8.11348
      vertex 0.734731 1.8 7.86239
    endloop
  endfacet
  facet normal -0.156433 -0.698401 -0.698401
    outer loop
      vertex 0 10 0
      vertex 0.386271 4.91348 5
      vertex 0 5 5
    endloop
  endfacet
  facet normal -0.156433 -0.698401 -0.698401
    outer loop
      vertex 0.386271 4.91348 5
      vertex 0 10 0
      vertex 0.386271 9.91348 0
    endloop
  endfacet
  facet normal -0.156433 -0.698401 -0.698401
    outer loop
      vertex 0 1.8 8.2
      vertex 0.386271 0 9.91348
      vertex 0 0 10
    endloop
  endfacet
  facet normal -0.156433 -0.698401 -0.698401
    outer loop
      vertex 0.386271 0 9.91348
      vertex 0 1.8 8.2
      vertex 0.386271 1.8 8.11348
    endloop
  endfacet
  facet normal -0.891007 -0.321019 -0.321019
    outer loop
      vertex 1.18882 8.7785 0
      vertex 1.01127 4.2713 5
      vertex 1.01127 9.2713 0
    endloop
  endfacet
  facet normal -0.891007 -0.321019 -0.321019
    outer loop
      vertex 1.01127 4.2713 5
      vertex 1.18882 8.7785 0
      vertex 1.18882 3.7785 5
    endloop
  endfacet
  facet normal -0.891007 -0.321019 -0.321019
    outer loop
      vertex 1.18882 0 8.7785
      vertex 1.01127 1.8 7.4713
      vertex 1.18882 1.8 6.9785
    endloop
  endfacet
  facet normal -0.891007 -0.321019 -0.321019
    outer loop
      vertex 1.01127 1.8 7.4713
      vertex 1.18882 0 8.7785
      vertex 1.01127 0 9.2713
    endloop
  endfacet
  facet normal -0.156433 0.698401 0.698401
    outer loop
      vertex 0.386271 6.55099 0
      vertex 0 0 6.46447
      vertex 0.386271 0 6.55099
    endloop
  endfacet
  facet normal -0.156433 0.698401 0.698401
    outer loop
      vertex 0 0 6.46447
      vertex 0.386271 6.55099 0
      vertex 0 6.46447 0
    endloop
  endfacet
  facet normal -0.987688 0.110617 0.110617
    outer loop
      vertex 1.18882 7.68596 0
      vertex 1.25 3.23223 5
      vertex 1.25 8.23223 0
    endloop
  endfacet
  facet normal -0.987688 0.110617 0.110617
    outer loop
      vertex 1.25 3.23223 5
      vertex 1.18882 7.68596 0
      vertex 1.18882 2.68596 5
    endloop
  endfacet
  facet normal -0.987688 0.110617 0.110617
    outer loop
      vertex 1.18882 0 7.68596
      vertex 1.25 1.8 6.43223
      vertex 1.18882 1.8 5.88596
    endloop
  endfacet
  facet normal -0.987688 0.110617 0.110617
    outer loop
      vertex 1.25 1.8 6.43223
      vertex 1.18882 0 7.68596
      vertex 1.25 0 8.23223
    endloop
  endfacet
  facet normal 0.891003 0.321024 0.321024
    outer loop
      vertex -1.18882 2.68596 5
      vertex -1.01127 7.19317 0
      vertex -1.18882 7.68596 0
    endloop
  endfacet
  facet normal 0.891003 0.321024 0.321024
    outer loop
      vertex -1.01127 7.19317 0
      vertex -1.18882 2.68596 5
      vertex -1.01127 2.19317 5
    endloop
  endfacet
  facet normal 0.891003 0.321024 0.321024
    outer loop
      vertex -1.01127 0 7.19317
      vertex -1.18882 1.8 5.88596
      vertex -1.18882 0 7.68596
    endloop
  endfacet
  facet normal 0.891003 0.321024 0.321024
    outer loop
      vertex -1.18882 1.8 5.88596
      vertex -1.01127 0 7.19317
      vertex -1.01127 1.8 5.39317
    endloop
  endfacet
  facet normal -0.891003 0.321024 0.321024
    outer loop
      vertex 1.01127 7.19317 0
      vertex 1.18882 2.68596 5
      vertex 1.18882 7.68596 0
    endloop
  endfacet
  facet normal -0.891003 0.321024 0.321024
    outer loop
      vertex 1.18882 2.68596 5
      vertex 1.01127 7.19317 0
      vertex 1.01127 2.19317 5
    endloop
  endfacet
  facet normal -0.891003 0.321024 0.321024
    outer loop
      vertex 1.01127 0 7.19317
      vertex 1.18882 1.8 5.88596
      vertex 1.01127 1.8 5.39317
    endloop
  endfacet
  facet normal -0.891003 0.321024 0.321024
    outer loop
      vertex 1.18882 1.8 5.88596
      vertex 1.01127 0 7.19317
      vertex 1.18882 0 7.68596
    endloop
  endfacet
  facet normal 0.891007 -0.321019 -0.321019
    outer loop
      vertex -1.01127 4.2713 5
      vertex -1.18882 8.7785 0
      vertex -1.01127 9.2713 0
    endloop
  endfacet
  facet normal 0.891007 -0.321019 -0.321019
    outer loop
      vertex -1.18882 8.7785 0
      vertex -1.01127 4.2713 5
      vertex -1.18882 3.7785 5
    endloop
  endfacet
  facet normal 0.891007 -0.321019 -0.321019
    outer loop
      vertex -1.18882 0 8.7785
      vertex -1.01127 1.8 7.4713
      vertex -1.01127 0 9.2713
    endloop
  endfacet
  facet normal 0.891007 -0.321019 -0.321019
    outer loop
      vertex -1.01127 1.8 7.4713
      vertex -1.18882 0 8.7785
      vertex -1.18882 1.8 6.9785
    endloop
  endfacet
  facet normal 0.156433 -0.698401 -0.698401
    outer loop
      vertex -0.386271 9.91348 0
      vertex 0 5 5
      vertex -0.386271 4.91348 5
    endloop
  endfacet
  facet normal 0.156433 -0.698401 -0.698401
    outer loop
      vertex 0 5 5
      vertex -0.386271 9.91348 0
      vertex 0 10 0
    endloop
  endfacet
  facet normal 0.156433 -0.698401 -0.698401
    outer loop
      vertex -0.386271 0 9.91348
      vertex 0 1.8 8.2
      vertex 0 0 10
    endloop
  endfacet
  facet normal 0.156433 -0.698401 -0.698401
    outer loop
      vertex 0 1.8 8.2
      vertex -0.386271 0 9.91348
      vertex -0.386271 1.8 8.11348
    endloop
  endfacet
  facet normal 0.987688 0.110617 0.110617
    outer loop
      vertex -1.25 3.23223 5
      vertex -1.18882 7.68596 0
      vertex -1.25 8.23223 0
    endloop
  endfacet
  facet normal 0.987688 0.110617 0.110617
    outer loop
      vertex -1.18882 7.68596 0
      vertex -1.25 3.23223 5
      vertex -1.18882 2.68596 5
    endloop
  endfacet
  facet normal 0.987688 0.110617 0.110617
    outer loop
      vertex -1.18882 0 7.68596
      vertex -1.25 1.8 6.43223
      vertex -1.25 0 8.23223
    endloop
  endfacet
  facet normal 0.987688 0.110617 0.110617
    outer loop
      vertex -1.25 1.8 6.43223
      vertex -1.18882 0 7.68596
      vertex -1.18882 1.8 5.88596
    endloop
  endfacet
  facet normal 0.453987 0.630038 0.630038
    outer loop
      vertex -0.386271 0 6.55099
      vertex -0.734731 1.8 5.00208
      vertex -0.734731 0 6.80208
    endloop
  endfacet
  facet normal 0.453941 0.630049 0.630061
    outer loop
      vertex -0.386271 0 6.55099
      vertex -0.731844 1.8 5
      vertex -0.734731 1.8 5.00208
    endloop
  endfacet
  facet normal 0.453987 0.630038 0.630038
    outer loop
      vertex -0.386271 6.55099 0
      vertex -0.731844 1.8 5
      vertex -0.386271 0 6.55099
    endloop
  endfacet
  facet normal 0.453987 0.630038 0.630038
    outer loop
      vertex -0.734731 6.80208 0
      vertex -0.731844 1.8 5
      vertex -0.386271 6.55099 0
    endloop
  endfacet
  facet normal 0.453937 0.630056 0.630056
    outer loop
      vertex -0.731844 1.8 5
      vertex -0.734731 6.80208 0
      vertex -0.734731 1.80208 5
    endloop
  endfacet
  facet normal -0.453937 0.630056 0.630056
    outer loop
      vertex 0.734731 1.80208 5
      vertex 0.734731 6.80208 0
      vertex 0.731844 1.8 5
    endloop
  endfacet
  facet normal -0.453987 0.630038 0.630038
    outer loop
      vertex 0.734731 1.8 5.00208
      vertex 0.386271 0 6.55099
      vertex 0.734731 0 6.80208
    endloop
  endfacet
  facet normal -0.453941 0.630049 0.630061
    outer loop
      vertex 0.731844 1.8 5
      vertex 0.386271 0 6.55099
      vertex 0.734731 1.8 5.00208
    endloop
  endfacet
  facet normal -0.453987 0.630038 0.630038
    outer loop
      vertex 0.386271 6.55099 0
      vertex 0.731844 1.8 5
      vertex 0.734731 6.80208 0
    endloop
  endfacet
  facet normal -0.453987 0.630038 0.630038
    outer loop
      vertex 0.731844 1.8 5
      vertex 0.386271 6.55099 0
      vertex 0.386271 0 6.55099
    endloop
  endfacet
  facet normal 0.453987 -0.630038 -0.630038
    outer loop
      vertex -0.734731 9.66239 0
      vertex -0.386271 4.91348 5
      vertex -0.734731 4.66239 5
    endloop
  endfacet
  facet normal 0.453987 -0.630038 -0.630038
    outer loop
      vertex -0.386271 4.91348 5
      vertex -0.734731 9.66239 0
      vertex -0.386271 9.91348 0
    endloop
  endfacet
  facet normal 0.453987 -0.630038 -0.630038
    outer loop
      vertex -0.734731 0 9.66239
      vertex -0.386271 1.8 8.11348
      vertex -0.386271 0 9.91348
    endloop
  endfacet
  facet normal 0.453987 -0.630038 -0.630038
    outer loop
      vertex -0.386271 1.8 8.11348
      vertex -0.734731 0 9.66239
      vertex -0.734731 1.8 7.86239
    endloop
  endfacet
  facet normal 0.707111 0.499997 0.499997
    outer loop
      vertex -1.01127 2.19317 5
      vertex -0.734731 6.80208 0
      vertex -1.01127 7.19317 0
    endloop
  endfacet
  facet normal 0.707111 0.499997 0.499997
    outer loop
      vertex -0.734731 6.80208 0
      vertex -1.01127 2.19317 5
      vertex -0.734731 1.80208 5
    endloop
  endfacet
  facet normal 0.707111 0.499997 0.499997
    outer loop
      vertex -0.734731 0 6.80208
      vertex -1.01127 1.8 5.39317
      vertex -1.01127 0 7.19317
    endloop
  endfacet
  facet normal 0.707111 0.499997 0.499997
    outer loop
      vertex -1.01127 1.8 5.39317
      vertex -0.734731 0 6.80208
      vertex -0.734731 1.8 5.00208
    endloop
  endfacet
  facet normal 0.707111 -0.499997 -0.499997
    outer loop
      vertex -0.734731 4.66239 5
      vertex -1.01127 9.2713 0
      vertex -0.734731 9.66239 0
    endloop
  endfacet
  facet normal 0.707111 -0.499997 -0.499997
    outer loop
      vertex -1.01127 9.2713 0
      vertex -0.734731 4.66239 5
      vertex -1.01127 4.2713 5
    endloop
  endfacet
  facet normal 0.707111 -0.499997 -0.499997
    outer loop
      vertex -1.01127 0 9.2713
      vertex -0.734731 1.8 7.86239
      vertex -0.734731 0 9.66239
    endloop
  endfacet
  facet normal 0.707111 -0.499997 -0.499997
    outer loop
      vertex -0.734731 1.8 7.86239
      vertex -1.01127 0 9.2713
      vertex -1.01127 1.8 7.4713
    endloop
  endfacet
  facet normal 0.987689 0.110612 -0.110613
    outer loop
      vertex -1.18882 26.2574 5
      vertex -1.23455 21.6657 0
      vertex -1.24766 26.7828 5
    endloop
  endfacet
  facet normal 0.987687 0.110622 -0.110622
    outer loop
      vertex -1.23455 21.6657 0
      vertex -1.18882 26.2574 5
      vertex -1.18882 21.2574 0
    endloop
  endfacet
  facet normal 0.987695 0.110584 -0.110584
    outer loop
      vertex -1.24766 26.7828 5
      vertex -1.25 21.8037 0
      vertex -1.25 26.8037 5
    endloop
  endfacet
  facet normal 0.987697 0.110579 -0.110579
    outer loop
      vertex -1.25 21.8037 0
      vertex -1.24766 26.7828 5
      vertex -1.23455 21.6657 0
    endloop
  endfacet
  facet normal -0.454001 0.630033 -0.630033
    outer loop
      vertex 0.734731 20.3735 0
      vertex 0.386271 25.1224 5
      vertex 0.734731 25.3735 5
    endloop
  endfacet
  facet normal -0.454001 0.630033 -0.630033
    outer loop
      vertex 0.386271 25.1224 5
      vertex 0.734731 20.3735 0
      vertex 0.386271 20.1224 0
    endloop
  endfacet
  facet normal -0.987695 0.110584 -0.110584
    outer loop
      vertex 1.25 21.8037 0
      vertex 1.24766 26.7828 5
      vertex 1.25 26.8037 5
    endloop
  endfacet
  facet normal -0.987697 0.110579 -0.110579
    outer loop
      vertex 1.24766 26.7828 5
      vertex 1.25 21.8037 0
      vertex 1.23455 21.6657 0
    endloop
  endfacet
  facet normal -0.702571 -0.503187 0.503187
    outer loop
      vertex 0.734731 23.2338 0
      vertex 0.736808 28.2309 5
      vertex 0.734731 28.2338 5
    endloop
  endfacet
  facet normal -0.706851 -0.500179 0.500182
    outer loop
      vertex 0.736808 28.2309 5
      vertex 0.734731 23.2338 0
      vertex 0.795869 23.1474 0
    endloop
  endfacet
  facet normal 0.891467 -0.320371 0.320388
    outer loop
      vertex -1.18882 27.3499 5
      vertex -1.147 22.466 0
      vertex -1.18422 27.3627 5
    endloop
  endfacet
  facet normal 0.891048 -0.320962 0.320962
    outer loop
      vertex -1.147 22.466 0
      vertex -1.18882 27.3499 5
      vertex -1.18882 22.3499 0
    endloop
  endfacet
  facet normal 0.454011 -0.630029 0.630029
    outer loop
      vertex -0.461216 23.4309 0
      vertex -0.734731 28.2338 5
      vertex -0.734731 23.2338 0
    endloop
  endfacet
  facet normal 0.454054 -0.630012 0.630015
    outer loop
      vertex -0.734731 28.2338 5
      vertex -0.461216 23.4309 0
      vertex -0.387017 28.4844 5
    endloop
  endfacet
  facet normal 0.454001 0.630033 -0.630033
    outer loop
      vertex -0.386271 20.1224 0
      vertex -0.734731 25.3735 5
      vertex -0.386271 25.1224 5
    endloop
  endfacet
  facet normal 0.454001 0.630033 -0.630033
    outer loop
      vertex -0.734731 25.3735 5
      vertex -0.386271 20.1224 0
      vertex -0.734731 20.3735 0
    endloop
  endfacet
  facet normal 0.702571 -0.503187 0.503187
    outer loop
      vertex -0.736808 28.2309 5
      vertex -0.734731 23.2338 0
      vertex -0.734731 28.2338 5
    endloop
  endfacet
  facet normal 0.706851 -0.500179 0.500182
    outer loop
      vertex -0.734731 23.2338 0
      vertex -0.736808 28.2309 5
      vertex -0.795869 23.1474 0
    endloop
  endfacet
  facet normal -0.454054 -0.630012 0.630015
    outer loop
      vertex 0.461216 23.4309 0
      vertex 0.734731 28.2338 5
      vertex 0.387017 28.4844 5
    endloop
  endfacet
  facet normal -0.454011 -0.630029 0.630029
    outer loop
      vertex 0.734731 28.2338 5
      vertex 0.461216 23.4309 0
      vertex 0.734731 23.2338 0
    endloop
  endfacet
  facet normal -0.707084 0.500017 -0.500015
    outer loop
      vertex 0.935549 20.6575 0
      vertex 0.734731 25.3735 5
      vertex 0.99461 25.741 5
    endloop
  endfacet
  facet normal -0.707107 0.5 -0.5
    outer loop
      vertex 0.734731 25.3735 5
      vertex 0.935549 20.6575 0
      vertex 0.734731 20.3735 0
    endloop
  endfacet
  facet normal 0.156398 0.698405 -0.698405
    outer loop
      vertex 0 20.0359 0
      vertex -0.386271 25.1224 5
      vertex 0 25.0359 5
    endloop
  endfacet
  facet normal 0.156398 0.698405 -0.698405
    outer loop
      vertex -0.386271 25.1224 5
      vertex 0 20.0359 0
      vertex -0.386271 20.1224 0
    endloop
  endfacet
  facet normal 0.891024 0.320995 -0.320995
    outer loop
      vertex -1.02177 25.7937 5
      vertex -1.18882 21.2574 0
      vertex -1.18882 26.2574 5
    endloop
  endfacet
  facet normal 0.891032 0.320984 -0.320985
    outer loop
      vertex -1.18882 21.2574 0
      vertex -1.02177 25.7937 5
      vertex -1.05899 20.897 0
    endloop
  endfacet
  facet normal -0.890736 0.3214 -0.32139
    outer loop
      vertex 1.05899 20.897 0
      vertex 1.01127 25.7646 5
      vertex 1.02177 25.7937 5
    endloop
  endfacet
  facet normal -0.890938 0.321115 -0.321115
    outer loop
      vertex 1.01127 25.7646 5
      vertex 1.05899 20.897 0
      vertex 1.01127 20.7646 0
    endloop
  endfacet
  facet normal -0.891024 0.320995 -0.320995
    outer loop
      vertex 1.18882 21.2574 0
      vertex 1.02177 25.7937 5
      vertex 1.18882 26.2574 5
    endloop
  endfacet
  facet normal -0.891032 0.320984 -0.320985
    outer loop
      vertex 1.02177 25.7937 5
      vertex 1.18882 21.2574 0
      vertex 1.05899 20.897 0
    endloop
  endfacet
  facet normal 0.169329 -0.696788 0.697004
    outer loop
      vertex -0.386271 28.4849 5
      vertex -0.303786 23.5034 0
      vertex -0.385448 28.4851 5
    endloop
  endfacet
  facet normal 0.156635 -0.698379 0.698379
    outer loop
      vertex -0.303786 23.5034 0
      vertex -0.386271 28.4849 5
      vertex -0.386271 23.4849 0
    endloop
  endfacet
  facet normal -0.891467 -0.320371 0.320388
    outer loop
      vertex 1.147 22.466 0
      vertex 1.18882 27.3499 5
      vertex 1.18422 27.3627 5
    endloop
  endfacet
  facet normal -0.891048 -0.320962 0.320962
    outer loop
      vertex 1.18882 27.3499 5
      vertex 1.147 22.466 0
      vertex 1.18882 22.3499 0
    endloop
  endfacet
  facet normal 0.453964 -0.630044 0.630049
    outer loop
      vertex -0.386271 23.4849 0
      vertex -0.387017 28.4844 5
      vertex -0.461216 23.4309 0
    endloop
  endfacet
  facet normal 0.428269 -0.638978 0.638978
    outer loop
      vertex -0.387017 28.4844 5
      vertex -0.386271 23.4849 0
      vertex -0.386271 28.4849 5
    endloop
  endfacet
  facet normal 0.890994 -0.321036 0.321036
    outer loop
      vertex -1.18422 27.3627 5
      vertex -1.01127 22.8427 0
      vertex -1.01127 27.8427 5
    endloop
  endfacet
  facet normal 0.890994 -0.321037 0.321037
    outer loop
      vertex -1.01127 22.8427 0
      vertex -1.18422 27.3627 5
      vertex -1.147 22.466 0
    endloop
  endfacet
  facet normal 0.707084 0.500017 -0.500015
    outer loop
      vertex -0.734731 25.3735 5
      vertex -0.935549 20.6575 0
      vertex -0.99461 25.741 5
    endloop
  endfacet
  facet normal 0.707107 0.5 -0.5
    outer loop
      vertex -0.935549 20.6575 0
      vertex -0.734731 25.3735 5
      vertex -0.734731 20.3735 0
    endloop
  endfacet
  facet normal -0.707694 0.499584 -0.499584
    outer loop
      vertex 1.01127 20.7646 0
      vertex 0.99461 25.741 5
      vertex 1.01127 25.7646 5
    endloop
  endfacet
  facet normal -0.707155 0.499967 -0.499964
    outer loop
      vertex 0.99461 25.741 5
      vertex 1.01127 20.7646 0
      vertex 0.935549 20.6575 0
    endloop
  endfacet
  facet normal -0.707156 -0.499967 0.499964
    outer loop
      vertex 0.795869 23.1474 0
      vertex 1.01127 27.8427 5
      vertex 0.736808 28.2309 5
    endloop
  endfacet
  facet normal -0.707196 -0.499937 0.499937
    outer loop
      vertex 1.01127 27.8427 5
      vertex 0.795869 23.1474 0
      vertex 1.01127 22.8427 0
    endloop
  endfacet
  facet normal -0.890994 -0.321036 0.321036
    outer loop
      vertex 1.01127 22.8427 0
      vertex 1.18422 27.3627 5
      vertex 1.01127 27.8427 5
    endloop
  endfacet
  facet normal -0.890994 -0.321037 0.321037
    outer loop
      vertex 1.18422 27.3627 5
      vertex 1.01127 22.8427 0
      vertex 1.147 22.466 0
    endloop
  endfacet
  facet normal -0.987689 0.110612 -0.110613
    outer loop
      vertex 1.23455 21.6657 0
      vertex 1.18882 26.2574 5
      vertex 1.24766 26.7828 5
    endloop
  endfacet
  facet normal -0.987687 0.110622 -0.110622
    outer loop
      vertex 1.18882 26.2574 5
      vertex 1.23455 21.6657 0
      vertex 1.18882 21.2574 0
    endloop
  endfacet
  facet normal 0.707156 -0.499967 0.499964
    outer loop
      vertex -1.01127 27.8427 5
      vertex -0.795869 23.1474 0
      vertex -0.736808 28.2309 5
    endloop
  endfacet
  facet normal 0.707196 -0.499937 0.499937
    outer loop
      vertex -0.795869 23.1474 0
      vertex -1.01127 27.8427 5
      vertex -1.01127 22.8427 0
    endloop
  endfacet
  facet normal -0.156398 0.698405 -0.698405
    outer loop
      vertex 0.386271 20.1224 0
      vertex 0 25.0359 5
      vertex 0.386271 25.1224 5
    endloop
  endfacet
  facet normal -0.156398 0.698405 -0.698405
    outer loop
      vertex 0 25.0359 5
      vertex 0.386271 20.1224 0
      vertex 0 20.0359 0
    endloop
  endfacet
  facet normal 0.707694 0.499584 -0.499584
    outer loop
      vertex -0.99461 25.741 5
      vertex -1.01127 20.7646 0
      vertex -1.01127 25.7646 5
    endloop
  endfacet
  facet normal 0.707155 0.499967 -0.499964
    outer loop
      vertex -1.01127 20.7646 0
      vertex -0.99461 25.741 5
      vertex -0.935549 20.6575 0
    endloop
  endfacet
  facet normal 0.890736 0.3214 -0.32139
    outer loop
      vertex -1.01127 25.7646 5
      vertex -1.05899 20.897 0
      vertex -1.02177 25.7937 5
    endloop
  endfacet
  facet normal 0.890938 0.321115 -0.321115
    outer loop
      vertex -1.05899 20.897 0
      vertex -1.01127 25.7646 5
      vertex -1.01127 20.7646 0
    endloop
  endfacet
  facet normal 0.987685 -0.110631 0.110631
    outer loop
      vertex -1.25 26.8037 5
      vertex -1.18882 22.3499 0
      vertex -1.18882 27.3499 5
    endloop
  endfacet
  facet normal 0.987685 -0.110631 0.110631
    outer loop
      vertex -1.18882 22.3499 0
      vertex -1.25 26.8037 5
      vertex -1.25 21.8037 0
    endloop
  endfacet
  facet normal -0.428269 -0.638978 0.638978
    outer loop
      vertex 0.386271 23.4849 0
      vertex 0.387017 28.4844 5
      vertex 0.386271 28.4849 5
    endloop
  endfacet
  facet normal -0.453964 -0.630044 0.630049
    outer loop
      vertex 0.387017 28.4844 5
      vertex 0.386271 23.4849 0
      vertex 0.461216 23.4309 0
    endloop
  endfacet
  facet normal -0.169329 -0.696788 0.697004
    outer loop
      vertex 0.303786 23.5034 0
      vertex 0.386271 28.4849 5
      vertex 0.385448 28.4851 5
    endloop
  endfacet
  facet normal -0.156635 -0.698379 0.698379
    outer loop
      vertex 0.386271 28.4849 5
      vertex 0.303786 23.5034 0
      vertex 0.386271 23.4849 0
    endloop
  endfacet
  facet normal -0.987685 -0.110631 0.110631
    outer loop
      vertex 1.18882 22.3499 0
      vertex 1.25 26.8037 5
      vertex 1.18882 27.3499 5
    endloop
  endfacet
  facet normal -0.987685 -0.110631 0.110631
    outer loop
      vertex 1.25 26.8037 5
      vertex 1.18882 22.3499 0
      vertex 1.25 21.8037 0
    endloop
  endfacet
  facet normal -0.156334 -0.698412 0.698412
    outer loop
      vertex 0.303786 23.5034 0
      vertex 0 28.5714 5
      vertex 0 23.5714 0
    endloop
  endfacet
  facet normal -0.156371 -0.698409 0.698407
    outer loop
      vertex 0 28.5714 5
      vertex 0.303786 23.5034 0
      vertex 0.385448 28.4851 5
    endloop
  endfacet
  facet normal 0.156371 -0.698409 0.698407
    outer loop
      vertex -0.303786 23.5034 0
      vertex 0 28.5714 5
      vertex -0.385448 28.4851 5
    endloop
  endfacet
  facet normal 0.156334 -0.698412 0.698412
    outer loop
      vertex 0 28.5714 5
      vertex -0.303786 23.5034 0
      vertex 0 23.5714 0
    endloop
  endfacet
endsolid OpenSCAD_Model
