solid OpenSCAD_Model
  facet normal 0 0 -1
    outer loop
      vertex 55 -71 -2
      vertex -55 -71 -2
      vertex 51.99009900990099 -67.99009900990099 -2
    endloop
  endfacet
  facet normal -0.5773502691896258 -0.5773502691896258 -0.5773502691896258
    outer loop
      vertex -55 -71 -2
      vertex -55 -73 0
      vertex -57 -71 0
    endloop
  endfacet
  facet normal 0 0 1
    outer loop
      vertex 20 71.01 8
      vertex 55 71 8
      vertex 55 73 8
    endloop
  endfacet
  facet normal -0.7071067811865475 -0.7071067811865475 0
    outer loop
      vertex -55 -73 0
      vertex -55 -73 8
      vertex -57 -71 0
    endloop
  endfacet
  facet normal 0 -0.7071067811865475 -0.7071067811865475
    outer loop
      vertex 55 -73 0
      vertex -55 -73 0
      vertex 55 -71 -2
    endloop
  endfacet
  facet normal -0.7071067811865476 0 -0.7071067811865476
    outer loop
      vertex -55 -71 -2
      vertex -57 -71 0
      vertex -57 71 0
    endloop
  endfacet
  facet normal 0.5773502691896258 -0.5773502691896258 -0.5773502691896258
    outer loop
      vertex 55 -73 0
      vertex 55 -71 -2
      vertex 57 -71 0
    endloop
  endfacet
  facet normal 0 -0.7071067811865475 -0.7071067811865475
    outer loop
      vertex -55 -73 0
      vertex -55 -71 -2
      vertex 55 -71 -2
    endloop
  endfacet
  facet normal -0.7071067811865475 -0.7071067811865475 0
    outer loop
      vertex -57 -71 0
      vertex -55 -73 8
      vertex -57 -71 8
    endloop
  endfacet
  facet normal 0 0 1
    outer loop
      vertex -57 -71 8
      vertex -55 -73 8
      vertex -55 -71 8
    endloop
  endfacet
  facet normal -1 0 0
    outer loop
      vertex -57 -71 8
      vertex -57 71 8
      vertex -57 -71 0
    endloop
  endfacet
  facet normal 0 0 1
    outer loop
      vertex -55 -71 8
      vertex -55 71 8
      vertex -57 -71 8
    endloop
  endfacet
  facet normal 0 0 1
    outer loop
      vertex -55 -71 8
      vertex -55 -73 8
      vertex 55 -73 8
    endloop
  endfacet
  facet normal 0 0 -1
    outer loop
      vertex -51.99009900990099 -67.99009900990099 -2
      vertex -55 71 -2
      vertex -51.99009900990099 67.99009900990099 -2
    endloop
  endfacet
  facet normal -0.7071067811865476 0 -0.7071067811865476
    outer loop
      vertex -55 71 -2
      vertex -55 -71 -2
      vertex -57 71 0
    endloop
  endfacet
  facet normal -1 0 0
    outer loop
      vertex -57 71 0
      vertex -57 -71 0
      vertex -57 71 8
    endloop
  endfacet
  facet normal -0.5773502691896258 0.5773502691896258 -0.5773502691896258
    outer loop
      vertex -57 71 0
      vertex -55 73 0
      vertex -55 71 -2
    endloop
  endfacet
  facet normal -0.7071067811865475 0.7071067811865475 0
    outer loop
      vertex -55 73 0
      vertex -57 71 0
      vertex -57 71 8
    endloop
  endfacet
  facet normal 0 0 -1
    outer loop
      vertex -51.99009900990099 67.99009900990099 -2
      vertex -55 71 -2
      vertex 51.99009900990099 67.99009900990099 -2
    endloop
  endfacet
  facet normal 0 0.7071067811865475 -0.7071067811865475
    outer loop
      vertex -55 71 -2
      vertex -55 73 0
      vertex 55 71 -2
    endloop
  endfacet
  facet normal 0 0 1
    outer loop
      vertex -57 71 8
      vertex -57 -71 8
      vertex -55 71 8
    endloop
  endfacet
  facet normal -0.7071067811865475 0.7071067811865475 0
    outer loop
      vertex -55 73 0
      vertex -57 71 8
      vertex -55 73 8
    endloop
  endfacet
  facet normal 0 0 1
    outer loop
      vertex -55 71 8
      vertex -20 71 8
      vertex -20 71.01 8
    endloop
  endfacet
  facet normal 0 1 0
    outer loop
      vertex -55 73 8
      vertex 55 73 8
      vertex -55 73 0
    endloop
  endfacet
  facet normal 0 0 1
    outer loop
      vertex -57 71 8
      vertex -55 71 8
      vertex 55 73 8
    endloop
  endfacet
  facet normal 0 0 1
    outer loop
      vertex -55 73 8
      vertex -57 71 8
      vertex 55 73 8
    endloop
  endfacet
  facet normal 0 0 1
    outer loop
      vertex 20 71.01 8
      vertex 20 71 8
      vertex 55 71 8
    endloop
  endfacet
  facet normal 0 0 1
    outer loop
      vertex 55 73 8
      vertex -55 71 8
      vertex -20 71.01 8
    endloop
  endfacet
  facet normal 0 0 -1
    outer loop
      vertex -55 -71 -2
      vertex -55 71 -2
      vertex -51.99009900990099 -67.99009900990099 -2
    endloop
  endfacet
  facet normal 0 0 -1
    outer loop
      vertex -51.99009900990099 -67.99009900990099 -2
      vertex 51.99009900990099 -67.99009900990099 -2
      vertex -55 -71 -2
    endloop
  endfacet
  facet normal 0.7071067811865475 0.7071067811865475 0
    outer loop
      vertex 57 71 8
      vertex 57 71 0
      vertex 55 73 8
    endloop
  endfacet
  facet normal 0 0 1
    outer loop
      vertex 55 73 8
      vertex 57 -71 8
      vertex 57 71 8
    endloop
  endfacet
  facet normal 0 0 1
    outer loop
      vertex 55 71 8
      vertex 57 -71 8
      vertex 55 73 8
    endloop
  endfacet
  facet normal 0 0 1
    outer loop
      vertex 55 73 8
      vertex -20 71.01 8
      vertex 20 71.01 8
    endloop
  endfacet
  facet normal 0.7071067811865475 0.7071067811865475 0
    outer loop
      vertex 57 71 0
      vertex 55 73 0
      vertex 55 73 8
    endloop
  endfacet
  facet normal 0.5773502691896258 0.5773502691896258 -0.5773502691896258
    outer loop
      vertex 57 71 0
      vertex 55 71 -2
      vertex 55 73 0
    endloop
  endfacet
  facet normal 1 0 0
    outer loop
      vertex 57 71 8
      vertex 57 -71 0
      vertex 57 71 0
    endloop
  endfacet
  facet normal 0.7071067811865476 0 -0.7071067811865476
    outer loop
      vertex 57 -71 0
      vertex 55 71 -2
      vertex 57 71 0
    endloop
  endfacet
  facet normal 0 0 -1
    outer loop
      vertex 55 71 -2
      vertex 55 -71 -2
      vertex 51.99009900990099 67.99009900990099 -2
    endloop
  endfacet
  facet normal 0 1 0
    outer loop
      vertex 55 73 0
      vertex -55 73 0
      vertex 55 73 8
    endloop
  endfacet
  facet normal 0 0.7071067811865475 -0.7071067811865475
    outer loop
      vertex 55 71 -2
      vertex -55 73 0
      vertex 55 73 0
    endloop
  endfacet
  facet normal 0 0 -1
    outer loop
      vertex 51.99009900990099 67.99009900990099 -2
      vertex -55 71 -2
      vertex 55 71 -2
    endloop
  endfacet
  facet normal 0 0 1
    outer loop
      vertex 57 -71 8
      vertex 55 71 8
      vertex 55 -71 8
    endloop
  endfacet
  facet normal 1 0 0
    outer loop
      vertex 57 -71 8
      vertex 57 -71 0
      vertex 57 71 8
    endloop
  endfacet
  facet normal 0 0 1
    outer loop
      vertex 55 -71 8
      vertex 55 -73 8
      vertex 57 -71 8
    endloop
  endfacet
  facet normal 0.7071067811865475 -0.7071067811865475 0
    outer loop
      vertex 55 -73 8
      vertex 57 -71 0
      vertex 57 -71 8
    endloop
  endfacet
  facet normal 0 0 1
    outer loop
      vertex 55 -71 8
      vertex -55 -71 8
      vertex 55 -73 8
    endloop
  endfacet
  facet normal 0 -1 0
    outer loop
      vertex 55 -73 8
      vertex -55 -73 8
      vertex 55 -73 0
    endloop
  endfacet
  facet normal 0.7071067811865476 0 -0.7071067811865476
    outer loop
      vertex 57 -71 0
      vertex 55 -71 -2
      vertex 55 71 -2
    endloop
  endfacet
  facet normal 0 0 -1
    outer loop
      vertex 55 -71 -2
      vertex 51.99009900990099 -67.99009900990099 -2
      vertex 51.99009900990099 67.99009900990099 -2
    endloop
  endfacet
  facet normal 0.7071067811865475 -0.7071067811865475 0
    outer loop
      vertex 55 -73 0
      vertex 57 -71 0
      vertex 55 -73 8
    endloop
  endfacet
  facet normal 0 -1 0
    outer loop
      vertex -55 -73 8
      vertex -55 -73 0
      vertex 55 -73 0
    endloop
  endfacet
  facet normal 1 0 0
    outer loop
      vertex -55 -56.010000002086166 2
      vertex -55 -71 2
      vertex -55 -71 0
    endloop
  endfacet
  facet normal 0 -1 0
    outer loop
      vertex -55 71 0
      vertex 40.010000002086166 71 2
      vertex 20 71 5.000000002086168
    endloop
  endfacet
  facet normal 0 -1 0
    outer loop
      vertex -20 71 5.000000002086168
      vertex -40.010000002086166 71 2
      vertex 20 71 5.000000002086168
    endloop
  endfacet
  facet normal 0 -1 0
    outer loop
      vertex 40.010000002086166 71 3
      vertex 55 71 8
      vertex 20 71 8
    endloop
  endfacet
  facet normal 0 1 0
    outer loop
      vertex -55 -71 0
      vertex -55 -71 2
      vertex -40.010000002086166 -71 2
    endloop
  endfacet
  facet normal -1 0 0
    outer loop
      vertex 55 71 8
      vertex 55 71 3
      vertex 55 56.010000002086166 3
    endloop
  endfacet
  facet normal 0 -1 0
    outer loop
      vertex 40.010000002086166 71 3
      vertex 55 71 3
      vertex 55 71 8
    endloop
  endfacet
  facet normal 0 -1 0
    outer loop
      vertex 40.010000002086166 71 2
      vertex 40.010000002086166 71 3
      vertex 20 71 5.000000002086168
    endloop
  endfacet
  facet normal 0 0 1
    outer loop
      vertex -55 -71 0
      vertex -50.00990099009901 -66.00990099009901 0
      vertex -50.00990099009901 66.00990099009901 0
    endloop
  endfacet
  facet normal 0 0 1
    outer loop
      vertex -50.00990099009901 -66.00990099009901 0
      vertex -55 -71 0
      vertex 55 -71 0
    endloop
  endfacet
  facet normal -1 0 0
    outer loop
      vertex 55 -71 8
      vertex 55 71 8
      vertex 55 56.010000002086166 3
    endloop
  endfacet
  facet normal -1 0 0
    outer loop
      vertex 55 56.010000002086166 2
      vertex 55 71 0
      vertex 55 -71 8
    endloop
  endfacet
  facet normal -1 0 0
    outer loop
      vertex 55 56.010000002086166 3
      vertex 55 56.010000002086166 2
      vertex 55 -71 8
    endloop
  endfacet
  facet normal 0 1 0
    outer loop
      vertex 55 -71 0
      vertex -55 -71 0
      vertex -40.010000002086166 -71 2
    endloop
  endfacet
  facet normal 0 -1 0
    outer loop
      vertex 40.010000002086166 71 3
      vertex 20 71 8
      vertex 20 71 5.000000002086168
    endloop
  endfacet
  facet normal 0 1 0
    outer loop
      vertex -40.010000002086166 -71 2
      vertex -40.010000002086166 -71 3
      vertex 55 -71 0
    endloop
  endfacet
  facet normal -1 0 0
    outer loop
      vertex 55 56.010000002086166 2
      vertex 55 71 2
      vertex 55 71 0
    endloop
  endfacet
  facet normal 0 -1 0
    outer loop
      vertex 55 71 0
      vertex 55 71 2
      vertex 40.010000002086166 71 2
    endloop
  endfacet
  facet normal 0 -1 0
    outer loop
      vertex -20 71 8
      vertex -55 71 8
      vertex -40.010000002086166 71 3
    endloop
  endfacet
  facet normal 0 -1 0
    outer loop
      vertex -20 71 5.000000002086168
      vertex -40.010000002086166 71 3
      vertex -40.010000002086166 71 2
    endloop
  endfacet
  facet normal 0 0 1
    outer loop
      vertex 50.00990099009901 -66.00990099009901 0
      vertex -50.00990099009901 -66.00990099009901 0
      vertex 55 -71 0
    endloop
  endfacet
  facet normal 0 1 0
    outer loop
      vertex 40.010000002086166 -71 2
      vertex 55 -71 2
      vertex 55 -71 0
    endloop
  endfacet
  facet normal -1 0 0
    outer loop
      vertex 55 -71 0
      vertex 55 -71 2
      vertex 55 -56.010000002086166 2
    endloop
  endfacet
  facet normal 1 0 0
    outer loop
      vertex -55 -71 8
      vertex -55 -71 3
      vertex -55 -56.010000002086166 3
    endloop
  endfacet
  facet normal 0 1 0
    outer loop
      vertex -40.010000002086166 -71 3
      vertex -55 -71 3
      vertex -55 -71 8
    endloop
  endfacet
  facet normal 0 -1 0
    outer loop
      vertex -55 71 8
      vertex -55 71 3
      vertex -40.010000002086166 71 3
    endloop
  endfacet
  facet normal 0 0 1
    outer loop
      vertex 55 71 0
      vertex 50.00990099009901 66.00990099009901 0
      vertex 50.00990099009901 -66.00990099009901 0
    endloop
  endfacet
  facet normal 1 0 0
    outer loop
      vertex -55 56.010000002086166 3
      vertex -55 71 3
      vertex -55 71 8
    endloop
  endfacet
  facet normal 1 0 0
    outer loop
      vertex -55 -56.010000002086166 2
      vertex -55 -71 0
      vertex -55 71 8
    endloop
  endfacet
  facet normal 1 0 0
    outer loop
      vertex -55 56.010000002086166 3
      vertex -55 71 8
      vertex -55 -71 0
    endloop
  endfacet
  facet normal 0 0 1
    outer loop
      vertex 50.00990099009901 -66.00990099009901 0
      vertex 55 -71 0
      vertex 55 71 0
    endloop
  endfacet
  facet normal -1 0 0
    outer loop
      vertex 55 71 0
      vertex 55 -71 0
      vertex 55 -56.010000002086166 2
    endloop
  endfacet
  facet normal -1 0 0
    outer loop
      vertex 55 -56.010000002086166 2
      vertex 55 -56.010000002086166 3
      vertex 55 71 0
    endloop
  endfacet
  facet normal 0 1 0
    outer loop
      vertex 40.010000002086166 -71 2
      vertex 55 -71 0
      vertex -55 -71 8
    endloop
  endfacet
  facet normal 0 1 0
    outer loop
      vertex 40.010000002086166 -71 3
      vertex 40.010000002086166 -71 2
      vertex -55 -71 8
    endloop
  endfacet
  facet normal 0 -1 0
    outer loop
      vertex -40.010000002086166 71 2
      vertex -55 71 0
      vertex 20 71 5.000000002086168
    endloop
  endfacet
  facet normal 0 1 0
    outer loop
      vertex -55 -71 8
      vertex 55 -71 8
      vertex 40.010000002086166 -71 3
    endloop
  endfacet
  facet normal 0 0 1
    outer loop
      vertex -55 71 0
      vertex -50.00990099009901 66.00990099009901 0
      vertex 55 71 0
    endloop
  endfacet
  facet normal 1 0 0
    outer loop
      vertex -55 -56.010000002086166 3
      vertex -55 -56.010000002086166 2
      vertex -55 71 8
    endloop
  endfacet
  facet normal 0 1 0
    outer loop
      vertex 55 -71 8
      vertex 55 -71 3
      vertex 40.010000002086166 -71 3
    endloop
  endfacet
  facet normal -1 0 0
    outer loop
      vertex 55 -56.010000002086166 3
      vertex 55 -71 3
      vertex 55 -71 8
    endloop
  endfacet
  facet normal 0 -1 0
    outer loop
      vertex -40.010000002086166 71 2
      vertex -55 71 2
      vertex -55 71 0
    endloop
  endfacet
  facet normal 1 0 0
    outer loop
      vertex -55 71 0
      vertex -55 71 2
      vertex -55 56.010000002086166 2
    endloop
  endfacet
  facet normal -1 0 0
    outer loop
      vertex 55 -56.010000002086166 3
      vertex 55 -71 8
      vertex 55 71 0
    endloop
  endfacet
  facet normal 1 0 0
    outer loop
      vertex -55 -71 0
      vertex -55 71 0
      vertex -55 56.010000002086166 2
    endloop
  endfacet
  facet normal 1 0 0
    outer loop
      vertex -55 56.010000002086166 2
      vertex -55 56.010000002086166 3
      vertex -55 -71 0
    endloop
  endfacet
  facet normal 0 0 1
    outer loop
      vertex -55 -71 0
      vertex -50.00990099009901 66.00990099009901 0
      vertex -55 71 0
    endloop
  endfacet
  facet normal 1 0 0
    outer loop
      vertex -55 71 8
      vertex -55 -71 8
      vertex -55 -56.010000002086166 3
    endloop
  endfacet
  facet normal 0 1 0
    outer loop
      vertex -40.010000002086166 -71 3
      vertex -55 -71 8
      vertex 55 -71 0
    endloop
  endfacet
  facet normal 0 0 1
    outer loop
      vertex 55 71 0
      vertex -50.00990099009901 66.00990099009901 0
      vertex 50.00990099009901 66.00990099009901 0
    endloop
  endfacet
  facet normal 0 -1 0
    outer loop
      vertex -55 71 0
      vertex 55 71 0
      vertex 40.010000002086166 71 2
    endloop
  endfacet
  facet normal 0 -1 0
    outer loop
      vertex -20 71 5.000000002086168
      vertex -20 71 8
      vertex -40.010000002086166 71 3
    endloop
  endfacet
  facet normal 0.7106159308920423 0 -0.7035801295960796
    outer loop
      vertex -51.99009900990099 -67.99009900990099 -2
      vertex -50.00990099009901 66.00990099009901 0
      vertex -50.00990099009901 -66.00990099009901 0
    endloop
  endfacet
  facet normal -0.7106159308920423 0 -0.7035801295960796
    outer loop
      vertex 51.99009900990099 67.99009900990099 -2
      vertex 51.99009900990099 -67.99009900990099 -2
      vertex 50.00990099009901 -66.00990099009901 0
    endloop
  endfacet
  facet normal 0 -0.7106159308920423 -0.7035801295960797
    outer loop
      vertex 50.00990099009901 66.00990099009901 0
      vertex -51.99009900990099 67.99009900990099 -2
      vertex 51.99009900990099 67.99009900990099 -2
    endloop
  endfacet
  facet normal 0 0.7106159308920422 -0.7035801295960795
    outer loop
      vertex 51.99009900990099 -67.99009900990099 -2
      vertex -50.00990099009901 -66.00990099009901 0
      vertex 50.00990099009901 -66.00990099009901 0
    endloop
  endfacet
  facet normal -0.7106159308920423 0 -0.7035801295960796
    outer loop
      vertex 51.99009900990099 67.99009900990099 -2
      vertex 50.00990099009901 -66.00990099009901 0
      vertex 50.00990099009901 66.00990099009901 0
    endloop
  endfacet
  facet normal 0 0.7106159308920423 -0.7035801295960797
    outer loop
      vertex 51.99009900990099 -67.99009900990099 -2
      vertex -51.99009900990099 -67.99009900990099 -2
      vertex -50.00990099009901 -66.00990099009901 0
    endloop
  endfacet
  facet normal 0.7106159308920423 0 -0.7035801295960796
    outer loop
      vertex -50.00990099009901 66.00990099009901 0
      vertex -51.99009900990099 -67.99009900990099 -2
      vertex -51.99009900990099 67.99009900990099 -2
    endloop
  endfacet
  facet normal 0 -0.7106159308920422 -0.7035801295960795
    outer loop
      vertex -50.00990099009901 66.00990099009901 0
      vertex -51.99009900990099 67.99009900990099 -2
      vertex 50.00990099009901 66.00990099009901 0
    endloop
  endfacet
  facet normal 0 0 -1
    outer loop
      vertex -55 -56.010000002086166 2
      vertex -40.010000002086166 -71 2
      vertex -55 -71 2
    endloop
  endfacet
  facet normal 0 0 1
    outer loop
      vertex -40.010000002086166 -71 3
      vertex -55 -56.010000002086166 3
      vertex -55 -71 3
    endloop
  endfacet
  facet normal 0.7071067811865476 0.7071067811865476 -5.254939209830882e-16
    outer loop
      vertex -55 -56.010000002086166 3
      vertex -40.010000002086166 -71 3
      vertex -40.010000002086166 -71 2
    endloop
  endfacet
  facet normal 0.7071067811865476 0.7071067811865476 -5.254939209830882e-16
    outer loop
      vertex -40.010000002086166 -71 2
      vertex -55 -56.010000002086166 2
      vertex -55 -56.010000002086166 3
    endloop
  endfacet
  facet normal 0 0 1
    outer loop
      vertex -55 56.010000002086166 3
      vertex -40.010000002086166 71 3
      vertex -55 71 3
    endloop
  endfacet
  facet normal 0.7071067811865476 -0.7071067811865476 5.254939209830882e-16
    outer loop
      vertex -55 56.010000002086166 2
      vertex -40.010000002086166 71 2
      vertex -40.010000002086166 71 3
    endloop
  endfacet
  facet normal 0 0 -1
    outer loop
      vertex -40.010000002086166 71 2
      vertex -55 56.010000002086166 2
      vertex -55 71 2
    endloop
  endfacet
  facet normal 0.7071067811865476 -0.7071067811865476 5.254939209830882e-16
    outer loop
      vertex -40.010000002086166 71 3
      vertex -55 56.010000002086166 3
      vertex -55 56.010000002086166 2
    endloop
  endfacet
  facet normal -0.7071067811865476 -0.7071067811865476 -5.254939209830882e-16
    outer loop
      vertex 55 56.010000002086166 3
      vertex 40.010000002086166 71 3
      vertex 40.010000002086166 71 2
    endloop
  endfacet
  facet normal -0.7071067811865476 -0.7071067811865476 -5.254939209830882e-16
    outer loop
      vertex 40.010000002086166 71 2
      vertex 55 56.010000002086166 2
      vertex 55 56.010000002086166 3
    endloop
  endfacet
  facet normal 0 0 -1
    outer loop
      vertex 55 56.010000002086166 2
      vertex 40.010000002086166 71 2
      vertex 55 71 2
    endloop
  endfacet
  facet normal 0 0 1
    outer loop
      vertex 40.010000002086166 71 3
      vertex 55 56.010000002086166 3
      vertex 55 71 3
    endloop
  endfacet
  facet normal 0 0 1
    outer loop
      vertex 55 -56.010000002086166 3
      vertex 40.010000002086166 -71 3
      vertex 55 -71 3
    endloop
  endfacet
  facet normal -0.7071067811865476 0.7071067811865476 5.254939209830882e-16
    outer loop
      vertex 40.010000002086166 -71 3
      vertex 55 -56.010000002086166 3
      vertex 55 -56.010000002086166 2
    endloop
  endfacet
  facet normal 0 0 -1
    outer loop
      vertex 40.010000002086166 -71 2
      vertex 55 -56.010000002086166 2
      vertex 55 -71 2
    endloop
  endfacet
  facet normal -0.7071067811865476 0.7071067811865476 5.254939209830882e-16
    outer loop
      vertex 55 -56.010000002086166 2
      vertex 40.010000002086166 -71 2
      vertex 40.010000002086166 -71 3
    endloop
  endfacet
  facet normal -2.564496928779804e-20 -0.7071067811865476 -0.7071067811865476
    outer loop
      vertex -20 68.00000000208617 8
      vertex -20 71 5.000000002086168
      vertex 20 71 5.000000002086168
    endloop
  endfacet
  facet normal 1 0 0
    outer loop
      vertex 20 68.00000000208617 8
      vertex 20 71 5.000000002086168
      vertex 20 71 8
    endloop
  endfacet
  facet normal 0 0 1
    outer loop
      vertex 20 71 8
      vertex -20 68.00000000208617 8
      vertex 20 68.00000000208617 8
    endloop
  endfacet
  facet normal -2.564496928779804e-20 -0.7071067811865476 -0.7071067811865476
    outer loop
      vertex 20 71 5.000000002086168
      vertex 20 68.00000000208617 8
      vertex -20 68.00000000208617 8
    endloop
  endfacet
  facet normal -1 0 0
    outer loop
      vertex -20 71 5.000000002086168
      vertex -20 68.00000000208617 8
      vertex -20 71 8
    endloop
  endfacet
  facet normal 0 0 1
    outer loop
      vertex -20 71 8
      vertex -20 68.00000000208617 8
      vertex 20 71.01 8
    endloop
  endfacet
  facet normal 0 0 1
    outer loop
      vertex 20 71.01 8
      vertex -20 71.01 8
      vertex -20 71 8
    endloop
  endfacet
  facet normal 0 0 1
    outer loop
      vertex 20 71.01 8
      vertex -20 68.00000000208617 8
      vertex 20 71 8
    endloop
  endfacet
endsolid OpenSCAD_Model
