solid OpenSCAD_Model
  facet normal 0.45399049973950706 0.6300367553350648 0.6300367553350648
    outer loop
      vertex -0.7347315653655914 0 -5.430153507044222
      vertex -0.3862712429686842 -2.8406231399549386 -2.8406231399549386
      vertex -0.3862712429686842 -2 -3.6812462799098773
    endloop
  endfacet
  facet normal -0.891006524188361 0.32101976096011237 0.32101976096011264
    outer loop
      vertex 1.011271242968684 -2 -3.0390673444436214
      vertex 1.011271242968684 -2.5195336722218107 -2.519533672221811
      vertex 1.1888206453689416 -2 -2.546270030561033
    endloop
  endfacet
  facet normal 0.453990499739507 0.6300367553350648 0.6300367553350648
    outer loop
      vertex -0.7347315653655914 0 -5.430153507044222
      vertex -0.3862712429686842 -2 -3.6812462799098773
      vertex -0.3862712429686842 0 -5.681246279909877
    endloop
  endfacet
  facet normal -0.7071067811865692 0.4999999999999847 0.4999999999999846
    outer loop
      vertex 1.011271242968684 -2 -3.0390673444436214
      vertex 0.7347315653655914 -2 -3.4301535070442224
      vertex 0.7347315653655914 -2.715076753522111 -2.715076753522111
    endloop
  endfacet
  facet normal -0.8910065241883611 0.3210197609601124 0.3210197609601124
    outer loop
      vertex 1.011271242968684 -2.5195336722218107 -2.519533672221811
      vertex 1.1888206453689416 -2.2731350152805163 -2.2731350152805168
      vertex 1.1888206453689416 -2 -2.546270030561033
    endloop
  endfacet
  facet normal -0.45399049973952305 -0.6300367553350589 -0.6300367553350592
    outer loop
      vertex 0.3862712429686842 0 -2.318753720090113
      vertex 0.7347315653655914 0 -2.569846492955779
      vertex 0.7347315653655914 -0.5698464929557783 -2.000000000000001
    endloop
  endfacet
  facet normal -0.45399049973952393 -0.630036755335059 -0.6300367553350585
    outer loop
      vertex 0.7347315653655914 -0.5698464929557783 -2.000000000000001
      vertex 0.49370957730189724 -0.39617139879233004 -2.0000000000000004
      vertex 0.3862712429686842 0 -2.318753720090113
    endloop
  endfacet
  facet normal -0.15643446504027256 -0.6984011233337056 -0.6984011233337055
    outer loop
      vertex 0.3862712429686842 0 -2.318753720090113
      vertex 0.3862712429686842 -1.1593768600450565 -1.1593768600450562
      vertex 0 0 -2.232233047033614
    endloop
  endfacet
  facet normal -0.707106781186564 -0.4999999999999881 -0.4999999999999883
    outer loop
      vertex 1.011271242968684 0 -2.960932655556374
      vertex 1.011271242968684 -0.9609326555563732 -2.0000000000000013
      vertex 0.7347315653655914 0 -2.569846492955779
    endloop
  endfacet
  facet normal -0.7071067811865689 0.4999999999999846 0.4999999999999851
    outer loop
      vertex 1.011271242968684 -2.5195336722218107 -2.519533672221811
      vertex 1.011271242968684 -2 -3.0390673444436214
      vertex 0.7347315653655914 -2.715076753522111 -2.715076753522111
    endloop
  endfacet
  facet normal -0.4539904997395071 0.6300367553350649 0.6300367553350649
    outer loop
      vertex 0.7347315653655914 -2 -3.4301535070442224
      vertex 0.3862712429686842 -2.8406231399549386 -2.8406231399549386
      vertex 0.7347315653655914 -2.715076753522111 -2.715076753522111
    endloop
  endfacet
  facet normal -0.15643446504028985 0.6984011233337036 0.6984011233337036
    outer loop
      vertex 0.3862712429686842 -2.8406231399549386 -2.8406231399549386
      vertex 0.3862712429686842 0 -5.681246279909877
      vertex 0 -2.883883476483193 -2.8838834764831933
    endloop
  endfacet
  facet normal -0.1564344650402873 0.6984011233337037 0.6984011233337042
    outer loop
      vertex 0 -2 -3.7677669529663858
      vertex 0 -2.883883476483193 -2.8838834764831933
      vertex 0.3862712429686842 0 -5.681246279909877
    endloop
  endfacet
  facet normal -0.453990499739507 0.6300367553350648 0.6300367553350648
    outer loop
      vertex 0.7347315653655914 -2 -3.4301535070442224
      vertex 0.7347315653655914 0 -5.430153507044222
      vertex 0.3862712429686842 -2.8406231399549386 -2.8406231399549386
    endloop
  endfacet
  facet normal -0.9876883405951381 -0.11061587104123544 -0.11061587104123544
    outer loop
      vertex 1.1888206453689416 -1.7268649847194837 -1.7268649847194835
      vertex 1.1888206453689416 -1.4537299694389654 -2.0000000000000018
      vertex 1.2499999999999998 -1.9999999999999976 -2.0000000000000058
    endloop
  endfacet
  facet normal -0.8910065241883627 -0.32101976096011037 -0.32101976096011037
    outer loop
      vertex 1.011271242968684 -1.4804663277781873 -1.480466327778187
      vertex 1.1888206453689416 -1.4537299694389654 -2.0000000000000018
      vertex 1.1888206453689416 -1.7268649847194837 -1.7268649847194835
    endloop
  endfacet
  facet normal 0.453990499739523 -0.6300367553350591 -0.6300367553350591
    outer loop
      vertex -0.3862712429686842 0 -2.318753720090113
      vertex -0.7347315653655914 -0.5698464929557785 -2.0000000000000004
      vertex -0.7347315653655914 0 -2.569846492955779
    endloop
  endfacet
  facet normal 0.15643446504027256 -0.6984011233337056 -0.6984011233337055
    outer loop
      vertex 0 0 -2.232233047033614
      vertex -0.3862712429686842 -1.1593768600450565 -1.1593768600450562
      vertex -0.3862712429686842 0 -2.318753720090113
    endloop
  endfacet
  facet normal 0.45399049973952293 -0.6300367553350591 -0.6300367553350591
    outer loop
      vertex -0.7347315653655914 -0.5698464929557785 -2.0000000000000004
      vertex -0.3862712429686842 0 -2.318753720090113
      vertex -0.7347315653655914 -1.2849232464778897 -1.2849232464778892
    endloop
  endfacet
  facet normal -0.4539904997395227 -0.6300367553350593 -0.6300367553350591
    outer loop
      vertex 0.49370957730189724 -0.39617139879233004 -2.0000000000000004
      vertex 0.3862712429686842 -1.1593768600450565 -1.1593768600450562
      vertex 0.3862712429686842 0 -2.318753720090113
    endloop
  endfacet
  facet normal -0.4539904997395238 -0.630036755335059 -0.6300367553350587
    outer loop
      vertex 0.49370957730189724 -0.39617139879233004 -2.0000000000000004
      vertex 0.7347315653655914 -0.5698464929557783 -2.000000000000001
      vertex 0.7347315653655914 -1.2849232464778897 -1.2849232464778892
    endloop
  endfacet
  facet normal -0.1564344650402722 -0.6984011233337056 -0.6984011233337056
    outer loop
      vertex 0 -1.1161165235168071 -1.1161165235168067
      vertex 0 0 -2.232233047033614
      vertex 0.3862712429686842 -1.1593768600450565 -1.1593768600450562
    endloop
  endfacet
  facet normal -0.4539904997395234 -0.6300367553350589 -0.6300367553350589
    outer loop
      vertex 0.49370957730189724 -0.39617139879233004 -2.0000000000000004
      vertex 0.7347315653655914 -1.2849232464778897 -1.2849232464778892
      vertex 0.3862712429686842 -1.1593768600450565 -1.1593768600450562
    endloop
  endfacet
  facet normal -0.7071067811865642 -0.49999999999998834 -0.49999999999998823
    outer loop
      vertex 0.7347315653655914 -1.2849232464778897 -1.2849232464778892
      vertex 0.7347315653655914 -0.5698464929557783 -2.000000000000001
      vertex 1.011271242968684 -0.9609326555563732 -2.0000000000000013
    endloop
  endfacet
  facet normal 0.45399049973950684 0.6300367553350648 0.6300367553350648
    outer loop
      vertex -0.3862712429686842 -2.8406231399549386 -2.8406231399549386
      vertex -0.7347315653655914 0 -5.430153507044222
      vertex -0.7347315653655914 -2 -3.4301535070442224
    endloop
  endfacet
  facet normal 0.9876883405951381 -0.11061587104123533 -0.11061587104123533
    outer loop
      vertex -1.1888206453689416 -1.7268649847194837 -1.7268649847194835
      vertex -1.2499999999999993 -2 -2
      vertex -1.1888206453689416 -1.4537299694389672 -2
    endloop
  endfacet
  facet normal 0.9876883405951382 0.11061587104123546 0.11061587104123512
    outer loop
      vertex -1.1888206453689416 -2.2731350152805163 -2.2731350152805168
      vertex -1.188820645368942 -2 -2.54627003056103
      vertex -1.2499999999999993 -2 -2
    endloop
  endfacet
  facet normal 0.7071067811865724 0.49999999999998246 0.49999999999998246
    outer loop
      vertex -0.7347315653655914 -2.715076753522111 -2.715076753522111
      vertex -0.7347315653655914 -2 -3.4301535070442224
      vertex -1.0112712429686868 -2 -3.0390673444436143
    endloop
  endfacet
  facet normal 0.8910065241883618 0.3210197609601114 0.32101976096011153
    outer loop
      vertex -1.011271242968684 -2.5195336722218107 -2.519533672221811
      vertex -1.0112712429686868 -2 -3.0390673444436143
      vertex -1.188820645368942 -2 -2.54627003056103
    endloop
  endfacet
  facet normal 0.8910065241883628 -0.32101976096011026 -0.32101976096011026
    outer loop
      vertex -1.011271242968684 -0.9609326555563737 -2.0000000000000004
      vertex -1.1888206453689416 -1.7268649847194837 -1.7268649847194835
      vertex -1.1888206453689416 -1.4537299694389672 -2
    endloop
  endfacet
  facet normal 0.7071067811865689 0.499999999999983 0.4999999999999867
    outer loop
      vertex -0.7347315653655914 -2.715076753522111 -2.715076753522111
      vertex -1.0112712429686868 -2 -3.0390673444436143
      vertex -1.011271242968684 -2.5195336722218107 -2.519533672221811
    endloop
  endfacet
  facet normal 0.8910065241883611 0.3210197609601113 0.3210197609601135
    outer loop
      vertex -1.011271242968684 -2.5195336722218107 -2.519533672221811
      vertex -1.188820645368942 -2 -2.54627003056103
      vertex -1.1888206453689416 -2.2731350152805163 -2.2731350152805168
    endloop
  endfacet
  facet normal 0.8910065241883626 -0.32101976096011026 -0.3210197609601104
    outer loop
      vertex -1.1888206453689416 -1.7268649847194837 -1.7268649847194835
      vertex -1.011271242968684 -0.9609326555563737 -2.0000000000000004
      vertex -1.011271242968684 -1.4804663277781873 -1.480466327778187
    endloop
  endfacet
  facet normal 0.7071067811865642 -0.499999999999988 -0.4999999999999883
    outer loop
      vertex -1.011271242968684 -1.4804663277781873 -1.480466327778187
      vertex -1.011271242968684 -0.9609326555563737 -2.0000000000000004
      vertex -0.7347315653655914 -1.2849232464778897 -1.2849232464778892
    endloop
  endfacet
  facet normal -0.7071067811865642 -0.49999999999998823 -0.4999999999999881
    outer loop
      vertex 0.7347315653655914 -1.2849232464778897 -1.2849232464778892
      vertex 1.011271242968684 -0.9609326555563732 -2.0000000000000013
      vertex 1.011271242968684 -1.4804663277781873 -1.480466327778187
    endloop
  endfacet
  facet normal -0.45399049973950706 0.6300367553350648 0.6300367553350648
    outer loop
      vertex 0.7347315653655914 0 -5.430153507044222
      vertex 0.3862712429686842 0 -5.681246279909877
      vertex 0.3862712429686842 -2.8406231399549386 -2.8406231399549386
    endloop
  endfacet
  facet normal -0.9876883405951379 0.11061587104123673 0.11061587104123673
    outer loop
      vertex 1.1888206453689416 -2.2731350152805163 -2.2731350152805168
      vertex 1.2499999999999998 -1.9999999999999976 -2.0000000000000058
      vertex 1.1888206453689416 -2 -2.546270030561033
    endloop
  endfacet
  facet normal 0.15643446504028907 0.6984011233337035 0.6984011233337039
    outer loop
      vertex -0.3862712429686842 -2 -3.6812462799098773
      vertex 0 -2.883883476483193 -2.8838834764831933
      vertex 0 -2 -3.7677669529663858
    endloop
  endfacet
  facet normal 0.15643446504028982 0.6984011233337036 0.6984011233337036
    outer loop
      vertex -0.3862712429686842 -2 -3.6812462799098773
      vertex -0.3862712429686842 -2.8406231399549386 -2.8406231399549386
      vertex 0 -2.883883476483193 -2.8838834764831933
    endloop
  endfacet
  facet normal 0.1564344650402722 -0.6984011233337056 -0.6984011233337056
    outer loop
      vertex -0.3862712429686842 -1.1593768600450565 -1.1593768600450562
      vertex 0 0 -2.232233047033614
      vertex 0 -1.1161165235168071 -1.1161165235168067
    endloop
  endfacet
  facet normal 0.4539904997395233 -0.630036755335059 -0.630036755335059
    outer loop
      vertex -0.7347315653655914 -1.2849232464778897 -1.2849232464778892
      vertex -0.3862712429686842 0 -2.318753720090113
      vertex -0.3862712429686842 -1.1593768600450565 -1.1593768600450562
    endloop
  endfacet
  facet normal 0.707106781186564 -0.4999999999999883 -0.4999999999999883
    outer loop
      vertex -1.011271242968684 -0.9609326555563737 -2.0000000000000004
      vertex -0.7347315653655914 -0.5698464929557785 -2.0000000000000004
      vertex -0.7347315653655914 -1.2849232464778897 -1.2849232464778892
    endloop
  endfacet
  facet normal 0.453990499739507 0.6300367553350649 0.6300367553350649
    outer loop
      vertex -0.7347315653655914 -2.715076753522111 -2.715076753522111
      vertex -0.3862712429686842 -2.8406231399549386 -2.8406231399549386
      vertex -0.7347315653655914 -2 -3.4301535070442224
    endloop
  endfacet
  facet normal -0.8910065241883626 -0.32101976096011037 -0.3210197609601103
    outer loop
      vertex 1.011271242968684 -1.4804663277781873 -1.480466327778187
      vertex 1.011271242968684 -0.9609326555563732 -2.0000000000000013
      vertex 1.1888206453689416 -1.4537299694389654 -2.0000000000000018
    endloop
  endfacet
  facet normal 0.1564344650402906 0.6984011233337035 0.6984011233337035
    outer loop
      vertex -0.3862712429686842 0 -5.681246279909877
      vertex -0.3862712429686842 -2 -3.6812462799098773
      vertex 0 0 -5.767766952966387
    endloop
  endfacet
  facet normal -0.8910065241883613 0.32101976096011214 0.3210197609601121
    outer loop
      vertex 1.011271242968684 -2 -3.0390673444436214
      vertex 1.1888206453689416 0 -4.546270030561033
      vertex 1.0112712429686843 0 -5.039067344443621
    endloop
  endfacet
  facet normal -0.9876883405951381 0.11061587104123533 0.11061587104123535
    outer loop
      vertex 1.2499999999999993 0 -4
      vertex 1.1888206453689416 0 -4.546270030561033
      vertex 1.1888206453689416 -2 -2.546270030561033
    endloop
  endfacet
  facet normal 0.8910065241883611 0.32101976096011264 0.3210197609601124
    outer loop
      vertex -1.1888206453689416 0 -4.546270030561033
      vertex -1.188820645368942 -2 -2.54627003056103
      vertex -1.011271242968684 0 -5.039067344443621
    endloop
  endfacet
  facet normal 0.9876883405951379 0.11061587104123727 0.11061587104123685
    outer loop
      vertex -1.2499999999999998 0 -4.0000000000000036
      vertex -1.2499999999999993 -2 -2
      vertex -1.1888206453689416 0 -4.546270030561033
    endloop
  endfacet
  facet normal 0.8910065241883628 -0.32101976096011026 -0.32101976096011015
    outer loop
      vertex -1.1888206453689416 -1.4537299694389672 -2
      vertex -1.1888206453689416 0 -3.4537299694389674
      vertex -1.011271242968684 -0.9609326555563737 -2.0000000000000004
    endloop
  endfacet
  facet normal -0.15643446504029054 0.6984011233337036 0.6984011233337033
    outer loop
      vertex 0 0 -5.767766952966387
      vertex 0 -2 -3.7677669529663858
      vertex 0.3862712429686842 0 -5.681246279909877
    endloop
  endfacet
  facet normal -0.707106781186569 0.49999999999998485 0.49999999999998485
    outer loop
      vertex 0.7347315653655914 -2 -3.4301535070442224
      vertex 1.0112712429686843 0 -5.039067344443621
      vertex 0.7347315653655914 0 -5.430153507044222
    endloop
  endfacet
  facet normal -0.9876883405951381 -0.11061587104123544 -0.11061587104123542
    outer loop
      vertex 1.1888206453689416 -1.4537299694389654 -2.0000000000000018
      vertex 1.1888206453689416 0 -3.4537299694389674
      vertex 1.2499999999999998 -1.9999999999999976 -2.0000000000000058
    endloop
  endfacet
  facet normal -0.8910065241883625 -0.32101976096011037 -0.3210197609601105
    outer loop
      vertex 1.011271242968684 0 -2.960932655556374
      vertex 1.1888206453689416 -1.4537299694389654 -2.0000000000000018
      vertex 1.011271242968684 -0.9609326555563732 -2.0000000000000013
    endloop
  endfacet
  facet normal -0.9876883405951383 -0.11061587104123541 -0.11061587104123538
    outer loop
      vertex 1.2499999999999993 0 -4
      vertex 1.2499999999999998 -1.9999999999999976 -2.0000000000000058
      vertex 1.1888206453689416 0 -3.4537299694389674
    endloop
  endfacet
  facet normal 0.9876883405951381 -0.11061587104123531 -0.11061587104123533
    outer loop
      vertex -1.2499999999999993 -2 -2
      vertex -1.2499999999999998 0 -4.0000000000000036
      vertex -1.1888206453689416 -1.4537299694389672 -2
    endloop
  endfacet
  facet normal -0.707106781186564 -0.4999999999999882 -0.4999999999999884
    outer loop
      vertex 0.7347315653655914 -0.5698464929557783 -2.000000000000001
      vertex 0.7347315653655914 0 -2.569846492955779
      vertex 1.011271242968684 -0.9609326555563732 -2.0000000000000013
    endloop
  endfacet
  facet normal 0.707106781186564 -0.4999999999999883 -0.4999999999999883
    outer loop
      vertex -1.011271242968684 -0.9609326555563737 -2.0000000000000004
      vertex -1.011271242968684 0 -2.960932655556374
      vertex -0.7347315653655914 -0.5698464929557785 -2.0000000000000004
    endloop
  endfacet
  facet normal 0.9876883405951381 -0.11061587104123544 -0.11061587104123542
    outer loop
      vertex -1.1888206453689416 -1.4537299694389672 -2
      vertex -1.2499999999999998 0 -4.0000000000000036
      vertex -1.1888206453689416 0 -3.4537299694389674
    endloop
  endfacet
  facet normal 0.8910065241883628 -0.3210197609601101 -0.3210197609601101
    outer loop
      vertex -1.011271242968684 0 -2.960932655556374
      vertex -1.011271242968684 -0.9609326555563737 -2.0000000000000004
      vertex -1.1888206453689416 0 -3.4537299694389674
    endloop
  endfacet
  facet normal 0.7071067811865639 -0.4999999999999884 -0.4999999999999884
    outer loop
      vertex -0.7347315653655914 -0.5698464929557785 -2.0000000000000004
      vertex -1.011271242968684 0 -2.960932655556374
      vertex -0.7347315653655914 0 -2.569846492955779
    endloop
  endfacet
  facet normal -0.9876883405951379 0.11061587104123631 0.11061587104123671
    outer loop
      vertex 1.2499999999999998 -1.9999999999999976 -2.0000000000000058
      vertex 1.2499999999999993 0 -4
      vertex 1.1888206453689416 -2 -2.546270030561033
    endloop
  endfacet
  facet normal -0.8910065241883609 0.32101976096011253 0.3210197609601126
    outer loop
      vertex 1.011271242968684 -2 -3.0390673444436214
      vertex 1.1888206453689416 -2 -2.546270030561033
      vertex 1.1888206453689416 0 -4.546270030561033
    endloop
  endfacet
  facet normal 0.9876883405951382 0.11061587104123505 0.1106158710412351
    outer loop
      vertex -1.1888206453689416 0 -4.546270030561033
      vertex -1.2499999999999993 -2 -2
      vertex -1.188820645368942 -2 -2.54627003056103
    endloop
  endfacet
  facet normal 0.15643446504028902 0.698401123333704 0.6984011233337036
    outer loop
      vertex 0 0 -5.767766952966387
      vertex -0.3862712429686842 -2 -3.6812462799098773
      vertex 0 -2 -3.7677669529663858
    endloop
  endfacet
  facet normal 0.7071067811865723 0.4999999999999825 0.4999999999999825
    outer loop
      vertex -1.0112712429686868 -2 -3.0390673444436143
      vertex -0.7347315653655914 -2 -3.4301535070442224
      vertex -0.7347315653655914 0 -5.430153507044222
    endloop
  endfacet
  facet normal 0.8910065241883617 0.3210197609601114 0.3210197609601115
    outer loop
      vertex -1.188820645368942 -2 -2.54627003056103
      vertex -1.0112712429686868 -2 -3.0390673444436143
      vertex -1.011271242968684 0 -5.039067344443621
    endloop
  endfacet
  facet normal -0.7071067811865691 0.4999999999999846 0.49999999999998457
    outer loop
      vertex 0.7347315653655914 -2 -3.4301535070442224
      vertex 1.011271242968684 -2 -3.0390673444436214
      vertex 1.0112712429686843 0 -5.039067344443621
    endloop
  endfacet
  facet normal -0.8910065241883628 -0.32101976096011015 -0.3210197609601101
    outer loop
      vertex 1.1888206453689416 0 -3.4537299694389674
      vertex 1.1888206453689416 -1.4537299694389654 -2.0000000000000018
      vertex 1.011271242968684 0 -2.960932655556374
    endloop
  endfacet
  facet normal 0.707106781186569 0.49999999999998535 0.49999999999998446
    outer loop
      vertex -1.0112712429686868 -2 -3.0390673444436143
      vertex -0.7347315653655914 0 -5.430153507044222
      vertex -1.011271242968684 0 -5.039067344443621
    endloop
  endfacet
  facet normal 0.29028467725446233 -0.6766590005871763 -0.6766590005871764
    outer loop
      vertex -0.3901806440322565 -0.6129601546778527 -0.6129601546778523
      vertex -0.7653668647301796 -4 2.6131259297527523
      vertex -0.7653668647301796 -0.6934370351236236 -0.6934370351236232
    endloop
  endfacet
  facet normal 4.215341531270631e-15 -0.7071067811865483 0.7071067811865467
    outer loop
      vertex 1.8477590650225735 -2.541196100146197 -2.5411961001461973
      vertex 1.9615705608064609 -2.2758993792829427 -2.275899379282943
      vertex 2 -2 -2
    endloop
  endfacet
  facet normal 0.881921264348355 -0.3333278292388733 -0.33332782923887333
    outer loop
      vertex -1.6629392246050905 -1.214305041612898 -1.2143050416128978
      vertex -1.6629392246050905 -4 1.5713899167742034
      vertex -1.8477590650225735 -1.458803899853803 -1.4588038998538029
    endloop
  endfacet
  facet normal 4.2140024956578745e-16 -0.7071067811865477 0.7071067811865474
    outer loop
      vertex 1.1111404660392044 -0.8241243975806414 -0.8241243975806409
      vertex 1.1888206453689416 -1.7268649847194837 -1.7268649847194835
      vertex 1.4142135623730951 -1 -0.9999999999999998
    endloop
  endfacet
  facet normal -5.344759342772282e-16 -0.7071067811865476 0.7071067811865474
    outer loop
      vertex 0.7347315653655914 -1.2849232464778897 -1.2849232464778892
      vertex 0.3901806440322565 -0.6129601546778527 -0.6129601546778523
      vertex 0.3862712429686842 -1.1593768600450565 -1.1593768600450562
    endloop
  endfacet
  facet normal 0.9569403357322088 -0.20526226376117865 -0.20526226376117873
    outer loop
      vertex -1.8477590650225735 -1.458803899853803 -1.4588038998538029
      vertex -1.8477590650225735 -4 1.0823922002923931
      vertex -1.9615705608064609 -1.724100620717057 -1.7241006207170568
    endloop
  endfacet
  facet normal 0.09801714032956076 -0.7037018687631911 -0.7037018687631913
    outer loop
      vertex 0 -4 2.828427124746189
      vertex -0.3901806440322565 -4 2.7740796906442937
      vertex 0 -0.5857864376269051 -0.5857864376269046
    endloop
  endfacet
  facet normal 1.0465109262123579e-15 -0.7071067811865477 0.7071067811865472
    outer loop
      vertex -1.9615705608064609 -1.724100620717057 -1.7241006207170568
      vertex -1.8477590650225735 -2.541196100146197 -2.5411961001461973
      vertex -1.8477590650225735 -1.458803899853803 -1.4588038998538029
    endloop
  endfacet
  facet normal 3.7126778181932306e-16 -0.7071067811865477 0.7071067811865474
    outer loop
      vertex -1.8477590650225735 -1.458803899853803 -1.4588038998538029
      vertex -1.6629392246050905 -2.785694958387102 -2.7856949583871025
      vertex -1.6629392246050905 -1.214305041612898 -1.2143050416128978
    endloop
  endfacet
  facet normal 0.29028467725446166 -0.6766590005871764 -0.6766590005871765
    outer loop
      vertex -0.3901806440322565 -4 2.7740796906442937
      vertex -0.7653668647301796 -4 2.6131259297527523
      vertex -0.3901806440322565 -0.6129601546778527 -0.6129601546778523
    endloop
  endfacet
  facet normal 3.9560340682089083e-17 -0.7071067811865476 0.7071067811865475
    outer loop
      vertex -1.6629392246050905 -1.214305041612898 -1.2143050416128978
      vertex -1.4142135623730951 -3 -3
      vertex -1.4142135623730951 -1 -0.9999999999999998
    endloop
  endfacet
  facet normal -7.40387335061888e-16 -0.7071067811865477 0.7071067811865474
    outer loop
      vertex -1.4142135623730951 -1 -0.9999999999999998
      vertex -1.2499999999999993 -2 -2
      vertex -1.1888206453689416 -1.7268649847194837 -1.7268649847194835
    endloop
  endfacet
  facet normal 0.4713967368259982 -0.6236125064933353 -0.6236125064933354
    outer loop
      vertex -0.7653668647301796 -4 2.6131259297527523
      vertex -1.1111404660392044 -4 2.3517512048387164
      vertex -0.7653668647301796 -0.6934370351236236 -0.6934370351236232
    endloop
  endfacet
  facet normal 0.6343932841636455 -0.5466009335008787 -0.546600933500879
    outer loop
      vertex -1.1111404660392044 -4 2.3517512048387164
      vertex -1.4142135623730951 -4 1.999999999999999
      vertex -1.4142135623730951 -1 -0.9999999999999998
    endloop
  endfacet
  facet normal 0.9951847266721969 -0.06930858459954578 -0.0693085845995458
    outer loop
      vertex -1.9615705608064609 -1.724100620717057 -1.7241006207170568
      vertex -1.9615705608064609 -4 0.551798758565885
      vertex -2 -2 -2
    endloop
  endfacet
  facet normal -5.28078556748851e-15 -0.7071067811865482 0.7071067811865469
    outer loop
      vertex -1.4142135623730951 -1 -0.9999999999999998
      vertex -1.1111404660392044 -3.1758756024193584 -3.1758756024193593
      vertex -1.2499999999999993 -2 -2
    endloop
  endfacet
  facet normal -5.552839472838017e-16 -0.7071067811865477 0.7071067811865474
    outer loop
      vertex -1.8477590650225735 -2.541196100146197 -2.5411961001461973
      vertex -1.6629392246050905 -2.785694958387102 -2.7856949583871025
      vertex -1.8477590650225735 -1.458803899853803 -1.4588038998538029
    endloop
  endfacet
  facet normal -1.563579668018941e-15 -0.7071067811865477 0.7071067811865474
    outer loop
      vertex -1.6629392246050905 -2.785694958387102 -2.7856949583871025
      vertex -1.4142135623730951 -3 -3
      vertex -1.6629392246050905 -1.214305041612898 -1.2143050416128978
    endloop
  endfacet
  facet normal 2.1564044217118185e-16 -0.7071067811865477 0.7071067811865475
    outer loop
      vertex -1.1888206453689416 -1.7268649847194837 -1.7268649847194835
      vertex -1.011271242968684 -1.4804663277781873 -1.480466327778187
      vertex -1.1111404660392044 -0.8241243975806414 -0.8241243975806409
    endloop
  endfacet
  facet normal 2.072229409573233e-15 -0.7071067811865475 0.7071067811865475
    outer loop
      vertex -1.4142135623730951 -3 -3
      vertex -1.1111404660392044 -3.1758756024193584 -3.1758756024193593
      vertex -1.4142135623730951 -1 -0.9999999999999998
    endloop
  endfacet
  facet normal 4.972904523843494e-15 -0.7071067811865477 0.7071067811865475
    outer loop
      vertex -1.1111404660392044 -3.1758756024193584 -3.1758756024193593
      vertex -1.1888206453689416 -2.2731350152805163 -2.2731350152805168
      vertex -1.2499999999999993 -2 -2
    endloop
  endfacet
  facet normal 0.6343932841636447 -0.5466009335008791 -0.5466009335008793
    outer loop
      vertex -1.1111404660392044 -4 2.3517512048387164
      vertex -1.4142135623730951 -1 -0.9999999999999998
      vertex -1.1111404660392044 -0.8241243975806414 -0.8241243975806409
    endloop
  endfacet
  facet normal 0.4713967368259976 -0.6236125064933354 -0.6236125064933359
    outer loop
      vertex -0.7653668647301796 -0.6934370351236236 -0.6934370351236232
      vertex -1.1111404660392044 -4 2.3517512048387164
      vertex -1.1111404660392044 -0.8241243975806414 -0.8241243975806409
    endloop
  endfacet
  facet normal 5.697174160649608e-19 -0.7071067811865477 0.7071067811865472
    outer loop
      vertex 1.8477590650225735 -2.541196100146197 -2.5411961001461973
      vertex 2 -2 -2
      vertex 1.9615705608064609 -1.724100620717057 -1.7241006207170568
    endloop
  endfacet
  facet normal -9.736319733077321e-17 -0.7071067811865476 0.7071067811865472
    outer loop
      vertex 0.7653668647301796 -0.6934370351236236 -0.6934370351236232
      vertex 1.011271242968684 -1.4804663277781873 -1.480466327778187
      vertex 1.1111404660392044 -0.8241243975806414 -0.8241243975806409
    endloop
  endfacet
  facet normal -3.716063583962848e-16 -0.7071067811865477 0.7071067811865474
    outer loop
      vertex -1.1111404660392044 -0.8241243975806414 -0.8241243975806409
      vertex -1.011271242968684 -1.4804663277781873 -1.480466327778187
      vertex -0.7347315653655914 -1.2849232464778897 -1.2849232464778892
    endloop
  endfacet
  facet normal -4.142101454613761e-16 -0.7071067811865477 0.7071067811865475
    outer loop
      vertex -1.4142135623730951 -1 -0.9999999999999998
      vertex -1.1888206453689416 -1.7268649847194837 -1.7268649847194835
      vertex -1.1111404660392044 -0.8241243975806414 -0.8241243975806409
    endloop
  endfacet
  facet normal 4.523019980469113e-16 -0.7071067811865475 0.7071067811865476
    outer loop
      vertex -0.7347315653655914 -1.2849232464778897 -1.2849232464778892
      vertex -0.3862712429686842 -1.1593768600450565 -1.1593768600450562
      vertex -0.7653668647301796 -0.6934370351236236 -0.6934370351236232
    endloop
  endfacet
  facet normal 5.502943338219712e-16 -0.7071067811865476 0.7071067811865476
    outer loop
      vertex 0.7347315653655914 -1.2849232464778897 -1.2849232464778892
      vertex 1.011271242968684 -1.4804663277781873 -1.480466327778187
      vertex 0.7653668647301796 -0.6934370351236236 -0.6934370351236232
    endloop
  endfacet
  facet normal -0.09801714032956073 -0.7037018687631912 -0.7037018687631913
    outer loop
      vertex 0.3901806440322565 -0.6129601546778527 -0.6129601546778523
      vertex 0.3901806440322565 -4 2.7740796906442937
      vertex 0 -0.5857864376269051 -0.5857864376269046
    endloop
  endfacet
  facet normal -0.4713967368259976 -0.6236125064933355 -0.6236125064933359
    outer loop
      vertex 1.1111404660392044 -0.8241243975806414 -0.8241243975806409
      vertex 1.1111404660392044 -4 2.3517512048387164
      vertex 0.7653668647301796 -0.6934370351236236 -0.6934370351236232
    endloop
  endfacet
  facet normal -0.6343932841636453 -0.5466009335008787 -0.546600933500879
    outer loop
      vertex 1.4142135623730951 -1 -0.9999999999999998
      vertex 1.4142135623730951 -4 1.999999999999999
      vertex 1.1111404660392044 -0.8241243975806414 -0.8241243975806409
    endloop
  endfacet
  facet normal -0.2902846772544624 -0.6766590005871762 -0.6766590005871764
    outer loop
      vertex 0.7653668647301796 -0.6934370351236236 -0.6934370351236232
      vertex 0.7653668647301796 -4 2.6131259297527523
      vertex 0.3901806440322565 -0.6129601546778527 -0.6129601546778523
    endloop
  endfacet
  facet normal 4.811861046097986e-17 -0.7071067811865477 0.7071067811865472
    outer loop
      vertex -2 -2 -2
      vertex -1.8477590650225735 -2.541196100146197 -2.5411961001461973
      vertex -1.9615705608064609 -1.724100620717057 -1.7241006207170568
    endloop
  endfacet
  facet normal -3.961888508166538e-15 -0.7071067811865483 0.7071067811865467
    outer loop
      vertex -1.9615705608064609 -2.2758993792829427 -2.275899379282943
      vertex -1.8477590650225735 -2.541196100146197 -2.5411961001461973
      vertex -2 -2 -2
    endloop
  endfacet
  facet normal -3.365684224083387e-16 -0.7071067811865476 0.7071067811865475
    outer loop
      vertex 1.1888206453689416 -1.7268649847194837 -1.7268649847194835
      vertex 1.1111404660392044 -0.8241243975806414 -0.8241243975806409
      vertex 1.011271242968684 -1.4804663277781873 -1.480466327778187
    endloop
  endfacet
  facet normal -8.008955407368443e-16 -0.7071067811865477 0.7071067811865474
    outer loop
      vertex -1.1111404660392044 -3.1758756024193584 -3.1758756024193593
      vertex -1.011271242968684 -2.5195336722218107 -2.519533672221811
      vertex -1.1888206453689416 -2.2731350152805163 -2.2731350152805168
    endloop
  endfacet
  facet normal -1.0398779055251045e-15 -0.7071067811865476 0.7071067811865476
    outer loop
      vertex -1.011271242968684 -2.5195336722218107 -2.519533672221811
      vertex -0.7653668647301796 -3.3065629648763766 -3.3065629648763766
      vertex -0.7347315653655914 -2.715076753522111 -2.715076753522111
    endloop
  endfacet
  facet normal -4.2287182429760493e-16 -0.7071067811865481 0.707106781186547
    outer loop
      vertex -0.7347315653655914 -2.715076753522111 -2.715076753522111
      vertex -0.3901806440322565 -3.387039845322147 -3.387039845322148
      vertex -0.3862712429686842 -2.8406231399549386 -2.8406231399549386
    endloop
  endfacet
  facet normal 0.9951847266721969 0.06930858459954581 0.06930858459954584
    outer loop
      vertex -2 -2 -2
      vertex -2 -4 -7.899127713371097e-16
      vertex -1.9615705608064609 -2.2758993792829427 -2.275899379282943
    endloop
  endfacet
  facet normal 0.9569403357322089 0.20526226376117848 0.2052622637611786
    outer loop
      vertex -1.9615705608064609 -2.2758993792829427 -2.275899379282943
      vertex -1.9615705608064609 -4 -0.5517987585658866
      vertex -1.8477590650225735 -2.541196100146197 -2.5411961001461973
    endloop
  endfacet
  facet normal 0.7730104533627371 -0.44858379317131797 -0.4485837931713182
    outer loop
      vertex -1.4142135623730951 -4 1.999999999999999
      vertex -1.6629392246050905 -4 1.5713899167742034
      vertex -1.6629392246050905 -1.214305041612898 -1.2143050416128978
    endloop
  endfacet
  facet normal 0.8819212643483549 -0.33332782923887316 -0.3333278292388733
    outer loop
      vertex -1.6629392246050905 -4 1.5713899167742034
      vertex -1.8477590650225735 -4 1.0823922002923931
      vertex -1.8477590650225735 -1.458803899853803 -1.4588038998538029
    endloop
  endfacet
  facet normal 0.9569403357322089 -0.20526226376117856 -0.20526226376117862
    outer loop
      vertex -1.8477590650225735 -4 1.0823922002923931
      vertex -1.9615705608064609 -4 0.551798758565885
      vertex -1.9615705608064609 -1.724100620717057 -1.7241006207170568
    endloop
  endfacet
  facet normal 0.9951847266721969 -0.0693085845995458 -0.06930858459954584
    outer loop
      vertex -1.9615705608064609 -4 0.551798758565885
      vertex -2 -4 -7.899127713371097e-16
      vertex -2 -2 -2
    endloop
  endfacet
  facet normal 0.9951847266721969 0.0693085845995458 0.06930858459954584
    outer loop
      vertex -2 -4 -7.899127713371097e-16
      vertex -1.9615705608064609 -4 -0.5517987585658866
      vertex -1.9615705608064609 -2.2758993792829427 -2.275899379282943
    endloop
  endfacet
  facet normal 0.881921264348355 0.3333278292388733 0.33332782923887333
    outer loop
      vertex -1.8477590650225735 -2.541196100146197 -2.5411961001461973
      vertex -1.8477590650225735 -4 -1.0823922002923947
      vertex -1.6629392246050905 -2.785694958387102 -2.7856949583871025
    endloop
  endfacet
  facet normal 8.093139436909177e-16 -0.7071067811865476 0.7071067811865476
    outer loop
      vertex -0.3862712429686842 -2.8406231399549386 -2.8406231399549386
      vertex 0 -3.414213562373095 -3.4142135623730954
      vertex 0 -2.883883476483193 -2.8838834764831933
    endloop
  endfacet
  facet normal -8.855286110670038e-16 -0.707106781186548 0.7071067811865469
    outer loop
      vertex -0.3901806440322565 -3.387039845322147 -3.387039845322148
      vertex 0 -3.414213562373095 -3.4142135623730954
      vertex -0.3862712429686842 -2.8406231399549386 -2.8406231399549386
    endloop
  endfacet
  facet normal 1.6658028986313293e-15 -0.7071067811865476 0.7071067811865475
    outer loop
      vertex -0.7653668647301796 -3.3065629648763766 -3.3065629648763766
      vertex -0.3901806440322565 -3.387039845322147 -3.387039845322148
      vertex -0.7347315653655914 -2.715076753522111 -2.715076753522111
    endloop
  endfacet
  facet normal -1.8690563758504996e-15 -0.7071067811865477 0.7071067811865475
    outer loop
      vertex -1.1111404660392044 -3.1758756024193584 -3.1758756024193593
      vertex -0.7653668647301796 -3.3065629648763766 -3.3065629648763766
      vertex -1.011271242968684 -2.5195336722218107 -2.519533672221811
    endloop
  endfacet
  facet normal 0.4713967368259975 0.6236125064933354 0.6236125064933359
    outer loop
      vertex -1.1111404660392044 -3.1758756024193584 -3.1758756024193593
      vertex -0.7653668647301796 -4 -2.6131259297527536
      vertex -0.7653668647301796 -3.3065629648763766 -3.3065629648763766
    endloop
  endfacet
  facet normal 0.773010453362737 0.44858379317131797 0.44858379317131813
    outer loop
      vertex -1.6629392246050905 -2.785694958387102 -2.7856949583871025
      vertex -1.6629392246050905 -4 -1.571389916774205
      vertex -1.4142135623730951 -3 -3
    endloop
  endfacet
  facet normal 0.6343932841636455 0.5466009335008786 0.5466009335008788
    outer loop
      vertex -1.4142135623730951 -3 -3
      vertex -1.4142135623730951 -4 -2.0000000000000004
      vertex -1.1111404660392044 -3.1758756024193584 -3.1758756024193593
    endloop
  endfacet
  facet normal 1.9001362985294085e-17 -0.7071067811865475 0.7071067811865475
    outer loop
      vertex -0.7653668647301796 -0.6934370351236236 -0.6934370351236232
      vertex -1.1111404660392044 -0.8241243975806414 -0.8241243975806409
      vertex -0.7347315653655914 -1.2849232464778897 -1.2849232464778892
    endloop
  endfacet
  facet normal -3.7159381063584057e-16 -0.7071067811865477 0.7071067811865472
    outer loop
      vertex -0.3862712429686842 -1.1593768600450565 -1.1593768600450562
      vertex 0 -1.1161165235168071 -1.1161165235168067
      vertex -0.3901806440322565 -0.6129601546778527 -0.6129601546778523
    endloop
  endfacet
  facet normal 6.659972043907617e-17 -0.7071067811865477 0.7071067811865474
    outer loop
      vertex -0.3901806440322565 -0.6129601546778527 -0.6129601546778523
      vertex -0.7653668647301796 -0.6934370351236236 -0.6934370351236232
      vertex -0.3862712429686842 -1.1593768600450565 -1.1593768600450562
    endloop
  endfacet
  facet normal -1.3422382053731934e-18 -0.7071067811865475 0.7071067811865475
    outer loop
      vertex 0 -0.5857864376269051 -0.5857864376269046
      vertex -0.3901806440322565 -0.6129601546778527 -0.6129601546778523
      vertex 0 -1.1161165235168071 -1.1161165235168067
    endloop
  endfacet
  facet normal 0.881921264348355 0.3333278292388732 0.33332782923887333
    outer loop
      vertex -1.6629392246050905 -4 -1.571389916774205
      vertex -1.6629392246050905 -2.785694958387102 -2.7856949583871025
      vertex -1.8477590650225735 -4 -1.0823922002923947
    endloop
  endfacet
  facet normal 0.7730104533627371 0.4485837931713179 0.4485837931713182
    outer loop
      vertex -1.6629392246050905 -4 -1.571389916774205
      vertex -1.4142135623730951 -4 -2.0000000000000004
      vertex -1.4142135623730951 -3 -3
    endloop
  endfacet
  facet normal -9.622160323600699e-16 -0.7071067811865477 0.7071067811865472
    outer loop
      vertex 1.8477590650225735 -1.458803899853803 -1.4588038998538029
      vertex 1.8477590650225735 -2.541196100146197 -2.5411961001461973
      vertex 1.9615705608064609 -1.724100620717057 -1.7241006207170568
    endloop
  endfacet
  facet normal -0.09801714032956077 0.703701868763191 0.7037018687631914
    outer loop
      vertex 0.3901806440322565 -4 -2.7740796906442955
      vertex 0.3901806440322565 -3.387039845322147 -3.387039845322148
      vertex 0 -4 -2.8284271247461907
    endloop
  endfacet
  facet normal -0.29028467725446244 0.6766590005871761 0.6766590005871764
    outer loop
      vertex 0.7653668647301796 -4 -2.6131259297527536
      vertex 0.7653668647301796 -3.3065629648763766 -3.3065629648763766
      vertex 0.3901806440322565 -4 -2.7740796906442955
    endloop
  endfacet
  facet normal -0.09801714032956073 0.703701868763191 0.7037018687631914
    outer loop
      vertex 0 -3.414213562373095 -3.4142135623730954
      vertex 0 -4 -2.8284271247461907
      vertex 0.3901806440322565 -3.387039845322147 -3.387039845322148
    endloop
  endfacet
  facet normal -0.2902846772544624 0.6766590005871762 0.6766590005871767
    outer loop
      vertex 0.3901806440322565 -3.387039845322147 -3.387039845322148
      vertex 0.3901806440322565 -4 -2.7740796906442955
      vertex 0.7653668647301796 -3.3065629648763766 -3.3065629648763766
    endloop
  endfacet
  facet normal -0.4713967368259976 0.6236125064933354 0.6236125064933358
    outer loop
      vertex 1.1111404660392044 -4 -2.351751204838718
      vertex 1.1111404660392044 -3.1758756024193584 -3.1758756024193593
      vertex 0.7653668647301796 -4 -2.6131259297527536
    endloop
  endfacet
  facet normal -0.6343932841636456 0.5466009335008786 0.5466009335008788
    outer loop
      vertex 1.4142135623730951 -4 -2.0000000000000004
      vertex 1.4142135623730951 -3 -3
      vertex 1.1111404660392044 -4 -2.351751204838718
    endloop
  endfacet
  facet normal -0.7730104533627371 0.44858379317131797 0.44858379317131813
    outer loop
      vertex 1.6629392246050905 -4 -1.571389916774205
      vertex 1.6629392246050905 -2.785694958387102 -2.7856949583871025
      vertex 1.4142135623730951 -4 -2.0000000000000004
    endloop
  endfacet
  facet normal -0.881921264348355 0.3333278292388732 0.3333278292388733
    outer loop
      vertex 1.8477590650225735 -4 -1.0823922002923947
      vertex 1.8477590650225735 -2.541196100146197 -2.5411961001461973
      vertex 1.6629392246050905 -4 -1.571389916774205
    endloop
  endfacet
  facet normal -0.4713967368259975 0.6236125064933354 0.6236125064933358
    outer loop
      vertex 0.7653668647301796 -3.3065629648763766 -3.3065629648763766
      vertex 0.7653668647301796 -4 -2.6131259297527536
      vertex 1.1111404660392044 -3.1758756024193584 -3.1758756024193593
    endloop
  endfacet
  facet normal -0.6343932841636456 0.5466009335008786 0.5466009335008789
    outer loop
      vertex 1.1111404660392044 -3.1758756024193584 -3.1758756024193593
      vertex 1.1111404660392044 -4 -2.351751204838718
      vertex 1.4142135623730951 -3 -3
    endloop
  endfacet
  facet normal -0.7730104533627371 0.4485837931713181 0.44858379317131825
    outer loop
      vertex 1.4142135623730951 -3 -3
      vertex 1.4142135623730951 -4 -2.0000000000000004
      vertex 1.6629392246050905 -2.785694958387102 -2.7856949583871025
    endloop
  endfacet
  facet normal 7.61320845021364e-16 -0.7071067811865475 0.7071067811865475
    outer loop
      vertex 0 -2.883883476483193 -2.8838834764831933
      vertex 0 -3.414213562373095 -3.4142135623730954
      vertex 0.3901806440322565 -3.387039845322147 -3.387039845322148
    endloop
  endfacet
  facet normal -1.4189265651615617e-15 -0.707106781186548 0.7071067811865469
    outer loop
      vertex 0.3901806440322565 -3.387039845322147 -3.387039845322148
      vertex 0.7653668647301796 -3.3065629648763766 -3.3065629648763766
      vertex 0.3862712429686842 -2.8406231399549386 -2.8406231399549386
    endloop
  endfacet
  facet normal -6.807131569606824e-16 -0.7071067811865481 0.707106781186547
    outer loop
      vertex 0 -2.883883476483193 -2.8838834764831933
      vertex 0.3901806440322565 -3.387039845322147 -3.387039845322148
      vertex 0.3862712429686842 -2.8406231399549386 -2.8406231399549386
    endloop
  endfacet
  facet normal 1.7910143971963058e-15 -0.7071067811865476 0.7071067811865476
    outer loop
      vertex 0.7653668647301796 -3.3065629648763766 -3.3065629648763766
      vertex 1.1111404660392044 -3.1758756024193584 -3.1758756024193593
      vertex 0.7347315653655914 -2.715076753522111 -2.715076753522111
    endloop
  endfacet
  facet normal -0.8819212643483548 0.3333278292388732 0.33332782923887333
    outer loop
      vertex 1.6629392246050905 -2.785694958387102 -2.7856949583871025
      vertex 1.6629392246050905 -4 -1.571389916774205
      vertex 1.8477590650225735 -2.541196100146197 -2.5411961001461973
    endloop
  endfacet
  facet normal -0.9569403357322088 0.20526226376117854 0.20526226376117862
    outer loop
      vertex 1.9615705608064609 -4 -0.5517987585658866
      vertex 1.9615705608064609 -2.2758993792829427 -2.275899379282943
      vertex 1.8477590650225735 -4 -1.0823922002923947
    endloop
  endfacet
  facet normal 0.09801714032956074 0.703701868763191 0.7037018687631914
    outer loop
      vertex 0 -4 -2.8284271247461907
      vertex 0 -3.414213562373095 -3.4142135623730954
      vertex -0.3901806440322565 -3.387039845322147 -3.387039845322148
    endloop
  endfacet
  facet normal -0.881921264348355 -0.3333278292388732 -0.3333278292388733
    outer loop
      vertex 1.6629392246050905 -4 1.5713899167742034
      vertex 1.6629392246050905 -1.214305041612898 -1.2143050416128978
      vertex 1.8477590650225735 -4 1.0823922002923931
    endloop
  endfacet
  facet normal -0.9951847266721969 0.06930858459954581 0.06930858459954584
    outer loop
      vertex 2 -4 -7.899127713371097e-16
      vertex 2 -2 -2
      vertex 1.9615705608064609 -4 -0.5517987585658866
    endloop
  endfacet
  facet normal -0.9951847266721968 -0.0693085845995458 -0.06930858459954582
    outer loop
      vertex 1.9615705608064609 -4 0.551798758565885
      vertex 1.9615705608064609 -1.724100620717057 -1.7241006207170568
      vertex 2 -4 -7.899127713371097e-16
    endloop
  endfacet
  facet normal -0.9569403357322088 -0.20526226376117854 -0.2052622637611786
    outer loop
      vertex 1.8477590650225735 -4 1.0823922002923931
      vertex 1.8477590650225735 -1.458803899853803 -1.4588038998538029
      vertex 1.9615705608064609 -4 0.551798758565885
    endloop
  endfacet
  facet normal 4.1084855572641897e-14 -0.7071067811865539 0.7071067811865411
    outer loop
      vertex 1.2499999999999998 -1.9999999999999976 -2.0000000000000058
      vertex 1.4142135623730951 -1 -0.9999999999999998
      vertex 1.1888206453689416 -1.7268649847194837 -1.7268649847194835
    endloop
  endfacet
  facet normal 0 -0.7071067811865475 0.7071067811865475
    outer loop
      vertex 1.4142135623730951 -1 -0.9999999999999998
      vertex 1.4142135623730951 -3 -3
      vertex 1.6629392246050905 -1.214305041612898 -1.2143050416128978
    endloop
  endfacet
  facet normal 0.2902846772544624 0.6766590005871762 0.6766590005871767
    outer loop
      vertex -0.7653668647301796 -3.3065629648763766 -3.3065629648763766
      vertex -0.3901806440322565 -4 -2.7740796906442955
      vertex -0.3901806440322565 -3.387039845322147 -3.387039845322148
    endloop
  endfacet
  facet normal -4.581680109196719e-16 -0.7071067811865477 0.7071067811865474
    outer loop
      vertex 1.6629392246050905 -1.214305041612898 -1.2143050416128978
      vertex 1.6629392246050905 -2.785694958387102 -2.7856949583871025
      vertex 1.8477590650225735 -1.458803899853803 -1.4588038998538029
    endloop
  endfacet
  facet normal 0.6343932841636456 0.5466009335008786 0.5466009335008788
    outer loop
      vertex -1.4142135623730951 -4 -2.0000000000000004
      vertex -1.1111404660392044 -4 -2.351751204838718
      vertex -1.1111404660392044 -3.1758756024193584 -3.1758756024193593
    endloop
  endfacet
  facet normal 0.4713967368259976 0.6236125064933354 0.6236125064933358
    outer loop
      vertex -1.1111404660392044 -4 -2.351751204838718
      vertex -0.7653668647301796 -4 -2.6131259297527536
      vertex -1.1111404660392044 -3.1758756024193584 -3.1758756024193593
    endloop
  endfacet
  facet normal 0.09801714032956077 0.703701868763191 0.7037018687631914
    outer loop
      vertex -0.3901806440322565 -4 -2.7740796906442955
      vertex 0 -4 -2.8284271247461907
      vertex -0.3901806440322565 -3.387039845322147 -3.387039845322148
    endloop
  endfacet
  facet normal -0.9569403357322089 -0.20526226376117868 -0.20526226376117876
    outer loop
      vertex 1.9615705608064609 -1.724100620717057 -1.7241006207170568
      vertex 1.9615705608064609 -4 0.551798758565885
      vertex 1.8477590650225735 -1.458803899853803 -1.4588038998538029
    endloop
  endfacet
  facet normal -0.7730104533627373 -0.4485837931713178 -0.44858379317131797
    outer loop
      vertex 1.6629392246050905 -1.214305041612898 -1.2143050416128978
      vertex 1.6629392246050905 -4 1.5713899167742034
      vertex 1.4142135623730951 -1 -0.9999999999999998
    endloop
  endfacet
  facet normal -0.8819212643483549 -0.3333278292388732 -0.33332782923887333
    outer loop
      vertex 1.8477590650225735 -1.458803899853803 -1.4588038998538029
      vertex 1.8477590650225735 -4 1.0823922002923931
      vertex 1.6629392246050905 -1.214305041612898 -1.2143050416128978
    endloop
  endfacet
  facet normal -0.6343932841636454 -0.5466009335008788 -0.5466009335008789
    outer loop
      vertex 1.4142135623730951 -4 1.999999999999999
      vertex 1.1111404660392044 -4 2.3517512048387164
      vertex 1.1111404660392044 -0.8241243975806414 -0.8241243975806409
    endloop
  endfacet
  facet normal -0.29028467725446166 -0.6766590005871764 -0.6766590005871765
    outer loop
      vertex 0.7653668647301796 -4 2.6131259297527523
      vertex 0.3901806440322565 -4 2.7740796906442937
      vertex 0.3901806440322565 -0.6129601546778527 -0.6129601546778523
    endloop
  endfacet
  facet normal -0.09801714032956076 -0.7037018687631911 -0.7037018687631913
    outer loop
      vertex 0.3901806440322565 -4 2.7740796906442937
      vertex 0 -4 2.828427124746189
      vertex 0 -0.5857864376269051 -0.5857864376269046
    endloop
  endfacet
  facet normal -0.47139673682599825 -0.6236125064933353 -0.6236125064933355
    outer loop
      vertex 1.1111404660392044 -4 2.3517512048387164
      vertex 0.7653668647301796 -4 2.6131259297527523
      vertex 0.7653668647301796 -0.6934370351236236 -0.6934370351236232
    endloop
  endfacet
  facet normal -0.9951847266721969 -0.06930858459954578 -0.06930858459954581
    outer loop
      vertex 2 -2 -2
      vertex 2 -4 -7.899127713371097e-16
      vertex 1.9615705608064609 -1.724100620717057 -1.7241006207170568
    endloop
  endfacet
  facet normal -0.7730104533627371 -0.44858379317131797 -0.4485837931713182
    outer loop
      vertex 1.4142135623730951 -4 1.999999999999999
      vertex 1.4142135623730951 -1 -0.9999999999999998
      vertex 1.6629392246050905 -4 1.5713899167742034
    endloop
  endfacet
  facet normal -3.376769175158048e-18 -0.7071067811865475 0.7071067811865475
    outer loop
      vertex 0.3862712429686842 -2.8406231399549386 -2.8406231399549386
      vertex 0.7653668647301796 -3.3065629648763766 -3.3065629648763766
      vertex 0.7347315653655914 -2.715076753522111 -2.715076753522111
    endloop
  endfacet
  facet normal 1.3309599293086098e-15 -0.7071067811865477 0.7071067811865475
    outer loop
      vertex 0.7347315653655914 -2.715076753522111 -2.715076753522111
      vertex 1.1111404660392044 -3.1758756024193584 -3.1758756024193593
      vertex 1.011271242968684 -2.5195336722218107 -2.519533672221811
    endloop
  endfacet
  facet normal 0.29028467725446244 0.6766590005871761 0.6766590005871764
    outer loop
      vertex -0.7653668647301796 -4 -2.6131259297527536
      vertex -0.3901806440322565 -4 -2.7740796906442955
      vertex -0.7653668647301796 -3.3065629648763766 -3.3065629648763766
    endloop
  endfacet
  facet normal 4.829177022601445e-16 -0.7071067811865477 0.7071067811865474
    outer loop
      vertex 1.011271242968684 -2.5195336722218107 -2.519533672221811
      vertex 1.1111404660392044 -3.1758756024193584 -3.1758756024193593
      vertex 1.1888206453689416 -2.2731350152805163 -2.2731350152805168
    endloop
  endfacet
  facet normal -0.9569403357322089 0.2052622637611785 0.20526226376117856
    outer loop
      vertex 1.8477590650225735 -2.541196100146197 -2.5411961001461973
      vertex 1.8477590650225735 -4 -1.0823922002923947
      vertex 1.9615705608064609 -2.2758993792829427 -2.275899379282943
    endloop
  endfacet
  facet normal -0.9951847266721969 0.06930858459954581 0.06930858459954584
    outer loop
      vertex 1.9615705608064609 -2.2758993792829427 -2.275899379282943
      vertex 1.9615705608064609 -4 -0.5517987585658866
      vertex 2 -2 -2
    endloop
  endfacet
  facet normal 0.9569403357322089 0.20526226376117856 0.20526226376117862
    outer loop
      vertex -1.8477590650225735 -4 -1.0823922002923947
      vertex -1.8477590650225735 -2.541196100146197 -2.5411961001461973
      vertex -1.9615705608064609 -4 -0.5517987585658866
    endloop
  endfacet
  facet normal 1.4826747896900487e-13 -0.707106781186554 0.7071067811865409
    outer loop
      vertex 1.1888206453689416 -2.2731350152805163 -2.2731350152805168
      vertex 1.1111404660392044 -3.1758756024193584 -3.1758756024193593
      vertex 1.2499999999999998 -1.9999999999999976 -2.0000000000000058
    endloop
  endfacet
  facet normal -2.0559678293989714e-15 -0.7071067811865475 0.7071067811865475
    outer loop
      vertex 1.1111404660392044 -3.1758756024193584 -3.1758756024193593
      vertex 1.4142135623730951 -3 -3
      vertex 1.4142135623730951 -1 -0.9999999999999998
    endloop
  endfacet
  facet normal 4.913801887552834e-16 -0.7071067811865476 0.7071067811865476
    outer loop
      vertex 0 -0.5857864376269051 -0.5857864376269046
      vertex 0 -1.1161165235168071 -1.1161165235168067
      vertex 0.3862712429686842 -1.1593768600450565 -1.1593768600450562
    endloop
  endfacet
  facet normal 1.5421796484383207e-15 -0.7071067811865476 0.7071067811865474
    outer loop
      vertex 1.4142135623730951 -3 -3
      vertex 1.6629392246050905 -2.785694958387102 -2.7856949583871025
      vertex 1.6629392246050905 -1.214305041612898 -1.2143050416128978
    endloop
  endfacet
  facet normal 6.253392723572314e-16 -0.7071067811865477 0.7071067811865472
    outer loop
      vertex 1.6629392246050905 -2.785694958387102 -2.7856949583871025
      vertex 1.8477590650225735 -2.541196100146197 -2.5411961001461973
      vertex 1.8477590650225735 -1.458803899853803 -1.4588038998538029
    endloop
  endfacet
  facet normal -2.053696609409961e-17 -0.7071067811865477 0.7071067811865474
    outer loop
      vertex 0.3901806440322565 -0.6129601546778527 -0.6129601546778523
      vertex 0 -0.5857864376269051 -0.5857864376269046
      vertex 0.3862712429686842 -1.1593768600450565 -1.1593768600450562
    endloop
  endfacet
  facet normal -9.49888120402479e-18 -0.7071067811865475 0.7071067811865475
    outer loop
      vertex 0.3901806440322565 -0.6129601546778527 -0.6129601546778523
      vertex 0.7347315653655914 -1.2849232464778897 -1.2849232464778892
      vertex 0.7653668647301796 -0.6934370351236236 -0.6934370351236232
    endloop
  endfacet
  facet normal 0.09801714032956073 -0.7037018687631911 -0.7037018687631913
    outer loop
      vertex 0 -0.5857864376269051 -0.5857864376269046
      vertex -0.3901806440322565 -4 2.7740796906442937
      vertex -0.3901806440322565 -0.6129601546778527 -0.6129601546778523
    endloop
  endfacet
  facet normal -2.2507999083303649e-13 -0.707106781186532 0.707106781186563
    outer loop
      vertex 1.2499999999999998 -1.9999999999999976 -2.0000000000000058
      vertex 1.1111404660392044 -3.1758756024193584 -3.1758756024193593
      vertex 1.4142135623730951 -1 -0.9999999999999998
    endloop
  endfacet
  facet normal 0.7730104533627372 -0.44858379317131775 -0.44858379317131797
    outer loop
      vertex -1.4142135623730951 -1 -0.9999999999999998
      vertex -1.4142135623730951 -4 1.999999999999999
      vertex -1.6629392246050905 -1.214305041612898 -1.2143050416128978
    endloop
  endfacet
  facet normal 1 0 0
    outer loop
      vertex 15 -4 3
      vertex 15 -4 -14
      vertex 15 0 -14
    endloop
  endfacet
  facet normal 1 0 0
    outer loop
      vertex 15 0 0
      vertex 15 -3 3
      vertex 15 0 -14
    endloop
  endfacet
  facet normal 0 -1 0
    outer loop
      vertex 1.1111404660392044 -4 2.3517512048387164
      vertex 1.4142135623730951 -4 1.999999999999999
      vertex 15 -4 3
    endloop
  endfacet
  facet normal 0 -1 0
    outer loop
      vertex 1.6629392246050905 -4 1.5713899167742034
      vertex 15 -4 3
      vertex 1.4142135623730951 -4 1.999999999999999
    endloop
  endfacet
  facet normal 0 -1 0
    outer loop
      vertex 1.6629392246050905 -4 1.5713899167742034
      vertex 1.8477590650225735 -4 1.0823922002923931
      vertex 15 -4 3
    endloop
  endfacet
  facet normal 0 -1 0
    outer loop
      vertex 1.8477590650225735 -4 1.0823922002923931
      vertex 1.9615705608064609 -4 0.551798758565885
      vertex 15 -4 3
    endloop
  endfacet
  facet normal 0 -1 0
    outer loop
      vertex 1.9615705608064609 -4 0.551798758565885
      vertex 2 -4 -7.899127713371097e-16
      vertex 15 -4 3
    endloop
  endfacet
  facet normal 0 0 1
    outer loop
      vertex 15 -3 3
      vertex -15 -4 3
      vertex 15 -4 3
    endloop
  endfacet
  facet normal 0 -1 0
    outer loop
      vertex 15 -4 3
      vertex 0.3901806440322565 -4 2.7740796906442937
      vertex 0.7653668647301796 -4 2.6131259297527523
    endloop
  endfacet
  facet normal 0 -1 0
    outer loop
      vertex 15 -4 3
      vertex 0 -4 2.828427124746189
      vertex 0.3901806440322565 -4 2.7740796906442937
    endloop
  endfacet
  facet normal 1 0 0
    outer loop
      vertex 15 -3 3
      vertex 15 -4 3
      vertex 15 0 -14
    endloop
  endfacet
  facet normal 0 0 -1
    outer loop
      vertex 15 -4 -14
      vertex -15 0 -14
      vertex 15 0 -14
    endloop
  endfacet
  facet normal 0 1 0
    outer loop
      vertex 15 0 -14
      vertex -0.3862712429686842 0 -5.681246279909877
      vertex 0 0 -5.767766952966387
    endloop
  endfacet
  facet normal 0 1 0
    outer loop
      vertex 15 0 -14
      vertex 0 0 -5.767766952966387
      vertex 0.3862712429686842 0 -5.681246279909877
    endloop
  endfacet
  facet normal 0 1 0
    outer loop
      vertex 15 0 -14
      vertex 0.3862712429686842 0 -5.681246279909877
      vertex 0.7347315653655914 0 -5.430153507044222
    endloop
  endfacet
  facet normal 0 1 0
    outer loop
      vertex 0.7347315653655914 0 -5.430153507044222
      vertex 1.0112712429686843 0 -5.039067344443621
      vertex 15 0 -14
    endloop
  endfacet
  facet normal 0 1 0
    outer loop
      vertex 1.0112712429686843 0 -5.039067344443621
      vertex 1.1888206453689416 0 -4.546270030561033
      vertex 15 0 -14
    endloop
  endfacet
  facet normal 0 1 0
    outer loop
      vertex 1.1888206453689416 0 -4.546270030561033
      vertex 1.2499999999999993 0 -4
      vertex 15 0 -14
    endloop
  endfacet
  facet normal 0 1 0
    outer loop
      vertex 1.2499999999999993 0 -4
      vertex 15 0 0
      vertex 15 0 -14
    endloop
  endfacet
  facet normal 0 -1 0
    outer loop
      vertex 2 -4 -7.899127713371097e-16
      vertex 1.9615705608064609 -4 -0.5517987585658866
      vertex 15 -4 3
    endloop
  endfacet
  facet normal 0 -1 0
    outer loop
      vertex 1.9615705608064609 -4 -0.5517987585658866
      vertex 1.8477590650225735 -4 -1.0823922002923947
      vertex 15 -4 3
    endloop
  endfacet
  facet normal 0 -1 0
    outer loop
      vertex 1.8477590650225735 -4 -1.0823922002923947
      vertex 1.6629392246050905 -4 -1.571389916774205
      vertex 15 -4 3
    endloop
  endfacet
  facet normal 0 -1 0
    outer loop
      vertex 1.6629392246050905 -4 -1.571389916774205
      vertex 1.4142135623730951 -4 -2.0000000000000004
      vertex 15 -4 3
    endloop
  endfacet
  facet normal 0 -1 0
    outer loop
      vertex 1.4142135623730951 -4 -2.0000000000000004
      vertex 1.1111404660392044 -4 -2.351751204838718
      vertex 15 -4 3
    endloop
  endfacet
  facet normal 0 -1 0
    outer loop
      vertex 1.1111404660392044 -4 -2.351751204838718
      vertex 0.7653668647301796 -4 -2.6131259297527536
      vertex 15 -4 3
    endloop
  endfacet
  facet normal 0 -1 0
    outer loop
      vertex 0.7653668647301796 -4 -2.6131259297527536
      vertex 0.3901806440322565 -4 -2.7740796906442955
      vertex 15 -4 3
    endloop
  endfacet
  facet normal 0 -1 0
    outer loop
      vertex -15 -4 3
      vertex 0 -4 2.828427124746189
      vertex 15 -4 3
    endloop
  endfacet
  facet normal 0 -1 0
    outer loop
      vertex -15 -4 -14
      vertex -1.1111404660392044 -4 -2.351751204838718
      vertex -1.4142135623730951 -4 -2.0000000000000004
    endloop
  endfacet
  facet normal -1 0 0
    outer loop
      vertex -15 -4 -14
      vertex -15 -3 3
      vertex -15 0 -14
    endloop
  endfacet
  facet normal 0 -1 0
    outer loop
      vertex -15 -4 -14
      vertex 15 -4 -14
      vertex 15 -4 3
    endloop
  endfacet
  facet normal 0 0.7071067811865475 0.7071067811865475
    outer loop
      vertex -15 0 0
      vertex -15 -3 3
      vertex 15 0 0
    endloop
  endfacet
  facet normal 0 1 0
    outer loop
      vertex -0.3862712429686842 0 -2.318753720090113
      vertex -15 0 0
      vertex 0 0 -2.232233047033614
    endloop
  endfacet
  facet normal 0 1 0
    outer loop
      vertex -0.7347315653655914 0 -2.569846492955779
      vertex -15 0 0
      vertex -0.3862712429686842 0 -2.318753720090113
    endloop
  endfacet
  facet normal 0 1 0
    outer loop
      vertex -1.011271242968684 0 -2.960932655556374
      vertex -15 0 0
      vertex -0.7347315653655914 0 -2.569846492955779
    endloop
  endfacet
  facet normal 0 1 0
    outer loop
      vertex -1.1888206453689416 0 -3.4537299694389674
      vertex -15 0 0
      vertex -1.011271242968684 0 -2.960932655556374
    endloop
  endfacet
  facet normal 0 1 0
    outer loop
      vertex -1.2499999999999998 0 -4.0000000000000036
      vertex -15 0 0
      vertex -1.1888206453689416 0 -3.4537299694389674
    endloop
  endfacet
  facet normal 0 1 0
    outer loop
      vertex -1.1888206453689416 0 -4.546270030561033
      vertex -15 0 0
      vertex -1.2499999999999998 0 -4.0000000000000036
    endloop
  endfacet
  facet normal 0 1 0
    outer loop
      vertex -1.011271242968684 0 -5.039067344443621
      vertex -15 0 0
      vertex -1.1888206453689416 0 -4.546270030561033
    endloop
  endfacet
  facet normal 0 1 0
    outer loop
      vertex -0.7347315653655914 0 -5.430153507044222
      vertex -15 0 0
      vertex -1.011271242968684 0 -5.039067344443621
    endloop
  endfacet
  facet normal 0 1 0
    outer loop
      vertex -0.3862712429686842 0 -5.681246279909877
      vertex -15 0 0
      vertex -0.7347315653655914 0 -5.430153507044222
    endloop
  endfacet
  facet normal -1 0 0
    outer loop
      vertex -15 0 -14
      vertex -15 -3 3
      vertex -15 0 0
    endloop
  endfacet
  facet normal 0 1 0
    outer loop
      vertex 15 0 -14
      vertex -15 0 0
      vertex -0.3862712429686842 0 -5.681246279909877
    endloop
  endfacet
  facet normal 0 0.7071067811865475 0.7071067811865475
    outer loop
      vertex 15 0 0
      vertex -15 -3 3
      vertex 15 -3 3
    endloop
  endfacet
  facet normal 0 1 0
    outer loop
      vertex -15 0 -14
      vertex -15 0 0
      vertex 15 0 -14
    endloop
  endfacet
  facet normal 0 0 1
    outer loop
      vertex -15 -3 3
      vertex -15 -4 3
      vertex 15 -3 3
    endloop
  endfacet
  facet normal 0 -1 0
    outer loop
      vertex -15 -4 3
      vertex -0.3901806440322565 -4 2.7740796906442937
      vertex 0 -4 2.828427124746189
    endloop
  endfacet
  facet normal 0 -1 0
    outer loop
      vertex -15 -4 3
      vertex -0.7653668647301796 -4 2.6131259297527523
      vertex -0.3901806440322565 -4 2.7740796906442937
    endloop
  endfacet
  facet normal 0 -1 0
    outer loop
      vertex -15 -4 3
      vertex -1.1111404660392044 -4 2.3517512048387164
      vertex -0.7653668647301796 -4 2.6131259297527523
    endloop
  endfacet
  facet normal 0 -1 0
    outer loop
      vertex -15 -4 3
      vertex -1.4142135623730951 -4 1.999999999999999
      vertex -1.1111404660392044 -4 2.3517512048387164
    endloop
  endfacet
  facet normal 0 -1 0
    outer loop
      vertex -15 -4 3
      vertex -1.6629392246050905 -4 1.5713899167742034
      vertex -1.4142135623730951 -4 1.999999999999999
    endloop
  endfacet
  facet normal 0 -1 0
    outer loop
      vertex -15 -4 3
      vertex -1.8477590650225735 -4 1.0823922002923931
      vertex -1.6629392246050905 -4 1.5713899167742034
    endloop
  endfacet
  facet normal 0 -1 0
    outer loop
      vertex -15 -4 3
      vertex -1.9615705608064609 -4 0.551798758565885
      vertex -1.8477590650225735 -4 1.0823922002923931
    endloop
  endfacet
  facet normal 0 -1 0
    outer loop
      vertex -15 -4 3
      vertex -2 -4 -7.899127713371097e-16
      vertex -1.9615705608064609 -4 0.551798758565885
    endloop
  endfacet
  facet normal 0 -1 0
    outer loop
      vertex -15 -4 3
      vertex -1.9615705608064609 -4 -0.5517987585658866
      vertex -2 -4 -7.899127713371097e-16
    endloop
  endfacet
  facet normal 0 -1 0
    outer loop
      vertex -1.8477590650225735 -4 -1.0823922002923947
      vertex -1.9615705608064609 -4 -0.5517987585658866
      vertex -15 -4 3
    endloop
  endfacet
  facet normal 0 -1 0
    outer loop
      vertex -15 -4 3
      vertex -1.6629392246050905 -4 -1.571389916774205
      vertex -1.8477590650225735 -4 -1.0823922002923947
    endloop
  endfacet
  facet normal 0 -1 0
    outer loop
      vertex -15 -4 3
      vertex -15 -4 -14
      vertex -1.6629392246050905 -4 -1.571389916774205
    endloop
  endfacet
  facet normal -1 0 0
    outer loop
      vertex -15 -3 3
      vertex -15 -4 -14
      vertex -15 -4 3
    endloop
  endfacet
  facet normal 0 0 -1
    outer loop
      vertex -15 -4 -14
      vertex -15 0 -14
      vertex 15 -4 -14
    endloop
  endfacet
  facet normal 0 -1 0
    outer loop
      vertex 0 -4 -2.8284271247461907
      vertex -15 -4 -14
      vertex 0.3901806440322565 -4 -2.7740796906442955
    endloop
  endfacet
  facet normal 0 -1 0
    outer loop
      vertex -0.3901806440322565 -4 -2.7740796906442955
      vertex -15 -4 -14
      vertex 0 -4 -2.8284271247461907
    endloop
  endfacet
  facet normal 0 1 0
    outer loop
      vertex 1.011271242968684 0 -2.960932655556374
      vertex 0.7347315653655914 0 -2.569846492955779
      vertex 15 0 0
    endloop
  endfacet
  facet normal 0 1 0
    outer loop
      vertex 0.3862712429686842 0 -2.318753720090113
      vertex 0 0 -2.232233047033614
      vertex 15 0 0
    endloop
  endfacet
  facet normal 0 1 0
    outer loop
      vertex 0.7347315653655914 0 -2.569846492955779
      vertex 0.3862712429686842 0 -2.318753720090113
      vertex 15 0 0
    endloop
  endfacet
  facet normal 0 1 0
    outer loop
      vertex 15 0 0
      vertex 1.2499999999999993 0 -4
      vertex 1.1888206453689416 0 -3.4537299694389674
    endloop
  endfacet
  facet normal 0 1 0
    outer loop
      vertex 15 0 0
      vertex 1.1888206453689416 0 -3.4537299694389674
      vertex 1.011271242968684 0 -2.960932655556374
    endloop
  endfacet
  facet normal 0 -1 0
    outer loop
      vertex -0.7653668647301796 -4 -2.6131259297527536
      vertex -15 -4 -14
      vertex -0.3901806440322565 -4 -2.7740796906442955
    endloop
  endfacet
  facet normal 0 -1 0
    outer loop
      vertex -15 -4 -14
      vertex -1.4142135623730951 -4 -2.0000000000000004
      vertex -1.6629392246050905 -4 -1.571389916774205
    endloop
  endfacet
  facet normal 0 -1 0
    outer loop
      vertex -15 -4 -14
      vertex -0.7653668647301796 -4 -2.6131259297527536
      vertex -1.1111404660392044 -4 -2.351751204838718
    endloop
  endfacet
  facet normal 0 -1 0
    outer loop
      vertex 0.3901806440322565 -4 -2.7740796906442955
      vertex -15 -4 -14
      vertex 15 -4 3
    endloop
  endfacet
  facet normal 0 1 0
    outer loop
      vertex 0 0 -2.232233047033614
      vertex -15 0 0
      vertex 15 0 0
    endloop
  endfacet
  facet normal 0 -1 0
    outer loop
      vertex 15 -4 3
      vertex 0.7653668647301796 -4 2.6131259297527523
      vertex 1.1111404660392044 -4 2.3517512048387164
    endloop
  endfacet
endsolid OpenSCAD_Model
