solid OpenSCAD_Model
  facet normal -0.57735 -0.57735 -0.57735
    outer loop
      vertex -70 -56 0
      vertex -72 -54 0
      vertex -70 -54 -2
    endloop
  endfacet
  facet normal 1 -0 0
    outer loop
      vertex 72 -54 7.5
      vertex 72 54 0
      vertex 72 54 7.5
    endloop
  endfacet
  facet normal 1 0 0
    outer loop
      vertex 72 54 0
      vertex 72 -54 7.5
      vertex 72 -54 0
    endloop
  endfacet
  facet normal 0 0.707107 -0.707107
    outer loop
      vertex 70 54 -2
      vertex -70 56 0
      vertex 70 56 0
    endloop
  endfacet
  facet normal 0 0.707107 -0.707107
    outer loop
      vertex -70 56 0
      vertex 70 54 -2
      vertex -70 54 -2
    endloop
  endfacet
  facet normal -0.57735 0.57735 -0.57735
    outer loop
      vertex -70 54 -2
      vertex -72 54 0
      vertex -70 56 0
    endloop
  endfacet
  facet normal 0.57735 -0.57735 -0.57735
    outer loop
      vertex 72 -54 0
      vertex 70 -56 0
      vertex 70 -54 -2
    endloop
  endfacet
  facet normal 0 0 1
    outer loop
      vertex 70 56 7.5
      vertex 20 54.01 7.5
      vertex 70 54 7.5
    endloop
  endfacet
  facet normal 0 0 1
    outer loop
      vertex 70 56 7.5
      vertex -20 54.01 7.5
      vertex 20 54.01 7.5
    endloop
  endfacet
  facet normal -0 0 1
    outer loop
      vertex -70 56 7.5
      vertex -20 54.01 7.5
      vertex 70 56 7.5
    endloop
  endfacet
  facet normal 0 0 1
    outer loop
      vertex -70 54 7.5
      vertex -20 54.01 7.5
      vertex -70 56 7.5
    endloop
  endfacet
  facet normal 0 0 1
    outer loop
      vertex -20 54.01 7.5
      vertex -70 54 7.5
      vertex -20 54 7.5
    endloop
  endfacet
  facet normal 0 0 1
    outer loop
      vertex -72 54 7.5
      vertex -70 54 7.5
      vertex -70 56 7.5
    endloop
  endfacet
  facet normal 0 0 1
    outer loop
      vertex -70 54 7.5
      vertex -72 54 7.5
      vertex -70 -54 7.5
    endloop
  endfacet
  facet normal 0 0 1
    outer loop
      vertex -72 -54 7.5
      vertex -70 -54 7.5
      vertex -72 54 7.5
    endloop
  endfacet
  facet normal 0 0 1
    outer loop
      vertex -70 -54 7.5
      vertex -72 -54 7.5
      vertex -70 -56 7.5
    endloop
  endfacet
  facet normal 0 0 1
    outer loop
      vertex 70 54 7.5
      vertex 72 54 7.5
      vertex 70 56 7.5
    endloop
  endfacet
  facet normal 0 0 1
    outer loop
      vertex 72 54 7.5
      vertex 70 54 7.5
      vertex 72 -54 7.5
    endloop
  endfacet
  facet normal 0 0 1
    outer loop
      vertex 70 -54 7.5
      vertex 72 -54 7.5
      vertex 70 54 7.5
    endloop
  endfacet
  facet normal -0 0 1
    outer loop
      vertex 70 -54 7.5
      vertex 70 -56 7.5
      vertex 72 -54 7.5
    endloop
  endfacet
  facet normal -0 0 1
    outer loop
      vertex -70 -54 7.5
      vertex 70 -56 7.5
      vertex 70 -54 7.5
    endloop
  endfacet
  facet normal 0 0 1
    outer loop
      vertex 70 -56 7.5
      vertex -70 -54 7.5
      vertex -70 -56 7.5
    endloop
  endfacet
  facet normal 0 0 1
    outer loop
      vertex 70 54 7.5
      vertex 20 54.01 7.5
      vertex 20 54 7.5
    endloop
  endfacet
  facet normal 0 -1 0
    outer loop
      vertex -70 -56 0
      vertex 70 -56 7.5
      vertex -70 -56 7.5
    endloop
  endfacet
  facet normal 0 -1 -0
    outer loop
      vertex 70 -56 7.5
      vertex -70 -56 0
      vertex 70 -56 0
    endloop
  endfacet
  facet normal -0.707107 0.707107 0
    outer loop
      vertex -72 54 0
      vertex -70 56 7.5
      vertex -70 56 0
    endloop
  endfacet
  facet normal -0.707107 0.707107 0
    outer loop
      vertex -70 56 7.5
      vertex -72 54 0
      vertex -72 54 7.5
    endloop
  endfacet
  facet normal -1 0 0
    outer loop
      vertex -72 -54 0
      vertex -72 54 7.5
      vertex -72 54 0
    endloop
  endfacet
  facet normal -1 -0 0
    outer loop
      vertex -72 54 7.5
      vertex -72 -54 0
      vertex -72 -54 7.5
    endloop
  endfacet
  facet normal 0 0 -1
    outer loop
      vertex 70 -54 -2
      vertex 66.9901 -50.9901 -2
      vertex 70 54 -2
    endloop
  endfacet
  facet normal 0 0 -1
    outer loop
      vertex 70 -54 -2
      vertex -66.9901 -50.9901 -2
      vertex 66.9901 -50.9901 -2
    endloop
  endfacet
  facet normal -0 0 -1
    outer loop
      vertex -66.9901 -50.9901 -2
      vertex -70 -54 -2
      vertex -66.9901 50.9901 -2
    endloop
  endfacet
  facet normal 0 0 -1
    outer loop
      vertex -70 -54 -2
      vertex -66.9901 -50.9901 -2
      vertex 70 -54 -2
    endloop
  endfacet
  facet normal 0 0 -1
    outer loop
      vertex 66.9901 50.9901 -2
      vertex 70 54 -2
      vertex 66.9901 -50.9901 -2
    endloop
  endfacet
  facet normal 0 0 -1
    outer loop
      vertex -66.9901 50.9901 -2
      vertex 70 54 -2
      vertex 66.9901 50.9901 -2
    endloop
  endfacet
  facet normal 0 0 -1
    outer loop
      vertex -66.9901 50.9901 -2
      vertex -70 54 -2
      vertex 70 54 -2
    endloop
  endfacet
  facet normal 0 0 -1
    outer loop
      vertex -70 54 -2
      vertex -66.9901 50.9901 -2
      vertex -70 -54 -2
    endloop
  endfacet
  facet normal -0.707107 0 -0.707107
    outer loop
      vertex -70 -54 -2
      vertex -72 54 0
      vertex -70 54 -2
    endloop
  endfacet
  facet normal -0.707107 -0 -0.707107
    outer loop
      vertex -72 54 0
      vertex -70 -54 -2
      vertex -72 -54 0
    endloop
  endfacet
  facet normal 0 1 -0
    outer loop
      vertex 70 56 0
      vertex -70 56 7.5
      vertex 70 56 7.5
    endloop
  endfacet
  facet normal 0 1 0
    outer loop
      vertex -70 56 7.5
      vertex 70 56 0
      vertex -70 56 0
    endloop
  endfacet
  facet normal 0 -0.707107 -0.707107
    outer loop
      vertex -70 -54 -2
      vertex 70 -56 0
      vertex -70 -56 0
    endloop
  endfacet
  facet normal 0 -0.707107 -0.707107
    outer loop
      vertex 70 -56 0
      vertex -70 -54 -2
      vertex 70 -54 -2
    endloop
  endfacet
  facet normal -0.707107 -0.707107 0
    outer loop
      vertex -70 -56 0
      vertex -72 -54 7.5
      vertex -72 -54 0
    endloop
  endfacet
  facet normal -0.707107 -0.707107 0
    outer loop
      vertex -72 -54 7.5
      vertex -70 -56 0
      vertex -70 -56 7.5
    endloop
  endfacet
  facet normal 0.707107 0 -0.707107
    outer loop
      vertex 72 -54 0
      vertex 70 54 -2
      vertex 72 54 0
    endloop
  endfacet
  facet normal 0.707107 0 -0.707107
    outer loop
      vertex 70 54 -2
      vertex 72 -54 0
      vertex 70 -54 -2
    endloop
  endfacet
  facet normal 0.707107 -0.707107 0
    outer loop
      vertex 70 -56 7.5
      vertex 72 -54 0
      vertex 72 -54 7.5
    endloop
  endfacet
  facet normal 0.707107 -0.707107 0
    outer loop
      vertex 72 -54 0
      vertex 70 -56 7.5
      vertex 70 -56 0
    endloop
  endfacet
  facet normal 0.57735 0.57735 -0.57735
    outer loop
      vertex 72 54 0
      vertex 70 54 -2
      vertex 70 56 0
    endloop
  endfacet
  facet normal 0.707107 0.707107 0
    outer loop
      vertex 72 54 7.5
      vertex 70 56 0
      vertex 70 56 7.5
    endloop
  endfacet
  facet normal 0.707107 0.707107 0
    outer loop
      vertex 70 56 0
      vertex 72 54 7.5
      vertex 72 54 0
    endloop
  endfacet
  facet normal -1 0 0
    outer loop
      vertex 70 54 0
      vertex 70 39.01 1.5
      vertex 70 54 1.5
    endloop
  endfacet
  facet normal -1 0 0
    outer loop
      vertex 70 39.01 1.5
      vertex 70 -39.01 1.5
      vertex 70 39.01 2.5
    endloop
  endfacet
  facet normal -1 0 0
    outer loop
      vertex 70 54 0
      vertex 70 -39.01 1.5
      vertex 70 39.01 1.5
    endloop
  endfacet
  facet normal -1 0 0
    outer loop
      vertex 70 -54 0
      vertex 70 -39.01 1.5
      vertex 70 54 0
    endloop
  endfacet
  facet normal -1 -0 0
    outer loop
      vertex 70 -39.01 1.5
      vertex 70 -54 0
      vertex 70 -54 1.5
    endloop
  endfacet
  facet normal -1 0 0
    outer loop
      vertex 70 39.01 2.5
      vertex 70 54 7.5
      vertex 70 54 2.5
    endloop
  endfacet
  facet normal -1 0 0
    outer loop
      vertex 70 -39.01 2.5
      vertex 70 39.01 2.5
      vertex 70 -39.01 1.5
    endloop
  endfacet
  facet normal -1 0 0
    outer loop
      vertex 70 39.01 2.5
      vertex 70 -39.01 2.5
      vertex 70 54 7.5
    endloop
  endfacet
  facet normal -1 0 0
    outer loop
      vertex 70 -54 7.5
      vertex 70 -39.01 2.5
      vertex 70 -54 2.5
    endloop
  endfacet
  facet normal -1 0 0
    outer loop
      vertex 70 -39.01 2.5
      vertex 70 -54 7.5
      vertex 70 54 7.5
    endloop
  endfacet
  facet normal 0 0 1
    outer loop
      vertex 70 54 0
      vertex 65.0099 49.0099 0
      vertex 70 -54 0
    endloop
  endfacet
  facet normal 0 0 1
    outer loop
      vertex 70 54 0
      vertex -65.0099 49.0099 0
      vertex 65.0099 49.0099 0
    endloop
  endfacet
  facet normal 0 0 1
    outer loop
      vertex -65.0099 49.0099 0
      vertex -70 54 0
      vertex -65.0099 -49.0099 0
    endloop
  endfacet
  facet normal -0 0 1
    outer loop
      vertex -70 54 0
      vertex -65.0099 49.0099 0
      vertex 70 54 0
    endloop
  endfacet
  facet normal -0 0 1
    outer loop
      vertex 65.0099 -49.0099 0
      vertex 70 -54 0
      vertex 65.0099 49.0099 0
    endloop
  endfacet
  facet normal -0 0 1
    outer loop
      vertex -65.0099 -49.0099 0
      vertex 70 -54 0
      vertex 65.0099 -49.0099 0
    endloop
  endfacet
  facet normal 0 0 1
    outer loop
      vertex -65.0099 -49.0099 0
      vertex -70 -54 0
      vertex 70 -54 0
    endloop
  endfacet
  facet normal 0 0 1
    outer loop
      vertex -70 -54 0
      vertex -65.0099 -49.0099 0
      vertex -70 54 0
    endloop
  endfacet
  facet normal 1 0 0
    outer loop
      vertex -70 54 7.5
      vertex -70 39.01 2.5
      vertex -70 54 2.5
    endloop
  endfacet
  facet normal 1 0 0
    outer loop
      vertex -70 39.01 2.5
      vertex -70 -39.01 2.5
      vertex -70 39.01 1.5
    endloop
  endfacet
  facet normal 1 0 0
    outer loop
      vertex -70 54 7.5
      vertex -70 -39.01 2.5
      vertex -70 39.01 2.5
    endloop
  endfacet
  facet normal 1 -0 0
    outer loop
      vertex -70 -54 7.5
      vertex -70 -39.01 2.5
      vertex -70 54 7.5
    endloop
  endfacet
  facet normal 1 0 0
    outer loop
      vertex -70 -39.01 2.5
      vertex -70 -54 7.5
      vertex -70 -54 2.5
    endloop
  endfacet
  facet normal 1 -0 0
    outer loop
      vertex -70 39.01 1.5
      vertex -70 54 0
      vertex -70 54 1.5
    endloop
  endfacet
  facet normal 1 0 0
    outer loop
      vertex -70 -39.01 1.5
      vertex -70 39.01 1.5
      vertex -70 -39.01 2.5
    endloop
  endfacet
  facet normal 1 0 0
    outer loop
      vertex -70 39.01 1.5
      vertex -70 -39.01 1.5
      vertex -70 54 0
    endloop
  endfacet
  facet normal 1 0 0
    outer loop
      vertex -70 -54 0
      vertex -70 -39.01 1.5
      vertex -70 -54 1.5
    endloop
  endfacet
  facet normal 1 0 0
    outer loop
      vertex -70 -39.01 1.5
      vertex -70 -54 0
      vertex -70 54 0
    endloop
  endfacet
  facet normal 0 -1 0
    outer loop
      vertex -55.01 54 2.5
      vertex -20 54 7.5
      vertex -70 54 7.5
    endloop
  endfacet
  facet normal 0 -1 -0
    outer loop
      vertex -20 54 7.5
      vertex -55.01 54 2.5
      vertex -20 54 4.5
    endloop
  endfacet
  facet normal 0 -1 0
    outer loop
      vertex -55.01 54 2.5
      vertex -70 54 7.5
      vertex -70 54 2.5
    endloop
  endfacet
  facet normal 0 -1 0
    outer loop
      vertex 55.01 54 2.5
      vertex 20 54 7.5
      vertex 20 54 4.5
    endloop
  endfacet
  facet normal 0 -1 0
    outer loop
      vertex -55.01 54 1.5
      vertex -20 54 4.5
      vertex -55.01 54 2.5
    endloop
  endfacet
  facet normal 0 -1 -0
    outer loop
      vertex -20 54 4.5
      vertex -55.01 54 1.5
      vertex 20 54 4.5
    endloop
  endfacet
  facet normal 0 -1 0
    outer loop
      vertex 20 54 7.5
      vertex 55.01 54 2.5
      vertex 70 54 7.5
    endloop
  endfacet
  facet normal 0 -1 -0
    outer loop
      vertex 70 54 7.5
      vertex 55.01 54 2.5
      vertex 70 54 2.5
    endloop
  endfacet
  facet normal 0 -1 0
    outer loop
      vertex -70 54 0
      vertex -55.01 54 1.5
      vertex -70 54 1.5
    endloop
  endfacet
  facet normal 0 -1 -0
    outer loop
      vertex -55.01 54 1.5
      vertex -70 54 0
      vertex 55.01 54 1.5
    endloop
  endfacet
  facet normal 0 -1 0
    outer loop
      vertex 70 54 0
      vertex 55.01 54 1.5
      vertex -70 54 0
    endloop
  endfacet
  facet normal 0 -1 0
    outer loop
      vertex 55.01 54 1.5
      vertex 70 54 0
      vertex 70 54 1.5
    endloop
  endfacet
  facet normal 0 -1 0
    outer loop
      vertex 55.01 54 1.5
      vertex 20 54 4.5
      vertex -55.01 54 1.5
    endloop
  endfacet
  facet normal 0 -1 0
    outer loop
      vertex 20 54 4.5
      vertex 55.01 54 1.5
      vertex 55.01 54 2.5
    endloop
  endfacet
  facet normal 0 1 -0
    outer loop
      vertex 70 -54 0
      vertex 55.01 -54 1.5
      vertex 70 -54 1.5
    endloop
  endfacet
  facet normal 0 1 0
    outer loop
      vertex 55.01 -54 1.5
      vertex 70 -54 0
      vertex -55.01 -54 1.5
    endloop
  endfacet
  facet normal 0 1 0
    outer loop
      vertex -70 -54 0
      vertex -55.01 -54 1.5
      vertex 70 -54 0
    endloop
  endfacet
  facet normal 0 1 0
    outer loop
      vertex -55.01 -54 1.5
      vertex -70 -54 0
      vertex -70 -54 1.5
    endloop
  endfacet
  facet normal 0 1 -0
    outer loop
      vertex 55.01 -54 1.5
      vertex -55.01 -54 2.5
      vertex 55.01 -54 2.5
    endloop
  endfacet
  facet normal 0 1 0
    outer loop
      vertex -55.01 -54 2.5
      vertex 55.01 -54 1.5
      vertex -55.01 -54 1.5
    endloop
  endfacet
  facet normal 0 1 0
    outer loop
      vertex 55.01 -54 2.5
      vertex 70 -54 7.5
      vertex 70 -54 2.5
    endloop
  endfacet
  facet normal 0 1 0
    outer loop
      vertex 70 -54 7.5
      vertex 55.01 -54 2.5
      vertex -70 -54 7.5
    endloop
  endfacet
  facet normal 0 1 -0
    outer loop
      vertex -55.01 -54 2.5
      vertex -70 -54 7.5
      vertex 55.01 -54 2.5
    endloop
  endfacet
  facet normal 0 1 0
    outer loop
      vertex -70 -54 7.5
      vertex -55.01 -54 2.5
      vertex -70 -54 2.5
    endloop
  endfacet
  facet normal 0 -0.710616 -0.70358
    outer loop
      vertex -66.9901 50.9901 -2
      vertex 65.0099 49.0099 0
      vertex -65.0099 49.0099 0
    endloop
  endfacet
  facet normal 0 -0.710616 -0.70358
    outer loop
      vertex 65.0099 49.0099 0
      vertex -66.9901 50.9901 -2
      vertex 66.9901 50.9901 -2
    endloop
  endfacet
  facet normal 0.710616 0 -0.70358
    outer loop
      vertex -65.0099 -49.0099 0
      vertex -66.9901 50.9901 -2
      vertex -65.0099 49.0099 0
    endloop
  endfacet
  facet normal 0.710616 0 -0.70358
    outer loop
      vertex -66.9901 50.9901 -2
      vertex -65.0099 -49.0099 0
      vertex -66.9901 -50.9901 -2
    endloop
  endfacet
  facet normal 0 0.710616 -0.70358
    outer loop
      vertex 66.9901 -50.9901 -2
      vertex -65.0099 -49.0099 0
      vertex 65.0099 -49.0099 0
    endloop
  endfacet
  facet normal 0 0.710616 -0.70358
    outer loop
      vertex -65.0099 -49.0099 0
      vertex 66.9901 -50.9901 -2
      vertex -66.9901 -50.9901 -2
    endloop
  endfacet
  facet normal -0.710616 0 -0.70358
    outer loop
      vertex 66.9901 50.9901 -2
      vertex 65.0099 -49.0099 0
      vertex 65.0099 49.0099 0
    endloop
  endfacet
  facet normal -0.710616 0 -0.70358
    outer loop
      vertex 65.0099 -49.0099 0
      vertex 66.9901 50.9901 -2
      vertex 66.9901 -50.9901 -2
    endloop
  endfacet
  facet normal 0 0 -1
    outer loop
      vertex -55.01 -54 1.5
      vertex -70 -54 1.5
      vertex -70 -39.01 1.5
    endloop
  endfacet
  facet normal 0 0 1
    outer loop
      vertex -70 -39.01 2.5
      vertex -70 -54 2.5
      vertex -55.01 -54 2.5
    endloop
  endfacet
  facet normal 0.707107 0.707107 0
    outer loop
      vertex -55.01 -54 2.5
      vertex -70 -39.01 1.5
      vertex -70 -39.01 2.5
    endloop
  endfacet
  facet normal 0.707107 0.707107 0
    outer loop
      vertex -70 -39.01 1.5
      vertex -55.01 -54 2.5
      vertex -55.01 -54 1.5
    endloop
  endfacet
  facet normal -0 0 -1
    outer loop
      vertex -55.01 54 1.5
      vertex -70 39.01 1.5
      vertex -70 54 1.5
    endloop
  endfacet
  facet normal 0.707107 -0.707107 0
    outer loop
      vertex -70 39.01 2.5
      vertex -55.01 54 1.5
      vertex -55.01 54 2.5
    endloop
  endfacet
  facet normal 0.707107 -0.707107 0
    outer loop
      vertex -55.01 54 1.5
      vertex -70 39.01 2.5
      vertex -70 39.01 1.5
    endloop
  endfacet
  facet normal -0 0 1
    outer loop
      vertex -70 54 2.5
      vertex -70 39.01 2.5
      vertex -55.01 54 2.5
    endloop
  endfacet
  facet normal 0 0 -1
    outer loop
      vertex 70 39.01 1.5
      vertex 55.01 54 1.5
      vertex 70 54 1.5
    endloop
  endfacet
  facet normal -0.707107 -0.707107 0
    outer loop
      vertex 70 39.01 1.5
      vertex 55.01 54 2.5
      vertex 55.01 54 1.5
    endloop
  endfacet
  facet normal -0.707107 -0.707107 0
    outer loop
      vertex 55.01 54 2.5
      vertex 70 39.01 1.5
      vertex 70 39.01 2.5
    endloop
  endfacet
  facet normal 0 0 1
    outer loop
      vertex 70 54 2.5
      vertex 55.01 54 2.5
      vertex 70 39.01 2.5
    endloop
  endfacet
  facet normal 0 0 -1
    outer loop
      vertex 70 -54 1.5
      vertex 55.01 -54 1.5
      vertex 70 -39.01 1.5
    endloop
  endfacet
  facet normal 0 0 1
    outer loop
      vertex 70 -39.01 2.5
      vertex 55.01 -54 2.5
      vertex 70 -54 2.5
    endloop
  endfacet
  facet normal -0.707107 0.707107 0
    outer loop
      vertex 55.01 -54 1.5
      vertex 70 -39.01 2.5
      vertex 70 -39.01 1.5
    endloop
  endfacet
  facet normal -0.707107 0.707107 0
    outer loop
      vertex 70 -39.01 2.5
      vertex 55.01 -54 1.5
      vertex 55.01 -54 2.5
    endloop
  endfacet
  facet normal -1 0 0
    outer loop
      vertex -20 54 4.5
      vertex -20 51 7.5
      vertex -20 54 7.5
    endloop
  endfacet
  facet normal 0 0 0
    outer loop
      vertex -20 54.01 7.5
      vertex -20 54 7.5
      vertex -20 51 7.5
    endloop
  endfacet
  facet normal 0 -0.707107 -0.707107
    outer loop
      vertex -20 51 7.5
      vertex 20 54 4.5
      vertex 20 51 7.5
    endloop
  endfacet
  facet normal -0 -0.707107 -0.707107
    outer loop
      vertex 20 54 4.5
      vertex -20 51 7.5
      vertex -20 54 4.5
    endloop
  endfacet
  facet normal 1 0 0
    outer loop
      vertex 20 54 7.5
      vertex 20 51 7.5
      vertex 20 54 4.5
    endloop
  endfacet
  facet normal 0 0 0
    outer loop
      vertex 20 51 7.5
      vertex 20 54 7.5
      vertex 20 54.01 7.5
    endloop
  endfacet
  facet normal -0 0 1
    outer loop
      vertex -20 54.01 7.5
      vertex 20 51 7.5
      vertex 20 54.01 7.5
    endloop
  endfacet
  facet normal 0 0 1
    outer loop
      vertex 20 51 7.5
      vertex -20 54.01 7.5
      vertex -20 51 7.5
    endloop
  endfacet
endsolid OpenSCAD_Model
