solid OpenSCAD_Model
  facet normal -0.57735 -0.57735 -0.57735
    outer loop
      vertex -55.5 -78 0
      vertex -57.5 -76 0
      vertex -55.5 -76 -2
    endloop
  endfacet
  facet normal -0.57735 0.57735 -0.57735
    outer loop
      vertex -55.5 76 -2
      vertex -57.5 76 0
      vertex -55.5 78 0
    endloop
  endfacet
  facet normal -0.707107 0.707107 0
    outer loop
      vertex -57.5 76 0
      vertex -55.5 78 8
      vertex -55.5 78 0
    endloop
  endfacet
  facet normal -0.707107 0.707107 0
    outer loop
      vertex -55.5 78 8
      vertex -57.5 76 0
      vertex -57.5 76 8
    endloop
  endfacet
  facet normal 0.57735 -0.57735 -0.57735
    outer loop
      vertex 57.5 -76 0
      vertex 55.5 -78 0
      vertex 55.5 -76 -2
    endloop
  endfacet
  facet normal 0 0 1
    outer loop
      vertex 55.5 78 8
      vertex 20 76.01 8
      vertex 55.5 76 8
    endloop
  endfacet
  facet normal 0 0 1
    outer loop
      vertex 55.5 78 8
      vertex -20 76.01 8
      vertex 20 76.01 8
    endloop
  endfacet
  facet normal -0 0 1
    outer loop
      vertex -55.5 78 8
      vertex -20 76.01 8
      vertex 55.5 78 8
    endloop
  endfacet
  facet normal 0 0 1
    outer loop
      vertex -55.5 76 8
      vertex -20 76.01 8
      vertex -55.5 78 8
    endloop
  endfacet
  facet normal 0 0 1
    outer loop
      vertex -20 76.01 8
      vertex -55.5 76 8
      vertex -20 76 8
    endloop
  endfacet
  facet normal 0 0 1
    outer loop
      vertex -57.5 76 8
      vertex -55.5 76 8
      vertex -55.5 78 8
    endloop
  endfacet
  facet normal 0 0 1
    outer loop
      vertex -55.5 76 8
      vertex -57.5 76 8
      vertex -55.5 -76 8
    endloop
  endfacet
  facet normal 0 0 1
    outer loop
      vertex -57.5 -76 8
      vertex -55.5 -76 8
      vertex -57.5 76 8
    endloop
  endfacet
  facet normal 0 0 1
    outer loop
      vertex -55.5 -76 8
      vertex -57.5 -76 8
      vertex -55.5 -78 8
    endloop
  endfacet
  facet normal 0 0 1
    outer loop
      vertex 55.5 76 8
      vertex 57.5 76 8
      vertex 55.5 78 8
    endloop
  endfacet
  facet normal 0 0 1
    outer loop
      vertex 57.5 76 8
      vertex 55.5 76 8
      vertex 57.5 -76 8
    endloop
  endfacet
  facet normal 0 0 1
    outer loop
      vertex 55.5 -76 8
      vertex 57.5 -76 8
      vertex 55.5 76 8
    endloop
  endfacet
  facet normal -0 0 1
    outer loop
      vertex 55.5 -76 8
      vertex 55.5 -78 8
      vertex 57.5 -76 8
    endloop
  endfacet
  facet normal -0 0 1
    outer loop
      vertex -55.5 -76 8
      vertex 55.5 -78 8
      vertex 55.5 -76 8
    endloop
  endfacet
  facet normal 0 0 1
    outer loop
      vertex 55.5 -78 8
      vertex -55.5 -76 8
      vertex -55.5 -78 8
    endloop
  endfacet
  facet normal 0 0 1
    outer loop
      vertex 55.5 76 8
      vertex 20 76.01 8
      vertex 20 76 8
    endloop
  endfacet
  facet normal -1 0 0
    outer loop
      vertex -57.5 -76 0
      vertex -57.5 76 8
      vertex -57.5 76 0
    endloop
  endfacet
  facet normal -1 -0 0
    outer loop
      vertex -57.5 76 8
      vertex -57.5 -76 0
      vertex -57.5 -76 8
    endloop
  endfacet
  facet normal 0 -0.707107 -0.707107
    outer loop
      vertex -55.5 -76 -2
      vertex 55.5 -78 0
      vertex -55.5 -78 0
    endloop
  endfacet
  facet normal 0 -0.707107 -0.707107
    outer loop
      vertex 55.5 -78 0
      vertex -55.5 -76 -2
      vertex 55.5 -76 -2
    endloop
  endfacet
  facet normal 0.707107 0.707107 0
    outer loop
      vertex 57.5 76 8
      vertex 55.5 78 0
      vertex 55.5 78 8
    endloop
  endfacet
  facet normal 0.707107 0.707107 0
    outer loop
      vertex 55.5 78 0
      vertex 57.5 76 8
      vertex 57.5 76 0
    endloop
  endfacet
  facet normal 0.707107 -0.707107 0
    outer loop
      vertex 55.5 -78 8
      vertex 57.5 -76 0
      vertex 57.5 -76 8
    endloop
  endfacet
  facet normal 0.707107 -0.707107 0
    outer loop
      vertex 57.5 -76 0
      vertex 55.5 -78 8
      vertex 55.5 -78 0
    endloop
  endfacet
  facet normal 0 0 -1
    outer loop
      vertex 55.5 -76 -2
      vertex 52.4901 -72.9901 -2
      vertex 55.5 76 -2
    endloop
  endfacet
  facet normal 0 0 -1
    outer loop
      vertex 55.5 -76 -2
      vertex -52.4901 -72.9901 -2
      vertex 52.4901 -72.9901 -2
    endloop
  endfacet
  facet normal -0 0 -1
    outer loop
      vertex -52.4901 -72.9901 -2
      vertex -55.5 -76 -2
      vertex -52.4901 72.9901 -2
    endloop
  endfacet
  facet normal 0 0 -1
    outer loop
      vertex -55.5 -76 -2
      vertex -52.4901 -72.9901 -2
      vertex 55.5 -76 -2
    endloop
  endfacet
  facet normal 0 0 -1
    outer loop
      vertex 52.4901 72.9901 -2
      vertex 55.5 76 -2
      vertex 52.4901 -72.9901 -2
    endloop
  endfacet
  facet normal 0 0 -1
    outer loop
      vertex -52.4901 72.9901 -2
      vertex 55.5 76 -2
      vertex 52.4901 72.9901 -2
    endloop
  endfacet
  facet normal 0 0 -1
    outer loop
      vertex -52.4901 72.9901 -2
      vertex -55.5 76 -2
      vertex 55.5 76 -2
    endloop
  endfacet
  facet normal 0 0 -1
    outer loop
      vertex -55.5 76 -2
      vertex -52.4901 72.9901 -2
      vertex -55.5 -76 -2
    endloop
  endfacet
  facet normal -0.707107 0 -0.707107
    outer loop
      vertex -55.5 -76 -2
      vertex -57.5 76 0
      vertex -55.5 76 -2
    endloop
  endfacet
  facet normal -0.707107 -0 -0.707107
    outer loop
      vertex -57.5 76 0
      vertex -55.5 -76 -2
      vertex -57.5 -76 0
    endloop
  endfacet
  facet normal 0.707107 0 -0.707107
    outer loop
      vertex 57.5 -76 0
      vertex 55.5 76 -2
      vertex 57.5 76 0
    endloop
  endfacet
  facet normal 0.707107 0 -0.707107
    outer loop
      vertex 55.5 76 -2
      vertex 57.5 -76 0
      vertex 55.5 -76 -2
    endloop
  endfacet
  facet normal 0 0.707107 -0.707107
    outer loop
      vertex 55.5 76 -2
      vertex -55.5 78 0
      vertex 55.5 78 0
    endloop
  endfacet
  facet normal 0 0.707107 -0.707107
    outer loop
      vertex -55.5 78 0
      vertex 55.5 76 -2
      vertex -55.5 76 -2
    endloop
  endfacet
  facet normal 0 -1 0
    outer loop
      vertex -55.5 -78 0
      vertex 55.5 -78 8
      vertex -55.5 -78 8
    endloop
  endfacet
  facet normal 0 -1 -0
    outer loop
      vertex 55.5 -78 8
      vertex -55.5 -78 0
      vertex 55.5 -78 0
    endloop
  endfacet
  facet normal 0.57735 0.57735 -0.57735
    outer loop
      vertex 57.5 76 0
      vertex 55.5 76 -2
      vertex 55.5 78 0
    endloop
  endfacet
  facet normal 1 -0 0
    outer loop
      vertex 57.5 -76 8
      vertex 57.5 76 0
      vertex 57.5 76 8
    endloop
  endfacet
  facet normal 1 0 0
    outer loop
      vertex 57.5 76 0
      vertex 57.5 -76 8
      vertex 57.5 -76 0
    endloop
  endfacet
  facet normal -0.707107 -0.707107 0
    outer loop
      vertex -55.5 -78 0
      vertex -57.5 -76 8
      vertex -57.5 -76 0
    endloop
  endfacet
  facet normal -0.707107 -0.707107 0
    outer loop
      vertex -57.5 -76 8
      vertex -55.5 -78 0
      vertex -55.5 -78 8
    endloop
  endfacet
  facet normal 0 1 -0
    outer loop
      vertex 55.5 78 0
      vertex -55.5 78 8
      vertex 55.5 78 8
    endloop
  endfacet
  facet normal 0 1 0
    outer loop
      vertex -55.5 78 8
      vertex 55.5 78 0
      vertex -55.5 78 0
    endloop
  endfacet
  facet normal -1 0 0
    outer loop
      vertex 55.5 76 0
      vertex 55.5 61.01 2
      vertex 55.5 76 2
    endloop
  endfacet
  facet normal -1 0 0
    outer loop
      vertex 55.5 61.01 2
      vertex 55.5 -61.01 2
      vertex 55.5 61.01 3
    endloop
  endfacet
  facet normal -1 0 0
    outer loop
      vertex 55.5 76 0
      vertex 55.5 -61.01 2
      vertex 55.5 61.01 2
    endloop
  endfacet
  facet normal -1 0 0
    outer loop
      vertex 55.5 -76 0
      vertex 55.5 -61.01 2
      vertex 55.5 76 0
    endloop
  endfacet
  facet normal -1 -0 0
    outer loop
      vertex 55.5 -61.01 2
      vertex 55.5 -76 0
      vertex 55.5 -76 2
    endloop
  endfacet
  facet normal -1 0 0
    outer loop
      vertex 55.5 61.01 3
      vertex 55.5 76 8
      vertex 55.5 76 3
    endloop
  endfacet
  facet normal -1 0 0
    outer loop
      vertex 55.5 -61.01 3
      vertex 55.5 61.01 3
      vertex 55.5 -61.01 2
    endloop
  endfacet
  facet normal -1 0 0
    outer loop
      vertex 55.5 61.01 3
      vertex 55.5 -61.01 3
      vertex 55.5 76 8
    endloop
  endfacet
  facet normal -1 0 0
    outer loop
      vertex 55.5 -76 8
      vertex 55.5 -61.01 3
      vertex 55.5 -76 3
    endloop
  endfacet
  facet normal -1 0 0
    outer loop
      vertex 55.5 -61.01 3
      vertex 55.5 -76 8
      vertex 55.5 76 8
    endloop
  endfacet
  facet normal 0 0 1
    outer loop
      vertex 55.5 76 0
      vertex 50.5099 71.0099 0
      vertex 55.5 -76 0
    endloop
  endfacet
  facet normal 0 0 1
    outer loop
      vertex 55.5 76 0
      vertex -50.5099 71.0099 0
      vertex 50.5099 71.0099 0
    endloop
  endfacet
  facet normal 0 0 1
    outer loop
      vertex -50.5099 71.0099 0
      vertex -55.5 76 0
      vertex -50.5099 -71.0099 0
    endloop
  endfacet
  facet normal -0 0 1
    outer loop
      vertex -55.5 76 0
      vertex -50.5099 71.0099 0
      vertex 55.5 76 0
    endloop
  endfacet
  facet normal -0 0 1
    outer loop
      vertex 50.5099 -71.0099 0
      vertex 55.5 -76 0
      vertex 50.5099 71.0099 0
    endloop
  endfacet
  facet normal -0 0 1
    outer loop
      vertex -50.5099 -71.0099 0
      vertex 55.5 -76 0
      vertex 50.5099 -71.0099 0
    endloop
  endfacet
  facet normal 0 0 1
    outer loop
      vertex -50.5099 -71.0099 0
      vertex -55.5 -76 0
      vertex 55.5 -76 0
    endloop
  endfacet
  facet normal 0 0 1
    outer loop
      vertex -55.5 -76 0
      vertex -50.5099 -71.0099 0
      vertex -55.5 76 0
    endloop
  endfacet
  facet normal 1 0 0
    outer loop
      vertex -55.5 76 8
      vertex -55.5 61.01 3
      vertex -55.5 76 3
    endloop
  endfacet
  facet normal 1 0 0
    outer loop
      vertex -55.5 61.01 3
      vertex -55.5 -61.01 3
      vertex -55.5 61.01 2
    endloop
  endfacet
  facet normal 1 0 0
    outer loop
      vertex -55.5 76 8
      vertex -55.5 -61.01 3
      vertex -55.5 61.01 3
    endloop
  endfacet
  facet normal 1 -0 0
    outer loop
      vertex -55.5 -76 8
      vertex -55.5 -61.01 3
      vertex -55.5 76 8
    endloop
  endfacet
  facet normal 1 0 0
    outer loop
      vertex -55.5 -61.01 3
      vertex -55.5 -76 8
      vertex -55.5 -76 3
    endloop
  endfacet
  facet normal 1 -0 0
    outer loop
      vertex -55.5 61.01 2
      vertex -55.5 76 0
      vertex -55.5 76 2
    endloop
  endfacet
  facet normal 1 0 0
    outer loop
      vertex -55.5 -61.01 2
      vertex -55.5 61.01 2
      vertex -55.5 -61.01 3
    endloop
  endfacet
  facet normal 1 0 0
    outer loop
      vertex -55.5 61.01 2
      vertex -55.5 -61.01 2
      vertex -55.5 76 0
    endloop
  endfacet
  facet normal 1 0 0
    outer loop
      vertex -55.5 -76 0
      vertex -55.5 -61.01 2
      vertex -55.5 -76 2
    endloop
  endfacet
  facet normal 1 0 0
    outer loop
      vertex -55.5 -61.01 2
      vertex -55.5 -76 0
      vertex -55.5 76 0
    endloop
  endfacet
  facet normal 0 -1 0
    outer loop
      vertex -40.51 76 3
      vertex -20 76 8
      vertex -55.5 76 8
    endloop
  endfacet
  facet normal 0 -1 -0
    outer loop
      vertex -20 76 8
      vertex -40.51 76 3
      vertex -20 76 5
    endloop
  endfacet
  facet normal 0 -1 0
    outer loop
      vertex -40.51 76 3
      vertex -55.5 76 8
      vertex -55.5 76 3
    endloop
  endfacet
  facet normal 0 -1 0
    outer loop
      vertex 40.51 76 3
      vertex 20 76 8
      vertex 20 76 5
    endloop
  endfacet
  facet normal 0 -1 0
    outer loop
      vertex -40.51 76 2
      vertex -20 76 5
      vertex -40.51 76 3
    endloop
  endfacet
  facet normal 0 -1 -0
    outer loop
      vertex -20 76 5
      vertex -40.51 76 2
      vertex 20 76 5
    endloop
  endfacet
  facet normal 0 -1 0
    outer loop
      vertex 20 76 8
      vertex 40.51 76 3
      vertex 55.5 76 8
    endloop
  endfacet
  facet normal 0 -1 -0
    outer loop
      vertex 55.5 76 8
      vertex 40.51 76 3
      vertex 55.5 76 3
    endloop
  endfacet
  facet normal 0 -1 0
    outer loop
      vertex -55.5 76 0
      vertex -40.51 76 2
      vertex -55.5 76 2
    endloop
  endfacet
  facet normal 0 -1 -0
    outer loop
      vertex -40.51 76 2
      vertex -55.5 76 0
      vertex 40.51 76 2
    endloop
  endfacet
  facet normal 0 -1 0
    outer loop
      vertex 55.5 76 0
      vertex 40.51 76 2
      vertex -55.5 76 0
    endloop
  endfacet
  facet normal 0 -1 0
    outer loop
      vertex 40.51 76 2
      vertex 55.5 76 0
      vertex 55.5 76 2
    endloop
  endfacet
  facet normal 0 -1 0
    outer loop
      vertex 40.51 76 2
      vertex 20 76 5
      vertex -40.51 76 2
    endloop
  endfacet
  facet normal 0 -1 0
    outer loop
      vertex 20 76 5
      vertex 40.51 76 2
      vertex 40.51 76 3
    endloop
  endfacet
  facet normal 0 1 -0
    outer loop
      vertex 55.5 -76 0
      vertex 40.51 -76 2
      vertex 55.5 -76 2
    endloop
  endfacet
  facet normal 0 1 0
    outer loop
      vertex 40.51 -76 2
      vertex 55.5 -76 0
      vertex -40.51 -76 2
    endloop
  endfacet
  facet normal 0 1 0
    outer loop
      vertex -55.5 -76 0
      vertex -40.51 -76 2
      vertex 55.5 -76 0
    endloop
  endfacet
  facet normal 0 1 0
    outer loop
      vertex -40.51 -76 2
      vertex -55.5 -76 0
      vertex -55.5 -76 2
    endloop
  endfacet
  facet normal 0 1 -0
    outer loop
      vertex 40.51 -76 2
      vertex -40.51 -76 3
      vertex 40.51 -76 3
    endloop
  endfacet
  facet normal 0 1 0
    outer loop
      vertex -40.51 -76 3
      vertex 40.51 -76 2
      vertex -40.51 -76 2
    endloop
  endfacet
  facet normal 0 1 0
    outer loop
      vertex 40.51 -76 3
      vertex 55.5 -76 8
      vertex 55.5 -76 3
    endloop
  endfacet
  facet normal 0 1 0
    outer loop
      vertex 55.5 -76 8
      vertex 40.51 -76 3
      vertex -55.5 -76 8
    endloop
  endfacet
  facet normal 0 1 -0
    outer loop
      vertex -40.51 -76 3
      vertex -55.5 -76 8
      vertex 40.51 -76 3
    endloop
  endfacet
  facet normal 0 1 0
    outer loop
      vertex -55.5 -76 8
      vertex -40.51 -76 3
      vertex -55.5 -76 3
    endloop
  endfacet
  facet normal 0 -0.710616 -0.70358
    outer loop
      vertex -52.4901 72.9901 -2
      vertex 50.5099 71.0099 0
      vertex -50.5099 71.0099 0
    endloop
  endfacet
  facet normal 0 -0.710616 -0.70358
    outer loop
      vertex 50.5099 71.0099 0
      vertex -52.4901 72.9901 -2
      vertex 52.4901 72.9901 -2
    endloop
  endfacet
  facet normal 0.710616 0 -0.70358
    outer loop
      vertex -50.5099 -71.0099 0
      vertex -52.4901 72.9901 -2
      vertex -50.5099 71.0099 0
    endloop
  endfacet
  facet normal 0.710616 0 -0.70358
    outer loop
      vertex -52.4901 72.9901 -2
      vertex -50.5099 -71.0099 0
      vertex -52.4901 -72.9901 -2
    endloop
  endfacet
  facet normal 0 0.710616 -0.70358
    outer loop
      vertex 52.4901 -72.9901 -2
      vertex -50.5099 -71.0099 0
      vertex 50.5099 -71.0099 0
    endloop
  endfacet
  facet normal 0 0.710616 -0.70358
    outer loop
      vertex -50.5099 -71.0099 0
      vertex 52.4901 -72.9901 -2
      vertex -52.4901 -72.9901 -2
    endloop
  endfacet
  facet normal -0.710616 0 -0.70358
    outer loop
      vertex 52.4901 72.9901 -2
      vertex 50.5099 -71.0099 0
      vertex 50.5099 71.0099 0
    endloop
  endfacet
  facet normal -0.710616 0 -0.70358
    outer loop
      vertex 50.5099 -71.0099 0
      vertex 52.4901 72.9901 -2
      vertex 52.4901 -72.9901 -2
    endloop
  endfacet
  facet normal 0 0 -1
    outer loop
      vertex -40.51 -76 2
      vertex -55.5 -76 2
      vertex -55.5 -61.01 2
    endloop
  endfacet
  facet normal 0 0 1
    outer loop
      vertex -55.5 -61.01 3
      vertex -55.5 -76 3
      vertex -40.51 -76 3
    endloop
  endfacet
  facet normal 0.707107 0.707107 0
    outer loop
      vertex -40.51 -76 3
      vertex -55.5 -61.01 2
      vertex -55.5 -61.01 3
    endloop
  endfacet
  facet normal 0.707107 0.707107 0
    outer loop
      vertex -55.5 -61.01 2
      vertex -40.51 -76 3
      vertex -40.51 -76 2
    endloop
  endfacet
  facet normal -0 0 -1
    outer loop
      vertex -40.51 76 2
      vertex -55.5 61.01 2
      vertex -55.5 76 2
    endloop
  endfacet
  facet normal 0.707107 -0.707107 0
    outer loop
      vertex -55.5 61.01 3
      vertex -40.51 76 2
      vertex -40.51 76 3
    endloop
  endfacet
  facet normal 0.707107 -0.707107 0
    outer loop
      vertex -40.51 76 2
      vertex -55.5 61.01 3
      vertex -55.5 61.01 2
    endloop
  endfacet
  facet normal -0 0 1
    outer loop
      vertex -55.5 76 3
      vertex -55.5 61.01 3
      vertex -40.51 76 3
    endloop
  endfacet
  facet normal 0 0 -1
    outer loop
      vertex 55.5 61.01 2
      vertex 40.51 76 2
      vertex 55.5 76 2
    endloop
  endfacet
  facet normal -0.707107 -0.707107 0
    outer loop
      vertex 55.5 61.01 2
      vertex 40.51 76 3
      vertex 40.51 76 2
    endloop
  endfacet
  facet normal -0.707107 -0.707107 0
    outer loop
      vertex 40.51 76 3
      vertex 55.5 61.01 2
      vertex 55.5 61.01 3
    endloop
  endfacet
  facet normal 0 0 1
    outer loop
      vertex 55.5 76 3
      vertex 40.51 76 3
      vertex 55.5 61.01 3
    endloop
  endfacet
  facet normal 0 0 -1
    outer loop
      vertex 55.5 -76 2
      vertex 40.51 -76 2
      vertex 55.5 -61.01 2
    endloop
  endfacet
  facet normal 0 0 1
    outer loop
      vertex 55.5 -61.01 3
      vertex 40.51 -76 3
      vertex 55.5 -76 3
    endloop
  endfacet
  facet normal -0.707107 0.707107 0
    outer loop
      vertex 40.51 -76 2
      vertex 55.5 -61.01 3
      vertex 55.5 -61.01 2
    endloop
  endfacet
  facet normal -0.707107 0.707107 0
    outer loop
      vertex 55.5 -61.01 3
      vertex 40.51 -76 2
      vertex 40.51 -76 3
    endloop
  endfacet
  facet normal -1 0 0
    outer loop
      vertex -20 76 5
      vertex -20 73 8
      vertex -20 76 8
    endloop
  endfacet
  facet normal 0 0 0
    outer loop
      vertex -20 76.01 8
      vertex -20 76 8
      vertex -20 73 8
    endloop
  endfacet
  facet normal 0 -0.707107 -0.707107
    outer loop
      vertex -20 76 5
      vertex 20 73 8
      vertex -20 73 8
    endloop
  endfacet
  facet normal 0 -0.707107 -0.707107
    outer loop
      vertex 20 73 8
      vertex -20 76 5
      vertex 20 76 5
    endloop
  endfacet
  facet normal 1 0 0
    outer loop
      vertex 20 76 8
      vertex 20 73 8
      vertex 20 76 5
    endloop
  endfacet
  facet normal 0 0 0
    outer loop
      vertex 20 73 8
      vertex 20 76 8
      vertex 20 76.01 8
    endloop
  endfacet
  facet normal -0 0 1
    outer loop
      vertex -20 76.01 8
      vertex 20 73 8
      vertex 20 76.01 8
    endloop
  endfacet
  facet normal 0 0 1
    outer loop
      vertex 20 73 8
      vertex -20 76.01 8
      vertex -20 73 8
    endloop
  endfacet
endsolid OpenSCAD_Model
