solid OpenSCAD_Model
  facet normal -0.57735 -0.57735 -0.57735
    outer loop
      vertex -45 -82 0
      vertex -47 -80 0
      vertex -45 -80 -2
    endloop
  endfacet
  facet normal -0.57735 0.57735 -0.57735
    outer loop
      vertex -45 80 -2
      vertex -47 80 0
      vertex -45 82 0
    endloop
  endfacet
  facet normal -0.707107 0.707107 0
    outer loop
      vertex -47 80 0
      vertex -45 82 7.5
      vertex -45 82 0
    endloop
  endfacet
  facet normal -0.707107 0.707107 0
    outer loop
      vertex -45 82 7.5
      vertex -47 80 0
      vertex -47 80 7.5
    endloop
  endfacet
  facet normal 0.57735 -0.57735 -0.57735
    outer loop
      vertex 47 -80 0
      vertex 45 -82 0
      vertex 45 -80 -2
    endloop
  endfacet
  facet normal 0 0 1
    outer loop
      vertex 45 82 7.5
      vertex 20 80.01 7.5
      vertex 45 80 7.5
    endloop
  endfacet
  facet normal 0 0 1
    outer loop
      vertex 45 82 7.5
      vertex -20 80.01 7.5
      vertex 20 80.01 7.5
    endloop
  endfacet
  facet normal -0 0 1
    outer loop
      vertex -45 82 7.5
      vertex -20 80.01 7.5
      vertex 45 82 7.5
    endloop
  endfacet
  facet normal 0 0 1
    outer loop
      vertex -45 80 7.5
      vertex -20 80.01 7.5
      vertex -45 82 7.5
    endloop
  endfacet
  facet normal 0 0 1
    outer loop
      vertex -20 80.01 7.5
      vertex -45 80 7.5
      vertex -20 80 7.5
    endloop
  endfacet
  facet normal 0 0 1
    outer loop
      vertex -47 80 7.5
      vertex -45 80 7.5
      vertex -45 82 7.5
    endloop
  endfacet
  facet normal 0 0 1
    outer loop
      vertex -45 80 7.5
      vertex -47 80 7.5
      vertex -45 -80 7.5
    endloop
  endfacet
  facet normal 0 0 1
    outer loop
      vertex -47 -80 7.5
      vertex -45 -80 7.5
      vertex -47 80 7.5
    endloop
  endfacet
  facet normal 0 0 1
    outer loop
      vertex -45 -80 7.5
      vertex -47 -80 7.5
      vertex -45 -82 7.5
    endloop
  endfacet
  facet normal 0 0 1
    outer loop
      vertex 45 80 7.5
      vertex 47 80 7.5
      vertex 45 82 7.5
    endloop
  endfacet
  facet normal 0 0 1
    outer loop
      vertex 47 80 7.5
      vertex 45 80 7.5
      vertex 47 -80 7.5
    endloop
  endfacet
  facet normal 0 0 1
    outer loop
      vertex 45 -80 7.5
      vertex 47 -80 7.5
      vertex 45 80 7.5
    endloop
  endfacet
  facet normal -0 0 1
    outer loop
      vertex 45 -80 7.5
      vertex 45 -82 7.5
      vertex 47 -80 7.5
    endloop
  endfacet
  facet normal -0 0 1
    outer loop
      vertex -45 -80 7.5
      vertex 45 -82 7.5
      vertex 45 -80 7.5
    endloop
  endfacet
  facet normal 0 0 1
    outer loop
      vertex 45 -82 7.5
      vertex -45 -80 7.5
      vertex -45 -82 7.5
    endloop
  endfacet
  facet normal 0 0 1
    outer loop
      vertex 45 80 7.5
      vertex 20 80.01 7.5
      vertex 20 80 7.5
    endloop
  endfacet
  facet normal -1 0 0
    outer loop
      vertex -47 -80 0
      vertex -47 80 7.5
      vertex -47 80 0
    endloop
  endfacet
  facet normal -1 -0 0
    outer loop
      vertex -47 80 7.5
      vertex -47 -80 0
      vertex -47 -80 7.5
    endloop
  endfacet
  facet normal 0 -0.707107 -0.707107
    outer loop
      vertex -45 -80 -2
      vertex 45 -82 0
      vertex -45 -82 0
    endloop
  endfacet
  facet normal 0 -0.707107 -0.707107
    outer loop
      vertex 45 -82 0
      vertex -45 -80 -2
      vertex 45 -80 -2
    endloop
  endfacet
  facet normal 0.707107 0.707107 0
    outer loop
      vertex 47 80 7.5
      vertex 45 82 0
      vertex 45 82 7.5
    endloop
  endfacet
  facet normal 0.707107 0.707107 0
    outer loop
      vertex 45 82 0
      vertex 47 80 7.5
      vertex 47 80 0
    endloop
  endfacet
  facet normal 0.707107 -0.707107 0
    outer loop
      vertex 45 -82 7.5
      vertex 47 -80 0
      vertex 47 -80 7.5
    endloop
  endfacet
  facet normal 0.707107 -0.707107 0
    outer loop
      vertex 47 -80 0
      vertex 45 -82 7.5
      vertex 45 -82 0
    endloop
  endfacet
  facet normal 0 0 -1
    outer loop
      vertex 45 -80 -2
      vertex 41.9901 -76.9901 -2
      vertex 45 80 -2
    endloop
  endfacet
  facet normal 0 0 -1
    outer loop
      vertex 45 -80 -2
      vertex -41.9901 -76.9901 -2
      vertex 41.9901 -76.9901 -2
    endloop
  endfacet
  facet normal -0 0 -1
    outer loop
      vertex -41.9901 -76.9901 -2
      vertex -45 -80 -2
      vertex -41.9901 76.9901 -2
    endloop
  endfacet
  facet normal 0 0 -1
    outer loop
      vertex -45 -80 -2
      vertex -41.9901 -76.9901 -2
      vertex 45 -80 -2
    endloop
  endfacet
  facet normal 0 0 -1
    outer loop
      vertex 41.9901 76.9901 -2
      vertex 45 80 -2
      vertex 41.9901 -76.9901 -2
    endloop
  endfacet
  facet normal 0 0 -1
    outer loop
      vertex -41.9901 76.9901 -2
      vertex 45 80 -2
      vertex 41.9901 76.9901 -2
    endloop
  endfacet
  facet normal 0 0 -1
    outer loop
      vertex -41.9901 76.9901 -2
      vertex -45 80 -2
      vertex 45 80 -2
    endloop
  endfacet
  facet normal 0 0 -1
    outer loop
      vertex -45 80 -2
      vertex -41.9901 76.9901 -2
      vertex -45 -80 -2
    endloop
  endfacet
  facet normal -0.707107 0 -0.707107
    outer loop
      vertex -45 -80 -2
      vertex -47 80 0
      vertex -45 80 -2
    endloop
  endfacet
  facet normal -0.707107 -0 -0.707107
    outer loop
      vertex -47 80 0
      vertex -45 -80 -2
      vertex -47 -80 0
    endloop
  endfacet
  facet normal 0.707107 0 -0.707107
    outer loop
      vertex 47 -80 0
      vertex 45 80 -2
      vertex 47 80 0
    endloop
  endfacet
  facet normal 0.707107 0 -0.707107
    outer loop
      vertex 45 80 -2
      vertex 47 -80 0
      vertex 45 -80 -2
    endloop
  endfacet
  facet normal 0 0.707107 -0.707107
    outer loop
      vertex 45 80 -2
      vertex -45 82 0
      vertex 45 82 0
    endloop
  endfacet
  facet normal 0 0.707107 -0.707107
    outer loop
      vertex -45 82 0
      vertex 45 80 -2
      vertex -45 80 -2
    endloop
  endfacet
  facet normal 0 -1 0
    outer loop
      vertex -45 -82 0
      vertex 45 -82 7.5
      vertex -45 -82 7.5
    endloop
  endfacet
  facet normal 0 -1 -0
    outer loop
      vertex 45 -82 7.5
      vertex -45 -82 0
      vertex 45 -82 0
    endloop
  endfacet
  facet normal 0.57735 0.57735 -0.57735
    outer loop
      vertex 47 80 0
      vertex 45 80 -2
      vertex 45 82 0
    endloop
  endfacet
  facet normal 1 -0 0
    outer loop
      vertex 47 -80 7.5
      vertex 47 80 0
      vertex 47 80 7.5
    endloop
  endfacet
  facet normal 1 0 0
    outer loop
      vertex 47 80 0
      vertex 47 -80 7.5
      vertex 47 -80 0
    endloop
  endfacet
  facet normal -0.707107 -0.707107 0
    outer loop
      vertex -45 -82 0
      vertex -47 -80 7.5
      vertex -47 -80 0
    endloop
  endfacet
  facet normal -0.707107 -0.707107 0
    outer loop
      vertex -47 -80 7.5
      vertex -45 -82 0
      vertex -45 -82 7.5
    endloop
  endfacet
  facet normal 0 1 -0
    outer loop
      vertex 45 82 0
      vertex -45 82 7.5
      vertex 45 82 7.5
    endloop
  endfacet
  facet normal 0 1 0
    outer loop
      vertex -45 82 7.5
      vertex 45 82 0
      vertex -45 82 0
    endloop
  endfacet
  facet normal -1 0 0
    outer loop
      vertex 45 80 0
      vertex 45 65.01 1.5
      vertex 45 80 1.5
    endloop
  endfacet
  facet normal -1 0 0
    outer loop
      vertex 45 65.01 1.5
      vertex 45 -65.01 1.5
      vertex 45 65.01 2.5
    endloop
  endfacet
  facet normal -1 0 0
    outer loop
      vertex 45 80 0
      vertex 45 -65.01 1.5
      vertex 45 65.01 1.5
    endloop
  endfacet
  facet normal -1 0 0
    outer loop
      vertex 45 -80 0
      vertex 45 -65.01 1.5
      vertex 45 80 0
    endloop
  endfacet
  facet normal -1 -0 0
    outer loop
      vertex 45 -65.01 1.5
      vertex 45 -80 0
      vertex 45 -80 1.5
    endloop
  endfacet
  facet normal -1 0 0
    outer loop
      vertex 45 65.01 2.5
      vertex 45 80 7.5
      vertex 45 80 2.5
    endloop
  endfacet
  facet normal -1 0 0
    outer loop
      vertex 45 -65.01 2.5
      vertex 45 65.01 2.5
      vertex 45 -65.01 1.5
    endloop
  endfacet
  facet normal -1 0 0
    outer loop
      vertex 45 65.01 2.5
      vertex 45 -65.01 2.5
      vertex 45 80 7.5
    endloop
  endfacet
  facet normal -1 0 0
    outer loop
      vertex 45 -80 7.5
      vertex 45 -65.01 2.5
      vertex 45 -80 2.5
    endloop
  endfacet
  facet normal -1 0 0
    outer loop
      vertex 45 -65.01 2.5
      vertex 45 -80 7.5
      vertex 45 80 7.5
    endloop
  endfacet
  facet normal 0 0 1
    outer loop
      vertex 45 80 0
      vertex 40.0099 75.0099 0
      vertex 45 -80 0
    endloop
  endfacet
  facet normal 0 0 1
    outer loop
      vertex 45 80 0
      vertex -40.0099 75.0099 0
      vertex 40.0099 75.0099 0
    endloop
  endfacet
  facet normal 0 0 1
    outer loop
      vertex -40.0099 75.0099 0
      vertex -45 80 0
      vertex -40.0099 -75.0099 0
    endloop
  endfacet
  facet normal -0 0 1
    outer loop
      vertex -45 80 0
      vertex -40.0099 75.0099 0
      vertex 45 80 0
    endloop
  endfacet
  facet normal -0 0 1
    outer loop
      vertex 40.0099 -75.0099 0
      vertex 45 -80 0
      vertex 40.0099 75.0099 0
    endloop
  endfacet
  facet normal -0 0 1
    outer loop
      vertex -40.0099 -75.0099 0
      vertex 45 -80 0
      vertex 40.0099 -75.0099 0
    endloop
  endfacet
  facet normal 0 0 1
    outer loop
      vertex -40.0099 -75.0099 0
      vertex -45 -80 0
      vertex 45 -80 0
    endloop
  endfacet
  facet normal 0 0 1
    outer loop
      vertex -45 -80 0
      vertex -40.0099 -75.0099 0
      vertex -45 80 0
    endloop
  endfacet
  facet normal 1 0 0
    outer loop
      vertex -45 80 7.5
      vertex -45 65.01 2.5
      vertex -45 80 2.5
    endloop
  endfacet
  facet normal 1 0 0
    outer loop
      vertex -45 65.01 2.5
      vertex -45 -65.01 2.5
      vertex -45 65.01 1.5
    endloop
  endfacet
  facet normal 1 0 0
    outer loop
      vertex -45 80 7.5
      vertex -45 -65.01 2.5
      vertex -45 65.01 2.5
    endloop
  endfacet
  facet normal 1 -0 0
    outer loop
      vertex -45 -80 7.5
      vertex -45 -65.01 2.5
      vertex -45 80 7.5
    endloop
  endfacet
  facet normal 1 0 0
    outer loop
      vertex -45 -65.01 2.5
      vertex -45 -80 7.5
      vertex -45 -80 2.5
    endloop
  endfacet
  facet normal 1 -0 0
    outer loop
      vertex -45 65.01 1.5
      vertex -45 80 0
      vertex -45 80 1.5
    endloop
  endfacet
  facet normal 1 0 0
    outer loop
      vertex -45 -65.01 1.5
      vertex -45 65.01 1.5
      vertex -45 -65.01 2.5
    endloop
  endfacet
  facet normal 1 0 0
    outer loop
      vertex -45 65.01 1.5
      vertex -45 -65.01 1.5
      vertex -45 80 0
    endloop
  endfacet
  facet normal 1 0 0
    outer loop
      vertex -45 -80 0
      vertex -45 -65.01 1.5
      vertex -45 -80 1.5
    endloop
  endfacet
  facet normal 1 0 0
    outer loop
      vertex -45 -65.01 1.5
      vertex -45 -80 0
      vertex -45 80 0
    endloop
  endfacet
  facet normal 0 -1 0
    outer loop
      vertex -30.01 80 2.5
      vertex -20 80 7.5
      vertex -45 80 7.5
    endloop
  endfacet
  facet normal 0 -1 -0
    outer loop
      vertex -20 80 7.5
      vertex -30.01 80 2.5
      vertex -20 80 4.5
    endloop
  endfacet
  facet normal 0 -1 0
    outer loop
      vertex -30.01 80 2.5
      vertex -45 80 7.5
      vertex -45 80 2.5
    endloop
  endfacet
  facet normal 0 -1 0
    outer loop
      vertex 30.01 80 2.5
      vertex 20 80 7.5
      vertex 20 80 4.5
    endloop
  endfacet
  facet normal 0 -1 0
    outer loop
      vertex -30.01 80 1.5
      vertex -20 80 4.5
      vertex -30.01 80 2.5
    endloop
  endfacet
  facet normal 0 -1 -0
    outer loop
      vertex -20 80 4.5
      vertex -30.01 80 1.5
      vertex 20 80 4.5
    endloop
  endfacet
  facet normal 0 -1 0
    outer loop
      vertex 20 80 7.5
      vertex 30.01 80 2.5
      vertex 45 80 7.5
    endloop
  endfacet
  facet normal 0 -1 -0
    outer loop
      vertex 45 80 7.5
      vertex 30.01 80 2.5
      vertex 45 80 2.5
    endloop
  endfacet
  facet normal 0 -1 0
    outer loop
      vertex -45 80 0
      vertex -30.01 80 1.5
      vertex -45 80 1.5
    endloop
  endfacet
  facet normal 0 -1 -0
    outer loop
      vertex -30.01 80 1.5
      vertex -45 80 0
      vertex 30.01 80 1.5
    endloop
  endfacet
  facet normal 0 -1 0
    outer loop
      vertex 45 80 0
      vertex 30.01 80 1.5
      vertex -45 80 0
    endloop
  endfacet
  facet normal 0 -1 0
    outer loop
      vertex 30.01 80 1.5
      vertex 45 80 0
      vertex 45 80 1.5
    endloop
  endfacet
  facet normal 0 -1 0
    outer loop
      vertex 30.01 80 1.5
      vertex 20 80 4.5
      vertex -30.01 80 1.5
    endloop
  endfacet
  facet normal 0 -1 0
    outer loop
      vertex 20 80 4.5
      vertex 30.01 80 1.5
      vertex 30.01 80 2.5
    endloop
  endfacet
  facet normal 0 1 -0
    outer loop
      vertex 45 -80 0
      vertex 30.01 -80 1.5
      vertex 45 -80 1.5
    endloop
  endfacet
  facet normal 0 1 0
    outer loop
      vertex 30.01 -80 1.5
      vertex 45 -80 0
      vertex -30.01 -80 1.5
    endloop
  endfacet
  facet normal 0 1 0
    outer loop
      vertex -45 -80 0
      vertex -30.01 -80 1.5
      vertex 45 -80 0
    endloop
  endfacet
  facet normal 0 1 0
    outer loop
      vertex -30.01 -80 1.5
      vertex -45 -80 0
      vertex -45 -80 1.5
    endloop
  endfacet
  facet normal 0 1 -0
    outer loop
      vertex 30.01 -80 1.5
      vertex -30.01 -80 2.5
      vertex 30.01 -80 2.5
    endloop
  endfacet
  facet normal 0 1 0
    outer loop
      vertex -30.01 -80 2.5
      vertex 30.01 -80 1.5
      vertex -30.01 -80 1.5
    endloop
  endfacet
  facet normal 0 1 0
    outer loop
      vertex 30.01 -80 2.5
      vertex 45 -80 7.5
      vertex 45 -80 2.5
    endloop
  endfacet
  facet normal 0 1 0
    outer loop
      vertex 45 -80 7.5
      vertex 30.01 -80 2.5
      vertex -45 -80 7.5
    endloop
  endfacet
  facet normal 0 1 -0
    outer loop
      vertex -30.01 -80 2.5
      vertex -45 -80 7.5
      vertex 30.01 -80 2.5
    endloop
  endfacet
  facet normal 0 1 0
    outer loop
      vertex -45 -80 7.5
      vertex -30.01 -80 2.5
      vertex -45 -80 2.5
    endloop
  endfacet
  facet normal 0 -0.710616 -0.70358
    outer loop
      vertex -41.9901 76.9901 -2
      vertex 40.0099 75.0099 0
      vertex -40.0099 75.0099 0
    endloop
  endfacet
  facet normal 0 -0.710616 -0.70358
    outer loop
      vertex 40.0099 75.0099 0
      vertex -41.9901 76.9901 -2
      vertex 41.9901 76.9901 -2
    endloop
  endfacet
  facet normal 0.710616 0 -0.70358
    outer loop
      vertex -40.0099 -75.0099 0
      vertex -41.9901 76.9901 -2
      vertex -40.0099 75.0099 0
    endloop
  endfacet
  facet normal 0.710616 0 -0.70358
    outer loop
      vertex -41.9901 76.9901 -2
      vertex -40.0099 -75.0099 0
      vertex -41.9901 -76.9901 -2
    endloop
  endfacet
  facet normal 0 0.710616 -0.70358
    outer loop
      vertex 41.9901 -76.9901 -2
      vertex -40.0099 -75.0099 0
      vertex 40.0099 -75.0099 0
    endloop
  endfacet
  facet normal 0 0.710616 -0.70358
    outer loop
      vertex -40.0099 -75.0099 0
      vertex 41.9901 -76.9901 -2
      vertex -41.9901 -76.9901 -2
    endloop
  endfacet
  facet normal -0.710616 0 -0.70358
    outer loop
      vertex 41.9901 76.9901 -2
      vertex 40.0099 -75.0099 0
      vertex 40.0099 75.0099 0
    endloop
  endfacet
  facet normal -0.710616 0 -0.70358
    outer loop
      vertex 40.0099 -75.0099 0
      vertex 41.9901 76.9901 -2
      vertex 41.9901 -76.9901 -2
    endloop
  endfacet
  facet normal 0 0 -1
    outer loop
      vertex -30.01 -80 1.5
      vertex -45 -80 1.5
      vertex -45 -65.01 1.5
    endloop
  endfacet
  facet normal 0 0 1
    outer loop
      vertex -45 -65.01 2.5
      vertex -45 -80 2.5
      vertex -30.01 -80 2.5
    endloop
  endfacet
  facet normal 0.707107 0.707107 0
    outer loop
      vertex -30.01 -80 2.5
      vertex -45 -65.01 1.5
      vertex -45 -65.01 2.5
    endloop
  endfacet
  facet normal 0.707107 0.707107 0
    outer loop
      vertex -45 -65.01 1.5
      vertex -30.01 -80 2.5
      vertex -30.01 -80 1.5
    endloop
  endfacet
  facet normal -0 0 -1
    outer loop
      vertex -30.01 80 1.5
      vertex -45 65.01 1.5
      vertex -45 80 1.5
    endloop
  endfacet
  facet normal 0.707107 -0.707107 0
    outer loop
      vertex -45 65.01 2.5
      vertex -30.01 80 1.5
      vertex -30.01 80 2.5
    endloop
  endfacet
  facet normal 0.707107 -0.707107 0
    outer loop
      vertex -30.01 80 1.5
      vertex -45 65.01 2.5
      vertex -45 65.01 1.5
    endloop
  endfacet
  facet normal -0 0 1
    outer loop
      vertex -45 80 2.5
      vertex -45 65.01 2.5
      vertex -30.01 80 2.5
    endloop
  endfacet
  facet normal 0 0 -1
    outer loop
      vertex 45 65.01 1.5
      vertex 30.01 80 1.5
      vertex 45 80 1.5
    endloop
  endfacet
  facet normal -0.707107 -0.707107 0
    outer loop
      vertex 45 65.01 1.5
      vertex 30.01 80 2.5
      vertex 30.01 80 1.5
    endloop
  endfacet
  facet normal -0.707107 -0.707107 0
    outer loop
      vertex 30.01 80 2.5
      vertex 45 65.01 1.5
      vertex 45 65.01 2.5
    endloop
  endfacet
  facet normal 0 0 1
    outer loop
      vertex 45 80 2.5
      vertex 30.01 80 2.5
      vertex 45 65.01 2.5
    endloop
  endfacet
  facet normal 0 0 -1
    outer loop
      vertex 45 -80 1.5
      vertex 30.01 -80 1.5
      vertex 45 -65.01 1.5
    endloop
  endfacet
  facet normal 0 0 1
    outer loop
      vertex 45 -65.01 2.5
      vertex 30.01 -80 2.5
      vertex 45 -80 2.5
    endloop
  endfacet
  facet normal -0.707107 0.707107 0
    outer loop
      vertex 30.01 -80 1.5
      vertex 45 -65.01 2.5
      vertex 45 -65.01 1.5
    endloop
  endfacet
  facet normal -0.707107 0.707107 0
    outer loop
      vertex 45 -65.01 2.5
      vertex 30.01 -80 1.5
      vertex 30.01 -80 2.5
    endloop
  endfacet
  facet normal -1 0 0
    outer loop
      vertex -20 80 4.5
      vertex -20 77 7.5
      vertex -20 80 7.5
    endloop
  endfacet
  facet normal 0 0 0
    outer loop
      vertex -20 80.01 7.5
      vertex -20 80 7.5
      vertex -20 77 7.5
    endloop
  endfacet
  facet normal -0 0 1
    outer loop
      vertex -20 80.01 7.5
      vertex 20 77 7.5
      vertex 20 80.01 7.5
    endloop
  endfacet
  facet normal 0 0 1
    outer loop
      vertex 20 77 7.5
      vertex -20 80.01 7.5
      vertex -20 77 7.5
    endloop
  endfacet
  facet normal 0 -0.707107 -0.707107
    outer loop
      vertex -20 80 4.5
      vertex 20 77 7.5
      vertex -20 77 7.5
    endloop
  endfacet
  facet normal 0 -0.707107 -0.707107
    outer loop
      vertex 20 77 7.5
      vertex -20 80 4.5
      vertex 20 80 4.5
    endloop
  endfacet
  facet normal 1 0 0
    outer loop
      vertex 20 80 7.5
      vertex 20 77 7.5
      vertex 20 80 4.5
    endloop
  endfacet
  facet normal 0 0 0
    outer loop
      vertex 20 77 7.5
      vertex 20 80 7.5
      vertex 20 80.01 7.5
    endloop
  endfacet
endsolid OpenSCAD_Model
