solid OpenSCAD_Model
  facet normal 0 1 -0
    outer loop
      vertex -2.75 4 0.75
      vertex -21.25 4 19.25
      vertex -2.75 4 19.25
    endloop
  endfacet
  facet normal 0 1 0
    outer loop
      vertex -21.25 4 19.25
      vertex -2.75 4 0.75
      vertex -21.25 4 0.75
    endloop
  endfacet
  facet normal -0.678631 -0.281039 -0.678584
    outer loop
      vertex -21.7093 2.29072 0.375
      vertex -21.8995 2.75 0.375
      vertex -21.625 2.75 0.100481
    endloop
  endfacet
  facet normal 0.410977 0.410977 -0.813754
    outer loop
      vertex -2.375 3.25 0.100481
      vertex -2.75 3.625 0.100481
      vertex -2.29072 3.70928 0.375
    endloop
  endfacet
  facet normal -0.862903 -0.357351 -0.357351
    outer loop
      vertex -21.7093 2.29072 0.375
      vertex -21.8995 2.375 0.75
      vertex -21.8995 2.75 0.375
    endloop
  endfacet
  facet normal -0.678631 0.281039 -0.678584
    outer loop
      vertex -21.625 3.25 0.100481
      vertex -21.8995 3.25 0.375
      vertex -21.7093 3.70928 0.375
    endloop
  endfacet
  facet normal -0.250563 -0.250563 -0.935113
    outer loop
      vertex -21.25 2.375 0.100481
      vertex -21.625 2.75 0.100481
      vertex -21.25 2.75 0
    endloop
  endfacet
  facet normal -0.258817 0.965926 0
    outer loop
      vertex -21.25 4 0.75
      vertex -21.625 3.89952 19.25
      vertex -21.25 4 19.25
    endloop
  endfacet
  facet normal -0.258817 0.965926 0
    outer loop
      vertex -21.625 3.89952 19.25
      vertex -21.25 4 0.75
      vertex -21.625 3.89952 0.75
    endloop
  endfacet
  facet normal 0.250561 -0.935114 -0.250561
    outer loop
      vertex -2.375 2.10048 0.75
      vertex -2.75 2 0.75
      vertex -2.75 2.10048 0.375
    endloop
  endfacet
  facet normal -0.250561 -0.935114 -0.250561
    outer loop
      vertex -21.25 2 0.75
      vertex -21.625 2.10048 0.75
      vertex -21.25 2.10048 0.375
    endloop
  endfacet
  facet normal 0 0.965926 -0.258817
    outer loop
      vertex -2.75 3.89952 0.375
      vertex -21.25 4 0.75
      vertex -2.75 4 0.75
    endloop
  endfacet
  facet normal 0 0.965926 -0.258817
    outer loop
      vertex -21.25 4 0.75
      vertex -2.75 3.89952 0.375
      vertex -21.25 3.89952 0.375
    endloop
  endfacet
  facet normal 0 -1 0
    outer loop
      vertex -21.25 2 0.75
      vertex -2.75 2 18
      vertex -21.25 2 18
    endloop
  endfacet
  facet normal 0 -1 -0
    outer loop
      vertex -2.75 2 18
      vertex -21.25 2 0.75
      vertex -2.75 2 0.75
    endloop
  endfacet
  facet normal -0.965914 0 -0.258865
    outer loop
      vertex -21.8995 2.75 0.375
      vertex -22 3.25 0.75
      vertex -21.8995 3.25 0.375
    endloop
  endfacet
  facet normal -0.965914 -0 -0.258865
    outer loop
      vertex -22 3.25 0.75
      vertex -21.8995 2.75 0.375
      vertex -22 2.75 0.75
    endloop
  endfacet
  facet normal 0.707107 0.707107 0
    outer loop
      vertex -2.10048 3.625 19.25
      vertex -2.375 3.89952 0.75
      vertex -2.375 3.89952 19.25
    endloop
  endfacet
  facet normal 0.707107 0.707107 0
    outer loop
      vertex -2.375 3.89952 0.75
      vertex -2.10048 3.625 19.25
      vertex -2.10048 3.625 0.75
    endloop
  endfacet
  facet normal 0.678597 0.281084 -0.6786
    outer loop
      vertex -2.10048 3.25 0.375
      vertex -2.375 3.25 0.100481
      vertex -2.29072 3.70928 0.375
    endloop
  endfacet
  facet normal -0.250604 0.250604 0.935091
    outer loop
      vertex -21.25 3.625 19.8995
      vertex -21.625 3.25 19.8995
      vertex -21.25 3.25 20
    endloop
  endfacet
  facet normal 0.258817 -0.965926 0
    outer loop
      vertex -2.375 2.10048 0.75
      vertex -2.75 2 18
      vertex -2.75 2 0.75
    endloop
  endfacet
  facet normal 0.258817 -0.965926 0
    outer loop
      vertex -2.75 2 18
      vertex -2.375 2.10048 0.75
      vertex -2.375 2.10048 18.1005
    endloop
  endfacet
  facet normal -0.707131 0 -0.707082
    outer loop
      vertex -21.625 2.75 0.100481
      vertex -21.8995 3.25 0.375
      vertex -21.625 3.25 0.100481
    endloop
  endfacet
  facet normal -0.707131 -0 -0.707082
    outer loop
      vertex -21.8995 3.25 0.375
      vertex -21.625 2.75 0.100481
      vertex -21.8995 2.75 0.375
    endloop
  endfacet
  facet normal 0 -0.965926 -0.258817
    outer loop
      vertex -21.25 2.10048 0.375
      vertex -2.75 2 0.75
      vertex -21.25 2 0.75
    endloop
  endfacet
  facet normal 0 -0.965926 -0.258817
    outer loop
      vertex -2.75 2 0.75
      vertex -21.25 2.10048 0.375
      vertex -2.75 2.10048 0.375
    endloop
  endfacet
  facet normal -0.693435 0.693384 -0.195874
    outer loop
      vertex -21.7093 3.70928 0.375
      vertex -21.8995 3.625 0.75
      vertex -21.625 3.89952 0.75
    endloop
  endfacet
  facet normal -0 0.258865 0.965914
    outer loop
      vertex -21.25 3.625 19.8995
      vertex -2.75 3.25 20
      vertex -2.75 3.625 19.8995
    endloop
  endfacet
  facet normal 0 0.258865 0.965914
    outer loop
      vertex -2.75 3.25 20
      vertex -21.25 3.625 19.8995
      vertex -21.25 3.25 20
    endloop
  endfacet
  facet normal 0.250604 0.250604 0.935091
    outer loop
      vertex -2.75 3.625 19.8995
      vertex -2.75 3.25 20
      vertex -2.375 3.25 19.8995
    endloop
  endfacet
  facet normal -0.250561 0.935114 0.250561
    outer loop
      vertex -21.25 4 19.25
      vertex -21.625 3.89952 19.25
      vertex -21.25 3.89952 19.625
    endloop
  endfacet
  facet normal 0 0.965926 0.258817
    outer loop
      vertex -2.75 4 19.25
      vertex -21.25 3.89952 19.625
      vertex -2.75 3.89952 19.625
    endloop
  endfacet
  facet normal 0 0.965926 0.258817
    outer loop
      vertex -21.25 3.89952 19.625
      vertex -2.75 4 19.25
      vertex -21.25 4 19.25
    endloop
  endfacet
  facet normal 0.965926 0 0.258817
    outer loop
      vertex -2.10048 3.25 19.625
      vertex -2 0 19.25
      vertex -2 3.25 19.25
    endloop
  endfacet
  facet normal 0.965926 0 0.258817
    outer loop
      vertex -2 0 19.25
      vertex -2.10048 3.25 19.625
      vertex -2.10048 -0.100481 19.625
    endloop
  endfacet
  facet normal 0.965926 -0.258817 0
    outer loop
      vertex -2.10048 2.375 18.375
      vertex -2 2.75 0.75
      vertex -2 2.75 18.75
    endloop
  endfacet
  facet normal 0.965926 -0.258817 0
    outer loop
      vertex -2 2.75 0.75
      vertex -2.10048 2.375 18.375
      vertex -2.10048 2.375 0.75
    endloop
  endfacet
  facet normal -0.250561 0.935114 -0.250561
    outer loop
      vertex -21.25 3.89952 0.375
      vertex -21.625 3.89952 0.75
      vertex -21.25 4 0.75
    endloop
  endfacet
  facet normal -0.258819 0 -0.965926
    outer loop
      vertex -21.625 2.75 0.100481
      vertex -21.25 3.25 0
      vertex -21.25 2.75 0
    endloop
  endfacet
  facet normal -0.258819 0 -0.965926
    outer loop
      vertex -21.25 3.25 0
      vertex -21.625 2.75 0.100481
      vertex -21.625 3.25 0.100481
    endloop
  endfacet
  facet normal 0 0.258819 -0.965926
    outer loop
      vertex -21.25 3.25 0
      vertex -2.75 3.625 0.100481
      vertex -2.75 3.25 0
    endloop
  endfacet
  facet normal 0 0.258819 -0.965926
    outer loop
      vertex -2.75 3.625 0.100481
      vertex -21.25 3.25 0
      vertex -21.25 3.625 0.100481
    endloop
  endfacet
  facet normal -0.281064 0.678578 0.678627
    outer loop
      vertex -21.25 3.89952 19.625
      vertex -21.7093 3.70928 19.625
      vertex -21.25 3.625 19.8995
    endloop
  endfacet
  facet normal 0.935114 -0.250561 -0.250561
    outer loop
      vertex -2 2.75 0.75
      vertex -2.10048 2.375 0.75
      vertex -2.10048 2.75 0.375
    endloop
  endfacet
  facet normal 0 -0.258819 -0.965926
    outer loop
      vertex -21.25 2.375 0.100481
      vertex -2.75 2.75 0
      vertex -2.75 2.375 0.100481
    endloop
  endfacet
  facet normal -0 -0.258819 -0.965926
    outer loop
      vertex -2.75 2.75 0
      vertex -21.25 2.375 0.100481
      vertex -21.25 2.75 0
    endloop
  endfacet
  facet normal 0 -0.707105 -0.707108
    outer loop
      vertex -21.25 2.375 0.100481
      vertex -2.75 2.10048 0.375
      vertex -21.25 2.10048 0.375
    endloop
  endfacet
  facet normal 0 -0.707105 -0.707108
    outer loop
      vertex -2.75 2.10048 0.375
      vertex -21.25 2.375 0.100481
      vertex -2.75 2.375 0.100481
    endloop
  endfacet
  facet normal -0.693435 -0.693384 -0.195874
    outer loop
      vertex -21.625 2.10048 0.75
      vertex -21.8995 2.375 0.75
      vertex -21.7093 2.29072 0.375
    endloop
  endfacet
  facet normal -0.862903 0.357351 -0.357351
    outer loop
      vertex -21.7093 3.70928 0.375
      vertex -21.8995 3.25 0.375
      vertex -21.8995 3.625 0.75
    endloop
  endfacet
  facet normal -0.965914 0.258865 0
    outer loop
      vertex -22 3.25 0.75
      vertex -21.8995 3.625 19.25
      vertex -21.8995 3.625 0.75
    endloop
  endfacet
  facet normal -0.965914 0.258865 0
    outer loop
      vertex -21.8995 3.625 19.25
      vertex -22 3.25 0.75
      vertex -22 3.25 19.25
    endloop
  endfacet
  facet normal -0.935091 0.250604 -0.250604
    outer loop
      vertex -21.8995 3.25 0.375
      vertex -22 3.25 0.75
      vertex -21.8995 3.625 0.75
    endloop
  endfacet
  facet normal -0.965914 -0.258865 -0
    outer loop
      vertex -21.8995 2.375 18.375
      vertex -22 2.75 0.75
      vertex -21.8995 2.375 0.75
    endloop
  endfacet
  facet normal -0.965914 -0.258865 0
    outer loop
      vertex -22 2.75 0.75
      vertex -21.8995 2.375 18.375
      vertex -22 2.75 18.75
    endloop
  endfacet
  facet normal -0.258865 0 0.965914
    outer loop
      vertex -21.625 -0.375 19.8995
      vertex -21.25 3.25 20
      vertex -21.625 3.25 19.8995
    endloop
  endfacet
  facet normal -0.258865 0 0.965914
    outer loop
      vertex -21.25 3.25 20
      vertex -21.625 -0.375 19.8995
      vertex -21.25 -0.75 20
    endloop
  endfacet
  facet normal -0.707107 0 0.707107
    outer loop
      vertex -21.8995 -0.100481 19.625
      vertex -21.625 3.25 19.8995
      vertex -21.8995 3.25 19.625
    endloop
  endfacet
  facet normal -0.707107 0 0.707107
    outer loop
      vertex -21.625 3.25 19.8995
      vertex -21.8995 -0.100481 19.625
      vertex -21.625 -0.375 19.8995
    endloop
  endfacet
  facet normal -0.281073 0.6786 -0.678602
    outer loop
      vertex -21.25 3.625 0.100481
      vertex -21.7093 3.70928 0.375
      vertex -21.25 3.89952 0.375
    endloop
  endfacet
  facet normal -0.357395 0.862866 -0.357395
    outer loop
      vertex -21.25 3.89952 0.375
      vertex -21.7093 3.70928 0.375
      vertex -21.625 3.89952 0.75
    endloop
  endfacet
  facet normal 0.357407 0.862856 0.357407
    outer loop
      vertex -2.375 3.89952 19.25
      vertex -2.75 3.89952 19.625
      vertex -2.29072 3.70928 19.625
    endloop
  endfacet
  facet normal 0.281075 0.678576 0.678625
    outer loop
      vertex -2.75 3.89952 19.625
      vertex -2.75 3.625 19.8995
      vertex -2.29072 3.70928 19.625
    endloop
  endfacet
  facet normal 0.250563 0.250563 -0.935113
    outer loop
      vertex -2.375 3.25 0.100481
      vertex -2.75 3.25 0
      vertex -2.75 3.625 0.100481
    endloop
  endfacet
  facet normal 1 0 0
    outer loop
      vertex -2 3.25 19.25
      vertex -2 2.75 18.75
      vertex -2 3.25 0.75
    endloop
  endfacet
  facet normal 1 -0 0
    outer loop
      vertex -2 0 19.25
      vertex -2 2.75 18.75
      vertex -2 3.25 19.25
    endloop
  endfacet
  facet normal 1 0 0
    outer loop
      vertex -2 2.75 18.75
      vertex -2 0 19.25
      vertex -2 0 18.75
    endloop
  endfacet
  facet normal 1 0 0
    outer loop
      vertex -2 3.25 0.75
      vertex -2 2.75 18.75
      vertex -2 2.75 0.75
    endloop
  endfacet
  facet normal -0.410949 0.410949 0.813783
    outer loop
      vertex -21.25 3.625 19.8995
      vertex -21.7093 3.70928 19.625
      vertex -21.625 3.25 19.8995
    endloop
  endfacet
  facet normal -0.935091 0.250604 0.250604
    outer loop
      vertex -21.8995 3.625 19.25
      vertex -22 3.25 19.25
      vertex -21.8995 3.25 19.625
    endloop
  endfacet
  facet normal 0.862856 -0.357407 -0.357407
    outer loop
      vertex -2.10048 2.375 0.75
      vertex -2.29072 2.29072 0.375
      vertex -2.10048 2.75 0.375
    endloop
  endfacet
  facet normal -0.410967 0.410967 -0.813764
    outer loop
      vertex -21.625 3.25 0.100481
      vertex -21.7093 3.70928 0.375
      vertex -21.25 3.625 0.100481
    endloop
  endfacet
  facet normal -0.250563 0.250563 -0.935113
    outer loop
      vertex -21.25 3.25 0
      vertex -21.625 3.25 0.100481
      vertex -21.25 3.625 0.100481
    endloop
  endfacet
  facet normal -0.707133 0.707081 0
    outer loop
      vertex -21.8995 3.625 0.75
      vertex -21.625 3.89952 19.25
      vertex -21.625 3.89952 0.75
    endloop
  endfacet
  facet normal -0.707133 0.707081 0
    outer loop
      vertex -21.625 3.89952 19.25
      vertex -21.8995 3.625 0.75
      vertex -21.8995 3.625 19.25
    endloop
  endfacet
  facet normal -1 0 0
    outer loop
      vertex -22 2.75 18.75
      vertex -22 3.25 0.75
      vertex -22 2.75 0.75
    endloop
  endfacet
  facet normal -1 0 0
    outer loop
      vertex -22 3.25 0.75
      vertex -22 2.75 18.75
      vertex -22 3.25 19.25
    endloop
  endfacet
  facet normal -1 0 0
    outer loop
      vertex -22 0 19.25
      vertex -22 2.75 18.75
      vertex -22 0 18.75
    endloop
  endfacet
  facet normal -1 0 0
    outer loop
      vertex -22 2.75 18.75
      vertex -22 0 19.25
      vertex -22 3.25 19.25
    endloop
  endfacet
  facet normal -0.410967 -0.410967 -0.813764
    outer loop
      vertex -21.25 2.375 0.100481
      vertex -21.7093 2.29072 0.375
      vertex -21.625 2.75 0.100481
    endloop
  endfacet
  facet normal -0.935091 -0.250604 -0.250604
    outer loop
      vertex -21.8995 2.375 0.75
      vertex -22 2.75 0.75
      vertex -21.8995 2.75 0.375
    endloop
  endfacet
  facet normal 0.707081 0 0.707133
    outer loop
      vertex -2.375 3.25 19.8995
      vertex -2.10048 -0.100481 19.625
      vertex -2.10048 3.25 19.625
    endloop
  endfacet
  facet normal 0.707081 0 0.707133
    outer loop
      vertex -2.10048 -0.100481 19.625
      vertex -2.375 3.25 19.8995
      vertex -2.375 -0.375 19.8995
    endloop
  endfacet
  facet normal 0.965926 0.258817 0
    outer loop
      vertex -2 3.25 19.25
      vertex -2.10048 3.625 0.75
      vertex -2.10048 3.625 19.25
    endloop
  endfacet
  facet normal 0.965926 0.258817 0
    outer loop
      vertex -2.10048 3.625 0.75
      vertex -2 3.25 19.25
      vertex -2 3.25 0.75
    endloop
  endfacet
  facet normal 0 0.707081 0.707133
    outer loop
      vertex -2.75 3.89952 19.625
      vertex -21.25 3.625 19.8995
      vertex -2.75 3.625 19.8995
    endloop
  endfacet
  facet normal 0 0.707081 0.707133
    outer loop
      vertex -21.25 3.625 19.8995
      vertex -2.75 3.89952 19.625
      vertex -21.25 3.89952 19.625
    endloop
  endfacet
  facet normal -0.357395 0.862866 0.357395
    outer loop
      vertex -21.625 3.89952 19.25
      vertex -21.7093 3.70928 19.625
      vertex -21.25 3.89952 19.625
    endloop
  endfacet
  facet normal -0.693435 0.693384 0.195874
    outer loop
      vertex -21.625 3.89952 19.25
      vertex -21.8995 3.625 19.25
      vertex -21.7093 3.70928 19.625
    endloop
  endfacet
  facet normal -0.707133 -0.707081 -0
    outer loop
      vertex -21.625 2.10048 18.1005
      vertex -21.8995 2.375 0.75
      vertex -21.625 2.10048 0.75
    endloop
  endfacet
  facet normal -0.707133 -0.707081 0
    outer loop
      vertex -21.8995 2.375 0.75
      vertex -21.625 2.10048 18.1005
      vertex -21.8995 2.375 18.375
    endloop
  endfacet
  facet normal -0.258817 -0.965926 0
    outer loop
      vertex -21.625 2.10048 0.75
      vertex -21.25 2 18
      vertex -21.625 2.10048 18.1005
    endloop
  endfacet
  facet normal -0.258817 -0.965926 -0
    outer loop
      vertex -21.25 2 18
      vertex -21.625 2.10048 0.75
      vertex -21.25 2 0.75
    endloop
  endfacet
  facet normal 0.281084 -0.678597 -0.6786
    outer loop
      vertex -2.29072 2.29072 0.375
      vertex -2.75 2.10048 0.375
      vertex -2.75 2.375 0.100481
    endloop
  endfacet
  facet normal 0.862856 0.357407 -0.357407
    outer loop
      vertex -2.10048 3.25 0.375
      vertex -2.29072 3.70928 0.375
      vertex -2.10048 3.625 0.75
    endloop
  endfacet
  facet normal 0.258819 0 -0.965926
    outer loop
      vertex -2.75 2.75 0
      vertex -2.375 3.25 0.100481
      vertex -2.375 2.75 0.100481
    endloop
  endfacet
  facet normal 0.258819 0 -0.965926
    outer loop
      vertex -2.375 3.25 0.100481
      vertex -2.75 2.75 0
      vertex -2.75 3.25 0
    endloop
  endfacet
  facet normal -0.965914 0 0.258865
    outer loop
      vertex -22 0 19.25
      vertex -21.8995 3.25 19.625
      vertex -22 3.25 19.25
    endloop
  endfacet
  facet normal -0.965914 0 0.258865
    outer loop
      vertex -21.8995 3.25 19.625
      vertex -22 0 19.25
      vertex -21.8995 -0.100481 19.625
    endloop
  endfacet
  facet normal -0.281073 -0.6786 -0.678602
    outer loop
      vertex -21.25 2.10048 0.375
      vertex -21.7093 2.29072 0.375
      vertex -21.25 2.375 0.100481
    endloop
  endfacet
  facet normal -0.357395 -0.862866 -0.357395
    outer loop
      vertex -21.625 2.10048 0.75
      vertex -21.7093 2.29072 0.375
      vertex -21.25 2.10048 0.375
    endloop
  endfacet
  facet normal 0.410959 0.410959 0.813773
    outer loop
      vertex -2.29072 3.70928 19.625
      vertex -2.75 3.625 19.8995
      vertex -2.375 3.25 19.8995
    endloop
  endfacet
  facet normal 0.935114 0.250561 0.250561
    outer loop
      vertex -2.10048 3.625 19.25
      vertex -2.10048 3.25 19.625
      vertex -2 3.25 19.25
    endloop
  endfacet
  facet normal 0.678576 0.281075 0.678625
    outer loop
      vertex -2.29072 3.70928 19.625
      vertex -2.375 3.25 19.8995
      vertex -2.10048 3.25 19.625
    endloop
  endfacet
  facet normal 0.250561 0.935114 0.250561
    outer loop
      vertex -2.75 4 19.25
      vertex -2.75 3.89952 19.625
      vertex -2.375 3.89952 19.25
    endloop
  endfacet
  facet normal 0 0 1
    outer loop
      vertex -2.75 3.25 20
      vertex -21.25 3.25 20
      vertex -2.75 -0.75 20
    endloop
  endfacet
  facet normal 0 0 1
    outer loop
      vertex 49.25 3.25 20
      vertex 30.75 3.25 20
      vertex 49.25 -0.75 20
    endloop
  endfacet
  facet normal -0 0 1
    outer loop
      vertex 49.25 -0.75 20
      vertex 59.25 -1.25 20
      vertex 59.25 -0.75 20
    endloop
  endfacet
  facet normal 0 0 1
    outer loop
      vertex 30.75 -0.75 20
      vertex 49.25 -0.75 20
      vertex 30.75 3.25 20
    endloop
  endfacet
  facet normal -0 0 1
    outer loop
      vertex 30.75 -0.75 20
      vertex 59.25 -1.25 20
      vertex 49.25 -0.75 20
    endloop
  endfacet
  facet normal -0 0 1
    outer loop
      vertex -2.75 -0.75 20
      vertex 59.25 -1.25 20
      vertex 30.75 -0.75 20
    endloop
  endfacet
  facet normal 0 0 1
    outer loop
      vertex -21.25 -0.75 20
      vertex -2.75 -0.75 20
      vertex -21.25 3.25 20
    endloop
  endfacet
  facet normal -0 0 1
    outer loop
      vertex -21.25 -0.75 20
      vertex 59.25 -1.25 20
      vertex -2.75 -0.75 20
    endloop
  endfacet
  facet normal 0 0 1
    outer loop
      vertex -59.25 -1.25 20
      vertex -21.25 -0.75 20
      vertex -59.25 -0.75 20
    endloop
  endfacet
  facet normal 0 0 1
    outer loop
      vertex -21.25 -0.75 20
      vertex -59.25 -1.25 20
      vertex 59.25 -1.25 20
    endloop
  endfacet
  facet normal 0.258865 0 0.965914
    outer loop
      vertex -2.75 3.25 20
      vertex -2.375 -0.375 19.8995
      vertex -2.375 3.25 19.8995
    endloop
  endfacet
  facet normal 0.258865 0 0.965914
    outer loop
      vertex -2.375 -0.375 19.8995
      vertex -2.75 3.25 20
      vertex -2.75 -0.75 20
    endloop
  endfacet
  facet normal 0.357407 -0.862856 -0.357407
    outer loop
      vertex -2.375 2.10048 0.75
      vertex -2.75 2.10048 0.375
      vertex -2.29072 2.29072 0.375
    endloop
  endfacet
  facet normal 0.678597 -0.281084 -0.6786
    outer loop
      vertex -2.29072 2.29072 0.375
      vertex -2.375 2.75 0.100481
      vertex -2.10048 2.75 0.375
    endloop
  endfacet
  facet normal 0 0.707105 -0.707108
    outer loop
      vertex -2.75 3.625 0.100481
      vertex -21.25 3.89952 0.375
      vertex -2.75 3.89952 0.375
    endloop
  endfacet
  facet normal 0 0.707105 -0.707108
    outer loop
      vertex -21.25 3.89952 0.375
      vertex -2.75 3.625 0.100481
      vertex -21.25 3.625 0.100481
    endloop
  endfacet
  facet normal 0.707105 0 -0.707108
    outer loop
      vertex -2.10048 2.75 0.375
      vertex -2.375 3.25 0.100481
      vertex -2.10048 3.25 0.375
    endloop
  endfacet
  facet normal 0.707105 0 -0.707108
    outer loop
      vertex -2.375 3.25 0.100481
      vertex -2.10048 2.75 0.375
      vertex -2.375 2.75 0.100481
    endloop
  endfacet
  facet normal -0.67861 0.28103 0.67861
    outer loop
      vertex -21.7093 3.70928 19.625
      vertex -21.8995 3.25 19.625
      vertex -21.625 3.25 19.8995
    endloop
  endfacet
  facet normal -0.862903 0.357351 0.357351
    outer loop
      vertex -21.8995 3.625 19.25
      vertex -21.8995 3.25 19.625
      vertex -21.7093 3.70928 19.625
    endloop
  endfacet
  facet normal 0.862856 0.357407 0.357407
    outer loop
      vertex -2.10048 3.625 19.25
      vertex -2.29072 3.70928 19.625
      vertex -2.10048 3.25 19.625
    endloop
  endfacet
  facet normal 0.693402 0.693402 0.195928
    outer loop
      vertex -2.10048 3.625 19.25
      vertex -2.375 3.89952 19.25
      vertex -2.29072 3.70928 19.625
    endloop
  endfacet
  facet normal 0.693402 -0.693402 -0.195928
    outer loop
      vertex -2.10048 2.375 0.75
      vertex -2.375 2.10048 0.75
      vertex -2.29072 2.29072 0.375
    endloop
  endfacet
  facet normal 0.250561 0.935114 -0.250561
    outer loop
      vertex -2.375 3.89952 0.75
      vertex -2.75 3.89952 0.375
      vertex -2.75 4 0.75
    endloop
  endfacet
  facet normal 0.258817 0.965926 -0
    outer loop
      vertex -2.375 3.89952 0.75
      vertex -2.75 4 19.25
      vertex -2.375 3.89952 19.25
    endloop
  endfacet
  facet normal 0.258817 0.965926 0
    outer loop
      vertex -2.75 4 19.25
      vertex -2.375 3.89952 0.75
      vertex -2.75 4 0.75
    endloop
  endfacet
  facet normal 0.281084 0.678597 -0.6786
    outer loop
      vertex -2.29072 3.70928 0.375
      vertex -2.75 3.625 0.100481
      vertex -2.75 3.89952 0.375
    endloop
  endfacet
  facet normal 0.935114 0.250561 -0.250561
    outer loop
      vertex -2 3.25 0.75
      vertex -2.10048 3.25 0.375
      vertex -2.10048 3.625 0.75
    endloop
  endfacet
  facet normal 0 0 -1
    outer loop
      vertex -21.25 2.75 0
      vertex -2.75 3.25 0
      vertex -2.75 2.75 0
    endloop
  endfacet
  facet normal -0 0 -1
    outer loop
      vertex -2.75 3.25 0
      vertex -21.25 2.75 0
      vertex -21.25 3.25 0
    endloop
  endfacet
  facet normal 0.410977 -0.410977 -0.813754
    outer loop
      vertex -2.29072 2.29072 0.375
      vertex -2.75 2.375 0.100481
      vertex -2.375 2.75 0.100481
    endloop
  endfacet
  facet normal 0.250563 -0.250563 -0.935113
    outer loop
      vertex -2.375 2.75 0.100481
      vertex -2.75 2.375 0.100481
      vertex -2.75 2.75 0
    endloop
  endfacet
  facet normal 0.707107 -0.707107 0
    outer loop
      vertex -2.375 2.10048 18.1005
      vertex -2.10048 2.375 0.75
      vertex -2.10048 2.375 18.375
    endloop
  endfacet
  facet normal 0.707107 -0.707107 0
    outer loop
      vertex -2.10048 2.375 0.75
      vertex -2.375 2.10048 18.1005
      vertex -2.375 2.10048 0.75
    endloop
  endfacet
  facet normal 0.965926 0 -0.258817
    outer loop
      vertex -2 2.75 0.75
      vertex -2.10048 3.25 0.375
      vertex -2 3.25 0.75
    endloop
  endfacet
  facet normal 0.965926 0 -0.258817
    outer loop
      vertex -2.10048 3.25 0.375
      vertex -2 2.75 0.75
      vertex -2.10048 2.75 0.375
    endloop
  endfacet
  facet normal 0.357407 0.862856 -0.357407
    outer loop
      vertex -2.29072 3.70928 0.375
      vertex -2.75 3.89952 0.375
      vertex -2.375 3.89952 0.75
    endloop
  endfacet
  facet normal 0.693402 0.693402 -0.195928
    outer loop
      vertex -2.29072 3.70928 0.375
      vertex -2.375 3.89952 0.75
      vertex -2.10048 3.625 0.75
    endloop
  endfacet
  facet normal 0 0 -1
    outer loop
      vertex -21.25 0 18
      vertex -2.75 2 18
      vertex -2.75 0 18
    endloop
  endfacet
  facet normal -0 0 -1
    outer loop
      vertex -2.75 2 18
      vertex -21.25 0 18
      vertex -21.25 2 18
    endloop
  endfacet
  facet normal -0.258865 0 -0.965914
    outer loop
      vertex -21.625 0 18.1005
      vertex -21.25 2 18
      vertex -21.25 0 18
    endloop
  endfacet
  facet normal -0.258865 0 -0.965914
    outer loop
      vertex -21.25 2 18
      vertex -21.625 0 18.1005
      vertex -21.625 2.10048 18.1005
    endloop
  endfacet
  facet normal 0.707081 0 -0.707133
    outer loop
      vertex -2.10048 0 18.375
      vertex -2.375 2.10048 18.1005
      vertex -2.10048 2.375 18.375
    endloop
  endfacet
  facet normal 0.707081 0 -0.707133
    outer loop
      vertex -2.375 2.10048 18.1005
      vertex -2.10048 0 18.375
      vertex -2.375 0 18.1005
    endloop
  endfacet
  facet normal -0.965914 0 -0.258865
    outer loop
      vertex -22 0 18.75
      vertex -21.8995 2.375 18.375
      vertex -21.8995 0 18.375
    endloop
  endfacet
  facet normal -0.965914 0 -0.258865
    outer loop
      vertex -21.8995 2.375 18.375
      vertex -22 0 18.75
      vertex -22 2.75 18.75
    endloop
  endfacet
  facet normal 0.965926 0 -0.258817
    outer loop
      vertex -2 0 18.75
      vertex -2.10048 2.375 18.375
      vertex -2 2.75 18.75
    endloop
  endfacet
  facet normal 0.965926 0 -0.258817
    outer loop
      vertex -2.10048 2.375 18.375
      vertex -2 0 18.75
      vertex -2.10048 0 18.375
    endloop
  endfacet
  facet normal 0.258865 0 -0.965914
    outer loop
      vertex -2.75 2 18
      vertex -2.375 0 18.1005
      vertex -2.75 0 18
    endloop
  endfacet
  facet normal 0.258865 0 -0.965914
    outer loop
      vertex -2.375 0 18.1005
      vertex -2.75 2 18
      vertex -2.375 2.10048 18.1005
    endloop
  endfacet
  facet normal -0.707107 0 -0.707107
    outer loop
      vertex -21.8995 0 18.375
      vertex -21.625 2.10048 18.1005
      vertex -21.625 0 18.1005
    endloop
  endfacet
  facet normal -0.707107 0 -0.707107
    outer loop
      vertex -21.625 2.10048 18.1005
      vertex -21.8995 0 18.375
      vertex -21.8995 2.375 18.375
    endloop
  endfacet
  facet normal 0 1 -0
    outer loop
      vertex 49.25 4 0.75
      vertex 30.75 4 19.25
      vertex 49.25 4 19.25
    endloop
  endfacet
  facet normal 0 1 0
    outer loop
      vertex 30.75 4 19.25
      vertex 49.25 4 0.75
      vertex 30.75 4 0.75
    endloop
  endfacet
  facet normal -0.678631 -0.281039 -0.678584
    outer loop
      vertex 30.2907 2.29072 0.375
      vertex 30.1005 2.75 0.375
      vertex 30.375 2.75 0.100481
    endloop
  endfacet
  facet normal 0.410967 0.410967 -0.813764
    outer loop
      vertex 49.625 3.25 0.100481
      vertex 49.25 3.625 0.100481
      vertex 49.7093 3.70928 0.375
    endloop
  endfacet
  facet normal -0.862903 -0.357351 -0.357351
    outer loop
      vertex 30.2907 2.29072 0.375
      vertex 30.1005 2.375 0.75
      vertex 30.1005 2.75 0.375
    endloop
  endfacet
  facet normal -0.678631 0.281039 -0.678584
    outer loop
      vertex 30.375 3.25 0.100481
      vertex 30.1005 3.25 0.375
      vertex 30.2907 3.70928 0.375
    endloop
  endfacet
  facet normal -0.250563 -0.250563 -0.935113
    outer loop
      vertex 30.75 2.375 0.100481
      vertex 30.375 2.75 0.100481
      vertex 30.75 2.75 0
    endloop
  endfacet
  facet normal -0.258817 0.965926 0
    outer loop
      vertex 30.75 4 0.75
      vertex 30.375 3.89952 19.25
      vertex 30.75 4 19.25
    endloop
  endfacet
  facet normal -0.258817 0.965926 0
    outer loop
      vertex 30.375 3.89952 19.25
      vertex 30.75 4 0.75
      vertex 30.375 3.89952 0.75
    endloop
  endfacet
  facet normal 0.250561 -0.935114 -0.250561
    outer loop
      vertex 49.625 2.10048 0.75
      vertex 49.25 2 0.75
      vertex 49.25 2.10048 0.375
    endloop
  endfacet
  facet normal -0.250561 -0.935114 -0.250561
    outer loop
      vertex 30.75 2 0.75
      vertex 30.375 2.10048 0.75
      vertex 30.75 2.10048 0.375
    endloop
  endfacet
  facet normal 0 0.965926 -0.258817
    outer loop
      vertex 49.25 3.89952 0.375
      vertex 30.75 4 0.75
      vertex 49.25 4 0.75
    endloop
  endfacet
  facet normal 0 0.965926 -0.258817
    outer loop
      vertex 30.75 4 0.75
      vertex 49.25 3.89952 0.375
      vertex 30.75 3.89952 0.375
    endloop
  endfacet
  facet normal 0 -1 0
    outer loop
      vertex 30.75 2 0.75
      vertex 49.25 2 18
      vertex 30.75 2 18
    endloop
  endfacet
  facet normal 0 -1 -0
    outer loop
      vertex 49.25 2 18
      vertex 30.75 2 0.75
      vertex 49.25 2 0.75
    endloop
  endfacet
  facet normal -0.965914 0 -0.258865
    outer loop
      vertex 30.1005 2.75 0.375
      vertex 30 3.25 0.75
      vertex 30.1005 3.25 0.375
    endloop
  endfacet
  facet normal -0.965914 -0 -0.258865
    outer loop
      vertex 30 3.25 0.75
      vertex 30.1005 2.75 0.375
      vertex 30 2.75 0.75
    endloop
  endfacet
  facet normal 0.707133 0.707081 -0
    outer loop
      vertex 49.8995 3.625 0.75
      vertex 49.625 3.89952 19.25
      vertex 49.8995 3.625 19.25
    endloop
  endfacet
  facet normal 0.707133 0.707081 0
    outer loop
      vertex 49.625 3.89952 19.25
      vertex 49.8995 3.625 0.75
      vertex 49.625 3.89952 0.75
    endloop
  endfacet
  facet normal 0.678631 0.281039 -0.678584
    outer loop
      vertex 49.8995 3.25 0.375
      vertex 49.625 3.25 0.100481
      vertex 49.7093 3.70928 0.375
    endloop
  endfacet
  facet normal -0.250604 0.250604 0.935091
    outer loop
      vertex 30.75 3.625 19.8995
      vertex 30.375 3.25 19.8995
      vertex 30.75 3.25 20
    endloop
  endfacet
  facet normal 0.258817 -0.965926 0
    outer loop
      vertex 49.625 2.10048 0.75
      vertex 49.25 2 18
      vertex 49.25 2 0.75
    endloop
  endfacet
  facet normal 0.258817 -0.965926 0
    outer loop
      vertex 49.25 2 18
      vertex 49.625 2.10048 0.75
      vertex 49.625 2.10048 18.1005
    endloop
  endfacet
  facet normal -0.707131 0 -0.707082
    outer loop
      vertex 30.375 2.75 0.100481
      vertex 30.1005 3.25 0.375
      vertex 30.375 3.25 0.100481
    endloop
  endfacet
  facet normal -0.707131 -0 -0.707082
    outer loop
      vertex 30.1005 3.25 0.375
      vertex 30.375 2.75 0.100481
      vertex 30.1005 2.75 0.375
    endloop
  endfacet
  facet normal 0 -0.965926 -0.258817
    outer loop
      vertex 30.75 2.10048 0.375
      vertex 49.25 2 0.75
      vertex 30.75 2 0.75
    endloop
  endfacet
  facet normal 0 -0.965926 -0.258817
    outer loop
      vertex 49.25 2 0.75
      vertex 30.75 2.10048 0.375
      vertex 49.25 2.10048 0.375
    endloop
  endfacet
  facet normal -0.693435 0.693384 -0.195874
    outer loop
      vertex 30.2907 3.70928 0.375
      vertex 30.1005 3.625 0.75
      vertex 30.375 3.89952 0.75
    endloop
  endfacet
  facet normal -0 0.258865 0.965914
    outer loop
      vertex 30.75 3.625 19.8995
      vertex 49.25 3.25 20
      vertex 49.25 3.625 19.8995
    endloop
  endfacet
  facet normal 0 0.258865 0.965914
    outer loop
      vertex 49.25 3.25 20
      vertex 30.75 3.625 19.8995
      vertex 30.75 3.25 20
    endloop
  endfacet
  facet normal 0.250604 0.250604 0.935091
    outer loop
      vertex 49.25 3.625 19.8995
      vertex 49.25 3.25 20
      vertex 49.625 3.25 19.8995
    endloop
  endfacet
  facet normal -0.250561 0.935114 0.250561
    outer loop
      vertex 30.75 4 19.25
      vertex 30.375 3.89952 19.25
      vertex 30.75 3.89952 19.625
    endloop
  endfacet
  facet normal 0 0.965926 0.258817
    outer loop
      vertex 49.25 4 19.25
      vertex 30.75 3.89952 19.625
      vertex 49.25 3.89952 19.625
    endloop
  endfacet
  facet normal 0 0.965926 0.258817
    outer loop
      vertex 30.75 3.89952 19.625
      vertex 49.25 4 19.25
      vertex 30.75 4 19.25
    endloop
  endfacet
  facet normal 0.965914 0 0.258865
    outer loop
      vertex 49.8995 3.25 19.625
      vertex 50 0 19.25
      vertex 50 3.25 19.25
    endloop
  endfacet
  facet normal 0.965914 0 0.258865
    outer loop
      vertex 50 0 19.25
      vertex 49.8995 3.25 19.625
      vertex 49.8995 -0.100481 19.625
    endloop
  endfacet
  facet normal 0.965914 -0.258865 0
    outer loop
      vertex 49.8995 2.375 18.375
      vertex 50 2.75 0.75
      vertex 50 2.75 18.75
    endloop
  endfacet
  facet normal 0.965914 -0.258865 0
    outer loop
      vertex 50 2.75 0.75
      vertex 49.8995 2.375 18.375
      vertex 49.8995 2.375 0.75
    endloop
  endfacet
  facet normal -0.250561 0.935114 -0.250561
    outer loop
      vertex 30.75 3.89952 0.375
      vertex 30.375 3.89952 0.75
      vertex 30.75 4 0.75
    endloop
  endfacet
  facet normal -0.258819 0 -0.965926
    outer loop
      vertex 30.375 2.75 0.100481
      vertex 30.75 3.25 0
      vertex 30.75 2.75 0
    endloop
  endfacet
  facet normal -0.258819 0 -0.965926
    outer loop
      vertex 30.75 3.25 0
      vertex 30.375 2.75 0.100481
      vertex 30.375 3.25 0.100481
    endloop
  endfacet
  facet normal 0 0.258819 -0.965926
    outer loop
      vertex 30.75 3.25 0
      vertex 49.25 3.625 0.100481
      vertex 49.25 3.25 0
    endloop
  endfacet
  facet normal 0 0.258819 -0.965926
    outer loop
      vertex 49.25 3.625 0.100481
      vertex 30.75 3.25 0
      vertex 30.75 3.625 0.100481
    endloop
  endfacet
  facet normal -0.281064 0.678578 0.678627
    outer loop
      vertex 30.75 3.89952 19.625
      vertex 30.2907 3.70928 19.625
      vertex 30.75 3.625 19.8995
    endloop
  endfacet
  facet normal 0.935091 -0.250604 -0.250604
    outer loop
      vertex 50 2.75 0.75
      vertex 49.8995 2.375 0.75
      vertex 49.8995 2.75 0.375
    endloop
  endfacet
  facet normal 0 -0.258819 -0.965926
    outer loop
      vertex 30.75 2.375 0.100481
      vertex 49.25 2.75 0
      vertex 49.25 2.375 0.100481
    endloop
  endfacet
  facet normal -0 -0.258819 -0.965926
    outer loop
      vertex 49.25 2.75 0
      vertex 30.75 2.375 0.100481
      vertex 30.75 2.75 0
    endloop
  endfacet
  facet normal 0 -0.707105 -0.707108
    outer loop
      vertex 30.75 2.375 0.100481
      vertex 49.25 2.10048 0.375
      vertex 30.75 2.10048 0.375
    endloop
  endfacet
  facet normal 0 -0.707105 -0.707108
    outer loop
      vertex 49.25 2.10048 0.375
      vertex 30.75 2.375 0.100481
      vertex 49.25 2.375 0.100481
    endloop
  endfacet
  facet normal -0.693435 -0.693384 -0.195874
    outer loop
      vertex 30.375 2.10048 0.75
      vertex 30.1005 2.375 0.75
      vertex 30.2907 2.29072 0.375
    endloop
  endfacet
  facet normal -0.862903 0.357351 -0.357351
    outer loop
      vertex 30.2907 3.70928 0.375
      vertex 30.1005 3.25 0.375
      vertex 30.1005 3.625 0.75
    endloop
  endfacet
  facet normal -0.965914 0.258865 0
    outer loop
      vertex 30 3.25 0.75
      vertex 30.1005 3.625 19.25
      vertex 30.1005 3.625 0.75
    endloop
  endfacet
  facet normal -0.965914 0.258865 0
    outer loop
      vertex 30.1005 3.625 19.25
      vertex 30 3.25 0.75
      vertex 30 3.25 19.25
    endloop
  endfacet
  facet normal -0.935091 0.250604 -0.250604
    outer loop
      vertex 30.1005 3.25 0.375
      vertex 30 3.25 0.75
      vertex 30.1005 3.625 0.75
    endloop
  endfacet
  facet normal -0.965914 -0.258865 -0
    outer loop
      vertex 30.1005 2.375 18.375
      vertex 30 2.75 0.75
      vertex 30.1005 2.375 0.75
    endloop
  endfacet
  facet normal -0.965914 -0.258865 0
    outer loop
      vertex 30 2.75 0.75
      vertex 30.1005 2.375 18.375
      vertex 30 2.75 18.75
    endloop
  endfacet
  facet normal -0.258865 0 0.965914
    outer loop
      vertex 30.375 -0.375 19.8995
      vertex 30.75 3.25 20
      vertex 30.375 3.25 19.8995
    endloop
  endfacet
  facet normal -0.258865 0 0.965914
    outer loop
      vertex 30.75 3.25 20
      vertex 30.375 -0.375 19.8995
      vertex 30.75 -0.75 20
    endloop
  endfacet
  facet normal -0.707107 0 0.707107
    outer loop
      vertex 30.1005 -0.100481 19.625
      vertex 30.375 3.25 19.8995
      vertex 30.1005 3.25 19.625
    endloop
  endfacet
  facet normal -0.707107 0 0.707107
    outer loop
      vertex 30.375 3.25 19.8995
      vertex 30.1005 -0.100481 19.625
      vertex 30.375 -0.375 19.8995
    endloop
  endfacet
  facet normal -0.281073 0.6786 -0.678602
    outer loop
      vertex 30.75 3.625 0.100481
      vertex 30.2907 3.70928 0.375
      vertex 30.75 3.89952 0.375
    endloop
  endfacet
  facet normal -0.357395 0.862866 -0.357395
    outer loop
      vertex 30.75 3.89952 0.375
      vertex 30.2907 3.70928 0.375
      vertex 30.375 3.89952 0.75
    endloop
  endfacet
  facet normal 0.357395 0.862866 0.357395
    outer loop
      vertex 49.625 3.89952 19.25
      vertex 49.25 3.89952 19.625
      vertex 49.7093 3.70928 19.625
    endloop
  endfacet
  facet normal 0.281064 0.678578 0.678627
    outer loop
      vertex 49.25 3.89952 19.625
      vertex 49.25 3.625 19.8995
      vertex 49.7093 3.70928 19.625
    endloop
  endfacet
  facet normal 0.250563 0.250563 -0.935113
    outer loop
      vertex 49.625 3.25 0.100481
      vertex 49.25 3.25 0
      vertex 49.25 3.625 0.100481
    endloop
  endfacet
  facet normal 1 0 0
    outer loop
      vertex 50 3.25 19.25
      vertex 50 2.75 18.75
      vertex 50 3.25 0.75
    endloop
  endfacet
  facet normal 1 -0 0
    outer loop
      vertex 50 0 19.25
      vertex 50 2.75 18.75
      vertex 50 3.25 19.25
    endloop
  endfacet
  facet normal 1 0 0
    outer loop
      vertex 50 2.75 18.75
      vertex 50 0 19.25
      vertex 50 0 18.75
    endloop
  endfacet
  facet normal 1 0 0
    outer loop
      vertex 50 3.25 0.75
      vertex 50 2.75 18.75
      vertex 50 2.75 0.75
    endloop
  endfacet
  facet normal -0.410949 0.410949 0.813783
    outer loop
      vertex 30.75 3.625 19.8995
      vertex 30.2907 3.70928 19.625
      vertex 30.375 3.25 19.8995
    endloop
  endfacet
  facet normal -0.935091 0.250604 0.250604
    outer loop
      vertex 30.1005 3.625 19.25
      vertex 30 3.25 19.25
      vertex 30.1005 3.25 19.625
    endloop
  endfacet
  facet normal 0.862903 -0.357351 -0.357351
    outer loop
      vertex 49.8995 2.375 0.75
      vertex 49.7093 2.29072 0.375
      vertex 49.8995 2.75 0.375
    endloop
  endfacet
  facet normal -0.410967 0.410967 -0.813764
    outer loop
      vertex 30.375 3.25 0.100481
      vertex 30.2907 3.70928 0.375
      vertex 30.75 3.625 0.100481
    endloop
  endfacet
  facet normal -0.250563 0.250563 -0.935113
    outer loop
      vertex 30.75 3.25 0
      vertex 30.375 3.25 0.100481
      vertex 30.75 3.625 0.100481
    endloop
  endfacet
  facet normal -0.707133 0.707081 0
    outer loop
      vertex 30.1005 3.625 0.75
      vertex 30.375 3.89952 19.25
      vertex 30.375 3.89952 0.75
    endloop
  endfacet
  facet normal -0.707133 0.707081 0
    outer loop
      vertex 30.375 3.89952 19.25
      vertex 30.1005 3.625 0.75
      vertex 30.1005 3.625 19.25
    endloop
  endfacet
  facet normal -1 0 0
    outer loop
      vertex 30 2.75 18.75
      vertex 30 3.25 0.75
      vertex 30 2.75 0.75
    endloop
  endfacet
  facet normal -1 0 0
    outer loop
      vertex 30 3.25 0.75
      vertex 30 2.75 18.75
      vertex 30 3.25 19.25
    endloop
  endfacet
  facet normal -1 0 0
    outer loop
      vertex 30 0 19.25
      vertex 30 2.75 18.75
      vertex 30 0 18.75
    endloop
  endfacet
  facet normal -1 0 0
    outer loop
      vertex 30 2.75 18.75
      vertex 30 0 19.25
      vertex 30 3.25 19.25
    endloop
  endfacet
  facet normal -0.410967 -0.410967 -0.813764
    outer loop
      vertex 30.75 2.375 0.100481
      vertex 30.2907 2.29072 0.375
      vertex 30.375 2.75 0.100481
    endloop
  endfacet
  facet normal -0.935091 -0.250604 -0.250604
    outer loop
      vertex 30.1005 2.375 0.75
      vertex 30 2.75 0.75
      vertex 30.1005 2.75 0.375
    endloop
  endfacet
  facet normal 0.707107 0 0.707107
    outer loop
      vertex 49.625 3.25 19.8995
      vertex 49.8995 -0.100481 19.625
      vertex 49.8995 3.25 19.625
    endloop
  endfacet
  facet normal 0.707107 0 0.707107
    outer loop
      vertex 49.8995 -0.100481 19.625
      vertex 49.625 3.25 19.8995
      vertex 49.625 -0.375 19.8995
    endloop
  endfacet
  facet normal 0.965914 0.258865 0
    outer loop
      vertex 50 3.25 19.25
      vertex 49.8995 3.625 0.75
      vertex 49.8995 3.625 19.25
    endloop
  endfacet
  facet normal 0.965914 0.258865 0
    outer loop
      vertex 49.8995 3.625 0.75
      vertex 50 3.25 19.25
      vertex 50 3.25 0.75
    endloop
  endfacet
  facet normal 0 0.707081 0.707133
    outer loop
      vertex 49.25 3.89952 19.625
      vertex 30.75 3.625 19.8995
      vertex 49.25 3.625 19.8995
    endloop
  endfacet
  facet normal 0 0.707081 0.707133
    outer loop
      vertex 30.75 3.625 19.8995
      vertex 49.25 3.89952 19.625
      vertex 30.75 3.89952 19.625
    endloop
  endfacet
  facet normal -0.357395 0.862866 0.357395
    outer loop
      vertex 30.375 3.89952 19.25
      vertex 30.2907 3.70928 19.625
      vertex 30.75 3.89952 19.625
    endloop
  endfacet
  facet normal -0.693435 0.693384 0.195874
    outer loop
      vertex 30.375 3.89952 19.25
      vertex 30.1005 3.625 19.25
      vertex 30.2907 3.70928 19.625
    endloop
  endfacet
  facet normal -0.707133 -0.707081 -0
    outer loop
      vertex 30.375 2.10048 18.1005
      vertex 30.1005 2.375 0.75
      vertex 30.375 2.10048 0.75
    endloop
  endfacet
  facet normal -0.707133 -0.707081 0
    outer loop
      vertex 30.1005 2.375 0.75
      vertex 30.375 2.10048 18.1005
      vertex 30.1005 2.375 18.375
    endloop
  endfacet
  facet normal -0.258817 -0.965926 0
    outer loop
      vertex 30.375 2.10048 0.75
      vertex 30.75 2 18
      vertex 30.375 2.10048 18.1005
    endloop
  endfacet
  facet normal -0.258817 -0.965926 -0
    outer loop
      vertex 30.75 2 18
      vertex 30.375 2.10048 0.75
      vertex 30.75 2 0.75
    endloop
  endfacet
  facet normal 0.281073 -0.6786 -0.678602
    outer loop
      vertex 49.7093 2.29072 0.375
      vertex 49.25 2.10048 0.375
      vertex 49.25 2.375 0.100481
    endloop
  endfacet
  facet normal 0.862903 0.357351 -0.357351
    outer loop
      vertex 49.8995 3.25 0.375
      vertex 49.7093 3.70928 0.375
      vertex 49.8995 3.625 0.75
    endloop
  endfacet
  facet normal 0.258819 0 -0.965926
    outer loop
      vertex 49.25 2.75 0
      vertex 49.625 3.25 0.100481
      vertex 49.625 2.75 0.100481
    endloop
  endfacet
  facet normal 0.258819 0 -0.965926
    outer loop
      vertex 49.625 3.25 0.100481
      vertex 49.25 2.75 0
      vertex 49.25 3.25 0
    endloop
  endfacet
  facet normal -0.965914 0 0.258865
    outer loop
      vertex 30 0 19.25
      vertex 30.1005 3.25 19.625
      vertex 30 3.25 19.25
    endloop
  endfacet
  facet normal -0.965914 0 0.258865
    outer loop
      vertex 30.1005 3.25 19.625
      vertex 30 0 19.25
      vertex 30.1005 -0.100481 19.625
    endloop
  endfacet
  facet normal -0.281073 -0.6786 -0.678602
    outer loop
      vertex 30.75 2.10048 0.375
      vertex 30.2907 2.29072 0.375
      vertex 30.75 2.375 0.100481
    endloop
  endfacet
  facet normal -0.357395 -0.862866 -0.357395
    outer loop
      vertex 30.375 2.10048 0.75
      vertex 30.2907 2.29072 0.375
      vertex 30.75 2.10048 0.375
    endloop
  endfacet
  facet normal 0.410949 0.410949 0.813783
    outer loop
      vertex 49.7093 3.70928 19.625
      vertex 49.25 3.625 19.8995
      vertex 49.625 3.25 19.8995
    endloop
  endfacet
  facet normal 0.935091 0.250604 0.250604
    outer loop
      vertex 49.8995 3.625 19.25
      vertex 49.8995 3.25 19.625
      vertex 50 3.25 19.25
    endloop
  endfacet
  facet normal 0.67861 0.28103 0.67861
    outer loop
      vertex 49.7093 3.70928 19.625
      vertex 49.625 3.25 19.8995
      vertex 49.8995 3.25 19.625
    endloop
  endfacet
  facet normal 0.250561 0.935114 0.250561
    outer loop
      vertex 49.25 4 19.25
      vertex 49.25 3.89952 19.625
      vertex 49.625 3.89952 19.25
    endloop
  endfacet
  facet normal 0.258865 0 0.965914
    outer loop
      vertex 49.25 3.25 20
      vertex 49.625 -0.375 19.8995
      vertex 49.625 3.25 19.8995
    endloop
  endfacet
  facet normal 0.258865 0 0.965914
    outer loop
      vertex 49.625 -0.375 19.8995
      vertex 49.25 3.25 20
      vertex 49.25 -0.75 20
    endloop
  endfacet
  facet normal 0.357395 -0.862866 -0.357395
    outer loop
      vertex 49.625 2.10048 0.75
      vertex 49.25 2.10048 0.375
      vertex 49.7093 2.29072 0.375
    endloop
  endfacet
  facet normal 0.678631 -0.281039 -0.678584
    outer loop
      vertex 49.7093 2.29072 0.375
      vertex 49.625 2.75 0.100481
      vertex 49.8995 2.75 0.375
    endloop
  endfacet
  facet normal 0 0.707105 -0.707108
    outer loop
      vertex 49.25 3.625 0.100481
      vertex 30.75 3.89952 0.375
      vertex 49.25 3.89952 0.375
    endloop
  endfacet
  facet normal 0 0.707105 -0.707108
    outer loop
      vertex 30.75 3.89952 0.375
      vertex 49.25 3.625 0.100481
      vertex 30.75 3.625 0.100481
    endloop
  endfacet
  facet normal 0.707131 0 -0.707082
    outer loop
      vertex 49.625 2.75 0.100481
      vertex 49.8995 3.25 0.375
      vertex 49.8995 2.75 0.375
    endloop
  endfacet
  facet normal 0.707131 0 -0.707082
    outer loop
      vertex 49.8995 3.25 0.375
      vertex 49.625 2.75 0.100481
      vertex 49.625 3.25 0.100481
    endloop
  endfacet
  facet normal -0.67861 0.28103 0.67861
    outer loop
      vertex 30.2907 3.70928 19.625
      vertex 30.1005 3.25 19.625
      vertex 30.375 3.25 19.8995
    endloop
  endfacet
  facet normal -0.862903 0.357351 0.357351
    outer loop
      vertex 30.1005 3.625 19.25
      vertex 30.1005 3.25 19.625
      vertex 30.2907 3.70928 19.625
    endloop
  endfacet
  facet normal 0.862903 0.357351 0.357351
    outer loop
      vertex 49.8995 3.625 19.25
      vertex 49.7093 3.70928 19.625
      vertex 49.8995 3.25 19.625
    endloop
  endfacet
  facet normal 0.693435 0.693384 0.195874
    outer loop
      vertex 49.8995 3.625 19.25
      vertex 49.625 3.89952 19.25
      vertex 49.7093 3.70928 19.625
    endloop
  endfacet
  facet normal 0.693435 -0.693384 -0.195874
    outer loop
      vertex 49.8995 2.375 0.75
      vertex 49.625 2.10048 0.75
      vertex 49.7093 2.29072 0.375
    endloop
  endfacet
  facet normal 0.250561 0.935114 -0.250561
    outer loop
      vertex 49.625 3.89952 0.75
      vertex 49.25 3.89952 0.375
      vertex 49.25 4 0.75
    endloop
  endfacet
  facet normal 0.258817 0.965926 -0
    outer loop
      vertex 49.625 3.89952 0.75
      vertex 49.25 4 19.25
      vertex 49.625 3.89952 19.25
    endloop
  endfacet
  facet normal 0.258817 0.965926 0
    outer loop
      vertex 49.25 4 19.25
      vertex 49.625 3.89952 0.75
      vertex 49.25 4 0.75
    endloop
  endfacet
  facet normal 0.281073 0.6786 -0.678602
    outer loop
      vertex 49.7093 3.70928 0.375
      vertex 49.25 3.625 0.100481
      vertex 49.25 3.89952 0.375
    endloop
  endfacet
  facet normal 0.935091 0.250604 -0.250604
    outer loop
      vertex 50 3.25 0.75
      vertex 49.8995 3.25 0.375
      vertex 49.8995 3.625 0.75
    endloop
  endfacet
  facet normal 0 0 -1
    outer loop
      vertex 30.75 2.75 0
      vertex 49.25 3.25 0
      vertex 49.25 2.75 0
    endloop
  endfacet
  facet normal -0 0 -1
    outer loop
      vertex 49.25 3.25 0
      vertex 30.75 2.75 0
      vertex 30.75 3.25 0
    endloop
  endfacet
  facet normal 0.410967 -0.410967 -0.813764
    outer loop
      vertex 49.7093 2.29072 0.375
      vertex 49.25 2.375 0.100481
      vertex 49.625 2.75 0.100481
    endloop
  endfacet
  facet normal 0.250563 -0.250563 -0.935113
    outer loop
      vertex 49.625 2.75 0.100481
      vertex 49.25 2.375 0.100481
      vertex 49.25 2.75 0
    endloop
  endfacet
  facet normal 0.707133 -0.707081 0
    outer loop
      vertex 49.8995 2.375 0.75
      vertex 49.625 2.10048 18.1005
      vertex 49.625 2.10048 0.75
    endloop
  endfacet
  facet normal 0.707133 -0.707081 0
    outer loop
      vertex 49.625 2.10048 18.1005
      vertex 49.8995 2.375 0.75
      vertex 49.8995 2.375 18.375
    endloop
  endfacet
  facet normal 0.965914 0 -0.258865
    outer loop
      vertex 50 2.75 0.75
      vertex 49.8995 3.25 0.375
      vertex 50 3.25 0.75
    endloop
  endfacet
  facet normal 0.965914 0 -0.258865
    outer loop
      vertex 49.8995 3.25 0.375
      vertex 50 2.75 0.75
      vertex 49.8995 2.75 0.375
    endloop
  endfacet
  facet normal 0.357395 0.862866 -0.357395
    outer loop
      vertex 49.7093 3.70928 0.375
      vertex 49.25 3.89952 0.375
      vertex 49.625 3.89952 0.75
    endloop
  endfacet
  facet normal 0.693435 0.693384 -0.195874
    outer loop
      vertex 49.7093 3.70928 0.375
      vertex 49.625 3.89952 0.75
      vertex 49.8995 3.625 0.75
    endloop
  endfacet
  facet normal 0 0 -1
    outer loop
      vertex 30.75 0 18
      vertex 49.25 2 18
      vertex 49.25 0 18
    endloop
  endfacet
  facet normal -0 0 -1
    outer loop
      vertex 49.25 2 18
      vertex 30.75 0 18
      vertex 30.75 2 18
    endloop
  endfacet
  facet normal -0.258865 0 -0.965914
    outer loop
      vertex 30.375 0 18.1005
      vertex 30.75 2 18
      vertex 30.75 0 18
    endloop
  endfacet
  facet normal -0.258865 0 -0.965914
    outer loop
      vertex 30.75 2 18
      vertex 30.375 0 18.1005
      vertex 30.375 2.10048 18.1005
    endloop
  endfacet
  facet normal 0.707107 0 -0.707107
    outer loop
      vertex 49.625 2.10048 18.1005
      vertex 49.8995 0 18.375
      vertex 49.625 0 18.1005
    endloop
  endfacet
  facet normal 0.707107 0 -0.707107
    outer loop
      vertex 49.8995 0 18.375
      vertex 49.625 2.10048 18.1005
      vertex 49.8995 2.375 18.375
    endloop
  endfacet
  facet normal -0.965914 0 -0.258865
    outer loop
      vertex 30 0 18.75
      vertex 30.1005 2.375 18.375
      vertex 30.1005 0 18.375
    endloop
  endfacet
  facet normal -0.965914 0 -0.258865
    outer loop
      vertex 30.1005 2.375 18.375
      vertex 30 0 18.75
      vertex 30 2.75 18.75
    endloop
  endfacet
  facet normal 0.965914 0 -0.258865
    outer loop
      vertex 50 0 18.75
      vertex 49.8995 2.375 18.375
      vertex 50 2.75 18.75
    endloop
  endfacet
  facet normal 0.965914 0 -0.258865
    outer loop
      vertex 49.8995 2.375 18.375
      vertex 50 0 18.75
      vertex 49.8995 0 18.375
    endloop
  endfacet
  facet normal 0.258865 0 -0.965914
    outer loop
      vertex 49.25 2 18
      vertex 49.625 0 18.1005
      vertex 49.25 0 18
    endloop
  endfacet
  facet normal 0.258865 0 -0.965914
    outer loop
      vertex 49.625 0 18.1005
      vertex 49.25 2 18
      vertex 49.625 2.10048 18.1005
    endloop
  endfacet
  facet normal -0.707107 0 -0.707107
    outer loop
      vertex 30.1005 0 18.375
      vertex 30.375 2.10048 18.1005
      vertex 30.375 0 18.1005
    endloop
  endfacet
  facet normal -0.707107 0 -0.707107
    outer loop
      vertex 30.375 2.10048 18.1005
      vertex 30.1005 0 18.375
      vertex 30.1005 2.375 18.375
    endloop
  endfacet
  facet normal -0.707107 0 0.707107
    outer loop
      vertex -59.8995 -0.75 19.625
      vertex -59.625 -1.25 19.8995
      vertex -59.625 -0.75 19.8995
    endloop
  endfacet
  facet normal -0.707107 0 0.707107
    outer loop
      vertex -59.625 -1.25 19.8995
      vertex -59.8995 -0.75 19.625
      vertex -59.8995 -1.25 19.625
    endloop
  endfacet
  facet normal 0.250563 0.935113 0.250563
    outer loop
      vertex 59.25 0 19.25
      vertex 59.25 -0.100481 19.625
      vertex 59.625 -0.100481 19.25
    endloop
  endfacet
  facet normal -0.965914 -0.258865 0
    outer loop
      vertex -59.8995 -1.625 0.75
      vertex -60 -1.25 19.25
      vertex -60 -1.25 0.75
    endloop
  endfacet
  facet normal -0.965914 -0.258865 0
    outer loop
      vertex -60 -1.25 19.25
      vertex -59.8995 -1.625 0.75
      vertex -59.8995 -1.625 19.25
    endloop
  endfacet
  facet normal -0.935091 0.250604 -0.250604
    outer loop
      vertex -59.8995 -0.75 0.375
      vertex -60 -0.75 0.75
      vertex -59.8995 -0.375 0.75
    endloop
  endfacet
  facet normal -0.250563 0.935113 0.250563
    outer loop
      vertex -59.25 0 19.25
      vertex -59.625 -0.100481 19.25
      vertex -59.25 -0.100481 19.625
    endloop
  endfacet
  facet normal 0.410968 0.410968 -0.813763
    outer loop
      vertex 59.625 -0.75 0.100481
      vertex 59.25 -0.375 0.100481
      vertex 59.7093 -0.290721 0.375
    endloop
  endfacet
  facet normal 0.357395 -0.862866 0.357395
    outer loop
      vertex 59.7093 -1.70928 19.625
      vertex 59.25 -1.89952 19.625
      vertex 59.625 -1.89952 19.25
    endloop
  endfacet
  facet normal 1 -0 0
    outer loop
      vertex 60 -1.25 19.25
      vertex 60 -0.75 0.75
      vertex 60 -0.75 19.25
    endloop
  endfacet
  facet normal 1 0 0
    outer loop
      vertex 60 -0.75 0.75
      vertex 60 -1.25 19.25
      vertex 60 -1.25 0.75
    endloop
  endfacet
  facet normal -0.707133 -0.707081 0
    outer loop
      vertex -59.8995 -1.625 0.75
      vertex -59.625 -1.89952 19.25
      vertex -59.8995 -1.625 19.25
    endloop
  endfacet
  facet normal -0.707133 -0.707081 -0
    outer loop
      vertex -59.625 -1.89952 19.25
      vertex -59.8995 -1.625 0.75
      vertex -59.625 -1.89952 0.75
    endloop
  endfacet
  facet normal -0.693435 -0.693384 0.195874
    outer loop
      vertex -59.7093 -1.70928 19.625
      vertex -59.8995 -1.625 19.25
      vertex -59.625 -1.89952 19.25
    endloop
  endfacet
  facet normal 0 0.258819 -0.965926
    outer loop
      vertex -59.25 -0.75 0
      vertex 59.25 -0.375 0.100481
      vertex 59.25 -0.75 0
    endloop
  endfacet
  facet normal 0 0.258819 -0.965926
    outer loop
      vertex 59.25 -0.375 0.100481
      vertex -59.25 -0.75 0
      vertex -59.25 -0.375 0.100481
    endloop
  endfacet
  facet normal -0 0.965926 0.258819
    outer loop
      vertex 50 0 19.25
      vertex 59.25 -0.100481 19.625
      vertex 59.25 0 19.25
    endloop
  endfacet
  facet normal 0 0.965926 0.258819
    outer loop
      vertex 59.25 -0.100481 19.625
      vertex 50 0 19.25
      vertex 49.8995 -0.100481 19.625
    endloop
  endfacet
  facet normal 0 0.965926 0.258819
    outer loop
      vertex -22 0 19.25
      vertex -59.25 -0.100481 19.625
      vertex -21.8995 -0.100481 19.625
    endloop
  endfacet
  facet normal 0 0.965926 0.258819
    outer loop
      vertex -59.25 -0.100481 19.625
      vertex -22 0 19.25
      vertex -59.25 0 19.25
    endloop
  endfacet
  facet normal 0 0.965926 0.258819
    outer loop
      vertex 30 0 19.25
      vertex -2.10048 -0.100481 19.625
      vertex 30.1005 -0.100481 19.625
    endloop
  endfacet
  facet normal 0 0.965926 0.258819
    outer loop
      vertex -2.10048 -0.100481 19.625
      vertex 30 0 19.25
      vertex -2 0 19.25
    endloop
  endfacet
  facet normal -1 0 0
    outer loop
      vertex -60 -1.25 0.75
      vertex -60 -0.75 19.25
      vertex -60 -0.75 0.75
    endloop
  endfacet
  facet normal -1 -0 0
    outer loop
      vertex -60 -0.75 19.25
      vertex -60 -1.25 0.75
      vertex -60 -1.25 19.25
    endloop
  endfacet
  facet normal 0.678631 -0.281039 -0.678584
    outer loop
      vertex 59.7093 -1.70928 0.375
      vertex 59.625 -1.25 0.100481
      vertex 59.8995 -1.25 0.375
    endloop
  endfacet
  facet normal 0.258817 -0.965926 0
    outer loop
      vertex 59.25 -2 0.75
      vertex 59.625 -1.89952 19.25
      vertex 59.25 -2 19.25
    endloop
  endfacet
  facet normal 0.258817 -0.965926 0
    outer loop
      vertex 59.625 -1.89952 19.25
      vertex 59.25 -2 0.75
      vertex 59.625 -1.89952 0.75
    endloop
  endfacet
  facet normal -0.410968 0.410968 -0.813763
    outer loop
      vertex -59.625 -0.75 0.100481
      vertex -59.7093 -0.290721 0.375
      vertex -59.25 -0.375 0.100481
    endloop
  endfacet
  facet normal 0 1 0
    outer loop
      vertex 59.25 0 19.25
      vertex 50 0 18.75
      vertex 50 0 19.25
    endloop
  endfacet
  facet normal 0 1 0
    outer loop
      vertex 59.25 0 19.25
      vertex 49.8995 0 18.375
      vertex 50 0 18.75
    endloop
  endfacet
  facet normal 0 1 0
    outer loop
      vertex 59.25 0 19.25
      vertex 49.625 0 18.1005
      vertex 49.8995 0 18.375
    endloop
  endfacet
  facet normal 0 1 -0
    outer loop
      vertex 59.25 0 0.75
      vertex 49.625 0 18.1005
      vertex 59.25 0 19.25
    endloop
  endfacet
  facet normal 0 1 0
    outer loop
      vertex 59.25 0 0.75
      vertex 30.75 0 18
      vertex 49.25 0 18
    endloop
  endfacet
  facet normal 0 1 0
    outer loop
      vertex 30.75 0 18
      vertex 59.25 0 0.75
      vertex -2.75 0 18
    endloop
  endfacet
  facet normal 0 1 0
    outer loop
      vertex -59.25 0 0.75
      vertex -2.75 0 18
      vertex 59.25 0 0.75
    endloop
  endfacet
  facet normal 0 1 0
    outer loop
      vertex 49.625 0 18.1005
      vertex 59.25 0 0.75
      vertex 49.25 0 18
    endloop
  endfacet
  facet normal 0 1 -0
    outer loop
      vertex 30 0 18.75
      vertex -2 0 19.25
      vertex 30 0 19.25
    endloop
  endfacet
  facet normal 0 1 0
    outer loop
      vertex 30 0 18.75
      vertex -2 0 18.75
      vertex -2 0 19.25
    endloop
  endfacet
  facet normal 0 1 0
    outer loop
      vertex 30.1005 0 18.375
      vertex -2 0 18.75
      vertex 30 0 18.75
    endloop
  endfacet
  facet normal 0 1 0
    outer loop
      vertex 30.1005 0 18.375
      vertex -2.10048 0 18.375
      vertex -2 0 18.75
    endloop
  endfacet
  facet normal 0 1 0
    outer loop
      vertex 30.375 0 18.1005
      vertex -2.10048 0 18.375
      vertex 30.1005 0 18.375
    endloop
  endfacet
  facet normal 0 1 0
    outer loop
      vertex 30.375 0 18.1005
      vertex -2.375 0 18.1005
      vertex -2.10048 0 18.375
    endloop
  endfacet
  facet normal 0 1 0
    outer loop
      vertex 30.75 0 18
      vertex -2.375 0 18.1005
      vertex 30.375 0 18.1005
    endloop
  endfacet
  facet normal 0 1 0
    outer loop
      vertex -2.375 0 18.1005
      vertex 30.75 0 18
      vertex -2.75 0 18
    endloop
  endfacet
  facet normal 0 1 -0
    outer loop
      vertex -22 0 18.75
      vertex -59.25 0 19.25
      vertex -22 0 19.25
    endloop
  endfacet
  facet normal 0 1 0
    outer loop
      vertex -21.8995 0 18.375
      vertex -59.25 0 19.25
      vertex -22 0 18.75
    endloop
  endfacet
  facet normal 0 1 0
    outer loop
      vertex -59.25 0 0.75
      vertex -21.8995 0 18.375
      vertex -21.625 0 18.1005
    endloop
  endfacet
  facet normal 0 1 0
    outer loop
      vertex -59.25 0 0.75
      vertex -21.625 0 18.1005
      vertex -21.25 0 18
    endloop
  endfacet
  facet normal 0 1 0
    outer loop
      vertex -2.75 0 18
      vertex -59.25 0 0.75
      vertex -21.25 0 18
    endloop
  endfacet
  facet normal 0 1 0
    outer loop
      vertex -21.8995 0 18.375
      vertex -59.25 0 0.75
      vertex -59.25 0 19.25
    endloop
  endfacet
  facet normal 0 -1 0
    outer loop
      vertex -59.25 -2 0.75
      vertex 59.25 -2 19.25
      vertex -59.25 -2 19.25
    endloop
  endfacet
  facet normal 0 -1 -0
    outer loop
      vertex 59.25 -2 19.25
      vertex -59.25 -2 0.75
      vertex 59.25 -2 0.75
    endloop
  endfacet
  facet normal -0.357395 0.862866 0.357395
    outer loop
      vertex -59.625 -0.100481 19.25
      vertex -59.7093 -0.290721 19.625
      vertex -59.25 -0.100481 19.625
    endloop
  endfacet
  facet normal -0.693433 0.693385 0.195875
    outer loop
      vertex -59.625 -0.100481 19.25
      vertex -59.8995 -0.375 19.25
      vertex -59.7093 -0.290721 19.625
    endloop
  endfacet
  facet normal 0 0.258865 0.965914
    outer loop
      vertex -59.25 -0.75 20
      vertex -21.625 -0.375 19.8995
      vertex -59.25 -0.375 19.8995
    endloop
  endfacet
  facet normal 0 0.258865 0.965914
    outer loop
      vertex -21.625 -0.375 19.8995
      vertex -59.25 -0.75 20
      vertex -21.25 -0.75 20
    endloop
  endfacet
  facet normal -0 0.258865 0.965914
    outer loop
      vertex 49.625 -0.375 19.8995
      vertex 59.25 -0.75 20
      vertex 59.25 -0.375 19.8995
    endloop
  endfacet
  facet normal 0 0.258865 0.965914
    outer loop
      vertex 59.25 -0.75 20
      vertex 49.625 -0.375 19.8995
      vertex 49.25 -0.75 20
    endloop
  endfacet
  facet normal -0 0.258865 0.965914
    outer loop
      vertex -2.375 -0.375 19.8995
      vertex 30.75 -0.75 20
      vertex 30.375 -0.375 19.8995
    endloop
  endfacet
  facet normal 0 0.258865 0.965914
    outer loop
      vertex 30.75 -0.75 20
      vertex -2.375 -0.375 19.8995
      vertex -2.75 -0.75 20
    endloop
  endfacet
  facet normal 0 0.707082 0.707131
    outer loop
      vertex -21.8995 -0.100481 19.625
      vertex -59.25 -0.375 19.8995
      vertex -21.625 -0.375 19.8995
    endloop
  endfacet
  facet normal 0 0.707082 0.707131
    outer loop
      vertex -59.25 -0.375 19.8995
      vertex -21.8995 -0.100481 19.625
      vertex -59.25 -0.100481 19.625
    endloop
  endfacet
  facet normal -0 0.707082 0.707131
    outer loop
      vertex 49.8995 -0.100481 19.625
      vertex 59.25 -0.375 19.8995
      vertex 59.25 -0.100481 19.625
    endloop
  endfacet
  facet normal 0 0.707082 0.707131
    outer loop
      vertex 59.25 -0.375 19.8995
      vertex 49.8995 -0.100481 19.625
      vertex 49.625 -0.375 19.8995
    endloop
  endfacet
  facet normal 0 0.707082 0.707131
    outer loop
      vertex 30.1005 -0.100481 19.625
      vertex -2.375 -0.375 19.8995
      vertex 30.375 -0.375 19.8995
    endloop
  endfacet
  facet normal 0 0.707082 0.707131
    outer loop
      vertex -2.375 -0.375 19.8995
      vertex 30.1005 -0.100481 19.625
      vertex -2.10048 -0.100481 19.625
    endloop
  endfacet
  facet normal 0.281064 0.678579 0.678626
    outer loop
      vertex 59.25 -0.100481 19.625
      vertex 59.25 -0.375 19.8995
      vertex 59.7093 -0.290721 19.625
    endloop
  endfacet
  facet normal 0.693435 -0.693384 -0.195874
    outer loop
      vertex 59.8995 -1.625 0.75
      vertex 59.625 -1.89952 0.75
      vertex 59.7093 -1.70928 0.375
    endloop
  endfacet
  facet normal 0.258819 0 -0.965926
    outer loop
      vertex 59.25 -1.25 0
      vertex 59.625 -0.75 0.100481
      vertex 59.625 -1.25 0.100481
    endloop
  endfacet
  facet normal 0.258819 0 -0.965926
    outer loop
      vertex 59.625 -0.75 0.100481
      vertex 59.25 -1.25 0
      vertex 59.25 -0.75 0
    endloop
  endfacet
  facet normal -0.250563 0.935113 -0.250563
    outer loop
      vertex -59.25 -0.100481 0.375
      vertex -59.625 -0.100481 0.75
      vertex -59.25 0 0.75
    endloop
  endfacet
  facet normal -0.678631 0.28104 -0.678584
    outer loop
      vertex -59.625 -0.75 0.100481
      vertex -59.8995 -0.75 0.375
      vertex -59.7093 -0.290721 0.375
    endloop
  endfacet
  facet normal 0.250604 0.250604 0.935091
    outer loop
      vertex 59.25 -0.375 19.8995
      vertex 59.25 -0.75 20
      vertex 59.625 -0.75 19.8995
    endloop
  endfacet
  facet normal -0.250561 -0.935114 -0.250561
    outer loop
      vertex -59.25 -2 0.75
      vertex -59.625 -1.89952 0.75
      vertex -59.25 -1.89952 0.375
    endloop
  endfacet
  facet normal -0.862902 0.357351 0.357351
    outer loop
      vertex -59.8995 -0.375 19.25
      vertex -59.8995 -0.75 19.625
      vertex -59.7093 -0.290721 19.625
    endloop
  endfacet
  facet normal 0.965914 -0.258865 0
    outer loop
      vertex 59.8995 -1.625 19.25
      vertex 60 -1.25 0.75
      vertex 60 -1.25 19.25
    endloop
  endfacet
  facet normal 0.965914 -0.258865 0
    outer loop
      vertex 60 -1.25 0.75
      vertex 59.8995 -1.625 19.25
      vertex 59.8995 -1.625 0.75
    endloop
  endfacet
  facet normal 0.410967 -0.410967 -0.813764
    outer loop
      vertex 59.7093 -1.70928 0.375
      vertex 59.25 -1.625 0.100481
      vertex 59.625 -1.25 0.100481
    endloop
  endfacet
  facet normal -0.678631 -0.281039 -0.678584
    outer loop
      vertex -59.7093 -1.70928 0.375
      vertex -59.8995 -1.25 0.375
      vertex -59.625 -1.25 0.100481
    endloop
  endfacet
  facet normal -0.281073 0.678601 -0.678601
    outer loop
      vertex -59.25 -0.375 0.100481
      vertex -59.7093 -0.290721 0.375
      vertex -59.25 -0.100481 0.375
    endloop
  endfacet
  facet normal -0.693433 0.693385 -0.195875
    outer loop
      vertex -59.7093 -0.290721 0.375
      vertex -59.8995 -0.375 0.75
      vertex -59.625 -0.100481 0.75
    endloop
  endfacet
  facet normal -0.250563 -0.250563 -0.935113
    outer loop
      vertex -59.25 -1.625 0.100481
      vertex -59.625 -1.25 0.100481
      vertex -59.25 -1.25 0
    endloop
  endfacet
  facet normal -0.862902 0.357351 -0.357351
    outer loop
      vertex -59.7093 -0.290721 0.375
      vertex -59.8995 -0.75 0.375
      vertex -59.8995 -0.375 0.75
    endloop
  endfacet
  facet normal -0.67861 0.281031 0.67861
    outer loop
      vertex -59.7093 -0.290721 19.625
      vertex -59.8995 -0.75 19.625
      vertex -59.625 -0.75 19.8995
    endloop
  endfacet
  facet normal -0.357395 0.862866 -0.357395
    outer loop
      vertex -59.25 -0.100481 0.375
      vertex -59.7093 -0.290721 0.375
      vertex -59.625 -0.100481 0.75
    endloop
  endfacet
  facet normal -0.250563 0.250563 -0.935113
    outer loop
      vertex -59.25 -0.75 0
      vertex -59.625 -0.75 0.100481
      vertex -59.25 -0.375 0.100481
    endloop
  endfacet
  facet normal 0 0.965926 -0.258819
    outer loop
      vertex 59.25 -0.100481 0.375
      vertex -59.25 0 0.75
      vertex 59.25 0 0.75
    endloop
  endfacet
  facet normal 0 0.965926 -0.258819
    outer loop
      vertex -59.25 0 0.75
      vertex 59.25 -0.100481 0.375
      vertex -59.25 -0.100481 0.375
    endloop
  endfacet
  facet normal 0.250604 -0.250604 0.935091
    outer loop
      vertex 59.25 -1.25 20
      vertex 59.25 -1.625 19.8995
      vertex 59.625 -1.25 19.8995
    endloop
  endfacet
  facet normal -0.250604 0.250604 0.935091
    outer loop
      vertex -59.25 -0.375 19.8995
      vertex -59.625 -0.75 19.8995
      vertex -59.25 -0.75 20
    endloop
  endfacet
  facet normal -0.862903 -0.357351 0.357351
    outer loop
      vertex -59.8995 -1.25 19.625
      vertex -59.8995 -1.625 19.25
      vertex -59.7093 -1.70928 19.625
    endloop
  endfacet
  facet normal 0.693435 -0.693384 0.195874
    outer loop
      vertex 59.7093 -1.70928 19.625
      vertex 59.625 -1.89952 19.25
      vertex 59.8995 -1.625 19.25
    endloop
  endfacet
  facet normal 0 -0.707105 -0.707108
    outer loop
      vertex -59.25 -1.625 0.100481
      vertex 59.25 -1.89952 0.375
      vertex -59.25 -1.89952 0.375
    endloop
  endfacet
  facet normal 0 -0.707105 -0.707108
    outer loop
      vertex 59.25 -1.89952 0.375
      vertex -59.25 -1.625 0.100481
      vertex 59.25 -1.625 0.100481
    endloop
  endfacet
  facet normal -0.250561 -0.935114 0.250561
    outer loop
      vertex -59.25 -1.89952 19.625
      vertex -59.625 -1.89952 19.25
      vertex -59.25 -2 19.25
    endloop
  endfacet
  facet normal 0 -0.707081 0.707133
    outer loop
      vertex -59.25 -1.89952 19.625
      vertex 59.25 -1.625 19.8995
      vertex -59.25 -1.625 19.8995
    endloop
  endfacet
  facet normal 0 -0.707081 0.707133
    outer loop
      vertex 59.25 -1.625 19.8995
      vertex -59.25 -1.89952 19.625
      vertex 59.25 -1.89952 19.625
    endloop
  endfacet
  facet normal 0.862902 0.357351 -0.357351
    outer loop
      vertex 59.8995 -0.75 0.375
      vertex 59.7093 -0.290721 0.375
      vertex 59.8995 -0.375 0.75
    endloop
  endfacet
  facet normal 0.935091 0.250604 -0.250604
    outer loop
      vertex 60 -0.75 0.75
      vertex 59.8995 -0.75 0.375
      vertex 59.8995 -0.375 0.75
    endloop
  endfacet
  facet normal 0.693433 0.693385 -0.195875
    outer loop
      vertex 59.7093 -0.290721 0.375
      vertex 59.625 -0.100481 0.75
      vertex 59.8995 -0.375 0.75
    endloop
  endfacet
  facet normal 0.281064 -0.678578 0.678627
    outer loop
      vertex 59.25 -1.625 19.8995
      vertex 59.25 -1.89952 19.625
      vertex 59.7093 -1.70928 19.625
    endloop
  endfacet
  facet normal -0.258819 0 -0.965926
    outer loop
      vertex -59.625 -1.25 0.100481
      vertex -59.25 -0.75 0
      vertex -59.25 -1.25 0
    endloop
  endfacet
  facet normal -0.258819 0 -0.965926
    outer loop
      vertex -59.25 -0.75 0
      vertex -59.625 -1.25 0.100481
      vertex -59.625 -0.75 0.100481
    endloop
  endfacet
  facet normal 0.862903 -0.357351 -0.357351
    outer loop
      vertex 59.8995 -1.625 0.75
      vertex 59.7093 -1.70928 0.375
      vertex 59.8995 -1.25 0.375
    endloop
  endfacet
  facet normal 0.965914 0 -0.258865
    outer loop
      vertex 60 -1.25 0.75
      vertex 59.8995 -0.75 0.375
      vertex 60 -0.75 0.75
    endloop
  endfacet
  facet normal 0.965914 0 -0.258865
    outer loop
      vertex 59.8995 -0.75 0.375
      vertex 60 -1.25 0.75
      vertex 59.8995 -1.25 0.375
    endloop
  endfacet
  facet normal 0 -0.258819 -0.965926
    outer loop
      vertex -59.25 -1.625 0.100481
      vertex 59.25 -1.25 0
      vertex 59.25 -1.625 0.100481
    endloop
  endfacet
  facet normal -0 -0.258819 -0.965926
    outer loop
      vertex 59.25 -1.25 0
      vertex -59.25 -1.625 0.100481
      vertex -59.25 -1.25 0
    endloop
  endfacet
  facet normal -0.862903 -0.357351 -0.357351
    outer loop
      vertex -59.7093 -1.70928 0.375
      vertex -59.8995 -1.625 0.75
      vertex -59.8995 -1.25 0.375
    endloop
  endfacet
  facet normal -0.707131 0 -0.707082
    outer loop
      vertex -59.8995 -1.25 0.375
      vertex -59.625 -0.75 0.100481
      vertex -59.625 -1.25 0.100481
    endloop
  endfacet
  facet normal -0.707131 0 -0.707082
    outer loop
      vertex -59.625 -0.75 0.100481
      vertex -59.8995 -1.25 0.375
      vertex -59.8995 -0.75 0.375
    endloop
  endfacet
  facet normal -0.258819 0.965926 0
    outer loop
      vertex -59.25 0 0.75
      vertex -59.625 -0.100481 19.25
      vertex -59.25 0 19.25
    endloop
  endfacet
  facet normal -0.258819 0.965926 0
    outer loop
      vertex -59.625 -0.100481 19.25
      vertex -59.25 0 0.75
      vertex -59.625 -0.100481 0.75
    endloop
  endfacet
  facet normal 0.357395 0.862866 -0.357395
    outer loop
      vertex 59.7093 -0.290721 0.375
      vertex 59.25 -0.100481 0.375
      vertex 59.625 -0.100481 0.75
    endloop
  endfacet
  facet normal 0.250563 0.250563 -0.935113
    outer loop
      vertex 59.625 -0.75 0.100481
      vertex 59.25 -0.75 0
      vertex 59.25 -0.375 0.100481
    endloop
  endfacet
  facet normal 0.707107 0 0.707107
    outer loop
      vertex 59.625 -0.75 19.8995
      vertex 59.8995 -1.25 19.625
      vertex 59.8995 -0.75 19.625
    endloop
  endfacet
  facet normal 0.707107 0 0.707107
    outer loop
      vertex 59.8995 -1.25 19.625
      vertex 59.625 -0.75 19.8995
      vertex 59.625 -1.25 19.8995
    endloop
  endfacet
  facet normal 0.862903 -0.357351 0.357351
    outer loop
      vertex 59.8995 -1.25 19.625
      vertex 59.7093 -1.70928 19.625
      vertex 59.8995 -1.625 19.25
    endloop
  endfacet
  facet normal 0.410949 0.410949 0.813782
    outer loop
      vertex 59.7093 -0.290721 19.625
      vertex 59.25 -0.375 19.8995
      vertex 59.625 -0.75 19.8995
    endloop
  endfacet
  facet normal 0.862902 0.357351 0.357351
    outer loop
      vertex 59.8995 -0.375 19.25
      vertex 59.7093 -0.290721 19.625
      vertex 59.8995 -0.75 19.625
    endloop
  endfacet
  facet normal 0.250561 -0.935114 0.250561
    outer loop
      vertex 59.25 -1.89952 19.625
      vertex 59.25 -2 19.25
      vertex 59.625 -1.89952 19.25
    endloop
  endfacet
  facet normal 0.935091 0.250604 0.250604
    outer loop
      vertex 59.8995 -0.375 19.25
      vertex 59.8995 -0.75 19.625
      vertex 60 -0.75 19.25
    endloop
  endfacet
  facet normal 0.250561 -0.935114 -0.250561
    outer loop
      vertex 59.625 -1.89952 0.75
      vertex 59.25 -2 0.75
      vertex 59.25 -1.89952 0.375
    endloop
  endfacet
  facet normal 0 -0.258865 0.965914
    outer loop
      vertex -59.25 -1.25 20
      vertex 59.25 -1.625 19.8995
      vertex 59.25 -1.25 20
    endloop
  endfacet
  facet normal 0 -0.258865 0.965914
    outer loop
      vertex 59.25 -1.625 19.8995
      vertex -59.25 -1.25 20
      vertex -59.25 -1.625 19.8995
    endloop
  endfacet
  facet normal 0.281073 0.678601 -0.678601
    outer loop
      vertex 59.7093 -0.290721 0.375
      vertex 59.25 -0.375 0.100481
      vertex 59.25 -0.100481 0.375
    endloop
  endfacet
  facet normal 0.250563 -0.250563 -0.935113
    outer loop
      vertex 59.625 -1.25 0.100481
      vertex 59.25 -1.625 0.100481
      vertex 59.25 -1.25 0
    endloop
  endfacet
  facet normal 0.707131 0 -0.707082
    outer loop
      vertex 59.625 -1.25 0.100481
      vertex 59.8995 -0.75 0.375
      vertex 59.8995 -1.25 0.375
    endloop
  endfacet
  facet normal 0.707131 0 -0.707082
    outer loop
      vertex 59.8995 -0.75 0.375
      vertex 59.625 -1.25 0.100481
      vertex 59.625 -0.75 0.100481
    endloop
  endfacet
  facet normal 0.678631 0.28104 -0.678584
    outer loop
      vertex 59.8995 -0.75 0.375
      vertex 59.625 -0.75 0.100481
      vertex 59.7093 -0.290721 0.375
    endloop
  endfacet
  facet normal -0.357395 -0.862866 -0.357395
    outer loop
      vertex -59.625 -1.89952 0.75
      vertex -59.7093 -1.70928 0.375
      vertex -59.25 -1.89952 0.375
    endloop
  endfacet
  facet normal -0.258817 -0.965926 0
    outer loop
      vertex -59.625 -1.89952 0.75
      vertex -59.25 -2 19.25
      vertex -59.625 -1.89952 19.25
    endloop
  endfacet
  facet normal -0.258817 -0.965926 -0
    outer loop
      vertex -59.25 -2 19.25
      vertex -59.625 -1.89952 0.75
      vertex -59.25 -2 0.75
    endloop
  endfacet
  facet normal 0 0.707107 -0.707107
    outer loop
      vertex 59.25 -0.375 0.100481
      vertex -59.25 -0.100481 0.375
      vertex 59.25 -0.100481 0.375
    endloop
  endfacet
  facet normal 0 0.707107 -0.707107
    outer loop
      vertex -59.25 -0.100481 0.375
      vertex 59.25 -0.375 0.100481
      vertex -59.25 -0.375 0.100481
    endloop
  endfacet
  facet normal 0.693433 0.693385 0.195875
    outer loop
      vertex 59.8995 -0.375 19.25
      vertex 59.625 -0.100481 19.25
      vertex 59.7093 -0.290721 19.625
    endloop
  endfacet
  facet normal 0.357395 0.862866 0.357395
    outer loop
      vertex 59.625 -0.100481 19.25
      vertex 59.25 -0.100481 19.625
      vertex 59.7093 -0.290721 19.625
    endloop
  endfacet
  facet normal 0.258865 0 0.965914
    outer loop
      vertex 59.25 -0.75 20
      vertex 59.625 -1.25 19.8995
      vertex 59.625 -0.75 19.8995
    endloop
  endfacet
  facet normal 0.258865 0 0.965914
    outer loop
      vertex 59.625 -1.25 19.8995
      vertex 59.25 -0.75 20
      vertex 59.25 -1.25 20
    endloop
  endfacet
  facet normal -0.410949 0.410949 0.813782
    outer loop
      vertex -59.25 -0.375 19.8995
      vertex -59.7093 -0.290721 19.625
      vertex -59.625 -0.75 19.8995
    endloop
  endfacet
  facet normal -0.281064 0.678579 0.678626
    outer loop
      vertex -59.25 -0.100481 19.625
      vertex -59.7093 -0.290721 19.625
      vertex -59.25 -0.375 19.8995
    endloop
  endfacet
  facet normal -0.357395 -0.862866 0.357395
    outer loop
      vertex -59.25 -1.89952 19.625
      vertex -59.7093 -1.70928 19.625
      vertex -59.625 -1.89952 19.25
    endloop
  endfacet
  facet normal -0.250604 -0.250604 0.935091
    outer loop
      vertex -59.25 -1.25 20
      vertex -59.625 -1.25 19.8995
      vertex -59.25 -1.625 19.8995
    endloop
  endfacet
  facet normal -0.258865 0 0.965914
    outer loop
      vertex -59.625 -0.75 19.8995
      vertex -59.25 -1.25 20
      vertex -59.25 -0.75 20
    endloop
  endfacet
  facet normal -0.258865 0 0.965914
    outer loop
      vertex -59.25 -1.25 20
      vertex -59.625 -0.75 19.8995
      vertex -59.625 -1.25 19.8995
    endloop
  endfacet
  facet normal 0 -0.965926 0.258817
    outer loop
      vertex -59.25 -2 19.25
      vertex 59.25 -1.89952 19.625
      vertex -59.25 -1.89952 19.625
    endloop
  endfacet
  facet normal 0 -0.965926 0.258817
    outer loop
      vertex 59.25 -1.89952 19.625
      vertex -59.25 -2 19.25
      vertex 59.25 -2 19.25
    endloop
  endfacet
  facet normal 0.250563 0.935113 -0.250563
    outer loop
      vertex 59.625 -0.100481 0.75
      vertex 59.25 -0.100481 0.375
      vertex 59.25 0 0.75
    endloop
  endfacet
  facet normal 0.258819 0.965926 -0
    outer loop
      vertex 59.625 -0.100481 0.75
      vertex 59.25 0 19.25
      vertex 59.625 -0.100481 19.25
    endloop
  endfacet
  facet normal 0.258819 0.965926 0
    outer loop
      vertex 59.25 0 19.25
      vertex 59.625 -0.100481 0.75
      vertex 59.25 0 0.75
    endloop
  endfacet
  facet normal 0 0 -1
    outer loop
      vertex -59.25 -1.25 0
      vertex 59.25 -0.75 0
      vertex 59.25 -1.25 0
    endloop
  endfacet
  facet normal -0 0 -1
    outer loop
      vertex 59.25 -0.75 0
      vertex -59.25 -1.25 0
      vertex -59.25 -0.75 0
    endloop
  endfacet
  facet normal 0.707133 -0.707081 0
    outer loop
      vertex 59.625 -1.89952 0.75
      vertex 59.8995 -1.625 19.25
      vertex 59.625 -1.89952 19.25
    endloop
  endfacet
  facet normal 0.707133 -0.707081 0
    outer loop
      vertex 59.8995 -1.625 19.25
      vertex 59.625 -1.89952 0.75
      vertex 59.8995 -1.625 0.75
    endloop
  endfacet
  facet normal 0.935091 -0.250604 -0.250604
    outer loop
      vertex 60 -1.25 0.75
      vertex 59.8995 -1.625 0.75
      vertex 59.8995 -1.25 0.375
    endloop
  endfacet
  facet normal 0.707131 0.707082 -0
    outer loop
      vertex 59.8995 -0.375 0.75
      vertex 59.625 -0.100481 19.25
      vertex 59.8995 -0.375 19.25
    endloop
  endfacet
  facet normal 0.707131 0.707082 0
    outer loop
      vertex 59.625 -0.100481 19.25
      vertex 59.8995 -0.375 0.75
      vertex 59.625 -0.100481 0.75
    endloop
  endfacet
  facet normal -0.693435 -0.693384 -0.195874
    outer loop
      vertex -59.625 -1.89952 0.75
      vertex -59.8995 -1.625 0.75
      vertex -59.7093 -1.70928 0.375
    endloop
  endfacet
  facet normal -0.281064 -0.678578 0.678627
    outer loop
      vertex -59.25 -1.625 19.8995
      vertex -59.7093 -1.70928 19.625
      vertex -59.25 -1.89952 19.625
    endloop
  endfacet
  facet normal -0.935091 -0.250604 0.250604
    outer loop
      vertex -59.8995 -1.25 19.625
      vertex -60 -1.25 19.25
      vertex -59.8995 -1.625 19.25
    endloop
  endfacet
  facet normal -0.965914 0 0.258865
    outer loop
      vertex -60 -1.25 19.25
      vertex -59.8995 -0.75 19.625
      vertex -60 -0.75 19.25
    endloop
  endfacet
  facet normal -0.965914 0 0.258865
    outer loop
      vertex -59.8995 -0.75 19.625
      vertex -60 -1.25 19.25
      vertex -59.8995 -1.25 19.625
    endloop
  endfacet
  facet normal 0.935091 -0.250604 0.250604
    outer loop
      vertex 59.8995 -1.25 19.625
      vertex 59.8995 -1.625 19.25
      vertex 60 -1.25 19.25
    endloop
  endfacet
  facet normal 0.67861 0.281031 0.67861
    outer loop
      vertex 59.7093 -0.290721 19.625
      vertex 59.625 -0.75 19.8995
      vertex 59.8995 -0.75 19.625
    endloop
  endfacet
  facet normal -0.707131 0.707082 0
    outer loop
      vertex -59.625 -0.100481 0.75
      vertex -59.8995 -0.375 19.25
      vertex -59.625 -0.100481 19.25
    endloop
  endfacet
  facet normal -0.707131 0.707082 0
    outer loop
      vertex -59.8995 -0.375 19.25
      vertex -59.625 -0.100481 0.75
      vertex -59.8995 -0.375 0.75
    endloop
  endfacet
  facet normal 0.965914 0.258865 0
    outer loop
      vertex 60 -0.75 19.25
      vertex 59.8995 -0.375 0.75
      vertex 59.8995 -0.375 19.25
    endloop
  endfacet
  facet normal 0.965914 0.258865 0
    outer loop
      vertex 59.8995 -0.375 0.75
      vertex 60 -0.75 19.25
      vertex 60 -0.75 0.75
    endloop
  endfacet
  facet normal -0.410967 -0.410967 -0.813764
    outer loop
      vertex -59.25 -1.625 0.100481
      vertex -59.7093 -1.70928 0.375
      vertex -59.625 -1.25 0.100481
    endloop
  endfacet
  facet normal -0.281073 -0.6786 -0.678602
    outer loop
      vertex -59.25 -1.89952 0.375
      vertex -59.7093 -1.70928 0.375
      vertex -59.25 -1.625 0.100481
    endloop
  endfacet
  facet normal -0.410949 -0.410949 0.813783
    outer loop
      vertex -59.625 -1.25 19.8995
      vertex -59.7093 -1.70928 19.625
      vertex -59.25 -1.625 19.8995
    endloop
  endfacet
  facet normal -0.67861 -0.28103 0.67861
    outer loop
      vertex -59.625 -1.25 19.8995
      vertex -59.8995 -1.25 19.625
      vertex -59.7093 -1.70928 19.625
    endloop
  endfacet
  facet normal 0.965914 -0 0.258865
    outer loop
      vertex 59.8995 -1.25 19.625
      vertex 60 -0.75 19.25
      vertex 59.8995 -0.75 19.625
    endloop
  endfacet
  facet normal 0.965914 0 0.258865
    outer loop
      vertex 60 -0.75 19.25
      vertex 59.8995 -1.25 19.625
      vertex 60 -1.25 19.25
    endloop
  endfacet
  facet normal 0.67861 -0.28103 0.67861
    outer loop
      vertex 59.8995 -1.25 19.625
      vertex 59.625 -1.25 19.8995
      vertex 59.7093 -1.70928 19.625
    endloop
  endfacet
  facet normal 0.410949 -0.410949 0.813783
    outer loop
      vertex 59.625 -1.25 19.8995
      vertex 59.25 -1.625 19.8995
      vertex 59.7093 -1.70928 19.625
    endloop
  endfacet
  facet normal -0.965914 0.258865 0
    outer loop
      vertex -60 -0.75 0.75
      vertex -59.8995 -0.375 19.25
      vertex -59.8995 -0.375 0.75
    endloop
  endfacet
  facet normal -0.965914 0.258865 0
    outer loop
      vertex -59.8995 -0.375 19.25
      vertex -60 -0.75 0.75
      vertex -60 -0.75 19.25
    endloop
  endfacet
  facet normal 0 -0.965926 -0.258817
    outer loop
      vertex -59.25 -1.89952 0.375
      vertex 59.25 -2 0.75
      vertex -59.25 -2 0.75
    endloop
  endfacet
  facet normal 0 -0.965926 -0.258817
    outer loop
      vertex 59.25 -2 0.75
      vertex -59.25 -1.89952 0.375
      vertex 59.25 -1.89952 0.375
    endloop
  endfacet
  facet normal -0.935091 -0.250604 -0.250604
    outer loop
      vertex -59.8995 -1.625 0.75
      vertex -60 -1.25 0.75
      vertex -59.8995 -1.25 0.375
    endloop
  endfacet
  facet normal -0.965914 0 -0.258865
    outer loop
      vertex -59.8995 -1.25 0.375
      vertex -60 -0.75 0.75
      vertex -59.8995 -0.75 0.375
    endloop
  endfacet
  facet normal -0.965914 -0 -0.258865
    outer loop
      vertex -60 -0.75 0.75
      vertex -59.8995 -1.25 0.375
      vertex -60 -1.25 0.75
    endloop
  endfacet
  facet normal -0.935091 0.250604 0.250604
    outer loop
      vertex -59.8995 -0.375 19.25
      vertex -60 -0.75 19.25
      vertex -59.8995 -0.75 19.625
    endloop
  endfacet
  facet normal 0.357395 -0.862866 -0.357395
    outer loop
      vertex 59.625 -1.89952 0.75
      vertex 59.25 -1.89952 0.375
      vertex 59.7093 -1.70928 0.375
    endloop
  endfacet
  facet normal 0.281073 -0.6786 -0.678602
    outer loop
      vertex 59.7093 -1.70928 0.375
      vertex 59.25 -1.89952 0.375
      vertex 59.25 -1.625 0.100481
    endloop
  endfacet
endsolid OpenSCAD_Model
