solid OpenSCAD_Model
  facet normal 0 -1 0
    outer loop
      vertex 0 -100 0
      vertex 6.40858 -100 5.2
      vertex 0 -100 1.5
    endloop
  endfacet
  facet normal 0 -1 -0
    outer loop
      vertex 6.40858 -100 5.2
      vertex 0 -100 0
      vertex 12.8172 -100 1.5
    endloop
  endfacet
  facet normal 0 -1 -0
    outer loop
      vertex 12.8172 -100 1.5
      vertex 0 -100 0
      vertex 25.6343 -100 1.5
    endloop
  endfacet
  facet normal 0 -1 -0
    outer loop
      vertex 25.6343 -100 1.5
      vertex 0 -100 0
      vertex 38.4515 -100 1.5
    endloop
  endfacet
  facet normal 0 -1 -0
    outer loop
      vertex 38.4515 -100 1.5
      vertex 0 -100 0
      vertex 51.2687 -100 1.5
    endloop
  endfacet
  facet normal 0 -1 -0
    outer loop
      vertex 51.2687 -100 1.5
      vertex 0 -100 0
      vertex 64.0859 -100 1.5
    endloop
  endfacet
  facet normal 0 -1 -0
    outer loop
      vertex 64.0859 -100 1.5
      vertex 0 -100 0
      vertex 76.903 -100 1.5
    endloop
  endfacet
  facet normal 0 -1 0
    outer loop
      vertex 128.172 -100 0
      vertex 76.903 -100 1.5
      vertex 0 -100 0
    endloop
  endfacet
  facet normal 0 -1 0
    outer loop
      vertex 76.903 -100 1.5
      vertex 128.172 -100 0
      vertex 89.7202 -100 1.5
    endloop
  endfacet
  facet normal 0 -1 0
    outer loop
      vertex 89.7202 -100 1.5
      vertex 128.172 -100 0
      vertex 102.537 -100 1.5
    endloop
  endfacet
  facet normal 0 -1 0
    outer loop
      vertex 102.537 -100 1.5
      vertex 128.172 -100 0
      vertex 115.355 -100 1.5
    endloop
  endfacet
  facet normal 0 -1 0
    outer loop
      vertex 115.355 -100 1.5
      vertex 128.172 -100 0
      vertex 128.172 -100 1.5
    endloop
  endfacet
  facet normal 0 -1 -0
    outer loop
      vertex 19.2258 -100 5.2
      vertex 12.8172 -100 1.5
      vertex 25.6343 -100 1.5
    endloop
  endfacet
  facet normal 0 -1 -0
    outer loop
      vertex 32.0429 -100 5.2
      vertex 25.6343 -100 1.5
      vertex 38.4515 -100 1.5
    endloop
  endfacet
  facet normal 0 -1 -0
    outer loop
      vertex 44.8601 -100 5.2
      vertex 38.4515 -100 1.5
      vertex 51.2687 -100 1.5
    endloop
  endfacet
  facet normal 0 -1 -0
    outer loop
      vertex 57.6773 -100 5.2
      vertex 51.2687 -100 1.5
      vertex 64.0859 -100 1.5
    endloop
  endfacet
  facet normal 0 -1 -0
    outer loop
      vertex 70.4945 -100 5.2
      vertex 64.0859 -100 1.5
      vertex 76.903 -100 1.5
    endloop
  endfacet
  facet normal 0 -1 -0
    outer loop
      vertex 83.3116 -100 5.2
      vertex 76.903 -100 1.5
      vertex 89.7202 -100 1.5
    endloop
  endfacet
  facet normal 0 -1 -0
    outer loop
      vertex 96.1288 -100 5.2
      vertex 89.7202 -100 1.5
      vertex 102.537 -100 1.5
    endloop
  endfacet
  facet normal 0 -1 -0
    outer loop
      vertex 108.946 -100 5.2
      vertex 102.537 -100 1.5
      vertex 115.355 -100 1.5
    endloop
  endfacet
  facet normal 0 -1 -0
    outer loop
      vertex 121.763 -100 5.2
      vertex 115.355 -100 1.5
      vertex 128.172 -100 1.5
    endloop
  endfacet
  facet normal 0.499976 0 0.866039
    outer loop
      vertex 121.763 0 5.2
      vertex 128.172 -100 1.5
      vertex 128.172 0 1.5
    endloop
  endfacet
  facet normal 0.499976 0 0.866039
    outer loop
      vertex 128.172 -100 1.5
      vertex 121.763 0 5.2
      vertex 121.763 -100 5.2
    endloop
  endfacet
  facet normal -0.500034 0 0.866006
    outer loop
      vertex 115.355 0 1.5
      vertex 121.763 -100 5.2
      vertex 121.763 0 5.2
    endloop
  endfacet
  facet normal -0.500034 0 0.866006
    outer loop
      vertex 121.763 -100 5.2
      vertex 115.355 0 1.5
      vertex 115.355 -100 1.5
    endloop
  endfacet
  facet normal 0.499976 0 0.866039
    outer loop
      vertex 108.946 0 5.2
      vertex 115.355 -100 1.5
      vertex 115.355 0 1.5
    endloop
  endfacet
  facet normal 0.499976 0 0.866039
    outer loop
      vertex 115.355 -100 1.5
      vertex 108.946 0 5.2
      vertex 108.946 -100 5.2
    endloop
  endfacet
  facet normal -0.499976 0 0.866039
    outer loop
      vertex 102.537 0 1.5
      vertex 108.946 -100 5.2
      vertex 108.946 0 5.2
    endloop
  endfacet
  facet normal -0.499976 0 0.866039
    outer loop
      vertex 108.946 -100 5.2
      vertex 102.537 0 1.5
      vertex 102.537 -100 1.5
    endloop
  endfacet
  facet normal 0.500023 0 0.866012
    outer loop
      vertex 96.1288 0 5.2
      vertex 102.537 -100 1.5
      vertex 102.537 0 1.5
    endloop
  endfacet
  facet normal 0.500023 0 0.866012
    outer loop
      vertex 102.537 -100 1.5
      vertex 96.1288 0 5.2
      vertex 96.1288 -100 5.2
    endloop
  endfacet
  facet normal -0.499999 0 0.866026
    outer loop
      vertex 89.7202 0 1.5
      vertex 96.1288 -100 5.2
      vertex 96.1288 0 5.2
    endloop
  endfacet
  facet normal -0.499999 0 0.866026
    outer loop
      vertex 96.1288 -100 5.2
      vertex 89.7202 0 1.5
      vertex 89.7202 -100 1.5
    endloop
  endfacet
  facet normal 0.499999 0 0.866026
    outer loop
      vertex 83.3116 0 5.2
      vertex 89.7202 -100 1.5
      vertex 89.7202 0 1.5
    endloop
  endfacet
  facet normal 0.499999 0 0.866026
    outer loop
      vertex 89.7202 -100 1.5
      vertex 83.3116 0 5.2
      vertex 83.3116 -100 5.2
    endloop
  endfacet
  facet normal -0.499999 0 0.866026
    outer loop
      vertex 76.903 0 1.5
      vertex 83.3116 -100 5.2
      vertex 83.3116 0 5.2
    endloop
  endfacet
  facet normal -0.499999 0 0.866026
    outer loop
      vertex 83.3116 -100 5.2
      vertex 76.903 0 1.5
      vertex 76.903 -100 1.5
    endloop
  endfacet
  facet normal 0.500005 0 0.866022
    outer loop
      vertex 70.4945 0 5.2
      vertex 76.903 -100 1.5
      vertex 76.903 0 1.5
    endloop
  endfacet
  facet normal 0.500005 0 0.866022
    outer loop
      vertex 76.903 -100 1.5
      vertex 70.4945 0 5.2
      vertex 70.4945 -100 5.2
    endloop
  endfacet
  facet normal -0.499999 0 0.866026
    outer loop
      vertex 64.0859 0 1.5
      vertex 70.4945 -100 5.2
      vertex 70.4945 0 5.2
    endloop
  endfacet
  facet normal -0.499999 0 0.866026
    outer loop
      vertex 70.4945 -100 5.2
      vertex 64.0859 0 1.5
      vertex 64.0859 -100 1.5
    endloop
  endfacet
  facet normal 0.499999 0 0.866026
    outer loop
      vertex 57.6773 0 5.2
      vertex 64.0859 -100 1.5
      vertex 64.0859 0 1.5
    endloop
  endfacet
  facet normal 0.499999 0 0.866026
    outer loop
      vertex 64.0859 -100 1.5
      vertex 57.6773 0 5.2
      vertex 57.6773 -100 5.2
    endloop
  endfacet
  facet normal -0.499999 0 0.866026
    outer loop
      vertex 51.2687 0 1.5
      vertex 57.6773 -100 5.2
      vertex 57.6773 0 5.2
    endloop
  endfacet
  facet normal -0.499999 0 0.866026
    outer loop
      vertex 57.6773 -100 5.2
      vertex 51.2687 0 1.5
      vertex 51.2687 -100 1.5
    endloop
  endfacet
  facet normal 0.499999 0 0.866026
    outer loop
      vertex 44.8601 0 5.2
      vertex 51.2687 -100 1.5
      vertex 51.2687 0 1.5
    endloop
  endfacet
  facet normal 0.499999 0 0.866026
    outer loop
      vertex 51.2687 -100 1.5
      vertex 44.8601 0 5.2
      vertex 44.8601 -100 5.2
    endloop
  endfacet
  facet normal -0.499999 0 0.866026
    outer loop
      vertex 38.4515 0 1.5
      vertex 44.8601 -100 5.2
      vertex 44.8601 0 5.2
    endloop
  endfacet
  facet normal -0.499999 0 0.866026
    outer loop
      vertex 44.8601 -100 5.2
      vertex 38.4515 0 1.5
      vertex 38.4515 -100 1.5
    endloop
  endfacet
  facet normal 0.499999 0 0.866026
    outer loop
      vertex 32.0429 0 5.2
      vertex 38.4515 -100 1.5
      vertex 38.4515 0 1.5
    endloop
  endfacet
  facet normal 0.499999 0 0.866026
    outer loop
      vertex 38.4515 -100 1.5
      vertex 32.0429 0 5.2
      vertex 32.0429 -100 5.2
    endloop
  endfacet
  facet normal -0.499999 0 0.866026
    outer loop
      vertex 25.6343 0 1.5
      vertex 32.0429 -100 5.2
      vertex 32.0429 0 5.2
    endloop
  endfacet
  facet normal -0.499999 0 0.866026
    outer loop
      vertex 32.0429 -100 5.2
      vertex 25.6343 0 1.5
      vertex 25.6343 -100 1.5
    endloop
  endfacet
  facet normal 0.500005 0 0.866022
    outer loop
      vertex 19.2258 0 5.2
      vertex 25.6343 -100 1.5
      vertex 25.6343 0 1.5
    endloop
  endfacet
  facet normal 0.500005 0 0.866022
    outer loop
      vertex 25.6343 -100 1.5
      vertex 19.2258 0 5.2
      vertex 19.2258 -100 5.2
    endloop
  endfacet
  facet normal -0.499999 0 0.866026
    outer loop
      vertex 12.8172 0 1.5
      vertex 19.2258 -100 5.2
      vertex 19.2258 0 5.2
    endloop
  endfacet
  facet normal -0.499999 0 0.866026
    outer loop
      vertex 19.2258 -100 5.2
      vertex 12.8172 0 1.5
      vertex 12.8172 -100 1.5
    endloop
  endfacet
  facet normal 0.499998 0 0.866026
    outer loop
      vertex 6.40858 0 5.2
      vertex 12.8172 -100 1.5
      vertex 12.8172 0 1.5
    endloop
  endfacet
  facet normal 0.499998 0 0.866026
    outer loop
      vertex 12.8172 -100 1.5
      vertex 6.40858 0 5.2
      vertex 6.40858 -100 5.2
    endloop
  endfacet
  facet normal -0.5 0 0.866025
    outer loop
      vertex 0 0 1.5
      vertex 6.40858 -100 5.2
      vertex 6.40858 0 5.2
    endloop
  endfacet
  facet normal -0.5 0 0.866025
    outer loop
      vertex 6.40858 -100 5.2
      vertex 0 0 1.5
      vertex 0 -100 1.5
    endloop
  endfacet
  facet normal -1 0 0
    outer loop
      vertex 0 -99 0
      vertex 0 0 1.5
      vertex 0 0 0
    endloop
  endfacet
  facet normal -1 0 0
    outer loop
      vertex 0 -100 1.5
      vertex 0 -99 0
      vertex 0 -100 0
    endloop
  endfacet
  facet normal -1 0 0
    outer loop
      vertex 0 -99 0
      vertex 0 -100 1.5
      vertex 0 0 1.5
    endloop
  endfacet
  facet normal -1 0 0
    outer loop
      vertex 0 0 1.5
      vertex 0 1 0
      vertex 0 0 0
    endloop
  endfacet
  facet normal -1 0 0
    outer loop
      vertex 0 1 0
      vertex 0 0 1.5
      vertex 0 1 13.7
    endloop
  endfacet
  facet normal -1 -0 0
    outer loop
      vertex 0 1 13.7
      vertex 0 0 1.5
      vertex 0 0 13.7
    endloop
  endfacet
  facet normal 0.5 0 -0.866025
    outer loop
      vertex 0 -99 0
      vertex 6.40858 0 3.7
      vertex 6.40858 -99 3.7
    endloop
  endfacet
  facet normal 0.5 0 -0.866025
    outer loop
      vertex 6.40858 0 3.7
      vertex 0 -99 0
      vertex 0 0 0
    endloop
  endfacet
  facet normal -0.499998 0 -0.866026
    outer loop
      vertex 6.40858 -99 3.7
      vertex 12.8172 0 0
      vertex 12.8172 -99 0
    endloop
  endfacet
  facet normal -0.499998 0 -0.866026
    outer loop
      vertex 12.8172 0 0
      vertex 6.40858 -99 3.7
      vertex 6.40858 0 3.7
    endloop
  endfacet
  facet normal 0.499999 0 -0.866026
    outer loop
      vertex 12.8172 -99 0
      vertex 19.2258 0 3.7
      vertex 19.2258 -99 3.7
    endloop
  endfacet
  facet normal 0.499999 0 -0.866026
    outer loop
      vertex 19.2258 0 3.7
      vertex 12.8172 -99 0
      vertex 12.8172 0 0
    endloop
  endfacet
  facet normal -0.500005 0 -0.866022
    outer loop
      vertex 19.2258 -99 3.7
      vertex 25.6343 0 0
      vertex 25.6343 -99 0
    endloop
  endfacet
  facet normal -0.500005 0 -0.866022
    outer loop
      vertex 25.6343 0 0
      vertex 19.2258 -99 3.7
      vertex 19.2258 0 3.7
    endloop
  endfacet
  facet normal 0.499999 0 -0.866026
    outer loop
      vertex 25.6343 -99 0
      vertex 32.0429 0 3.7
      vertex 32.0429 -99 3.7
    endloop
  endfacet
  facet normal 0.499999 0 -0.866026
    outer loop
      vertex 32.0429 0 3.7
      vertex 25.6343 -99 0
      vertex 25.6343 0 0
    endloop
  endfacet
  facet normal -0.499999 0 -0.866026
    outer loop
      vertex 32.0429 -99 3.7
      vertex 38.4515 0 0
      vertex 38.4515 -99 0
    endloop
  endfacet
  facet normal -0.499999 0 -0.866026
    outer loop
      vertex 38.4515 0 0
      vertex 32.0429 -99 3.7
      vertex 32.0429 0 3.7
    endloop
  endfacet
  facet normal 0.499999 0 -0.866026
    outer loop
      vertex 38.4515 -99 0
      vertex 44.8601 0 3.7
      vertex 44.8601 -99 3.7
    endloop
  endfacet
  facet normal 0.499999 0 -0.866026
    outer loop
      vertex 44.8601 0 3.7
      vertex 38.4515 -99 0
      vertex 38.4515 0 0
    endloop
  endfacet
  facet normal -0.499999 0 -0.866026
    outer loop
      vertex 44.8601 -99 3.7
      vertex 51.2687 0 0
      vertex 51.2687 -99 0
    endloop
  endfacet
  facet normal -0.499999 0 -0.866026
    outer loop
      vertex 51.2687 0 0
      vertex 44.8601 -99 3.7
      vertex 44.8601 0 3.7
    endloop
  endfacet
  facet normal 0.499999 0 -0.866026
    outer loop
      vertex 51.2687 -99 0
      vertex 57.6773 0 3.7
      vertex 57.6773 -99 3.7
    endloop
  endfacet
  facet normal 0.499999 0 -0.866026
    outer loop
      vertex 57.6773 0 3.7
      vertex 51.2687 -99 0
      vertex 51.2687 0 0
    endloop
  endfacet
  facet normal -0.499999 0 -0.866026
    outer loop
      vertex 57.6773 -99 3.7
      vertex 64.0859 0 0
      vertex 64.0859 -99 0
    endloop
  endfacet
  facet normal -0.499999 0 -0.866026
    outer loop
      vertex 64.0859 0 0
      vertex 57.6773 -99 3.7
      vertex 57.6773 0 3.7
    endloop
  endfacet
  facet normal 0.499999 0 -0.866026
    outer loop
      vertex 64.0859 -99 0
      vertex 70.4945 0 3.7
      vertex 70.4945 -99 3.7
    endloop
  endfacet
  facet normal 0.499999 0 -0.866026
    outer loop
      vertex 70.4945 0 3.7
      vertex 64.0859 -99 0
      vertex 64.0859 0 0
    endloop
  endfacet
  facet normal -0.500005 0 -0.866022
    outer loop
      vertex 70.4945 -99 3.7
      vertex 76.903 0 0
      vertex 76.903 -99 0
    endloop
  endfacet
  facet normal -0.500005 0 -0.866022
    outer loop
      vertex 76.903 0 0
      vertex 70.4945 -99 3.7
      vertex 70.4945 0 3.7
    endloop
  endfacet
  facet normal 0.499999 0 -0.866026
    outer loop
      vertex 76.903 -99 0
      vertex 83.3116 0 3.7
      vertex 83.3116 -99 3.7
    endloop
  endfacet
  facet normal 0.499999 0 -0.866026
    outer loop
      vertex 83.3116 0 3.7
      vertex 76.903 -99 0
      vertex 76.903 0 0
    endloop
  endfacet
  facet normal -0.499999 0 -0.866026
    outer loop
      vertex 83.3116 -99 3.7
      vertex 89.7202 0 0
      vertex 89.7202 -99 0
    endloop
  endfacet
  facet normal -0.499999 0 -0.866026
    outer loop
      vertex 89.7202 0 0
      vertex 83.3116 -99 3.7
      vertex 83.3116 0 3.7
    endloop
  endfacet
  facet normal 0.499999 0 -0.866026
    outer loop
      vertex 89.7202 -99 0
      vertex 96.1288 0 3.7
      vertex 96.1288 -99 3.7
    endloop
  endfacet
  facet normal 0.499999 0 -0.866026
    outer loop
      vertex 96.1288 0 3.7
      vertex 89.7202 -99 0
      vertex 89.7202 0 0
    endloop
  endfacet
  facet normal -0.500023 0 -0.866012
    outer loop
      vertex 96.1288 -99 3.7
      vertex 102.537 0 0
      vertex 102.537 -99 0
    endloop
  endfacet
  facet normal -0.500023 0 -0.866012
    outer loop
      vertex 102.537 0 0
      vertex 96.1288 -99 3.7
      vertex 96.1288 0 3.7
    endloop
  endfacet
  facet normal 0.499976 0 -0.866039
    outer loop
      vertex 102.537 -99 0
      vertex 108.946 0 3.7
      vertex 108.946 -99 3.7
    endloop
  endfacet
  facet normal 0.499976 0 -0.866039
    outer loop
      vertex 108.946 0 3.7
      vertex 102.537 -99 0
      vertex 102.537 0 0
    endloop
  endfacet
  facet normal -0.499976 0 -0.866039
    outer loop
      vertex 108.946 -99 3.7
      vertex 115.355 0 0
      vertex 115.355 -99 0
    endloop
  endfacet
  facet normal -0.499976 0 -0.866039
    outer loop
      vertex 115.355 0 0
      vertex 108.946 -99 3.7
      vertex 108.946 0 3.7
    endloop
  endfacet
  facet normal 0.500034 0 -0.866006
    outer loop
      vertex 115.355 -99 0
      vertex 121.763 0 3.7
      vertex 121.763 -99 3.7
    endloop
  endfacet
  facet normal 0.500034 0 -0.866006
    outer loop
      vertex 121.763 0 3.7
      vertex 115.355 -99 0
      vertex 115.355 0 0
    endloop
  endfacet
  facet normal -0.499976 0 -0.866039
    outer loop
      vertex 121.763 -99 3.7
      vertex 128.172 0 0
      vertex 128.172 -99 0
    endloop
  endfacet
  facet normal -0.499976 0 -0.866039
    outer loop
      vertex 128.172 0 0
      vertex 121.763 -99 3.7
      vertex 121.763 0 3.7
    endloop
  endfacet
  facet normal 1 0 0
    outer loop
      vertex 128.172 0 1.5
      vertex 128.172 -99 0
      vertex 128.172 0 0
    endloop
  endfacet
  facet normal 1 -0 0
    outer loop
      vertex 128.172 -100 1.5
      vertex 128.172 -99 0
      vertex 128.172 0 1.5
    endloop
  endfacet
  facet normal 1 0 0
    outer loop
      vertex 128.172 -99 0
      vertex 128.172 -100 1.5
      vertex 128.172 -100 0
    endloop
  endfacet
  facet normal 0 1 0
    outer loop
      vertex 121.763 -99 3.7
      vertex 128.172 -99 0
      vertex 115.355 -99 0
    endloop
  endfacet
  facet normal 0 1 0
    outer loop
      vertex 6.40858 -99 3.7
      vertex 12.8172 -99 0
      vertex 0 -99 0
    endloop
  endfacet
  facet normal 0 1 0
    outer loop
      vertex 19.2258 -99 3.7
      vertex 25.6343 -99 0
      vertex 12.8172 -99 0
    endloop
  endfacet
  facet normal 0 1 0
    outer loop
      vertex 32.0429 -99 3.7
      vertex 38.4515 -99 0
      vertex 25.6343 -99 0
    endloop
  endfacet
  facet normal 0 1 0
    outer loop
      vertex 44.8601 -99 3.7
      vertex 51.2687 -99 0
      vertex 38.4515 -99 0
    endloop
  endfacet
  facet normal 0 1 0
    outer loop
      vertex 57.6773 -99 3.7
      vertex 64.0859 -99 0
      vertex 51.2687 -99 0
    endloop
  endfacet
  facet normal 0 1 0
    outer loop
      vertex 70.4945 -99 3.7
      vertex 76.903 -99 0
      vertex 64.0859 -99 0
    endloop
  endfacet
  facet normal 0 1 0
    outer loop
      vertex 83.3116 -99 3.7
      vertex 89.7202 -99 0
      vertex 76.903 -99 0
    endloop
  endfacet
  facet normal 0 1 0
    outer loop
      vertex 96.1288 -99 3.7
      vertex 102.537 -99 0
      vertex 89.7202 -99 0
    endloop
  endfacet
  facet normal 0 1 0
    outer loop
      vertex 108.946 -99 3.7
      vertex 115.355 -99 0
      vertex 102.537 -99 0
    endloop
  endfacet
  facet normal 0 0 -1
    outer loop
      vertex 128.172 -100 0
      vertex 115.355 -99 0
      vertex 128.172 -99 0
    endloop
  endfacet
  facet normal 0 0 -1
    outer loop
      vertex 128.172 -100 0
      vertex 102.537 -99 0
      vertex 115.355 -99 0
    endloop
  endfacet
  facet normal 0 0 -1
    outer loop
      vertex 128.172 -100 0
      vertex 89.7202 -99 0
      vertex 102.537 -99 0
    endloop
  endfacet
  facet normal 0 0 -1
    outer loop
      vertex 128.172 -100 0
      vertex 76.903 -99 0
      vertex 89.7202 -99 0
    endloop
  endfacet
  facet normal 0 0 -1
    outer loop
      vertex 128.172 -100 0
      vertex 64.0859 -99 0
      vertex 76.903 -99 0
    endloop
  endfacet
  facet normal 0 0 -1
    outer loop
      vertex 128.172 -100 0
      vertex 51.2687 -99 0
      vertex 64.0859 -99 0
    endloop
  endfacet
  facet normal 0 0 -1
    outer loop
      vertex 0 -100 0
      vertex 51.2687 -99 0
      vertex 128.172 -100 0
    endloop
  endfacet
  facet normal -0 0 -1
    outer loop
      vertex 51.2687 -99 0
      vertex 0 -100 0
      vertex 38.4515 -99 0
    endloop
  endfacet
  facet normal -0 0 -1
    outer loop
      vertex 38.4515 -99 0
      vertex 0 -100 0
      vertex 25.6343 -99 0
    endloop
  endfacet
  facet normal -0 0 -1
    outer loop
      vertex 25.6343 -99 0
      vertex 0 -100 0
      vertex 12.8172 -99 0
    endloop
  endfacet
  facet normal -0 0 -1
    outer loop
      vertex 12.8172 -99 0
      vertex 0 -100 0
      vertex 0 -99 0
    endloop
  endfacet
  facet normal 1 -0 0
    outer loop
      vertex 128.172 0 13.7
      vertex 128.172 1 0
      vertex 128.172 1 13.7
    endloop
  endfacet
  facet normal 1 0 0
    outer loop
      vertex 128.172 1 0
      vertex 128.172 0 13.7
      vertex 128.172 0 0
    endloop
  endfacet
  facet normal -0 0 1
    outer loop
      vertex 0 1 13.7
      vertex 128.172 0 13.7
      vertex 128.172 1 13.7
    endloop
  endfacet
  facet normal 0 0 1
    outer loop
      vertex 128.172 0 13.7
      vertex 0 1 13.7
      vertex 0 0 13.7
    endloop
  endfacet
  facet normal 0 0 -1
    outer loop
      vertex 115.355 0 0
      vertex 128.172 1 0
      vertex 128.172 0 0
    endloop
  endfacet
  facet normal 0 0 -1
    outer loop
      vertex 102.537 0 0
      vertex 128.172 1 0
      vertex 115.355 0 0
    endloop
  endfacet
  facet normal 0 0 -1
    outer loop
      vertex 89.7202 0 0
      vertex 128.172 1 0
      vertex 102.537 0 0
    endloop
  endfacet
  facet normal 0 0 -1
    outer loop
      vertex 76.903 0 0
      vertex 128.172 1 0
      vertex 89.7202 0 0
    endloop
  endfacet
  facet normal 0 0 -1
    outer loop
      vertex 64.0859 0 0
      vertex 128.172 1 0
      vertex 76.903 0 0
    endloop
  endfacet
  facet normal 0 0 -1
    outer loop
      vertex 51.2687 0 0
      vertex 128.172 1 0
      vertex 64.0859 0 0
    endloop
  endfacet
  facet normal 0 0 -1
    outer loop
      vertex 0 1 0
      vertex 51.2687 0 0
      vertex 38.4515 0 0
    endloop
  endfacet
  facet normal 0 0 -1
    outer loop
      vertex 0 1 0
      vertex 38.4515 0 0
      vertex 25.6343 0 0
    endloop
  endfacet
  facet normal 0 0 -1
    outer loop
      vertex 0 1 0
      vertex 25.6343 0 0
      vertex 12.8172 0 0
    endloop
  endfacet
  facet normal 0 0 -1
    outer loop
      vertex 0 1 0
      vertex 12.8172 0 0
      vertex 0 0 0
    endloop
  endfacet
  facet normal 0 0 -1
    outer loop
      vertex 51.2687 0 0
      vertex 0 1 0
      vertex 128.172 1 0
    endloop
  endfacet
  facet normal 0 1 -0
    outer loop
      vertex 128.172 1 0
      vertex 0 1 13.7
      vertex 128.172 1 13.7
    endloop
  endfacet
  facet normal 0 1 0
    outer loop
      vertex 0 1 13.7
      vertex 128.172 1 0
      vertex 0 1 0
    endloop
  endfacet
  facet normal 0 -1 0
    outer loop
      vertex 108.946 0 5.2
      vertex 115.355 0 1.5
      vertex 121.763 0 5.2
    endloop
  endfacet
  facet normal 0 -1 0
    outer loop
      vertex 96.1288 0 5.2
      vertex 102.537 0 1.5
      vertex 108.946 0 5.2
    endloop
  endfacet
  facet normal 0 -1 0
    outer loop
      vertex 83.3116 0 5.2
      vertex 89.7202 0 1.5
      vertex 96.1288 0 5.2
    endloop
  endfacet
  facet normal 0 -1 0
    outer loop
      vertex 70.4945 0 5.2
      vertex 76.903 0 1.5
      vertex 83.3116 0 5.2
    endloop
  endfacet
  facet normal 0 -1 0
    outer loop
      vertex 57.6773 0 5.2
      vertex 64.0859 0 1.5
      vertex 70.4945 0 5.2
    endloop
  endfacet
  facet normal 0 -1 0
    outer loop
      vertex 44.8601 0 5.2
      vertex 51.2687 0 1.5
      vertex 57.6773 0 5.2
    endloop
  endfacet
  facet normal 0 -1 0
    outer loop
      vertex 32.0429 0 5.2
      vertex 38.4515 0 1.5
      vertex 44.8601 0 5.2
    endloop
  endfacet
  facet normal 0 -1 0
    outer loop
      vertex 19.2258 0 5.2
      vertex 25.6343 0 1.5
      vertex 32.0429 0 5.2
    endloop
  endfacet
  facet normal 0 -1 0
    outer loop
      vertex 6.40858 0 5.2
      vertex 12.8172 0 1.5
      vertex 19.2258 0 5.2
    endloop
  endfacet
  facet normal 0 -1 0
    outer loop
      vertex 19.2258 0 5.2
      vertex 0 0 13.7
      vertex 6.40858 0 5.2
    endloop
  endfacet
  facet normal -0 -1 0
    outer loop
      vertex 6.40858 0 5.2
      vertex 0 0 13.7
      vertex 0 0 1.5
    endloop
  endfacet
  facet normal 0 -1 0
    outer loop
      vertex 32.0429 0 5.2
      vertex 0 0 13.7
      vertex 19.2258 0 5.2
    endloop
  endfacet
  facet normal 0 -1 0
    outer loop
      vertex 44.8601 0 5.2
      vertex 0 0 13.7
      vertex 32.0429 0 5.2
    endloop
  endfacet
  facet normal 0 -1 0
    outer loop
      vertex 57.6773 0 5.2
      vertex 0 0 13.7
      vertex 44.8601 0 5.2
    endloop
  endfacet
  facet normal 0 -1 0
    outer loop
      vertex 0 0 13.7
      vertex 57.6773 0 5.2
      vertex 128.172 0 13.7
    endloop
  endfacet
  facet normal 0 -1 0
    outer loop
      vertex 70.4945 0 5.2
      vertex 128.172 0 13.7
      vertex 57.6773 0 5.2
    endloop
  endfacet
  facet normal 0 -1 0
    outer loop
      vertex 83.3116 0 5.2
      vertex 128.172 0 13.7
      vertex 70.4945 0 5.2
    endloop
  endfacet
  facet normal 0 -1 0
    outer loop
      vertex 96.1288 0 5.2
      vertex 128.172 0 13.7
      vertex 83.3116 0 5.2
    endloop
  endfacet
  facet normal 0 -1 0
    outer loop
      vertex 108.946 0 5.2
      vertex 128.172 0 13.7
      vertex 96.1288 0 5.2
    endloop
  endfacet
  facet normal 0 -1 0
    outer loop
      vertex 121.763 0 5.2
      vertex 128.172 0 13.7
      vertex 108.946 0 5.2
    endloop
  endfacet
  facet normal 0 -1 -0
    outer loop
      vertex 128.172 0 13.7
      vertex 121.763 0 5.2
      vertex 128.172 0 1.5
    endloop
  endfacet
  facet normal 0 -0 0
    outer loop
      vertex 128.172 0 1.5
      vertex 128.172 0 0
      vertex 128.172 0 13.7
    endloop
  endfacet
  facet normal 0 -1 -0
    outer loop
      vertex 6.40858 0 3.7
      vertex 0 0 0
      vertex 12.8172 0 0
    endloop
  endfacet
  facet normal 0 -1 -0
    outer loop
      vertex 19.2258 0 3.7
      vertex 12.8172 0 0
      vertex 25.6343 0 0
    endloop
  endfacet
  facet normal 0 -1 -0
    outer loop
      vertex 32.0429 0 3.7
      vertex 25.6343 0 0
      vertex 38.4515 0 0
    endloop
  endfacet
  facet normal 0 -1 -0
    outer loop
      vertex 44.8601 0 3.7
      vertex 38.4515 0 0
      vertex 51.2687 0 0
    endloop
  endfacet
  facet normal 0 -1 -0
    outer loop
      vertex 57.6773 0 3.7
      vertex 51.2687 0 0
      vertex 64.0859 0 0
    endloop
  endfacet
  facet normal 0 -1 -0
    outer loop
      vertex 70.4945 0 3.7
      vertex 64.0859 0 0
      vertex 76.903 0 0
    endloop
  endfacet
  facet normal 0 -1 -0
    outer loop
      vertex 83.3116 0 3.7
      vertex 76.903 0 0
      vertex 89.7202 0 0
    endloop
  endfacet
  facet normal 0 -1 -0
    outer loop
      vertex 96.1288 0 3.7
      vertex 89.7202 0 0
      vertex 102.537 0 0
    endloop
  endfacet
  facet normal 0 -1 -0
    outer loop
      vertex 108.946 0 3.7
      vertex 102.537 0 0
      vertex 115.355 0 0
    endloop
  endfacet
  facet normal 0 -1 -0
    outer loop
      vertex 121.763 0 3.7
      vertex 115.355 0 0
      vertex 128.172 0 0
    endloop
  endfacet
endsolid OpenSCAD_Model
