solid OpenSCAD_Model
  facet normal 0 -1 0
    outer loop
      vertex -2 -40 8
      vertex 0 -40 3.5
      vertex 0 -40 8
    endloop
  endfacet
  facet normal 0 -1 0
    outer loop
      vertex -2 -40 0
      vertex 9.125 -40 3.5
      vertex 0 -40 3.5
    endloop
  endfacet
  facet normal -0 -1 0
    outer loop
      vertex 16.7 -40 1.75
      vertex 9.125 -40 3.5
      vertex -2 -40 0
    endloop
  endfacet
  facet normal 0 -1 0
    outer loop
      vertex 10.875 -40 3.5
      vertex 16.7 -40 1.75
      vertex 16 -40 3.5
    endloop
  endfacet
  facet normal 0 -1 0
    outer loop
      vertex -2 -40 0
      vertex 17.3 -40 1.75
      vertex 16.7 -40 1.75
    endloop
  endfacet
  facet normal 0 -1 -0
    outer loop
      vertex 17.3 -40 1.75
      vertex -2 -40 0
      vertex 30.7 -40 1.75
    endloop
  endfacet
  facet normal 0 -1 -0
    outer loop
      vertex 30.7 -40 1.75
      vertex -2 -40 0
      vertex 31.3 -40 1.75
    endloop
  endfacet
  facet normal 0 -1 -0
    outer loop
      vertex 31.3 -40 1.75
      vertex -2 -40 0
      vertex 44.7 -40 1.75
    endloop
  endfacet
  facet normal 0 -1 -0
    outer loop
      vertex 44.7 -40 1.75
      vertex -2 -40 0
      vertex 45.3 -40 1.75
    endloop
  endfacet
  facet normal 0 -1 -0
    outer loop
      vertex 45.3 -40 1.75
      vertex -2 -40 0
      vertex 58.7 -40 1.75
    endloop
  endfacet
  facet normal 0 -1 -0
    outer loop
      vertex 58.7 -40 1.75
      vertex -2 -40 0
      vertex 59.3 -40 1.75
    endloop
  endfacet
  facet normal 0 -1 -0
    outer loop
      vertex 59.3 -40 1.75
      vertex -2 -40 0
      vertex 72.7 -40 1.75
    endloop
  endfacet
  facet normal 0 -1 -0
    outer loop
      vertex 72.7 -40 1.75
      vertex -2 -40 0
      vertex 73.3 -40 1.75
    endloop
  endfacet
  facet normal 0 -1 -0
    outer loop
      vertex 73.3 -40 1.75
      vertex -2 -40 0
      vertex 86.7 -40 1.75
    endloop
  endfacet
  facet normal 0 -1 -0
    outer loop
      vertex 86.7 -40 1.75
      vertex -2 -40 0
      vertex 87.3 -40 1.75
    endloop
  endfacet
  facet normal 0 -1 -0
    outer loop
      vertex 87.3 -40 1.75
      vertex -2 -40 0
      vertex 100.7 -40 1.75
    endloop
  endfacet
  facet normal 0 -1 0
    outer loop
      vertex 162 -40 0
      vertex 100.7 -40 1.75
      vertex -2 -40 0
    endloop
  endfacet
  facet normal 0 -1 0
    outer loop
      vertex 100.7 -40 1.75
      vertex 162 -40 0
      vertex 101.3 -40 1.75
    endloop
  endfacet
  facet normal 0 -1 0
    outer loop
      vertex 101.3 -40 1.75
      vertex 162 -40 0
      vertex 114.7 -40 1.75
    endloop
  endfacet
  facet normal 0 -1 0
    outer loop
      vertex 114.7 -40 1.75
      vertex 162 -40 0
      vertex 115.3 -40 1.75
    endloop
  endfacet
  facet normal 0 -1 0
    outer loop
      vertex 115.3 -40 1.75
      vertex 162 -40 0
      vertex 128.7 -40 1.75
    endloop
  endfacet
  facet normal 0 -1 0
    outer loop
      vertex 128.7 -40 1.75
      vertex 162 -40 0
      vertex 129.3 -40 1.75
    endloop
  endfacet
  facet normal 0 -1 0
    outer loop
      vertex 129.3 -40 1.75
      vertex 162 -40 0
      vertex 142.7 -40 1.75
    endloop
  endfacet
  facet normal 0 -1 0
    outer loop
      vertex 9.125 -40 3.5
      vertex 16.7 -40 1.75
      vertex 10.875 -40 3.5
    endloop
  endfacet
  facet normal 0 -1 0
    outer loop
      vertex -2 -40 0
      vertex 0 -40 3.5
      vertex -2 -40 8
    endloop
  endfacet
  facet normal 0 -1 0
    outer loop
      vertex 9.125 -40 3.5
      vertex 10.3 -40 4.5
      vertex 9.7 -40 4.5
    endloop
  endfacet
  facet normal 0 -1 -0
    outer loop
      vertex 10.3 -40 4.5
      vertex 9.125 -40 3.5
      vertex 10.875 -40 3.5
    endloop
  endfacet
  facet normal 0 -1 0
    outer loop
      vertex 17.3 -40 1.75
      vertex 23.125 -40 3.5
      vertex 18 -40 3.5
    endloop
  endfacet
  facet normal 0 -1 -0
    outer loop
      vertex 23.125 -40 3.5
      vertex 17.3 -40 1.75
      vertex 24.875 -40 3.5
    endloop
  endfacet
  facet normal 0 -1 0
    outer loop
      vertex 30.7 -40 1.75
      vertex 24.875 -40 3.5
      vertex 17.3 -40 1.75
    endloop
  endfacet
  facet normal 0 -1 0
    outer loop
      vertex 24.875 -40 3.5
      vertex 30.7 -40 1.75
      vertex 30 -40 3.5
    endloop
  endfacet
  facet normal 0 -1 0
    outer loop
      vertex 23.125 -40 3.5
      vertex 24.3 -40 4.5
      vertex 23.7 -40 4.5
    endloop
  endfacet
  facet normal 0 -1 -0
    outer loop
      vertex 24.3 -40 4.5
      vertex 23.125 -40 3.5
      vertex 24.875 -40 3.5
    endloop
  endfacet
  facet normal 0 -1 0
    outer loop
      vertex 31.3 -40 1.75
      vertex 37.125 -40 3.5
      vertex 32 -40 3.5
    endloop
  endfacet
  facet normal 0 -1 -0
    outer loop
      vertex 37.125 -40 3.5
      vertex 31.3 -40 1.75
      vertex 38.875 -40 3.5
    endloop
  endfacet
  facet normal 0 -1 0
    outer loop
      vertex 44.7 -40 1.75
      vertex 38.875 -40 3.5
      vertex 31.3 -40 1.75
    endloop
  endfacet
  facet normal 0 -1 0
    outer loop
      vertex 38.875 -40 3.5
      vertex 44.7 -40 1.75
      vertex 44 -40 3.5
    endloop
  endfacet
  facet normal 0 -1 0
    outer loop
      vertex 37.125 -40 3.5
      vertex 38.3 -40 4.5
      vertex 37.7 -40 4.5
    endloop
  endfacet
  facet normal 0 -1 -0
    outer loop
      vertex 38.3 -40 4.5
      vertex 37.125 -40 3.5
      vertex 38.875 -40 3.5
    endloop
  endfacet
  facet normal 0 -1 0
    outer loop
      vertex 45.3 -40 1.75
      vertex 51.125 -40 3.5
      vertex 46 -40 3.5
    endloop
  endfacet
  facet normal 0 -1 -0
    outer loop
      vertex 51.125 -40 3.5
      vertex 45.3 -40 1.75
      vertex 52.875 -40 3.5
    endloop
  endfacet
  facet normal 0 -1 0
    outer loop
      vertex 58.7 -40 1.75
      vertex 52.875 -40 3.5
      vertex 45.3 -40 1.75
    endloop
  endfacet
  facet normal 0 -1 0
    outer loop
      vertex 52.875 -40 3.5
      vertex 58.7 -40 1.75
      vertex 58 -40 3.5
    endloop
  endfacet
  facet normal 0 -1 0
    outer loop
      vertex 51.125 -40 3.5
      vertex 52.3 -40 4.5
      vertex 51.7 -40 4.5
    endloop
  endfacet
  facet normal 0 -1 -0
    outer loop
      vertex 52.3 -40 4.5
      vertex 51.125 -40 3.5
      vertex 52.875 -40 3.5
    endloop
  endfacet
  facet normal 0 -1 0
    outer loop
      vertex 59.3 -40 1.75
      vertex 65.125 -40 3.5
      vertex 60 -40 3.5
    endloop
  endfacet
  facet normal 0 -1 -0
    outer loop
      vertex 65.125 -40 3.5
      vertex 59.3 -40 1.75
      vertex 66.875 -40 3.5
    endloop
  endfacet
  facet normal 0 -1 0
    outer loop
      vertex 72.7 -40 1.75
      vertex 66.875 -40 3.5
      vertex 59.3 -40 1.75
    endloop
  endfacet
  facet normal 0 -1 0
    outer loop
      vertex 66.875 -40 3.5
      vertex 72.7 -40 1.75
      vertex 72 -40 3.5
    endloop
  endfacet
  facet normal 0 -1 0
    outer loop
      vertex 65.125 -40 3.5
      vertex 66.3 -40 4.5
      vertex 65.7 -40 4.5
    endloop
  endfacet
  facet normal 0 -1 -0
    outer loop
      vertex 66.3 -40 4.5
      vertex 65.125 -40 3.5
      vertex 66.875 -40 3.5
    endloop
  endfacet
  facet normal 0 -1 0
    outer loop
      vertex 73.3 -40 1.75
      vertex 79.125 -40 3.5
      vertex 74 -40 3.5
    endloop
  endfacet
  facet normal 0 -1 -0
    outer loop
      vertex 79.125 -40 3.5
      vertex 73.3 -40 1.75
      vertex 80.875 -40 3.5
    endloop
  endfacet
  facet normal 0 -1 0
    outer loop
      vertex 86.7 -40 1.75
      vertex 80.875 -40 3.5
      vertex 73.3 -40 1.75
    endloop
  endfacet
  facet normal 0 -1 0
    outer loop
      vertex 80.875 -40 3.5
      vertex 86.7 -40 1.75
      vertex 86 -40 3.5
    endloop
  endfacet
  facet normal 0 -1 0
    outer loop
      vertex 79.125 -40 3.5
      vertex 80.3 -40 4.5
      vertex 79.7 -40 4.5
    endloop
  endfacet
  facet normal 0 -1 -0
    outer loop
      vertex 80.3 -40 4.5
      vertex 79.125 -40 3.5
      vertex 80.875 -40 3.5
    endloop
  endfacet
  facet normal 0 -1 0
    outer loop
      vertex 87.3 -40 1.75
      vertex 93.125 -40 3.5
      vertex 88 -40 3.5
    endloop
  endfacet
  facet normal 0 -1 -0
    outer loop
      vertex 93.125 -40 3.5
      vertex 87.3 -40 1.75
      vertex 94.875 -40 3.5
    endloop
  endfacet
  facet normal 0 -1 0
    outer loop
      vertex 100.7 -40 1.75
      vertex 94.875 -40 3.5
      vertex 87.3 -40 1.75
    endloop
  endfacet
  facet normal 0 -1 0
    outer loop
      vertex 94.875 -40 3.5
      vertex 100.7 -40 1.75
      vertex 100 -40 3.5
    endloop
  endfacet
  facet normal 0 -1 0
    outer loop
      vertex 93.125 -40 3.5
      vertex 94.3 -40 4.5
      vertex 93.7 -40 4.5
    endloop
  endfacet
  facet normal 0 -1 -0
    outer loop
      vertex 94.3 -40 4.5
      vertex 93.125 -40 3.5
      vertex 94.875 -40 3.5
    endloop
  endfacet
  facet normal 0 -1 0
    outer loop
      vertex 101.3 -40 1.75
      vertex 107.125 -40 3.5
      vertex 102 -40 3.5
    endloop
  endfacet
  facet normal 0 -1 -0
    outer loop
      vertex 107.125 -40 3.5
      vertex 101.3 -40 1.75
      vertex 108.875 -40 3.5
    endloop
  endfacet
  facet normal 0 -1 0
    outer loop
      vertex 114.7 -40 1.75
      vertex 108.875 -40 3.5
      vertex 101.3 -40 1.75
    endloop
  endfacet
  facet normal 0 -1 0
    outer loop
      vertex 108.875 -40 3.5
      vertex 114.7 -40 1.75
      vertex 114 -40 3.5
    endloop
  endfacet
  facet normal 0 -1 0
    outer loop
      vertex 107.125 -40 3.5
      vertex 108.3 -40 4.5
      vertex 107.7 -40 4.5
    endloop
  endfacet
  facet normal 0 -1 -0
    outer loop
      vertex 108.3 -40 4.5
      vertex 107.125 -40 3.5
      vertex 108.875 -40 3.5
    endloop
  endfacet
  facet normal 0 -1 0
    outer loop
      vertex 115.3 -40 1.75
      vertex 121.125 -40 3.5
      vertex 116 -40 3.5
    endloop
  endfacet
  facet normal 0 -1 -0
    outer loop
      vertex 121.125 -40 3.5
      vertex 115.3 -40 1.75
      vertex 122.875 -40 3.5
    endloop
  endfacet
  facet normal 0 -1 0
    outer loop
      vertex 128.7 -40 1.75
      vertex 122.875 -40 3.5
      vertex 115.3 -40 1.75
    endloop
  endfacet
  facet normal 0 -1 0
    outer loop
      vertex 122.875 -40 3.5
      vertex 128.7 -40 1.75
      vertex 128 -40 3.5
    endloop
  endfacet
  facet normal 0 -1 0
    outer loop
      vertex 121.125 -40 3.5
      vertex 122.3 -40 4.5
      vertex 121.7 -40 4.5
    endloop
  endfacet
  facet normal 0 -1 -0
    outer loop
      vertex 122.3 -40 4.5
      vertex 121.125 -40 3.5
      vertex 122.875 -40 3.5
    endloop
  endfacet
  facet normal 0 -1 0
    outer loop
      vertex 129.3 -40 1.75
      vertex 135.125 -40 3.5
      vertex 130 -40 3.5
    endloop
  endfacet
  facet normal 0 -1 -0
    outer loop
      vertex 135.125 -40 3.5
      vertex 129.3 -40 1.75
      vertex 136.875 -40 3.5
    endloop
  endfacet
  facet normal 0 -1 0
    outer loop
      vertex 142.7 -40 1.75
      vertex 136.875 -40 3.5
      vertex 129.3 -40 1.75
    endloop
  endfacet
  facet normal 0 -1 0
    outer loop
      vertex 136.875 -40 3.5
      vertex 142.7 -40 1.75
      vertex 142 -40 3.5
    endloop
  endfacet
  facet normal 0 -1 0
    outer loop
      vertex 135.125 -40 3.5
      vertex 136.3 -40 4.5
      vertex 135.7 -40 4.5
    endloop
  endfacet
  facet normal 0 -1 -0
    outer loop
      vertex 136.3 -40 4.5
      vertex 135.125 -40 3.5
      vertex 136.875 -40 3.5
    endloop
  endfacet
  facet normal 0 -1 0
    outer loop
      vertex 143.3 -40 1.75
      vertex 149.125 -40 3.5
      vertex 144 -40 3.5
    endloop
  endfacet
  facet normal 0 -1 -0
    outer loop
      vertex 149.125 -40 3.5
      vertex 143.3 -40 1.75
      vertex 150.875 -40 3.5
    endloop
  endfacet
  facet normal 0 -1 0
    outer loop
      vertex 162 -40 0
      vertex 150.875 -40 3.5
      vertex 143.3 -40 1.75
    endloop
  endfacet
  facet normal 0 -1 0
    outer loop
      vertex 149.125 -40 3.5
      vertex 150.3 -40 4.5
      vertex 149.7 -40 4.5
    endloop
  endfacet
  facet normal 0 -1 -0
    outer loop
      vertex 150.3 -40 4.5
      vertex 149.125 -40 3.5
      vertex 150.875 -40 3.5
    endloop
  endfacet
  facet normal 0 -1 0
    outer loop
      vertex 160 -40 3.5
      vertex 162 -40 8
      vertex 160 -40 8
    endloop
  endfacet
  facet normal 0 -1 0
    outer loop
      vertex 160 -40 3.5
      vertex 162 -40 0
      vertex 162 -40 8
    endloop
  endfacet
  facet normal 0 -1 0
    outer loop
      vertex 150.875 -40 3.5
      vertex 162 -40 0
      vertex 160 -40 3.5
    endloop
  endfacet
  facet normal 0 -1 0
    outer loop
      vertex 142.7 -40 1.75
      vertex 162 -40 0
      vertex 143.3 -40 1.75
    endloop
  endfacet
  facet normal 0 0 1
    outer loop
      vertex 162 2 8
      vertex 160 0 8
      vertex 162 -40 8
    endloop
  endfacet
  facet normal 0 0 1
    outer loop
      vertex 162 2 8
      vertex 0 0 8
      vertex 160 0 8
    endloop
  endfacet
  facet normal -0 0 1
    outer loop
      vertex -2 2 8
      vertex 0 0 8
      vertex 162 2 8
    endloop
  endfacet
  facet normal 0 0 1
    outer loop
      vertex -2 -40 8
      vertex 0 0 8
      vertex -2 2 8
    endloop
  endfacet
  facet normal 0 0 1
    outer loop
      vertex 0 0 8
      vertex -2 -40 8
      vertex 0 -40 8
    endloop
  endfacet
  facet normal 0 0 1
    outer loop
      vertex 162 -40 8
      vertex 160 0 8
      vertex 160 -40 8
    endloop
  endfacet
  facet normal -1 0 0
    outer loop
      vertex 160 -40 3.5
      vertex 160 0 8
      vertex 160 0 3.5
    endloop
  endfacet
  facet normal -1 -0 0
    outer loop
      vertex 160 0 8
      vertex 160 -40 3.5
      vertex 160 -40 8
    endloop
  endfacet
  facet normal -0 0 1
    outer loop
      vertex 150.875 0 3.5
      vertex 160 -40 3.5
      vertex 160 0 3.5
    endloop
  endfacet
  facet normal 0 0 1
    outer loop
      vertex 160 -40 3.5
      vertex 150.875 0 3.5
      vertex 150.875 -40 3.5
    endloop
  endfacet
  facet normal 0.866906 -0 0.498471
    outer loop
      vertex 150.3 -40 4.5
      vertex 150.875 0 3.5
      vertex 150.3 0 4.5
    endloop
  endfacet
  facet normal 0.866906 0 0.498471
    outer loop
      vertex 150.875 0 3.5
      vertex 150.3 -40 4.5
      vertex 150.875 -40 3.5
    endloop
  endfacet
  facet normal -0 0 1
    outer loop
      vertex 149.7 0 4.5
      vertex 150.3 -40 4.5
      vertex 150.3 0 4.5
    endloop
  endfacet
  facet normal 0 0 1
    outer loop
      vertex 150.3 -40 4.5
      vertex 149.7 0 4.5
      vertex 149.7 -40 4.5
    endloop
  endfacet
  facet normal -0.866906 0 0.498471
    outer loop
      vertex 149.125 -40 3.5
      vertex 149.7 0 4.5
      vertex 149.125 0 3.5
    endloop
  endfacet
  facet normal -0.866906 0 0.498471
    outer loop
      vertex 149.7 0 4.5
      vertex 149.125 -40 3.5
      vertex 149.7 -40 4.5
    endloop
  endfacet
  facet normal -0 0 1
    outer loop
      vertex 144 0 3.5
      vertex 149.125 -40 3.5
      vertex 149.125 0 3.5
    endloop
  endfacet
  facet normal 0 0 1
    outer loop
      vertex 149.125 -40 3.5
      vertex 144 0 3.5
      vertex 144 -40 3.5
    endloop
  endfacet
  facet normal -0.928477 0 0.371391
    outer loop
      vertex 143.3 -40 1.75
      vertex 144 0 3.5
      vertex 143.3 0 1.75
    endloop
  endfacet
  facet normal -0.928477 0 0.371391
    outer loop
      vertex 144 0 3.5
      vertex 143.3 -40 1.75
      vertex 144 -40 3.5
    endloop
  endfacet
  facet normal -0 0 1
    outer loop
      vertex 142.7 0 1.75
      vertex 143.3 -40 1.75
      vertex 143.3 0 1.75
    endloop
  endfacet
  facet normal 0 0 1
    outer loop
      vertex 143.3 -40 1.75
      vertex 142.7 0 1.75
      vertex 142.7 -40 1.75
    endloop
  endfacet
  facet normal 0.928477 -0 0.371391
    outer loop
      vertex 142 -40 3.5
      vertex 142.7 0 1.75
      vertex 142 0 3.5
    endloop
  endfacet
  facet normal 0.928477 0 0.371391
    outer loop
      vertex 142.7 0 1.75
      vertex 142 -40 3.5
      vertex 142.7 -40 1.75
    endloop
  endfacet
  facet normal -0 0 1
    outer loop
      vertex 136.875 0 3.5
      vertex 142 -40 3.5
      vertex 142 0 3.5
    endloop
  endfacet
  facet normal 0 0 1
    outer loop
      vertex 142 -40 3.5
      vertex 136.875 0 3.5
      vertex 136.875 -40 3.5
    endloop
  endfacet
  facet normal 0.866906 -0 0.498471
    outer loop
      vertex 136.3 -40 4.5
      vertex 136.875 0 3.5
      vertex 136.3 0 4.5
    endloop
  endfacet
  facet normal 0.866906 0 0.498471
    outer loop
      vertex 136.875 0 3.5
      vertex 136.3 -40 4.5
      vertex 136.875 -40 3.5
    endloop
  endfacet
  facet normal -0 0 1
    outer loop
      vertex 135.7 0 4.5
      vertex 136.3 -40 4.5
      vertex 136.3 0 4.5
    endloop
  endfacet
  facet normal 0 0 1
    outer loop
      vertex 136.3 -40 4.5
      vertex 135.7 0 4.5
      vertex 135.7 -40 4.5
    endloop
  endfacet
  facet normal -0.866906 0 0.498471
    outer loop
      vertex 135.125 -40 3.5
      vertex 135.7 0 4.5
      vertex 135.125 0 3.5
    endloop
  endfacet
  facet normal -0.866906 0 0.498471
    outer loop
      vertex 135.7 0 4.5
      vertex 135.125 -40 3.5
      vertex 135.7 -40 4.5
    endloop
  endfacet
  facet normal -0 0 1
    outer loop
      vertex 130 0 3.5
      vertex 135.125 -40 3.5
      vertex 135.125 0 3.5
    endloop
  endfacet
  facet normal 0 0 1
    outer loop
      vertex 135.125 -40 3.5
      vertex 130 0 3.5
      vertex 130 -40 3.5
    endloop
  endfacet
  facet normal -0.928477 0 0.371391
    outer loop
      vertex 129.3 -40 1.75
      vertex 130 0 3.5
      vertex 129.3 0 1.75
    endloop
  endfacet
  facet normal -0.928477 0 0.371391
    outer loop
      vertex 130 0 3.5
      vertex 129.3 -40 1.75
      vertex 130 -40 3.5
    endloop
  endfacet
  facet normal -0 0 1
    outer loop
      vertex 128.7 0 1.75
      vertex 129.3 -40 1.75
      vertex 129.3 0 1.75
    endloop
  endfacet
  facet normal 0 0 1
    outer loop
      vertex 129.3 -40 1.75
      vertex 128.7 0 1.75
      vertex 128.7 -40 1.75
    endloop
  endfacet
  facet normal 0.928477 -0 0.371391
    outer loop
      vertex 128 -40 3.5
      vertex 128.7 0 1.75
      vertex 128 0 3.5
    endloop
  endfacet
  facet normal 0.928477 0 0.371391
    outer loop
      vertex 128.7 0 1.75
      vertex 128 -40 3.5
      vertex 128.7 -40 1.75
    endloop
  endfacet
  facet normal -0 0 1
    outer loop
      vertex 122.875 0 3.5
      vertex 128 -40 3.5
      vertex 128 0 3.5
    endloop
  endfacet
  facet normal 0 0 1
    outer loop
      vertex 128 -40 3.5
      vertex 122.875 0 3.5
      vertex 122.875 -40 3.5
    endloop
  endfacet
  facet normal 0.866906 -0 0.498471
    outer loop
      vertex 122.3 -40 4.5
      vertex 122.875 0 3.5
      vertex 122.3 0 4.5
    endloop
  endfacet
  facet normal 0.866906 0 0.498471
    outer loop
      vertex 122.875 0 3.5
      vertex 122.3 -40 4.5
      vertex 122.875 -40 3.5
    endloop
  endfacet
  facet normal -0 0 1
    outer loop
      vertex 121.7 0 4.5
      vertex 122.3 -40 4.5
      vertex 122.3 0 4.5
    endloop
  endfacet
  facet normal 0 0 1
    outer loop
      vertex 122.3 -40 4.5
      vertex 121.7 0 4.5
      vertex 121.7 -40 4.5
    endloop
  endfacet
  facet normal -0.866906 0 0.498471
    outer loop
      vertex 121.125 -40 3.5
      vertex 121.7 0 4.5
      vertex 121.125 0 3.5
    endloop
  endfacet
  facet normal -0.866906 0 0.498471
    outer loop
      vertex 121.7 0 4.5
      vertex 121.125 -40 3.5
      vertex 121.7 -40 4.5
    endloop
  endfacet
  facet normal -0 0 1
    outer loop
      vertex 116 0 3.5
      vertex 121.125 -40 3.5
      vertex 121.125 0 3.5
    endloop
  endfacet
  facet normal 0 0 1
    outer loop
      vertex 121.125 -40 3.5
      vertex 116 0 3.5
      vertex 116 -40 3.5
    endloop
  endfacet
  facet normal -0.928477 0 0.371391
    outer loop
      vertex 115.3 -40 1.75
      vertex 116 0 3.5
      vertex 115.3 0 1.75
    endloop
  endfacet
  facet normal -0.928477 0 0.371391
    outer loop
      vertex 116 0 3.5
      vertex 115.3 -40 1.75
      vertex 116 -40 3.5
    endloop
  endfacet
  facet normal -0 0 1
    outer loop
      vertex 114.7 0 1.75
      vertex 115.3 -40 1.75
      vertex 115.3 0 1.75
    endloop
  endfacet
  facet normal 0 0 1
    outer loop
      vertex 115.3 -40 1.75
      vertex 114.7 0 1.75
      vertex 114.7 -40 1.75
    endloop
  endfacet
  facet normal 0.928477 -0 0.371391
    outer loop
      vertex 114 -40 3.5
      vertex 114.7 0 1.75
      vertex 114 0 3.5
    endloop
  endfacet
  facet normal 0.928477 0 0.371391
    outer loop
      vertex 114.7 0 1.75
      vertex 114 -40 3.5
      vertex 114.7 -40 1.75
    endloop
  endfacet
  facet normal -0 0 1
    outer loop
      vertex 108.875 0 3.5
      vertex 114 -40 3.5
      vertex 114 0 3.5
    endloop
  endfacet
  facet normal 0 0 1
    outer loop
      vertex 114 -40 3.5
      vertex 108.875 0 3.5
      vertex 108.875 -40 3.5
    endloop
  endfacet
  facet normal 0.866906 -0 0.498471
    outer loop
      vertex 108.3 -40 4.5
      vertex 108.875 0 3.5
      vertex 108.3 0 4.5
    endloop
  endfacet
  facet normal 0.866906 0 0.498471
    outer loop
      vertex 108.875 0 3.5
      vertex 108.3 -40 4.5
      vertex 108.875 -40 3.5
    endloop
  endfacet
  facet normal -0 0 1
    outer loop
      vertex 107.7 0 4.5
      vertex 108.3 -40 4.5
      vertex 108.3 0 4.5
    endloop
  endfacet
  facet normal 0 0 1
    outer loop
      vertex 108.3 -40 4.5
      vertex 107.7 0 4.5
      vertex 107.7 -40 4.5
    endloop
  endfacet
  facet normal -0.866906 0 0.498471
    outer loop
      vertex 107.125 -40 3.5
      vertex 107.7 0 4.5
      vertex 107.125 0 3.5
    endloop
  endfacet
  facet normal -0.866906 0 0.498471
    outer loop
      vertex 107.7 0 4.5
      vertex 107.125 -40 3.5
      vertex 107.7 -40 4.5
    endloop
  endfacet
  facet normal -0 0 1
    outer loop
      vertex 102 0 3.5
      vertex 107.125 -40 3.5
      vertex 107.125 0 3.5
    endloop
  endfacet
  facet normal 0 0 1
    outer loop
      vertex 107.125 -40 3.5
      vertex 102 0 3.5
      vertex 102 -40 3.5
    endloop
  endfacet
  facet normal -0.928477 0 0.371391
    outer loop
      vertex 101.3 -40 1.75
      vertex 102 0 3.5
      vertex 101.3 0 1.75
    endloop
  endfacet
  facet normal -0.928477 0 0.371391
    outer loop
      vertex 102 0 3.5
      vertex 101.3 -40 1.75
      vertex 102 -40 3.5
    endloop
  endfacet
  facet normal -0 0 1
    outer loop
      vertex 100.7 0 1.75
      vertex 101.3 -40 1.75
      vertex 101.3 0 1.75
    endloop
  endfacet
  facet normal 0 0 1
    outer loop
      vertex 101.3 -40 1.75
      vertex 100.7 0 1.75
      vertex 100.7 -40 1.75
    endloop
  endfacet
  facet normal 0.928477 -0 0.371391
    outer loop
      vertex 100 -40 3.5
      vertex 100.7 0 1.75
      vertex 100 0 3.5
    endloop
  endfacet
  facet normal 0.928477 0 0.371391
    outer loop
      vertex 100.7 0 1.75
      vertex 100 -40 3.5
      vertex 100.7 -40 1.75
    endloop
  endfacet
  facet normal -0 0 1
    outer loop
      vertex 94.875 0 3.5
      vertex 100 -40 3.5
      vertex 100 0 3.5
    endloop
  endfacet
  facet normal 0 0 1
    outer loop
      vertex 100 -40 3.5
      vertex 94.875 0 3.5
      vertex 94.875 -40 3.5
    endloop
  endfacet
  facet normal 0.866906 -0 0.498471
    outer loop
      vertex 94.3 -40 4.5
      vertex 94.875 0 3.5
      vertex 94.3 0 4.5
    endloop
  endfacet
  facet normal 0.866906 0 0.498471
    outer loop
      vertex 94.875 0 3.5
      vertex 94.3 -40 4.5
      vertex 94.875 -40 3.5
    endloop
  endfacet
  facet normal -0 0 1
    outer loop
      vertex 93.7 0 4.5
      vertex 94.3 -40 4.5
      vertex 94.3 0 4.5
    endloop
  endfacet
  facet normal 0 0 1
    outer loop
      vertex 94.3 -40 4.5
      vertex 93.7 0 4.5
      vertex 93.7 -40 4.5
    endloop
  endfacet
  facet normal -0.866906 0 0.498471
    outer loop
      vertex 93.125 -40 3.5
      vertex 93.7 0 4.5
      vertex 93.125 0 3.5
    endloop
  endfacet
  facet normal -0.866906 0 0.498471
    outer loop
      vertex 93.7 0 4.5
      vertex 93.125 -40 3.5
      vertex 93.7 -40 4.5
    endloop
  endfacet
  facet normal -0 0 1
    outer loop
      vertex 88 0 3.5
      vertex 93.125 -40 3.5
      vertex 93.125 0 3.5
    endloop
  endfacet
  facet normal 0 0 1
    outer loop
      vertex 93.125 -40 3.5
      vertex 88 0 3.5
      vertex 88 -40 3.5
    endloop
  endfacet
  facet normal -0.928477 0 0.371391
    outer loop
      vertex 87.3 -40 1.75
      vertex 88 0 3.5
      vertex 87.3 0 1.75
    endloop
  endfacet
  facet normal -0.928477 0 0.371391
    outer loop
      vertex 88 0 3.5
      vertex 87.3 -40 1.75
      vertex 88 -40 3.5
    endloop
  endfacet
  facet normal -0 0 1
    outer loop
      vertex 86.7 0 1.75
      vertex 87.3 -40 1.75
      vertex 87.3 0 1.75
    endloop
  endfacet
  facet normal 0 0 1
    outer loop
      vertex 87.3 -40 1.75
      vertex 86.7 0 1.75
      vertex 86.7 -40 1.75
    endloop
  endfacet
  facet normal 0.928477 -0 0.371391
    outer loop
      vertex 86 -40 3.5
      vertex 86.7 0 1.75
      vertex 86 0 3.5
    endloop
  endfacet
  facet normal 0.928477 0 0.371391
    outer loop
      vertex 86.7 0 1.75
      vertex 86 -40 3.5
      vertex 86.7 -40 1.75
    endloop
  endfacet
  facet normal -0 0 1
    outer loop
      vertex 80.875 0 3.5
      vertex 86 -40 3.5
      vertex 86 0 3.5
    endloop
  endfacet
  facet normal 0 0 1
    outer loop
      vertex 86 -40 3.5
      vertex 80.875 0 3.5
      vertex 80.875 -40 3.5
    endloop
  endfacet
  facet normal 0.866906 -0 0.498471
    outer loop
      vertex 80.3 -40 4.5
      vertex 80.875 0 3.5
      vertex 80.3 0 4.5
    endloop
  endfacet
  facet normal 0.866906 0 0.498471
    outer loop
      vertex 80.875 0 3.5
      vertex 80.3 -40 4.5
      vertex 80.875 -40 3.5
    endloop
  endfacet
  facet normal -0 0 1
    outer loop
      vertex 79.7 0 4.5
      vertex 80.3 -40 4.5
      vertex 80.3 0 4.5
    endloop
  endfacet
  facet normal 0 0 1
    outer loop
      vertex 80.3 -40 4.5
      vertex 79.7 0 4.5
      vertex 79.7 -40 4.5
    endloop
  endfacet
  facet normal -0.866906 0 0.498471
    outer loop
      vertex 79.125 -40 3.5
      vertex 79.7 0 4.5
      vertex 79.125 0 3.5
    endloop
  endfacet
  facet normal -0.866906 0 0.498471
    outer loop
      vertex 79.7 0 4.5
      vertex 79.125 -40 3.5
      vertex 79.7 -40 4.5
    endloop
  endfacet
  facet normal -0 0 1
    outer loop
      vertex 74 0 3.5
      vertex 79.125 -40 3.5
      vertex 79.125 0 3.5
    endloop
  endfacet
  facet normal 0 0 1
    outer loop
      vertex 79.125 -40 3.5
      vertex 74 0 3.5
      vertex 74 -40 3.5
    endloop
  endfacet
  facet normal -0.928477 0 0.371391
    outer loop
      vertex 73.3 -40 1.75
      vertex 74 0 3.5
      vertex 73.3 0 1.75
    endloop
  endfacet
  facet normal -0.928477 0 0.371391
    outer loop
      vertex 74 0 3.5
      vertex 73.3 -40 1.75
      vertex 74 -40 3.5
    endloop
  endfacet
  facet normal -0 0 1
    outer loop
      vertex 72.7 0 1.75
      vertex 73.3 -40 1.75
      vertex 73.3 0 1.75
    endloop
  endfacet
  facet normal 0 0 1
    outer loop
      vertex 73.3 -40 1.75
      vertex 72.7 0 1.75
      vertex 72.7 -40 1.75
    endloop
  endfacet
  facet normal 0.928477 -0 0.371391
    outer loop
      vertex 72 -40 3.5
      vertex 72.7 0 1.75
      vertex 72 0 3.5
    endloop
  endfacet
  facet normal 0.928477 0 0.371391
    outer loop
      vertex 72.7 0 1.75
      vertex 72 -40 3.5
      vertex 72.7 -40 1.75
    endloop
  endfacet
  facet normal -0 0 1
    outer loop
      vertex 66.875 0 3.5
      vertex 72 -40 3.5
      vertex 72 0 3.5
    endloop
  endfacet
  facet normal 0 0 1
    outer loop
      vertex 72 -40 3.5
      vertex 66.875 0 3.5
      vertex 66.875 -40 3.5
    endloop
  endfacet
  facet normal 0.866906 -0 0.498471
    outer loop
      vertex 66.3 -40 4.5
      vertex 66.875 0 3.5
      vertex 66.3 0 4.5
    endloop
  endfacet
  facet normal 0.866906 0 0.498471
    outer loop
      vertex 66.875 0 3.5
      vertex 66.3 -40 4.5
      vertex 66.875 -40 3.5
    endloop
  endfacet
  facet normal -0 0 1
    outer loop
      vertex 65.7 0 4.5
      vertex 66.3 -40 4.5
      vertex 66.3 0 4.5
    endloop
  endfacet
  facet normal 0 0 1
    outer loop
      vertex 66.3 -40 4.5
      vertex 65.7 0 4.5
      vertex 65.7 -40 4.5
    endloop
  endfacet
  facet normal -0.866906 0 0.498471
    outer loop
      vertex 65.125 -40 3.5
      vertex 65.7 0 4.5
      vertex 65.125 0 3.5
    endloop
  endfacet
  facet normal -0.866906 0 0.498471
    outer loop
      vertex 65.7 0 4.5
      vertex 65.125 -40 3.5
      vertex 65.7 -40 4.5
    endloop
  endfacet
  facet normal -0 0 1
    outer loop
      vertex 60 0 3.5
      vertex 65.125 -40 3.5
      vertex 65.125 0 3.5
    endloop
  endfacet
  facet normal 0 0 1
    outer loop
      vertex 65.125 -40 3.5
      vertex 60 0 3.5
      vertex 60 -40 3.5
    endloop
  endfacet
  facet normal -0.928477 0 0.371391
    outer loop
      vertex 59.3 -40 1.75
      vertex 60 0 3.5
      vertex 59.3 0 1.75
    endloop
  endfacet
  facet normal -0.928477 0 0.371391
    outer loop
      vertex 60 0 3.5
      vertex 59.3 -40 1.75
      vertex 60 -40 3.5
    endloop
  endfacet
  facet normal -0 0 1
    outer loop
      vertex 58.7 0 1.75
      vertex 59.3 -40 1.75
      vertex 59.3 0 1.75
    endloop
  endfacet
  facet normal 0 0 1
    outer loop
      vertex 59.3 -40 1.75
      vertex 58.7 0 1.75
      vertex 58.7 -40 1.75
    endloop
  endfacet
  facet normal 0.928477 -0 0.371391
    outer loop
      vertex 58 -40 3.5
      vertex 58.7 0 1.75
      vertex 58 0 3.5
    endloop
  endfacet
  facet normal 0.928477 0 0.371391
    outer loop
      vertex 58.7 0 1.75
      vertex 58 -40 3.5
      vertex 58.7 -40 1.75
    endloop
  endfacet
  facet normal -0 0 1
    outer loop
      vertex 52.875 0 3.5
      vertex 58 -40 3.5
      vertex 58 0 3.5
    endloop
  endfacet
  facet normal 0 0 1
    outer loop
      vertex 58 -40 3.5
      vertex 52.875 0 3.5
      vertex 52.875 -40 3.5
    endloop
  endfacet
  facet normal 0.866906 -0 0.498471
    outer loop
      vertex 52.3 -40 4.5
      vertex 52.875 0 3.5
      vertex 52.3 0 4.5
    endloop
  endfacet
  facet normal 0.866906 0 0.498471
    outer loop
      vertex 52.875 0 3.5
      vertex 52.3 -40 4.5
      vertex 52.875 -40 3.5
    endloop
  endfacet
  facet normal -0 0 1
    outer loop
      vertex 51.7 0 4.5
      vertex 52.3 -40 4.5
      vertex 52.3 0 4.5
    endloop
  endfacet
  facet normal 0 0 1
    outer loop
      vertex 52.3 -40 4.5
      vertex 51.7 0 4.5
      vertex 51.7 -40 4.5
    endloop
  endfacet
  facet normal -0.866906 0 0.498471
    outer loop
      vertex 51.125 -40 3.5
      vertex 51.7 0 4.5
      vertex 51.125 0 3.5
    endloop
  endfacet
  facet normal -0.866906 0 0.498471
    outer loop
      vertex 51.7 0 4.5
      vertex 51.125 -40 3.5
      vertex 51.7 -40 4.5
    endloop
  endfacet
  facet normal -0 0 1
    outer loop
      vertex 46 0 3.5
      vertex 51.125 -40 3.5
      vertex 51.125 0 3.5
    endloop
  endfacet
  facet normal 0 0 1
    outer loop
      vertex 51.125 -40 3.5
      vertex 46 0 3.5
      vertex 46 -40 3.5
    endloop
  endfacet
  facet normal -0.928477 0 0.371391
    outer loop
      vertex 45.3 -40 1.75
      vertex 46 0 3.5
      vertex 45.3 0 1.75
    endloop
  endfacet
  facet normal -0.928477 0 0.371391
    outer loop
      vertex 46 0 3.5
      vertex 45.3 -40 1.75
      vertex 46 -40 3.5
    endloop
  endfacet
  facet normal -0 0 1
    outer loop
      vertex 44.7 0 1.75
      vertex 45.3 -40 1.75
      vertex 45.3 0 1.75
    endloop
  endfacet
  facet normal 0 0 1
    outer loop
      vertex 45.3 -40 1.75
      vertex 44.7 0 1.75
      vertex 44.7 -40 1.75
    endloop
  endfacet
  facet normal 0.928477 -0 0.371391
    outer loop
      vertex 44 -40 3.5
      vertex 44.7 0 1.75
      vertex 44 0 3.5
    endloop
  endfacet
  facet normal 0.928477 0 0.371391
    outer loop
      vertex 44.7 0 1.75
      vertex 44 -40 3.5
      vertex 44.7 -40 1.75
    endloop
  endfacet
  facet normal -0 0 1
    outer loop
      vertex 38.875 0 3.5
      vertex 44 -40 3.5
      vertex 44 0 3.5
    endloop
  endfacet
  facet normal 0 0 1
    outer loop
      vertex 44 -40 3.5
      vertex 38.875 0 3.5
      vertex 38.875 -40 3.5
    endloop
  endfacet
  facet normal 0.866906 -0 0.498471
    outer loop
      vertex 38.3 -40 4.5
      vertex 38.875 0 3.5
      vertex 38.3 0 4.5
    endloop
  endfacet
  facet normal 0.866906 0 0.498471
    outer loop
      vertex 38.875 0 3.5
      vertex 38.3 -40 4.5
      vertex 38.875 -40 3.5
    endloop
  endfacet
  facet normal -0 0 1
    outer loop
      vertex 37.7 0 4.5
      vertex 38.3 -40 4.5
      vertex 38.3 0 4.5
    endloop
  endfacet
  facet normal 0 0 1
    outer loop
      vertex 38.3 -40 4.5
      vertex 37.7 0 4.5
      vertex 37.7 -40 4.5
    endloop
  endfacet
  facet normal -0.866906 0 0.498471
    outer loop
      vertex 37.125 -40 3.5
      vertex 37.7 0 4.5
      vertex 37.125 0 3.5
    endloop
  endfacet
  facet normal -0.866906 0 0.498471
    outer loop
      vertex 37.7 0 4.5
      vertex 37.125 -40 3.5
      vertex 37.7 -40 4.5
    endloop
  endfacet
  facet normal -0 0 1
    outer loop
      vertex 32 0 3.5
      vertex 37.125 -40 3.5
      vertex 37.125 0 3.5
    endloop
  endfacet
  facet normal 0 0 1
    outer loop
      vertex 37.125 -40 3.5
      vertex 32 0 3.5
      vertex 32 -40 3.5
    endloop
  endfacet
  facet normal -0.928477 0 0.371391
    outer loop
      vertex 31.3 -40 1.75
      vertex 32 0 3.5
      vertex 31.3 0 1.75
    endloop
  endfacet
  facet normal -0.928477 0 0.371391
    outer loop
      vertex 32 0 3.5
      vertex 31.3 -40 1.75
      vertex 32 -40 3.5
    endloop
  endfacet
  facet normal -0 0 1
    outer loop
      vertex 30.7 0 1.75
      vertex 31.3 -40 1.75
      vertex 31.3 0 1.75
    endloop
  endfacet
  facet normal 0 0 1
    outer loop
      vertex 31.3 -40 1.75
      vertex 30.7 0 1.75
      vertex 30.7 -40 1.75
    endloop
  endfacet
  facet normal 0.928477 -0 0.371391
    outer loop
      vertex 30 -40 3.5
      vertex 30.7 0 1.75
      vertex 30 0 3.5
    endloop
  endfacet
  facet normal 0.928477 0 0.371391
    outer loop
      vertex 30.7 0 1.75
      vertex 30 -40 3.5
      vertex 30.7 -40 1.75
    endloop
  endfacet
  facet normal -0 0 1
    outer loop
      vertex 24.875 0 3.5
      vertex 30 -40 3.5
      vertex 30 0 3.5
    endloop
  endfacet
  facet normal 0 0 1
    outer loop
      vertex 30 -40 3.5
      vertex 24.875 0 3.5
      vertex 24.875 -40 3.5
    endloop
  endfacet
  facet normal 0.866906 -0 0.498471
    outer loop
      vertex 24.3 -40 4.5
      vertex 24.875 0 3.5
      vertex 24.3 0 4.5
    endloop
  endfacet
  facet normal 0.866906 0 0.498471
    outer loop
      vertex 24.875 0 3.5
      vertex 24.3 -40 4.5
      vertex 24.875 -40 3.5
    endloop
  endfacet
  facet normal -0 0 1
    outer loop
      vertex 23.7 0 4.5
      vertex 24.3 -40 4.5
      vertex 24.3 0 4.5
    endloop
  endfacet
  facet normal 0 0 1
    outer loop
      vertex 24.3 -40 4.5
      vertex 23.7 0 4.5
      vertex 23.7 -40 4.5
    endloop
  endfacet
  facet normal -0.866906 0 0.498471
    outer loop
      vertex 23.125 -40 3.5
      vertex 23.7 0 4.5
      vertex 23.125 0 3.5
    endloop
  endfacet
  facet normal -0.866906 0 0.498471
    outer loop
      vertex 23.7 0 4.5
      vertex 23.125 -40 3.5
      vertex 23.7 -40 4.5
    endloop
  endfacet
  facet normal -0 0 1
    outer loop
      vertex 18 0 3.5
      vertex 23.125 -40 3.5
      vertex 23.125 0 3.5
    endloop
  endfacet
  facet normal 0 0 1
    outer loop
      vertex 23.125 -40 3.5
      vertex 18 0 3.5
      vertex 18 -40 3.5
    endloop
  endfacet
  facet normal -0.928477 0 0.371391
    outer loop
      vertex 17.3 -40 1.75
      vertex 18 0 3.5
      vertex 17.3 0 1.75
    endloop
  endfacet
  facet normal -0.928477 0 0.371391
    outer loop
      vertex 18 0 3.5
      vertex 17.3 -40 1.75
      vertex 18 -40 3.5
    endloop
  endfacet
  facet normal -0 0 1
    outer loop
      vertex 16.7 0 1.75
      vertex 17.3 -40 1.75
      vertex 17.3 0 1.75
    endloop
  endfacet
  facet normal 0 0 1
    outer loop
      vertex 17.3 -40 1.75
      vertex 16.7 0 1.75
      vertex 16.7 -40 1.75
    endloop
  endfacet
  facet normal 0.928477 -0 0.371391
    outer loop
      vertex 16 -40 3.5
      vertex 16.7 0 1.75
      vertex 16 0 3.5
    endloop
  endfacet
  facet normal 0.928477 0 0.371391
    outer loop
      vertex 16.7 0 1.75
      vertex 16 -40 3.5
      vertex 16.7 -40 1.75
    endloop
  endfacet
  facet normal -0 0 1
    outer loop
      vertex 10.875 0 3.5
      vertex 16 -40 3.5
      vertex 16 0 3.5
    endloop
  endfacet
  facet normal 0 0 1
    outer loop
      vertex 16 -40 3.5
      vertex 10.875 0 3.5
      vertex 10.875 -40 3.5
    endloop
  endfacet
  facet normal 0.866906 -0 0.498471
    outer loop
      vertex 10.3 -40 4.5
      vertex 10.875 0 3.5
      vertex 10.3 0 4.5
    endloop
  endfacet
  facet normal 0.866906 0 0.498471
    outer loop
      vertex 10.875 0 3.5
      vertex 10.3 -40 4.5
      vertex 10.875 -40 3.5
    endloop
  endfacet
  facet normal -0 0 1
    outer loop
      vertex 9.7 0 4.5
      vertex 10.3 -40 4.5
      vertex 10.3 0 4.5
    endloop
  endfacet
  facet normal 0 0 1
    outer loop
      vertex 10.3 -40 4.5
      vertex 9.7 0 4.5
      vertex 9.7 -40 4.5
    endloop
  endfacet
  facet normal -0.866906 0 0.498471
    outer loop
      vertex 9.125 -40 3.5
      vertex 9.7 0 4.5
      vertex 9.125 0 3.5
    endloop
  endfacet
  facet normal -0.866906 0 0.498471
    outer loop
      vertex 9.7 0 4.5
      vertex 9.125 -40 3.5
      vertex 9.7 -40 4.5
    endloop
  endfacet
  facet normal -0 0 1
    outer loop
      vertex 0 0 3.5
      vertex 9.125 -40 3.5
      vertex 9.125 0 3.5
    endloop
  endfacet
  facet normal 0 0 1
    outer loop
      vertex 9.125 -40 3.5
      vertex 0 0 3.5
      vertex 0 -40 3.5
    endloop
  endfacet
  facet normal 1 -0 0
    outer loop
      vertex 0 -40 8
      vertex 0 0 3.5
      vertex 0 0 8
    endloop
  endfacet
  facet normal 1 0 0
    outer loop
      vertex 0 0 3.5
      vertex 0 -40 8
      vertex 0 -40 3.5
    endloop
  endfacet
  facet normal -1 0 0
    outer loop
      vertex -2 -40 0
      vertex -2 2 8
      vertex -2 2 0
    endloop
  endfacet
  facet normal -1 -0 0
    outer loop
      vertex -2 2 8
      vertex -2 -40 0
      vertex -2 -40 8
    endloop
  endfacet
  facet normal 0 0 -1
    outer loop
      vertex -2 -40 0
      vertex 162 2 0
      vertex 162 -40 0
    endloop
  endfacet
  facet normal -0 0 -1
    outer loop
      vertex 162 2 0
      vertex -2 -40 0
      vertex -2 2 0
    endloop
  endfacet
  facet normal 1 -0 0
    outer loop
      vertex 162 -40 8
      vertex 162 2 0
      vertex 162 2 8
    endloop
  endfacet
  facet normal 1 0 0
    outer loop
      vertex 162 2 0
      vertex 162 -40 8
      vertex 162 -40 0
    endloop
  endfacet
  facet normal 0 1 -0
    outer loop
      vertex 162 2 0
      vertex -2 2 8
      vertex 162 2 8
    endloop
  endfacet
  facet normal 0 1 0
    outer loop
      vertex -2 2 8
      vertex 162 2 0
      vertex -2 2 0
    endloop
  endfacet
  facet normal 0 -1 0
    outer loop
      vertex 142.7 0 1.75
      vertex 144 0 3.5
      vertex 142 0 3.5
    endloop
  endfacet
  facet normal 0 -1 0
    outer loop
      vertex 144 0 3.5
      vertex 142.7 0 1.75
      vertex 143.3 0 1.75
    endloop
  endfacet
  facet normal 0 -1 0
    outer loop
      vertex 128.7 0 1.75
      vertex 130 0 3.5
      vertex 128 0 3.5
    endloop
  endfacet
  facet normal 0 -1 0
    outer loop
      vertex 130 0 3.5
      vertex 128.7 0 1.75
      vertex 129.3 0 1.75
    endloop
  endfacet
  facet normal 0 -1 0
    outer loop
      vertex 114.7 0 1.75
      vertex 116 0 3.5
      vertex 114 0 3.5
    endloop
  endfacet
  facet normal 0 -1 0
    outer loop
      vertex 116 0 3.5
      vertex 114.7 0 1.75
      vertex 115.3 0 1.75
    endloop
  endfacet
  facet normal 0 -1 0
    outer loop
      vertex 100.7 0 1.75
      vertex 102 0 3.5
      vertex 100 0 3.5
    endloop
  endfacet
  facet normal 0 -1 0
    outer loop
      vertex 102 0 3.5
      vertex 100.7 0 1.75
      vertex 101.3 0 1.75
    endloop
  endfacet
  facet normal 0 -1 0
    outer loop
      vertex 86.7 0 1.75
      vertex 88 0 3.5
      vertex 86 0 3.5
    endloop
  endfacet
  facet normal 0 -1 0
    outer loop
      vertex 88 0 3.5
      vertex 86.7 0 1.75
      vertex 87.3 0 1.75
    endloop
  endfacet
  facet normal 0 -1 0
    outer loop
      vertex 72.7 0 1.75
      vertex 74 0 3.5
      vertex 72 0 3.5
    endloop
  endfacet
  facet normal 0 -1 0
    outer loop
      vertex 74 0 3.5
      vertex 72.7 0 1.75
      vertex 73.3 0 1.75
    endloop
  endfacet
  facet normal 0 -1 0
    outer loop
      vertex 58.7 0 1.75
      vertex 60 0 3.5
      vertex 58 0 3.5
    endloop
  endfacet
  facet normal 0 -1 0
    outer loop
      vertex 60 0 3.5
      vertex 58.7 0 1.75
      vertex 59.3 0 1.75
    endloop
  endfacet
  facet normal 0 -1 0
    outer loop
      vertex 44.7 0 1.75
      vertex 46 0 3.5
      vertex 44 0 3.5
    endloop
  endfacet
  facet normal 0 -1 0
    outer loop
      vertex 46 0 3.5
      vertex 44.7 0 1.75
      vertex 45.3 0 1.75
    endloop
  endfacet
  facet normal 0 -1 0
    outer loop
      vertex 30.7 0 1.75
      vertex 32 0 3.5
      vertex 30 0 3.5
    endloop
  endfacet
  facet normal 0 -1 0
    outer loop
      vertex 32 0 3.5
      vertex 30.7 0 1.75
      vertex 31.3 0 1.75
    endloop
  endfacet
  facet normal 0 -1 0
    outer loop
      vertex 16.7 0 1.75
      vertex 18 0 3.5
      vertex 16 0 3.5
    endloop
  endfacet
  facet normal 0 -1 0
    outer loop
      vertex 18 0 3.5
      vertex 16.7 0 1.75
      vertex 17.3 0 1.75
    endloop
  endfacet
  facet normal 0 -1 0
    outer loop
      vertex 142 0 3.5
      vertex 136.3 0 4.5
      vertex 136.875 0 3.5
    endloop
  endfacet
  facet normal 0 -1 0
    outer loop
      vertex 136.3 0 4.5
      vertex 142 0 3.5
      vertex 149.7 0 4.5
    endloop
  endfacet
  facet normal 0 -1 0
    outer loop
      vertex 144 0 3.5
      vertex 149.7 0 4.5
      vertex 142 0 3.5
    endloop
  endfacet
  facet normal 0 -1 0
    outer loop
      vertex 149.7 0 4.5
      vertex 144 0 3.5
      vertex 149.125 0 3.5
    endloop
  endfacet
  facet normal 0 -1 0
    outer loop
      vertex 128 0 3.5
      vertex 122.3 0 4.5
      vertex 122.875 0 3.5
    endloop
  endfacet
  facet normal 0 -1 0
    outer loop
      vertex 122.3 0 4.5
      vertex 128 0 3.5
      vertex 135.7 0 4.5
    endloop
  endfacet
  facet normal 0 -1 0
    outer loop
      vertex 130 0 3.5
      vertex 135.7 0 4.5
      vertex 128 0 3.5
    endloop
  endfacet
  facet normal 0 -1 0
    outer loop
      vertex 135.7 0 4.5
      vertex 130 0 3.5
      vertex 135.125 0 3.5
    endloop
  endfacet
  facet normal 0 -1 0
    outer loop
      vertex 114 0 3.5
      vertex 108.3 0 4.5
      vertex 108.875 0 3.5
    endloop
  endfacet
  facet normal 0 -1 0
    outer loop
      vertex 108.3 0 4.5
      vertex 114 0 3.5
      vertex 121.7 0 4.5
    endloop
  endfacet
  facet normal 0 -1 0
    outer loop
      vertex 116 0 3.5
      vertex 121.7 0 4.5
      vertex 114 0 3.5
    endloop
  endfacet
  facet normal 0 -1 0
    outer loop
      vertex 121.7 0 4.5
      vertex 116 0 3.5
      vertex 121.125 0 3.5
    endloop
  endfacet
  facet normal 0 -1 0
    outer loop
      vertex 100 0 3.5
      vertex 94.3 0 4.5
      vertex 94.875 0 3.5
    endloop
  endfacet
  facet normal 0 -1 0
    outer loop
      vertex 94.3 0 4.5
      vertex 100 0 3.5
      vertex 107.7 0 4.5
    endloop
  endfacet
  facet normal 0 -1 0
    outer loop
      vertex 102 0 3.5
      vertex 107.7 0 4.5
      vertex 100 0 3.5
    endloop
  endfacet
  facet normal 0 -1 0
    outer loop
      vertex 107.7 0 4.5
      vertex 102 0 3.5
      vertex 107.125 0 3.5
    endloop
  endfacet
  facet normal 0 -1 0
    outer loop
      vertex 86 0 3.5
      vertex 80.3 0 4.5
      vertex 80.875 0 3.5
    endloop
  endfacet
  facet normal 0 -1 0
    outer loop
      vertex 80.3 0 4.5
      vertex 86 0 3.5
      vertex 93.7 0 4.5
    endloop
  endfacet
  facet normal 0 -1 0
    outer loop
      vertex 88 0 3.5
      vertex 93.7 0 4.5
      vertex 86 0 3.5
    endloop
  endfacet
  facet normal 0 -1 0
    outer loop
      vertex 93.7 0 4.5
      vertex 88 0 3.5
      vertex 93.125 0 3.5
    endloop
  endfacet
  facet normal 0 -1 0
    outer loop
      vertex 72 0 3.5
      vertex 66.3 0 4.5
      vertex 66.875 0 3.5
    endloop
  endfacet
  facet normal 0 -1 0
    outer loop
      vertex 66.3 0 4.5
      vertex 72 0 3.5
      vertex 79.7 0 4.5
    endloop
  endfacet
  facet normal 0 -1 0
    outer loop
      vertex 74 0 3.5
      vertex 79.7 0 4.5
      vertex 72 0 3.5
    endloop
  endfacet
  facet normal 0 -1 0
    outer loop
      vertex 79.7 0 4.5
      vertex 74 0 3.5
      vertex 79.125 0 3.5
    endloop
  endfacet
  facet normal 0 -1 0
    outer loop
      vertex 58 0 3.5
      vertex 52.3 0 4.5
      vertex 52.875 0 3.5
    endloop
  endfacet
  facet normal 0 -1 0
    outer loop
      vertex 52.3 0 4.5
      vertex 58 0 3.5
      vertex 65.7 0 4.5
    endloop
  endfacet
  facet normal 0 -1 0
    outer loop
      vertex 60 0 3.5
      vertex 65.7 0 4.5
      vertex 58 0 3.5
    endloop
  endfacet
  facet normal 0 -1 0
    outer loop
      vertex 65.7 0 4.5
      vertex 60 0 3.5
      vertex 65.125 0 3.5
    endloop
  endfacet
  facet normal 0 -1 0
    outer loop
      vertex 44 0 3.5
      vertex 38.3 0 4.5
      vertex 38.875 0 3.5
    endloop
  endfacet
  facet normal 0 -1 0
    outer loop
      vertex 38.3 0 4.5
      vertex 44 0 3.5
      vertex 51.7 0 4.5
    endloop
  endfacet
  facet normal 0 -1 0
    outer loop
      vertex 46 0 3.5
      vertex 51.7 0 4.5
      vertex 44 0 3.5
    endloop
  endfacet
  facet normal 0 -1 0
    outer loop
      vertex 51.7 0 4.5
      vertex 46 0 3.5
      vertex 51.125 0 3.5
    endloop
  endfacet
  facet normal 0 -1 0
    outer loop
      vertex 30 0 3.5
      vertex 24.3 0 4.5
      vertex 24.875 0 3.5
    endloop
  endfacet
  facet normal 0 -1 0
    outer loop
      vertex 24.3 0 4.5
      vertex 30 0 3.5
      vertex 37.7 0 4.5
    endloop
  endfacet
  facet normal 0 -1 0
    outer loop
      vertex 32 0 3.5
      vertex 37.7 0 4.5
      vertex 30 0 3.5
    endloop
  endfacet
  facet normal 0 -1 0
    outer loop
      vertex 37.7 0 4.5
      vertex 32 0 3.5
      vertex 37.125 0 3.5
    endloop
  endfacet
  facet normal 0 -1 0
    outer loop
      vertex 16 0 3.5
      vertex 10.3 0 4.5
      vertex 10.875 0 3.5
    endloop
  endfacet
  facet normal 0 -1 0
    outer loop
      vertex 10.3 0 4.5
      vertex 16 0 3.5
      vertex 23.7 0 4.5
    endloop
  endfacet
  facet normal 0 -1 0
    outer loop
      vertex 18 0 3.5
      vertex 23.7 0 4.5
      vertex 16 0 3.5
    endloop
  endfacet
  facet normal 0 -1 0
    outer loop
      vertex 23.7 0 4.5
      vertex 18 0 3.5
      vertex 23.125 0 3.5
    endloop
  endfacet
  facet normal 0 -1 0
    outer loop
      vertex 10.3 0 4.5
      vertex 0 0 8
      vertex 9.7 0 4.5
    endloop
  endfacet
  facet normal 0 -1 0
    outer loop
      vertex 9.125 0 3.5
      vertex 0 0 8
      vertex 0 0 3.5
    endloop
  endfacet
  facet normal 0 -1 0
    outer loop
      vertex 0 0 8
      vertex 9.125 0 3.5
      vertex 9.7 0 4.5
    endloop
  endfacet
  facet normal 0 -1 0
    outer loop
      vertex 23.7 0 4.5
      vertex 0 0 8
      vertex 10.3 0 4.5
    endloop
  endfacet
  facet normal 0 -1 0
    outer loop
      vertex 24.3 0 4.5
      vertex 0 0 8
      vertex 23.7 0 4.5
    endloop
  endfacet
  facet normal 0 -1 0
    outer loop
      vertex 37.7 0 4.5
      vertex 0 0 8
      vertex 24.3 0 4.5
    endloop
  endfacet
  facet normal 0 -1 0
    outer loop
      vertex 38.3 0 4.5
      vertex 0 0 8
      vertex 37.7 0 4.5
    endloop
  endfacet
  facet normal 0 -1 0
    outer loop
      vertex 51.7 0 4.5
      vertex 0 0 8
      vertex 38.3 0 4.5
    endloop
  endfacet
  facet normal 0 -1 0
    outer loop
      vertex 52.3 0 4.5
      vertex 0 0 8
      vertex 51.7 0 4.5
    endloop
  endfacet
  facet normal 0 -1 0
    outer loop
      vertex 65.7 0 4.5
      vertex 0 0 8
      vertex 52.3 0 4.5
    endloop
  endfacet
  facet normal 0 -1 0
    outer loop
      vertex 66.3 0 4.5
      vertex 0 0 8
      vertex 65.7 0 4.5
    endloop
  endfacet
  facet normal 0 -1 0
    outer loop
      vertex 0 0 8
      vertex 66.3 0 4.5
      vertex 160 0 8
    endloop
  endfacet
  facet normal 0 -1 0
    outer loop
      vertex 79.7 0 4.5
      vertex 160 0 8
      vertex 66.3 0 4.5
    endloop
  endfacet
  facet normal 0 -1 0
    outer loop
      vertex 80.3 0 4.5
      vertex 160 0 8
      vertex 79.7 0 4.5
    endloop
  endfacet
  facet normal 0 -1 0
    outer loop
      vertex 93.7 0 4.5
      vertex 160 0 8
      vertex 80.3 0 4.5
    endloop
  endfacet
  facet normal 0 -1 0
    outer loop
      vertex 94.3 0 4.5
      vertex 160 0 8
      vertex 93.7 0 4.5
    endloop
  endfacet
  facet normal 0 -1 0
    outer loop
      vertex 107.7 0 4.5
      vertex 160 0 8
      vertex 94.3 0 4.5
    endloop
  endfacet
  facet normal 0 -1 0
    outer loop
      vertex 108.3 0 4.5
      vertex 160 0 8
      vertex 107.7 0 4.5
    endloop
  endfacet
  facet normal 0 -1 0
    outer loop
      vertex 121.7 0 4.5
      vertex 160 0 8
      vertex 108.3 0 4.5
    endloop
  endfacet
  facet normal 0 -1 0
    outer loop
      vertex 122.3 0 4.5
      vertex 160 0 8
      vertex 121.7 0 4.5
    endloop
  endfacet
  facet normal 0 -1 0
    outer loop
      vertex 135.7 0 4.5
      vertex 160 0 8
      vertex 122.3 0 4.5
    endloop
  endfacet
  facet normal 0 -1 0
    outer loop
      vertex 136.3 0 4.5
      vertex 160 0 8
      vertex 135.7 0 4.5
    endloop
  endfacet
  facet normal 0 -1 0
    outer loop
      vertex 149.7 0 4.5
      vertex 160 0 8
      vertex 136.3 0 4.5
    endloop
  endfacet
  facet normal 0 -1 0
    outer loop
      vertex 150.3 0 4.5
      vertex 160 0 8
      vertex 149.7 0 4.5
    endloop
  endfacet
  facet normal 0 -1 0
    outer loop
      vertex 150.875 0 3.5
      vertex 160 0 8
      vertex 150.3 0 4.5
    endloop
  endfacet
  facet normal 0 -1 -0
    outer loop
      vertex 160 0 8
      vertex 150.875 0 3.5
      vertex 160 0 3.5
    endloop
  endfacet
endsolid OpenSCAD_Model
