solid OpenSCAD_Model
  facet normal 0 -1 0
    outer loop
      vertex -2 -150 8.5
      vertex 0 -150 4
      vertex 0 -150 8.5
    endloop
  endfacet
  facet normal 0 -1 0
    outer loop
      vertex -2 -150 0
      vertex 9.125 -150 4
      vertex 0 -150 4
    endloop
  endfacet
  facet normal -0 -1 0
    outer loop
      vertex 16.7 -150 2.25
      vertex 9.125 -150 4
      vertex -2 -150 0
    endloop
  endfacet
  facet normal 0 -1 0
    outer loop
      vertex 10.875 -150 4
      vertex 16.7 -150 2.25
      vertex 16 -150 4
    endloop
  endfacet
  facet normal 0 -1 0
    outer loop
      vertex -2 -150 0
      vertex 17.3 -150 2.25
      vertex 16.7 -150 2.25
    endloop
  endfacet
  facet normal 0 -1 -0
    outer loop
      vertex 17.3 -150 2.25
      vertex -2 -150 0
      vertex 30.7 -150 2.25
    endloop
  endfacet
  facet normal 0 -1 -0
    outer loop
      vertex 30.7 -150 2.25
      vertex -2 -150 0
      vertex 31.3 -150 2.25
    endloop
  endfacet
  facet normal 0 -1 -0
    outer loop
      vertex 31.3 -150 2.25
      vertex -2 -150 0
      vertex 44.7 -150 2.25
    endloop
  endfacet
  facet normal 0 -1 -0
    outer loop
      vertex 44.7 -150 2.25
      vertex -2 -150 0
      vertex 45.3 -150 2.25
    endloop
  endfacet
  facet normal 0 -1 -0
    outer loop
      vertex 45.3 -150 2.25
      vertex -2 -150 0
      vertex 58.7 -150 2.25
    endloop
  endfacet
  facet normal 0 -1 -0
    outer loop
      vertex 58.7 -150 2.25
      vertex -2 -150 0
      vertex 59.3 -150 2.25
    endloop
  endfacet
  facet normal 0 -1 -0
    outer loop
      vertex 59.3 -150 2.25
      vertex -2 -150 0
      vertex 72.7 -150 2.25
    endloop
  endfacet
  facet normal 0 -1 -0
    outer loop
      vertex 72.7 -150 2.25
      vertex -2 -150 0
      vertex 73.3 -150 2.25
    endloop
  endfacet
  facet normal 0 -1 -0
    outer loop
      vertex 73.3 -150 2.25
      vertex -2 -150 0
      vertex 86.7 -150 2.25
    endloop
  endfacet
  facet normal 0 -1 -0
    outer loop
      vertex 86.7 -150 2.25
      vertex -2 -150 0
      vertex 87.3 -150 2.25
    endloop
  endfacet
  facet normal 0 -1 0
    outer loop
      vertex 162 -150 0
      vertex 87.3 -150 2.25
      vertex -2 -150 0
    endloop
  endfacet
  facet normal 0 -1 0
    outer loop
      vertex 87.3 -150 2.25
      vertex 162 -150 0
      vertex 100.7 -150 2.25
    endloop
  endfacet
  facet normal 0 -1 0
    outer loop
      vertex 100.7 -150 2.25
      vertex 162 -150 0
      vertex 101.3 -150 2.25
    endloop
  endfacet
  facet normal 0 -1 0
    outer loop
      vertex 101.3 -150 2.25
      vertex 162 -150 0
      vertex 114.7 -150 2.25
    endloop
  endfacet
  facet normal 0 -1 0
    outer loop
      vertex 114.7 -150 2.25
      vertex 162 -150 0
      vertex 115.3 -150 2.25
    endloop
  endfacet
  facet normal 0 -1 0
    outer loop
      vertex 115.3 -150 2.25
      vertex 162 -150 0
      vertex 128.7 -150 2.25
    endloop
  endfacet
  facet normal 0 -1 0
    outer loop
      vertex 128.7 -150 2.25
      vertex 162 -150 0
      vertex 129.3 -150 2.25
    endloop
  endfacet
  facet normal 0 -1 0
    outer loop
      vertex 129.3 -150 2.25
      vertex 162 -150 0
      vertex 142.7 -150 2.25
    endloop
  endfacet
  facet normal 0 -1 0
    outer loop
      vertex 9.125 -150 4
      vertex 16.7 -150 2.25
      vertex 10.875 -150 4
    endloop
  endfacet
  facet normal 0 -1 0
    outer loop
      vertex -2 -150 0
      vertex 0 -150 4
      vertex -2 -150 8.5
    endloop
  endfacet
  facet normal 0 -1 0
    outer loop
      vertex 9.125 -150 4
      vertex 10.3 -150 5
      vertex 9.7 -150 5
    endloop
  endfacet
  facet normal 0 -1 -0
    outer loop
      vertex 10.3 -150 5
      vertex 9.125 -150 4
      vertex 10.875 -150 4
    endloop
  endfacet
  facet normal 0 -1 0
    outer loop
      vertex 17.3 -150 2.25
      vertex 23.125 -150 4
      vertex 18 -150 4
    endloop
  endfacet
  facet normal 0 -1 -0
    outer loop
      vertex 23.125 -150 4
      vertex 17.3 -150 2.25
      vertex 24.875 -150 4
    endloop
  endfacet
  facet normal 0 -1 0
    outer loop
      vertex 30.7 -150 2.25
      vertex 24.875 -150 4
      vertex 17.3 -150 2.25
    endloop
  endfacet
  facet normal 0 -1 0
    outer loop
      vertex 24.875 -150 4
      vertex 30.7 -150 2.25
      vertex 30 -150 4
    endloop
  endfacet
  facet normal 0 -1 0
    outer loop
      vertex 23.125 -150 4
      vertex 24.3 -150 5
      vertex 23.7 -150 5
    endloop
  endfacet
  facet normal 0 -1 -0
    outer loop
      vertex 24.3 -150 5
      vertex 23.125 -150 4
      vertex 24.875 -150 4
    endloop
  endfacet
  facet normal 0 -1 0
    outer loop
      vertex 31.3 -150 2.25
      vertex 37.125 -150 4
      vertex 32 -150 4
    endloop
  endfacet
  facet normal 0 -1 -0
    outer loop
      vertex 37.125 -150 4
      vertex 31.3 -150 2.25
      vertex 38.875 -150 4
    endloop
  endfacet
  facet normal 0 -1 0
    outer loop
      vertex 44.7 -150 2.25
      vertex 38.875 -150 4
      vertex 31.3 -150 2.25
    endloop
  endfacet
  facet normal 0 -1 0
    outer loop
      vertex 38.875 -150 4
      vertex 44.7 -150 2.25
      vertex 44 -150 4
    endloop
  endfacet
  facet normal 0 -1 0
    outer loop
      vertex 37.125 -150 4
      vertex 38.3 -150 5
      vertex 37.7 -150 5
    endloop
  endfacet
  facet normal 0 -1 -0
    outer loop
      vertex 38.3 -150 5
      vertex 37.125 -150 4
      vertex 38.875 -150 4
    endloop
  endfacet
  facet normal 0 -1 0
    outer loop
      vertex 45.3 -150 2.25
      vertex 51.125 -150 4
      vertex 46 -150 4
    endloop
  endfacet
  facet normal 0 -1 -0
    outer loop
      vertex 51.125 -150 4
      vertex 45.3 -150 2.25
      vertex 52.875 -150 4
    endloop
  endfacet
  facet normal 0 -1 0
    outer loop
      vertex 58.7 -150 2.25
      vertex 52.875 -150 4
      vertex 45.3 -150 2.25
    endloop
  endfacet
  facet normal 0 -1 0
    outer loop
      vertex 52.875 -150 4
      vertex 58.7 -150 2.25
      vertex 58 -150 4
    endloop
  endfacet
  facet normal 0 -1 0
    outer loop
      vertex 51.125 -150 4
      vertex 52.3 -150 5
      vertex 51.7 -150 5
    endloop
  endfacet
  facet normal 0 -1 -0
    outer loop
      vertex 52.3 -150 5
      vertex 51.125 -150 4
      vertex 52.875 -150 4
    endloop
  endfacet
  facet normal 0 -1 0
    outer loop
      vertex 59.3 -150 2.25
      vertex 65.125 -150 4
      vertex 60 -150 4
    endloop
  endfacet
  facet normal 0 -1 -0
    outer loop
      vertex 65.125 -150 4
      vertex 59.3 -150 2.25
      vertex 66.875 -150 4
    endloop
  endfacet
  facet normal 0 -1 0
    outer loop
      vertex 72.7 -150 2.25
      vertex 66.875 -150 4
      vertex 59.3 -150 2.25
    endloop
  endfacet
  facet normal 0 -1 0
    outer loop
      vertex 66.875 -150 4
      vertex 72.7 -150 2.25
      vertex 72 -150 4
    endloop
  endfacet
  facet normal 0 -1 0
    outer loop
      vertex 65.125 -150 4
      vertex 66.3 -150 5
      vertex 65.7 -150 5
    endloop
  endfacet
  facet normal 0 -1 -0
    outer loop
      vertex 66.3 -150 5
      vertex 65.125 -150 4
      vertex 66.875 -150 4
    endloop
  endfacet
  facet normal 0 -1 0
    outer loop
      vertex 73.3 -150 2.25
      vertex 79.125 -150 4
      vertex 74 -150 4
    endloop
  endfacet
  facet normal 0 -1 -0
    outer loop
      vertex 79.125 -150 4
      vertex 73.3 -150 2.25
      vertex 80.875 -150 4
    endloop
  endfacet
  facet normal 0 -1 0
    outer loop
      vertex 86.7 -150 2.25
      vertex 80.875 -150 4
      vertex 73.3 -150 2.25
    endloop
  endfacet
  facet normal 0 -1 0
    outer loop
      vertex 80.875 -150 4
      vertex 86.7 -150 2.25
      vertex 86 -150 4
    endloop
  endfacet
  facet normal 0 -1 0
    outer loop
      vertex 79.125 -150 4
      vertex 80.3 -150 5
      vertex 79.7 -150 5
    endloop
  endfacet
  facet normal 0 -1 -0
    outer loop
      vertex 80.3 -150 5
      vertex 79.125 -150 4
      vertex 80.875 -150 4
    endloop
  endfacet
  facet normal 0 -1 0
    outer loop
      vertex 87.3 -150 2.25
      vertex 93.125 -150 4
      vertex 88 -150 4
    endloop
  endfacet
  facet normal 0 -1 -0
    outer loop
      vertex 93.125 -150 4
      vertex 87.3 -150 2.25
      vertex 94.875 -150 4
    endloop
  endfacet
  facet normal 0 -1 0
    outer loop
      vertex 100.7 -150 2.25
      vertex 94.875 -150 4
      vertex 87.3 -150 2.25
    endloop
  endfacet
  facet normal 0 -1 0
    outer loop
      vertex 94.875 -150 4
      vertex 100.7 -150 2.25
      vertex 100 -150 4
    endloop
  endfacet
  facet normal 0 -1 0
    outer loop
      vertex 93.125 -150 4
      vertex 94.3 -150 5
      vertex 93.7 -150 5
    endloop
  endfacet
  facet normal 0 -1 -0
    outer loop
      vertex 94.3 -150 5
      vertex 93.125 -150 4
      vertex 94.875 -150 4
    endloop
  endfacet
  facet normal 0 -1 0
    outer loop
      vertex 101.3 -150 2.25
      vertex 107.125 -150 4
      vertex 102 -150 4
    endloop
  endfacet
  facet normal 0 -1 -0
    outer loop
      vertex 107.125 -150 4
      vertex 101.3 -150 2.25
      vertex 108.875 -150 4
    endloop
  endfacet
  facet normal 0 -1 0
    outer loop
      vertex 114.7 -150 2.25
      vertex 108.875 -150 4
      vertex 101.3 -150 2.25
    endloop
  endfacet
  facet normal 0 -1 0
    outer loop
      vertex 108.875 -150 4
      vertex 114.7 -150 2.25
      vertex 114 -150 4
    endloop
  endfacet
  facet normal 0 -1 0
    outer loop
      vertex 107.125 -150 4
      vertex 108.3 -150 5
      vertex 107.7 -150 5
    endloop
  endfacet
  facet normal 0 -1 -0
    outer loop
      vertex 108.3 -150 5
      vertex 107.125 -150 4
      vertex 108.875 -150 4
    endloop
  endfacet
  facet normal 0 -1 0
    outer loop
      vertex 115.3 -150 2.25
      vertex 121.125 -150 4
      vertex 116 -150 4
    endloop
  endfacet
  facet normal 0 -1 -0
    outer loop
      vertex 121.125 -150 4
      vertex 115.3 -150 2.25
      vertex 122.875 -150 4
    endloop
  endfacet
  facet normal 0 -1 0
    outer loop
      vertex 128.7 -150 2.25
      vertex 122.875 -150 4
      vertex 115.3 -150 2.25
    endloop
  endfacet
  facet normal 0 -1 0
    outer loop
      vertex 122.875 -150 4
      vertex 128.7 -150 2.25
      vertex 128 -150 4
    endloop
  endfacet
  facet normal 0 -1 0
    outer loop
      vertex 121.125 -150 4
      vertex 122.3 -150 5
      vertex 121.7 -150 5
    endloop
  endfacet
  facet normal 0 -1 -0
    outer loop
      vertex 122.3 -150 5
      vertex 121.125 -150 4
      vertex 122.875 -150 4
    endloop
  endfacet
  facet normal 0 -1 0
    outer loop
      vertex 129.3 -150 2.25
      vertex 135.125 -150 4
      vertex 130 -150 4
    endloop
  endfacet
  facet normal 0 -1 -0
    outer loop
      vertex 135.125 -150 4
      vertex 129.3 -150 2.25
      vertex 136.875 -150 4
    endloop
  endfacet
  facet normal 0 -1 0
    outer loop
      vertex 142.7 -150 2.25
      vertex 136.875 -150 4
      vertex 129.3 -150 2.25
    endloop
  endfacet
  facet normal 0 -1 0
    outer loop
      vertex 136.875 -150 4
      vertex 142.7 -150 2.25
      vertex 142 -150 4
    endloop
  endfacet
  facet normal 0 -1 0
    outer loop
      vertex 135.125 -150 4
      vertex 136.3 -150 5
      vertex 135.7 -150 5
    endloop
  endfacet
  facet normal 0 -1 -0
    outer loop
      vertex 136.3 -150 5
      vertex 135.125 -150 4
      vertex 136.875 -150 4
    endloop
  endfacet
  facet normal 0 -1 0
    outer loop
      vertex 143.3 -150 2.25
      vertex 149.125 -150 4
      vertex 144 -150 4
    endloop
  endfacet
  facet normal 0 -1 -0
    outer loop
      vertex 149.125 -150 4
      vertex 143.3 -150 2.25
      vertex 150.875 -150 4
    endloop
  endfacet
  facet normal 0 -1 0
    outer loop
      vertex 162 -150 0
      vertex 150.875 -150 4
      vertex 143.3 -150 2.25
    endloop
  endfacet
  facet normal 0 -1 0
    outer loop
      vertex 149.125 -150 4
      vertex 150.3 -150 5
      vertex 149.7 -150 5
    endloop
  endfacet
  facet normal 0 -1 -0
    outer loop
      vertex 150.3 -150 5
      vertex 149.125 -150 4
      vertex 150.875 -150 4
    endloop
  endfacet
  facet normal 0 -1 0
    outer loop
      vertex 160 -150 4
      vertex 162 -150 8.5
      vertex 160 -150 8.5
    endloop
  endfacet
  facet normal 0 -1 0
    outer loop
      vertex 160 -150 4
      vertex 162 -150 0
      vertex 162 -150 8.5
    endloop
  endfacet
  facet normal 0 -1 0
    outer loop
      vertex 150.875 -150 4
      vertex 162 -150 0
      vertex 160 -150 4
    endloop
  endfacet
  facet normal 0 -1 0
    outer loop
      vertex 142.7 -150 2.25
      vertex 162 -150 0
      vertex 143.3 -150 2.25
    endloop
  endfacet
  facet normal 0 0 1
    outer loop
      vertex 162 2 8.5
      vertex 160 0 8.5
      vertex 162 -150 8.5
    endloop
  endfacet
  facet normal 0 0 1
    outer loop
      vertex 162 2 8.5
      vertex 0 0 8.5
      vertex 160 0 8.5
    endloop
  endfacet
  facet normal -0 0 1
    outer loop
      vertex -2 2 8.5
      vertex 0 0 8.5
      vertex 162 2 8.5
    endloop
  endfacet
  facet normal 0 0 1
    outer loop
      vertex -2 -150 8.5
      vertex 0 0 8.5
      vertex -2 2 8.5
    endloop
  endfacet
  facet normal 0 0 1
    outer loop
      vertex 0 0 8.5
      vertex -2 -150 8.5
      vertex 0 -150 8.5
    endloop
  endfacet
  facet normal 0 0 1
    outer loop
      vertex 162 -150 8.5
      vertex 160 0 8.5
      vertex 160 -150 8.5
    endloop
  endfacet
  facet normal -1 0 0
    outer loop
      vertex 160 -150 4
      vertex 160 0 8.5
      vertex 160 0 4
    endloop
  endfacet
  facet normal -1 -0 0
    outer loop
      vertex 160 0 8.5
      vertex 160 -150 4
      vertex 160 -150 8.5
    endloop
  endfacet
  facet normal -0 0 1
    outer loop
      vertex 150.875 0 4
      vertex 160 -150 4
      vertex 160 0 4
    endloop
  endfacet
  facet normal 0 0 1
    outer loop
      vertex 160 -150 4
      vertex 150.875 0 4
      vertex 150.875 -150 4
    endloop
  endfacet
  facet normal 0.866906 -0 0.498471
    outer loop
      vertex 150.3 -150 5
      vertex 150.875 0 4
      vertex 150.3 0 5
    endloop
  endfacet
  facet normal 0.866906 0 0.498471
    outer loop
      vertex 150.875 0 4
      vertex 150.3 -150 5
      vertex 150.875 -150 4
    endloop
  endfacet
  facet normal -0 0 1
    outer loop
      vertex 149.7 0 5
      vertex 150.3 -150 5
      vertex 150.3 0 5
    endloop
  endfacet
  facet normal 0 0 1
    outer loop
      vertex 150.3 -150 5
      vertex 149.7 0 5
      vertex 149.7 -150 5
    endloop
  endfacet
  facet normal -0.866906 0 0.498471
    outer loop
      vertex 149.125 -150 4
      vertex 149.7 0 5
      vertex 149.125 0 4
    endloop
  endfacet
  facet normal -0.866906 0 0.498471
    outer loop
      vertex 149.7 0 5
      vertex 149.125 -150 4
      vertex 149.7 -150 5
    endloop
  endfacet
  facet normal -0 0 1
    outer loop
      vertex 144 0 4
      vertex 149.125 -150 4
      vertex 149.125 0 4
    endloop
  endfacet
  facet normal 0 0 1
    outer loop
      vertex 149.125 -150 4
      vertex 144 0 4
      vertex 144 -150 4
    endloop
  endfacet
  facet normal -0.928477 0 0.371391
    outer loop
      vertex 143.3 -150 2.25
      vertex 144 0 4
      vertex 143.3 0 2.25
    endloop
  endfacet
  facet normal -0.928477 0 0.371391
    outer loop
      vertex 144 0 4
      vertex 143.3 -150 2.25
      vertex 144 -150 4
    endloop
  endfacet
  facet normal -0 0 1
    outer loop
      vertex 142.7 0 2.25
      vertex 143.3 -150 2.25
      vertex 143.3 0 2.25
    endloop
  endfacet
  facet normal 0 0 1
    outer loop
      vertex 143.3 -150 2.25
      vertex 142.7 0 2.25
      vertex 142.7 -150 2.25
    endloop
  endfacet
  facet normal 0.928477 -0 0.371391
    outer loop
      vertex 142 -150 4
      vertex 142.7 0 2.25
      vertex 142 0 4
    endloop
  endfacet
  facet normal 0.928477 0 0.371391
    outer loop
      vertex 142.7 0 2.25
      vertex 142 -150 4
      vertex 142.7 -150 2.25
    endloop
  endfacet
  facet normal -0 0 1
    outer loop
      vertex 136.875 0 4
      vertex 142 -150 4
      vertex 142 0 4
    endloop
  endfacet
  facet normal 0 0 1
    outer loop
      vertex 142 -150 4
      vertex 136.875 0 4
      vertex 136.875 -150 4
    endloop
  endfacet
  facet normal 0.866906 -0 0.498471
    outer loop
      vertex 136.3 -150 5
      vertex 136.875 0 4
      vertex 136.3 0 5
    endloop
  endfacet
  facet normal 0.866906 0 0.498471
    outer loop
      vertex 136.875 0 4
      vertex 136.3 -150 5
      vertex 136.875 -150 4
    endloop
  endfacet
  facet normal -0 0 1
    outer loop
      vertex 135.7 0 5
      vertex 136.3 -150 5
      vertex 136.3 0 5
    endloop
  endfacet
  facet normal 0 0 1
    outer loop
      vertex 136.3 -150 5
      vertex 135.7 0 5
      vertex 135.7 -150 5
    endloop
  endfacet
  facet normal -0.866906 0 0.498471
    outer loop
      vertex 135.125 -150 4
      vertex 135.7 0 5
      vertex 135.125 0 4
    endloop
  endfacet
  facet normal -0.866906 0 0.498471
    outer loop
      vertex 135.7 0 5
      vertex 135.125 -150 4
      vertex 135.7 -150 5
    endloop
  endfacet
  facet normal -0 0 1
    outer loop
      vertex 130 0 4
      vertex 135.125 -150 4
      vertex 135.125 0 4
    endloop
  endfacet
  facet normal 0 0 1
    outer loop
      vertex 135.125 -150 4
      vertex 130 0 4
      vertex 130 -150 4
    endloop
  endfacet
  facet normal -0.928477 0 0.371391
    outer loop
      vertex 129.3 -150 2.25
      vertex 130 0 4
      vertex 129.3 0 2.25
    endloop
  endfacet
  facet normal -0.928477 0 0.371391
    outer loop
      vertex 130 0 4
      vertex 129.3 -150 2.25
      vertex 130 -150 4
    endloop
  endfacet
  facet normal -0 0 1
    outer loop
      vertex 128.7 0 2.25
      vertex 129.3 -150 2.25
      vertex 129.3 0 2.25
    endloop
  endfacet
  facet normal 0 0 1
    outer loop
      vertex 129.3 -150 2.25
      vertex 128.7 0 2.25
      vertex 128.7 -150 2.25
    endloop
  endfacet
  facet normal 0.928477 -0 0.371391
    outer loop
      vertex 128 -150 4
      vertex 128.7 0 2.25
      vertex 128 0 4
    endloop
  endfacet
  facet normal 0.928477 0 0.371391
    outer loop
      vertex 128.7 0 2.25
      vertex 128 -150 4
      vertex 128.7 -150 2.25
    endloop
  endfacet
  facet normal -0 0 1
    outer loop
      vertex 122.875 0 4
      vertex 128 -150 4
      vertex 128 0 4
    endloop
  endfacet
  facet normal 0 0 1
    outer loop
      vertex 128 -150 4
      vertex 122.875 0 4
      vertex 122.875 -150 4
    endloop
  endfacet
  facet normal 0.866906 -0 0.498471
    outer loop
      vertex 122.3 -150 5
      vertex 122.875 0 4
      vertex 122.3 0 5
    endloop
  endfacet
  facet normal 0.866906 0 0.498471
    outer loop
      vertex 122.875 0 4
      vertex 122.3 -150 5
      vertex 122.875 -150 4
    endloop
  endfacet
  facet normal -0 0 1
    outer loop
      vertex 121.7 0 5
      vertex 122.3 -150 5
      vertex 122.3 0 5
    endloop
  endfacet
  facet normal 0 0 1
    outer loop
      vertex 122.3 -150 5
      vertex 121.7 0 5
      vertex 121.7 -150 5
    endloop
  endfacet
  facet normal -0.866906 0 0.498471
    outer loop
      vertex 121.125 -150 4
      vertex 121.7 0 5
      vertex 121.125 0 4
    endloop
  endfacet
  facet normal -0.866906 0 0.498471
    outer loop
      vertex 121.7 0 5
      vertex 121.125 -150 4
      vertex 121.7 -150 5
    endloop
  endfacet
  facet normal -0 0 1
    outer loop
      vertex 116 0 4
      vertex 121.125 -150 4
      vertex 121.125 0 4
    endloop
  endfacet
  facet normal 0 0 1
    outer loop
      vertex 121.125 -150 4
      vertex 116 0 4
      vertex 116 -150 4
    endloop
  endfacet
  facet normal -0.928477 0 0.371391
    outer loop
      vertex 115.3 -150 2.25
      vertex 116 0 4
      vertex 115.3 0 2.25
    endloop
  endfacet
  facet normal -0.928477 0 0.371391
    outer loop
      vertex 116 0 4
      vertex 115.3 -150 2.25
      vertex 116 -150 4
    endloop
  endfacet
  facet normal -0 0 1
    outer loop
      vertex 114.7 0 2.25
      vertex 115.3 -150 2.25
      vertex 115.3 0 2.25
    endloop
  endfacet
  facet normal 0 0 1
    outer loop
      vertex 115.3 -150 2.25
      vertex 114.7 0 2.25
      vertex 114.7 -150 2.25
    endloop
  endfacet
  facet normal 0.928477 -0 0.371391
    outer loop
      vertex 114 -150 4
      vertex 114.7 0 2.25
      vertex 114 0 4
    endloop
  endfacet
  facet normal 0.928477 0 0.371391
    outer loop
      vertex 114.7 0 2.25
      vertex 114 -150 4
      vertex 114.7 -150 2.25
    endloop
  endfacet
  facet normal -0 0 1
    outer loop
      vertex 108.875 0 4
      vertex 114 -150 4
      vertex 114 0 4
    endloop
  endfacet
  facet normal 0 0 1
    outer loop
      vertex 114 -150 4
      vertex 108.875 0 4
      vertex 108.875 -150 4
    endloop
  endfacet
  facet normal 0.866906 -0 0.498471
    outer loop
      vertex 108.3 -150 5
      vertex 108.875 0 4
      vertex 108.3 0 5
    endloop
  endfacet
  facet normal 0.866906 0 0.498471
    outer loop
      vertex 108.875 0 4
      vertex 108.3 -150 5
      vertex 108.875 -150 4
    endloop
  endfacet
  facet normal -0 0 1
    outer loop
      vertex 107.7 0 5
      vertex 108.3 -150 5
      vertex 108.3 0 5
    endloop
  endfacet
  facet normal 0 0 1
    outer loop
      vertex 108.3 -150 5
      vertex 107.7 0 5
      vertex 107.7 -150 5
    endloop
  endfacet
  facet normal -0.866906 0 0.498471
    outer loop
      vertex 107.125 -150 4
      vertex 107.7 0 5
      vertex 107.125 0 4
    endloop
  endfacet
  facet normal -0.866906 0 0.498471
    outer loop
      vertex 107.7 0 5
      vertex 107.125 -150 4
      vertex 107.7 -150 5
    endloop
  endfacet
  facet normal -0 0 1
    outer loop
      vertex 102 0 4
      vertex 107.125 -150 4
      vertex 107.125 0 4
    endloop
  endfacet
  facet normal 0 0 1
    outer loop
      vertex 107.125 -150 4
      vertex 102 0 4
      vertex 102 -150 4
    endloop
  endfacet
  facet normal -0.928477 0 0.371391
    outer loop
      vertex 101.3 -150 2.25
      vertex 102 0 4
      vertex 101.3 0 2.25
    endloop
  endfacet
  facet normal -0.928477 0 0.371391
    outer loop
      vertex 102 0 4
      vertex 101.3 -150 2.25
      vertex 102 -150 4
    endloop
  endfacet
  facet normal -0 0 1
    outer loop
      vertex 100.7 0 2.25
      vertex 101.3 -150 2.25
      vertex 101.3 0 2.25
    endloop
  endfacet
  facet normal 0 0 1
    outer loop
      vertex 101.3 -150 2.25
      vertex 100.7 0 2.25
      vertex 100.7 -150 2.25
    endloop
  endfacet
  facet normal 0.928477 -0 0.371391
    outer loop
      vertex 100 -150 4
      vertex 100.7 0 2.25
      vertex 100 0 4
    endloop
  endfacet
  facet normal 0.928477 0 0.371391
    outer loop
      vertex 100.7 0 2.25
      vertex 100 -150 4
      vertex 100.7 -150 2.25
    endloop
  endfacet
  facet normal -0 0 1
    outer loop
      vertex 94.875 0 4
      vertex 100 -150 4
      vertex 100 0 4
    endloop
  endfacet
  facet normal 0 0 1
    outer loop
      vertex 100 -150 4
      vertex 94.875 0 4
      vertex 94.875 -150 4
    endloop
  endfacet
  facet normal 0.866906 -0 0.498471
    outer loop
      vertex 94.3 -150 5
      vertex 94.875 0 4
      vertex 94.3 0 5
    endloop
  endfacet
  facet normal 0.866906 0 0.498471
    outer loop
      vertex 94.875 0 4
      vertex 94.3 -150 5
      vertex 94.875 -150 4
    endloop
  endfacet
  facet normal -0 0 1
    outer loop
      vertex 93.7 0 5
      vertex 94.3 -150 5
      vertex 94.3 0 5
    endloop
  endfacet
  facet normal 0 0 1
    outer loop
      vertex 94.3 -150 5
      vertex 93.7 0 5
      vertex 93.7 -150 5
    endloop
  endfacet
  facet normal -0.866906 0 0.498471
    outer loop
      vertex 93.125 -150 4
      vertex 93.7 0 5
      vertex 93.125 0 4
    endloop
  endfacet
  facet normal -0.866906 0 0.498471
    outer loop
      vertex 93.7 0 5
      vertex 93.125 -150 4
      vertex 93.7 -150 5
    endloop
  endfacet
  facet normal -0 0 1
    outer loop
      vertex 88 0 4
      vertex 93.125 -150 4
      vertex 93.125 0 4
    endloop
  endfacet
  facet normal 0 0 1
    outer loop
      vertex 93.125 -150 4
      vertex 88 0 4
      vertex 88 -150 4
    endloop
  endfacet
  facet normal -0.928477 0 0.371391
    outer loop
      vertex 87.3 -150 2.25
      vertex 88 0 4
      vertex 87.3 0 2.25
    endloop
  endfacet
  facet normal -0.928477 0 0.371391
    outer loop
      vertex 88 0 4
      vertex 87.3 -150 2.25
      vertex 88 -150 4
    endloop
  endfacet
  facet normal -0 0 1
    outer loop
      vertex 86.7 0 2.25
      vertex 87.3 -150 2.25
      vertex 87.3 0 2.25
    endloop
  endfacet
  facet normal 0 0 1
    outer loop
      vertex 87.3 -150 2.25
      vertex 86.7 0 2.25
      vertex 86.7 -150 2.25
    endloop
  endfacet
  facet normal 0.928477 -0 0.371391
    outer loop
      vertex 86 -150 4
      vertex 86.7 0 2.25
      vertex 86 0 4
    endloop
  endfacet
  facet normal 0.928477 0 0.371391
    outer loop
      vertex 86.7 0 2.25
      vertex 86 -150 4
      vertex 86.7 -150 2.25
    endloop
  endfacet
  facet normal -0 0 1
    outer loop
      vertex 80.875 0 4
      vertex 86 -150 4
      vertex 86 0 4
    endloop
  endfacet
  facet normal 0 0 1
    outer loop
      vertex 86 -150 4
      vertex 80.875 0 4
      vertex 80.875 -150 4
    endloop
  endfacet
  facet normal 0.866906 -0 0.498471
    outer loop
      vertex 80.3 -150 5
      vertex 80.875 0 4
      vertex 80.3 0 5
    endloop
  endfacet
  facet normal 0.866906 0 0.498471
    outer loop
      vertex 80.875 0 4
      vertex 80.3 -150 5
      vertex 80.875 -150 4
    endloop
  endfacet
  facet normal -0 0 1
    outer loop
      vertex 79.7 0 5
      vertex 80.3 -150 5
      vertex 80.3 0 5
    endloop
  endfacet
  facet normal 0 0 1
    outer loop
      vertex 80.3 -150 5
      vertex 79.7 0 5
      vertex 79.7 -150 5
    endloop
  endfacet
  facet normal -0.866906 0 0.498471
    outer loop
      vertex 79.125 -150 4
      vertex 79.7 0 5
      vertex 79.125 0 4
    endloop
  endfacet
  facet normal -0.866906 0 0.498471
    outer loop
      vertex 79.7 0 5
      vertex 79.125 -150 4
      vertex 79.7 -150 5
    endloop
  endfacet
  facet normal -0 0 1
    outer loop
      vertex 74 0 4
      vertex 79.125 -150 4
      vertex 79.125 0 4
    endloop
  endfacet
  facet normal 0 0 1
    outer loop
      vertex 79.125 -150 4
      vertex 74 0 4
      vertex 74 -150 4
    endloop
  endfacet
  facet normal -0.928477 0 0.371391
    outer loop
      vertex 73.3 -150 2.25
      vertex 74 0 4
      vertex 73.3 0 2.25
    endloop
  endfacet
  facet normal -0.928477 0 0.371391
    outer loop
      vertex 74 0 4
      vertex 73.3 -150 2.25
      vertex 74 -150 4
    endloop
  endfacet
  facet normal -0 0 1
    outer loop
      vertex 72.7 0 2.25
      vertex 73.3 -150 2.25
      vertex 73.3 0 2.25
    endloop
  endfacet
  facet normal 0 0 1
    outer loop
      vertex 73.3 -150 2.25
      vertex 72.7 0 2.25
      vertex 72.7 -150 2.25
    endloop
  endfacet
  facet normal 0.928477 -0 0.371391
    outer loop
      vertex 72 -150 4
      vertex 72.7 0 2.25
      vertex 72 0 4
    endloop
  endfacet
  facet normal 0.928477 0 0.371391
    outer loop
      vertex 72.7 0 2.25
      vertex 72 -150 4
      vertex 72.7 -150 2.25
    endloop
  endfacet
  facet normal -0 0 1
    outer loop
      vertex 66.875 0 4
      vertex 72 -150 4
      vertex 72 0 4
    endloop
  endfacet
  facet normal 0 0 1
    outer loop
      vertex 72 -150 4
      vertex 66.875 0 4
      vertex 66.875 -150 4
    endloop
  endfacet
  facet normal 0.866906 -0 0.498471
    outer loop
      vertex 66.3 -150 5
      vertex 66.875 0 4
      vertex 66.3 0 5
    endloop
  endfacet
  facet normal 0.866906 0 0.498471
    outer loop
      vertex 66.875 0 4
      vertex 66.3 -150 5
      vertex 66.875 -150 4
    endloop
  endfacet
  facet normal -0 0 1
    outer loop
      vertex 65.7 0 5
      vertex 66.3 -150 5
      vertex 66.3 0 5
    endloop
  endfacet
  facet normal 0 0 1
    outer loop
      vertex 66.3 -150 5
      vertex 65.7 0 5
      vertex 65.7 -150 5
    endloop
  endfacet
  facet normal -0.866906 0 0.498471
    outer loop
      vertex 65.125 -150 4
      vertex 65.7 0 5
      vertex 65.125 0 4
    endloop
  endfacet
  facet normal -0.866906 0 0.498471
    outer loop
      vertex 65.7 0 5
      vertex 65.125 -150 4
      vertex 65.7 -150 5
    endloop
  endfacet
  facet normal -0 0 1
    outer loop
      vertex 60 0 4
      vertex 65.125 -150 4
      vertex 65.125 0 4
    endloop
  endfacet
  facet normal 0 0 1
    outer loop
      vertex 65.125 -150 4
      vertex 60 0 4
      vertex 60 -150 4
    endloop
  endfacet
  facet normal -0.928477 0 0.371391
    outer loop
      vertex 59.3 -150 2.25
      vertex 60 0 4
      vertex 59.3 0 2.25
    endloop
  endfacet
  facet normal -0.928477 0 0.371391
    outer loop
      vertex 60 0 4
      vertex 59.3 -150 2.25
      vertex 60 -150 4
    endloop
  endfacet
  facet normal -0 0 1
    outer loop
      vertex 58.7 0 2.25
      vertex 59.3 -150 2.25
      vertex 59.3 0 2.25
    endloop
  endfacet
  facet normal 0 0 1
    outer loop
      vertex 59.3 -150 2.25
      vertex 58.7 0 2.25
      vertex 58.7 -150 2.25
    endloop
  endfacet
  facet normal 0.928477 -0 0.371391
    outer loop
      vertex 58 -150 4
      vertex 58.7 0 2.25
      vertex 58 0 4
    endloop
  endfacet
  facet normal 0.928477 0 0.371391
    outer loop
      vertex 58.7 0 2.25
      vertex 58 -150 4
      vertex 58.7 -150 2.25
    endloop
  endfacet
  facet normal -0 0 1
    outer loop
      vertex 52.875 0 4
      vertex 58 -150 4
      vertex 58 0 4
    endloop
  endfacet
  facet normal 0 0 1
    outer loop
      vertex 58 -150 4
      vertex 52.875 0 4
      vertex 52.875 -150 4
    endloop
  endfacet
  facet normal 0.866906 -0 0.498471
    outer loop
      vertex 52.3 -150 5
      vertex 52.875 0 4
      vertex 52.3 0 5
    endloop
  endfacet
  facet normal 0.866906 0 0.498471
    outer loop
      vertex 52.875 0 4
      vertex 52.3 -150 5
      vertex 52.875 -150 4
    endloop
  endfacet
  facet normal -0 0 1
    outer loop
      vertex 51.7 0 5
      vertex 52.3 -150 5
      vertex 52.3 0 5
    endloop
  endfacet
  facet normal 0 0 1
    outer loop
      vertex 52.3 -150 5
      vertex 51.7 0 5
      vertex 51.7 -150 5
    endloop
  endfacet
  facet normal -0.866906 0 0.498471
    outer loop
      vertex 51.125 -150 4
      vertex 51.7 0 5
      vertex 51.125 0 4
    endloop
  endfacet
  facet normal -0.866906 0 0.498471
    outer loop
      vertex 51.7 0 5
      vertex 51.125 -150 4
      vertex 51.7 -150 5
    endloop
  endfacet
  facet normal -0 0 1
    outer loop
      vertex 46 0 4
      vertex 51.125 -150 4
      vertex 51.125 0 4
    endloop
  endfacet
  facet normal 0 0 1
    outer loop
      vertex 51.125 -150 4
      vertex 46 0 4
      vertex 46 -150 4
    endloop
  endfacet
  facet normal -0.928477 0 0.371391
    outer loop
      vertex 45.3 -150 2.25
      vertex 46 0 4
      vertex 45.3 0 2.25
    endloop
  endfacet
  facet normal -0.928477 0 0.371391
    outer loop
      vertex 46 0 4
      vertex 45.3 -150 2.25
      vertex 46 -150 4
    endloop
  endfacet
  facet normal -0 0 1
    outer loop
      vertex 44.7 0 2.25
      vertex 45.3 -150 2.25
      vertex 45.3 0 2.25
    endloop
  endfacet
  facet normal 0 0 1
    outer loop
      vertex 45.3 -150 2.25
      vertex 44.7 0 2.25
      vertex 44.7 -150 2.25
    endloop
  endfacet
  facet normal 0.928477 -0 0.371391
    outer loop
      vertex 44 -150 4
      vertex 44.7 0 2.25
      vertex 44 0 4
    endloop
  endfacet
  facet normal 0.928477 0 0.371391
    outer loop
      vertex 44.7 0 2.25
      vertex 44 -150 4
      vertex 44.7 -150 2.25
    endloop
  endfacet
  facet normal -0 0 1
    outer loop
      vertex 38.875 0 4
      vertex 44 -150 4
      vertex 44 0 4
    endloop
  endfacet
  facet normal 0 0 1
    outer loop
      vertex 44 -150 4
      vertex 38.875 0 4
      vertex 38.875 -150 4
    endloop
  endfacet
  facet normal 0.866906 -0 0.498471
    outer loop
      vertex 38.3 -150 5
      vertex 38.875 0 4
      vertex 38.3 0 5
    endloop
  endfacet
  facet normal 0.866906 0 0.498471
    outer loop
      vertex 38.875 0 4
      vertex 38.3 -150 5
      vertex 38.875 -150 4
    endloop
  endfacet
  facet normal -0 0 1
    outer loop
      vertex 37.7 0 5
      vertex 38.3 -150 5
      vertex 38.3 0 5
    endloop
  endfacet
  facet normal 0 0 1
    outer loop
      vertex 38.3 -150 5
      vertex 37.7 0 5
      vertex 37.7 -150 5
    endloop
  endfacet
  facet normal -0.866906 0 0.498471
    outer loop
      vertex 37.125 -150 4
      vertex 37.7 0 5
      vertex 37.125 0 4
    endloop
  endfacet
  facet normal -0.866906 0 0.498471
    outer loop
      vertex 37.7 0 5
      vertex 37.125 -150 4
      vertex 37.7 -150 5
    endloop
  endfacet
  facet normal -0 0 1
    outer loop
      vertex 32 0 4
      vertex 37.125 -150 4
      vertex 37.125 0 4
    endloop
  endfacet
  facet normal 0 0 1
    outer loop
      vertex 37.125 -150 4
      vertex 32 0 4
      vertex 32 -150 4
    endloop
  endfacet
  facet normal -0.928477 0 0.371391
    outer loop
      vertex 31.3 -150 2.25
      vertex 32 0 4
      vertex 31.3 0 2.25
    endloop
  endfacet
  facet normal -0.928477 0 0.371391
    outer loop
      vertex 32 0 4
      vertex 31.3 -150 2.25
      vertex 32 -150 4
    endloop
  endfacet
  facet normal -0 0 1
    outer loop
      vertex 30.7 0 2.25
      vertex 31.3 -150 2.25
      vertex 31.3 0 2.25
    endloop
  endfacet
  facet normal 0 0 1
    outer loop
      vertex 31.3 -150 2.25
      vertex 30.7 0 2.25
      vertex 30.7 -150 2.25
    endloop
  endfacet
  facet normal 0.928477 -0 0.371391
    outer loop
      vertex 30 -150 4
      vertex 30.7 0 2.25
      vertex 30 0 4
    endloop
  endfacet
  facet normal 0.928477 0 0.371391
    outer loop
      vertex 30.7 0 2.25
      vertex 30 -150 4
      vertex 30.7 -150 2.25
    endloop
  endfacet
  facet normal -0 0 1
    outer loop
      vertex 24.875 0 4
      vertex 30 -150 4
      vertex 30 0 4
    endloop
  endfacet
  facet normal 0 0 1
    outer loop
      vertex 30 -150 4
      vertex 24.875 0 4
      vertex 24.875 -150 4
    endloop
  endfacet
  facet normal 0.866906 -0 0.498471
    outer loop
      vertex 24.3 -150 5
      vertex 24.875 0 4
      vertex 24.3 0 5
    endloop
  endfacet
  facet normal 0.866906 0 0.498471
    outer loop
      vertex 24.875 0 4
      vertex 24.3 -150 5
      vertex 24.875 -150 4
    endloop
  endfacet
  facet normal -0 0 1
    outer loop
      vertex 23.7 0 5
      vertex 24.3 -150 5
      vertex 24.3 0 5
    endloop
  endfacet
  facet normal 0 0 1
    outer loop
      vertex 24.3 -150 5
      vertex 23.7 0 5
      vertex 23.7 -150 5
    endloop
  endfacet
  facet normal -0.866906 0 0.498471
    outer loop
      vertex 23.125 -150 4
      vertex 23.7 0 5
      vertex 23.125 0 4
    endloop
  endfacet
  facet normal -0.866906 0 0.498471
    outer loop
      vertex 23.7 0 5
      vertex 23.125 -150 4
      vertex 23.7 -150 5
    endloop
  endfacet
  facet normal -0 0 1
    outer loop
      vertex 18 0 4
      vertex 23.125 -150 4
      vertex 23.125 0 4
    endloop
  endfacet
  facet normal 0 0 1
    outer loop
      vertex 23.125 -150 4
      vertex 18 0 4
      vertex 18 -150 4
    endloop
  endfacet
  facet normal -0.928477 0 0.371391
    outer loop
      vertex 17.3 -150 2.25
      vertex 18 0 4
      vertex 17.3 0 2.25
    endloop
  endfacet
  facet normal -0.928477 0 0.371391
    outer loop
      vertex 18 0 4
      vertex 17.3 -150 2.25
      vertex 18 -150 4
    endloop
  endfacet
  facet normal -0 0 1
    outer loop
      vertex 16.7 0 2.25
      vertex 17.3 -150 2.25
      vertex 17.3 0 2.25
    endloop
  endfacet
  facet normal 0 0 1
    outer loop
      vertex 17.3 -150 2.25
      vertex 16.7 0 2.25
      vertex 16.7 -150 2.25
    endloop
  endfacet
  facet normal 0.928477 -0 0.371391
    outer loop
      vertex 16 -150 4
      vertex 16.7 0 2.25
      vertex 16 0 4
    endloop
  endfacet
  facet normal 0.928477 0 0.371391
    outer loop
      vertex 16.7 0 2.25
      vertex 16 -150 4
      vertex 16.7 -150 2.25
    endloop
  endfacet
  facet normal -0 0 1
    outer loop
      vertex 10.875 0 4
      vertex 16 -150 4
      vertex 16 0 4
    endloop
  endfacet
  facet normal 0 0 1
    outer loop
      vertex 16 -150 4
      vertex 10.875 0 4
      vertex 10.875 -150 4
    endloop
  endfacet
  facet normal 0.866906 -0 0.498471
    outer loop
      vertex 10.3 -150 5
      vertex 10.875 0 4
      vertex 10.3 0 5
    endloop
  endfacet
  facet normal 0.866906 0 0.498471
    outer loop
      vertex 10.875 0 4
      vertex 10.3 -150 5
      vertex 10.875 -150 4
    endloop
  endfacet
  facet normal -0 0 1
    outer loop
      vertex 9.7 0 5
      vertex 10.3 -150 5
      vertex 10.3 0 5
    endloop
  endfacet
  facet normal 0 0 1
    outer loop
      vertex 10.3 -150 5
      vertex 9.7 0 5
      vertex 9.7 -150 5
    endloop
  endfacet
  facet normal -0.866906 0 0.498471
    outer loop
      vertex 9.125 -150 4
      vertex 9.7 0 5
      vertex 9.125 0 4
    endloop
  endfacet
  facet normal -0.866906 0 0.498471
    outer loop
      vertex 9.7 0 5
      vertex 9.125 -150 4
      vertex 9.7 -150 5
    endloop
  endfacet
  facet normal -0 0 1
    outer loop
      vertex 0 0 4
      vertex 9.125 -150 4
      vertex 9.125 0 4
    endloop
  endfacet
  facet normal 0 0 1
    outer loop
      vertex 9.125 -150 4
      vertex 0 0 4
      vertex 0 -150 4
    endloop
  endfacet
  facet normal 1 -0 0
    outer loop
      vertex 0 -150 8.5
      vertex 0 0 4
      vertex 0 0 8.5
    endloop
  endfacet
  facet normal 1 0 0
    outer loop
      vertex 0 0 4
      vertex 0 -150 8.5
      vertex 0 -150 4
    endloop
  endfacet
  facet normal -1 0 0
    outer loop
      vertex -2 -150 0
      vertex -2 2 8.5
      vertex -2 2 0
    endloop
  endfacet
  facet normal -1 -0 0
    outer loop
      vertex -2 2 8.5
      vertex -2 -150 0
      vertex -2 -150 8.5
    endloop
  endfacet
  facet normal 0 0 -1
    outer loop
      vertex -2 -150 0
      vertex 162 2 0
      vertex 162 -150 0
    endloop
  endfacet
  facet normal -0 0 -1
    outer loop
      vertex 162 2 0
      vertex -2 -150 0
      vertex -2 2 0
    endloop
  endfacet
  facet normal 1 -0 0
    outer loop
      vertex 162 -150 8.5
      vertex 162 2 0
      vertex 162 2 8.5
    endloop
  endfacet
  facet normal 1 0 0
    outer loop
      vertex 162 2 0
      vertex 162 -150 8.5
      vertex 162 -150 0
    endloop
  endfacet
  facet normal 0 1 -0
    outer loop
      vertex 162 2 0
      vertex -2 2 8.5
      vertex 162 2 8.5
    endloop
  endfacet
  facet normal 0 1 0
    outer loop
      vertex -2 2 8.5
      vertex 162 2 0
      vertex -2 2 0
    endloop
  endfacet
  facet normal 0 -1 0
    outer loop
      vertex 142.7 0 2.25
      vertex 144 0 4
      vertex 142 0 4
    endloop
  endfacet
  facet normal 0 -1 0
    outer loop
      vertex 144 0 4
      vertex 142.7 0 2.25
      vertex 143.3 0 2.25
    endloop
  endfacet
  facet normal 0 -1 0
    outer loop
      vertex 128.7 0 2.25
      vertex 130 0 4
      vertex 128 0 4
    endloop
  endfacet
  facet normal 0 -1 0
    outer loop
      vertex 130 0 4
      vertex 128.7 0 2.25
      vertex 129.3 0 2.25
    endloop
  endfacet
  facet normal 0 -1 0
    outer loop
      vertex 114.7 0 2.25
      vertex 116 0 4
      vertex 114 0 4
    endloop
  endfacet
  facet normal 0 -1 0
    outer loop
      vertex 116 0 4
      vertex 114.7 0 2.25
      vertex 115.3 0 2.25
    endloop
  endfacet
  facet normal 0 -1 0
    outer loop
      vertex 100.7 0 2.25
      vertex 102 0 4
      vertex 100 0 4
    endloop
  endfacet
  facet normal 0 -1 0
    outer loop
      vertex 102 0 4
      vertex 100.7 0 2.25
      vertex 101.3 0 2.25
    endloop
  endfacet
  facet normal 0 -1 0
    outer loop
      vertex 86.7 0 2.25
      vertex 88 0 4
      vertex 86 0 4
    endloop
  endfacet
  facet normal 0 -1 0
    outer loop
      vertex 88 0 4
      vertex 86.7 0 2.25
      vertex 87.3 0 2.25
    endloop
  endfacet
  facet normal 0 -1 0
    outer loop
      vertex 72.7 0 2.25
      vertex 74 0 4
      vertex 72 0 4
    endloop
  endfacet
  facet normal 0 -1 0
    outer loop
      vertex 74 0 4
      vertex 72.7 0 2.25
      vertex 73.3 0 2.25
    endloop
  endfacet
  facet normal 0 -1 0
    outer loop
      vertex 58.7 0 2.25
      vertex 60 0 4
      vertex 58 0 4
    endloop
  endfacet
  facet normal 0 -1 0
    outer loop
      vertex 60 0 4
      vertex 58.7 0 2.25
      vertex 59.3 0 2.25
    endloop
  endfacet
  facet normal 0 -1 0
    outer loop
      vertex 44.7 0 2.25
      vertex 46 0 4
      vertex 44 0 4
    endloop
  endfacet
  facet normal 0 -1 0
    outer loop
      vertex 46 0 4
      vertex 44.7 0 2.25
      vertex 45.3 0 2.25
    endloop
  endfacet
  facet normal 0 -1 0
    outer loop
      vertex 30.7 0 2.25
      vertex 32 0 4
      vertex 30 0 4
    endloop
  endfacet
  facet normal 0 -1 0
    outer loop
      vertex 32 0 4
      vertex 30.7 0 2.25
      vertex 31.3 0 2.25
    endloop
  endfacet
  facet normal 0 -1 0
    outer loop
      vertex 16.7 0 2.25
      vertex 18 0 4
      vertex 16 0 4
    endloop
  endfacet
  facet normal 0 -1 0
    outer loop
      vertex 18 0 4
      vertex 16.7 0 2.25
      vertex 17.3 0 2.25
    endloop
  endfacet
  facet normal 0 -1 0
    outer loop
      vertex 142 0 4
      vertex 136.3 0 5
      vertex 136.875 0 4
    endloop
  endfacet
  facet normal 0 -1 0
    outer loop
      vertex 136.3 0 5
      vertex 142 0 4
      vertex 149.7 0 5
    endloop
  endfacet
  facet normal 0 -1 0
    outer loop
      vertex 144 0 4
      vertex 149.7 0 5
      vertex 142 0 4
    endloop
  endfacet
  facet normal 0 -1 0
    outer loop
      vertex 149.7 0 5
      vertex 144 0 4
      vertex 149.125 0 4
    endloop
  endfacet
  facet normal 0 -1 0
    outer loop
      vertex 128 0 4
      vertex 122.3 0 5
      vertex 122.875 0 4
    endloop
  endfacet
  facet normal 0 -1 0
    outer loop
      vertex 122.3 0 5
      vertex 128 0 4
      vertex 135.7 0 5
    endloop
  endfacet
  facet normal 0 -1 0
    outer loop
      vertex 130 0 4
      vertex 135.7 0 5
      vertex 128 0 4
    endloop
  endfacet
  facet normal 0 -1 0
    outer loop
      vertex 135.7 0 5
      vertex 130 0 4
      vertex 135.125 0 4
    endloop
  endfacet
  facet normal 0 -1 0
    outer loop
      vertex 114 0 4
      vertex 108.3 0 5
      vertex 108.875 0 4
    endloop
  endfacet
  facet normal 0 -1 0
    outer loop
      vertex 108.3 0 5
      vertex 114 0 4
      vertex 121.7 0 5
    endloop
  endfacet
  facet normal 0 -1 0
    outer loop
      vertex 116 0 4
      vertex 121.7 0 5
      vertex 114 0 4
    endloop
  endfacet
  facet normal 0 -1 0
    outer loop
      vertex 121.7 0 5
      vertex 116 0 4
      vertex 121.125 0 4
    endloop
  endfacet
  facet normal 0 -1 0
    outer loop
      vertex 100 0 4
      vertex 94.3 0 5
      vertex 94.875 0 4
    endloop
  endfacet
  facet normal 0 -1 0
    outer loop
      vertex 94.3 0 5
      vertex 100 0 4
      vertex 107.7 0 5
    endloop
  endfacet
  facet normal 0 -1 0
    outer loop
      vertex 102 0 4
      vertex 107.7 0 5
      vertex 100 0 4
    endloop
  endfacet
  facet normal 0 -1 0
    outer loop
      vertex 107.7 0 5
      vertex 102 0 4
      vertex 107.125 0 4
    endloop
  endfacet
  facet normal 0 -1 0
    outer loop
      vertex 86 0 4
      vertex 80.3 0 5
      vertex 80.875 0 4
    endloop
  endfacet
  facet normal 0 -1 0
    outer loop
      vertex 80.3 0 5
      vertex 86 0 4
      vertex 93.7 0 5
    endloop
  endfacet
  facet normal 0 -1 0
    outer loop
      vertex 88 0 4
      vertex 93.7 0 5
      vertex 86 0 4
    endloop
  endfacet
  facet normal 0 -1 0
    outer loop
      vertex 93.7 0 5
      vertex 88 0 4
      vertex 93.125 0 4
    endloop
  endfacet
  facet normal 0 -1 0
    outer loop
      vertex 72 0 4
      vertex 66.3 0 5
      vertex 66.875 0 4
    endloop
  endfacet
  facet normal 0 -1 0
    outer loop
      vertex 66.3 0 5
      vertex 72 0 4
      vertex 79.7 0 5
    endloop
  endfacet
  facet normal 0 -1 0
    outer loop
      vertex 74 0 4
      vertex 79.7 0 5
      vertex 72 0 4
    endloop
  endfacet
  facet normal 0 -1 0
    outer loop
      vertex 79.7 0 5
      vertex 74 0 4
      vertex 79.125 0 4
    endloop
  endfacet
  facet normal 0 -1 0
    outer loop
      vertex 58 0 4
      vertex 52.3 0 5
      vertex 52.875 0 4
    endloop
  endfacet
  facet normal 0 -1 0
    outer loop
      vertex 52.3 0 5
      vertex 58 0 4
      vertex 65.7 0 5
    endloop
  endfacet
  facet normal 0 -1 0
    outer loop
      vertex 60 0 4
      vertex 65.7 0 5
      vertex 58 0 4
    endloop
  endfacet
  facet normal 0 -1 0
    outer loop
      vertex 65.7 0 5
      vertex 60 0 4
      vertex 65.125 0 4
    endloop
  endfacet
  facet normal 0 -1 0
    outer loop
      vertex 44 0 4
      vertex 38.3 0 5
      vertex 38.875 0 4
    endloop
  endfacet
  facet normal 0 -1 0
    outer loop
      vertex 38.3 0 5
      vertex 44 0 4
      vertex 51.7 0 5
    endloop
  endfacet
  facet normal 0 -1 0
    outer loop
      vertex 46 0 4
      vertex 51.7 0 5
      vertex 44 0 4
    endloop
  endfacet
  facet normal 0 -1 0
    outer loop
      vertex 51.7 0 5
      vertex 46 0 4
      vertex 51.125 0 4
    endloop
  endfacet
  facet normal 0 -1 0
    outer loop
      vertex 30 0 4
      vertex 24.3 0 5
      vertex 24.875 0 4
    endloop
  endfacet
  facet normal 0 -1 0
    outer loop
      vertex 24.3 0 5
      vertex 30 0 4
      vertex 37.7 0 5
    endloop
  endfacet
  facet normal 0 -1 0
    outer loop
      vertex 32 0 4
      vertex 37.7 0 5
      vertex 30 0 4
    endloop
  endfacet
  facet normal 0 -1 0
    outer loop
      vertex 37.7 0 5
      vertex 32 0 4
      vertex 37.125 0 4
    endloop
  endfacet
  facet normal 0 -1 0
    outer loop
      vertex 16 0 4
      vertex 10.3 0 5
      vertex 10.875 0 4
    endloop
  endfacet
  facet normal 0 -1 0
    outer loop
      vertex 10.3 0 5
      vertex 16 0 4
      vertex 23.7 0 5
    endloop
  endfacet
  facet normal 0 -1 0
    outer loop
      vertex 18 0 4
      vertex 23.7 0 5
      vertex 16 0 4
    endloop
  endfacet
  facet normal 0 -1 0
    outer loop
      vertex 23.7 0 5
      vertex 18 0 4
      vertex 23.125 0 4
    endloop
  endfacet
  facet normal 0 -1 0
    outer loop
      vertex 10.3 0 5
      vertex 0 0 8.5
      vertex 9.7 0 5
    endloop
  endfacet
  facet normal 0 -1 0
    outer loop
      vertex 9.125 0 4
      vertex 0 0 8.5
      vertex 0 0 4
    endloop
  endfacet
  facet normal 0 -1 0
    outer loop
      vertex 0 0 8.5
      vertex 9.125 0 4
      vertex 9.7 0 5
    endloop
  endfacet
  facet normal 0 -1 0
    outer loop
      vertex 23.7 0 5
      vertex 0 0 8.5
      vertex 10.3 0 5
    endloop
  endfacet
  facet normal 0 -1 0
    outer loop
      vertex 24.3 0 5
      vertex 0 0 8.5
      vertex 23.7 0 5
    endloop
  endfacet
  facet normal 0 -1 0
    outer loop
      vertex 37.7 0 5
      vertex 0 0 8.5
      vertex 24.3 0 5
    endloop
  endfacet
  facet normal 0 -1 0
    outer loop
      vertex 38.3 0 5
      vertex 0 0 8.5
      vertex 37.7 0 5
    endloop
  endfacet
  facet normal 0 -1 0
    outer loop
      vertex 51.7 0 5
      vertex 0 0 8.5
      vertex 38.3 0 5
    endloop
  endfacet
  facet normal 0 -1 0
    outer loop
      vertex 52.3 0 5
      vertex 0 0 8.5
      vertex 51.7 0 5
    endloop
  endfacet
  facet normal 0 -1 0
    outer loop
      vertex 65.7 0 5
      vertex 0 0 8.5
      vertex 52.3 0 5
    endloop
  endfacet
  facet normal 0 -1 0
    outer loop
      vertex 66.3 0 5
      vertex 0 0 8.5
      vertex 65.7 0 5
    endloop
  endfacet
  facet normal 0 -1 0
    outer loop
      vertex 0 0 8.5
      vertex 66.3 0 5
      vertex 160 0 8.5
    endloop
  endfacet
  facet normal 0 -1 0
    outer loop
      vertex 79.7 0 5
      vertex 160 0 8.5
      vertex 66.3 0 5
    endloop
  endfacet
  facet normal 0 -1 0
    outer loop
      vertex 80.3 0 5
      vertex 160 0 8.5
      vertex 79.7 0 5
    endloop
  endfacet
  facet normal 0 -1 0
    outer loop
      vertex 93.7 0 5
      vertex 160 0 8.5
      vertex 80.3 0 5
    endloop
  endfacet
  facet normal 0 -1 0
    outer loop
      vertex 94.3 0 5
      vertex 160 0 8.5
      vertex 93.7 0 5
    endloop
  endfacet
  facet normal 0 -1 0
    outer loop
      vertex 107.7 0 5
      vertex 160 0 8.5
      vertex 94.3 0 5
    endloop
  endfacet
  facet normal 0 -1 0
    outer loop
      vertex 108.3 0 5
      vertex 160 0 8.5
      vertex 107.7 0 5
    endloop
  endfacet
  facet normal 0 -1 0
    outer loop
      vertex 121.7 0 5
      vertex 160 0 8.5
      vertex 108.3 0 5
    endloop
  endfacet
  facet normal 0 -1 0
    outer loop
      vertex 122.3 0 5
      vertex 160 0 8.5
      vertex 121.7 0 5
    endloop
  endfacet
  facet normal 0 -1 0
    outer loop
      vertex 135.7 0 5
      vertex 160 0 8.5
      vertex 122.3 0 5
    endloop
  endfacet
  facet normal 0 -1 0
    outer loop
      vertex 136.3 0 5
      vertex 160 0 8.5
      vertex 135.7 0 5
    endloop
  endfacet
  facet normal 0 -1 0
    outer loop
      vertex 149.7 0 5
      vertex 160 0 8.5
      vertex 136.3 0 5
    endloop
  endfacet
  facet normal 0 -1 0
    outer loop
      vertex 150.3 0 5
      vertex 160 0 8.5
      vertex 149.7 0 5
    endloop
  endfacet
  facet normal 0 -1 0
    outer loop
      vertex 150.875 0 4
      vertex 160 0 8.5
      vertex 150.3 0 5
    endloop
  endfacet
  facet normal 0 -1 -0
    outer loop
      vertex 160 0 8.5
      vertex 150.875 0 4
      vertex 160 0 4
    endloop
  endfacet
endsolid OpenSCAD_Model
